<svg width="250" height="250" viewBox="0 0 250 250" fill="none" xmlns="http://www.w3.org/2000/svg">
<path d="M0 60C0 26.8629 26.8629 0 60 0H190C223.137 0 250 26.8629 250 60V190C250 223.137 223.137 250 190 250H0V60Z" fill="#DEECDC"/>
<path d="M68.5918 133.557C70.228 123.816 72.2528 114.034 74.1958 104.252C76.916 104.374 79.6362 104.538 82.3768 104.743C86.3241 105.009 90.2714 105.295 94.2187 105.193C94.5255 105.193 95.5277 105.295 96.6935 105.398C96.6935 105.561 96.7139 105.725 96.7344 105.93C96.0595 109.184 96.5298 112.662 95.8754 116.039C95.9367 118.638 95.1391 141.558 97.8593 130.855C98.7387 122.403 100.068 113.931 101.213 105.439C101.213 105.398 101.213 105.357 101.213 105.295C101.438 105.193 101.561 105.07 101.5 104.886C101.5 104.661 101.438 104.477 101.336 104.333C102.154 98.5216 102.931 92.7097 103.606 86.8978C106.777 86.7137 109.967 86.7546 113.158 86.9387C116.982 87.1638 120.807 87.5322 124.632 87.7369C125.02 87.7983 126.554 88.0643 128.129 88.3303C127.311 90.7451 127.106 93.5283 126.8 96.2296C126.615 96.8026 127.147 97.2118 126.718 97.662C126.431 98.1737 126.677 99.0127 126.615 99.6471C126.677 99.9336 126.656 100.179 126.452 100.302C125.327 101.366 126.268 103.638 125.756 105.029C125.409 106.073 125.634 106.892 125.613 107.874C125.347 108.979 125.347 108.979 125.491 110.452C124.877 113.563 125.388 116.858 124.775 120.071C124.816 121.298 124.713 127.376 124.877 131.858C125.061 136.34 125.491 139.225 126.8 134.15C128.558 118.106 131.442 101.898 132.874 85.7518C133.078 83.9714 135.328 70.0761 133.999 70.7923C133.119 70.6695 132.588 73.0025 132.158 74.2304C130.563 76.8294 130.236 81.0654 129.213 84.4216C129.09 84.749 129.09 85.0765 129.09 85.4039C128.006 84.8104 126.677 84.5649 125.572 83.9919C125.184 83.7054 124.713 84.217 124.447 83.7258C123.179 82.457 121.461 82.498 119.825 82.3956C119.539 82.2524 119.334 82.8458 119.13 82.4366C118.884 82.191 118.455 82.5184 118.148 82.4979C118.005 82.5798 117.882 82.6003 117.821 82.3956C117.31 81.352 116.185 82.5184 115.489 82.1501C114.978 81.9045 114.569 82.2115 114.099 82.2933C113.546 82.1501 113.546 82.1501 112.83 82.457C111.297 82.1705 109.722 83.1119 108.126 82.8868C107.656 83.0505 105.713 83.5416 103.913 84.176C104.056 82.7845 104.22 81.3724 104.343 79.9809C104.568 78.0981 106.961 63.507 105.672 64.2438C104.813 64.121 104.261 66.5767 103.831 67.8659C102.236 70.6082 101.868 75.049 100.825 78.5893C100.498 79.4693 100.927 80.3697 100.395 81.045C98.9433 83.9305 98.7183 87.5527 98.2683 91.0521C98.0638 91.666 98.5956 92.0753 98.1661 92.546C97.8593 93.078 98.1047 93.9785 98.0229 94.6334C98.0638 94.9403 98.0638 95.1859 97.8593 95.3087C96.7344 96.4342 97.6138 98.8081 97.1025 100.281C96.8775 100.936 96.8775 101.53 96.898 102.103C96.2026 101.96 95.4868 101.816 94.8527 101.55C94.4437 101.325 94.0346 101.837 93.7074 101.387C92.3575 100.261 90.6804 100.445 89.0442 100.404C88.7579 100.281 88.5738 100.834 88.3489 100.466C88.1034 100.241 87.6944 100.568 87.3876 100.568C87.2444 100.65 87.1422 100.67 87.0604 100.466C86.5286 99.4834 85.4447 100.609 84.7493 100.261C84.238 100.036 83.8493 100.343 83.3585 100.404C82.8267 100.261 82.8063 100.261 82.1109 100.548C80.5974 100.241 79.0021 101.059 77.4273 100.793C77.1 100.875 76.0569 101.059 74.8093 101.325C75.9956 95.2268 77.1409 89.108 78.0818 82.9891C78.4294 81.1269 81.6405 66.6381 80.3315 67.3134C79.493 67.1497 78.818 69.5645 78.3067 70.8333C76.5887 73.4937 75.9342 77.9139 74.6866 81.4133C74.298 82.2728 74.6866 83.2142 74.114 83.8486C72.5187 86.6522 72.0687 90.2744 71.4347 93.7738C71.2097 94.3878 71.7006 94.8175 71.2506 95.2678C70.9234 95.7998 71.1075 96.7002 70.9847 97.3551C71.0052 97.6621 70.9847 97.9077 70.7802 98.0305C69.6553 99.0537 70.2689 101.325 69.7781 102.778C69.2667 103.065 69.1031 103.372 69.5122 103.699C69.369 104.456 69.4303 105.173 69.3485 105.95C69.0008 107.096 69.0213 107.096 69.0213 108.651C68.1828 111.885 68.4077 115.384 67.5692 118.72C67.4464 121.319 65.2785 144.218 68.5918 133.659V133.557Z" fill="#063312"/>
<path d="M154.185 135.522C154.799 128.953 155.638 122.364 156.456 115.754C161.998 116.122 167.582 116.982 173.165 116.838C173.452 116.838 174.556 117.002 175.763 117.084C175.722 119.11 175.763 121.177 175.395 123.223C175.436 124.513 175.415 130.877 175.701 135.563C175.988 140.25 176.479 143.258 177.808 137.937C178.667 129.567 179.812 121.136 181.04 112.725C182.267 104.314 183.555 95.8829 184.516 87.472C184.741 85.6098 187.666 71.2233 186.214 71.8986C185.253 71.7349 184.578 74.1292 184.067 75.398C182.226 78.0379 181.755 82.4583 180.549 85.9372C180.181 86.7967 180.651 87.7176 180.037 88.3725C178.401 91.1965 178.135 94.7982 177.665 98.2976C177.44 98.9116 178.033 99.3413 177.563 99.7916C177.235 100.324 177.501 101.224 177.419 101.879C177.481 102.186 177.46 102.431 177.235 102.554C175.988 103.659 176.99 106.054 176.438 107.507C176.049 108.591 176.295 109.451 176.274 110.474C175.988 111.62 175.988 111.64 176.151 113.175C176.11 113.38 176.09 113.605 176.049 113.81C175.313 113.564 174.536 113.421 173.84 113.052C173.513 112.807 173.145 113.339 172.899 112.868C171.815 111.681 170.404 111.825 169.034 111.743C168.809 111.599 168.625 112.193 168.441 111.784C168.236 111.538 167.889 111.866 167.623 111.866C167.5 111.947 167.398 111.968 167.357 111.763C166.948 110.72 165.987 111.886 165.434 111.497C165.025 111.231 164.678 111.559 164.268 111.62C163.819 111.456 163.819 111.456 163.205 111.743C161.937 111.395 160.567 112.254 159.258 111.947C158.951 112.05 157.99 112.254 156.865 112.561C156.967 111.702 157.09 110.842 157.192 109.983C158.255 101.449 159.299 92.8746 159.933 84.341C160.137 82.4583 162.264 67.7648 160.935 68.5425C160.014 68.4402 159.483 70.9163 159.053 72.2056C157.417 74.9887 157.131 79.4499 156.108 83.0107C155.781 83.8907 156.251 84.7912 155.719 85.487C154.267 88.3929 154.104 92.0355 153.735 95.5554C153.551 96.1693 154.124 96.5787 153.674 97.0698C153.367 97.6224 153.654 98.5023 153.592 99.1572C153.654 99.4641 153.654 99.7097 153.429 99.8529C152.283 100.999 153.265 103.373 152.754 104.846C152.406 105.931 152.651 106.811 152.631 107.834C152.365 109.001 152.386 109.001 152.529 110.556C151.915 113.83 152.488 117.309 151.895 120.706C152.038 123.305 151.649 146.307 154.165 135.563L154.185 135.522Z" fill="#063312"/>
<path d="M219.51 91.3801C219.51 90.1113 219.183 88.8834 219.02 87.6351C218.754 86.4072 218.304 85.2203 217.936 84.0129C217.404 82.9078 216.913 81.7413 216.299 80.6772C213.845 76.4411 210.511 73.1054 207.239 70.5064C203.946 67.9074 200.633 66.0452 197.81 64.715C196.726 64.2238 195.745 63.835 194.804 63.4871C193.515 62.7709 192.125 62.1569 190.632 61.6658C187.4 60.6425 183.862 60.09 180.242 60.0286C173.411 59.9263 166.518 59.9672 160.853 59.5579C152.529 58.9849 146.352 59.1691 138.805 59.0258C132.942 58.7121 126.268 58.5552 118.782 58.5552C106.49 57.9617 94.0959 57.7571 81.579 57.532C75.3205 57.4092 69.0416 57.2659 62.7423 57.1432L57.9973 57.0204C56.2793 56.9385 54.4999 57.1022 52.7819 57.532C51.0639 57.9822 49.4073 58.6985 47.9142 59.7831C46.4212 60.8063 45.1122 62.4434 44.3759 64.101C43.8237 65.3494 43.3124 67.273 42.9647 69.565C42.6375 71.8366 42.1671 74.4765 41.6148 77.6075C40.5309 83.8082 39.2015 91.5438 37.7085 100.057C34.7838 117.083 31.9613 137.384 31 154.533C31.0409 155.515 31.225 156.436 31.5113 157.337C31.8795 159.363 32.6158 163.108 34.3542 169.001C34.7633 170.188 35.1928 171.396 35.6632 172.583L36.42 174.384C36.7267 175.018 36.8904 175.489 37.3812 176.307C39.2424 179.254 41.9012 180.707 44.3555 181.833C49.3664 184.002 54.459 184.82 59.4903 185.414C69.4098 186.376 79.2065 187.153 89.085 187.849C108.822 189.241 128.599 190.55 148.418 191.758C158.337 192.31 168.195 192.945 178.237 193.231C180.753 193.293 183.289 193.313 185.866 193.19C188.443 193.068 191.041 192.883 193.843 192.229C194.558 192.044 195.295 191.819 196.051 191.512L197.81 190.755C198.976 190.243 200.244 189.63 201.471 188.893C203.966 187.399 206.237 185.148 207.668 182.651C210.573 177.658 211.554 172.46 212.372 167.426C212.802 164.868 212.925 162.453 213.191 159.956L213.886 152.548C214.786 142.684 215.665 132.82 216.565 122.977C216.79 120.808 217.383 114.914 218.14 107.363C218.508 103.577 218.938 99.4021 219.367 95.0431C219.51 94.0199 219.429 92.6079 219.449 91.4005L219.51 91.3801ZM34.1906 147.821C35.1724 140.147 36.0927 132.677 37.2585 125.126C39.5492 110.064 42.5966 95.0636 45.5213 79.9609L47.6688 68.726C48.037 67.0275 48.5687 65.5745 49.3663 64.6126C50.1026 63.6713 51.432 62.7913 52.8228 62.2797C54.234 61.7477 55.8293 61.5225 57.4041 61.5635L63.1309 61.7885L74.666 62.2388C90.0463 62.8527 105.447 63.4666 120.848 64.101L167.07 65.8814L178.626 66.3112C182.266 66.4135 185.805 66.9047 189.098 67.9688C192.35 69.033 195.274 70.7315 196.992 73.1258C197.933 74.2718 198.363 75.6839 198.731 77.1368C198.976 78.5693 199.058 80.3702 198.976 82.1915C198.649 89.5587 197.504 97.2329 196.706 104.927C195.867 112.643 195.274 120.337 194.62 127.97C193.965 135.624 193.229 143.216 192.39 150.85C192.002 154.717 191.675 158.483 191.102 162.146C190.816 163.967 190.488 165.788 190.018 167.426C189.772 168.244 189.507 169.022 189.22 169.636C189.077 169.861 188.913 170.25 188.811 170.311C188.791 170.413 188.689 170.393 188.668 170.475C188.116 170.741 187.216 171.109 186.48 171.314C185.702 171.539 184.905 171.723 184.066 171.846C182.41 172.092 180.589 172.132 178.708 172.132C177.828 172.132 176.581 172.132 175.006 172.112C173.431 172.112 171.549 172.112 169.381 172.132C165.086 172.092 159.707 172.01 153.653 171.866C141.546 171.58 126.758 171.109 112.626 170.598C111.317 170.557 110.049 170.495 108.76 170.454C109.374 162.862 110.908 155.249 111.071 147.596C111.092 147.289 111.255 146.245 111.419 145.038C125.981 145.836 140.543 146.552 155.044 146.961C159.094 147.166 190.795 149.131 188.914 147.718C188.975 146.757 183.616 146.225 180.794 145.795C174.597 144.076 165.025 143.81 157.253 142.725C155.29 142.377 153.449 142.909 151.915 142.316C145.452 140.74 137.66 140.597 130.072 140.249C128.722 140.044 127.945 140.699 126.84 140.188C125.613 139.86 123.772 140.188 122.341 140.126C121.686 140.208 121.175 140.208 120.848 139.962C118.189 138.673 113.321 139.84 110.069 139.287C107.676 138.919 105.856 139.205 103.668 139.205C101.132 138.919 101.111 138.939 97.8591 139.144C90.7417 138.51 83.4606 139.226 76.0977 138.612C73.3366 138.694 59.6744 138.796 49.6527 139.123C44.6418 139.308 40.5309 139.492 39.1401 139.84C37.7493 140.208 39.0787 140.617 44.9486 141.395C63.1513 142.275 81.5381 143.36 99.9248 144.383C102.481 144.526 105.038 144.669 107.574 144.813C107.39 145.447 107.185 146.102 106.899 146.675C106.613 147.084 107.185 147.555 106.633 147.841C105.263 149.151 105.345 150.911 105.202 152.609C105.038 152.896 105.692 153.142 105.222 153.326C104.936 153.571 105.304 154.021 105.263 154.328C105.345 154.492 105.365 154.594 105.14 154.656C103.974 155.127 105.222 156.354 104.752 157.03C104.445 157.541 104.793 157.971 104.833 158.483C104.629 159.035 104.629 159.035 104.915 159.792C104.486 161.348 105.345 163.067 104.936 164.683C105.079 165.277 105.467 168.081 106.04 170.332C94.3617 169.881 83.522 169.431 75.5251 169.001C70.8414 168.735 67.1395 168.531 64.7262 168.387C63.724 168.306 62.9877 168.285 62.5377 168.285C61.6174 168.162 60.7584 168.06 59.9198 167.937C59.8176 167.917 59.7358 167.896 59.613 167.855C58.0177 167.508 55.7679 167.016 52.6796 166.361C49.5913 165.666 45.5417 164.827 41.0831 163.21C39.4469 162.637 37.8311 161.921 36.7676 161.102C36.379 160.775 35.7655 160.14 35.336 159.547C34.8656 158.953 34.5383 158.319 34.2315 157.664C33.1066 155.106 33.5771 151.627 34.1293 147.821H34.1906Z" fill="#063312"/>
</svg>
