<svg width="250" height="250" viewBox="0 0 250 250" fill="none" xmlns="http://www.w3.org/2000/svg">
<path d="M0 60C0 26.8629 26.8629 0 60 0H190C223.137 0 250 26.8629 250 60V190C250 223.137 223.137 250 190 250H0V60Z" fill="#DEECDC"/>
<path d="M100.736 76.6455C100.213 77.244 99.764 77.8674 99.3902 78.5407C99.0412 79.1392 98.767 79.7377 98.4928 80.3611C97.9695 81.608 97.5956 82.9296 97.3962 84.3011C96.9476 88.8646 96.5988 92.9543 96.2748 97.2934C96.1752 98.4156 95.7763 101.832 95.4025 106.046C95.228 108.166 95.0535 110.46 94.904 112.779C94.7794 115.223 94.6549 117.667 94.5552 119.936C94.4306 122.654 96.3994 124.699 98.3932 125.522C98.9415 125.771 99.3652 125.896 99.7142 125.996C100.088 126.121 100.437 126.17 100.786 126.245C101.459 126.37 102.082 126.42 102.605 126.42C104.773 126.42 105.97 125.896 105.446 125.647C105.446 125.547 105.347 125.497 105.272 125.422C105.421 125.422 105.596 125.397 105.745 125.372C105.023 125.921 106.518 126.32 111.901 125.472C116.387 124.3 120.524 122.305 124.362 120.335C128.176 118.365 131.989 116.395 135.802 114.4C136.649 113.976 137.995 113.303 139.067 112.48C140.163 111.657 141.185 110.61 142.033 109.263C142.83 107.892 143.478 106.321 143.254 104.126C143.104 103.104 142.755 102.081 142.132 101.258C141.733 100.735 141.584 100.585 141.335 100.311L140.687 99.6375C139.017 97.9418 137.372 96.5951 135.902 95.1488L131.316 90.6601C128.275 87.6427 125.235 84.5007 121.945 81.5332C120.3 80.0369 118.68 78.6155 116.886 77.1692C115.016 75.7478 112.898 74.1269 109.733 73.4536C108.163 73.1294 106.368 73.2042 104.723 73.8027C103.054 74.4011 101.708 75.4236 100.686 76.5956L100.736 76.6455Z" fill="#063312"/>
<path d="M137.148 119.712C134.381 119.662 132.138 121.283 129.696 122.53C129.198 122.604 129.297 123.427 128.699 123.153C128.176 123.078 127.802 123.801 127.328 124.001C127.179 124.2 127.004 124.3 126.78 124.126C125.36 123.353 124.437 125.522 123.166 125.547C122.269 125.622 121.845 126.27 121.148 126.669C120.225 126.844 120.225 126.844 119.278 127.642C116.786 128.24 114.668 130.21 112.001 130.709C111.503 130.958 110.207 131.607 108.512 132.43C106.942 133.153 105.023 134.051 103.079 134.973C99.6394 136.594 97.3714 137.991 101.907 138.14C108.686 136.769 115.465 135.098 122.045 132.754C128.624 130.41 135.029 127.417 140.762 123.477C141.41 123.078 144.4 121.432 146.893 119.587C148.139 118.664 149.31 117.717 150.008 116.919C150.681 116.071 150.93 115.398 150.606 115.273C150.033 114.525 148.288 115.497 147.217 115.847C144.4 115.896 141.684 118.066 138.818 118.864C138.07 118.989 137.871 119.961 137.073 119.737L137.148 119.712Z" fill="#063312"/>
<path d="M103.702 68.7401C105.646 67.5681 107.54 67.4683 109.633 68.0419C111.727 68.6404 113.92 69.987 116.038 71.4832C120.3 74.6003 124.362 78.316 128.774 81.6326C129.247 82.0316 131.166 83.9018 133.06 85.4978C134.007 86.2958 134.93 87.0439 135.677 87.4179C136.45 87.8169 136.998 87.8918 137.123 87.5427C137.796 86.7696 136.774 85.4978 136.35 84.6749C135.951 82.256 133.609 80.5603 132.288 78.4905C132.014 77.892 131.141 78.0666 131.141 77.3434C130.518 75.0492 128.5 73.7524 126.705 72.3061C126.481 71.932 125.833 72.356 125.858 71.7824C125.733 71.3336 125.035 71.3086 124.686 71.0592C124.462 71.0094 124.313 70.9346 124.387 70.6852C124.487 69.2389 122.369 69.4883 121.82 68.5407C121.397 67.8674 120.674 67.8673 120.051 67.5681C119.478 66.9945 119.502 66.9696 118.431 66.7202C116.661 65.224 114.119 64.9996 111.951 63.9522C111.453 63.9522 110.082 63.653 108.387 63.9273C107.565 63.9273 106.667 64.3263 105.845 64.5507C105.047 64.9746 104.275 65.2739 103.702 65.8474C102.48 66.7701 101.808 67.8922 101.708 68.4159C101.633 68.9895 102.231 69.164 103.677 68.7401H103.702Z" fill="#063312"/>
<path d="M86.8543 100.959C86.5552 101.507 86.904 101.956 86.9539 102.48C86.7545 103.078 86.7795 103.078 87.0537 103.876C86.6549 105.547 87.5272 107.343 87.1533 109.063C87.4773 110.41 89.0475 122.205 90.9915 116.769C91.2656 108.116 92.8357 99.3878 92.8357 90.6599C92.9105 89.7122 93.9572 82.2311 92.6363 82.5802C91.7142 82.5054 91.3403 83.7523 91.0163 84.4006C89.5458 85.7722 89.5709 88.0664 88.7733 89.8618C88.4992 90.3107 89.0723 90.7845 88.549 91.1087C87.253 92.555 87.3528 94.4253 87.2282 96.2208C87.0786 96.52 87.7016 96.7694 87.2779 96.9939C87.0038 97.2682 87.3527 97.717 87.3278 98.0662C87.4026 98.2158 87.4275 98.3404 87.2032 98.4152C86.0568 98.9639 87.3029 100.211 86.8543 100.959Z" fill="#063312"/>
<path d="M192.451 66.3459C191.304 63.4283 189.36 60.9346 187.267 58.9645C183.055 55.0245 178.395 52.7552 175.229 51.234C173.61 50.5109 172.388 50.0121 171.641 49.7378C171.167 49.5632 170.868 49.5134 170.743 49.6131C167.105 46.9698 163.391 45.9474 160.027 45.1494C156.189 44.3015 152.575 43.9773 148.712 43.4038C142.681 42.3232 135.794 41.3174 128.051 40.3864C121.721 39.3141 115.365 38.3167 108.96 37.369C105.77 36.8952 102.555 36.4464 99.3403 35.9726C96.1502 35.5237 92.7857 35.0249 89.3214 35C85.8821 35 82.1189 35.4738 78.7792 37.4439C75.4147 39.364 73.1965 42.8053 72.0252 46.1219C70.8289 49.4884 70.3305 52.8549 69.7573 56.0967C69.1591 59.3385 68.5859 62.6053 67.9877 65.8721C67.265 70.7847 64.9223 85.3479 62.5297 103.228C60.0873 121.083 57.8194 142.254 56.8474 160.209C55.7758 178.164 56.0747 192.876 56.4486 197.764C56.623 200.208 56.8224 200.233 57.0966 196.991C57.3957 193.749 57.6201 187.291 58.4425 176.767C60.212 144.174 65.1465 111.657 70.7541 79.1386C72.1747 71.0091 73.6203 62.8796 75.0409 54.7252C75.7387 50.7602 76.6358 46.9947 78.5549 44.4262C80.3991 41.8826 83.3899 40.6108 87.0036 40.3864C90.6174 40.137 94.5054 40.8103 98.6176 41.4836L110.879 43.5035L135.403 47.5683L147.665 49.5632C151.777 50.2615 155.84 50.7851 159.528 51.8075C163.217 52.805 166.631 54.3013 168.849 56.6205C171.092 58.8897 172.089 61.932 172.114 65.5977C172.164 69.2136 171.416 73.2285 170.793 77.3431L168.899 89.6371L165.111 114.2C162.619 130.559 160.101 146.917 157.609 163.276C156.388 171.456 155.142 179.61 153.921 187.764L152.101 200.008L151.653 203.076C151.503 204.123 151.379 205.121 151.179 205.919C151.005 206.741 150.755 207.44 150.506 207.839C150.257 208.263 150.083 208.337 149.883 208.412C149.734 208.462 149.285 208.562 148.238 208.113C147.74 207.889 147.142 207.539 146.519 207.091C145.821 206.567 145.098 205.968 144.35 205.27C141.335 202.527 138.269 198.138 134.78 192.802C131.266 187.565 126.755 181.106 119.353 177.191C115.64 175.296 111.178 174.199 106.593 175.171C102.231 176.144 98.817 178.213 95.5023 180.233C89.0225 184.423 83.4896 189.086 78.2808 193.001C73.0969 196.891 68.262 200.308 64.1747 201.779C63.1778 202.053 62.1808 202.527 61.3335 202.552C60.4612 202.677 59.6138 202.851 59.1403 202.727C58.9907 202.702 58.8661 202.677 58.7664 202.627C58.5171 202.353 58.293 202.178 58.1185 202.153C58.0437 202.028 57.9439 201.854 57.8442 201.629C57.5701 200.906 57.4704 200.133 57.3957 199.759C57.296 199.385 57.1963 199.335 57.1215 199.734C56.8474 199.709 56.4735 200.881 56.7726 202.377C56.8474 202.652 56.9471 202.926 57.0966 203.2C56.6978 203.101 56.324 202.951 56 202.751C56.3988 204.098 57.1714 205.42 58.2181 206.592C58.6667 208.163 60.0125 209.734 61.9316 210.657C64.0998 211.679 66.2681 211.928 68.3367 212.402C69.3834 212.701 70.3056 211.903 71.1779 212.452C74.7667 213.624 79.178 212.153 82.717 210.133C83.4398 209.933 83.3898 209.036 84.1624 209.185C84.8852 209.135 85.4335 208.213 86.0566 207.814C86.2809 207.539 86.4803 207.365 86.7545 207.49C88.6486 207.839 89.6953 205.17 91.2655 204.622C92.4119 204.198 92.8854 203.325 93.7078 202.627C94.8293 202.053 94.8294 202.053 95.926 200.806C98.9914 199.111 101.259 196.093 104.4 194.273C105.222 193.475 108.736 190.308 111.926 187.216C114.618 185.42 117.135 183.749 119.303 182.253C120.325 182.951 121.347 183.7 122.269 184.547C124.986 186.991 127.278 189.859 129.347 192.951C133.484 199.086 137.173 205.919 143.104 210.731C144.575 211.978 146.369 213.125 148.687 213.45C148.886 213.474 149.086 213.474 149.26 213.474C150.631 214.073 152.874 214.721 156.214 214.746C159.553 214.547 162.893 213.549 165.859 211.579C167.329 210.582 168.7 209.36 169.796 207.839C170.32 207.066 170.843 206.293 171.217 205.47C171.591 204.672 171.865 203.948 172.139 203.225C174.158 197.49 175.529 191.954 176.8 186.218C179.192 174.872 181.186 163.55 183.13 152.179C186.968 129.462 190.557 106.694 193.149 83.9265C193.273 82.6547 193.946 79.2383 193.946 74.4255C193.897 71.9816 193.722 69.3134 192.575 66.2461L192.451 66.3459Z" fill="#063312"/>
</svg>
