<svg width="250" height="250" viewBox="0 0 250 250" fill="none" xmlns="http://www.w3.org/2000/svg">
<path d="M0 60C0 26.8629 26.8629 0 60 0H190C223.137 0 250 26.8629 250 60V190C250 223.137 223.137 250 190 250H0V60Z" fill="#DEECDC"/>
<path d="M115.539 174.397C115.93 161.472 117.228 148.465 119.35 135.56C121.431 122.656 124.274 109.896 127.467 97.3013C127.838 95.8995 129.692 89.8391 131.485 84.3146C133.215 78.7695 134.925 73.7603 134.039 74.1726C133.133 73.8222 131.608 77.3678 130.681 79.2024C127.962 83.0159 126.108 89.6536 124.027 94.8895C123.429 96.1881 123.635 97.5899 122.873 98.5587C120.566 102.805 119.453 108.33 118.32 113.669C117.99 114.596 118.485 115.256 117.929 115.957C117.517 116.781 117.578 118.121 117.414 119.152C117.414 119.626 117.372 119.997 117.125 120.203C115.745 121.914 116.301 125.563 115.58 127.81C115.065 129.479 115.168 130.819 115.024 132.386C114.612 134.179 114.632 134.179 114.591 136.55C113.582 141.58 113.891 146.877 113.129 152.113C113.129 153.144 113.087 156.03 113.067 159.658C113.067 163.245 113.17 167.491 113.396 171.078C113.623 174.665 113.953 177.592 114.303 178.561C114.653 179.55 115.065 178.581 115.56 174.417L115.539 174.397Z" fill="#063312"/>
<path d="M114.344 91.5503C115.333 92.045 116.116 91.9832 116.074 91.6534C116.528 90.8907 114.818 89.5302 113.952 88.7262C112.428 86.2732 108.905 84.6447 106.33 82.6864C105.712 82.1092 104.785 82.3566 104.414 81.6351C102.498 79.45 99.3871 78.3987 96.4204 77.3886C95.926 77.0794 95.4315 77.5742 95.1225 77.0382C94.7104 76.6465 93.8657 76.7702 93.2889 76.6053C93.0005 76.6053 92.7944 76.5847 92.712 76.3373C91.9291 74.9768 89.6217 75.7189 88.365 75.0799C87.4174 74.647 86.6139 74.8325 85.6868 74.7707C84.6567 74.4821 84.6362 74.4409 83.2558 74.6264C80.3098 73.9874 77.2194 74.8325 74.1704 74.7501C73.5935 74.8944 71.9042 75.2036 69.9264 75.822C67.9281 76.4198 65.6825 77.368 63.9107 78.3987C62.139 79.4088 60.8823 80.5013 60.5733 81.0785C60.2848 81.6763 60.9234 81.7588 63.0866 81.264C69.3496 78.6255 76.6015 78.2956 83.5237 79.4294C90.4665 80.5426 97.2032 83.1399 103.816 85.9846C104.537 86.3144 107.648 88.0253 110.512 89.5714C111.954 90.3341 113.314 91.0968 114.344 91.5297V91.5503Z" fill="#063312"/>
<path d="M110.203 106.743C110.656 105.98 109.091 104.702 108.308 103.939C106.948 101.589 103.693 100.105 101.344 98.2498C100.788 97.7139 99.9022 97.9818 99.5932 97.281C97.8626 95.1784 94.9783 94.2301 92.2383 93.3025C91.7851 93.0139 91.3112 93.5087 91.0434 92.9933C90.6725 92.6223 89.8897 92.7459 89.354 92.6016C89.0862 92.6223 88.8803 92.6016 88.8185 92.3543C88.118 91.0144 85.9548 91.8183 84.8217 91.1793C83.9564 90.7464 83.1942 90.9732 82.3495 90.9113C81.4018 90.6227 81.3811 90.6021 80.1038 90.7876C77.3844 90.1898 74.5207 91.035 71.7189 90.9525C71.2038 91.0968 69.6382 91.406 67.8046 92.0038C65.9711 92.581 63.8903 93.488 62.2834 94.4569C60.6558 95.4257 59.5227 96.4358 59.2548 97.013C59.0076 97.5902 59.6051 97.6932 61.5829 97.281C67.3101 94.8692 73.944 94.5599 80.2893 95.6113C86.6553 96.6419 92.8151 99.0331 98.9133 101.61C99.5725 101.919 102.416 103.486 105.053 104.908C106.371 105.609 107.628 106.31 108.575 106.701C109.503 107.134 110.224 107.052 110.203 106.743Z" fill="#063312"/>
<path d="M193.434 87.4479C194.505 87.7572 195.309 87.5304 195.227 87.2418C195.556 86.4585 193.578 85.3659 192.548 84.6857C191.539 83.5725 189.973 82.8305 188.304 82.1708C186.636 81.6349 185.194 81.1607 183.195 80.5011C182.392 80.1301 181.526 80.6248 180.929 80.027C179.59 79.3055 178.045 78.9138 176.417 78.7283C174.79 78.6459 173.1 78.5634 171.431 78.6871C170.834 78.584 170.525 79.2437 170.031 78.852C169.474 78.6252 168.691 79.0169 168.073 79.0994C167.806 79.2231 167.579 79.2643 167.414 79.0788C166.116 78.1099 164.159 79.6147 162.717 79.5323C161.625 79.4704 160.904 79.9239 159.998 80.2331C158.885 80.3362 158.864 80.3568 157.567 80.9958C154.456 81.4493 151.757 83.387 148.728 84.3146C148.234 84.6651 146.668 85.5309 144.876 86.7265C144.031 87.3449 143.083 88.0045 142.095 88.726C141.188 89.4681 140.302 90.2308 139.499 90.9317C137.933 92.3953 136.8 93.7351 136.553 94.3329C136.305 94.9514 137.027 94.9514 139.21 93.9413C142.239 91.8799 145.494 90.0659 148.955 88.7054C152.396 87.3037 155.96 86.1905 159.606 85.4896C161.419 85.0567 163.273 84.8712 165.107 84.5826C166.961 84.4383 168.794 84.191 170.669 84.191C174.378 84.0261 178.086 84.191 181.774 84.5826C182.165 84.6651 183.277 84.8094 184.658 85.1392C186.038 85.4896 187.727 85.8401 189.293 86.3348C190.9 86.7471 192.384 87.2212 193.475 87.4892L193.434 87.4479Z" fill="#063312"/>
<path d="M138.221 109.979C140.9 108.371 143.701 106.907 146.668 105.835C149.614 104.722 152.663 103.836 155.754 103.197C161.934 101.857 168.259 101.465 174.522 101.506C175.222 101.527 178.271 101.857 181.032 102.31C182.433 102.496 183.731 102.723 184.699 102.805C185.647 102.908 186.285 102.681 186.182 102.372C186.409 101.506 184.617 100.806 183.69 100.311C181.753 98.5175 178.251 98.2495 175.47 97.4662C174.769 97.1982 174.069 97.7548 173.533 97.2394C171.184 96.0232 168.259 96.3118 165.478 96.6004C164.963 96.518 164.757 97.1776 164.303 96.8066C163.829 96.621 163.191 97.0333 162.676 97.1364C162.449 97.2601 162.264 97.3219 162.119 97.1364C160.986 96.2706 159.4 97.7548 158.185 97.6723C157.278 97.6311 156.681 98.0846 155.918 98.3526C154.971 98.4557 154.971 98.4557 153.899 99.0535C151.283 99.4657 149.058 101.177 146.483 101.898C146.05 102.187 144.732 102.908 143.186 103.877C142.445 104.372 141.641 104.908 140.776 105.485C139.993 106.083 139.21 106.701 138.51 107.258C137.13 108.433 136.12 109.546 135.914 110.102C135.708 110.659 136.306 110.741 138.221 109.999V109.979Z" fill="#063312"/>
<path d="M219.722 72.8738L219.351 72.3172C219.104 71.9874 218.816 71.5339 218.61 71.3071L218.115 70.7093C217.785 70.3383 217.476 69.9672 217.147 69.6168C216.549 68.9366 215.952 68.2769 215.396 67.6379C214.304 66.3805 213.356 65.2055 212.553 64.216C211.832 63.3296 211.255 62.6287 210.801 62.1546V62.0516L210.843 61.6805C210.74 61.6393 210.616 61.6187 210.492 61.5774L209.05 61.2064L204.662 60.0933C203.632 59.8459 202.581 59.6397 201.531 59.413C199.45 58.9389 197.348 58.6091 195.247 58.238C193.393 57.9494 188.346 57.063 181.774 56.692C175.222 56.3003 167.146 56.424 159.524 57.9082C151.901 59.3099 144.876 62.1134 140.364 64.9169C138.077 66.2362 136.429 67.5761 135.461 68.4624C134.472 69.3282 134.122 69.7611 134.595 69.6168C134.925 70.0497 137.047 68.6686 139.828 67.2256C142.609 65.762 146.091 64.2366 148.605 63.4945C154.188 62.0516 161.254 60.7323 168.753 60.3818C176.252 59.9696 184.122 60.5261 191.044 61.8454C194.505 62.5669 197.843 62.5669 200.501 63.6594C201.963 64.1336 203.385 64.6077 204.806 65.0612C205.033 65.1436 205.095 65.1642 205.115 65.1849L205.239 65.2673L205.466 65.391C205.61 65.4734 205.404 65.762 205.404 65.8857C205.404 65.9476 205.383 65.9063 205.362 66.0506L205.28 66.6484L205.115 67.8646L204.806 70.3383C204.642 72.008 204.456 73.6777 204.271 75.3474C203.611 82.1088 203.138 89.1174 202.623 96.0437C202.314 98.5173 202.849 99.8984 202.293 101.919C201.881 104.145 202.025 107.484 201.84 110.102C201.84 111.277 201.798 112.225 201.551 112.844C200.109 117.709 200.789 126.552 199.985 132.489C199.409 136.859 199.532 140.157 199.326 144.136C198.811 148.774 198.832 148.774 198.688 154.69C198.358 157.926 198.049 161.163 197.802 164.42C197.657 166.048 197.534 167.677 197.39 169.305L197.307 170.439L197.266 171.016V171.325C197.266 171.325 197.122 171.305 197.06 171.284L196.236 171.078L195.247 170.769C194.835 170.645 194.444 170.501 194.032 170.418L189.108 169.181L184.122 168.151C182.453 167.862 180.785 167.573 179.075 167.285C176.541 167.058 168.959 166.192 159.75 166.852C150.582 167.45 139.787 169.429 131.361 172.933C122.852 176.272 116.899 180.787 115.209 182.56C114.323 183.405 114.447 183.57 115.889 182.848C116.61 182.477 117.64 181.9 119.041 181.075C120.524 180.375 122.337 179.365 124.707 178.334C131.897 174.871 139.787 172.665 147.822 171.449C155.856 170.253 164.097 170.006 172.256 170.707C176.335 171.098 180.393 171.634 184.39 172.48C186.388 172.912 188.387 173.325 190.344 173.922L193.29 174.747L197.637 176.252L197.905 176.334C198.275 177.138 198.832 178.354 199.697 180.21L201.325 183.013C201.881 183.92 202.437 184.827 202.993 185.693C202.561 185.507 202.149 185.343 201.798 185.198C198.193 182.766 191.992 181.859 187.027 180.54C185.77 180.127 184.534 180.601 183.566 180.004C179.425 178.293 174.233 178.313 169.248 178.334C168.341 178.21 167.867 178.89 167.126 178.458C166.302 178.19 165.107 178.622 164.18 178.684C163.768 178.808 163.417 178.849 163.191 178.622C161.337 177.509 158.267 179.179 156.083 178.952C154.476 178.87 153.343 179.385 151.921 179.653C150.232 179.715 150.232 179.756 148.172 180.416C143.495 180.869 139.025 182.807 134.307 183.796C133.462 184.106 130.928 185.033 127.92 186.353C124.913 187.692 121.472 189.527 118.856 191.444C117.826 192.186 116.94 192.928 116.198 193.609C116.219 193.155 115.724 191.877 113.891 190.042C109.358 186.188 104.476 182.683 99.3458 179.468C94.1954 176.293 88.7153 173.551 82.988 171.408C71.554 167.058 58.9251 165.533 46.9349 167.037C46.2551 167.037 44.4627 167.244 42.1553 167.532C41.9287 167.553 41.6815 167.594 41.4343 167.615C41.3931 167.615 41.3518 167.573 41.3312 167.553L41.0428 167.305C40.0334 166.481 39.0032 165.615 37.9937 164.77C36.0983 163.224 34.2854 161.781 32.8639 160.771C34.3266 160.4 35.7894 160.049 37.2727 159.72C38.6736 159.472 40.0745 159.287 41.496 159.142C44.3597 158.895 47.2646 158.854 50.19 159.019C52.621 158.998 59.9141 159.101 68.7316 160.462C73.1404 161.121 77.9199 162.07 82.5553 163.533C87.1907 164.997 91.7026 166.955 95.6375 169.161C103.549 173.551 108.905 178.952 110.8 180.601C111.769 181.426 111.933 181.302 111.006 179.9C110.079 178.499 108.04 175.757 103.94 172.047C99.0368 168.027 93.5361 164.708 87.7058 162.234C81.9167 159.699 75.7362 158.029 69.6381 156.854C63.5194 155.679 57.3182 154.896 51.0346 154.607C47.9032 154.463 44.7305 154.442 41.5373 154.649C39.9509 154.752 38.344 154.917 36.737 155.164L36.325 155.226C40.7337 136.467 45.1631 117.688 49.5719 98.909C51.9205 88.767 54.2486 78.6456 56.5972 68.5243L57.4624 64.7314L57.8951 62.8349L57.9568 62.5875V62.5463V62.4638L58.0393 62.4226L58.3276 62.2989L60.0582 61.6393C61.2119 61.1858 62.4274 60.8972 63.6017 60.5055C68.3813 59.145 73.2845 58.1349 78.2908 57.7433C80.0419 57.5784 84.8216 57.3104 90.9403 57.7021C97.0384 58.0731 104.455 59.3305 111.233 61.4744C118.032 63.5976 124.171 66.5248 128.229 69.0396C129.28 69.5962 130.187 70.1734 130.949 70.7093C131.711 71.2247 132.391 71.6164 132.906 71.9049C133.957 72.5027 134.451 72.6677 134.225 72.276C134.554 71.8843 132.844 70.2352 130.537 68.2563C129.26 67.3699 127.9 66.4011 126.602 65.4941C125.242 64.6077 123.862 63.8862 122.77 63.2265C118.052 60.0726 111.336 57.2486 103.981 55.5376C96.6264 53.7648 88.6947 53.064 81.5253 53.0227C79.7123 52.9197 77.9817 53.1876 76.3748 53.4144C75.5713 53.5175 74.7679 53.6205 74.0057 53.6824C73.2434 53.7854 72.5017 53.8473 71.76 53.8267C68.7316 53.9297 65.5795 54.4038 62.3656 55.1459C60.7793 55.5582 59.1312 55.888 57.5243 56.5065L54.3721 57.6402L53.2803 58.0525C53.0331 58.0525 53.033 58.2999 52.9918 58.4854L52.8476 59.0626L52.2913 61.3301C50.705 67.8028 49.2217 74.5641 47.6972 81.2018C47.0173 83.5517 47.3881 84.9947 46.5022 86.8705C45.74 88.9731 45.4103 92.2507 44.8335 94.7656C44.6687 95.92 44.4833 96.827 44.1331 97.3836C41.9081 101.877 41.3518 110.618 39.6418 116.245C38.4057 120.409 38.0762 123.646 37.2933 127.48C36.5104 130.434 35.803 133.836 35.1713 137.683C34.306 141.105 33.5232 144.568 32.7815 148.052C32.0192 151.783 31.2364 155.576 30.4535 159.369C30.2475 159.328 30.1033 159.328 30.1033 159.493C29.9179 159.72 30.0003 160.07 30.2063 160.503C30.1445 160.853 30.062 161.183 30.0002 161.534C30.2474 161.472 30.4947 161.41 30.742 161.348C31.4424 162.296 32.4518 163.348 33.1111 164.131C34.1824 165.986 35.9335 167.841 37.8495 169.717L38.5706 170.418L39.5594 171.325L40.0951 171.82C40.3011 171.902 40.5484 171.82 40.775 171.82L42.1965 171.717C43.515 171.655 44.8336 171.593 46.0697 171.614C47.3264 171.779 48.4182 171.037 49.4276 171.511C51.5084 171.944 53.7335 172.273 56.0409 172.294C58.3277 172.5 60.7175 172.418 63.0455 172.727C63.8696 172.954 64.4052 172.315 65.0438 172.83C65.7649 173.16 66.9393 172.954 67.8251 173.098C68.2372 173.057 68.5668 173.098 68.7316 173.366C70.1738 174.747 73.3258 174.087 75.2211 174.953C76.5808 175.633 77.7551 175.572 79.0736 175.86C80.5364 176.479 80.5158 176.52 82.5553 176.85C84.6155 177.695 86.6963 178.519 88.8595 179.241C90.9609 180.107 93.1653 180.89 95.1019 182.209C95.5139 182.395 96.3173 182.745 97.368 183.199C98.3981 183.714 99.6961 184.353 101.138 185.075C103.981 186.538 107.278 188.414 110.059 190.084C111.48 190.888 112.696 191.692 113.726 192.289C114.735 192.928 115.559 193.299 115.848 193.629C115.91 193.712 115.971 193.732 116.013 193.753C114.962 194.742 114.262 195.608 114.014 196.103C113.623 196.969 114.509 196.68 117.681 195.093C122.296 192.104 127.694 190.166 133.256 188.641C138.86 187.136 144.608 186.002 150.376 185.26C161.934 183.755 173.656 183.693 185.214 184.703C185.853 184.807 187.583 184.992 189.767 185.384C191.971 185.734 194.629 186.27 197.184 186.765C200.892 187.548 204.332 188.332 205.775 188.373C206.084 188.455 206.351 188.496 206.66 188.538C207.155 188.6 208.123 188.228 208.247 188.064C208.515 187.878 208.824 187.651 209.133 187.218C209.442 186.785 209.771 186.146 209.813 185.054L210.08 182.065L210.451 177.818C210.822 173.716 211.193 169.614 211.564 165.512C212.347 157.308 213.109 149.083 213.892 140.837C215.437 124.367 216.982 107.897 218.177 91.5086C218.28 90.5604 218.527 87.9837 218.857 84.6649C219.022 83.0158 219.186 81.1811 219.372 79.2847C219.454 78.3364 219.557 77.3676 219.64 76.3987L219.784 74.7084C219.825 74.2549 219.846 73.822 219.866 73.3685C219.928 73.1418 219.743 72.9562 219.64 72.7707L219.722 72.8738ZM206.66 115.111C206.681 114.843 206.702 114.555 206.722 114.287C206.763 114.575 206.763 114.843 206.66 115.111ZM206.496 118.348C206.557 118.76 206.537 119.069 206.351 119.296C206.393 118.698 206.434 118.08 206.496 117.482C206.496 117.791 206.516 118.08 206.496 118.368V118.348ZM205.507 130.922C205.486 131.087 205.466 131.252 205.424 131.396C205.445 131.128 205.465 130.84 205.486 130.572C205.486 130.695 205.486 130.819 205.486 130.943L205.507 130.922ZM207.32 175.283C207.299 176.417 207.258 177.612 207.237 178.829C207.237 179.88 207.217 180.972 207.196 182.044V183.879L207.155 184.868C207.196 185.219 206.99 185.549 206.702 185.652C206.413 185.775 206.166 185.61 206.042 185.404L205.569 184.827C205.239 184.394 204.909 183.961 204.58 183.549C203.879 182.622 203.117 181.55 202.437 180.54C201.819 179.653 201.222 178.829 200.665 178.045C200.398 177.654 200.13 177.324 199.882 176.994L200.603 177.241L200.974 177.365C200.974 177.365 201.119 177.427 201.139 177.406V177.241L201.242 176.561L201.407 175.18L202.087 169.779L202.767 163.471L203.92 150.876C204.415 144.96 204.868 139.065 205.321 133.148C205.321 133.561 205.363 134.055 205.424 134.859C204.786 139.621 205.342 144.589 204.744 149.536C204.868 153.288 204.497 186.414 207.114 170.707C207.443 165.43 207.876 160.132 208.309 154.834C208.185 158.462 208.061 162.111 207.608 165.78C207.567 167.079 207.485 170.748 207.361 175.304L207.32 175.283ZM216.59 74.3992L216.488 74.9146L216.075 77.7593C215.54 81.6553 215.066 85.7368 214.427 89.3854C214.036 91.2201 214.469 92.9722 213.851 94.3946C213.356 96.188 212.965 98.1257 212.656 100.105C212.717 98.9296 212.8 97.734 212.862 96.559C212.965 95.1985 213.562 89.1793 213.974 83.6754C214.18 80.9132 214.345 78.2746 214.304 76.3987C214.242 74.5229 214.015 73.4098 213.747 73.719C212.985 73.6365 212.491 77.2439 212.038 79.1198C210.41 83.2219 210.101 89.674 209.071 94.8893C208.741 96.188 209.215 97.466 208.659 98.4761C208.103 100.084 207.752 101.816 207.485 103.65C207.567 102.599 207.649 101.548 207.711 100.496C208.35 92.1271 208.988 83.7785 209.648 75.4093L210.163 69.1633L210.472 65.7208L210.595 64.3191C211.337 65.7827 212.408 67.5142 213.232 68.6892C213.892 70.0497 214.881 71.4721 215.869 72.9356C216.137 73.3273 216.323 73.6159 216.467 73.9251L216.59 74.1518C216.59 74.1518 216.57 74.3168 216.549 74.4198L216.59 74.3992Z" fill="#063312"/>
<path d="M134.657 124.264C134.39 124.82 135.028 125.026 137.047 124.49C142.774 121.708 148.976 119.729 155.28 118.492C161.604 117.214 168.012 116.616 174.419 116.327C175.14 116.327 178.271 116.472 181.114 116.698C183.978 116.884 186.574 117.131 186.347 116.389C186.491 115.42 184.617 114.905 183.628 114.493C181.526 112.885 178.003 112.864 175.16 112.205C174.439 111.957 173.78 112.555 173.203 112.06C170.793 110.927 167.867 111.298 165.086 111.607C164.571 111.524 164.365 112.205 163.912 111.834C163.438 111.648 162.799 112.081 162.284 112.163C162.058 112.287 161.872 112.349 161.728 112.163C160.595 111.236 159.009 112.782 157.773 112.658C156.845 112.596 156.269 113.05 155.486 113.318C154.538 113.38 154.538 113.4 153.446 113.977C150.809 114.307 148.502 115.977 145.865 116.554C145.37 116.822 144.093 117.502 142.445 118.409C140.838 119.316 139.004 120.471 137.521 121.584C136.038 122.676 134.925 123.728 134.657 124.264Z" fill="#063312"/>
<path d="M132.844 139.58C132.597 140.157 133.236 140.24 135.234 139.621C138.077 138.158 141.023 136.777 144.093 135.787C147.163 134.757 150.294 133.891 153.487 133.314C156.681 132.695 159.895 132.324 163.129 132.139C166.363 131.912 169.598 131.912 172.812 131.994C173.533 132.036 176.664 132.448 179.487 132.963C180.908 133.169 182.268 133.479 183.236 133.582C184.205 133.705 184.843 133.561 184.761 133.211C185.008 132.304 183.195 131.561 182.247 131.025C180.29 129.191 176.726 128.82 173.883 127.975C173.162 127.686 172.441 128.222 171.905 127.686C169.516 126.408 166.528 126.594 163.665 126.8C163.15 126.717 162.902 127.356 162.449 126.965C161.975 126.758 161.296 127.15 160.78 127.233C160.554 127.356 160.348 127.397 160.204 127.212C159.07 126.284 157.402 127.748 156.145 127.604C155.218 127.521 154.6 127.954 153.796 128.222C152.828 128.284 152.828 128.284 151.695 128.861C148.996 129.17 146.648 130.84 143.969 131.479C143.516 131.768 142.136 132.468 140.529 133.417C139.767 133.891 138.901 134.447 138.015 135.004C137.191 135.602 136.367 136.2 135.626 136.756C134.163 137.91 133.071 139.003 132.824 139.539L132.844 139.58Z" fill="#063312"/>
<path d="M130.867 154.195C138.201 152.154 145.618 150.382 153.096 149.186C160.574 147.99 168.053 147.413 175.49 147.557C176.314 147.599 179.92 147.97 183.154 148.568C184.782 148.856 186.306 149.165 187.419 149.33C188.511 149.516 189.232 149.433 189.108 149.083C189.376 148.176 187.295 147.331 186.203 146.795C183.916 144.878 179.817 144.527 176.561 143.661C175.737 143.373 174.934 143.929 174.295 143.414C171.535 142.157 168.156 142.445 164.901 142.672C164.303 142.59 164.036 143.229 163.52 142.858C162.985 142.672 162.223 143.084 161.625 143.167C161.357 143.29 161.151 143.332 160.966 143.146C159.709 142.218 157.793 143.744 156.372 143.579C155.321 143.497 154.621 143.95 153.714 144.197C152.622 144.239 152.622 144.239 151.324 144.816C148.296 145.104 145.494 146.671 142.424 147.145C141.332 147.578 135.935 149.619 132.103 151.453C128.25 153.267 125.902 154.731 130.846 154.195H130.867Z" fill="#063312"/>
<path d="M106.598 122.079C107.072 121.234 105.547 120.059 104.764 119.358C103.405 117.091 100.17 115.813 97.7802 114.164C97.2034 113.669 96.3587 114.019 96.0085 113.339C94.1955 111.381 91.3525 110.742 88.6949 110C88.2623 109.752 87.8089 110.288 87.5411 109.773C87.1702 109.422 86.4286 109.629 85.9342 109.484C85.687 109.526 85.5016 109.484 85.4398 109.258C84.7599 107.959 82.7409 108.825 81.6902 108.186C80.8868 107.753 80.2069 107.959 79.3622 107.876C78.4557 107.526 78.4352 107.567 77.1784 107.67C74.562 106.99 71.8219 107.732 69.1437 107.464C68.6287 107.567 67.1248 107.773 65.3324 108.186C63.5401 108.598 61.4593 109.237 59.8112 110.02C58.163 110.783 56.9887 111.69 56.7209 112.205C56.4531 112.741 57.0093 112.886 58.8841 112.7C61.6653 111.855 64.7761 111.546 67.8664 111.566C70.9773 111.607 74.1087 111.917 77.1372 112.535C78.5999 112.844 80.1863 113.257 81.7726 113.669L86.4492 114.926C89.5395 115.792 92.5886 116.72 95.5964 117.709C96.2557 117.957 99.0781 119.235 101.653 120.451C104.229 121.667 106.577 122.78 106.618 122.017L106.598 122.079Z" fill="#063312"/>
<path d="M105.98 138.364C106.412 137.581 104.847 136.385 104.043 135.664C102.642 133.355 99.3048 132.097 96.8325 130.448C96.2351 129.954 95.3904 130.304 95.0196 129.624C93.1242 127.645 90.2194 127.047 87.5 126.346C87.0468 126.099 86.6141 126.655 86.3257 126.14C85.9549 125.769 85.1926 125.996 84.6776 125.872C84.4304 125.913 84.2243 125.872 84.1625 125.645C83.4621 124.326 81.4224 125.212 80.3718 124.553C79.5889 124.099 78.8678 124.305 78.0644 124.202C77.1991 123.831 77.199 123.852 75.9629 123.893C73.3671 122.945 70.5241 123.481 67.8665 122.842C66.8364 122.883 61.7271 122.986 58.06 123.646C56.2264 123.976 54.7638 124.408 54.3106 124.821C53.8573 125.254 54.3312 125.583 56.3501 126.037C59.5228 126.078 62.7779 126.387 66.0124 126.861C69.2675 127.336 72.4195 127.933 75.5304 128.84C82.0611 130.654 88.5094 132.159 94.6281 134.138C95.308 134.365 98.1923 135.643 100.829 136.859C102.148 137.478 103.425 138.034 104.352 138.385C105.279 138.756 105.959 138.694 105.939 138.364H105.98Z" fill="#063312"/>
<path d="M93.8246 146.156C93.2066 145.682 92.3619 145.991 91.9704 145.332C90.0339 143.415 87.129 142.693 84.3477 141.93C83.8945 141.662 83.4413 142.198 83.1323 141.683C82.7409 141.333 81.9786 141.497 81.443 141.374C81.1751 141.415 80.9897 141.374 80.9073 141.147C80.1656 139.869 78.0849 140.673 76.9518 140.055C76.1071 139.622 75.3654 139.807 74.5413 139.745C73.6142 139.416 73.6143 139.436 72.337 139.539C69.7206 138.776 66.8568 139.333 64.1374 138.756C63.5606 138.776 62.0772 138.859 60.1407 138.941C58.2453 139.065 56.0204 139.271 54.1456 139.56C52.2708 139.848 50.7463 140.24 50.2312 140.59C49.7162 140.941 50.2313 141.374 52.3533 141.807C59.0076 141.972 65.7032 142.879 72.2545 144.322C78.8265 145.723 85.2749 147.661 91.6409 149.681C92.3413 149.929 95.3492 151.207 98.0892 152.423C99.4695 153 100.788 153.577 101.736 153.886C102.683 154.237 103.363 154.216 103.343 153.866C103.775 153.021 102.107 151.907 101.262 151.186C99.7167 148.939 96.2968 147.743 93.7834 146.115L93.8246 146.156Z" fill="#063312"/>
<path d="M121.39 186.126C125.469 184.271 129.733 182.684 134.183 181.55C138.613 180.396 143.104 179.468 147.678 178.87C152.231 178.211 156.825 177.819 161.398 177.633C165.993 177.386 170.566 177.448 175.119 177.613C175.614 177.675 176.973 177.798 178.724 177.984C180.434 178.293 182.556 178.499 184.555 178.911C185.544 179.076 186.512 179.241 187.418 179.406C188.304 179.592 189.108 179.757 189.788 179.839C191.127 180.066 191.992 180.004 191.848 179.633C192.136 178.726 189.561 177.778 188.222 177.139C185.379 175.118 180.434 174.479 176.479 173.552C175.49 173.222 174.501 173.717 173.739 173.201C170.422 171.82 166.322 171.965 162.387 172.15C161.666 172.047 161.316 172.707 160.719 172.315C160.059 172.088 159.132 172.501 158.39 172.583C158.061 172.707 157.793 172.748 157.608 172.542C156.124 171.552 153.735 173.057 152.004 172.913C150.727 172.83 149.841 173.284 148.728 173.531C147.389 173.593 147.389 173.593 145.782 174.211C142.074 174.521 138.592 176.293 134.863 176.974C134.183 177.221 132.226 178.066 129.836 179.035C127.488 180.128 124.727 181.468 122.543 182.828C120.339 184.147 118.691 185.508 118.258 186.167C117.826 186.848 118.65 186.971 121.431 186.106L121.39 186.126Z" fill="#063312"/>
<path d="M102.21 175.51C101.427 174.788 100.314 174.788 99.8404 173.963C97.3476 171.325 93.5156 169.614 89.7661 168.068C89.148 167.676 88.5506 168.068 88.1386 167.491C87.6235 167.037 86.5934 166.955 85.8723 166.728C85.5221 166.687 85.2543 166.625 85.1513 166.378C84.1418 164.935 81.3194 165.182 79.7536 164.399C78.5793 163.801 77.5905 163.822 76.4368 163.595C75.1595 163.121 75.1388 163.121 73.4083 163.018C69.7824 161.822 65.8269 162.049 62.0155 161.265C61.2739 161.265 59.0901 161.224 56.453 161.265C55.1551 161.348 53.7335 161.43 52.2708 161.513C50.8493 161.657 49.4073 161.843 48.13 162.028C45.5341 162.44 43.4739 163.018 42.7941 163.389C42.1142 163.78 42.8558 164.11 45.8431 164.337C50.4373 164.131 55.0934 164.234 59.7082 164.914C64.323 165.491 68.9377 166.398 73.4289 167.697C75.6951 168.274 77.8995 169.078 80.1451 169.779C82.3289 170.624 84.5539 171.366 86.6964 172.314C91.0228 174.067 95.2256 176.149 99.3047 178.375C99.7373 178.643 100.953 179.364 102.436 180.354C103.899 181.384 105.732 182.539 107.381 183.817C108.225 184.415 109.029 185.012 109.791 185.569C110.512 186.146 111.192 186.662 111.769 187.053C112.881 187.898 113.808 188.084 113.788 187.754C114.323 187.177 112.387 185.157 111.419 183.982C109.667 180.931 105.423 178.107 102.189 175.53L102.21 175.51Z" fill="#063312"/>
</svg>
