<svg width="250" height="250" viewBox="0 0 250 250" fill="none" xmlns="http://www.w3.org/2000/svg">
<path d="M0 60C0 26.8629 26.8629 0 60 0H190C223.137 0 250 26.8629 250 60V190C250 223.137 223.137 250 190 250H0V60Z" fill="#DEECDC"/>
<path d="M127.485 107.856C131.596 109.244 136.822 110.235 142.321 111.127C145.095 111.573 147.894 112.019 150.668 112.441C152.104 112.689 153.59 112.912 155.126 112.912C156.662 112.912 158.346 112.788 160.055 111.92C160.922 111.524 161.714 110.805 162.234 109.963C162.779 109.12 162.978 108.302 163.151 107.658C163.473 106.344 163.696 105.204 164.265 104.188C165.974 99.9009 166.965 95.0931 167.683 90.1118C167.981 87.7575 168.476 85.4279 168.872 82.7514C169.194 80.0749 169.69 77.3984 168.971 73.7554C168.922 73.1358 168.55 72.3923 168.228 71.7728C167.956 71.1284 167.436 70.7071 167.064 70.2363C166.618 69.8397 166.148 69.4928 165.652 69.1458C165.107 68.898 164.612 68.5758 164.018 68.1545C164.018 68.1545 163.968 68.1545 163.968 68.1297C163.646 68.0058 163.399 67.9067 163.151 67.7828C162.928 67.6836 162.68 67.6341 162.433 67.5597C161.937 67.411 161.392 67.3119 160.847 67.2376C159.758 67.0641 158.643 66.9402 157.677 66.7419C156.785 66.6924 156.092 66.5684 155.696 66.1719C152.377 63.9167 145.566 64.5363 141.33 63.322C138.209 62.4546 135.757 62.5289 132.859 62.182C129.516 61.4137 129.516 61.4137 125.157 61.1659C122.828 60.6702 120.451 60.2737 118.073 59.9515C116.884 59.8028 115.695 59.6541 114.482 59.5054C113.392 59.3567 112.054 59.1089 110.692 59.0346C109.33 58.9354 107.893 58.9355 106.333 59.2824C104.822 59.6046 103.064 60.4472 101.949 61.9589C100.81 63.3715 100.562 65.3541 100.364 66.3454C100.116 67.5349 99.8684 68.7493 99.596 69.9389C99.4226 71.7976 98.4567 77.1258 97.7384 83.8914C97.3669 87.2866 96.9953 90.88 96.5 94.5726C96.4257 95.5144 96.4505 96.5057 96.723 97.4474C96.9954 98.3891 97.4907 99.1822 98.0604 99.9009C99.2492 101.338 100.958 101.958 102.469 102.602C108.735 104.956 114.234 105.378 115.943 104.981C116.81 104.808 116.81 104.56 115.745 104.213C114.68 103.866 112.475 103.346 109.057 101.908C105.317 100.52 100.314 98.5874 100.438 96.8031C100.314 96.3818 100.265 95.9109 100.438 94.9691C100.587 94.077 100.859 92.9122 101.082 91.7226L102.246 85.0562C102.94 80.6449 104.005 76.0601 104.921 71.5745L105.639 68.1793L105.986 66.4693C106.06 66.0976 106.085 66.1719 106.11 65.9737C106.11 65.825 106.159 65.7259 106.209 65.6763C106.382 65.3541 106.407 65.3293 106.804 65.1558C107.175 65.0071 107.918 64.908 108.76 64.9328C109.602 64.9576 110.544 65.1063 111.559 65.3293L113.243 65.7011L114.927 66.0232L121.714 67.2871L135.287 69.7406L148.761 72.1693C150.99 72.5906 153.194 73.0367 155.374 73.5323L158.618 74.3006L160.203 74.7219L161.516 75.0936C161.516 75.0936 161.566 75.1432 161.615 75.1432V75.1927C161.615 75.1927 161.714 75.4901 161.764 75.6884C161.912 76.6549 161.863 78.0427 161.714 79.4553C161.417 82.3301 160.748 85.4527 160.377 88.8974C160.03 92.02 159.683 95.1674 159.237 98.2405C159.015 99.777 158.792 101.313 158.519 102.8C158.272 104.213 157.875 105.898 157.603 106.617C157.429 106.89 157.603 106.89 156.86 107.212C156.141 107.509 154.432 107.633 152.352 107.385C147.671 106.84 141.974 106.196 136.5 105.576C125.479 104.411 115.448 103.569 116.711 104.61C116.612 105.898 123.77 107.063 127.534 107.881L127.485 107.856Z" fill="#063312"/>
<path d="M206 64.3378C205.876 63.7182 205.703 63.0987 205.529 62.5039L205.182 61.5126L204.935 60.8435C204.811 60.6452 204.662 60.4717 204.514 60.2735C203.845 59.4061 203.201 58.5883 202.557 57.7457C200.105 54.6479 197.876 51.8474 195.993 49.4931C194.111 47.1883 192.6 45.3792 191.585 44.264C190.99 42.9505 190 42.2566 189.455 42.0088C188.588 41.6618 188.514 41.7362 189.232 42.2071C189.133 42.3558 189.603 42.7027 190.123 43.4958C190.123 43.5205 190.148 43.5701 190.173 43.5949C190.173 43.8923 190.396 44.4127 190.743 45.0818C190.792 45.404 190.817 45.7262 190.792 46.0731C190.792 46.4449 190.668 46.8414 190.619 47.0149C190.099 48.9231 189.48 51.5748 188.836 54.5735C187.548 60.5461 186.161 67.8321 185.145 72.8382C179.696 94.8202 174.396 128.847 168.996 156.429C167.535 163.369 167.263 169.911 165.727 175.363C164.761 179.527 163.82 183.864 162.928 188.3C162.507 190.357 162.111 192.414 161.69 194.52C161.69 194.966 161.145 195.164 160.897 194.817C161.17 194.941 159.733 194.148 158.916 193.702C157.999 193.182 157.058 192.661 156.092 192.191C154.16 191.224 152.278 190.183 150.272 189.316C146.334 187.482 142.272 185.772 138.086 184.285C129.739 181.286 120.996 179.105 112.228 177.693C107.299 176.677 104.525 177.321 100.488 176.305C98.234 175.983 95.4601 175.834 92.5622 175.76C89.6644 175.76 86.6673 175.785 84.0914 175.809C81.7385 175.983 79.8562 176.032 78.593 175.785C73.6146 175.19 66.7539 175.685 59.695 176.578C57.9364 176.751 56.1779 177.098 54.3946 177.346C53.5029 177.47 52.636 177.618 51.7692 177.742L50.6546 177.916C50.6546 177.916 50.6051 177.941 50.5308 177.965C50.3326 178.064 50.0602 177.866 50.1345 177.643C50.3822 176.602 50.6051 175.586 50.828 174.62C52.8589 166.169 53.6516 159.775 55.0881 152.043C56.4256 146.062 57.7053 139.23 58.9272 131.548C64.3266 106.493 68.2152 80.6942 73.7632 54.747C74.0604 53.0618 74.5558 50.2366 75.2246 46.544C75.5466 44.6853 75.918 42.6284 76.339 40.3484C76.5372 39.2332 76.7601 38.0684 76.9582 36.854C76.9582 36.1849 77.4288 35.4166 78.2214 35.3671C79.7075 35.0449 81.2431 34.7227 82.8282 34.4006C84.4629 34.0288 86.1721 33.781 87.9058 33.4836C90.5808 32.988 93.4043 32.641 96.2526 32.2941C95.7325 33.8554 95.2619 35.7636 94.8656 37.0523C92.2402 42.8018 90.9522 52.0209 88.946 59.4061C88.3516 61.24 88.7727 63.0987 87.9306 64.5113C85.5033 70.5582 84.5373 78.0673 83.3484 85.3533C82.9769 86.642 83.6209 87.4598 82.9522 88.4759C82.4568 89.6159 82.6301 91.425 82.4072 92.8129C82.4072 93.4572 82.3577 93.9529 82.0604 94.2502C80.3762 96.6541 81.1441 101.511 80.1782 104.585C79.5095 106.865 79.6581 108.649 79.4104 110.755C78.8407 113.184 78.8407 113.184 78.7416 116.356C77.3051 123.147 77.3051 130.309 75.8438 137.322C75.6456 139.999 74.3081 153.232 73.5898 162.972C73.2431 167.854 73.045 171.844 73.1936 173.207C73.3422 174.57 74.1099 173.381 75.5712 167.829C81.2926 132.837 88.2773 97.3728 93.4538 62.1321C93.974 59.0343 97.6644 39.2579 98.234 32.0462C98.4322 32.0214 98.6551 31.9967 98.8532 31.9719C106.457 31.1541 114.556 30.8071 122.655 30.9063C138.854 31.0302 154.903 33.4341 166.99 36.2345C179.127 38.911 187.25 42.1079 188.489 42.0584C189.083 42.0584 187.944 41.414 184.575 39.8775C181.207 38.341 175.56 36.1106 166.99 33.6323C159.708 31.6993 152.303 30.2619 144.848 29.1715C137.392 28.081 129.863 27.3624 122.309 27.1393C114.754 26.8915 107.175 26.941 99.6211 27.5606C97.7387 27.6597 95.8564 27.8828 93.9492 28.0811C92.0669 28.2793 90.1844 28.4776 88.302 28.775C86.4197 29.0724 84.5372 29.2954 82.6796 29.6423L76.7106 30.7575C75.4227 31.0549 74.2338 31.7489 73.4164 32.7649C72.9954 33.2854 72.6981 33.8553 72.4752 34.4749C72.3761 34.7723 72.3019 35.1193 72.2276 35.4415L72.079 36.2097L71.2368 40.2988L69.5774 48.477L66.2338 64.8582C64.0046 75.7873 61.7755 86.6916 59.5464 97.6207C55.0881 119.479 50.6051 141.362 46.1221 163.245L44.4378 171.448L43.5957 175.561L43.2985 177.024C43.1747 177.693 43.0013 178.362 43.0013 179.006C42.9766 180.245 43.2985 181.435 43.992 182.451C44.2149 182.773 44.5121 183.046 44.8093 183.318C45.6762 185.351 47.3358 188.82 50.6051 193.504C52.116 195.536 53.7258 197.494 55.311 199.377L57.3172 201.707C57.6392 202.376 58.3079 202.153 58.9024 202.153L60.7352 202.054L64.4256 201.881C69.3049 201.633 74.1843 201.434 79.0636 201.41C88.7974 201.335 98.5064 201.781 107.918 203.64C112.649 204.532 117.281 205.846 121.888 207.283C126.494 208.82 131.076 210.48 135.659 212.289L149.43 217.791L156.34 220.566C158.52 221.459 161.318 222.524 164.117 222.995C166.941 223.491 170.185 223.441 173.232 222.227C176.278 221.037 178.78 218.708 180.414 216.18C182.099 213.652 183.04 210.901 183.659 208.2C183.981 206.787 184.154 205.623 184.377 204.383L185.021 200.716C186.73 190.927 188.34 181.113 189.925 171.324C193.046 151.721 195.969 132.143 198.916 112.664C199.634 108.351 202.854 89.3681 205.826 71.946L206.099 70.3104C206.223 69.666 206.297 68.9474 206.322 68.2782C206.371 66.9152 206.248 65.6017 205.975 64.3378H206ZM202.483 68.7491C201.641 72.6399 200.675 77.0016 199.833 81.3881C198.074 90.1859 196.415 99.405 194.656 107.658C193.69 111.796 193.789 115.786 192.65 119.008C188.959 132.688 186.681 149.317 184.13 165.475C183.51 168.35 184.055 170.035 183.139 172.34C182.421 174.917 182.247 178.858 181.752 181.906C181.653 183.294 181.504 184.409 181.108 185.103C179.969 187.878 179.374 191.868 178.829 196.032C178.557 198.114 178.284 200.27 178.037 202.277C177.863 203.293 177.715 204.284 177.566 205.226C177.368 206.168 177.219 206.911 176.947 207.655C175.436 211.893 174.049 214.792 170.928 216.329C169.021 216.998 167.857 216.8 166.619 216.874C165.331 216.725 163.845 216.824 160.773 215.858C158.049 214.743 155.25 213.652 152.476 212.586C152.6 212.537 152.674 212.463 152.649 212.339C153.219 211.248 150.371 209.464 148.959 208.349C146.234 205.077 140.736 202.773 136.649 199.997C135.659 199.204 134.321 199.452 133.677 198.485C130.532 195.487 125.85 193.9 121.343 192.29C120.6 191.844 119.881 192.438 119.386 191.72C118.742 191.174 117.504 191.249 116.637 190.976C116.216 190.976 115.894 190.902 115.77 190.58C114.531 188.771 111.138 189.44 109.256 188.473C107.844 187.804 106.63 187.953 105.243 187.754C103.708 187.234 103.683 187.209 101.578 187.234C97.169 186.02 92.4383 186.59 87.8314 186.02C86.9398 186.094 84.3392 186.218 81.1936 186.639C78.0481 187.036 74.4071 187.779 71.4102 188.721C68.4133 189.638 66.0851 190.654 65.3916 191.298C64.6981 191.943 65.6145 192.141 69.1316 192.042C79.7571 190.034 90.977 190.852 101.751 193.355C112.55 195.834 123.027 199.947 133.405 204.185C134.544 204.681 139.473 207.11 144.03 209.315C144.501 209.538 144.947 209.761 145.417 209.984C143.312 209.216 141.207 208.423 139.101 207.68C131.72 205.077 124.166 202.525 116.389 200.369C113.466 199.675 104.599 197.841 93.7262 197.593C82.8283 197.221 70.2461 198.163 59.3482 199.328C53.4782 193.901 49.3667 188.3 46.8899 184.756C48.0045 185.202 49.2676 185.202 50.6546 184.979L55.2367 184.409C57.9612 184.037 60.7105 183.764 63.4598 183.541C74.4072 182.55 85.4041 182.278 96.3021 183.021C107.2 183.789 117.999 185.499 128.402 188.647C133.628 190.109 138.705 192.091 143.733 194.124C146.21 195.264 148.711 196.304 151.139 197.544C152.352 198.163 153.591 198.733 154.78 199.377L159.213 201.781C160.625 202.5 161.913 202.723 163.3 202.475C164.662 202.227 165.925 201.434 166.767 200.344C167.609 199.328 167.956 197.841 168.154 196.28L168.6 193.529L170.16 183.814L173.232 164.409C174.42 157.222 179.696 125.476 184.551 96.3815C186.928 81.8342 189.133 67.9313 190.569 58.0926C190.916 55.6392 191.213 53.4335 191.486 51.5253C191.61 50.5835 191.709 49.7161 191.808 48.9231C191.857 48.5266 191.882 48.1548 191.932 47.8079C191.932 47.6344 191.956 47.4857 191.981 47.3122C194.062 50.6579 197.455 55.4161 199.56 58.5635L200.922 60.8187L201.641 61.9835C201.913 62.3552 202.062 62.7269 202.136 63.173C202.582 64.9821 202.78 66.9152 202.483 68.8234V68.7491Z" fill="#063312"/>
<path d="M195.201 73.4087C194.161 73.2352 193.17 77.7951 192.501 80.1743C190.148 85.3042 189.182 93.5072 187.349 100.05C186.805 101.685 187.25 103.346 186.458 104.585C184.204 109.913 183.362 116.58 182.247 123.023C181.9 124.163 182.52 124.907 181.876 125.774C181.405 126.765 181.578 128.401 181.356 129.615C181.356 130.185 181.306 130.631 181.009 130.879C179.374 132.961 180.117 137.298 179.151 139.999C178.482 141.982 178.631 143.593 178.383 145.451C177.789 147.583 177.814 147.583 177.665 150.408C176.179 156.38 176.055 162.725 174.47 168.896C174.148 171.299 172.687 182.328 171.473 191.547C170.408 200.146 170.185 205.772 173.306 196.032C176.674 180.618 180.266 165.129 183.486 149.516C186.73 133.903 189.603 118.215 191.783 102.503C192.055 100.769 193.442 93.1603 194.433 86.1221C195.473 79.1086 196.068 72.69 195.201 73.4087Z" fill="#063312"/>
<path d="M111.955 76.6803C111.708 75.9864 111.064 76.3086 109.801 78.8116C109.231 80.8685 108.76 83.2228 108.983 85.8002C109.082 87.0393 109.429 88.5015 110.048 89.7654C110.668 91.0293 111.485 92.1445 112.55 93.1358C113.59 94.1024 114.952 94.9202 116.562 95.3167C118.172 95.738 120.03 95.5149 121.491 94.8954C124.562 93.5323 125.999 91.2276 127.188 89.5176C127.782 88.6254 128.302 87.8076 128.723 87.2872C129.194 86.7172 129.714 86.2215 130.185 85.8993C130.655 85.5772 131.076 85.4285 131.2 85.4533C131.299 85.4533 131.299 85.4532 131.448 85.5524C131.77 85.6763 132.488 87.3368 133.132 89.3441C133.504 90.3602 133.95 91.525 134.816 92.7889C135.659 94.0776 137.244 95.3415 139.052 95.7628C139.819 96.0354 142.173 96.2089 144.055 95.4158C145.021 95.0689 145.913 94.598 146.73 94.1519C147.498 93.7306 148.29 93.2845 149.058 92.8384C150.594 91.9463 152.055 91.0541 152.996 90.3106C153.937 89.5424 154.358 88.8484 154.012 88.6502C153.516 87.7332 151.312 88.6007 150.049 88.8733C148.439 88.7989 146.779 89.3193 145.07 89.9885C143.436 90.6824 141.652 91.3267 140.736 90.8558C140.538 90.7071 140.364 90.7815 140.166 90.7815C139.993 90.7567 139.77 90.7319 139.844 90.3602C139.869 89.5176 139.795 88.6254 139.374 87.1385C138.953 85.7011 138.482 83.8424 136.946 81.7111C136.451 80.819 135.485 81.042 135.138 80.125C134.47 79.3072 132.909 79.1337 131.795 79.0842C131.275 79.1585 130.903 79.2081 130.631 78.9603C129.491 78.3407 128.005 78.9107 127.039 79.7285C126.024 80.5463 125.38 81.5129 124.587 82.0085C123.448 82.752 123.175 83.9415 122.73 84.8585C121.962 85.7011 121.987 85.7259 121.64 87.0393C120.723 88.0802 120.129 89.0963 119.435 89.6911C118.742 90.3106 117.751 90.5585 116.81 89.9141C116.439 89.8646 115.051 89.3937 113.838 87.8572C112.624 86.4198 112.104 83.7681 112.104 81.5376C112.055 79.2824 112.228 77.399 111.931 76.6803H111.955Z" fill="#063312"/>
</svg>
