<svg width="250" height="250" viewBox="0 0 250 250" fill="none" xmlns="http://www.w3.org/2000/svg">
<path d="M0 60C0 26.8629 26.8629 0 60 0H190C223.137 0 250 26.8629 250 60V190C250 223.137 223.137 250 190 250H0V60Z" fill="#DEECDC"/>
<path d="M89.1312 154.661C89.474 154.243 89.3994 154.139 88.7585 154.422C88.1176 154.706 86.9104 155.407 84.943 156.436C79.324 160.209 73.0939 163.221 66.7892 162.267C63.7189 161.819 60.8572 160.492 59.009 158.255C57.1609 156.003 56.1772 152.916 56.0133 149.769C55.6258 143.536 58.6066 136.81 63.9872 134.14C66.6849 132.768 69.949 132.321 73.3473 132.112C76.8349 131.918 80.3226 131.724 83.8102 131.546C85.0622 131.486 89.7721 131.367 94.8396 131.173C94.9589 132.008 95.4954 132.694 95.6444 133.499C95.6444 133.797 96.1512 133.723 95.9724 134.096C95.7488 135.259 96.4642 135.93 97.0156 136.691C97.0305 136.884 97.4777 136.691 97.2988 136.974C97.2392 137.198 97.5969 137.227 97.7013 137.377C97.8056 137.406 97.8504 137.451 97.746 137.57C97.284 138.271 98.4167 138.256 98.4018 138.734C98.4167 139.077 98.7595 139.121 98.9682 139.315C99.0427 139.643 99.0576 139.629 99.4749 139.852C99.7879 140.702 100.846 141.135 101.174 142.015C101.472 142.253 102.754 143.506 103.827 144.386C104.9 145.266 105.824 145.758 105.63 144.162C103.35 140.031 101.427 135.498 98.2527 131.889C98.1782 131.784 97.9695 131.441 97.6863 131.038C104.244 130.755 110.445 130.367 109.64 129.875C109.64 129.13 105.511 129.085 103.32 128.936C98.4912 128.056 91.1731 128.488 85.1815 128.205C83.6761 128.071 82.3048 128.608 81.0976 128.25C78.5638 127.877 75.8661 127.773 72.9598 127.847C72.0953 127.877 71.201 127.951 70.2918 128.041C70.262 127.489 70.2173 126.773 70.2024 125.804C69.7254 120.912 70.8581 115.827 73.3621 111.562C75.8661 107.282 79.8158 103.986 84.466 102.256C89.0715 100.466 94.2584 100.183 98.9533 101.451C101.278 102.062 103.574 103.21 106.048 104.344C108.492 105.477 111.264 106.566 114.23 106.894C114.871 106.998 116.63 107.237 118.881 107.088C121.131 106.969 123.829 106.357 126.229 105.313C128.643 104.284 130.685 102.763 131.937 101.525C133.189 100.273 133.696 99.3479 133.323 99.4374C133.04 99.1839 132.325 99.6462 131.46 100.198C130.596 100.765 129.582 101.436 128.807 101.779C126.989 102.36 124.887 103.181 122.592 103.643C120.311 104.12 117.852 104.269 115.751 103.807C114.722 103.553 113.649 103.807 112.919 103.225C111.324 102.36 109.625 101.421 107.717 100.481C105.809 99.5418 103.693 98.5575 101.412 97.8267C100.786 97.5732 100.295 97.6925 99.8177 97.5434C100.086 97.3197 100.548 96.6933 101.323 95.5898C103.052 92.3387 105.452 89.4008 108.328 87.0445C111.205 84.7031 114.558 82.9582 118.106 81.8994C125.2 79.7966 133.174 80.4081 139.389 84.0469C139.732 84.2557 140.611 84.8671 141.64 85.7769C142.653 86.6866 143.786 87.9243 144.68 89.2367C145.59 90.5342 146.275 91.8764 146.722 92.8457C147.184 93.8151 147.482 94.3967 147.691 94.1432C148.466 93.9791 148.049 91.7421 147.676 90.5491C147.587 89.1025 146.842 87.4322 145.739 85.9111C144.651 84.375 143.235 83.003 141.893 81.7801C141.252 81.0941 140.284 81.0941 139.866 80.4081C137.66 78.1264 133.949 77.1272 130.491 76.7543C129.88 76.5903 129.493 77.0526 129.001 76.6947C128.449 76.4561 127.585 76.7245 126.929 76.7245C126.631 76.7991 126.393 76.814 126.244 76.65C124.962 75.8148 122.801 77.0228 121.31 77.0079C120.177 77.0228 119.432 77.4702 118.493 77.7983C117.345 78.0071 117.331 78.0071 116.019 78.7229C112.859 79.6177 110.281 81.8398 107.568 83.6741C107.121 84.1066 105.765 85.3742 104.393 87.119C103.007 88.849 101.621 91.0711 100.757 93.0545C99.8773 95.038 99.4451 96.753 99.4898 97.3793C99.4749 97.3793 99.4452 97.3793 99.4302 97.3495C98.7148 96.9767 97.5225 97.0513 96.6282 96.9469C96.2258 96.9469 95.8979 96.9469 95.6892 96.7828C94.8843 96.2907 93.6622 96.2907 92.44 96.4249C91.2029 96.574 89.9807 96.8872 88.9523 96.9021C87.432 96.9916 86.3738 97.4986 85.1069 97.9759C83.5717 98.3636 83.542 98.3785 81.8131 99.4224C77.6696 101.123 74.5247 104.627 71.8866 108.191C71.4842 108.937 70.2173 111.114 69.3677 114.008C68.4585 116.871 68.1158 120.405 68.399 123.299C68.5927 125.357 69.0547 127.042 69.472 128.116C67.5941 128.354 65.6863 128.742 63.8233 129.443C62.6756 129.771 62.3328 130.502 61.3342 130.681C60.276 131.024 59.1581 132.232 58.2638 133.067C57.921 133.499 57.6379 133.842 57.2951 133.932C56.1772 134.498 55.1637 135.841 54.4334 137.362C53.7031 138.883 53.241 140.523 52.6895 141.791C51.9145 143.7 51.9443 145.266 51.8847 147.085C51.7655 148.144 51.7356 148.681 51.7804 149.292C51.8102 149.904 51.9145 150.575 52.2424 151.887C52.5554 154.825 53.7478 157.793 55.7897 160.149C57.8316 162.535 60.6336 164.071 63.5102 165.011C64.6132 165.264 68.0114 165.861 71.9015 165.011C75.8363 164.25 79.9052 162.013 82.9756 159.761C86.0608 157.509 88.4157 155.451 89.1162 154.631L89.1312 154.661Z" fill="#063312"/>
<path d="M159.808 92.1447C158.795 92.3386 157.632 93.2781 156.679 93.8746C156.291 94.2027 155.948 94.4414 155.635 94.4414C153.295 94.8589 151.089 98.0354 149.077 99.3031C147.587 100.258 146.782 101.287 145.575 102.256C144.039 103.181 144.054 103.166 142.206 104.627C137.72 107.043 132.787 110.205 129.493 115.186C128.986 116.14 127.54 119.212 127.615 123.119C127.644 125.043 128.032 127.146 128.882 129.025C129.701 130.919 130.938 132.56 132.25 133.827C134.918 136.392 137.809 137.242 138.763 137.272C139.255 137.302 139.285 137.153 138.778 136.81C138.271 136.482 137.228 135.84 135.797 134.603C133.457 132.828 131.713 130.293 130.938 127.519C130.163 124.745 130.357 121.658 131.46 118.959C131.818 118.064 132.28 117.229 132.816 116.453C132.876 116.573 132.921 116.707 132.786 116.856C132.235 118.228 132.936 119.391 133.487 120.51C133.487 120.763 133.994 120.644 133.8 120.957C133.726 121.226 134.128 121.36 134.247 121.568C134.366 121.628 134.426 121.688 134.307 121.822C133.83 122.612 135.097 122.806 135.156 123.388C135.231 123.82 135.633 123.91 135.887 124.163C136.036 124.566 136.066 124.566 136.587 124.834C137.154 125.893 138.495 126.281 139.196 127.221C139.613 127.444 141.58 128.518 143.19 128.876C143.98 129.085 144.68 129.115 145.008 128.965C145.336 128.816 145.321 128.444 144.77 127.787C142.594 126.415 140.746 124.521 139.255 122.389C138.51 121.33 137.854 120.211 137.273 119.063C136.706 117.93 136.125 116.692 135.782 115.663C135.753 115.544 135.723 115.23 135.723 114.858C135.723 114.485 135.782 114.112 135.887 113.754C135.976 113.441 136.095 113.202 136.155 112.993C136.468 112.74 136.796 112.501 137.139 112.263C139.702 110.443 142.728 108.952 145.739 107.103C151.909 103.3 156.351 97.9609 162.059 95.8432C164.861 94.7396 167.738 94.5756 170.48 95.5449C173.208 96.4696 175.697 98.3784 177.53 100.75C177.917 101.287 178.991 102.763 179.706 104.97C180.496 107.162 180.884 110.056 180.749 112.844C180.645 115.633 180.034 118.303 179.557 120.167C179.065 122.031 178.737 123.149 179.125 122.926C179.468 123.075 180.064 122.284 180.63 121.166C181.197 120.047 181.703 118.631 182.016 117.631C183.03 115.499 183.626 112.516 183.477 109.34C183.343 106.178 182.463 102.852 181.018 100.108C180.347 98.6767 179.095 97.8565 178.514 96.7082C177.068 94.5159 174.683 92.5772 171.747 91.4736C168.811 90.37 165.293 90.3104 162.283 91.2052C161.15 91.414 160.777 92.1149 159.808 92.1447Z" fill="#063312"/>
<path d="M193.925 131.591C193.523 131.069 192.733 130.1 191.481 129.161C190.244 128.206 188.589 127.281 186.741 126.476C183.104 124.91 178.558 123.419 174.057 122.494C169.571 121.555 165.204 121.167 162.119 121.167C159.034 121.167 157.245 121.406 157.782 121.659C157.782 122.062 159.257 122.271 161.105 122.494C162.953 122.718 165.189 123.001 166.709 123.285C167.067 123.389 167.484 123.493 167.857 123.583C167.812 123.583 167.753 123.598 167.708 123.613C165.994 123.434 164.19 124.806 162.521 125.656C162.059 125.835 162.029 126.431 161.523 126.431C159.823 126.894 158.661 128.474 157.633 129.981C157.364 130.204 157.632 130.592 157.245 130.667C156.947 130.831 156.917 131.338 156.753 131.636C156.738 131.8 156.679 131.919 156.515 131.919C155.516 132.113 155.784 133.605 155.233 134.201C154.845 134.663 154.905 135.17 154.786 135.692C154.488 136.229 154.473 136.244 154.473 137.05C153.772 138.645 154.085 140.48 153.728 142.165C153.757 142.493 153.817 143.477 154.011 144.64C154.19 145.804 154.532 147.146 154.965 148.22C155.382 149.293 155.874 150.114 156.217 150.337C156.559 150.561 156.753 150.203 156.783 148.95C156.053 145.222 156.44 141.225 157.767 137.631C159.078 134.022 161.329 130.831 164.041 128.117C164.354 127.818 165.845 126.67 167.291 125.76C168.379 125.059 169.437 124.478 169.735 124.09C172.403 124.776 175.384 125.551 178.424 126.536C180.541 127.222 182.687 128.027 184.744 128.922C186.786 129.802 188.694 130.846 190.05 132.188C190.706 132.874 191.332 133.5 191.809 134.186C192.271 134.872 192.599 135.633 192.569 136.379C192.822 139.421 191.63 142.821 189.633 145.848C187.606 148.935 184.64 151.888 182.091 155.452C181.092 156.69 181.077 157.689 180.183 158.718C179.319 159.941 178.812 162.089 178.424 163.729C178.305 164.49 178.231 165.086 177.977 165.459C177.277 166.966 177.157 169.277 177.47 171.589C177.769 173.915 178.558 176.182 179.125 178.046C180.004 180.745 181.211 182.207 181.599 184.086C181.688 185.16 181.554 185.592 181.45 186.114C181.286 186.621 181.226 187.233 180.317 188.321C179.155 189.365 177.575 190.2 175.876 190.931C174.162 191.647 172.328 192.378 170.57 192.915C168.796 193.437 166.993 193.765 165.293 193.481C163.594 193.228 162.119 192.303 160.897 190.916C160.39 190.454 159.451 189.41 158.258 187.844C157.081 186.248 155.62 184.265 154.011 182.088C153.176 180.954 152.297 179.776 151.402 178.553C151.507 178.3 151.194 177.927 150.672 177.569C148.347 174.437 145.932 171.171 143.727 168.203C140.477 163.849 137.765 160.314 136.736 159.196C135.723 158.077 136.244 159.494 139.523 164.997C141.968 168.71 144.427 172.454 146.871 176.167C145.426 175.794 143.652 175.764 141.863 176.033C139.658 176.361 137.437 177.032 135.44 177.435C134.411 177.584 133.666 178.3 132.801 178.165C131.087 178.195 129.359 178.434 127.659 178.479C125.945 178.523 124.187 178.404 122.666 177.837C122.175 177.554 121.683 177.837 121.4 177.33C121.057 176.913 120.297 176.734 119.864 176.301C119.626 176.152 119.447 176.018 119.492 175.794C119.447 175.108 119.015 174.541 118.568 173.841C118.121 173.155 117.688 172.319 117.688 171.559C117.659 170.455 117.316 169.665 117.211 168.606C117.316 167.368 117.301 167.383 117.152 165.772C117.703 162.283 117.673 158.45 118.896 154.871C119.015 154.17 119.447 152.112 120.148 149.621C120.848 147.131 121.862 144.223 122.86 141.792C123.829 139.346 124.798 137.408 124.962 136.647C125.141 135.901 124.47 136.289 122.517 138.809C120.028 143.015 117.942 147.489 116.406 152.172C114.871 156.884 113.768 161.627 113.381 166.727C113.262 168.874 113.381 171.126 113.962 173.363C113.575 173.662 113.172 173.975 112.829 174.139C110.802 174.735 108.447 176.107 106.033 176.659C105.407 176.749 105.079 177.36 104.498 177.241C102.337 177.271 100.31 178.3 98.223 178.792C97.8355 178.792 97.7162 179.269 97.3585 179.045C96.9859 178.926 96.5387 179.284 96.1363 179.329C95.9724 179.418 95.8233 179.448 95.7189 179.299C94.9588 178.613 93.692 179.508 92.8126 179.105C92.2015 178.836 91.6798 178.986 91.0837 178.881C90.4428 178.568 90.4577 178.598 89.5336 178.479C87.8345 177.554 85.7329 176.913 84.4511 175.183C84.1381 174.929 83.2736 174.139 82.3943 172.931C81.5149 171.723 80.6654 170.112 80.1884 168.606C79.6668 167.115 79.473 165.772 79.2345 165.31C79.0259 164.848 78.6085 165.236 78.3849 167.279C78.5638 170.425 79.6072 173.527 81.4554 176.122C83.3035 178.747 85.9565 180.76 88.9225 181.923C91.8736 183.117 95.3016 183.325 98.3422 182.669C101.398 182.058 104.125 180.82 106.659 179.582C107.21 179.299 109.863 178.374 112.203 176.793C113.053 176.212 113.828 175.526 114.409 174.87C115.363 177.45 117.375 179.88 119.954 181.103C122.577 182.401 125.394 182.684 128.032 182.475C130.715 182.252 133.144 181.491 135.44 180.686C135.946 180.522 137.303 180.104 139.046 179.552C140.761 179.03 142.773 178.479 144.71 178.27C146.022 178.121 147.244 178.135 148.272 178.24C150.851 182.147 153.414 186.04 155.993 189.962C157.439 192.005 159.123 194.406 161.97 195.867C163.371 196.583 164.936 196.911 166.411 196.986C167.902 197.06 169.318 196.852 170.659 196.583C172 196.3 173.267 195.897 174.49 195.48C175.697 195.062 176.919 194.63 178.156 194.093C179.393 193.556 180.645 192.9 181.837 192.005C183.03 191.125 184.177 189.917 184.893 188.366C185.608 186.83 185.787 185.011 185.519 183.474C185.28 181.909 184.744 180.596 184.222 179.388C183.119 176.987 182.314 175.093 181.957 172.811C181.197 168.367 182.016 163.655 184.267 159.792C186.518 155.855 190.318 152.515 193.225 147.906C194.641 145.565 195.699 142.955 196.041 140.092C196.205 138.66 196.161 137.169 195.803 135.692C195.445 134.231 194.775 132.799 193.836 131.606L193.925 131.591Z" fill="#063312"/>
<path d="M48.412 81.3035C49.2466 82.6308 51.1246 83.287 52.4362 84.316C52.7492 84.6292 53.241 84.4055 53.4199 84.838C54.344 86.0758 55.8941 86.5679 57.325 87.1793C57.5485 87.3732 57.8615 87.0451 57.9659 87.3881C58.1298 87.6417 58.5769 87.5522 58.8601 87.6715C59.0091 87.6715 59.1135 87.6864 59.1284 87.8504C59.3519 88.7303 60.6189 88.3276 61.1405 88.8198C61.528 89.1628 61.9751 89.0882 62.4074 89.2075C62.8545 89.5058 62.8546 89.4909 63.57 89.5505C64.8518 90.2962 66.4912 90.2664 67.8327 91.012C68.9952 91.2059 78.9067 93.771 74.8229 90.9524C71.3054 89.5953 67.8625 88.0145 64.4046 86.4188C60.9319 84.8529 57.459 83.3168 53.8968 82.0343C53.1218 81.7062 47.2346 78.8279 47.2644 79.7525C47.011 80.3192 47.9649 80.9158 48.4269 81.3184L48.412 81.3035Z" fill="#063312"/>
<path d="M174.758 82.9134C176.74 80.3335 179.185 78.0965 181.823 76.1279C184.446 74.1445 187.263 72.4444 190.11 70.789C190.438 70.6249 191.913 69.9986 193.269 69.4468C194.626 68.9099 195.818 68.2239 195.52 67.8958C195.341 67.3291 194.357 67.5081 193.791 67.4932C192.375 67.0309 190.751 67.8362 189.23 68.0748C188.828 68.0748 188.694 68.6117 188.276 68.4327C186.801 68.2686 185.534 69.1336 184.297 69.9091C184.029 69.9688 184.133 70.4311 183.805 70.2968C183.507 70.2819 183.358 70.6846 183.134 70.8337C183.075 70.953 183 71.0276 182.851 70.9381C182.002 70.5951 181.733 71.8627 181.077 72.0268C180.601 72.161 180.466 72.5637 180.168 72.8768C179.721 73.1005 179.721 73.1005 179.378 73.6822C178.171 74.3682 177.59 75.8297 176.442 76.635C176.278 76.8885 175.876 77.5149 175.339 78.35C174.833 79.1702 174.281 80.1694 173.893 81.0791C173.148 82.8985 172.999 84.1811 174.743 82.9134H174.758Z" fill="#063312"/>
<path d="M86.5676 63.6009C86.5676 63.8991 87.0296 63.8842 86.8657 64.2272C86.6868 65.3457 87.3874 66.1063 87.9388 66.9116C87.9686 67.1055 88.3711 66.9414 88.222 67.2248C88.1773 67.4485 88.5201 67.4932 88.6245 67.6572C88.7288 67.6871 88.7735 67.7318 88.6841 67.8511C88.2965 68.5371 89.3547 68.567 89.3994 69.0442C89.4442 69.3872 89.7721 69.4468 89.9807 69.6258C90.0851 69.9539 90.1 69.9539 90.5173 70.1478C90.8899 70.9978 91.9779 71.3706 92.3654 72.2356C92.6784 72.4593 94.0497 73.5778 95.1973 74.398C95.7637 74.8007 96.2853 75.1735 96.643 75.263C97.0007 75.3525 97.2094 75.0244 97.0157 74.1147C96.3151 72.9813 95.6296 72.0119 94.9589 71.0127C94.3031 70.0284 93.6324 69.0591 92.9617 68.0748C91.6501 66.1212 90.3236 64.2123 88.8778 62.4078C88.5797 61.9753 86.7315 58.4707 86.1503 59.0821C85.6435 59.3655 85.8671 60.0217 85.8969 60.4392C85.569 61.5727 86.3291 62.5569 86.5229 63.6158L86.5676 63.6009Z" fill="#063312"/>
<path d="M144.397 73.2199C149.167 68.0749 154.652 63.4667 159.287 58.1576C159.838 57.6058 164.369 53.5046 163.49 53.1616C163.043 52.7142 162.193 53.3108 161.672 53.5643C160.166 53.7582 158.959 55.16 157.588 55.8907C157.2 56.0399 157.245 56.5768 156.798 56.5469C155.337 56.8452 154.383 58.0234 153.355 59.0524C153.102 59.1717 153.325 59.5892 152.967 59.5296C152.669 59.5743 152.61 60.0068 152.431 60.2007C152.386 60.3349 152.326 60.4244 152.177 60.3647C151.283 60.1858 151.268 61.4981 150.642 61.7517C150.195 61.9604 150.121 62.378 149.882 62.721C149.465 62.9894 149.465 63.0044 149.196 63.6158C148.094 64.4509 147.602 65.9274 146.469 66.8072C145.918 67.7617 140.462 75.6359 144.412 73.205L144.397 73.2199Z" fill="#063312"/>
<path d="M56.8629 117.453C54.9551 116.498 53.1069 115.559 51.2438 114.619C49.3658 113.65 47.473 112.695 45.5503 111.771C41.7198 109.922 37.7551 108.222 33.6713 107.043C33.2242 106.879 31.3015 106.104 29.4831 105.552C28.5739 105.284 27.6947 105.03 27.0538 104.956C26.398 104.896 25.9806 105.03 26.0253 105.269C25.8167 105.94 26.9494 106.492 27.486 106.924C28.5293 108.386 30.6457 108.878 32.1511 109.951C32.5088 110.28 33.0603 109.951 33.254 110.444C34.3271 111.816 36.0263 112.233 37.636 112.845C37.8893 113.053 38.2321 112.651 38.3364 113.038C38.5153 113.322 39.0221 113.203 39.3202 113.322C39.4841 113.322 39.6034 113.322 39.6034 113.516C39.8418 114.515 41.2428 114.008 41.8092 114.56C42.2265 114.947 42.7184 114.858 43.1953 114.977C43.6723 115.32 43.6872 115.305 44.4623 115.365C45.8484 116.215 47.6667 116.23 49.0976 117.11C49.7385 117.244 52.7641 118.109 55.0892 118.601C57.4143 119.078 58.9793 119.198 56.8629 117.438V117.453Z" fill="#063312"/>
<path d="M223.436 105.79C223.242 105.164 222.005 105.328 221.32 105.313C219.65 104.761 217.594 105.567 215.731 105.641C215.239 105.596 214.985 106.163 214.523 105.91C212.839 105.507 211.17 106.223 209.5 106.76C209.173 106.76 209.158 107.282 208.815 107.058C208.487 106.969 208.174 107.371 207.861 107.49C207.742 107.61 207.637 107.669 207.503 107.535C206.639 106.968 205.894 108.266 205.089 108.266C204.492 108.296 204.194 108.684 203.732 108.952C203.136 109.071 203.136 109.071 202.525 109.593C200.886 110.041 199.634 111.442 198.009 112.069C197.756 112.278 196.981 112.889 196.086 113.694C195.207 114.5 194.223 115.499 193.493 116.453C192.763 117.378 192.301 118.258 192.286 118.69C192.271 119.123 192.718 119.153 193.851 118.556C196.817 116.006 200.513 114.216 204.358 112.77C208.204 111.323 212.243 110.175 216.207 108.684C216.655 108.549 218.652 108.027 220.44 107.446C221.335 107.147 222.184 106.849 222.766 106.566C223.347 106.282 223.63 105.939 223.466 105.775L223.436 105.79Z" fill="#063312"/>
</svg>
