<svg width="250" height="250" viewBox="0 0 250 250" fill="none" xmlns="http://www.w3.org/2000/svg">
<path d="M0 60C0 26.8629 26.8629 0 60 0H190C223.137 0 250 26.8629 250 60V190C250 223.137 223.137 250 190 250H0V60Z" fill="#DEECDC"/>
<path d="M46.5172 111.5C63.9688 113.2 81.5811 115.13 99.1935 117.037C101.88 117.313 104.567 117.611 107.276 117.887C107.207 118.829 107.23 119.748 107.139 120.736C106.633 122.804 106.656 122.804 106.633 125.538C105.393 131.351 105.669 137.485 104.452 143.505C104.337 145.803 103.442 157.13 103.074 165.493C102.89 169.675 102.822 173.098 103.097 174.293C103.396 175.488 103.97 174.454 105.256 169.698C107.575 154.718 110.124 139.645 112.65 124.527C112.971 122.528 113.292 120.529 113.637 118.553C126.45 119.886 139.286 121.127 152.054 122.092C155.934 122.482 186.291 125.929 184.569 124.274C184.683 123.194 179.563 122.39 176.876 121.793C171.021 119.633 161.836 118.944 154.419 117.427C152.559 116.945 150.745 117.496 149.321 116.761C143.19 114.739 135.727 114.28 128.448 113.59C127.162 113.315 126.381 114.004 125.348 113.407C124.2 112.993 122.409 113.269 121.031 113.154C120.411 113.2 119.906 113.2 119.607 112.901C118.39 112.143 116.576 112.028 114.716 112.005C116.484 101.069 118.184 90.132 119.584 79.1954C120.112 75.8638 124.636 49.855 122.937 51.2335C121.88 51.0497 120.893 55.4152 120.204 57.7128C117.839 62.6297 116.829 70.5334 115.061 76.8288C114.51 78.3912 114.992 79.9995 114.211 81.1943C111.984 86.3409 111.249 92.7742 110.307 99.0237C109.986 100.127 110.652 100.839 110.009 101.689C109.55 102.654 109.779 104.216 109.595 105.411C109.618 105.962 109.596 106.399 109.297 106.629C108.356 107.801 108.287 109.662 108.218 111.546C106.45 111.316 104.934 111.454 103.189 111.385C100.755 110.971 100.755 110.994 97.609 111.086C90.8121 110.075 83.7626 110.604 76.7131 109.639C74.0494 109.639 60.9147 109.202 51.2475 109.179C46.4253 109.179 42.4528 109.225 41.098 109.57C39.7432 109.914 41.0061 110.443 46.586 111.546L46.5172 111.5Z" fill="#063312"/>
<path d="M64.8873 83.559C68.8828 83.9266 72.8782 84.4781 76.8737 85.0754C77.0574 85.0984 77.2412 85.1214 77.4019 85.1444C77.4479 85.2363 77.4708 85.3282 77.5167 85.4661C77.0575 86.9595 77.93 88.6597 77.5167 90.1991C77.6545 90.8195 78.0908 93.8522 78.6878 96.1039C79.2849 98.3555 79.9278 99.826 81.0989 97.4135C81.3744 95.4606 81.581 93.5076 81.9025 91.5547C82.201 89.6707 82.4996 87.7636 82.7981 85.8566C84.8418 86.0864 86.8854 86.2472 88.9291 86.2932C89.3654 86.3391 91.3172 86.7068 93.1083 86.8906C94.0039 87.0054 94.8535 87.0514 95.4735 86.9595C96.0935 86.9135 96.4838 86.6149 96.4149 86.2472C96.5527 85.1444 95.4275 84.6619 94.8305 84.2483C93.6594 82.4792 91.524 82.5251 89.9166 81.5601C89.5262 81.2384 89.044 81.8818 88.7685 81.2844C87.5055 79.768 85.7833 79.8599 84.107 79.6991C83.9463 79.5842 83.7855 79.791 83.6477 79.8599C83.9003 77.861 84.0841 75.8391 84.1759 73.8172C84.2219 73.3807 84.6122 71.4737 84.8188 69.7275C84.9336 68.8544 84.9795 68.0042 84.9106 67.3839C84.9106 66.7865 84.3826 66.35 84.13 66.4419C83.2344 66.327 82.7292 67.4299 82.3388 67.9813C80.6396 69.1301 80.6397 71.1979 79.7212 72.7833C79.3997 73.1739 80.0197 73.6564 79.4456 73.9091C77.976 75.1269 78.0448 76.85 77.8841 78.4813C77.7233 78.757 78.3434 78.9868 77.93 79.1706C77.7234 79.1476 77.5397 79.2166 77.0804 79.4234C75.5649 78.9409 73.8427 79.9288 72.2583 79.4693C71.6383 79.6301 68.5612 80.1356 66.265 80.8249C63.9687 81.5141 62.4533 82.3643 64.9332 83.559H64.8873Z" fill="#063312"/>
<path d="M134.923 91.7396C140.251 91.7626 145.624 92.2451 150.974 92.8884C156.325 93.5087 161.652 94.2899 166.979 94.7494C167.576 94.8414 170.125 95.4158 172.49 95.8064C173.684 95.9902 174.809 96.128 175.636 96.128C176.463 96.151 176.991 95.8293 176.922 95.4617C177.152 94.3589 175.659 93.7156 174.878 93.2101C173.363 91.1882 170.492 91.0044 168.334 89.8785C167.806 89.5109 167.14 90.1543 166.773 89.488C165.05 87.7878 162.685 87.7878 160.435 87.558C160.044 87.3512 159.723 88.1094 159.47 87.558C159.149 87.2134 158.552 87.604 158.116 87.558C157.909 87.6499 157.748 87.6729 157.679 87.3972C157.013 86.0186 155.406 87.4431 154.488 86.9146C153.799 86.57 153.225 86.9146 152.559 87.0065C151.824 86.7768 151.801 86.7768 150.814 87.1215C148.724 86.616 146.474 87.6499 144.292 87.2363C143.443 87.4201 139.355 88.0405 136.37 88.8906C133.385 89.7637 131.502 90.7516 134.9 91.7396H134.923Z" fill="#063312"/>
<path d="M90.2611 145.71C89.1589 143.551 86.4035 142.861 84.4287 141.506C83.9465 141.069 83.2346 141.621 82.959 140.931C81.4665 139.093 79.1012 138.818 76.8739 138.45C76.5065 138.22 76.1391 138.932 75.9095 138.381C75.611 138.036 74.9911 138.381 74.5548 138.312C74.3481 138.404 74.1874 138.404 74.1185 138.128C73.5214 136.75 71.8681 138.059 70.9726 137.531C70.2837 137.163 69.7096 137.531 69.0667 137.577C68.3319 137.347 68.3318 137.347 67.3215 137.669C65.2319 137.163 63.0275 138.266 60.892 137.944C60.4327 138.059 59.3075 138.335 57.8379 138.703C56.3912 139.093 54.6921 139.622 53.3143 140.219C50.5129 141.414 48.9054 142.609 52.235 143.206C57.2638 142.631 62.4075 142.746 67.4592 143.39C72.534 143.987 77.5169 145.021 82.5227 146.055C83.0738 146.193 85.416 147.043 87.5516 147.778C89.71 148.467 91.7079 149.065 91.7767 148.215C92.213 147.181 90.9041 146.331 90.2611 145.687V145.71Z" fill="#063312"/>
<path d="M69.0207 148.627C67.4822 148.696 66.403 149.385 65.5993 150.856C65.3926 151.223 65.2319 151.912 65.209 152.349C65.1171 153.888 65.8978 155.451 67.2297 156.209C68.5615 156.967 70.3296 156.875 71.5925 155.979C73.154 154.853 73.7281 152.533 72.8326 150.81C72.1207 149.431 70.5822 148.558 69.0437 148.627H69.0207Z" fill="#063312"/>
<path d="M70.7658 132.224C72.0976 132.982 73.8658 132.89 75.1287 131.994C76.6902 130.868 77.2642 128.547 76.3687 126.824C75.6568 125.446 74.1183 124.573 72.5798 124.641C71.0413 124.71 69.9621 125.4 69.1584 126.87C68.9517 127.238 68.791 127.927 68.768 128.364C68.6762 129.903 69.4569 131.465 70.7888 132.224H70.7658Z" fill="#063312"/>
<path d="M163.604 143.298C162.18 141.368 159.355 141.001 157.243 139.829C156.715 139.439 156.072 140.013 155.727 139.37C154.074 137.715 151.732 137.577 149.504 137.256C149.137 137.049 148.793 137.738 148.54 137.233C148.219 136.911 147.622 137.233 147.185 137.21C146.979 137.302 146.818 137.302 146.749 137.049C146.129 135.739 144.499 137.003 143.58 136.475C142.891 136.13 142.317 136.475 141.674 136.498C140.939 136.268 140.939 136.268 139.929 136.567C137.839 136.038 135.612 137.003 133.454 136.567C132.627 136.75 128.563 137.302 125.6 138.198C122.638 139.071 120.824 140.013 124.2 140.955C129.435 140.955 134.74 141.345 139.998 142.058C145.142 142.77 150.056 143.459 155.727 144.263C156.301 144.401 158.781 144.976 161.101 145.504C163.397 146.01 165.532 146.354 165.464 145.55C165.739 144.516 164.292 143.827 163.558 143.321L163.604 143.298Z" fill="#063312"/>
<path d="M160.986 157.198C159.631 155.36 156.99 155.13 155.016 154.073C154.533 153.728 153.936 154.303 153.592 153.705C152.007 152.143 149.826 152.12 147.759 151.913C147.392 151.729 147.116 152.419 146.864 151.913C146.565 151.592 146.014 151.959 145.624 151.936C145.44 152.028 145.279 152.051 145.21 151.798C144.59 150.535 143.121 151.867 142.271 151.385C141.628 151.063 141.1 151.431 140.503 151.5C139.814 151.293 139.814 151.316 138.896 151.637C136.944 151.224 134.9 152.235 132.903 151.936C132.145 152.143 128.402 152.878 125.692 153.843C124.337 154.326 123.258 154.808 122.914 155.268C122.569 155.727 122.937 156.141 124.521 156.554C134.257 156.095 144.062 157.657 153.776 158.507C154.304 158.622 156.623 159.059 158.781 159.495C160.94 159.886 162.915 160.116 162.823 159.334C163.053 158.278 161.698 157.68 161.009 157.221L160.986 157.198Z" fill="#063312"/>
<path d="M218.209 76.6216C217.038 73.7266 215.614 71.0154 214.03 68.58C207.715 58.7922 200.826 52.0832 198.461 50.0383C198.277 49.9005 198.139 49.7856 198.002 49.6937C196.325 48.2692 194.236 47.0744 192.031 46.3162C188.495 45.0295 184.706 44.5011 180.986 44.1565C173.638 43.605 166.198 43.2604 160.136 42.5252C151.204 41.4683 144.522 41.4453 136.416 40.9858C130.109 40.4037 122.937 39.9825 114.9 39.7221C101.719 38.5963 88.378 37.884 74.9678 37.011C71.6153 36.7812 68.2397 36.5514 64.8872 36.3216C63.142 36.2297 61.6495 36.023 59.6288 36C57.6999 36.046 55.794 36.3676 53.957 37.1028C52.1199 37.838 50.4208 38.895 49.0201 40.5722C47.6882 42.2265 46.9763 44.1105 46.4941 45.8567C45.7134 49.2112 44.9097 52.5657 44.129 55.9432C43.1187 60.9749 40.1564 75.9552 37.1253 94.3131C35.6098 103.48 34.0714 113.521 32.7625 123.562C31.4766 133.602 30.2825 143.711 30.0069 152.971C29.961 155.039 30.1446 157.061 30.512 158.968C32.4868 175.097 37.3779 181.553 41.3275 185.206C41.4423 185.367 41.5342 185.528 41.649 185.666C42.3149 186.585 43.0497 187.481 43.8075 188.354C44.5653 189.204 45.3001 190.123 46.2645 190.996C48.1704 192.742 50.6963 193.73 53.0385 194.397C62.5451 196.924 72.4189 199.038 81.3973 200.991C85.898 202.048 90.192 202.002 93.7283 203.15C108.654 206.896 126.817 208.825 144.453 210.71C147.599 211.215 149.39 210.595 151.961 211.399C154.809 211.996 159.034 212.019 162.501 212.295C164.04 212.295 165.303 212.318 166.107 212.64C169.344 213.444 174.029 213.421 178.92 212.387C183.811 211.422 188.748 208.963 192.215 206.252C197.313 202.323 199.448 197.315 200.619 192.007C201.446 188.882 201.699 187.573 202.043 185.872C202.364 184.218 202.64 182.334 203.237 178.612C207.118 162.437 209.621 145.642 213.456 128.823C213.961 125.629 215.729 116.209 217.451 104.629C218.324 98.8394 219.196 92.5209 219.655 86.1336C219.977 82.9399 219.495 79.5854 218.255 76.7364L218.209 76.6216ZM33.5431 144.883C34.4616 136.543 35.7016 128.18 37.0105 119.816C39.6742 103.09 42.843 86.3864 46.3104 69.7288L49.0201 57.2757L50.4666 51.0263C50.9488 48.8665 51.3392 46.9365 51.9822 45.4431C52.6481 43.9497 53.3599 43.1685 54.8066 42.3873C56.1384 41.6751 57.8148 41.2844 59.491 41.2615C59.9044 41.2615 60.3406 41.2615 60.7539 41.3075L62.3384 41.4453L65.5301 41.744L71.9138 42.3413C88.952 43.8807 106.013 45.2134 123.075 46.4541C140.136 47.7177 157.151 49.0044 174.143 50.6127C178.437 51.0263 182.571 51.325 186.405 52.2211C190.24 53.0941 193.57 54.4956 195.522 56.977C196.05 57.5744 196.486 58.3097 196.876 59.0219C197.083 59.4815 197.336 60.2167 197.473 61.0898C197.772 62.813 197.841 64.7889 197.818 66.7878C197.749 70.7857 197.244 74.9214 196.601 79.0111C196.256 81.056 195.866 83.1008 195.43 85.1227L194.006 91.3951C193.111 95.6687 192.399 99.8962 191.687 104.147C190.309 112.625 189.069 121.08 187.829 129.512C186.589 137.945 185.372 146.377 184.017 154.74C183.329 158.899 182.617 163.08 181.744 167.124C180.872 171.099 179.677 174.821 177.657 177.877C177.197 178.543 176.532 179.485 175.521 180.496C174.58 181.438 173.455 182.265 171.824 182.725C170.171 183.207 167.783 183.207 164.821 183.299C164.063 183.345 163.305 183.368 162.524 183.414C161.836 183.414 161.124 183.46 160.412 183.46C159.057 183.529 157.404 183.391 155.842 183.368C143.006 182.771 127.139 181.162 112.029 179.577C96.92 177.969 82.4995 176.269 72.3501 175.051C65.1857 174.224 60.2487 173.511 58.5035 173.42C57.4013 173.213 56.368 173.029 55.4036 172.868C55.3577 172.868 55.3118 172.845 55.2658 172.822C53.5896 172.363 51.1785 171.719 47.9178 170.846C46.2874 170.387 44.4504 169.835 42.4986 169.123C40.5698 168.411 38.4342 167.469 36.9875 166.159C36.689 165.906 36.5054 165.723 36.2299 165.378C35.9543 165.033 35.6787 164.712 35.4491 164.344C34.9439 163.655 34.5536 162.896 34.1862 162.115C33.5202 160.53 33.107 158.807 32.9462 156.946C32.6018 153.224 33.1298 149.065 33.5431 144.883Z" fill="#063312"/>
</svg>
