<svg width="250" height="250" viewBox="0 0 250 250" fill="none" xmlns="http://www.w3.org/2000/svg">
<path d="M0 60C0 26.8629 26.8629 0 60 0H190C223.137 0 250 26.8629 250 60V190C250 223.137 223.137 250 190 250H0V60Z" fill="#DEECDC"/>
<path d="M216.106 102.16C215.803 99.2686 215.217 96.296 213.823 93.7683C212.449 91.2406 210.306 89.3195 208.103 87.8837C205.86 86.4278 203.617 85.2347 201.474 84.2842C199.938 82.1812 197.493 80.159 194.542 78.7434C191.571 77.2875 187.954 76.4179 184.579 76.0944C184.134 76.0337 183.689 75.9933 183.225 75.9326C183.993 72.0905 184.478 68.3292 184.983 63.941C185.892 55.8725 168.956 54.9423 166.673 62.4244C165.662 65.7003 164.773 69.5627 163.904 73.2835C157.032 72.1511 151.535 71.7062 144.987 70.8771C142.501 70.4727 140.743 70.1896 139.227 69.9672C140.015 66.0643 140.5 62.2829 141.006 57.834C141.915 49.7655 124.979 48.8353 122.695 56.3174C121.665 59.6742 120.735 63.6579 119.866 67.4799C111.479 66.2463 103.011 65.1746 94.482 64.1028C95.4319 60.7258 96.1798 57.3285 96.9679 53.4459C98.5848 45.4987 81.7901 43.0721 78.8597 50.3317C77.4854 53.7088 76.1717 57.7531 74.9187 61.6155C74.0092 61.4942 73.1199 61.3931 72.2307 61.2718L67.7036 60.6651C66.2687 60.4629 64.4701 60.1798 62.8128 60.3011C59.4579 60.5033 55.9211 61.5953 53.4151 64.4668C52.5258 65.5183 51.576 67.2979 50.909 69.5021C50.2421 71.7265 49.6358 74.1935 48.7668 77.1459C47.1298 82.99 45.0481 90.2901 42.9463 98.3587C40.8444 106.427 38.783 115.305 37.1662 124.263C36.3376 128.732 35.6707 133.221 35.0442 137.63C34.4581 142.018 33.771 146.365 34.0741 150.511C34.1954 151.967 34.4379 153.382 34.8219 154.717C34.8421 155.384 34.8824 156.092 35.0037 156.84C35.4483 160.379 36.9237 164.525 38.1767 167.295C39.3691 170.389 41.1678 173.948 44.5429 176.597C48.0191 179.185 52.445 180.197 56.7296 181.309C65.3795 183.371 74.474 185.232 82.5985 187.153C86.6809 188.204 90.6017 188.265 93.7747 189.418C107.255 193.24 123.645 195.97 139.611 198.78C142.441 199.428 144.118 199.003 146.402 199.872C148.948 200.6 152.849 200.863 155.86 201.369C157.234 201.49 158.326 201.652 159.013 202.016C161.761 203.088 165.743 203.715 169.886 204.22C174.251 204.766 178.819 204.665 182.537 204.503C188.055 204.24 192.42 202.501 196.523 199.084C198.988 197.082 199.918 195.626 200.787 194.089C201.616 192.512 202.364 190.631 203.091 187.052C204.102 183.189 204.688 179.509 205.375 175.707C206.001 171.946 206.648 168.124 207.295 164.302C208.548 156.658 209.821 148.954 211.418 141.249C211.883 138.317 213.257 129.703 214.934 119.147C215.318 116.498 215.864 113.788 216.167 110.876C216.45 107.984 216.41 105.032 216.086 102.1L216.106 102.16ZM212.61 111.564L211.236 118.641C210.225 123.434 209.356 128.247 208.406 133.059C206.527 142.685 204.647 152.311 202.768 161.936L199.938 176.395C198.928 181.187 198.261 186.223 196.563 190.045C195.694 191.986 194.583 193.543 193.027 194.797C191.491 196.071 189.591 197.041 187.55 197.688C185.529 198.336 183.326 198.659 181.022 198.801C178.738 198.942 176.454 198.902 174.15 198.679C172.998 198.578 171.846 198.416 170.694 198.234L167.077 197.628L159.821 196.394L145.331 193.867C126.03 190.449 106.75 187.032 87.5096 183.634C85.3876 183.23 79.6478 182.097 72.2914 180.662C68.6333 179.913 64.551 179.084 60.3473 178.235C56.184 177.345 51.7377 176.476 48.2818 174.939C46.5639 174.17 45.3513 173.159 43.9568 171.683C42.8452 170.47 41.7539 168.791 40.8849 167.214C39.5713 164.848 38.5607 162.523 37.8129 160.399C37.9948 160.602 38.1565 160.824 38.3384 161.026C39.551 162.28 41.0869 163.109 42.5623 163.817C44.0578 164.525 45.5533 165.05 46.9681 165.515C52.6673 167.315 57.154 168.205 59.3771 168.65C61.6204 169.075 61.7012 168.872 58.8516 167.881C57.3763 167.376 55.2543 166.668 52.3642 165.718C50.9091 165.232 49.272 164.646 47.4935 163.938C45.7353 163.23 43.775 162.381 42.0167 161.228C41.3497 160.804 40.703 160.339 40.2179 159.853C39.935 159.611 39.7733 159.368 39.5307 159.105C39.3084 158.782 39.066 158.458 38.8437 158.114C37.9948 156.78 37.3885 155.303 37.0247 153.746C36.2769 150.612 36.5195 147.053 37.0247 143.433C38.1363 136.032 39.4701 128.55 41.0465 121.169C44.2195 106.387 48.6455 91.8472 53.0918 77.2268C54.3044 73.5666 55.032 69.5425 56.6892 67.5203C58.205 65.5992 61.58 64.5477 64.6519 64.8712C67.5621 65.2959 70.4724 65.7206 73.3827 66.1452C73.2614 66.5294 73.1199 66.9339 72.9987 67.2979C72.2307 69.5425 71.301 72.6971 74.5347 73.6071C77.7481 74.5171 88.8232 79.5321 91.6122 72.5353C92.0973 71.322 92.5217 70.1492 92.9259 69.0167C101.475 70.2705 110.044 71.5445 118.593 72.8184C118.512 73.1218 118.451 73.4453 118.37 73.7486C117.805 76.0539 117.138 79.2692 120.452 79.8961C123.726 80.523 135.205 84.5269 137.368 77.3077C137.53 76.7415 137.691 76.1955 137.833 75.6293L162.489 79.2288C162.449 79.431 162.388 79.6332 162.348 79.8354C161.782 82.1407 161.115 85.356 164.429 85.9829C167.703 86.6098 179.183 90.6137 181.345 83.3945C181.487 82.9294 181.608 82.4845 181.729 82.0194L183.972 82.3429C185.812 82.6058 187.408 82.9092 189.065 83.4349C192.299 84.4662 195.25 86.1649 197.331 88.5308C197.857 89.1173 198.322 89.7442 198.726 90.4115C198.948 90.735 199.13 91.0788 199.292 91.4226C199.373 91.5843 199.474 91.7866 199.534 91.9281L199.655 92.3123C200.039 93.4852 200.181 95.3658 200.221 97.1251C200.302 100.725 200.039 104.486 199.696 108.227C198.2 123.292 195.533 138.256 192.016 153.018C191.147 156.719 190.217 160.399 189.267 164.08C188.297 167.801 187.428 171.42 186.115 174.676C184.801 177.952 183.043 180.884 180.617 183.129C179.466 184.241 178.293 184.928 176.919 185.333C175.545 185.737 173.888 185.798 172.069 185.758C171.22 185.737 170.007 185.697 168.491 185.636C166.814 185.636 165.177 185.576 163.217 185.474C159.175 185.131 154.041 184.504 148.281 183.675C136.741 182.037 122.675 179.671 109.256 177.325C95.8361 174.959 83.0431 172.613 74.0294 170.895C64.9753 169.216 59.9228 168.043 61.3578 168.791C61.1759 169.297 65.339 170.733 70.8564 172.128C76.3333 173.564 83.0229 175 87.651 176.071C97.7763 178.781 110.711 181.471 124.332 183.958C131.143 185.212 138.136 186.405 145.028 187.537C151.96 188.609 158.669 189.741 165.42 190.247C166.309 190.328 167.117 190.348 167.865 190.348C168.653 190.368 169.421 190.388 170.209 190.409C171.766 190.449 173.362 190.469 174.979 190.348C176.596 190.227 178.253 189.863 179.769 189.236C181.284 188.609 182.618 187.76 183.79 186.87C186.115 184.989 188.095 182.583 189.631 179.913C191.167 177.244 192.299 174.352 193.229 171.461C195.007 165.718 196.584 159.894 198.099 153.827C201.131 141.755 203.495 128.975 205.011 116.316C205.718 111.786 205.233 109.238 205.981 105.457C206.264 103.374 206.385 100.765 206.284 98.0149C206.224 96.6398 206.143 95.2243 205.921 93.7885C205.739 92.3932 205.395 90.8159 204.748 89.3195C204.546 88.9151 204.324 88.5713 204.102 88.2073C204.304 88.3286 204.526 88.45 204.748 88.5915C206.689 89.8655 208.487 91.1192 209.761 92.6965C211.074 94.2536 211.923 96.0129 212.408 98.0756C212.873 100.098 213.055 102.504 213.115 104.769C213.156 107.054 212.994 109.339 212.63 111.584L212.61 111.564Z" fill="#063312"/>
<path d="M128.496 133.788C128.031 130.351 127.243 126.185 126.272 122.262C124.454 114.8 121.806 108.309 121.301 108.612C121.281 108.572 121.24 108.531 121.22 108.511C121.18 108.289 120.977 107.641 119.947 107.277C119.664 107.197 119.3 107.156 118.896 107.257C118.532 107.318 118.027 107.662 117.865 107.844L117.602 108.005C116.854 108.491 115.46 109.563 113.358 111.463C107.275 117.813 100.909 124.203 95.6946 131.887C94.4011 133.788 93.1885 135.871 92.1376 137.893C91.0664 139.956 90.056 142.18 89.389 144.647C88.7221 147.094 88.4997 149.905 89.0656 152.595C89.5911 155.284 90.8441 157.731 92.4407 159.794C95.6541 163.919 100.1 166.649 104.931 168.064C109.761 169.399 115.076 169.541 120.027 167.336C122.473 166.265 124.716 164.445 126.313 162.22C127.889 159.996 128.819 157.448 129.284 155.001C130.213 150.047 129.708 145.396 129.284 140.947C129.203 139.956 128.96 137.246 128.475 133.809L128.496 133.788Z" fill="#063312"/>
<path d="M164.611 105.76C168.471 106.286 198.685 110.856 197.008 109.319C197.149 108.389 192.056 107.418 189.389 106.751C183.588 104.547 174.433 103.495 167.077 101.776C165.238 101.271 163.419 101.655 162.004 100.927C155.941 98.8439 148.483 98.0553 141.248 97.0846C139.975 96.7813 139.167 97.3475 138.156 96.7611C137.024 96.3364 135.226 96.4982 133.851 96.3162C133.225 96.3162 132.72 96.296 132.416 96.0129C129.991 94.5367 125.222 95.2647 122.15 94.4558C119.886 93.8896 118.128 94.0311 116.026 93.8491C113.621 93.3638 113.601 93.384 110.468 93.3031C103.718 92.0898 96.6446 92.1909 89.6519 90.9776C86.9842 90.8159 73.888 89.8048 64.2478 89.2992C59.4176 89.0565 55.4766 88.915 54.1225 89.1374C52.7684 89.3801 54.0012 89.9059 59.5388 91.1394C76.9195 93.5054 94.4417 96.114 111.984 98.6417C129.526 101.169 147.089 103.697 164.611 105.74V105.76Z" fill="#063312"/>
</svg>
