<svg width="250" height="250" viewBox="0 0 250 250" fill="none" xmlns="http://www.w3.org/2000/svg">
<path d="M0 60C0 26.8629 26.8629 0 60 0H190C223.137 0 250 26.8629 250 60V190C250 223.137 223.137 250 190 250H0V60Z" fill="#DEECDC"/>
<path d="M140.653 84.7989C140.983 83.2089 141.169 82.2591 140.756 82.445C139.827 82.1559 138.713 85.1293 137.991 86.6573C137.227 87.7104 136.587 89.0526 135.968 90.498C133.12 90.2295 130.19 90.4154 127.486 91.1381C125.423 91.613 124.123 93.1823 122.513 93.8431C120.924 94.731 119.541 96.1558 118.468 97.8696C117.416 99.5835 116.776 101.524 116.425 103.507C115.785 107.471 116.219 111.684 118.035 115.607C118.571 117.094 119.686 117.424 120.119 118.704C120.78 119.984 122.554 121.017 123.689 121.884C124.04 122.07 124.308 122.276 124.535 122.483C124.308 123.681 124.205 125.002 123.731 125.931C123.111 127.232 123.153 128.327 122.864 129.586C122.307 130.99 122.327 130.99 122.1 132.911C120.676 136.855 120.367 141.211 118.943 145.3C118.798 146.146 118.282 148.748 117.684 151.866C117.395 151.825 117.106 151.804 116.797 151.763C112.38 151.123 107.345 148.335 104.435 144.515C102.97 142.636 102.041 140.551 101.649 138.734C101.278 136.916 101.422 135.43 101.464 134.666C101.505 133.902 101.34 133.798 100.824 134.748C100.39 135.657 99.5237 137.866 100.184 141.232C101.525 146.312 105.075 150.194 109.182 152.775C111.534 154.241 114.176 155.294 116.941 155.831C116.652 157.462 116.363 159.114 116.116 160.642C115.641 163.553 115.352 165.99 115.455 166.857C115.558 167.724 116.198 167.084 117.498 163.863C118.241 161.323 119.005 158.763 119.748 156.202C120.945 156.264 122.162 156.244 123.38 156.099C128.374 155.48 133.079 153.043 136.422 149.223C139.848 145.403 141.478 140.014 140.921 134.975C140.673 132.436 139.889 129.917 138.548 127.666C137.206 125.374 135.328 123.536 133.492 122.07C132.522 121.306 131.573 120.625 130.644 119.943C132.439 113.872 134.173 107.802 135.783 101.731C136.03 100.905 136.917 98.0554 137.908 94.8136C139.559 95.082 140.921 95.5569 142.242 96.3829C144.924 97.9729 146.72 100.575 147.566 102.495C148.433 104.415 148.639 105.695 149.011 105.283C149.547 105.262 149.836 104.085 149.609 102.557C149.423 101.029 148.68 99.2531 147.999 98.1174C146.968 95.3092 143.893 92.2738 139.786 91.2C139.538 91.1381 139.27 91.0968 139.002 91.0349C139.002 91.0349 139.002 90.9935 139.002 90.9729C139.662 88.6602 140.261 86.4302 140.611 84.8402L140.653 84.7989ZM132.274 128.781C133.265 130.309 134.214 131.259 134.874 132.869C135.101 133.84 135.143 134.335 135.267 134.893C135.37 135.45 135.576 136.07 135.721 137.371C135.494 140.241 134.709 143.029 133.017 145.486C131.325 147.922 128.704 149.946 125.691 150.772C125.01 151.061 123.318 151.68 121.007 151.887C122.884 145.548 124.804 139.188 126.744 132.828C127.425 130.557 128.126 128.306 128.807 126.035C130.231 126.86 131.614 127.686 132.274 128.76V128.781ZM131.449 102.495C129.323 105.861 128.25 110.321 127.012 114.616C126.682 115.359 127.115 115.937 126.558 116.454C126.496 116.536 126.475 116.639 126.434 116.743C125.588 115.999 124.824 115.235 124.267 114.409C122.451 111.808 121.811 107.781 122.307 104.229C122.802 100.575 124.556 97.6837 127.631 96.0112C128.291 95.6395 130.272 94.7929 133.162 94.5658C133.554 94.5451 133.966 94.5658 134.379 94.5451C133.76 96.259 133.141 97.9728 132.439 99.5215C131.903 100.575 132.13 101.752 131.428 102.495H131.449Z" fill="#063312"/>
<path d="M212.097 95.0192C210.488 89.7744 208.218 84.7567 205.576 79.9455C202.976 75.1137 199.757 70.6123 196.228 66.3999C189.149 57.9752 180.296 51.0991 170.597 45.9989C160.836 40.9606 150.249 37.6155 139.456 36.0875L132.13 35.0551C132.006 35.0551 131.738 34.9312 131.717 35.0551V35.5506L131.655 36.5211L131.573 38.4621L131.428 42.3441L131.119 50.2732L130.83 58.2023L130.685 62.2908L130.541 66.1521L130.479 68.0725L131.016 68.1344C131.181 68.8778 131.614 70.1374 132.398 72.1197L133.884 75.1757L134.586 76.7037L134.792 77.1786L135.122 78.0045C135.329 78.562 135.494 79.1609 135.7 79.7391L139.621 80.8747L141.829 81.4942C143.274 81.9897 144.656 82.6505 146.08 83.2081C147.463 83.8275 148.763 84.6535 150.125 85.3762C151.446 86.1402 152.643 87.1313 153.902 87.9779C158.751 91.736 162.755 96.5885 165.665 102.04C171.526 112.942 172.867 126.137 169.4 138.031C169.379 138.113 169.359 138.216 169.317 138.34C169.276 138.505 169.317 138.34 169.235 138.567C169.09 138.877 168.925 139.249 168.74 139.683C168.327 140.529 167.832 141.582 167.192 142.718C166.882 143.379 165.107 146.331 163.353 148.747C162.569 150.007 162.796 150.874 162.879 151.411C162.941 151.7 162.92 151.907 163.209 152.113L163.539 152.423L164.034 152.733C164.344 152.939 164.757 153.146 165.355 153.269C165.933 153.393 166.758 153.269 167.439 153.269C168.843 153.228 170.225 153.166 171.546 153.125C172.33 153.084 173.094 153.042 173.816 153.001C174.456 152.96 175.034 152.898 175.591 152.856H175.632C175.653 153.001 175.735 153.125 175.777 153.249L164.365 153.497C166.222 155.396 168.182 157.255 170.163 159.092C169.028 159.258 167.501 159.505 165.747 159.794C163.58 159.526 161.021 159.671 158.359 160.022L157.018 160.228C156.77 160.29 156.605 160.496 156.399 160.62L155.821 161.013L154.046 162.21C152.911 163.057 151.59 163.614 150.414 164.193C149.196 164.709 148.433 165.845 147.236 165.845C142.778 166.691 138.177 168.735 133.203 169.644C132.316 169.726 131.944 170.47 131.119 170.098C130.273 169.912 129.138 170.511 128.209 170.656C127.796 170.8 127.445 170.842 127.198 170.594C126.269 169.995 125.052 170.119 123.772 170.367C122.493 170.49 121.151 170.697 120.099 170.449C118.53 170.078 117.354 170.263 115.889 170.222C114.238 169.85 114.279 169.726 112.071 169.706C110.915 169.417 109.801 169.066 108.645 168.735C107.51 168.405 106.293 168.219 105.158 167.806C104.002 167.414 102.826 167.063 101.691 166.609C100.597 166.072 99.5031 165.493 98.4507 164.833C97.9967 164.688 97.1712 164.275 96.098 163.656C95.0249 163.036 93.5803 162.396 92.2183 161.384C91.4754 160.889 90.6912 160.352 89.8863 159.815C89.0815 158.783 87.6577 159.547 86.7703 159.609C85.5734 159.877 84.3558 160.145 83.1589 160.414L73.6865 161.26C73.7072 161.405 73.7484 161.55 73.8103 161.694C73.6452 161.735 73.4389 161.818 73.2119 161.901C73.1913 161.88 73.1293 161.839 73.1086 161.797C72.0974 160.889 71.8705 160.909 72.6547 162.148C69.4973 163.614 63.0586 167.744 59.1376 170.139C57.6518 170.924 56.104 171.791 54.4737 172.721C53.5863 173.257 52.6783 173.794 51.7703 174.331L50.2432 175.26L49.8511 175.508C49.8923 175.611 49.9955 175.735 50.078 175.839L50.594 176.541C51.3163 177.49 52.0385 178.461 52.7815 179.431C53.4006 180.278 54.1022 181.083 54.8038 181.909C55.5055 182.735 56.2278 183.561 56.9295 184.387C57.693 185.172 58.4772 185.977 59.2408 186.782C65.4731 193.225 73.2119 198.676 80.5586 202.868C84.2732 205.036 88.153 205.924 91.1453 207.576C97.6046 210.59 105.281 212.676 113.371 213.564C121.481 214.39 129.963 214.101 138.176 212.717C139.662 212.531 140.756 212.18 141.809 211.891C142.84 211.561 143.81 211.251 145.069 211.21C147.773 210.9 151.487 209.331 154.438 208.298C155.738 207.762 156.77 207.266 157.575 207.245C160.609 206.812 164.365 204.995 168.079 202.868C171.752 200.638 175.385 198.098 178.377 196.116C180.647 194.712 182.38 193.142 184.052 191.655L185.29 190.437C186.013 189.735 186.755 189.033 187.478 188.331L188.551 187.299L188.819 187.03L188.633 186.7L188.241 186.039C187.725 185.151 187.189 184.243 186.652 183.334C185.951 182.013 185.435 181.021 184.981 180.195C184.568 179.431 184.217 178.791 183.825 178.131C183.041 176.809 182.092 175.364 180.234 172.452C179.306 170.78 178.398 169.128 177.489 167.476C176.829 166.299 176.148 165.122 175.467 163.965C178.005 166.299 180.544 168.632 182.896 171.069C183.515 171.709 184.176 172.37 185.022 172.679C185.93 173.01 186.921 172.865 187.87 172.721C190.676 172.308 193.483 171.895 196.29 171.482C196.785 171.812 196.971 171.833 196.785 171.482C196.785 171.482 196.785 171.42 196.785 171.378C197.074 171.337 197.342 171.296 197.631 171.254L195.526 169.417C192.988 166.443 187.23 161.013 183.804 157.647C182.855 156.594 181.823 155.52 180.75 154.384C180.255 153.868 179.739 153.352 179.244 152.815C178.996 152.588 178.728 152.299 178.872 151.907C179.017 151.576 179.223 151.266 179.388 150.957C179.78 150.255 180.193 149.532 180.606 148.809C180.998 148.004 181.369 147.199 181.761 146.373C182.566 144.721 183.165 142.966 183.804 141.169C185.043 137.556 185.847 133.694 186.343 129.75C187.354 121.863 186.59 113.686 184.836 106.459C183.804 101.854 181.493 98.1785 180.296 94.6475C177.366 87.4204 172.124 80.2346 165.149 74.5562C158.194 68.8158 149.424 64.8513 140.426 63.0755C139.621 62.8896 138.899 62.7657 138.238 62.6625C137.826 62.6418 137.764 62.7038 137.495 62.7244C137.083 62.7864 136.319 62.807 136.794 62.394C136.835 62.3321 136.856 62.2702 136.876 62.2289V62.1669L136.918 61.6507C136.959 60.8041 136.959 59.9162 136.959 59.0077C136.959 57.1906 136.918 55.3115 136.959 53.6596C136.897 52.1729 136.918 50.9753 137.207 50.1906C137.578 48.6419 137.805 46.7836 137.908 44.76C137.929 44.2438 137.949 43.7276 137.991 43.2114V42.4473C137.991 42.4473 137.929 42.3854 137.908 42.3234C137.908 42.2821 137.929 42.2408 138.053 42.1995C139.146 42.3234 140.219 42.3854 141.272 42.5713C143.356 42.9429 145.379 43.3146 147.133 43.8101C152.251 45.462 156.192 46.1641 160.732 47.9606C163.353 49.0756 164.592 49.757 166.057 50.459C166.779 50.7894 167.563 51.1198 168.595 51.5741C169.586 52.0697 170.783 52.6891 172.413 53.4944C179.161 57.7068 185.517 62.6418 191.027 68.5887C196.537 74.5149 201.304 81.3703 204.441 89.0516C205.762 91.8186 209.642 100.326 211.293 111.6C212.139 117.217 212.469 123.432 212.097 129.668C211.767 135.904 210.653 142.098 209.126 147.653C206.216 158.845 201.366 167.207 200.004 170.078C199.323 171.544 199.488 171.667 200.809 169.995C201.469 169.148 202.46 167.889 203.698 166.051C204.833 164.172 206.402 161.818 207.929 158.659C217.091 139.042 218.804 115.751 212.035 94.8539L212.097 95.0192ZM132.233 68.2996H132.481C132.687 68.6507 132.914 68.981 133.1 69.2701C132.77 68.8778 132.501 68.5681 132.233 68.2996ZM74.0786 162.52C74.0786 162.52 74.1818 162.706 74.2231 162.809C74.2025 162.809 74.1611 162.83 74.1405 162.85C74.1198 162.85 74.1199 162.871 74.0993 162.871C74.0167 162.788 73.9754 162.747 73.8928 162.685C73.9548 162.644 74.0374 162.582 74.0786 162.52ZM177.655 179.72L181.08 185.833C181.08 185.833 181.163 185.936 181.08 185.956L180.729 186.266C180.296 186.659 179.883 187.071 179.409 187.423C175.839 190.479 171.959 193.163 167.914 195.558C163.869 197.974 159.597 200.018 155.202 201.711C150.806 203.405 146.287 204.829 141.664 205.8C123.235 209.888 103.548 208.113 86.2956 200.555C84.397 199.709 79.2585 197.313 73.2944 193.225C67.3304 189.157 60.6028 183.334 55.2372 176.809L54.9071 176.437C54.8246 176.313 55.1134 176.231 55.1959 176.128C56.7024 175.095 58.1471 174.063 59.5504 173.092C62.7284 170.842 65.6176 168.797 68.0321 167.104C70.3021 165.473 72.0975 164.131 73.2531 163.222C74.4707 164.998 76.5757 168.219 80.9714 172.266C88.607 178.957 98.0173 183.664 107.923 185.998C117.849 188.352 128.312 188.393 138.28 186.184C148.247 183.933 157.761 179.411 165.685 172.824L168.616 170.284C169.111 169.871 169.586 169.417 169.998 168.942L170.824 168.033L170.989 167.847C170.989 167.847 171.051 167.951 171.092 167.992L177.675 179.7L177.655 179.72Z" fill="#063312"/>
<path d="M50.8208 162.354C52.2035 162.663 53.6481 162.416 55.0308 162.127C63.822 160.351 71.1275 157.728 78.7631 153L65.9063 146.33L65.3697 146.495C62.7076 146.578 53.7307 149.159 48.5921 150.501C46.8999 150.832 45.1251 151.224 43.2471 151.678C42.4217 151.885 41.5756 152.071 40.7089 152.277L40.131 152.422C39.9659 152.422 39.677 152.649 39.6977 152.298L39.4087 150.956C39.223 150.088 39.0166 149.2 38.8308 148.313C38.6451 147.259 38.4594 146.206 38.2531 145.153C38.0261 144.1 37.9434 143.006 37.7783 141.911C37.6545 140.817 37.4688 139.723 37.4069 138.608C36.6021 129.708 37.4069 120.292 39.615 112.239C40.7501 108.213 41.3072 104.31 42.9375 101.337C45.9092 94.9974 49.5826 88.3485 53.9576 81.8441C58.4152 75.4017 63.6157 69.1038 69.621 63.7971C71.8291 61.98 72.6133 60.4726 74.7595 59.3369C75.8946 58.6762 77.174 57.7057 78.4741 56.6526C79.8362 55.6821 81.1776 54.6083 82.4777 53.8237C83.5921 53.039 84.5207 52.4609 85.2842 52.2957C86.6875 51.8621 88.2766 51.2426 89.9275 50.4167C91.6404 49.7146 93.3945 48.7234 95.2725 47.9594C98.9665 46.2249 102.991 44.8002 106.375 44.1807C108.934 43.8504 111.101 43.396 113.226 42.9005C114.279 42.6527 115.331 42.4049 116.384 42.1365C116.941 42.0126 117.478 41.9094 118.035 41.7855C118.179 41.7442 118.241 41.7028 118.365 41.6822C118.489 41.6822 118.571 41.7029 118.654 41.7235C118.654 41.8268 118.654 41.9094 118.654 41.992C118.654 42.0539 118.654 42.1159 118.654 42.1778L118.737 42.8385C118.922 44.4078 119.211 46.163 119.748 49.6733C119.954 52.2957 120.181 54.8974 120.47 57.5198C120.614 58.8207 120.759 60.1422 120.903 61.4431L120.965 61.9387V62.0625L121.027 62.3104C121.048 62.4756 121.11 62.682 121.11 62.8679L120.594 62.9505C120.346 62.9918 120.47 62.9918 119.583 63.1156C118.241 63.3221 116.92 63.5493 115.6 63.8384C112.958 64.3546 110.358 65.0773 107.758 65.9859C102.516 67.5552 97.6663 70.1569 92.8786 72.8619C92.2595 73.3368 91.3308 74.0182 90.1545 74.9061C89.556 75.3397 88.9163 75.8353 88.2146 76.3515C87.5336 76.909 86.832 77.5698 86.0891 78.2512C85.3462 78.9327 84.5413 79.6553 83.6952 80.4193C82.8491 81.1833 82.1062 82.1125 81.26 83.0004C80.4346 83.9296 79.5472 84.8382 78.7011 85.85C77.9169 86.9031 77.0914 87.9768 76.266 89.0919C75.8532 89.6494 75.4405 90.2069 75.0072 90.7644C74.6357 91.3632 74.2642 91.9827 73.8927 92.5815C73.1498 93.7998 72.3656 95.0387 71.6227 96.3189C70.3639 98.9826 68.8574 101.584 67.9081 104.455C67.4128 105.879 66.773 107.221 66.4222 108.667C66.0301 110.092 65.6587 111.516 65.2872 112.941C64.8745 114.345 64.7713 115.791 64.5236 117.174C64.3173 118.578 64.0284 119.941 64.0077 121.304C63.8633 124.009 63.6776 126.59 63.9459 128.985C64.0284 130.162 64.0903 131.319 64.1729 132.413C64.3792 133.487 64.5649 134.499 64.73 135.469C64.9157 136.419 65.0808 137.307 65.2459 138.153C65.3078 138.422 65.3904 138.67 65.4523 138.917C65.7825 141.478 66.1746 143.832 66.5667 145.876L73.4181 149.056C73.9753 149.51 74.5945 149.964 75.4199 150.481C76.4518 151.183 77.7106 151.802 78.7424 152.153C79.2377 152.38 79.8362 152.504 80.414 152.195C80.9918 151.926 81.4251 151.327 81.5077 150.77C81.5902 150.274 81.3014 149.696 81.1982 149.097L80.7441 147.301L79.8361 145.174L79.3822 144.08L79.1552 143.522L79.0519 143.109C78.7836 141.994 78.5154 140.9 78.309 139.847C78.2265 139.062 77.8137 138.401 77.6279 137.699C77.4422 137.018 77.2772 136.357 77.4423 135.676C77.4836 135.015 77.5041 134.333 77.5041 133.652C77.5041 133.301 77.5042 132.971 77.4836 132.64C77.5042 132.289 77.5455 131.938 77.5661 131.587C77.6693 130.183 77.6899 128.779 77.6486 127.333C77.7931 125.888 77.9169 124.422 78.0201 122.956C78.082 121.469 78.4948 120.024 78.7218 118.558C79.0726 117.546 78.3915 116.802 79.1757 116.08C79.7535 115.233 79.733 113.746 80.0632 112.652C80.1251 112.136 80.187 111.723 80.5378 111.558C81.5696 110.794 82.0856 109.452 82.519 107.985C82.9111 106.478 83.6127 105.033 84.3762 104C85.4906 102.452 85.986 101.109 86.894 99.6434C88.2147 98.0947 88.1321 98.0534 89.5354 95.8647C91.4753 93.7791 93.3533 91.7762 95.3963 89.5874C96.4694 88.6376 97.5838 87.6671 98.7188 86.7379C99.8126 85.7261 101.175 85.1066 102.433 84.3839C103.28 83.6406 106.086 81.9061 109.759 80.1096C110.709 79.7173 111.679 79.3043 112.69 78.8914C113.206 78.6849 113.701 78.4371 114.238 78.2512C114.774 78.0861 115.311 77.9415 115.868 77.7763C116.941 77.4666 118.035 77.1362 119.108 76.8058L119.913 76.558C119.913 76.558 120.078 76.4961 120.16 76.4754C120.243 76.4754 120.346 76.4548 120.408 76.4341L125.67 68.1333C126.228 68.092 126.805 68.0507 127.363 68.0094L125.381 47.1748L124.969 42.7972L124.659 39.5967C124.556 38.11 124.267 36.871 124.061 35.5082C124.102 35.2604 123.813 35.3843 123.669 35.3637H123.153H122.121C121.44 35.3637 120.759 35.3637 120.057 35.405C118.757 35.4463 116.9 35.756 116.487 35.8386C115.146 36.0451 113.557 36.3754 112.091 36.6439C100.143 38.3577 88.3385 42.9005 78.1233 49.4462C57.5691 62.5788 42.3185 83.4753 36.1894 106.85C35.6322 109.039 33.9399 115.027 33.3002 122.956C32.9081 126.9 32.9288 131.319 33.197 135.882C33.4034 138.153 33.6098 140.487 34.0226 142.779C34.1876 143.935 34.3734 145.091 34.6623 146.227C34.9306 147.425 35.1162 148.395 35.467 149.758C36.7259 152.628 36.2925 158.183 40.4818 156.015C42.7105 157.501 44.9599 158.988 47.1887 160.454C48.3237 161.197 49.5 161.982 50.8208 162.271V162.354Z" fill="#063312"/>
</svg>
