<svg width="250" height="250" viewBox="0 0 250 250" fill="none" xmlns="http://www.w3.org/2000/svg">
<path d="M0 60C0 26.8629 26.8629 0 60 0H190C223.137 0 250 26.8629 250 60V190C250 223.137 223.137 250 190 250H0V60Z" fill="#DEECDC"/>
<path d="M216.565 117.291C215.301 102.168 213.032 87.1053 209.821 72.2231C209.399 70.3352 208.938 68.3269 208.075 66.2984C207.231 64.29 205.887 62.1611 203.819 60.6548C201.772 59.1485 199.383 58.4857 197.236 58.2246C195.088 57.9635 193.06 57.9837 191.194 58.0239C183.566 58.1042 175.959 58.5058 168.352 59.0481C160.744 59.6707 153.157 60.5143 145.61 61.5988C138.063 62.7436 130.536 64.0691 123.089 65.716C108.175 68.9896 93.442 73.2273 79.1105 78.5094C75.4975 79.7747 71.9848 81.2409 68.412 82.6266C66.0435 83.5907 63.6348 84.6751 61.2663 85.9605C60.4232 86.0609 58.697 86.5229 55.907 87.6074C52.033 89.4752 48.2394 91.3832 44.4257 93.492C40.5919 95.5205 36.3767 98.5733 34.0283 103.072C32.8239 105.301 32.1615 107.932 32.0411 110.363C31.9006 112.813 32.1415 115.122 32.4426 117.312L34.3093 130.025C35.614 138.48 36.8986 146.935 38.2033 155.391L40.2506 168.023C40.9933 172.141 41.455 176.66 43.6027 181.098C44.0443 182.022 45.4092 184.894 48.3598 187.344C51.2502 189.835 55.4855 191.642 59.6003 192.325C63.695 193.028 67.5288 192.867 70.1181 192.646C72.7275 192.405 74.1928 192.084 73.7311 191.783C73.7311 191.602 73.5705 191.461 73.2895 191.341C75.4373 191.963 77.8259 191.984 79.7528 191.803C83.3658 191.642 92.3381 190.417 103.779 188.429C115.22 186.46 129.07 183.789 142.298 181.078C155.525 178.367 168.091 175.595 176.963 173.426C185.814 171.297 191.013 169.59 189.327 169.67C189.066 168.807 171.824 172.522 162.571 174.129C152.314 175.555 139.508 177.885 126.059 180.275C112.611 182.665 98.5203 185.155 85.8347 186.541C84.249 186.661 82.6833 186.822 81.1779 187.003C80.4152 187.103 79.7126 187.103 79.0101 187.163C78.3076 187.204 77.5649 187.304 76.9627 187.244C74.3935 187.123 71.9648 186.159 70.2386 184.633C68.3518 183.147 66.7058 181.239 65.4814 179.07C64.257 176.921 63.3538 174.39 62.6914 171.779C61.4068 166.517 60.9652 160.512 60.1623 154.447C58.6569 142.316 56.9307 129.804 55.2647 117.412C54.8231 112.933 53.699 110.664 54.0804 107.209C54.1808 105.342 54.2611 103.132 54.8231 101.044C55.345 98.9749 56.469 97.0067 57.8741 95.5205C59.0583 94.1146 60.3028 93.1506 61.2863 92.769C63.1129 91.8652 65.3209 90.8008 67.87 89.7163C70.4995 88.6116 73.3297 87.4267 76.2402 86.2016C79.1506 84.9363 82.1815 83.7915 85.0719 82.6467C87.9824 81.5822 90.8126 80.5982 93.3618 79.8551C100.949 77.7262 106.429 75.6977 113.314 73.8098C121.443 71.9621 121.443 71.9018 131.72 69.3712C143.161 67.2825 154.763 65.3745 166.545 64.0892C172.426 63.4264 178.368 62.9845 184.349 62.6833C187.34 62.5829 190.351 62.4824 193.321 62.4423C196.232 62.4423 199.102 62.7034 201.069 64.1494C201.832 64.6314 202.856 65.5754 203.759 67.2825C204.662 68.9696 205.345 71.3796 206.007 74.3119C207.372 80.1161 208.938 87.4066 210.303 95.5004C211.688 103.594 212.872 112.471 213.715 121.389C214.136 125.847 214.478 130.326 214.718 134.704C214.939 139.083 215.24 143.38 214.879 147.498C214.558 151.595 213.554 155.571 211.487 158.745C210.503 160.351 209.098 161.677 207.613 162.601C206.128 163.525 204.622 164.167 203.197 164.71C197.476 166.778 193.181 167.963 191.093 168.807C188.986 169.61 189.046 169.791 191.936 169.188C193.382 168.887 195.549 168.405 198.56 167.682C200.066 167.3 201.792 166.899 203.779 166.276C205.746 165.613 208.054 164.87 210.463 163.063C211.346 162.36 212.27 161.416 212.872 160.532C213.514 159.668 214.096 158.745 214.578 157.781C215.582 155.873 216.264 153.864 216.706 151.856C217.609 147.839 217.729 143.842 217.689 140.006C217.589 132.415 217.207 124.843 216.585 117.291H216.565Z" fill="#063312"/>
<path d="M185.534 84.274C188.886 83.7116 192.097 83.4104 194.365 83.2497C196.634 83.1091 197.958 82.9484 197.577 82.6472C197.657 81.7635 193.101 81.3819 190.652 81.3819C185.152 80.458 177.003 82.4664 170.419 83.551C168.733 83.7518 167.368 84.6757 165.963 84.5552C160.283 84.8363 153.88 86.7041 147.597 88.3109C146.433 88.4715 145.971 89.2146 144.948 89.0741C143.864 89.0941 142.459 89.8373 141.254 90.1586C140.752 90.3795 140.311 90.5201 139.99 90.3996C137.501 89.9778 133.807 92.2072 131.017 92.5486C128.97 92.8298 127.565 93.5528 125.779 94.095C123.631 94.4967 123.631 94.5168 121.021 95.521C115.06 96.7863 109.279 99.2164 103.117 100.542C98.6409 102.088 58.5968 114.48 78.4282 110.845C108.557 102.892 139.568 96.0432 169.757 87.7485C171.443 87.3468 178.85 85.4188 185.554 84.3142L185.534 84.274Z" fill="#063312"/>
<path d="M121.122 130.706C139.187 125.283 157.934 120.985 175.999 115.282C178.006 114.699 193.964 110.783 192.659 109.839C192.438 108.995 189.688 109.497 188.203 109.638C184.731 109.276 180.014 110.803 175.959 111.305C174.915 111.365 174.173 112.148 173.269 111.928C169.717 111.767 165.903 113.072 162.129 114.137C161.427 114.217 161.206 114.9 160.544 114.679C159.861 114.619 159.058 115.221 158.336 115.442C158.035 115.623 157.794 115.723 157.553 115.563C155.927 114.96 153.86 116.828 152.133 116.949C150.869 117.069 150.066 117.651 149.002 118.033C147.697 118.254 147.697 118.274 146.172 119.037C142.559 119.78 139.187 121.708 135.453 122.512C132.804 123.657 108.998 132.634 121.102 130.706H121.122Z" fill="#063312"/>
<path d="M125.156 159.106C134.691 156.495 144.345 154.024 154.04 151.534C163.715 149.044 173.39 146.533 182.884 143.621C185.012 143.039 201.752 139.022 200.407 138.078C200.186 137.194 197.296 137.696 195.73 137.837C192.097 137.455 187.139 138.982 182.884 139.464C181.8 139.504 180.997 140.327 180.054 140.086C176.32 139.885 172.306 141.191 168.352 142.295C167.609 142.356 167.388 143.079 166.686 142.838C165.983 142.777 165.12 143.4 164.377 143.601C164.056 143.782 163.795 143.882 163.554 143.721C161.868 143.079 159.68 145.007 157.874 145.107C156.549 145.228 155.706 145.81 154.582 146.212C153.217 146.433 153.217 146.453 151.591 147.236C147.798 147.979 144.245 149.968 140.331 150.771C138.946 151.353 131.981 153.964 126.963 156.133C124.454 157.218 122.406 158.202 121.804 158.744C121.182 159.286 122.005 159.548 125.176 159.066L125.156 159.106Z" fill="#063312"/>
<path d="M77.9063 172.301C77.9063 172.843 78.0067 173.385 78.1472 173.907C78.2676 174.329 78.4884 175.233 78.8899 175.936C79.6928 177.382 80.9975 178.326 82.3423 179.029C82.6233 179.089 83.2054 179.23 83.9481 179.19C84.6506 179.19 85.6743 178.908 86.2965 178.587C87.7217 177.985 89.4278 177.261 90.8329 176.619C92.258 175.976 93.4021 175.333 93.7433 174.932C94.0846 174.53 93.6028 174.148 91.7763 174.128C90.4113 174.389 89.0464 174.63 87.6815 174.831L85.6141 175.153L85.0922 175.233C84.9316 175.253 84.9316 175.233 84.8313 175.233C84.6908 175.233 84.5703 175.213 84.4499 175.173C83.928 175.052 83.5667 174.59 83.4061 174.189C83.366 174.088 83.3258 173.968 83.3258 173.847L83.2054 172.923L82.9445 170.835C82.5832 168.123 82.2018 165.432 81.8405 162.721C81.7401 161.576 81.8405 160.793 82.0613 160.411C82.2018 160.029 82.7839 159.547 83.647 159.266C83.7674 159.246 83.8678 159.226 84.2291 159.186C84.6105 159.146 85.0922 159.106 85.6342 159.045C86.7181 158.925 88.0227 158.784 89.2672 158.604C90.5117 158.443 91.696 158.081 92.5189 157.78C93.3419 157.459 93.7634 157.057 93.5627 156.796C93.4021 155.912 91.7361 155.952 90.8329 155.812C88.7453 154.808 85.8951 155.27 83.4664 154.928C82.6635 154.788 82.1817 155.571 81.4591 155.29C80.0741 155.149 78.3479 155.872 77.264 157.479C76.1801 159.065 76.0396 160.913 76.0798 162.319C75.9593 162.841 76.6619 163.062 76.2404 163.484C76.0196 163.946 76.5013 164.508 76.5816 164.95C76.7221 165.151 76.7622 165.291 76.5414 165.432C75.5178 166.416 77.1235 167.661 76.8626 168.706C76.702 169.469 77.1838 169.951 77.3845 170.594C77.3443 171.377 77.3443 171.377 77.8662 172.301H77.9063Z" fill="#063312"/>
<path d="M85.0121 127.052C82.3626 127.554 79.7933 128.057 77.204 128.539L75.1366 128.92C74.414 129.041 72.8684 129.603 72.1056 130.587C71.6841 131.069 71.3831 131.652 71.1823 132.274C71.102 132.555 71.0217 132.937 70.9816 133.218C70.9415 133.479 70.9415 133.74 70.9214 133.981C70.9214 134.945 71.0619 135.769 71.1623 136.391C71.5838 139.022 72.0053 141.653 72.4469 144.284L72.6075 145.268C72.7078 145.771 72.8282 146.253 73.029 146.735C73.4103 147.678 73.9924 148.542 74.7351 149.225C76.2004 150.631 78.2678 151.334 80.2349 151.113C80.4356 151.113 80.9174 151.053 81.3188 150.992C81.6801 150.932 82.1217 150.872 82.6235 150.792C83.6271 150.631 84.8314 150.43 85.9756 150.189C88.2638 149.707 90.3513 149.185 89.9699 148.602C89.8294 147.678 88.2638 147.699 87.4007 147.578C85.4135 146.634 82.6636 147.377 80.3754 147.196C79.994 147.056 79.6127 147.598 79.3517 147.096C78.6693 146.273 78.3682 145.911 78.1474 145.65C77.9868 145.449 77.8262 145.228 77.7058 145.007C77.6456 144.887 77.5854 144.766 77.5252 144.646C77.485 144.525 77.4449 144.405 77.3846 144.083C77.4248 143.682 76.8226 143.561 77.1237 143.18C77.2843 142.798 76.8427 142.336 76.7624 141.914C76.642 141.754 76.6018 141.593 76.7624 141.473C77.5854 140.529 76.1602 139.364 76.3208 138.38C76.4011 137.657 75.9997 137.195 75.7989 136.592C75.7989 135.849 75.7989 135.809 75.3172 135.006C75.3172 134.544 75.257 134.162 75.2168 133.861C75.2168 133.68 75.1767 133.64 75.1566 133.559C75.1566 133.479 75.1366 133.379 75.1566 133.278C75.1968 133.078 75.3172 132.897 75.5179 132.756C75.8391 132.595 76.3007 132.495 76.8628 132.435C77.6054 132.113 81.379 130.728 84.0687 129.462C86.7784 128.197 88.4444 127.113 84.9719 127.032L85.0121 127.052Z" fill="#063312"/>
<path d="M88.2434 140.268C88.2434 140.268 88.0025 140.248 87.7817 140.107C87.6814 140.027 87.5208 139.967 87.3803 139.806C87.2197 139.665 87.0792 139.545 86.7781 139.203C85.6742 137.998 84.3695 136.572 83.2253 135.388C80.897 133.038 79.2109 131.672 80.5156 135.307C81.2783 136.572 82.021 137.838 82.7838 139.083L83.8877 140.991L84.791 142.537C85.1724 143.14 85.5537 143.763 86.0154 144.184C86.9186 145.088 87.9222 145.55 89.0864 145.61C90.2707 145.65 91.4349 145.128 92.1776 144.305C92.9804 143.501 93.5023 142.256 93.8034 140.81L94.4256 138.219C95.8307 132.475 97.1956 126.711 98.139 120.907C98.42 119.642 101.11 109.801 99.7247 110.122C98.8215 109.901 98.1792 111.528 97.6974 112.351C95.9311 114.018 95.4694 117.051 94.2651 119.361C93.8837 119.923 94.3454 120.626 93.7432 121.007C92.1173 122.795 91.7962 125.285 91.2743 127.655C91.0535 128.057 91.6356 128.438 91.1338 128.679C90.7926 129.001 91.0535 129.664 90.9532 130.126C91.0134 130.346 90.9933 130.527 90.7524 130.567C89.4879 131.17 90.4513 132.977 89.8492 133.921C89.4477 134.624 89.6685 135.267 89.6083 135.97C89.2872 136.733 89.2872 136.733 89.4076 137.838C89.3072 138.099 89.2269 138.38 89.1667 138.661C89.1065 138.922 89.1466 138.862 89.1466 138.983C89.1466 139.143 89.2269 139.384 89.2069 139.665C89.2069 139.947 89.1266 140.288 88.9058 140.469C88.685 140.649 88.3839 140.549 88.2033 140.288L88.2434 140.268Z" fill="#063312"/>
<path d="M96.4131 172.864C97.7379 172.723 99.0426 172.02 99.8455 171.217C100.689 170.394 101.19 169.55 101.592 168.747C101.993 167.943 102.274 167.16 102.515 166.397L103.117 164.348L104.241 160.312C104.964 157.62 105.646 154.929 106.228 152.198C106.55 151.013 109.581 141.875 108.216 142.095C107.332 141.834 106.65 143.341 106.128 144.084C104.342 145.55 103.739 148.402 102.475 150.491C102.074 150.993 102.515 151.696 101.913 152.017C100.247 153.604 99.8254 155.933 99.2032 158.142C98.9623 158.504 99.5243 158.906 99.0225 159.107C98.6813 159.388 98.9021 160.03 98.7817 160.452C98.8218 160.673 98.8017 160.834 98.5609 160.874C97.2762 161.356 98.1594 163.123 97.5372 163.987C97.0956 164.65 97.3365 165.172 97.2361 165.734C96.8748 166.276 96.8949 166.276 96.8748 167.06C96.3529 167.662 96.2124 168.004 95.9113 168.285C95.6303 168.586 94.8475 168.586 94.3457 167.943C94.0647 167.823 93.2618 167.361 92.499 166.096C91.7363 164.891 91.0137 163.043 89.9298 161.938C88.866 160.774 87.7219 160.593 87.3606 160.854C86.9792 161.135 87.1598 161.497 87.4007 162.34C87.9025 162.902 88.2839 163.806 88.605 165.092C88.9663 166.377 89.2674 168.004 90.4115 169.751C90.9936 170.595 91.7162 171.358 92.6797 171.96C93.6432 172.563 94.9679 173.005 96.3529 172.844L96.4131 172.864Z" fill="#063312"/>
</svg>
