<svg width="250" height="250" viewBox="0 0 250 250" fill="none" xmlns="http://www.w3.org/2000/svg">
<path d="M0 60C0 26.8629 26.8629 0 60 0H190C223.137 0 250 26.8629 250 60V190C250 223.137 223.137 250 190 250H0V60Z" fill="#DEECDC"/>
<path d="M55.1678 170.985C55.5321 171.374 55.7264 171.714 55.605 172.103C55.5564 173.439 56.3579 174.63 57.7665 175.869C59.1752 177.084 60.7782 177.765 61.7983 178.64C63.3769 179.879 64.8583 179.928 66.3884 180.341C68.0642 181.118 68.0885 181.094 70.3958 181.289C72.7274 182.139 75.1561 182.479 77.5848 182.844C78.7991 183.038 80.0135 183.233 81.2278 183.476C82.4665 183.743 83.7537 184.035 84.9923 184.35C85.9638 184.423 88.8053 184.666 92.2298 184.764C95.6542 184.861 99.6858 184.836 103.11 184.666C106.535 184.496 109.303 184.326 110.275 183.889C111.246 183.427 110.348 183.063 106.486 182.018C100.439 181.191 94.2942 180.657 88.3682 179.539C85.3809 179.004 82.7092 178.227 79.6005 177.279C76.6132 176.38 73.6017 175.529 70.7602 174.63C67.9672 173.707 65.2713 172.662 63.7655 171.276C63.3769 170.912 63.0854 170.62 62.7453 170.134C62.381 169.648 62.0411 169.114 61.7253 168.579C61.1182 167.486 60.6325 166.295 60.2439 165.031C58.7381 159.928 58.7623 153.877 58.6895 147.704C58.6895 146.344 59.0538 140.341 59.3453 134.849C59.6367 129.357 59.831 124.351 58.9081 124.91C57.6452 124.764 56.9651 128.361 56.4551 130.256C54.2936 134.363 54.1964 140.9 53.1521 146.173C52.7878 147.51 53.565 148.774 52.8607 149.819C51.1849 154.193 51.2819 159.855 52.7391 165.493C52.812 166.562 53.8564 166.854 53.5649 167.826C53.5649 168.846 54.585 169.989 55.1193 170.985H55.1678Z" fill="#063312"/>
<path d="M206.33 78.4705C206.038 77.7171 205.82 77.2068 205.601 76.818C205.528 76.5507 205.431 76.2834 205.359 76.0404C205.601 76.1619 205.456 75.53 204.776 73.9505C204.193 72.6868 203.148 70.8156 201.205 68.6528C199.262 66.5143 196.421 64.0356 192.219 62.1158C190.568 61.4111 188.843 60.9008 187.07 60.5606C185.322 60.2204 183.889 60.0259 182.286 59.7586L172.863 58.2276C166.572 57.207 160.258 56.2107 153.919 55.3115C141.241 53.5132 128.417 52.1767 115.545 51.4719C112.339 51.3018 109.109 51.156 105.879 51.0588C102.697 50.9616 98.9816 50.7915 95.1685 52.3711C93.2984 53.1487 91.4769 54.5582 90.2625 56.1864C88.9996 57.8145 88.2467 59.5885 87.6638 61.2896C86.5223 64.7404 86.1095 67.8266 85.4294 71.0101L84.5065 75.7731L84.1908 77.4255C82.0778 77.2797 79.9892 77.1582 77.8762 77.0853C75.3504 77.0124 72.8487 76.9152 70.3228 76.9152C67.8213 76.9152 65.2712 76.7694 62.4539 77.1096C59.7095 77.4255 56.5522 78.3976 54.2692 80.6576C51.9862 82.8933 50.9419 85.7365 50.2133 88.3124C48.9747 93.5129 48.1004 98.4217 47.056 103.525C46.4974 107.34 44.773 118.689 43.8258 132.638C43.3401 139.612 43.0243 147.218 43 154.8C43.0243 162.334 42.7815 170.183 45.3559 176.647C46.6674 179.806 48.5375 182.649 51.1119 184.083C53.662 185.566 56.4064 186.27 58.8108 186.902C63.6682 188.093 67.4571 188.773 69.3515 189.065C71.2458 189.332 71.3429 189.113 68.9628 188.214C67.7727 187.753 65.9755 187.169 63.4982 186.367C61.0938 185.541 57.8394 184.593 54.5849 183.014C53.322 182.431 52.2534 181.775 51.452 181.021C50.7234 180.341 49.9705 179.223 49.3147 178.081C48.0518 175.772 47.3717 173.05 46.9831 170.183C46.6431 167.291 46.5945 164.253 46.6674 161.143C46.7159 158.008 46.8131 154.849 46.9588 151.69C47.5417 139.102 48.7804 126.489 50.7234 113.999C51.6949 107.753 52.8606 101.532 54.1721 95.3355C54.8521 92.2006 55.4107 89.163 56.5279 86.9516C57.6693 84.7159 59.0295 83.6952 61.4825 83.1849C63.8869 82.6746 66.9956 82.9419 70.2014 83.0634C73.3587 83.1849 76.5404 83.3793 79.6977 83.5737C86.0366 83.9868 92.3512 84.5458 98.6658 85.2505C111.295 86.66 123.851 88.6527 136.456 90.7912L145.928 92.395C147.628 92.6623 148.697 92.881 150.057 93.3185C151.344 93.7316 152.583 94.2905 153.773 94.971C158.509 97.5955 162.346 102.286 163.221 107.17C164.168 112.322 162.808 118.713 162.079 125.08L159.65 144.108L157.27 163.111C156.445 169.478 155.935 175.748 154.089 181.216C153.652 182.382 152.826 184.691 151.15 187.048C149.45 189.429 146.608 192.127 142.892 193.22C141.969 193.488 141.022 193.682 140.026 193.706C138.934 193.731 137.549 193.706 136.262 193.706C133.639 193.682 130.895 193.609 128.102 193.512C122.516 193.318 116.735 193.05 111.076 192.686C99.7587 192.005 88.9996 191.058 81.4706 190.158C73.9174 189.284 69.8857 188.287 70.9786 189.065C70.7601 189.672 74.1603 191.009 78.7748 192.005C83.3651 193.026 89.0238 193.901 92.9583 194.46C101.556 196.234 112.558 197.424 124.119 198.178C127.009 198.372 129.947 198.518 132.886 198.639L137.306 198.785L139.517 198.834C140.269 198.834 141.144 198.834 141.921 198.688C148.478 197.813 153.724 193.415 156.882 188.433C160.063 183.476 160.379 178.178 161.666 174.022L164.313 174.071L169.147 174.168L173.98 174.265L176.384 174.314H177.599L179.007 174.265C182.772 173.901 186.269 172.297 189.086 170.061C190.325 169.089 192.608 167.145 194.696 163.84C196.785 160.535 198.412 156.064 199.384 151.058C200.38 146.028 200.914 140.657 201.691 135.068C202.42 129.479 203.173 123.671 203.926 118.008C204.654 112.346 205.334 106.806 205.99 101.727C206.573 96.6477 207.277 92.0791 207.447 87.9965C207.641 83.9382 207.034 80.5361 206.306 78.5191L206.33 78.4705Z" fill="#063312"/>
<path d="M92.3754 149.333C85.6722 138.981 78.2648 138.689 79.6977 143.817C80.4506 146.514 81.0091 149.357 82.3449 153.221C83.6807 157.085 84.1178 157.863 87.0323 162.674C89.8496 167.316 95.5085 166.757 99.5644 162.261C117.415 142.431 117.658 142.504 134.586 121.873C139.492 115.895 134.708 112.954 130.579 115.336C128.782 116.381 124.847 119.613 122.71 121.508C117.051 126.539 101.92 139.856 92.3511 149.382L92.3754 149.333Z" fill="#063312"/>
<path d="M157.975 110.402C157.975 109.09 157.173 108.312 156.639 107.292C156.275 105.98 156.274 105.955 155.036 104.667C154.623 103.817 154.113 103.015 153.457 102.334C152.826 101.605 151.951 100.876 151.101 100.342C149.353 99.2481 147.604 98.6163 145.977 97.7901C145.297 97.6442 143.33 97.2311 140.998 96.9395C138.666 96.6479 135.922 96.4535 133.566 96.3563C131.21 96.2591 129.292 96.1619 128.539 96.5021C127.786 96.8666 128.296 97.3041 130.749 98.6892C134.732 100.026 138.885 100.876 142.528 102.237C144.325 102.918 145.977 103.695 147.07 104.692C147.653 105.251 147.993 105.591 148.478 106.393C148.964 107.097 149.377 107.851 149.741 108.628C151.174 111.739 151.709 115.408 151.611 119.248C151.563 121.168 151.393 123.112 151.199 125.129C150.98 127.267 150.81 129.406 150.713 131.544C150.616 132.492 150.106 136.648 149.911 140.39C149.693 144.132 149.668 147.51 150.567 147.17C151.83 147.291 152.389 144.886 152.874 143.622C154.939 140.9 154.939 136.477 156.177 133.051C156.59 132.2 155.862 131.301 156.615 130.669C157.586 129.284 158.096 127.729 158.436 126.101C158.8 124.351 158.898 122.456 158.922 120.585C159.116 119.904 158.242 119.54 158.8 118.981C159.14 118.373 158.582 117.45 158.533 116.745C158.387 116.429 158.339 116.162 158.606 115.992C159.99 114.485 157.877 112.201 157.902 110.475L157.975 110.402Z" fill="#063312"/>
</svg>
