<svg width="250" height="250" viewBox="0 0 250 250" fill="none" xmlns="http://www.w3.org/2000/svg">
<path d="M0 60C0 26.8629 26.8629 0 60 0H190C223.137 0 250 26.8629 250 60V190C250 223.137 223.137 250 190 250H0V60Z" fill="#DEECDC"/>
<path d="M224.879 146.809C224.783 146.406 224.668 145.792 224.476 145.043C224.227 144.295 223.92 143.392 223.575 142.356C222.999 140.244 221.771 137.825 220.505 135.157C218.299 131.03 215.095 126.826 211.795 123.274C209.531 120.549 206.96 117.899 204.082 115.327C203.161 114.194 202.26 113.1 201.416 112.121C200.418 110.969 199.401 109.971 198.384 109.05C198.768 108.148 199.113 107.265 199.44 106.362C200.514 105.191 201.301 103.54 202.01 101.774C202.624 99.8163 203.315 97.7431 203.814 95.8235C204.178 94.8636 203.679 93.9038 204.255 93.1551C205.636 89.9301 205.387 85.8029 204.639 81.9828C204.658 81.2725 203.967 81.0038 204.293 80.3703C204.447 79.6984 203.795 78.873 203.622 78.1627C203.449 77.8748 203.353 77.6252 203.526 77.3949C204.332 75.7248 202.183 73.7667 201.991 72.0774C201.838 70.8105 201.032 70.1386 200.495 69.1596C200.073 67.931 200.149 67.8734 199.017 66.6064C198.231 64.9747 197.272 63.4198 196.044 62.0569C194.873 60.6363 193.703 59.2542 192.61 57.7761C192.092 57.2962 190.691 55.818 188.734 54.2631C187.199 52.881 185.242 51.5564 183.477 50.347C182.518 49.464 181.501 48.6002 180.484 47.7555C179.755 46.9301 179.007 46.1046 178.221 45.3176C173.693 40.96 168.321 37.3318 162.374 35.1626C156.464 32.9358 150.114 31.8608 143.86 32.0144C137.586 32.1488 131.428 33.243 125.499 35.201C119.552 37.159 113.95 40.0961 109 43.8394C104.05 47.5827 99.6568 51.9979 95.9157 56.8738C95.5128 57.4305 94.707 58.4096 93.7286 59.7533C92.8268 61.1738 91.5798 62.8823 90.4287 64.9363C88.0113 69.006 85.7091 74.3426 84.1743 79.66C82.5627 84.9775 82.2365 90.3333 82.1406 94.0574C82.2365 95.7275 82.3325 97.0712 82.4476 97.9927C77.1333 98.415 71.8765 99.5476 66.8499 101.218C56.6817 104.788 47.6646 111.2 40.6428 119.205C33.5826 127.21 28.2875 136.808 25.6975 147.212C23.0307 157.559 23.4145 168.904 27.5009 178.944C28.5561 181.44 29.7264 183.858 31.1845 186.143L32.2588 187.851C32.6617 188.466 33.1222 188.907 33.5443 189.445L36.1535 192.516C36.9784 193.591 38.072 194.378 39.0121 195.338C40.0097 196.221 40.9306 197.2 42.005 197.987C42.6189 198.409 43.2328 198.851 43.8276 199.292C43.1177 199.139 43.5206 199.983 45.8229 202.556C54.1301 210.119 64.7587 215.552 76.1356 217.164C77.6321 217.375 79.1477 217.51 80.6634 217.567C93.5559 219.43 104.645 215.494 114.775 207.624C116.195 206.702 117.749 205.704 119.092 204.514C120.07 203.708 121.029 202.94 121.873 202.191C122.679 201.385 123.389 200.655 123.965 200.022C124.387 199.561 124.694 199.196 124.943 198.87C127.936 202.441 131.255 205.589 134.919 207.816C139.581 210.657 144.032 212.864 148.311 214.477C150.958 215.859 154.162 217.068 157.654 217.663C162.489 218.566 167.745 218.758 172.427 218.163C173.635 218.163 174.71 217.721 175.726 217.414C176.743 217.068 177.722 216.838 178.7 216.8C182.595 216.108 186.816 214.688 190.653 212.365C194.624 210.196 198.212 207.221 201.646 204.245C202.912 203.209 203.104 202.133 204.351 201.5C205.636 200.694 206.807 198.793 207.939 197.507C208.38 196.874 208.764 196.394 209.205 196.24C212.159 194.474 214.634 189.08 216.956 185.951C217.896 184.837 218.471 183.686 218.97 182.572C219.488 181.459 219.949 180.346 220.524 179.175C221.925 176.449 221.925 176.391 223.037 172.667C226.203 164.604 226.203 155.505 224.879 146.828V146.809ZM114.43 184.933C114.353 184.742 114.257 184.53 114.142 184.281C113.912 183.82 113.662 183.283 113.355 182.649C113.067 181.958 112.722 181.171 112.357 180.269C111.609 178.445 110.746 176.084 110.036 173.07C108.808 168.463 108.271 163.664 108.463 158.865C108.693 154.066 109.633 149.266 111.13 144.64C114.123 135.368 119.571 126.883 126.439 119.896C133.365 112.985 141.922 107.591 151.323 105.172C160.8 102.6 170.892 102.273 180.043 105.268C189.195 108.186 197.099 114.502 202.221 122.66C207.421 130.799 209.857 140.647 209.569 150.361C209.282 160.093 206.308 169.691 200.994 177.984C196.044 186.508 188.715 193.303 180.12 198.006C178.221 199.024 172.925 201.692 165.558 203.285C158.249 204.936 148.886 205.09 140.522 202.671C132.099 200.387 125.039 195.683 120.799 191.633C118.631 189.656 117.058 187.89 116.079 186.815C115.159 185.855 114.756 185.471 114.775 185.759C114.717 185.586 114.602 185.298 114.43 184.914V184.933ZM83.5028 95.2284C83.5028 94.115 83.7522 92.8864 83.8673 91.6962C84.0399 90.5252 84.0784 89.3734 84.3278 88.4712C85.4021 84.4783 86.841 79.564 88.913 74.6114C91.081 69.7163 93.9396 64.8787 97.0668 60.9627C98.7551 59.0814 99.7527 56.9122 101.441 55.722C104.511 52.8618 108.06 50.0399 111.82 47.2756C115.638 44.5689 119.859 42.2269 124.252 40.4033C125.902 39.9617 126.593 39.1555 128.051 39.0403C129.567 38.7716 131.754 37.9269 133.519 37.5238C134.305 37.2934 134.958 37.1591 135.418 37.2742C137.164 37.3702 139.485 37.0823 141.903 36.7943C144.32 36.5256 146.872 36.4104 148.886 36.6983C151.86 37.2166 154.086 37.255 156.752 37.8885C158.268 38.3492 159.035 38.618 159.879 38.9251C160.724 39.2131 161.74 39.4243 163.621 40.1729C167.611 42.131 171.448 44.5305 174.882 47.5251C178.317 50.5198 181.348 54.1479 183.497 58.2944C184.379 59.7725 187.065 64.3221 188.83 70.5225C189.732 73.6132 190.346 77.0877 190.71 80.6007C191.075 84.1328 190.96 87.6842 190.71 90.9476C190.365 94.7293 189.693 98.0311 189.118 100.546C188.868 101.218 188.619 101.87 188.331 102.542C187.468 102.082 186.739 101.736 186.087 101.448C185.185 101.064 184.475 100.68 183.65 100.431C182.844 100.181 181.962 99.9315 180.83 99.586C179.698 99.2788 178.278 99.0677 176.398 98.7029C172.292 97.8775 168.091 97.5511 163.889 97.7815C159.726 98.0886 155.563 98.7029 151.553 99.8739C143.399 101.928 135.802 106.036 129.106 111.181C128.166 111.968 126.478 113.407 124.463 115.481L124.003 114.886C123.6 114.348 123.14 113.849 122.679 113.35C121.777 112.352 120.857 111.353 119.859 110.451C118.9 109.491 117.864 108.628 116.789 107.802C115.753 106.919 114.602 106.19 113.489 105.422C108.981 102.427 103.897 100.296 98.6208 99.0869C93.5751 97.9351 88.4334 97.6087 83.3301 97.9351C83.426 97.2056 83.4836 96.265 83.5412 95.2092L83.5028 95.2284ZM31.4339 176.948C28.5945 169.557 27.8079 161.13 29.0933 153.067C29.3619 151.628 29.5346 150.514 29.6497 149.439C29.8415 148.383 30.0334 147.385 30.5322 146.272C31.4723 143.776 32.5466 139.975 33.8896 137.153C34.446 135.867 34.9256 134.831 35.4436 134.274C37.247 131.894 39.3382 128.457 41.8707 125.06C44.3648 121.662 47.3193 118.379 50.1204 116.191C54.226 112.966 57.2765 110.566 61.4205 108.282C63.9146 107.092 65.1808 106.573 66.6389 105.998C67.368 105.71 68.1162 105.364 69.133 105.019C70.1306 104.635 71.3777 104.193 73.0852 103.732C80.625 101.947 88.5293 101.237 96.2802 102.6C104.012 103.867 111.475 107.476 117.25 113.043C117.806 113.542 118.669 114.271 119.629 115.327C120.108 115.845 120.703 116.383 121.24 117.074C121.432 117.304 121.643 117.554 121.873 117.803L122.104 118.072C119.456 121.048 116.502 124.868 113.873 129.456C111.015 134.37 108.636 140.129 107.158 146.08C106.18 150.13 105.681 154.277 105.643 158.25C105.604 160.228 105.643 162.186 105.834 164.048C106.391 169.615 108.002 174.452 109.614 178.1C110.592 179.866 111.302 181.459 112.146 182.63C112.971 183.801 113.624 184.703 114.103 185.279C114.449 185.682 114.679 185.932 114.794 186.008C114.794 186.066 114.794 186.124 114.794 186.181C114.679 186.104 114.621 186.124 114.717 186.316C114.641 186.373 114.679 186.565 114.832 186.872C114.909 187.026 115.005 187.199 115.12 187.41L115.312 187.736C115.408 187.89 115.523 188.062 115.638 188.216C115.868 188.562 116.118 188.907 116.367 189.272C116.501 189.464 116.636 189.656 116.77 189.848L116.981 190.136C116.981 190.136 116.789 190.308 116.713 190.385C115.926 191.038 115.101 191.71 114.238 192.439C113.489 193.054 112.722 193.706 111.935 194.34C111.091 194.916 110.228 195.511 109.384 196.087C108.54 196.643 107.753 197.258 106.928 197.737C106.103 198.198 105.316 198.621 104.626 199.004C98.3138 202.133 89.9298 205.167 80.7593 206.011C72.8357 206.741 64.4902 205.57 57.4108 202.786C53.2092 200.329 46.9164 196.432 43.5398 194.417C38.6667 189.675 34.1198 183.954 31.4914 176.909L31.4339 176.948Z" fill="#063312"/>
<path d="M103.398 188.293C101.748 188.255 100.731 189.311 99.5225 190.098C99.2347 190.136 99.4266 190.693 99.0429 190.501C98.7167 190.424 98.6208 190.923 98.3714 191.058C98.3139 191.192 98.2371 191.269 98.0836 191.135C97.1627 190.539 96.9325 192.037 96.2035 191.998C95.7047 191.998 95.532 192.459 95.1867 192.709C94.6879 192.785 94.6878 192.785 94.2465 193.323C92.9036 193.649 91.8676 194.935 90.4095 195.147C90.1793 195.3 89.4502 195.703 88.5485 196.202C87.6276 196.682 86.5341 197.22 85.5556 197.7C83.6179 198.621 82.2365 199.504 84.8266 199.946C88.7404 199.485 92.635 198.583 96.3377 197.105C100.041 195.646 103.532 193.534 106.333 190.751C106.659 190.463 108.194 189.272 109.365 187.948C109.94 187.276 110.477 186.604 110.688 186.028C110.938 185.452 110.995 185.068 110.727 184.992C110.132 184.512 109.288 185.241 108.712 185.51C106.966 185.664 105.815 187.142 104.261 187.698C103.839 187.775 103.916 188.428 103.398 188.293Z" fill="#063312"/>
<path d="M83.0999 194.052C86.4957 192.938 89.8914 191.614 93.1721 190.078C96.4336 188.504 99.58 186.604 102.304 184.223C102.631 183.993 104.108 183.014 105.316 181.958C105.93 181.44 106.487 180.902 106.775 180.403C107.081 179.923 107.158 179.539 106.909 179.405C106.391 178.829 105.47 179.347 104.894 179.501C103.206 179.347 101.959 180.633 100.443 181.056C100.021 181.094 100.079 181.747 99.58 181.555C97.9876 181.401 96.9708 182.4 95.8005 183.167C95.5319 183.206 95.7238 183.763 95.3401 183.551C95.0331 183.475 94.9372 183.955 94.707 184.089C94.6494 184.223 94.5727 184.3 94.4192 184.166C93.5175 183.59 93.3448 185.049 92.6542 185.068C92.1745 185.087 92.0402 185.548 91.7141 185.817C91.2345 185.913 91.2536 185.932 90.8507 186.488C89.5845 186.892 88.7404 188.255 87.3974 188.638C86.9945 189.003 84.9033 190.577 83.2917 191.825C82.4859 192.439 81.8528 193.073 81.6802 193.38C81.4883 193.649 81.8912 194.148 83.0807 194.071L83.0999 194.052Z" fill="#063312"/>
<path d="M176.571 65.243C176.647 65.7613 177.338 65.8764 177.165 66.4331C177.05 68.3528 178.106 69.8885 178.815 71.6354C178.815 71.9809 179.429 71.9425 179.18 72.3265C179.084 72.6912 179.583 72.9791 179.698 73.3055C179.832 73.4207 179.89 73.5358 179.736 73.6894C179.046 74.6108 180.523 75.3595 180.389 76.2425C180.331 76.876 180.772 77.2024 180.964 77.7207C180.964 78.3542 180.964 78.3541 181.444 79.0836C181.559 80.8305 182.633 82.5198 182.556 84.3819C182.652 84.7274 182.902 85.7256 183.17 87.0118C183.286 87.626 183.42 88.3171 183.554 89.0466C183.65 89.7185 183.765 90.4287 183.861 91.139C184.053 92.4635 184.226 93.5962 184.533 94.0377C184.82 94.46 185.242 94.1912 185.837 92.6555C186.394 87.7028 186.47 82.635 185.511 77.7015C185.07 75.2251 184.379 72.7872 183.439 70.4644C182.537 68.1224 181.348 65.8956 179.928 63.8416C179.64 63.3617 178.451 61.2309 177.012 59.5032C175.631 57.7371 174.019 56.451 173.827 57.0269C173.232 57.6028 174 58.7929 174.307 59.5224C174.441 61.5188 176.053 63.3041 176.59 65.3006L176.571 65.243Z" fill="#063312"/>
<path d="M168.877 72.3461C168.935 72.7492 169.568 72.6724 169.415 73.1716C169.299 74.7457 170.239 75.7055 170.911 76.8957C170.911 77.1644 171.487 77.0109 171.256 77.3564C171.16 77.6443 171.64 77.7787 171.736 78.0091C171.87 78.0859 171.928 78.1626 171.774 78.297C171.103 79.1225 172.523 79.4296 172.427 80.1015C172.369 80.5814 172.81 80.7542 173.002 81.0997C173.002 81.5796 173.002 81.5604 173.482 82.0403C173.616 83.3073 174.71 84.4399 174.69 85.8221C174.786 86.0716 175.074 86.7819 175.4 87.7225C175.707 88.6439 176.033 89.7765 176.302 90.7939C176.571 91.7921 176.801 92.6752 177.146 93.0015C177.472 93.347 177.856 93.1551 178.355 91.9457C178.719 88.1064 178.451 84.1711 177.415 80.447C176.417 76.7037 174.575 73.1332 171.909 70.3497C171.64 70.0233 170.508 68.5068 169.184 67.3742C167.899 66.2033 166.46 65.5122 166.326 66.0689C165.846 66.7407 166.556 67.5854 166.825 68.1229C166.978 69.8122 168.398 70.868 168.877 72.3653V72.3461Z" fill="#063312"/>
<path d="M182 182.495C181.425 182.648 181.309 183.186 180.945 183.551C180.389 183.781 180.389 183.781 179.947 184.472C178.47 185.182 177.492 186.852 175.861 187.505C175.611 187.735 174.863 188.369 173.923 189.137C173.041 189.828 171.947 190.692 170.815 191.575C168.82 193.11 167.477 194.397 170.527 194.147C174.844 192.515 179.065 190.48 182.959 187.908C186.854 185.336 190.403 182.168 193.128 178.425C193.454 178.041 194.989 176.371 196.12 174.624C197.329 172.935 197.962 171.111 197.387 171.054C196.658 170.631 195.775 171.61 195.18 172.052C193.3 172.628 192.168 174.567 190.518 175.584C190.058 175.795 190.211 176.486 189.617 176.467C187.794 176.87 186.758 178.31 185.473 179.5C185.166 179.615 185.434 180.172 184.993 180.076C184.629 180.076 184.571 180.652 184.302 180.863C184.245 181.036 184.168 181.132 183.976 181.017C182.863 180.633 182.806 182.303 181.962 182.476L182 182.495Z" fill="#063312"/>
<path d="M160.532 189.215C162.297 189.734 164.023 188.582 165.769 188.236C166.249 188.217 166.307 187.526 166.825 187.756C168.609 187.968 169.933 186.854 171.295 185.933C171.602 185.856 171.41 185.28 171.813 185.453C172.158 185.491 172.292 184.973 172.542 184.781C172.599 184.627 172.676 184.551 172.868 184.666C173.923 185.146 174.077 183.533 174.844 183.399C175.4 183.264 175.515 182.765 175.822 182.401C176.34 182.17 176.34 182.17 176.705 181.479C178.086 180.73 178.7 178.984 180.024 178.101C180.369 177.582 182.096 175.087 183.017 173.033C183.497 172.015 183.746 171.094 183.708 170.671C183.688 170.268 183.094 170.115 182.038 170.767C180.753 172.111 179.448 173.455 177.99 174.664C176.552 175.893 175.055 177.045 173.52 178.177C170.451 180.423 167.285 182.516 164.177 184.723C163.812 184.915 162.201 185.798 160.685 186.624C159.956 187.065 159.246 187.449 158.805 187.852C158.345 188.217 158.191 188.659 158.383 188.831C158.728 189.542 159.841 189.254 160.513 189.215H160.532Z" fill="#063312"/>
</svg>
