<svg width="250" height="250" viewBox="0 0 250 250" fill="none" xmlns="http://www.w3.org/2000/svg">
<path d="M0 60C0 26.8629 26.8629 0 60 0H190C223.137 0 250 26.8629 250 60V190C250 223.137 223.137 250 190 250H0V60Z" fill="#DEECDC"/>
<path d="M203.179 101.375C202.689 99.4603 201.332 94.3171 198.572 88.1498C195.813 82.027 191.741 74.5905 185.755 68.9353C181.416 64.8163 177.01 61.2762 173.294 58.4931C171.292 56.8678 169.111 55.3093 166.797 53.8843C165.284 52.9047 164.216 52.3035 163.771 52.1922C163.548 52.0809 163.326 51.9473 163.103 51.8582C160.032 49.8544 156.828 48.2958 153.268 46.7818C151.443 45.8245 149.93 45.446 148.728 44.9339C147.505 44.444 146.436 44.1323 145.302 43.8874C144.167 43.6202 142.965 43.3085 141.408 43.0414C139.828 42.8855 137.892 42.5293 135.311 42.3957C129.659 41.6609 123.94 42.0395 118.332 42.7965C115.551 43.3308 112.725 43.7761 110.032 44.6222C108.675 45.0229 107.296 45.3346 105.938 45.8022L101.933 47.2271C91.2075 51.1457 81.4834 57.5803 72.961 65.2393C69.9125 68.2005 60.8338 77.485 53.8245 91.3114C50.3087 98.1689 47.3936 106.14 45.658 114.311C43.9891 122.504 43.5218 130.92 44.5231 138.468C45.4132 146.016 47.6161 152.606 50.0193 157.482C52.4225 162.38 54.9147 165.631 56.2053 167.19C57.5182 168.748 57.674 168.615 56.4279 166.277C56.0941 165.676 55.6935 164.941 55.2263 164.095C54.7812 163.182 54.2695 162.136 53.6909 160.911C53.0901 159.686 52.5783 158.239 51.8885 156.658C51.3544 155.011 50.6424 153.23 50.1306 151.159C48.2615 144.88 47.3269 138.29 47.3936 131.655C47.5272 125.02 48.573 118.385 50.3977 111.929C54.0024 98.9927 60.7892 86.9252 69.5787 76.6834C78.3459 66.4416 89.4941 58.1591 101.977 53.4167C114.639 48.7857 128.39 46.6928 141.319 49.654C154.225 52.4816 165.684 60.4969 173.183 71.4067C180.793 82.2941 184.443 95.7866 184.465 109.145C184.465 122.571 180.882 135.908 174.229 147.708C168.065 159.798 158.742 169.906 147.527 177.387C145.035 178.945 138.159 183.421 128.301 186.538C118.533 189.744 105.738 191.347 93.9889 189.098C82.2177 187.005 72.0487 181.261 65.9739 175.984C62.8587 173.424 60.6335 171.108 59.2316 169.661C57.7853 168.236 57.2067 167.702 57.4737 168.37C57.2067 168.548 57.6963 169.416 58.6086 170.774C59.1426 171.62 59.9214 172.6 60.8338 173.669C61.6126 175.116 62.4359 176.496 63.3259 177.788C63.3482 177.944 63.504 178.278 63.9045 178.879C64.8613 180.304 66.8862 183.154 70.8916 187.161C77.3891 193.017 84.7767 197.982 92.8541 201.522C100.909 205.062 109.587 207.355 118.421 208.046C127.255 208.803 136.267 208.046 144.834 205.619C153.424 203.259 161.523 199.34 168.844 194.397C170.624 193.106 172.493 191.904 174.207 190.523L179.28 186.293C182.462 183.243 185.689 180.348 188.604 176.853C194.389 169.928 198.528 161.846 201.421 153.475C204.18 145.036 205.76 136.286 206.071 127.469C206.316 118.675 205.426 109.836 203.223 101.308L203.179 101.375Z" fill="#063312"/>
<path d="M84.6431 177.454C85.2662 177.788 86.0005 178.144 86.8461 178.545C87.6917 178.923 88.6707 179.19 89.7165 179.547C93.8109 181.016 99.0846 181.595 102.756 181.929C110.834 182.953 121.381 181.528 131.505 177.431C141.586 173.201 151.043 166.41 158.319 159.041C160.099 157.148 161.679 155.189 163.081 153.296C164.394 151.337 165.662 149.511 167.108 147.975C172.404 141.073 176.81 132.145 178.59 122.215C180.571 112.329 179.925 101.598 177.033 91.6675C176.521 89.8863 175.92 88.5727 175.364 87.3481C174.741 86.1458 174.184 85.0103 173.828 83.4963C172.627 80.3125 169.845 76.149 167.375 73.0987C166.263 71.7183 165.239 70.7609 164.839 69.8258C162.881 66.5974 159.009 62.9014 154.291 60.2074C149.596 57.4243 144.278 55.6431 139.961 54.3517C133.508 52.4815 128.412 52.7264 122.516 53.283C119.067 53.6393 117.309 53.7729 115.417 54.285C114.461 54.5076 113.437 54.7525 112.146 55.131C110.9 55.5763 109.343 56.1329 107.296 56.8677C98.2168 59.8511 89.7611 64.7271 82.3957 70.9613C75.0081 77.1954 68.7331 84.6986 63.5707 92.9811C61.7015 96.0536 56.4946 105.895 54.6255 118.986C53.7131 125.488 53.5129 132.701 54.7145 139.715C55.4043 143.188 56.0941 146.684 57.2734 149.934C58.4305 153.185 59.9214 156.235 61.6126 158.974C64.9948 164.451 69.2004 168.57 72.9165 171.242C76.6325 173.936 79.8145 175.272 81.4389 175.806C83.0633 176.34 83.13 176.14 81.2609 174.96C79.4585 173.713 75.5422 171.509 70.8248 166.254C67.0642 162.314 64.1047 157.616 61.9908 152.562C60.945 150.023 60.1439 147.396 59.6098 144.68L58.8311 140.561C58.5641 139.18 58.5418 137.778 58.386 136.375C58.0077 133.592 58.2525 130.764 58.1858 127.981C58.5195 125.198 58.5863 122.371 59.2316 119.61C60.1217 114.044 62.0131 108.656 64.2383 103.468C73.4283 82.7171 92.8763 66.7755 114.772 61.187C125.653 58.4262 137.313 59.2055 147.104 64.2373C156.917 69.2469 164.483 78.1973 168.71 88.5059C172.983 98.8367 174.029 110.481 172.004 121.547C169.979 132.635 164.994 143.077 157.74 151.938C156.116 153.853 151.799 159.241 144.857 164.54C137.958 169.861 128.39 174.871 118.555 177.298C108.697 179.658 98.9066 179.547 92.2533 178.166C90.6066 177.788 89.1158 177.476 87.8252 177.186C86.6013 176.808 85.5555 176.496 84.7099 176.251C83.0633 175.784 82.3512 175.695 82.8407 176.095C82.7295 176.363 83.3971 176.852 84.6209 177.52L84.6431 177.454Z" fill="#063312"/>
<path d="M125.253 93.8272C121.982 96.3209 119.645 100.329 117.153 104.091C116.575 104.692 116.931 105.449 116.174 105.739C115.529 106.184 115.284 107.342 114.817 108.054C114.683 108.433 114.55 108.7 114.238 108.745C112.324 109.413 111.968 112.619 110.544 113.999C110.299 114.266 110.077 114.533 109.899 114.801C109.565 115.29 109.32 115.869 109.209 116.426C108.942 117.561 109.053 118.697 109.387 119.788C109.699 121.124 110.121 121.725 110.655 122.282C110.923 122.549 111.279 122.838 111.701 123.061C111.968 123.172 112.302 123.328 112.747 123.528C115.996 126.2 120.068 127.915 123.384 130.809C124.808 131.633 131.728 135.997 137.024 138.824C139.672 140.227 141.919 141.251 142.854 141.34C143.788 141.429 143.343 140.65 140.784 138.29C136.401 135.195 132.151 131.878 127.856 128.471L121.381 123.373L118.088 120.857L114.928 118.497C114.928 118.497 114.839 118.252 114.861 118.207L116.797 115.38L121.381 108.567C124.429 104.002 127.411 99.4157 130.282 94.7846C130.949 93.7827 134.02 89.4188 136.712 85.3444C138.048 83.296 139.294 81.3367 140.095 79.8895C140.94 78.4646 141.096 77.4181 140.695 77.5072C139.917 76.9728 137.847 79.4442 136.646 80.6688C133.308 82.9175 130.326 87.7935 127.144 91.2445C126.276 92.0683 126.232 93.3374 125.253 93.805V93.8272Z" fill="#063312"/>
<path d="M86.7126 169.082C86.9796 170.485 87.4469 171.531 88.8487 170.952C89.6721 169.216 90.7401 167.613 91.8082 166.01C92.8763 164.407 93.8999 162.781 94.5675 160.933C94.6787 160.755 95.2572 159.998 95.6578 159.241C96.1028 158.506 96.1696 157.638 95.5688 157.371C94.7454 156.859 94.2337 157.215 93.8109 157.304C92.231 157.104 91.9194 158.083 90.8959 158.417C90.5621 158.462 91.0294 158.952 90.4953 158.818C89.049 158.729 88.871 159.575 88.4704 160.265C88.2702 160.31 88.8265 160.755 88.3815 160.622C88.0922 160.599 88.3369 160.978 88.2702 161.111C88.3369 161.223 88.3147 161.29 88.1144 161.201C86.9573 160.822 87.9364 162.002 87.4024 162.091C87.0464 162.18 87.2911 162.536 87.2689 162.804C87.0019 162.959 87.0018 162.959 87.1576 163.449C86.5123 163.939 87.0686 165.164 86.4678 165.698C86.5123 166.054 86.4678 167.702 86.7126 169.082Z" fill="#063312"/>
<path d="M82.2845 108.166C82.7073 108.366 83.13 108.5 83.4638 108.5C83.8198 108.5 84.1314 108.277 84.2426 107.921C84.7322 106.964 84.3317 106.407 84.1982 105.939C84.2872 104.18 83.2191 103.958 82.774 102.867C82.7073 102.511 82.1955 103.067 82.3067 102.466C82.2845 100.908 81.3499 100.796 80.5711 100.44C80.5044 100.24 80.0815 100.885 80.1928 100.395C80.1928 100.061 79.8145 100.395 79.6588 100.329C79.5475 100.395 79.4808 100.395 79.5475 100.151C79.8368 98.8814 78.6574 100.039 78.5239 99.5049C78.4127 99.1264 78.0344 99.4381 77.7674 99.4381C77.5893 99.1709 77.5671 99.1709 77.0554 99.3935C76.4768 98.7701 75.2084 99.4603 74.6076 98.8369C74.2294 98.9037 72.4714 98.9928 71.0251 99.3713C69.5787 99.7498 68.4884 100.351 69.2672 101.731C71.1586 102.533 72.9832 103.49 74.7634 104.537C76.5435 105.583 78.3682 106.563 80.3931 107.119C80.5934 107.208 81.4389 107.787 82.2845 108.166Z" fill="#063312"/>
<path d="M134.999 75.3254C136.512 72.4978 139.049 70.3604 140.384 67.3769C140.584 67.0875 142.542 65.1059 141.452 64.527C140.74 63.9927 140.25 64.2376 139.894 64.2821C138.537 63.9704 138.226 64.772 137.335 64.9723C137.046 64.9723 137.424 65.4399 136.957 65.284C135.733 65.0837 135.511 65.7739 135.155 66.3305C134.977 66.3527 135.444 66.7758 135.066 66.6199C134.821 66.5754 135.021 66.9094 134.954 67.0207C134.999 67.132 134.999 67.1765 134.799 67.0652C133.82 66.6422 134.598 67.7332 134.153 67.7554C133.842 67.8 134.042 68.1339 133.998 68.3343C133.753 68.4234 133.775 68.4456 133.864 68.8687C133.286 69.2249 133.708 70.3159 133.152 70.6944C133.197 71.3178 132.64 76.1938 134.977 75.3477L134.999 75.3254Z" fill="#063312"/>
<path d="M151.465 142.209C151.198 142.298 149.974 142.476 148.973 142.832C147.95 143.211 147.171 143.678 147.571 144.769C150.041 145.771 152.044 147.731 154.692 148.399C154.825 148.465 155.337 148.866 155.893 149.111C156.405 149.423 157.117 149.222 157.295 148.733C157.696 147.998 157.451 147.619 157.407 147.263C157.629 145.883 156.917 145.749 156.695 144.925C156.695 144.658 156.294 145.103 156.405 144.636C156.516 143.411 155.893 143.367 155.404 143.144C155.382 142.988 155.026 143.523 155.159 143.144C155.204 142.899 154.892 143.144 154.803 143.144C154.714 143.211 154.67 143.211 154.736 143.011C155.048 141.986 154.136 142.966 154.091 142.543C154.047 142.254 153.757 142.521 153.579 142.543C153.49 142.343 153.468 142.343 153.112 142.543C152.778 142.075 151.844 142.699 151.465 142.254V142.209Z" fill="#063312"/>
<path d="M163.993 103.2C164.394 103.156 167.642 103.49 167.375 102.109C167.331 101.13 166.775 100.885 166.463 100.595C165.773 99.1928 164.816 99.4822 163.993 98.8366C163.793 98.5916 163.637 99.2373 163.437 98.7252C162.725 97.5007 161.946 97.8124 161.167 97.8792C161.034 97.7456 160.989 98.4358 160.856 98.0128C160.722 97.7456 160.544 98.1686 160.411 98.1909C160.344 98.3022 160.299 98.3245 160.255 98.1018C159.921 96.9663 159.498 98.3913 159.165 98.0128C158.92 97.7678 158.742 98.1686 158.519 98.2799C158.252 98.1463 158.252 98.1463 157.941 98.5471C157.206 98.3022 156.517 99.4154 155.76 99.2151C155.226 99.7049 150.397 102.622 152.845 104.069C156.517 103.423 160.299 104.136 163.971 103.178L163.993 103.2Z" fill="#063312"/>
<path d="M96.3031 78.0863C96.2141 78.2422 96.8594 78.0863 96.5034 78.309C96.3031 78.4871 96.7259 78.5093 96.7927 78.6207C96.9039 78.6207 96.9484 78.6652 96.7481 78.7765C95.7913 79.3777 97.2154 79.3109 96.9484 79.7116C96.7926 80.0011 97.1932 80.0233 97.3712 80.1569C97.3044 80.4241 97.3267 80.4241 97.7495 80.5577C97.705 81.2479 98.9066 81.4928 98.9066 82.183C99.5074 82.4947 103.268 85.7454 103.936 83.2963C102.467 80.4018 102.2 76.9953 100.442 74.19C100.375 74.0341 100.219 73.2326 99.9302 72.5646C99.6632 71.8967 99.1736 71.3623 98.5951 71.6518C97.705 71.9635 97.6382 72.4979 97.4379 72.8318C96.3254 73.8115 96.8371 74.5462 96.4589 75.4145C96.2808 75.6594 96.9262 75.6149 96.5034 75.9044C95.5688 76.8395 96.0584 77.3961 96.3031 78.0195V78.0863Z" fill="#063312"/>
<path d="M76.0763 135.864C75.8315 135.641 75.698 136.287 75.4532 135.797C74.5632 134.683 73.6953 135.062 72.8498 135.262C72.6717 135.151 72.7162 135.841 72.4937 135.44C72.3157 135.218 72.1822 135.641 72.0042 135.685C71.9597 135.797 71.8929 135.841 71.8262 135.619C71.2921 134.572 71.0251 136.042 70.5801 135.752C70.2463 135.574 70.135 135.997 69.9125 136.153C69.601 136.086 69.601 136.086 69.3117 136.531C68.4439 136.465 67.9321 137.711 67.0643 137.711C66.8195 138.001 65.5734 139.203 64.8614 140.406C64.127 141.608 63.86 142.677 65.2619 143.011C66.9975 142.276 68.8666 141.786 70.7358 141.43C72.605 141.073 74.4741 140.784 76.321 140.183C76.5213 140.138 77.4559 140.161 78.3015 140.049C79.147 139.96 79.9035 139.626 79.77 138.958C79.7255 138.001 79.1248 137.778 78.791 137.489C78.0122 136.108 76.9441 136.442 76.0095 135.886L76.0763 135.864Z" fill="#063312"/>
<path d="M120.268 164.83C120.135 165.386 121.27 165.631 121.158 166.188C121.403 166.321 122.382 167.078 123.361 167.568C123.851 167.813 124.34 167.991 124.763 167.991C125.186 167.991 125.586 167.791 125.898 167.301C125.008 164.874 125.23 162.136 123.962 159.798C123.918 159.664 123.895 159.018 123.717 158.462C123.584 157.905 123.183 157.46 122.538 157.683C121.603 157.905 121.425 158.328 121.181 158.595C119.912 159.352 120.291 159.954 119.779 160.644C119.578 160.844 120.224 160.822 119.734 161.045C118.666 161.779 119.067 162.247 119.222 162.759C119.111 162.893 119.779 162.759 119.378 162.959C119.156 163.093 119.578 163.137 119.601 163.227C119.712 163.227 119.734 163.271 119.534 163.36C118.488 163.805 119.912 163.805 119.601 164.117C119.4 164.34 119.801 164.384 119.935 164.496C119.846 164.696 119.845 164.696 120.246 164.83H120.268Z" fill="#063312"/>
</svg>
