<svg width="250" height="250" viewBox="0 0 250 250" fill="none" xmlns="http://www.w3.org/2000/svg">
<path d="M0 60C0 26.8629 26.8629 0 60 0H190C223.137 0 250 26.8629 250 60V190C250 223.137 223.137 250 190 250H0V60Z" fill="#DEECDC"/>
<path d="M204.241 116.271C202.343 114.042 200.291 112.253 198.173 110.134C193.164 105.254 193.186 105.077 185.86 100.066C178.071 94.1263 169.156 89.7105 159.844 86.3545C150.51 83.0648 140.691 81.0556 130.717 80.04C129.768 79.9958 128.378 79.9517 126.591 79.8854C124.803 79.8192 122.641 79.9296 120.169 79.9296C115.226 80.1945 109.07 80.7907 102.472 82.2258C95.8525 83.6388 88.8134 85.8909 82.1273 88.8495C75.4193 91.808 69.0642 95.4731 63.6139 99.337C52.6691 107.065 45.5639 115.455 43.5559 118.435C42.4967 119.914 42.6512 120.047 44.4165 118.435C45.3212 117.662 46.5127 116.338 48.3663 114.748C49.2931 113.953 50.264 112.982 51.4556 111.966C52.6692 110.973 53.9931 109.869 55.4715 108.632C73.6981 93.4419 97.3309 84.3454 121.228 84.3012C145.104 84.257 169.002 92.9561 187.405 108.235C191.972 112.01 196.43 116.294 200.004 120.776C203.535 125.236 205.874 130.446 204.417 134.994C203.116 139.631 198.526 143.429 193.605 146.52C188.486 149.589 183.168 152.613 177.718 155.152C156.005 165.53 131.688 171.292 107.989 168.223C105.407 167.76 98.2797 166.81 89.7181 163.653C85.4152 162.151 80.7813 160.076 76.1695 157.537C71.5356 155.042 66.99 152.039 62.7974 148.727C54.3241 142.236 47.616 134.465 43.3352 128.702C42.2981 127.245 41.3713 125.92 40.5769 124.772C39.8267 123.624 39.1868 122.674 38.6792 121.902C37.6642 120.422 37.1346 119.848 37.2891 120.489C37.0243 120.621 37.2891 121.482 37.8407 122.829C38.1276 123.491 38.4807 124.286 38.9 125.169C39.3413 126.03 39.8929 126.958 40.4666 127.929C41.5478 129.916 43.0263 131.948 44.3723 133.935C45.8287 135.855 47.2188 137.732 48.4545 139.189C50.97 142.567 54.1696 146.144 57.965 149.611C61.7824 153.033 66.1294 156.411 70.9398 159.37C75.7282 162.328 80.8917 164.933 86.1655 167.097C91.4613 169.217 96.8675 170.828 102.053 172.065C104.679 172.639 107.238 173.058 109.666 173.191C110.879 173.279 112.071 173.39 113.196 173.522C114.344 173.61 115.447 173.721 116.506 173.92C125.377 175.046 135.351 174.692 145.325 172.705C155.321 170.762 165.405 167.539 174.871 163.344C176.592 162.659 177.85 161.931 179.02 161.29C180.189 160.606 181.292 159.988 182.771 159.524C185.926 158.31 190.075 155.55 193.429 153.541C194.885 152.569 196.099 151.819 197.025 151.509C199.409 150.45 202.387 148.617 205.057 145.835C203.38 149.147 201.284 152.658 198.57 155.947C194.753 160.65 189.876 164.845 184.999 167.848C182.528 169.305 180.63 171.292 178.357 171.977C173.944 173.897 169.156 175.951 164.125 177.85C159.116 179.793 153.776 181.471 148.392 182.641C146.45 182.95 145.523 183.833 143.824 183.634C142.919 183.634 141.838 183.877 140.713 184.12C139.587 184.319 138.418 184.562 137.381 184.694C136.454 184.915 135.704 185.025 135.196 184.804C131.202 184.01 124.296 185.511 119.529 184.76C117.786 184.473 116.264 184.385 114.785 184.297C113.307 184.164 111.85 184.076 110.284 183.899C108.474 183.502 107.57 183.259 106.532 183.082C105.495 182.928 104.304 182.773 101.987 182.332C96.9999 180.896 91.9688 179.373 87.048 177.364C82.1273 175.399 77.2508 173.014 72.8155 169.901C71.0282 168.93 65.9088 165.706 60.1716 161.025C54.4123 156.367 48.2118 150.074 43.622 144.157C38.9661 138.284 35.9211 132.897 34.6192 131.219C33.9793 130.38 33.8026 130.446 34.2439 131.771C34.7073 133.074 35.6562 135.701 37.8407 139.653C45.0784 151.598 54.6772 162.151 66.0412 170.453C77.3611 178.777 90.38 184.959 104.171 188.138C117.963 191.34 132.394 191.605 146.296 189.066C160.197 186.549 173.569 181.161 185.22 173.301C186.5 172.418 190.075 170.122 194.179 166.501C198.283 162.88 202.873 157.802 205.918 151.995C208.765 146.718 210.199 141.044 210.486 136.694C210.839 135.348 211.059 133.957 211.059 132.588C211.081 129.475 210.287 126.649 209.404 124.33C208.058 120.886 206.205 118.391 204.307 116.183L204.241 116.271Z" fill="#063312"/>
<path d="M162.139 116.913C161.742 115.919 161.499 115.124 161.609 114.506C161.587 112.188 160.374 109.251 158.608 106.535C156.887 103.798 154.592 101.369 152.915 99.2715C150.356 96.1804 147.641 94.6791 144.508 92.979C142.743 91.853 141.772 91.4114 140.669 90.9477C140.117 90.7049 139.499 90.5503 138.727 90.3295C137.954 90.0866 136.983 89.8659 135.66 89.6451C130.077 87.9671 124.053 88.1658 118.448 89.4022C112.821 90.6828 107.371 93.1115 102.582 96.4454C100.905 97.8143 95.8523 102.12 92.1011 108.964C89.0339 114.484 87.1583 121.659 87.4231 128.151C87.2687 134.796 89.0559 141.575 93.425 147.713L93.5574 147.911C96.5143 151.753 99.9787 154.756 103.686 157.052C107.15 159.966 112.292 162.417 118.051 163.344C124.428 164.448 131.357 163.72 137.27 161.931C138.021 161.733 138.771 161.49 139.433 161.181C140.073 160.827 140.713 160.474 141.353 160.121C141.97 159.768 142.566 159.437 143.184 159.172C143.758 158.84 144.332 158.531 144.927 158.333C149.716 156.191 154.371 152.084 157.527 146.94C160.815 141.928 162.955 135.68 163.397 129.453C163.595 128.349 163.441 127.466 163.33 126.671C163.242 125.854 163.154 125.104 163.352 124.176C163.617 122.123 162.668 119.209 162.117 116.957L162.139 116.913ZM136.057 134.09C134.711 136.474 132.725 138.263 130.253 139.565C129.724 139.83 128.157 140.449 126.039 140.758C123.942 141.067 121.294 140.912 118.955 140.162C116.616 139.411 114.608 138.13 113.284 137.071C112.005 135.989 111.188 135.348 111.056 135.812C110.99 135.856 110.968 135.922 110.945 135.989L110.901 135.945C110.901 135.945 110.857 135.856 110.835 135.834C111.056 135.9 111.144 135.702 111.1 135.216C111.034 134.576 110.725 133.472 110.482 131.794C109.842 129.299 109.798 126.649 110.57 124.066C111.299 121.483 112.887 119.098 114.829 117.2C116.815 115.301 119.198 113.976 121.868 113.534C124.626 112.916 127.363 113.115 129.79 114.064C134.667 115.853 138.087 121.063 138.131 126.429C138.175 129.122 137.513 131.705 136.035 134.09H136.057Z" fill="#063312"/>
<path d="M216.355 131.374C215.958 128.923 215.075 126.031 214.391 124.044C213.332 119.495 210.795 114.064 207.33 108.92C203.91 103.731 199.695 98.7853 195.723 94.4799C193.804 92.2279 191.332 90.9032 189.92 88.9823C183.367 81.6079 173.459 74.9843 163.154 70.0165C161.345 69.0229 160.065 69.1554 158.675 68.0956C157.064 67.1021 154.35 66.4618 152.32 65.7553C151.371 65.5345 150.621 65.2916 150.201 64.9163C146.649 62.4434 139.168 62.0019 134.358 60.9421C130.761 60.1693 128.003 60.2576 124.715 60.2135C120.875 59.9044 120.831 59.9044 115.955 60.3901C105.142 60.5667 94.5285 63.7682 84.2457 67.7645C82.3922 68.6697 76.8535 71.3633 70.675 75.5142C64.4745 79.5988 57.6119 85.0522 52.4264 90.2849C47.1746 95.4514 43.6883 100.331 42.8719 102.163C42.4305 103.047 42.585 103.157 43.5338 102.274C44.4827 101.391 46.1596 99.4477 49.2709 96.5995C58.4504 87.3705 69.5497 79.6429 81.3551 73.8803C93.1384 68.206 106.356 65.4462 119.485 65.4462C132.659 65.4241 145.7 68.4047 157.704 73.8582C169.708 79.2896 180.763 86.8848 190.56 95.7384C191.641 96.732 194.488 99.4698 197.82 103.267C201.174 107.043 204.881 111.944 207.816 116.956C210.817 121.946 212.913 127.068 214.193 130.756C214.855 132.588 215.274 134.067 215.605 134.995C215.958 135.922 216.201 136.275 216.289 135.9C216.774 135.812 216.775 133.847 216.333 131.396L216.355 131.374Z" fill="#063312"/>
</svg>
