<svg width="250" height="250" viewBox="0 0 250 250" fill="none" xmlns="http://www.w3.org/2000/svg">
<path d="M0 60C0 26.8629 26.8629 0 60 0H190C223.137 0 250 26.8629 250 60V190C250 223.137 223.137 250 190 250H0V60Z" fill="#DEECDC"/>
<path d="M146.48 115.563C148.575 114.134 149.632 113.262 151.579 111.518C153.804 109.552 151.672 105.711 149.372 107.27C147.759 108.364 145.794 109.904 144.199 111.073C143.513 111.574 142.753 112.724 143.161 113.522C143.55 114.301 144.273 117.084 146.48 115.581V115.563Z" fill="#063312"/>
<path d="M158.124 106.769C160.219 105.34 161.276 104.468 163.223 102.724C165.448 100.758 163.316 96.9171 161.017 98.4756C159.404 99.5702 157.438 101.11 155.844 102.279C155.157 102.78 154.397 103.93 154.805 104.728C155.195 105.507 155.918 108.29 158.124 106.787V106.769Z" fill="#063312"/>
<path d="M170.103 98.3089C172.198 96.8803 173.255 96.0083 175.202 94.2643C177.427 92.2977 175.294 88.4571 172.995 90.0156C171.382 91.1102 169.417 92.6502 167.822 93.819C167.136 94.32 166.376 95.4703 166.784 96.2681C167.173 97.0473 167.896 99.8302 170.103 98.3274V98.3089Z" fill="#063312"/>
<path d="M111.954 138.327C114.123 137.01 115.217 136.193 117.275 134.561C119.593 132.724 117.683 128.754 115.291 130.201C113.622 131.203 111.583 132.631 109.932 133.707C109.228 134.171 108.412 135.284 108.764 136.082C109.117 136.88 109.673 139.7 111.972 138.327H111.954Z" fill="#063312"/>
<path d="M123.264 130.721C125.434 129.403 126.528 128.587 128.586 126.954C130.904 125.117 128.994 121.147 126.602 122.594C124.933 123.596 122.894 125.025 121.243 126.101C120.539 126.565 119.723 127.678 120.075 128.476C120.428 129.273 120.984 132.093 123.283 130.721H123.264Z" fill="#063312"/>
<path d="M134.297 123.355C136.467 122.038 137.561 121.221 139.619 119.589C141.937 117.752 140.027 113.782 137.635 115.21C135.966 116.212 133.926 117.641 132.276 118.717C131.571 119.181 130.756 120.294 131.108 121.092C131.46 121.889 132.017 124.709 134.316 123.337L134.297 123.355Z" fill="#063312"/>
<path d="M181.525 90.2747C183.62 88.8461 184.677 87.9741 186.624 86.2301C188.849 84.2635 186.717 80.423 184.417 81.9814C182.804 83.0761 180.839 84.616 179.244 85.7848C178.558 86.2858 177.798 87.4361 178.206 88.2339C178.595 89.0131 179.318 91.7961 181.525 90.2933V90.2747Z" fill="#063312"/>
<path d="M191.797 82.4632C193.893 81.0346 194.949 80.1626 196.896 78.4186C199.122 76.4519 196.989 72.6114 194.69 74.1699C193.077 75.2645 191.111 76.8045 189.516 77.9733C188.83 78.4743 188.07 79.6245 188.478 80.4223C188.868 81.2016 189.591 83.9845 191.797 82.4817V82.4632Z" fill="#063312"/>
<path d="M219.537 65.8953C219.351 64.6337 218.981 63.3721 218.424 62.2404C217.905 61.1272 217.256 60.0882 216.514 59.142C215.031 57.2496 213.195 55.6354 211.063 54.4666C210.006 53.8914 208.875 53.409 207.725 53.0751C206.539 52.704 205.352 52.5556 204.314 52.4072C202.144 52.1103 199.938 51.9433 197.712 52.0176C193.262 52.0732 188.905 53.0565 184.825 54.3924C180.728 55.7467 176.834 57.4351 173.032 59.2348C169.509 60.8674 160.145 65.4315 148.501 71.9251C142.678 75.172 136.281 78.8455 129.68 82.7417C129.272 82.9829 128.864 83.2426 128.475 83.4838C126.973 82.6118 124.859 81.6285 123.469 80.9049C118.332 77.5097 109.71 74.3371 102.942 71.0161C101.273 70.1069 99.4376 69.9956 98.1952 69.0308C95.4324 67.3982 92.1504 65.9696 88.4605 65.1161C84.7705 64.2256 80.6913 64.0771 76.853 64.5039C75.4438 64.5039 74.8132 65.2646 73.6265 65.0419C72.3471 65.0419 70.6412 65.7655 69.2691 66.1551C68.6757 66.4148 68.1751 66.5633 67.8043 66.4705C64.8746 66.2107 60.7952 69.0308 57.7728 69.9214C55.4735 70.6264 54.1199 71.5726 52.0988 72.5745C50.8194 73.1126 50.1333 73.5207 49.4101 74.133C49.0578 74.4484 48.687 74.8194 48.2605 75.4317C47.8711 76.0254 47.389 76.9902 47.3519 78.3075C47.1665 79.7546 47.7785 81.2389 48.5573 82.1665C49.336 83.1313 50.226 83.7435 51.079 84.2445C52.8591 85.2463 54.3425 85.7658 55.9742 86.4894C59.1821 87.8624 62.4084 89.2724 65.5235 90.9422C67.9896 91.9441 80.0051 97.1204 88.9426 100.72C93.1517 102.408 96.6377 103.744 98.1396 104.134C90.1293 109.996 82.8978 115.47 77.1682 119.57C68.7314 125.655 63.7434 129.106 65.4308 128.345C65.6162 128.698 69.9923 126.156 75.3511 122.65C80.7098 119.143 87.0698 114.672 91.4829 111.592C101.403 105.098 113.53 96.2855 126.899 88.1592C140.361 80.1999 154.694 72.1292 167.952 65.784C174.646 62.6485 180.616 59.309 186.272 57.9546C192.075 56.3219 198.25 55.7653 204.517 56.9713C207.429 57.4165 210.025 58.8637 212.009 61.0344C212.991 62.1105 213.826 63.3907 214.345 64.6708C214.846 65.9139 215.031 67.324 214.846 68.6041C214.753 69.2349 214.568 69.8472 214.308 70.3852C214.178 70.6635 214.03 70.9047 213.844 71.1274C213.659 71.3686 213.51 71.517 213.158 71.8695C211.953 73.094 210.692 74.3 209.413 75.4874C206.854 77.8436 204.165 80.1071 201.384 82.315C195.84 86.7306 189.98 90.9422 184.251 95.3022C180.079 98.3449 178.206 100.497 174.738 103.002C172.884 104.43 170.678 106.323 168.434 108.289C167.321 109.273 166.172 110.275 165.059 111.258C164.503 111.74 163.947 112.223 163.409 112.705C163.038 113.02 162.667 113.354 162.296 113.67C162.185 113.781 162.037 113.855 161.963 113.985L161.833 114.431L161.573 115.284C160.924 117.659 160.405 119.57 159.849 120.776C157.939 125.618 156.326 132.576 154.453 139.589C153.526 143.095 152.395 146.583 151.264 150.016C150.133 153.429 149.02 156.676 147.908 159.552C144.626 168.012 142.493 174.357 139.026 181.742C138.061 183.653 137.246 185.137 136.615 186.306C136.615 186.306 136.3 186.658 135.948 186.918C135.595 187.196 135.206 187.456 134.798 187.716C133.982 188.235 133.129 188.718 132.146 189.237C130.162 190.258 127.604 191.593 123.32 193.022C122.319 193.3 121.299 193.541 120.353 193.671C120.112 193.708 119.89 193.727 119.667 193.746C119.426 193.764 119.241 193.746 119.222 193.746C119.093 193.746 118.944 193.708 118.851 193.616C118.796 193.541 118.759 193.449 118.74 193.356C118.722 193.282 118.74 193.319 118.722 193.207C118.685 193.078 118.685 192.911 118.666 192.762C118.629 192.131 118.629 191.426 118.666 190.703C118.759 189.237 118.944 187.716 119.13 186.194C119.501 183.059 119.797 180.035 120.279 176.973C120.724 173.912 121.244 170.814 121.67 167.678C122.078 164.506 122.412 161.463 122.912 158.365C123.413 155.248 123.895 152.149 124.396 149.014L125.119 144.32L125.471 141.964L125.564 141.37C125.619 141.054 125.601 140.776 125.638 140.498L125.749 138.754C125.953 137.641 125.156 136.676 124.155 136.286C123.635 136.119 123.135 136.064 122.653 136.268L121.095 136.973C120.613 137.158 119.927 137.585 119.667 137.733L118.629 138.327L116.552 139.496C113.771 141.036 110.971 142.576 108.171 144.134C105.927 145.47 101.422 147.993 95.5622 151.723C92.6696 153.596 89.4248 155.693 85.9017 157.956C84.1402 159.088 82.323 160.276 80.4317 161.482C79.486 162.094 78.5403 162.706 77.5761 163.337C76.6304 163.931 75.592 164.654 74.702 165.136C72.7921 166.12 70.4188 166.12 68.1752 165.489C65.913 164.84 63.7435 163.689 61.7594 162.224C59.7383 160.814 58.0695 158.921 56.2894 157.066C54.5464 155.192 52.8219 153.3 51.1531 151.333C44.4593 143.541 38.8596 134.839 33.2412 127.288C32.518 126.397 31.8135 125.247 31.8876 124.004C31.9062 122.798 32.6663 121.518 33.8901 121.147C35.0954 120.794 36.2636 121.036 37.3206 121.277C38.4146 121.536 39.4158 121.926 40.3985 122.297C44.311 123.856 47.7969 125.544 50.9121 126.954C52.4696 127.659 53.9346 128.308 55.2882 128.921C56.6788 129.514 57.847 130.071 58.941 130.201C61.166 130.572 62.909 130.015 63.9103 129.514C64.9301 128.995 65.3196 128.568 65.2083 128.568C65.0785 128.531 64.4666 128.921 63.0944 129.292C61.7038 129.607 59.5899 129.904 56.8271 128.42C53.6563 126.824 49.6512 124.82 44.719 122.334C42.8833 121.481 41.0475 120.646 38.9893 119.941C37.8953 119.588 36.894 119.291 35.5404 119.18C34.8729 119.143 34.0942 119.162 33.2412 119.44C32.4068 119.718 31.5538 120.312 31.0346 121.035C29.9777 122.427 29.7923 124.264 30.2002 125.711C30.3856 126.453 30.738 127.158 31.1645 127.733L32.0175 128.958L35.4292 133.856C39.935 140.387 44.4222 147.158 49.6698 153.374C50.9677 154.932 52.3028 156.472 53.6379 157.975C55.0285 159.496 56.2523 160.943 57.8655 162.483C61.0362 165.378 64.7448 167.864 69.4175 168.68C71.7167 169.088 74.4054 168.773 76.6305 167.456C77.2424 167.122 77.5576 166.899 78.0212 166.621L79.3006 165.823L81.8409 164.227L92.0207 157.882C95.4325 155.767 98.7701 153.633 102.219 151.648C105.668 149.645 109.154 147.696 112.677 145.748L121.837 140.646C121.837 140.646 121.967 140.628 121.985 140.683C121.985 140.72 121.985 140.739 121.985 140.776L121.93 141.184L120.965 147.103L118.907 158.995C118.573 160.981 118.277 163.077 118.017 165.025C117.739 166.992 117.442 168.958 117.109 170.925C116.441 174.858 115.736 178.922 115.273 182.966C115.05 184.933 114.754 186.918 114.55 189.014C114.457 190.072 114.364 191.13 114.383 192.298C114.383 192.595 114.383 192.874 114.42 193.207C114.457 193.56 114.457 193.746 114.568 194.302C114.661 194.803 114.865 195.23 115.032 195.694C115.273 196.102 115.514 196.51 115.829 196.862C116.515 197.456 117.35 197.883 118.277 197.957C118.499 197.994 118.74 198.031 118.981 198.031H119.593C119.908 198.031 120.205 197.994 120.502 197.976C121.651 197.846 122.69 197.623 123.691 197.363C125.712 196.825 127.604 196.157 129.476 195.415C131.349 194.673 133.185 193.838 134.983 192.892C135.892 192.41 136.782 191.909 137.691 191.315C138.154 191.018 138.599 190.703 139.081 190.295C139.526 189.905 140.101 189.46 140.62 188.551C144.737 180.981 147.963 173.17 150.911 165.248C152.376 161.296 153.785 157.326 155.158 153.374L157.216 147.437C157.902 145.433 158.551 143.374 159.144 141.351C161.518 133.206 163.372 125.08 165.838 117.195L166.005 116.638C166.005 116.638 166.005 116.62 166.005 116.601L166.839 115.896L169.231 113.893L174.015 109.866C177.223 107.213 180.338 104.43 183.639 101.926C190.184 96.8235 196.989 91.9997 203.627 86.7677C206.947 84.1517 210.21 81.4244 213.307 78.493C214.067 77.7509 214.864 77.0273 215.606 76.2666L216.737 75.1348C217.089 74.8009 217.664 74.1515 218.016 73.5949C219.574 71.2387 219.963 68.4372 219.592 65.9139L219.537 65.8953ZM110.044 95.5434C106.113 98.3078 102.312 101.072 98.6403 103.762C98.0655 103.224 96.6007 102.241 93.8935 100.627C86.05 96.7122 78.2066 92.779 70.326 88.8271C66.395 86.8419 62.4641 84.8567 58.5145 82.853C56.6232 81.8511 54.3239 80.8493 53.0445 79.9401C52.377 79.4578 52.0247 78.9383 52.0247 78.8084C52.0247 78.6414 51.9505 78.6043 52.2657 78.2333C52.9333 77.4169 55.0842 76.6005 57.1238 75.7471C59.145 74.8937 61.1661 74.0588 63.1687 73.3166C67.2109 71.7953 71.2716 70.5337 75.3695 69.8843C79.4859 69.2164 83.5468 69.2349 87.589 70.0884C91.6498 70.9233 95.6735 72.4075 99.79 73.9289C102.553 75.005 119.556 81.981 126.936 84.4486C121.225 87.9366 115.532 91.7214 110.062 95.5619L110.044 95.5434Z" fill="#063312"/>
</svg>
