<svg width="250" height="250" viewBox="0 0 250 250" fill="none" xmlns="http://www.w3.org/2000/svg">
<path d="M0 60C0 26.8629 26.8629 0 60 0H190C223.137 0 250 26.8629 250 60V190C250 223.137 223.137 250 190 250H0V60Z" fill="#DEECDC"/>
<path d="M217.161 109.016C216.631 106.991 215.668 104.966 213.981 102.869C213.041 101.736 211.499 100.795 210.198 100.169C208.969 99.6382 207.644 99.1078 206.295 98.7221C203.621 97.8542 200.874 97.2515 198.464 96.6247C196.272 96.2389 194.537 95.8533 193.453 95.3229C191.453 94.5514 189.02 93.9005 186.345 93.346C186.9 92.0442 187.357 90.2602 187.743 89.0548C190.104 84.619 190.827 77.3143 192.682 71.5525C193.236 70.106 192.706 68.6354 193.501 67.5505C194.079 66.538 194.561 64.754 194.537 63.0424C194.513 61.3307 194.128 59.5949 193.309 57.9074C192.489 56.2439 191.188 54.5323 189.116 53.3752C188.08 52.7966 186.851 52.4832 185.647 52.3867L183.502 52.2661C182.49 52.0492 181.888 52.8207 181.069 52.218C180.153 51.8322 178.756 52.218 177.671 52.1456C177.165 52.2421 176.78 52.242 176.539 51.9527C174.612 50.458 170.829 51.784 168.395 51.109C166.588 50.651 165.191 50.9885 163.528 50.9644C161.601 50.6028 161.601 50.6268 159.119 50.8197C153.746 49.9759 148.132 50.7232 142.543 50C141.434 50.0241 138.35 50.0965 134.495 50.1929C132.568 50.2652 130.496 50.3134 128.375 50.5304C126.303 50.7473 124.063 51.3742 122.858 52.7965C122.231 53.4957 121.991 54.2912 121.798 55.0868C121.605 55.8824 121.509 56.6538 121.436 57.3288C121.316 58.6789 121.364 59.7155 121.509 60.1735C121.677 60.6316 121.894 60.6557 122.183 60.1253C122.497 59.595 122.93 58.3413 123.749 56.5574C123.87 56.2198 123.99 55.8582 124.111 55.5931C124.183 55.4484 124.231 55.3279 124.28 55.2314L124.352 55.1109V55.0868C124.352 55.0868 124.352 55.0868 124.231 54.9904C124.544 55.135 124.4 54.918 124.52 54.8939C124.593 54.8457 124.641 54.7734 124.713 54.7252C124.858 54.6047 125.051 54.5082 125.243 54.4118C126.111 54.0261 127.556 53.8814 129.147 53.9537C132.471 54.0984 135.965 54.3876 139.41 54.7493C146.349 55.5207 153.289 56.2681 160.252 57.0395C167.239 57.811 174.25 58.4619 181.31 58.92L183.96 59.0646L185.261 59.1369C185.382 59.1369 185.502 59.161 185.623 59.2092C186.104 59.3539 186.899 60.0048 187.454 61.0655C188.008 62.1022 188.369 63.404 188.393 64.6094C188.393 64.9228 188.393 65.2121 188.393 65.5014L188.225 66.7792L187.863 69.3586C187.719 70.106 187.357 72.1552 186.899 74.7829C186.393 77.4107 185.96 80.6171 185.526 83.7029C184.996 87.3914 184.562 90.887 184.514 92.9844C181.864 92.5023 179.045 92.0924 176.154 91.7308C169.552 90.9111 162.878 90.3326 157.505 89.1513C149.53 87.5119 143.482 87.0539 136.206 86.0655C127.749 84.5467 127.725 84.5708 116.883 83.3413C105.077 81.2921 93.1502 79.5322 81.1514 77.5313C78.1156 77.025 75.2003 76.5428 72.1403 75.9643C69.0563 75.4098 65.876 74.9758 62.5992 74.9999C59.3466 75.0481 55.8529 75.5062 52.6966 77.2902C52.5038 77.3866 52.3352 77.5312 52.1424 77.6518C52.287 76.9767 52.4074 75.916 52.5279 74.3249L52.4074 72.1552C52.4074 71.5043 52.4556 70.9257 52.552 70.4677C52.7688 69.4792 53.0821 69.0694 53.7567 68.6113C54.4554 68.1533 55.6119 67.8398 56.913 67.6952C58.2381 67.5505 59.6357 67.5265 61.2259 67.5265C67.3939 67.5265 73.5619 67.4783 79.7541 67.4542C92.1142 67.3577 104.498 67.0684 116.786 66.3693C117.75 66.3693 118.69 66.2488 119.581 66.9238C120.497 67.5024 121.557 69.5756 122.135 72.0105C123.653 77.3625 125.267 82.1841 125.87 81.3162C127.026 80.9787 126.376 77.4107 126.183 75.4579C126.303 74.3249 126.279 73.1195 126.135 71.8177C126.014 70.54 125.821 69.0935 125.316 67.6711C124.834 66.2488 124.087 64.754 122.81 63.5004C121.533 62.2468 119.75 61.4995 118.087 61.2826C116.521 60.9692 115.485 61.7888 114.377 61.1861C109.944 59.812 104.715 60.2459 99.6074 60.3905C98.6918 60.2459 98.2099 61.0655 97.4389 60.5593C96.5956 60.27 95.3909 60.7763 94.4272 60.8004C93.9935 60.9209 93.6562 60.9691 93.4153 60.7039C91.56 59.4021 88.3796 61.1137 86.163 60.7039C84.5246 60.4387 83.3441 60.945 81.8743 61.0896C80.1637 60.945 80.1395 60.9691 77.9951 61.4513C73.2004 61.2343 68.3576 62.6325 63.3942 62.512C62.4546 62.729 59.7801 62.8978 56.2865 63.6933C54.5999 64.1273 52.6243 64.8023 51.2269 66.2728C49.8053 67.7434 49.5644 69.7926 49.7331 71.4078C50.239 74.6624 50.9378 77.2901 51.3955 78.1821C48.8898 80.0626 47.131 82.9555 46.4804 85.8244C46.119 87.1985 45.9021 88.7656 45.4925 90.9594C45.107 93.1291 44.6252 95.7568 44.0711 98.7703C42.9868 104.797 41.6134 112.319 40.1196 120.588C38.8186 128.375 37.638 136.885 36.3851 145.395C36.626 141.61 36.8428 137.825 37.0838 134.04C37.7825 123.794 38.4571 113.548 39.1558 103.254L40.1918 87.8494C40.6255 82.6903 40.6015 77.3384 41.0352 72.565C41.5412 67.7917 42.4567 62.8978 44.9143 59.8361C45.2275 59.4503 45.5648 59.0646 45.9021 58.703C46.0707 58.5101 46.2877 58.3655 46.4563 58.1726C46.6491 58.0039 46.7454 57.9556 46.89 57.8351C47.5405 57.4011 48.5283 56.9913 49.5644 56.6297C51.6846 55.9547 54.0699 55.5448 56.4552 55.2796C57.5153 55.1591 60.4307 54.9904 64.1653 55.1833C65.1049 55.2315 66.0687 55.3038 67.0807 55.4002C68.1649 55.4967 69.2733 55.6171 70.4298 55.7136C72.7187 55.9064 75.1039 56.0752 77.4651 56.1476C79.8022 56.244 82.2115 56.1476 84.139 56.1476C86.0665 56.0993 87.7531 56.1716 89.271 56.2681C92.2587 56.4609 94.0658 56.5092 93.6081 56.0029C93.8008 54.8216 87.97 53.5439 84.8137 53.2064C81.296 52.3867 76.9351 52.0492 72.3331 51.4224C70.0201 51.1572 67.7552 50.7956 65.3217 50.5304C62.9364 50.2893 60.5512 50.1688 58.3105 50.0965C55.9975 49.9277 54.0217 50.892 52.1183 50.6027C50.1667 50.6027 48.0947 50.7474 45.854 51.4706C44.7698 51.8081 43.4927 52.4108 42.3603 53.2787C41.3966 54.0019 40.5052 54.8939 39.7101 55.8823C38.0958 57.8351 36.9873 60.1735 36.2645 62.4397C35.5176 64.7299 35.108 66.972 34.7707 69.1899C34.3611 70.8052 35.0839 71.7453 34.4575 72.999C34.0238 74.4213 34.3852 76.5428 34.337 78.134C34.4334 78.8572 34.4334 79.4357 34.1442 79.8215C33.4214 81.3403 33.3974 83.3413 33.4456 85.511C33.4938 87.7048 33.6383 89.9709 33.2769 91.779C32.795 94.455 33.1324 96.4801 33.0843 98.9149C32.7228 101.76 32.7227 101.76 32.9395 105.4C32.0722 113.331 32.8192 121.504 32 129.701C32 131.292 32.0481 135.824 32.0722 141.441C32.0963 147.01 32.1686 153.785 33.4697 159.233C33.6865 160.245 33.9757 161.186 34.2889 162.078C34.5781 166.08 36.626 169.672 39.204 172.251C42.264 175.048 45.9744 176.687 49.3716 178.134C52.7929 179.532 56.0457 180.593 58.9611 181.485C64.7918 183.244 69.2732 184.233 71.538 184.619C73.8028 185.004 73.8752 184.787 71.0321 183.727C68.2372 182.618 62.3583 180.906 53.5158 177.073C50.0945 175.675 46.7455 174.059 43.9024 172.179C42.4808 171.19 41.3724 170.25 40.4809 169.045C39.469 167.695 38.6739 166.321 38.2402 164.922C37.3006 162.198 37.7583 158.968 38.5293 155.255C38.9148 153.423 39.3245 151.494 39.686 149.542L40.6737 143.876C42.023 136.33 43.1796 128.785 44.6734 121.191C46.2395 113.597 47.8055 106.003 49.3716 98.4087L50.5523 92.7192L51.1547 89.8745C51.3474 88.9584 51.5402 87.8735 51.757 87.2467C52.4798 84.2332 54.0699 82.2082 56.8889 81.2679C59.6356 80.2072 63.2497 80.3037 66.7674 80.6894C68.5504 80.9064 70.3575 81.2438 72.2127 81.6537L77.947 82.8109C93.1744 85.8244 108.498 88.4762 123.798 90.9111L146.735 94.5996L158.18 96.48C162.035 97.1309 165.938 97.6855 169.721 98.2641C177.334 99.4212 184.948 100.603 192.345 102.242C196.031 103.062 199.693 103.978 203.163 105.135C204.825 105.713 206.705 106.413 207.957 107.088C209.066 107.594 209.596 108.365 210.078 109.426C211.017 111.62 210.728 115.236 209.981 118.659C209.259 122.203 208.03 125.675 206.946 129.653C206.03 133.124 204.705 136.74 203.428 140.356C202.127 143.997 200.826 147.661 199.597 151.374C197.212 158.92 195.164 166.2 192.706 173.457C191.501 177.073 190.248 180.665 188.827 184.112C188.128 185.848 187.381 187.536 186.586 189.103C186.49 189.295 186.393 189.512 186.297 189.681L186.032 190.067C185.888 190.332 185.719 190.597 185.478 190.79C185.093 191.248 184.611 191.634 184.032 191.971C183.069 192.574 180.756 193.466 176.828 193.611C174.877 193.683 172.612 193.635 170.034 193.538C167.528 193.418 164.396 193.418 161.625 193.394C150.012 193.201 135.628 192.092 121.991 190.766C108.329 189.464 95.3187 187.825 86.2353 186.451C77.1278 185.077 72.0921 183.823 73.4896 184.667C73.2727 185.245 77.441 186.812 83.0067 188.114C88.5483 189.464 95.3669 190.621 100.089 191.441C110.426 193.731 123.677 195.539 137.627 196.889C144.615 197.54 151.746 198.119 158.854 198.408C160.613 198.505 162.42 198.529 164.179 198.553C165.89 198.577 167.576 198.649 169.287 198.746C172.708 198.939 176.178 199.204 179.72 198.89C183.213 198.673 187.092 197.396 189.55 194.455C190.224 193.78 190.61 192.96 191.116 192.213C191.453 191.538 191.79 190.862 192.128 190.212C192.778 188.91 193.429 187.656 194.079 186.475C199.115 176.422 202.753 164.657 206.608 153.013C208.608 147.179 210.921 141.321 212.969 135.053C213.475 133.51 213.957 131.678 214.318 130.328L215.668 125.723C216.559 122.565 217.426 119.286 217.788 115.694C218.149 113.139 217.884 110.969 217.306 108.944L217.161 109.016Z" fill="#063312"/>
<path d="M169.552 121.962C147.843 131.75 125.653 141.899 105.366 154.7C104.209 155.375 99.1254 158.268 94.5717 161.089C92.2828 162.487 90.1625 163.934 88.6928 164.994C87.2472 166.103 86.4039 166.73 86.9099 166.923C87.5604 167.96 90.6686 166.296 92.4033 165.573C96.668 164.705 101.824 161.185 106.571 159.233C107.799 158.799 108.474 157.642 109.63 157.593C113.943 156.581 118.16 153.832 122.472 151.446C123.316 151.157 123.388 150.289 124.255 150.337C125.099 150.192 125.918 149.252 126.737 148.794C127.05 148.505 127.339 148.312 127.653 148.432C129.749 148.649 131.821 145.901 133.893 145.274C135.411 144.792 136.23 143.876 137.459 143.153C139.001 142.55 139.001 142.526 140.712 141.248C144.952 139.416 148.711 136.378 153.144 134.546C154.734 133.606 161.745 129.411 167.962 125.699C173.576 122.275 177.021 119.696 169.624 121.986L169.552 121.962Z" fill="#063312"/>
<path d="M118.039 169.671C114.353 171.479 111.028 173.143 111.799 173.601C112.281 174.613 114.835 173.721 116.256 173.384C119.726 173.36 123.918 171.045 127.749 169.985C128.737 169.792 129.291 168.803 130.207 168.948C133.7 168.683 137.097 166.73 140.495 165.067C141.169 164.898 141.193 164.102 141.892 164.271C142.567 164.247 143.193 163.475 143.844 163.162C144.085 162.921 144.301 162.8 144.566 162.921C146.301 163.379 147.843 161.065 149.482 160.703C150.686 160.414 151.313 159.666 152.252 159.088C153.481 158.678 153.457 158.654 154.758 157.617C158.107 156.34 160.902 153.784 164.323 152.41C166.612 150.795 187.55 137.801 176.274 141.489C160.011 149.758 142.88 156.99 126.689 165.573C125.773 166.007 121.726 167.911 118.015 169.647L118.039 169.671Z" fill="#063312"/>
<path d="M195.212 78.5197C197.452 79.1706 199.717 79.6527 201.838 80.1349C202.898 80.376 203.91 80.6412 204.921 80.9305L206.439 81.3885C206.921 81.5332 207.668 81.7501 208.246 81.8948L209.716 82.2082C209.933 82.2564 209.813 82.2323 209.885 82.2564C209.885 82.2564 209.909 82.2806 209.933 82.3047C209.933 82.3529 209.933 82.2082 209.957 82.6663C210.005 83.3413 209.957 84.4984 209.909 85.4868C209.861 86.4994 209.813 87.5602 209.764 88.6932C209.716 89.1995 209.307 91.1281 208.945 92.9362C208.777 93.8282 208.584 94.7684 208.584 95.5399C208.584 96.3354 208.801 96.914 209.186 96.7935C210.27 96.8899 210.825 95.6363 211.331 95.0818C213.282 94.0211 213.523 91.6344 214.535 89.8263C214.872 89.3924 214.222 88.862 214.848 88.5486C216.438 87.1262 216.39 85.1976 216.414 83.1002C216.559 82.6662 215.788 82.4493 216.27 82.0636C216.583 81.7019 215.981 80.834 215.86 80.3037C215.667 80.0867 215.571 79.8939 215.74 79.6528C216.149 78.8331 215.619 77.9893 214.872 77.5071C214.077 77.025 213.186 76.8322 212.583 76.4223C212.102 76.1089 211.644 76.0124 211.258 76.0607C211.065 76.0607 210.849 76.0607 210.68 76.1089C210.559 76.133 210.415 76.1571 210.295 76.1812C209.74 75.916 209.764 75.9402 208.993 76.1812C208.391 75.8919 207.355 75.8196 206.464 75.8196C205.524 75.8196 204.608 75.8196 203.765 75.5303C203.042 75.6026 200.199 75.8678 197.139 76.133C194.561 76.4223 192.73 76.6152 195.284 78.5197H195.212Z" fill="#063312"/>
</svg>
