<svg width="250" height="250" viewBox="0 0 250 250" fill="none" xmlns="http://www.w3.org/2000/svg">
<path d="M0 60C0 26.8629 26.8629 0 60 0H190C223.137 0 250 26.8629 250 60V190C250 223.137 223.137 250 190 250H0V60Z" fill="#DEECDC"/>
<path d="M119.736 147.986C120.571 145.814 121.51 143.726 122.428 141.784C123.388 139.884 124.265 138.151 124.995 136.689C126.393 133.787 127.124 132.012 126.539 132.325C125.642 131.761 122.407 137.253 120.529 140.093C118.213 143.079 115.875 147.276 114.435 152.183C113.768 154.626 113.246 157.299 113.684 160.097C113.851 160.786 113.914 161.496 114.248 162.164L114.686 163.187C114.874 163.5 115.103 163.813 115.312 164.106C115.708 164.753 116.293 165.212 116.856 165.693C117.399 166.215 118.025 166.528 118.63 166.841C121.093 168.136 123.534 167.76 125.642 168.157C126.769 168.24 128 168.157 129.315 167.718C130.442 167.342 131.506 166.82 132.529 166.215C134.553 165.004 136.327 163.438 137.955 161.892C141.21 158.781 144.299 155.294 147.262 151.765C148.41 150.575 148.473 149.468 149.641 148.675C150.768 147.652 151.812 145.689 152.813 144.269C153.189 143.58 153.544 143.058 153.982 142.849C156.862 140.844 158.907 135.186 161.223 131.991C162.914 129.59 163.623 127.501 164.75 125.1C166.274 122.406 166.315 122.427 167.609 118.69C169.55 114.848 171.011 110.734 172.263 106.537C172.889 104.47 173.578 102.319 173.912 99.9176C174.266 97.5372 174.141 94.8644 172.973 92.4213C172.493 91.607 171.24 89.6651 168.632 88.7672C166.107 87.8693 162.768 88.3495 160.055 90.0618C157.321 91.7323 155.109 94.1545 152.813 96.4514C150.539 98.79 148.389 101.212 146.49 103.488C142.692 108.061 139.958 112.049 139.249 113.553C138.56 115.077 139.833 114.012 144.779 109.251C148.368 105.347 152.125 101.588 156.111 98.0592C158.135 96.2843 160.076 94.5094 161.975 93.528C162.956 93.0269 163.853 92.7345 164.771 92.6301C165.689 92.5466 166.566 92.6719 167.213 92.9851C168.423 93.4863 169.321 95.1776 169.362 97.1613C169.425 99.1659 168.694 101.525 167.776 104.073C166.002 109.126 163.957 114.075 161.62 118.898C156.945 128.545 151.186 137.65 144.507 146.023C141.168 150.22 137.621 154.208 133.844 157.988C131.965 159.867 130.129 161.558 128.167 162.665C127.917 162.79 127.666 162.936 127.416 163.041C127.186 163.145 127.061 163.208 126.832 163.271C126.414 163.396 125.934 163.5 125.392 163.542C124.348 163.646 123.2 163.563 122.115 163.333C121.656 163.229 120.717 162.999 119.799 162.498C118.985 161.934 118.171 161.287 117.795 159.888C117.378 158.51 117.399 156.505 117.795 154.396C118.192 152.266 118.901 150.032 119.715 147.86L119.736 147.986Z" fill="#063312"/>
<path d="M146.323 124.473C145.801 125.455 145.238 126.415 144.654 127.355C143.464 129.234 142.17 131.03 140.835 132.763C139.52 134.413 137.913 136.459 136.953 137.169C136.89 137.232 136.473 137.294 136.306 136.981C136.264 136.897 136.223 136.897 136.16 136.71C136.097 136.438 136.014 136.125 135.951 135.853C135.847 135.311 135.555 134.893 135.283 134.956C134.47 134.788 134.01 136.041 133.802 136.772C133.155 137.545 133.113 139.132 134.094 140.176C135.054 141.282 136.723 141.554 138.205 141.262C138.602 141.262 138.935 140.969 139.165 140.76C139.395 140.573 139.582 140.405 139.916 140.468C141.106 140.385 142.149 139.675 142.838 139.027C143.589 138.338 144.215 137.503 144.841 136.71C145.175 136.501 144.779 135.937 145.3 135.958C145.718 135.853 145.676 135.206 145.906 134.914C145.927 134.705 145.989 134.58 146.219 134.642C147.575 134.705 147.179 132.847 147.951 132.325C148.493 131.907 148.431 131.301 148.639 130.738C149.099 130.216 149.099 130.216 149.203 129.276C150.309 127.689 150.392 125.705 151.185 123.575C151.185 123.158 151.248 121.821 150.664 120.401C150.121 118.94 148.639 117.729 147.346 117.645C146.073 117.52 145.217 118.146 144.987 118.501C144.737 118.898 145.238 119.232 145.927 119.692C146.824 119.838 147.45 120.527 147.262 122.051C147.158 122.824 146.866 123.492 146.344 124.473H146.323Z" fill="#063312"/>
<path d="M68.399 117.041C74.2631 117.313 80.1482 116.039 85.6158 113.888C86.9305 113.366 88.3079 112.677 89.1426 111.571C101.121 115.308 113.1 119.485 125.246 122.575C125.934 122.784 128.606 123.682 131.402 124.538C130.734 125.561 129.879 126.501 129.065 127.461C127.896 128.839 132.925 130.739 135.764 130.698C136.703 130.698 139.624 129.988 140.543 129.779C141.461 129.57 142.358 129.027 142.776 128.192C143.297 127.106 142.922 125.832 142.463 124.726C141.607 122.658 140.459 120.716 139.082 118.962C138.477 118.19 137.788 117.438 136.911 116.979C136.035 116.519 134.929 116.415 134.094 116.937C132.779 117.73 132.717 119.464 132.571 121.051C130.839 120.257 128.919 119.568 127.312 118.67C126.602 118.19 125.705 118.587 125.246 117.898C123.034 115.935 119.882 115.267 116.898 114.369C116.397 114.076 115.917 114.64 115.604 114.076C115.187 113.68 114.352 113.847 113.789 113.68C113.497 113.7 113.288 113.68 113.225 113.408C112.495 111.988 110.199 112.74 109.01 111.988C108.133 111.466 107.319 111.612 106.422 111.466C105.462 111.028 105.462 111.028 104.064 110.986C101.33 109.879 98.1788 110.025 95.3407 108.898C94.652 108.814 92.3982 108.48 89.8104 108.125C89.56 107.06 89.0174 106.016 88.454 105.077C84.6767 98.7706 80.0438 92.9656 74.7014 87.9124C74.0962 87.3486 73.4701 86.764 72.6771 86.5552C71.8841 86.3464 70.9032 86.6178 70.5693 87.3904C70.2354 88.163 70.7154 89.04 71.1119 89.7708C73.3867 93.9679 73.6371 99.2299 71.8006 103.636C69.9433 108.042 65.9991 111.445 61.4288 112.865C58.8411 113.68 59.9888 116.561 68.4198 116.958L68.399 117.041Z" fill="#063312"/>
<path d="M80.6489 60.7667C80.6698 61.4558 81.4628 61.769 81.2124 62.4163C80.962 64.8385 82.1932 67.0728 83.1949 69.3488C83.2575 69.8082 83.9254 69.7873 83.6958 70.2676C83.6332 70.7269 84.2175 71.1237 84.4053 71.5622C84.5723 71.7083 84.6766 71.8545 84.5097 72.0424C83.8627 73.2744 85.6992 74.214 85.7827 75.3416C85.8662 76.156 86.4296 76.5527 86.8053 77.1792C86.9931 77.9935 87.014 77.9935 87.7444 78.8287C88.4122 81.063 90.2486 82.8588 90.979 85.1766C91.5216 85.9283 93.9215 89.7495 95.9249 92.4223C97.9492 95.1159 99.577 96.682 98.7631 92.8399C93.8172 82.0235 89.9147 70.4972 84.6557 59.7435C84.4053 59.138 83.3619 56.4026 82.2976 53.9386C81.7759 52.7066 81.2333 51.5582 80.7533 50.7647C80.2733 49.9921 79.7098 49.658 79.5429 49.8877C78.7499 50.2218 79.1673 51.934 79.2716 52.9155C78.7916 55.3376 80.2316 58.1148 80.6281 60.7249L80.6489 60.7667Z" fill="#063312"/>
<path d="M99.7648 56.9239C99.7856 57.6756 100.579 58.0514 100.307 58.7614C99.9943 61.3506 101.163 63.8564 102.019 66.4247C102.039 66.9259 102.728 66.9885 102.457 67.4897C102.353 67.9908 102.937 68.4711 103.083 68.9722C103.25 69.1601 103.312 69.3272 103.146 69.5151C102.394 70.7471 104.147 71.9999 104.105 73.2319C104.105 74.1298 104.648 74.631 104.94 75.3618C105.045 76.2806 105.045 76.2805 105.671 77.3037C106.067 79.8094 107.632 82.1063 107.987 84.7373C108.384 85.6561 110.137 90.2708 111.472 93.7162C112.161 95.4284 112.787 96.8274 113.225 97.2659C113.643 97.7044 114.06 97.1616 114.081 94.969C111.785 81.8975 109.135 68.4919 103.876 56.1513C103.625 55.4622 102.582 52.3509 101.393 49.6155C100.808 48.2374 100.203 46.9428 99.6396 46.0866C99.1178 45.2096 98.5752 44.8129 98.3874 45.0844C97.5735 45.4393 98.0953 47.3186 98.2413 48.3836C97.8448 50.9937 99.3683 54.0841 99.7439 56.9239H99.7648Z" fill="#063312"/>
<path d="M79.501 126.708C80.7323 126.207 81.9009 125.706 82.694 125.246C83.5078 124.871 83.8 124.161 83.5704 123.994C83.2783 123.221 81.5044 123.513 80.5445 123.576C78.1237 122.97 75.3064 124.349 72.6978 124.641C72.0091 124.641 71.696 125.455 71.0282 125.163C68.6075 124.808 66.3536 125.998 64.0581 126.917C63.5989 126.959 63.6198 127.669 63.119 127.397C62.6599 127.314 62.2425 127.898 61.8251 128.086C61.6582 128.253 61.5121 128.337 61.3451 128.17C60.1347 127.481 59.1539 129.297 58.027 129.339C57.2131 129.402 56.7957 129.966 56.1696 130.321C55.3349 130.488 55.3557 130.508 54.5001 131.218C52.2463 131.824 50.4098 133.641 48.1143 134.309C46.6117 135.395 32.6296 143.392 40.2676 141.909C51.2029 137.295 62.8059 133.787 73.6577 128.859C74.2629 128.608 77.0385 127.669 79.501 126.687V126.708Z" fill="#063312"/>
<path d="M85.9074 136.563C83.3614 136.334 80.6067 138.088 77.9564 138.756C77.2468 138.86 76.9964 139.696 76.2869 139.508C73.7617 139.508 71.5705 140.99 69.2958 142.243C68.8367 142.347 68.9202 143.036 68.3776 142.849C67.8976 142.828 67.522 143.475 67.1046 143.705C66.9585 143.893 66.8124 143.997 66.6037 143.872C65.2681 143.35 64.4751 145.312 63.3273 145.521C62.4926 145.709 62.1378 146.315 61.5326 146.753C60.6979 147.046 60.6978 147.046 59.9048 147.881C57.651 148.82 55.9606 150.867 53.6442 151.869C52.9137 152.496 49.1782 155.335 46.5696 157.653C43.961 159.971 42.4793 161.788 46.3401 160.535C57.1084 154.396 68.6906 149.259 79.3337 142.765C79.9389 142.431 82.6727 141.095 85.1144 139.758C86.3456 139.09 87.4934 138.422 88.2447 137.858C89.0168 137.315 89.3299 136.73 89.0586 136.563C88.6203 135.749 86.8674 136.355 85.8865 136.563H85.9074Z" fill="#063312"/>
<path d="M212.227 106.871C212.143 106.119 212.164 104.699 211.893 102.841C211.538 100.983 211.183 98.6439 210.286 96.1591C208.679 91.1059 205.277 85.5516 201.312 81.1039C197.326 76.6771 193.09 73.0021 189.939 70.6634C186.767 68.3456 184.847 67.1136 185.16 67.8445C185.118 67.9071 185.097 68.0115 185.118 68.1159C184.492 67.6566 183.845 67.1971 183.156 66.8213C181.654 66.0905 178.336 64.775 173.995 65.1299C169.675 65.4223 164.708 67.2598 159.909 70.037C150.351 75.6331 140.229 83.8602 132.842 91.8785C125.391 99.855 120.466 107.289 119.026 109.878C118.317 111.173 118.463 111.298 119.819 109.878C121.176 108.479 123.743 105.535 128.104 101.003C134.636 93.7996 141.857 87.2012 149.787 81.5215C153.731 78.7026 157.926 76.0298 162.1 73.7747C166.274 71.6239 170.698 69.9117 174.871 69.9326C179.045 69.8699 182.656 71.8327 185.118 75.2781C187.622 78.6817 188.728 83.0667 188.874 87.6814C189.083 92.2961 188.311 97.2032 187.622 102.048C187.163 104.449 186.725 106.85 186.182 109.251C185.535 111.611 185.076 114.033 184.304 116.351C181.508 125.727 177.584 134.789 172.68 143.267C167.734 151.723 161.766 159.575 155.004 166.653C151.644 170.203 147.992 173.461 144.236 176.614C142.295 178.096 140.375 179.62 138.414 181.04C136.431 182.439 134.428 183.755 132.383 184.862C130.337 185.968 128.23 186.908 126.08 187.513C123.931 188.098 121.447 188.62 119.193 188.912C114.602 189.497 110.136 189.121 106.317 187.054C105.462 186.595 103.876 185.718 102.29 184.11C100.725 182.502 99.2637 180.059 98.4915 176.676C98.095 175.006 97.8237 173.126 97.6985 171.185C97.5733 169.263 97.5942 167.238 97.782 165.171C98.1576 161.015 99.0759 156.693 100.203 152.433C102.415 143.935 105.462 136.146 107.882 130.738C110.303 125.33 111.889 122.239 111.034 122.949C110.575 122.678 108.842 125.017 106.985 128.232C105.107 131.427 103.187 135.478 101.935 138.318C98.7837 144.436 95.716 152.642 94.0882 161.746C93.2952 166.298 93.1491 171.184 93.9004 175.862C94.276 178.221 94.8603 180.581 95.9247 182.794C96.9681 185.008 98.4498 187.012 100.203 188.599C102.937 191.147 106.15 192.253 109.114 193.11C109.969 193.778 110.971 194.529 112.14 195.386C117.587 198.81 123.367 202.151 130.045 203.968C133.363 204.886 136.932 205.346 140.563 205.012C141.46 204.97 142.379 204.803 143.276 204.615C144.215 204.469 145.029 204.197 145.822 203.926C147.429 203.383 149.098 202.924 150.601 202.214C156.841 199.624 162.517 196.033 167.693 191.919C172.868 187.785 177.605 183.17 181.883 178.18C190.398 168.199 197.514 157.006 202.627 144.916C205.152 138.965 207.489 132.91 209.368 126.624C211.225 120.36 212.623 113.699 212.227 106.85V106.871ZM192.881 76.531C193.048 76.7398 193.236 76.9695 193.403 77.1783C192.61 76.4266 191.775 75.6957 190.899 74.944C190.69 74.5681 190.481 74.2132 190.273 73.8373C191.254 74.7978 192.193 75.7166 192.881 76.531Z" fill="#063312"/>
</svg>
