<svg width="250" height="250" viewBox="0 0 250 250" fill="none" xmlns="http://www.w3.org/2000/svg">
<path d="M0 60C0 26.8629 26.8629 0 60 0H190C223.137 0 250 26.8629 250 60V190C250 223.137 223.137 250 190 250H0V60Z" fill="#DEECDC"/>
<path d="M227.711 190.451C227.284 189.495 223.97 190.654 222.12 191C217.83 191.122 212.055 193.136 207.013 193.706C205.732 193.746 204.756 194.682 203.658 194.397C199.287 194.052 194.509 195.333 189.71 196.106C188.836 196.106 188.47 196.9 187.697 196.554C186.884 196.412 185.786 197.022 184.891 197.144C184.505 197.307 184.18 197.388 183.916 197.164C182.045 196.208 179.178 198.08 177.043 197.876C175.478 197.775 174.38 198.344 172.997 198.588C171.35 198.588 171.35 198.588 169.317 199.178C164.742 199.3 160.167 200.724 155.41 200.684C154.535 200.867 151.913 201.213 148.68 201.62C145.467 202.067 141.645 202.413 138.412 202.82C137.619 202.901 136.867 202.983 136.175 203.064C137.456 202.332 138.717 201.518 139.835 200.541C143.088 197.856 145.305 194.214 146.118 191.407C146.545 189.942 146.687 188.783 146.667 188.05C147.521 187.623 148.354 187.155 149.147 186.565C150.937 185.243 152.36 183.534 153.377 181.682C153.6 181.276 154.291 180.177 154.861 178.651C155.45 177.146 155.877 175.172 155.898 173.26C155.938 171.348 155.552 169.517 155.023 168.316C154.779 167.747 154.535 167.34 154.332 167.075C154.413 166.974 154.515 166.913 154.596 166.811C154.861 166.526 155.613 165.753 156.365 164.593C157.138 163.454 157.87 161.908 158.277 160.301C158.683 158.694 158.663 157.066 158.419 155.947C158.175 154.828 157.768 154.259 157.484 154.523C156.548 154.767 156.569 156.639 156.162 157.554C155.389 158.531 154.861 159.609 154.21 160.687C153.56 161.745 152.787 162.783 151.791 163.393C151.262 163.637 151.343 164.471 150.652 164.37C148.517 164.634 146.972 165.773 144.898 166.445C144.512 166.445 144.471 167.136 144.064 166.791C143.658 166.607 143.251 167.136 142.844 167.218C142.682 167.36 142.539 167.401 142.397 167.197C141.482 166.18 140.283 167.726 139.266 167.36C138.554 167.116 138.026 167.523 137.355 167.604C136.582 167.421 136.602 167.442 135.565 167.747C133.41 167.299 130.991 168.011 128.673 167.381C127.758 167.462 123.264 167.523 119.93 167.808C118.263 167.93 116.88 168.174 116.392 168.357C115.925 168.52 116.229 169.252 118.059 169.964C121.028 170.514 123.915 171.042 126.802 171.571C129.71 172.121 132.739 172.69 135.931 172.955C139.103 173.219 142.478 173.138 145.772 172.222C148.476 171.47 151.14 170.127 153.295 168.133C153.295 168.255 153.295 168.357 153.295 168.479C153.295 169.232 153.336 170.046 153.275 170.636C152.787 171.978 152.523 173.423 152.075 174.888C151.648 176.352 151.018 177.817 150.062 178.855C149.554 179.322 149.696 180.197 148.964 180.34C147.826 180.889 146.85 181.459 145.894 182.049C144.918 182.639 143.841 183.249 142.641 183.635C142.173 183.635 142.112 184.368 141.624 184.022C141.157 183.88 140.649 184.388 140.14 184.49C139.937 184.632 139.754 184.693 139.612 184.49C138.575 183.513 136.989 184.978 135.748 184.571C134.874 184.307 134.203 184.673 133.37 184.734C132.434 184.531 132.434 184.531 131.153 184.795C128.51 184.266 125.603 184.856 122.858 184.002C122.309 184.002 120.723 183.88 118.771 183.635C116.819 183.391 114.522 183.005 112.549 182.639C110.577 182.293 108.93 181.947 108.28 182.069C107.629 182.171 107.934 182.761 109.988 184.063C116.819 186.911 124.078 189.006 131.56 189.84C135.281 190.288 139.286 190.41 143.353 189.332C144.024 189.149 144.695 188.905 145.345 188.66C145.162 189.067 144.959 189.556 144.715 190.064C144.044 191.57 143.048 193.217 142.173 194.235C139.998 196.269 137.273 198.507 133.98 200.094C130.726 201.701 126.924 202.535 123.488 202.596C121.76 202.555 120.194 203.247 118.771 202.759C115.864 202.169 112.732 201.742 109.418 201.294C107.771 201.07 106.063 200.887 104.376 200.684C102.688 200.44 100.98 200.196 99.2927 199.972C98.1135 199.646 97.3408 200.175 96.4259 199.565C95.3889 199.077 93.681 199.239 92.4204 198.955C91.8308 198.934 91.3632 198.853 91.1192 198.568C88.9843 196.961 84.4705 197.286 81.7053 196.127C79.6924 195.252 78.0455 195.171 76.114 194.723C73.9791 193.848 73.9791 193.848 71.0716 193.279C65.0939 190.878 58.6079 189.393 52.6709 186.239C51.4916 185.792 48.0351 184.388 43.9077 182.435C39.7802 180.482 34.9818 177.98 30.9967 175.681C26.9709 173.423 23.7991 171.388 22.5385 170.941C21.2982 170.473 22.0709 171.51 26.2186 175.111C39.9226 185.08 55.1718 193.299 71.4172 198.914C79.5298 201.701 87.8864 203.898 96.3446 205.343C100.574 206.075 104.823 206.604 109.093 206.99C113.342 207.377 117.734 207.56 122.146 207.133C123.122 207.031 125.806 206.909 129.201 206.014C130.36 205.729 131.621 205.282 132.902 204.753C133.532 204.875 134.366 205.017 135.464 205.16C141.401 205.383 147.379 205.383 153.356 205.343C159.334 205.221 165.352 205.037 171.35 204.529C177.348 204.081 183.346 203.369 189.304 202.372C195.261 201.416 201.157 200.135 206.952 198.487C207.603 198.304 209.372 197.958 211.588 197.307C213.824 196.717 216.528 195.883 219.09 194.987C221.632 194.052 224.051 193.095 225.678 192.2C227.305 191.346 228.199 190.695 227.752 190.512L227.711 190.451Z" fill="#063312"/>
<path d="M49.194 110.642C52.7725 112.595 56.5137 114.243 60.3158 115.769C64.1179 117.295 68.0014 118.658 71.9662 119.777C75.9106 120.936 79.9567 121.831 84.0232 122.442C88.0896 123.093 92.1967 123.418 96.2835 123.439C97.1781 123.479 101.184 123.744 104.843 123.561C108.503 123.439 111.797 122.869 111.309 122.279C111.228 121.323 108.849 121.221 107.588 121.018C104.782 119.797 100.655 120.102 97.3205 119.288C96.9545 119.166 96.6088 119.207 96.2632 119.248C97.0765 119.085 97.8898 118.882 98.6624 118.678C101.712 117.803 104.498 116.562 107.182 115.423C109.845 114.284 112.407 113.246 114.969 112.656C117.551 112.026 120.215 111.761 122.898 111.781C123.488 111.822 126.091 112.148 128.388 112.799C128.632 112.86 128.876 112.941 129.12 113.002C127.087 113.897 125.094 114.935 123.346 115.545C120.499 116.623 118.71 118.088 116.514 119.716C115.132 120.509 114.461 120.977 113.769 121.547C113.058 122.116 112.305 122.808 110.923 124.313C107.548 127.162 104.376 130.518 102.465 135.096C100.574 139.592 100.635 145.431 104.335 149.581C105.067 150.252 106.755 151.554 109.255 152.042C111.736 152.551 114.705 152.246 117.653 151.391C123.488 149.601 129.893 146.631 135.037 143.661C140.181 140.69 144.003 137.72 145.122 136.52C146.22 135.259 144.776 136.032 138.656 139.022C134.061 141.565 129.161 143.62 124.159 145.268C119.178 146.814 113.81 148.503 110.15 147.363C108.402 146.794 107.263 145.675 106.694 143.864C106.409 142.969 106.307 141.972 106.368 140.975C106.429 139.978 106.673 139.002 107.08 137.985C107.893 135.971 109.316 134.018 111.024 132.166C111.878 131.23 112.834 130.356 113.729 129.46C114.705 128.647 115.64 127.752 116.677 126.978C124.769 120.651 134.894 116.908 145.142 116.339C150.286 116.074 155.369 116.522 160.411 117.844C165.454 119.126 170.456 121.038 175.559 122.95C176.698 123.378 179.707 124.639 183.753 126.083C187.799 127.528 192.943 128.993 198.107 129.521C203.251 130.091 208.375 129.603 211.791 128.464C215.227 127.365 216.976 126.104 216.264 126.083C216.04 125.575 214.394 126.002 212.34 126.389C210.286 126.755 207.826 127.019 206.098 126.999C202.316 126.592 197.741 125.921 193.045 124.639C188.368 123.398 183.631 121.506 179.463 119.471C177.389 118.373 175.132 118.21 173.607 117.01C170.212 114.975 166.206 113.185 161.774 111.903C157.341 110.622 152.421 110.012 147.663 110.032C145.935 109.91 145.061 110.703 143.617 110.296C142.051 110.154 139.815 110.825 138.066 111.171C137.294 111.395 136.663 111.558 136.196 111.415C134.976 111.232 133.512 111.497 132.007 111.965C131.662 111.68 131.275 111.415 130.991 111.212C129.547 109.259 126.375 108.709 123.854 107.896C123.203 107.591 122.573 108.181 122.065 107.652C119.889 106.431 117.104 106.858 114.562 107.428C114.074 107.428 113.973 108.079 113.505 107.774C113.037 107.652 112.509 108.181 112.041 108.323C111.858 108.486 111.695 108.547 111.512 108.384C110.272 107.652 109.174 109.442 108.056 109.523C107.222 109.625 106.816 110.174 106.226 110.561C105.413 110.764 105.413 110.785 104.62 111.517C102.465 112.229 100.797 114.06 98.5811 114.569C98.2151 114.792 97.0968 115.403 95.6736 116.013C94.23 116.623 92.4407 117.173 90.8142 117.457C90.2855 117.559 89.7975 117.6 89.3502 117.661C88.1913 117.518 87.012 117.417 85.8531 117.254C85.3041 117.051 84.8975 117.641 84.4705 117.152C83.9825 116.806 83.1489 117.112 82.5593 116.99C82.2746 117.03 82.051 117.01 81.9493 116.786C81.014 115.504 78.7571 116.44 77.4559 115.749C76.5003 115.281 75.6666 115.504 74.7313 115.362C73.7147 114.955 73.7147 114.955 72.2711 114.935C69.4043 113.918 66.1308 113.877 63.203 112.595C62.6133 112.453 60.8851 112.066 58.7705 111.517C57.7336 111.232 56.595 110.927 55.3954 110.601C54.2974 110.276 53.1588 109.93 52.0202 109.605C49.9057 108.974 48.1571 108.404 47.4455 108.445C46.7542 108.465 47.0795 109.055 49.2144 110.663L49.194 110.642Z" fill="#063312"/>
<path d="M151.648 150.171C151.364 150.273 151.648 150.903 151.181 150.72C150.815 150.679 150.673 151.249 150.327 151.432C150.225 151.595 150.124 151.676 149.941 151.513C149.412 151.127 149.046 151.33 148.578 151.615C148.111 151.9 147.582 152.246 147.074 152.103C146.342 151.941 145.833 152.348 145.122 152.49C144.288 152.368 144.288 152.368 143.211 152.734C140.832 152.449 138.331 153.365 135.85 152.897C135.383 152.958 133.959 153.06 132.231 153.1C130.503 153.161 128.429 153.121 126.66 153.1C123.122 153.039 120.723 153.039 124.566 154.911C127.697 155.765 130.93 156.335 134.163 156.864C137.396 157.373 140.689 157.678 143.983 157.759C145.63 157.8 147.419 157.8 149.31 157.434C151.181 157.088 153.214 156.294 154.881 154.911C156.569 153.589 157.972 151.391 158.195 149.032C158.439 146.692 157.769 144.556 156.732 142.827C156.508 142.44 155.959 141.362 154.881 140.223C153.865 139.104 152.441 138.025 151.039 137.252C149.636 136.479 148.294 135.971 147.338 135.686C146.443 135.259 145.671 135.686 145.752 135.93C145.447 136.622 147.033 137.7 147.806 138.371C148.497 139.47 149.534 140.345 150.51 141.28C151.486 142.216 152.36 143.254 152.665 144.393C152.746 144.983 153.539 145.166 153.214 145.777C152.645 147.913 152.746 148.889 151.648 150.15V150.171Z" fill="#063312"/>
<path d="M77.5982 81.7932C77.8015 82.3018 78.5538 82.1593 78.5131 82.79C78.9605 84.743 80.6074 85.862 82.051 87.1233C82.2339 87.4488 82.7829 87.1233 82.7219 87.5912C82.7829 87.9778 83.3929 87.9981 83.6572 88.2423C83.8402 88.283 83.9622 88.3439 83.8809 88.5677C83.6979 89.7884 85.4464 89.6663 85.8328 90.4598C86.1377 91.0294 86.707 91.0701 87.195 91.3752C87.5813 91.9042 87.6017 91.9042 88.4353 92.189C89.6145 93.5724 91.6071 94.081 92.8474 95.5051C94.1486 96.1357 104.884 102.727 101.387 97.7226C97.8491 94.7523 94.4536 91.599 91.0988 88.3846C87.7237 85.1703 84.3282 81.9966 80.6887 79.1281C80.3024 78.7822 78.7165 77.1751 77.1509 75.812C76.3783 75.1203 75.6056 74.51 74.9957 74.1438C74.406 73.7572 73.8977 73.6963 73.7961 74.0014C73.1861 74.6728 73.9994 75.7917 74.345 76.4834C74.6094 78.5381 76.5612 80.0029 77.5982 81.7932Z" fill="#063312"/>
<path d="M100.33 63.5852C100.33 64.0938 101.021 64.2362 100.736 64.7652C100.35 66.6165 101.326 68.1423 102.099 69.7291C102.119 70.075 102.749 69.9529 102.505 70.3598C102.404 70.726 102.932 70.9498 103.075 71.2346C103.217 71.3363 103.298 71.438 103.136 71.5805C102.465 72.5977 104.091 73.0655 104.091 73.8996C104.111 74.51 104.62 74.7338 104.925 75.1407C105.047 75.7306 105.067 75.7306 105.677 76.2799C106.145 77.8871 107.751 79.006 108.259 80.6335C109.195 81.6101 116.067 90.948 115.01 85.4144C111.146 77.8871 108.28 69.7291 104.132 62.2832C103.928 61.856 103.156 59.9233 102.322 58.2144C101.895 57.3599 101.489 56.5461 101.082 56.0375C100.614 55.5493 100.248 55.3052 100.025 55.5289C99.2317 55.8951 99.557 57.1158 99.557 57.8482C98.9674 59.7199 100.106 61.6525 100.289 63.5445L100.33 63.5852Z" fill="#063312"/>
<path d="M133.715 64.5008C133.451 65.1925 133.797 65.7011 133.878 66.3318C133.715 67.0642 133.715 67.0642 134.041 68C133.715 70.0344 134.651 72.1299 134.346 74.2457C134.529 75.0391 135.118 78.9655 135.85 81.8543C136.602 84.7432 137.395 86.5945 138.29 83.2581C138.331 72.8216 139.551 62.2223 139.246 51.7247C139.246 50.5651 140.1 41.512 138.778 42.0206C137.822 41.9799 137.497 43.5057 137.172 44.3195C135.748 46.0691 135.87 48.8155 135.139 51.0127C134.874 51.562 135.464 52.1113 134.956 52.5385C133.715 54.3695 133.898 56.6073 133.837 58.7638C133.695 59.1503 134.325 59.3741 133.898 59.6996C133.634 60.0455 134 60.5744 134 60.9813C134.102 61.1644 134.122 61.3272 133.898 61.4085C132.8 62.1409 134.061 63.565 133.675 64.4805L133.715 64.5008Z" fill="#063312"/>
<path d="M163.563 82.9124C168.382 74.1441 174.969 66.3523 180.764 58.1943C181.13 57.7671 182.716 55.9362 184.2 54.2273C185.644 52.5184 186.843 50.8502 186.172 50.5857C185.461 49.9347 184.261 50.8502 183.509 51.2367C181.293 51.6029 179.727 53.7797 177.816 55.041C177.267 55.3055 177.429 56.0989 176.758 56.0989C174.664 56.7499 173.485 58.6216 172.204 60.3305C171.858 60.5543 172.265 61.1239 171.736 61.1035C171.309 61.2256 171.33 61.8766 171.106 62.2021C171.086 62.4056 171.004 62.548 170.781 62.487C169.419 62.4259 169.724 64.3383 168.87 64.8469C168.26 65.2538 168.28 65.8844 168.016 66.4337C167.487 66.922 167.487 66.9423 167.263 67.8985C165.881 69.3836 165.616 71.6622 164.274 73.2287C164.03 74.0017 162.587 77.6026 161.936 80.4304C161.265 83.2786 161.204 85.2317 163.563 82.8921V82.9124Z" fill="#063312"/>
<path d="M183.55 101.18C189.426 93.3073 196.379 86.0444 202.032 77.9272C202.377 77.4999 203.984 75.6893 205.326 73.9397C205.997 73.0649 206.627 72.2308 206.972 71.5391C207.277 70.827 207.298 70.2981 206.993 70.2167C206.322 69.6674 205.204 70.6236 204.492 71.0305C202.337 71.4577 200.913 73.6142 199.063 74.8552C198.535 75.1197 198.718 75.8927 198.067 75.8927C196.013 76.5031 194.915 78.3137 193.655 79.9208C193.33 80.1243 193.716 80.694 193.187 80.6736C192.781 80.7753 192.781 81.406 192.557 81.7111C192.537 81.9146 192.455 82.0366 192.232 81.9756C190.91 81.8535 191.154 83.7049 190.32 84.1728C189.731 84.5187 189.71 85.1493 189.426 85.6579C188.877 86.1055 188.897 86.1055 188.612 87.021C187.189 88.3433 186.783 90.5202 185.359 91.9239C184.79 93.3683 178.446 105.229 183.57 101.201L183.55 101.18Z" fill="#063312"/>
<path d="M162.648 147.973C163.014 149.153 163.319 150.069 163.807 151.635C163.909 152.286 164.702 152.449 164.519 153.12C164.62 155.44 166.288 157.352 167.894 159.102C168.097 159.509 168.707 159.244 168.646 159.793C168.728 160.241 169.378 160.424 169.704 160.709C169.927 160.79 170.049 160.872 169.988 161.095C169.866 162.438 171.838 162.581 172.408 163.455C172.855 164.106 173.485 164.228 174.095 164.554C174.644 165.123 174.665 165.123 175.681 165.449C177.348 166.954 179.809 167.239 181.7 168.419C182.127 168.48 183.367 168.826 184.871 169.111C185.603 169.213 186.417 169.314 187.291 169.436C188.125 169.477 188.958 169.518 189.71 169.518C191.235 169.477 192.455 169.233 192.903 168.928C193.35 168.602 193.004 168.134 191.5 167.504C189.039 167.056 186.62 166.324 184.343 165.205C182.066 164.127 179.87 162.804 177.877 161.238C175.844 159.712 173.994 157.962 172.306 156.091C170.578 154.239 169.053 152.225 167.65 150.11C167.345 149.642 166.247 147.424 165.434 145.329C164.986 144.291 164.62 143.294 164.275 142.603C163.888 141.931 163.482 141.565 163.238 141.748C162.384 141.952 162.587 143.518 162.547 144.413C162.181 145.512 162.364 146.712 162.669 147.973H162.648Z" fill="#063312"/>
</svg>
