<svg width="250" height="250" viewBox="0 0 250 250" fill="none" xmlns="http://www.w3.org/2000/svg">
<path d="M0 60C0 26.8629 26.8629 0 60 0H190C223.137 0 250 26.8629 250 60V190C250 223.137 223.137 250 190 250H0V60Z" fill="#DEECDC"/>
<path d="M59.8731 157.616C73.1874 158.913 86.6243 160.386 100.061 161.841C113.516 163.26 126.97 164.68 140.389 165.697C143.35 165.995 166.51 168.624 165.196 167.362C165.283 166.538 161.377 165.925 159.327 165.469C154.86 163.821 147.852 163.296 142.194 162.139C140.775 161.77 139.391 162.191 138.305 161.63C133.627 160.088 127.933 159.737 122.38 159.211C121.399 159.001 120.803 159.527 120.015 159.071C119.139 158.756 117.773 158.966 116.721 158.878C116.248 158.913 115.863 158.913 115.635 158.685C113.743 157.511 110.117 158.352 107.769 157.791C106.018 157.406 104.686 157.599 103.074 157.528C101.217 157.213 101.217 157.23 98.8174 157.301C93.6318 156.529 88.2535 156.932 82.8753 156.196C80.8431 156.196 70.8224 155.863 63.447 155.846C59.7681 155.846 56.7373 155.881 55.7037 156.144C54.6701 156.407 55.6336 156.81 59.8907 157.651L59.8731 157.616Z" fill="#063312"/>
<path d="M114.549 171.026C112.289 169.553 108.593 169.29 105.667 168.344C104.931 168.028 104.178 168.484 103.635 167.976C101.252 166.609 98.2392 166.468 95.3311 166.153C94.8231 165.978 94.4727 166.521 94.0873 166.1C93.6493 165.82 92.896 166.1 92.353 166.03C92.0902 166.083 91.8975 166.083 91.7923 165.872C90.8638 164.768 88.8842 165.75 87.6754 165.259C86.782 164.926 86.0462 165.171 85.2053 165.171C84.2417 164.926 84.2417 164.943 82.9629 165.101C80.265 164.523 77.3569 165.119 74.5539 164.575C73.4677 164.628 68.1595 164.68 64.2529 164.926C62.2908 165.066 60.679 165.206 60.1184 165.504C59.5578 165.802 60.0308 166.17 62.2382 166.854C69.2282 167.66 76.2707 168.642 83.3308 169.589C90.3908 170.518 97.4509 171.447 104.511 171.937C106.07 172.113 118.211 173.901 117.597 172.691C117.703 171.885 115.67 171.412 114.602 171.026H114.549Z" fill="#063312"/>
<path d="M98.1866 176.408C96.645 175.023 94.0347 174.883 92.0025 174.041C91.4945 173.761 90.9514 174.252 90.5835 173.744C88.9542 172.464 86.8345 172.429 84.7848 172.219C84.4344 172.061 84.1541 172.622 83.9088 172.219C83.611 171.956 83.0679 172.254 82.6825 172.219C82.4898 172.289 82.3497 172.289 82.2796 172.096C81.6665 171.027 80.2299 172.078 79.389 171.64C78.7583 171.342 78.2327 171.622 77.6371 171.64C76.9714 171.43 76.9539 171.447 76.0429 171.64C74.1509 171.167 72.0837 171.85 70.1216 171.43C69.3508 171.535 65.6017 171.763 62.8163 172.148C61.4323 172.359 60.276 172.569 59.8731 172.867C59.4527 173.183 59.7855 173.533 61.3271 174.129C66.2499 174.673 71.1902 175.409 76.1481 176.092C81.1059 176.758 86.0637 177.425 91.039 177.688C92.1252 177.81 100.657 179.142 100.254 177.968C100.359 177.162 98.9399 176.758 98.2042 176.425L98.1866 176.408Z" fill="#063312"/>
<path d="M86.0812 54.8086C88.6915 50.8295 85.4855 45.0274 80.0022 46.3596C76.4459 47.2185 74.0633 51.8462 76.4108 55.1417C79.1087 58.9454 84.2067 57.9638 86.0987 54.8261L86.0812 54.8086Z" fill="#063312"/>
<path d="M200.268 73.2143C199.883 70.4623 198.744 67.9907 197.553 65.747C195.118 61.242 192.192 57.5961 189.792 54.7739C188.356 53.0911 187.112 51.7764 186.096 50.7422C186.043 50.6721 185.991 50.602 185.938 50.5319C184.887 49.2347 183.468 48.0603 181.891 47.2189C178.703 45.5361 175.199 44.9577 171.818 44.5896C165.126 44.0286 158.434 43.7131 152.915 43.0646C144.821 42.1706 138.795 42.0829 131.455 41.6622C125.755 41.1597 119.268 40.7624 111.991 40.4703C106.017 39.9619 100.026 39.5237 93.9996 39.0855C90.9864 38.8751 87.9732 38.6472 84.9424 38.4369L80.4051 38.1038C79.7043 38.0513 78.7583 37.9636 77.8999 38.0162C77.024 38.0688 76.148 38.1915 75.2896 38.4193C73.5727 38.8751 71.9085 39.699 70.542 41.0838C69.158 42.5212 68.5273 44.2915 68.1069 45.8692C67.7039 47.4993 67.4587 48.9017 67.1258 50.4267L66.1973 54.9667C65.0411 61.0142 63.8673 67.0967 62.6936 73.1968C61.9403 77.7894 59.6979 91.3919 57.2103 108.027C54.7752 124.679 51.867 144.347 50.3254 161.087C50.0801 163.979 49.8699 166.819 50.0976 169.466C49.7647 180.001 53.5138 187.117 56.527 191.149C57.2453 192.657 58.2088 194.147 59.5578 195.426C61.0644 196.899 63.1841 197.67 65.1637 198.248C67.1784 198.827 69.2456 199.3 71.3128 199.791C79.6342 201.842 88.4637 203.384 96.3822 204.874C100.359 205.698 104.125 205.646 107.261 206.522C113.866 207.942 121.154 209.046 128.739 209.975C132.523 210.431 136.395 210.852 140.284 211.255C144.191 211.64 148.01 212.096 152.057 212.394C154.947 212.692 156.524 212.096 158.959 212.377C161.64 212.499 165.669 211.57 168.682 210.203C170.013 209.555 171.03 208.906 171.818 208.643C173.289 207.959 174.866 206.802 176.233 205.225C177.634 203.665 178.808 201.596 179.544 199.44C180.297 197.284 180.612 195.041 180.945 193.182C181.278 191.254 181.646 189.414 182.049 187.766C183.24 182.946 183.626 179.264 184.396 174.83C185.167 171.417 185.868 167.503 186.499 163.085C189.547 148.747 191.421 133.935 194.4 119.053C194.82 116.248 196.151 107.922 197.623 97.7549C198.341 92.6539 199.13 87.1148 199.76 81.5406C199.918 80.1383 200.093 78.7535 200.181 77.3512L200.338 75.2652C200.356 74.5641 200.286 73.8629 200.268 73.1793V73.2143ZM70.9975 51.496L71.6282 48.6388C71.8384 47.7273 72.0311 46.8508 72.2939 46.1146C72.5567 45.3608 72.872 44.7649 73.2399 44.3091C73.5728 43.8884 74.0983 43.4853 74.7115 43.1697C75.9378 42.5212 77.4794 42.2582 78.9861 42.3634L84.7147 42.8893L96.2946 43.9059L119.472 45.7289C134.923 46.8859 150.34 47.9726 165.721 49.4275C169.611 49.7956 173.342 50.0761 176.653 51.0578C178.282 51.5486 179.754 52.2147 180.875 53.1437C181.453 53.5995 181.926 54.1253 182.364 54.7388C182.592 55.0368 182.785 55.3523 182.96 55.6854C183.118 56.036 183.188 56.1236 183.293 56.5092C183.678 57.8239 183.801 59.682 183.783 61.4524C183.783 63.2579 183.626 65.1159 183.415 66.9565C183.223 68.7444 182.942 70.5149 182.627 72.2853C181.383 71.7594 178.685 71.3212 177.074 70.9882C172.326 69.3405 164.898 68.8146 158.907 67.6577C157.4 67.2896 155.946 67.7103 154.772 67.1493C149.814 65.6068 143.77 65.2562 137.884 64.7303C136.833 64.52 136.22 65.0459 135.379 64.5901C134.45 64.2746 132.996 64.4849 131.893 64.3973C131.385 64.4323 130.982 64.4324 130.736 64.2045C128.722 63.03 124.885 63.8714 122.398 63.3105C120.541 62.9248 119.139 63.1177 117.422 63.0476C115.46 62.732 115.46 62.7496 112.92 62.8197C107.419 62.0484 101.725 62.4516 96.0318 61.7153C93.877 61.7153 83.2606 61.3823 75.4648 61.3647C72.8019 61.3647 70.4894 61.3823 68.9303 61.4875C69.596 58.157 70.2617 54.8089 71.015 51.531L70.9975 51.496ZM52.1473 165.136C52.4451 161.42 52.9356 157.634 53.4437 153.848C54.4773 146.275 55.6336 138.685 56.8073 131.077C59.1899 115.897 61.7301 100.682 64.428 85.5021C65.7769 77.9121 67.1784 70.322 68.6675 62.7495C68.6675 62.6619 68.7025 62.5918 68.72 62.5042C69.4733 62.6795 70.4369 62.8722 71.7333 63.1176C85.8534 64.4148 100.079 65.8872 114.339 67.3421C128.599 68.762 142.859 70.1818 157.067 71.1985C159.765 71.4439 178.212 73.4247 182.504 73.1793C182.189 74.792 181.856 76.4221 181.471 78.0172C179.806 85.8702 178.72 93.4077 177.476 101.103C176.338 108.746 175.181 116.406 174.043 124.048C171.783 139.316 169.646 154.619 167.246 169.764C167.105 170.605 166.913 171.797 166.632 173.27C166.37 174.742 166.019 176.583 165.546 178.511C165.073 180.456 164.425 182.542 163.356 184.541C162.288 186.469 160.676 188.572 158.872 189.309C157.943 189.729 156.734 189.869 155.263 189.94C153.844 189.992 152.074 190.027 150.463 190.115C147.572 190.238 144.138 189.992 140.81 189.817C134.082 189.361 127.075 188.695 120.225 188.029C106.543 186.662 93.4916 185.154 84.2942 184.032C79.7394 183.471 76.113 183.033 73.783 182.753C71.5581 182.455 70.6121 182.402 71.3654 182.7V182.735C71.2252 182.7 71.1026 182.683 70.9624 182.648C70.7697 182.525 70.0865 182.297 68.7901 181.946C67.3361 181.543 65.1112 181 62.168 180.176C60.714 179.755 59.0672 179.212 57.438 178.458C56.6496 178.073 55.8613 177.617 55.2481 177.091C54.705 176.635 54.0744 175.811 53.5839 174.935C51.9721 172.288 51.867 168.817 52.1298 165.136H52.1473Z" fill="#063312"/>
<path d="M89.7601 115.073C91.512 118.964 94.1924 123.434 97.2406 127.326C98.7647 129.271 100.359 131.077 101.883 132.654C102.654 133.443 103.407 134.179 104.126 134.846C104.493 135.179 104.844 135.494 105.177 135.792C105.545 136.108 105.755 136.336 106.263 136.721C107.945 137.948 109.434 138.386 110.607 138.492C111.659 138.544 112.254 138.316 112.044 138.194C112.114 138.194 112.184 138.194 112.254 138.176C112.394 138.211 112.622 138.229 112.955 138.229C114.059 138.229 116.301 138.141 119.822 137.212C126.514 135.003 132.611 131.164 137.604 126.221C140.109 123.75 142.334 120.998 144.243 118.035C146.118 115.073 147.852 111.97 148.868 108.324C149.359 106.519 149.657 104.555 149.534 102.557C149.429 100.559 148.868 98.4905 147.887 96.7201C145.978 93.1442 142.544 90.3746 138.48 89.4806C134.468 88.5691 130.439 89.428 127.022 90.9881C125.306 91.7945 123.729 92.7585 122.257 93.8103C121.522 94.3361 120.821 94.8971 120.12 95.458C119.77 95.7385 119.437 96.0364 119.104 96.3169L118.263 97.0882C118.263 97.0882 118.193 97.1232 118.158 97.1057C118.14 97.1057 118.123 97.0882 118.105 97.0707L117.23 95.9663C115.898 94.3186 114.409 92.741 112.727 91.3387C109.381 88.5165 105.019 86.3429 100.166 86.3605C97.7837 86.3605 95.2785 87.0266 93.1938 88.2536C91.1091 89.4806 89.3397 91.1984 88.0958 93.2493C86.8345 95.3002 86.1688 97.7368 86.0462 100.033C85.906 102.347 86.2564 104.573 86.7819 106.641C87.0622 107.904 88.0083 111.164 89.7777 115.02L89.7601 115.073ZM137.726 98.5431C139.058 98.2101 140.162 97.1057 141.668 97.3686C142.176 97.2635 143 96.8778 143.543 97.579C143.805 97.7893 143.63 97.9822 143.332 98.3678C143.017 98.7184 142.544 99.1566 142.001 99.5773C140.932 100.401 139.689 101.225 139.408 101.418C134.801 105.449 129.212 108.166 124.097 111.374C122.1 111.795 122.678 110.638 123.782 109.253C124.885 107.886 126.479 106.238 126.795 105.87C127.916 105.414 128.494 104.1 129.563 103.662C129.861 103.136 129.843 103.136 130.263 103.013C130.509 102.75 130.596 102.347 131.034 102.294C131.63 102.242 131.7 100.945 132.541 101.4C132.681 101.506 132.734 101.453 132.786 101.33C132.979 101.19 133.031 100.769 133.312 100.822C133.645 100.997 133.452 100.506 133.697 100.454C134.696 99.7351 135.589 98.8411 136.991 98.9813C137.429 99.1566 137.376 98.5782 137.744 98.5431H137.726ZM123.361 99.8227C124.255 99.4896 124.605 98.3328 125.481 98.0523C125.691 97.5965 125.674 97.5965 126.006 97.5264C126.199 97.316 126.234 96.948 126.602 96.948C127.093 96.983 127.075 95.7735 127.811 96.3169C127.933 96.4396 127.986 96.387 128.004 96.2819C128.161 96.1767 128.196 95.8086 128.424 95.8787C128.722 96.089 128.529 95.5982 128.722 95.5982C129.528 95.0899 130.246 94.4063 131.437 94.7568C131.805 94.9847 131.753 94.4589 132.068 94.4939C133.172 94.4238 134.1 93.6174 135.326 94.1433C135.747 94.1433 136.448 93.9856 136.868 94.6867C137.253 95.1074 136.483 95.6158 135.607 96.1767C134.731 96.7201 133.732 97.246 133.522 97.3862C129.878 100.243 125.551 102.101 121.802 104.748C118.684 105.309 122.958 100.471 123.361 99.8227Z" fill="#063312"/>
</svg>
