<svg width="250" height="250" viewBox="0 0 250 250" fill="none" xmlns="http://www.w3.org/2000/svg">
<path d="M0 60C0 26.8629 26.8629 0 60 0H190C223.137 0 250 26.8629 250 60V190C250 223.137 223.137 250 190 250H0V60Z" fill="#DEECDC"/>
<path d="M204.549 154.836C205.616 150.32 203.728 142.498 203.913 137.098C204.016 133.116 203.441 130.2 203.154 126.608C203.154 125.294 203.154 124.411 203.113 123.631C203.195 123.344 203.174 123.179 203.092 123.097C203.092 122.81 203.051 122.543 203.031 122.255C202.99 121.66 202.908 121.024 202.805 120.223C202.682 119.381 202.62 118.498 202.333 116.877C202.251 116.158 202.107 115.378 201.759 114.516C201.43 113.674 200.835 112.771 200.015 112.093C199.132 111.354 197.922 110.923 196.937 110.841C195.911 110.718 195.049 110.841 194.228 110.985C193.9 111.046 193.592 111.128 193.305 111.21C191.931 110.451 190.351 109.691 189.222 109.096C184.072 105.462 175.249 102.301 168.356 98.8515C166.653 97.9071 164.765 97.9071 163.534 96.8396C157.891 93.329 150.567 91.276 143.242 89.3257C141.949 88.833 141.067 89.3667 139.979 88.6482C138.625 88.0528 136.471 88.3403 134.932 88.4429C134.234 88.5866 133.68 88.6687 133.291 88.4634C131.752 88.0118 129.761 88.4634 127.874 89.0793C125.986 89.6952 124.16 90.4959 122.539 90.7217C120.159 91.1118 118.579 91.974 116.548 92.7131C114.106 93.3085 114.086 93.2879 111.172 94.6634C104.401 96.5727 98.0614 100.042 91.27 102.485C90.0595 103.101 86.4278 104.846 82.0575 107.104C77.6872 109.363 72.6398 112.175 68.4337 114.7C64.248 117.226 60.9241 119.443 59.9188 120.387C59.7751 120.49 59.6315 120.551 59.4879 120.675C58.975 121.126 58.5851 121.804 58.4005 122.604C58.1953 123.405 58.1953 124.432 58.1748 124.945C58.1132 127.511 58.0106 130.734 57.908 134.265C57.7644 140.034 57.6208 146.686 57.4771 152.906C56.9847 159.332 56.5128 165.758 56.0204 172.163V173.108C59.9393 174.709 63.8787 176.31 67.8181 177.912C75.5123 182.51 87.5563 187.171 97.1381 191.851C98.3692 192.508 99.6413 192.898 100.852 193.33C101.447 193.535 102.021 193.74 102.575 193.986C102.842 194.11 103.109 194.233 103.355 194.377C103.683 194.561 104.135 194.787 104.504 195.013C106.186 195.875 108.054 196.799 110.064 197.743L110.824 198.092C110.926 198.113 111.131 198.277 111.152 198.195V197.826L111.275 196.327C111.275 196.265 111.275 196.204 111.275 196.142C114.147 195.998 119.544 194.992 122.867 194.479C133.27 193.699 148.576 189.963 161.277 187.848C164.498 187.396 167.248 186.062 169.874 186.041C175.291 185.508 181.015 184.502 187.088 183.188C190.166 182.469 193.428 181.525 196.609 179.677C198.168 178.753 199.707 177.583 200.999 176.085C202.292 174.606 203.277 172.82 203.892 171.014C204.877 168.406 204.221 166.928 204.836 164.957C205.267 162.699 204.631 159.62 204.508 157.3C204.344 156.253 204.282 155.39 204.508 154.816L204.549 154.836ZM89.8133 108.028C98.0614 104.723 106.453 101.685 114.968 99.0568C119.215 97.7634 123.504 96.5317 127.792 95.4641C132.101 94.3966 135.958 93.637 139.631 94.6634C143.775 95.7105 148.084 97.127 152.311 98.3998C156.599 99.7138 160.743 101.028 164.929 102.608C167.473 103.573 181.815 109.363 190.125 112.216C187.622 113.058 185.078 113.92 182.533 114.762C177.445 116.466 172.315 118.17 167.042 119.607C162.754 121.126 141.539 128.312 126.048 133.916C118.415 136.708 112.178 138.946 110.023 139.932C109.551 139.234 109.038 138.618 108.546 138.084C106.987 136.462 105.366 135.661 103.909 135.046C102.432 134.43 101.057 134.06 99.6003 133.526C96.3174 132.007 96.2969 132.028 91.9061 130.693C87.2896 128.661 82.5089 126.977 77.6667 125.253C75.2456 124.37 72.804 123.508 70.4034 122.625C69.1928 122.173 67.9823 121.701 66.7717 121.249L64.9662 120.531C64.6379 120.408 64.3711 120.285 63.8992 120.12C63.612 120.038 63.3247 119.997 63.058 119.936C63.7761 119.669 64.5968 119.34 65.5817 118.95C73.4605 114.988 81.5651 111.354 89.8133 108.028ZM196.198 172.061C194.187 174.339 190.74 175.797 187.068 176.824C183.354 177.83 179.23 178.712 175.311 179.677L163.431 182.531C157.953 183.804 120.857 191.872 111.398 194.808C111.439 194.253 111.46 193.699 111.501 193.145C111.583 191.338 111.665 189.552 111.747 187.766C111.788 186.473 111.849 185.179 111.89 183.865C112.034 178.63 112.034 173.19 112.075 167.832C112.239 165.902 111.501 164.855 112.014 163.274C112.321 161.529 111.89 158.963 111.911 156.93C111.808 156.027 111.788 155.288 112.034 154.795C112.362 153.83 112.506 152.701 112.568 151.449C112.609 150.196 112.588 148.883 112.465 147.322C112.321 145.783 112.055 144.058 111.377 142.375C111.131 141.697 110.782 141.061 110.393 140.445C111.87 140.281 114.824 139.726 119.626 138.679C132.86 134.922 146.073 130.816 159.369 126.916C166.016 124.945 172.664 122.974 179.333 121.003L189.325 118.067L194.249 116.63C194.947 116.446 195.603 116.322 196.014 116.343C196.485 116.363 196.465 116.425 196.485 116.425C196.485 116.404 196.65 116.569 196.773 117.246C196.875 117.862 196.896 118.806 196.937 119.874L197.142 126.012V126.423C195.46 127.86 193.798 129.749 192.095 131.165C191.397 131.658 191.356 132.623 190.576 132.828C187.971 134.245 186.124 136.975 184.195 139.521C183.744 139.891 184.052 140.527 183.457 140.65C182.944 140.917 182.78 141.759 182.431 142.231C182.349 142.498 182.226 142.703 181.979 142.683C180.461 142.97 180.276 145.351 179.168 146.255C178.389 146.932 178.225 147.753 177.753 148.554C177.014 149.334 177.014 149.355 176.501 150.669C174.552 152.947 173.629 156.027 171.7 158.449C171.228 159.517 168.643 164.67 167.124 168.653C165.586 172.636 165.032 175.366 168.191 171.589C172.028 165.081 176.44 158.819 180.912 152.64C185.406 146.46 190.104 140.424 194.639 134.327C194.988 133.916 196.055 132.644 197.347 131.124L197.634 138.289C197.983 146.44 198.353 154.59 198.701 162.72C198.763 166.559 198.209 169.843 196.178 172.04L196.198 172.061Z" fill="#063312"/>
<path d="M108.587 122.647C107.725 123.18 107.746 123.119 106.966 124.289C106.7 124.494 106.248 124.966 105.981 125.418C105.674 125.87 105.469 126.383 105.386 126.917C105.202 127.964 105.53 129.072 106.187 129.873C106.823 130.674 107.89 131.269 108.526 131.515C109.244 131.803 109.962 132.029 110.66 132.254C111.193 132.275 112.711 132.419 114.537 132.296C116.363 132.193 118.518 131.782 120.159 131.105C121.821 130.427 122.929 129.524 123.155 128.97C123.381 128.395 122.827 128.292 121.103 128.436C118.538 129.237 115.543 129.196 112.67 128.662C112.321 128.6 111.932 128.518 111.603 128.436C111.296 128.374 111.008 128.272 110.742 128.169C110.475 128.066 110.229 127.943 110.044 127.841C109.9 127.758 109.962 127.8 109.921 127.758C109.9 127.717 109.88 127.676 109.921 127.635L109.962 127.594C110.065 127.492 110.311 127.245 110.598 127.019C112.773 125.172 115.399 123.796 118.169 122.913C118.867 122.688 119.564 122.503 120.282 122.339C120.652 122.256 121.021 122.174 121.185 122.154C121.431 122.133 121.739 122.113 122.067 122.113C123.34 122.133 124.837 122.4 125.843 122.831C125.904 122.872 126.048 122.934 126.15 123.016C126.253 123.078 126.253 123.098 126.294 123.139C126.315 123.221 126.356 123.242 126.335 123.386C126.335 123.611 126.294 124.002 126.212 124.371C126.007 125.151 125.596 126.013 125.104 126.67C124.16 128.005 123.011 128.58 123.381 128.949C123.668 129.75 125.371 129.134 126.212 128.518C127.279 128.19 128.264 127.245 128.9 125.952C129.208 125.315 129.474 124.597 129.577 123.817C129.7 123.057 129.618 121.969 129.146 121.168C128.9 120.778 128.592 120.409 128.264 120.121C127.587 119.403 126.704 119.629 126.274 118.992C125.186 118.068 123.811 117.555 122.252 117.391C121.862 117.35 121.452 117.329 121.001 117.35C120.57 117.35 119.995 117.453 119.708 117.514C118.99 117.658 118.292 117.843 117.574 118.027C117.041 118.048 116.938 118.684 116.405 118.458C115.892 118.397 115.338 118.951 114.825 119.156C114.619 119.341 114.455 119.423 114.25 119.3C112.875 118.807 111.706 120.696 110.495 121.086C109.572 121.394 109.182 122.072 108.567 122.647H108.587Z" fill="#063312"/>
<path d="M140.308 112.792C140.041 113.1 139.795 113.51 139.59 114.311C139.159 115.132 139.118 116.158 139.487 117.021C139.856 117.883 140.554 118.602 141.416 119.033C142.257 119.464 143.303 119.628 144.165 119.669C144.842 119.669 145.437 119.71 146.073 119.792C147.038 119.731 151.757 118.951 154.691 117.247C156.168 116.446 157.235 115.563 157.461 115.009C157.686 114.454 157.153 114.29 155.388 114.516C152.844 115.46 150.074 115.892 147.304 115.892C143.385 115.768 144.575 115.666 144.452 115.522H144.493L145.027 115.235C145.663 114.927 146.299 114.619 146.956 114.331C148.248 113.777 149.582 113.284 150.936 112.874C152.29 112.443 153.665 112.114 155.06 111.806C156.455 111.539 157.912 111.252 158.856 111.293C158.958 111.293 159.164 111.334 159.369 111.416C159.553 111.478 159.738 111.58 159.923 111.724C160.19 111.97 160.21 112.114 160.107 112.319C160.107 112.34 160.087 112.36 160.066 112.381C160.005 112.463 159.923 112.545 159.861 112.627C159.697 112.792 159.533 112.956 159.348 113.12C158.999 113.449 158.63 113.715 158.343 113.962C157.748 114.434 157.399 114.762 157.645 114.968C157.933 115.768 159.574 115.235 160.456 114.824C161.051 114.742 161.626 114.516 162.221 114.085C162.816 113.613 163.431 112.853 163.411 111.929C163.39 111.047 162.959 110.082 162.323 109.384C161.749 108.706 160.928 108.172 160.169 107.844C159.389 107.433 158.63 107.926 158.056 107.495C155.511 106.551 152.926 107.269 150.361 107.988C149.869 107.988 149.787 108.624 149.315 108.378C148.843 108.296 148.33 108.809 147.879 108.994C147.694 109.158 147.53 109.219 147.366 109.096C146.114 108.501 144.986 110.246 143.837 110.431C143.406 110.513 143.078 110.698 142.79 110.923C142.667 111.026 142.503 111.149 142.36 111.272C142.072 111.478 141.826 111.683 141.621 111.827C140.944 112.196 140.636 112.443 140.369 112.751L140.308 112.792Z" fill="#063312"/>
<path d="M89.9362 120.716C91.8854 121.865 93.6909 121.599 94.9836 121.557C95.4965 121.66 95.7222 121.044 96.1531 121.393C96.625 121.578 97.2405 121.167 97.7535 121.106C97.9792 120.983 98.1638 120.942 98.3074 121.106C99.4564 121.927 100.975 120.428 102.165 120.449C103.068 120.449 103.601 119.936 104.319 119.587C105.242 119.402 105.242 119.402 106.207 118.683C107.438 118.314 108.566 117.616 109.613 116.836C109.9 116.63 110.187 116.404 110.454 116.22C110.598 116.097 110.741 115.973 110.885 115.85C111.049 115.706 111.254 115.522 111.418 115.357C112.095 114.68 112.629 113.879 112.855 112.955C112.855 112.75 112.855 112.422 112.773 112.032C112.629 111.395 112.198 110.595 111.357 110.02C110.946 109.732 110.475 109.506 109.982 109.342C109.551 109.219 109.12 109.116 108.669 109.055C106.884 108.767 104.976 109.055 103.581 109.548C102.165 110.04 101.221 110.697 101.057 111.149C100.872 111.601 101.467 111.765 103.068 111.847C104.422 111.601 105.796 111.601 107.048 111.888C107.356 111.95 107.664 112.052 107.971 112.155C108.259 112.237 108.648 112.422 108.566 112.381C108.607 112.381 108.648 112.442 108.669 112.483C108.669 112.524 108.669 112.545 108.628 112.586C108.546 112.648 108.751 112.524 108.3 112.812C107.561 113.243 106.474 113.797 105.55 114.187C103.601 115.029 101.57 115.665 99.4975 116.117C98.4511 116.343 97.4047 116.487 96.3583 116.61C95.3529 116.712 94.1423 116.815 93.3216 116.795C92.9113 116.795 92.624 116.733 92.4188 116.671C92.2342 116.61 92.2136 116.589 92.1726 116.569C92.1316 116.528 92.07 116.466 92.07 116.404C92.07 116.322 92.0085 116.302 92.1931 115.994C92.2752 115.871 92.7471 115.337 93.4858 114.865C94.2654 114.352 95.4965 113.777 96.666 113.284C99.0666 112.278 101.406 111.559 100.954 111.087C100.77 110.287 98.964 110.533 97.9586 110.615C96.7686 110.389 95.3939 110.615 93.9782 111.087C92.6035 111.539 91.1262 112.237 89.8131 113.202C89.0744 113.674 89.0539 114.598 88.3768 115.255C87.8434 116.014 87.5971 117.102 87.8844 118.149C88.1511 119.176 88.9513 120.202 89.9157 120.777L89.9362 120.716Z" fill="#063312"/>
<path d="M121.636 107.043C121.554 107.782 122.375 108.583 122.908 109.096C123.216 109.281 123.421 109.445 123.462 109.712C123.585 110.122 124.016 110.512 124.386 110.718C124.776 110.923 125.227 111.026 125.637 111.067C126.499 111.149 127.217 110.984 127.751 111.19C128.53 111.457 129.146 111.128 129.843 111.046C130.685 111.149 130.705 111.149 131.711 110.738C134.091 110.738 136.142 109.301 138.358 108.624C138.707 108.357 139.897 107.741 141.067 106.427C141.641 105.79 142.154 104.887 142.195 103.922C142.236 102.978 141.867 102.157 141.354 101.623C140.287 100.555 139.076 100.637 138.687 100.904C138.235 101.212 138.584 101.664 138.933 102.383C139.384 102.711 139.446 103.06 139.405 103.265C139.405 103.45 138.707 104.148 137.702 104.6C135.527 105.626 133.085 106.222 130.664 106.365C129.495 106.447 128.12 106.406 127.156 106.263C126.13 106.016 126.499 106.057 126.355 105.975C126.355 105.914 126.294 105.975 126.417 105.79C126.602 105.503 126.991 105.092 127.402 104.702C128.223 103.922 129.166 103.265 130.213 102.67C130.459 102.547 131.116 102.28 131.998 101.992C132.449 101.849 132.942 101.705 133.475 101.561C133.742 101.5 134.009 101.438 134.296 101.356C134.439 101.315 134.665 101.294 134.891 101.274C135.855 101.192 136.943 101.212 137.62 101.212C138.317 101.212 138.605 101.13 138.625 100.843C138.994 100.042 137.497 99.4878 136.655 99.2209C135.794 98.5845 134.501 98.256 133.126 98.4613C131.834 98.5845 130.521 98.913 129.248 99.1593C128.571 99.2209 128.284 99.96 127.648 99.8163C126.458 99.8574 125.288 100.391 124.263 101.192C123.75 101.582 123.257 102.034 122.765 102.67C122.313 103.204 121.657 104.333 121.513 105.359C121.287 106.139 121.903 106.468 121.636 107.125V107.043Z" fill="#063312"/>
<path d="M176.793 141.927C177.593 140.716 178.332 139.546 178.783 138.663C179.255 137.801 179.337 137.164 179.009 137.144C178.291 136.63 176.977 138.068 176.177 138.745C173.838 139.833 172.094 142.769 170.022 144.699C169.447 145.15 169.55 146.013 168.852 146.197C166.616 147.47 165.262 149.893 163.764 152.13C163.395 152.459 163.764 153.034 163.21 153.136C162.759 153.362 162.717 154.101 162.43 154.532C162.389 154.779 162.287 154.943 162.061 154.922C160.666 155.128 160.748 157.263 159.804 158.022C159.127 158.597 159.065 159.316 158.717 160.014C158.101 160.691 158.101 160.691 157.732 161.82C156.09 163.771 155.454 166.44 153.792 168.472C153.402 169.396 151.248 173.769 149.914 177.156C148.581 180.544 148.027 182.884 150.961 179.846C157.978 168.985 166.103 158.597 172.915 147.532C173.325 146.936 175.213 144.391 176.813 141.968L176.793 141.927Z" fill="#063312"/>
<path d="M58.9954 96.4089C54.1532 94.5407 49.4136 92.3646 44.6535 90.1679C39.8728 88.0123 35.0922 85.8977 30.1884 84.1321C29.1215 83.6805 21.0169 79.7182 21.058 80.9911C20.7092 81.7712 22.0223 82.5924 22.6584 83.1467C23.8073 84.9739 26.3926 85.8772 28.1982 87.2937C28.629 87.7248 29.3061 87.4169 29.5523 88.0123C30.8244 89.7162 32.9583 90.3937 34.928 91.2354C35.2358 91.5023 35.6667 91.0507 35.8103 91.5229C36.036 91.8719 36.6515 91.7487 37.0413 91.9129C37.2465 91.9129 37.3902 91.9335 37.4107 92.1593C37.7184 93.3705 39.4625 92.8162 40.1806 93.4937C40.714 93.9659 41.3296 93.8632 41.9246 94.0275C42.5401 94.4381 42.5401 94.4176 43.525 94.4997C45.2895 95.5262 47.5465 95.4851 49.3931 96.5116C50.9935 96.7785 64.6378 100.31 59.0159 96.4295L58.9954 96.4089Z" fill="#063312"/>
<path d="M229.786 66.2303C229.54 65.4502 228.185 65.6966 227.406 65.676C225.457 65.0396 223.22 66.1482 221.127 66.4767C220.553 66.4767 220.389 67.2158 219.814 66.9694C217.783 66.7436 216.039 67.9343 214.336 69.0019C213.967 69.084 214.131 69.7204 213.659 69.5356C213.248 69.5151 213.043 70.0694 212.736 70.2747C212.653 70.4389 212.551 70.5416 212.346 70.4184C211.176 69.9462 210.807 71.6913 209.904 71.9171C209.247 72.1019 209.063 72.6561 208.652 73.0873C208.037 73.3952 208.037 73.3952 207.565 74.1959C205.903 75.1403 205.103 77.1522 203.523 78.2608C203.297 78.6098 202.743 79.472 202.005 80.6217C201.307 81.7508 200.548 83.1469 200.035 84.3786C199.009 86.8833 198.804 88.6694 201.205 86.9243C203.933 83.3727 207.298 80.2932 210.93 77.5833C214.541 74.8528 218.419 72.5124 222.338 70.2336C222.789 70.0078 224.821 69.1456 226.688 68.386C228.555 67.6469 230.176 66.7025 229.786 66.2509V66.2303Z" fill="#063312"/>
<path d="M84.4378 66.7025C84.3557 67.0104 84.9097 66.9488 84.6019 67.3184C83.9864 68.468 84.6019 69.1866 84.9917 69.9667C84.9507 70.1515 85.5047 69.9667 85.238 70.2747C85.0943 70.5005 85.5047 70.5416 85.5868 70.6853C85.6894 70.7058 85.7509 70.7674 85.5868 70.87C84.8481 71.5886 86.1613 71.568 86.0176 72.0608C85.9356 72.4098 86.3254 72.4508 86.5306 72.6356C86.5306 72.9641 86.5306 72.9641 87.0025 73.1694C87.1461 74.0316 88.3362 74.3806 88.5208 75.2429C89.1363 75.6535 93.7323 79.78 93.7529 76.721C91.5164 73.0872 90.2853 68.8786 87.8232 65.327C87.7206 65.1217 87.3513 64.1363 86.8794 63.2946C86.428 62.4528 85.7714 61.7959 85.3611 62.1243C84.6429 62.4734 84.7455 63.1098 84.6635 63.5204C83.9248 64.6906 84.5814 65.6144 84.4583 66.682L84.4378 66.7025Z" fill="#063312"/>
<path d="M158.712 78.8556C165.278 71.7728 172.828 65.4291 179.209 58.1205C179.968 57.3609 186.206 51.7152 184.995 51.2225C184.38 50.6066 183.21 51.4278 182.492 51.7768C180.42 52.0437 178.758 53.9735 176.87 54.9795C176.337 55.1848 176.398 55.9238 175.783 55.8828C173.772 56.2934 172.459 57.9152 171.043 59.3318C170.694 59.496 171.002 60.0709 170.51 59.9887C170.099 60.0503 170.017 60.6457 169.771 60.9126C169.71 61.0973 169.627 61.2205 169.422 61.1384C168.171 60.892 168.171 62.6986 167.309 63.0477C166.693 63.3351 166.591 63.9099 166.263 64.3821C165.688 64.7516 165.688 64.7722 165.319 65.6139C163.8 66.743 163.123 68.796 161.564 70.0072C160.805 71.3212 153.316 82.1814 158.753 78.8145L158.712 78.8556Z" fill="#063312"/>
</svg>
