<svg width="250" height="250" viewBox="0 0 250 250" fill="none" xmlns="http://www.w3.org/2000/svg">
<path d="M0 60C0 26.8629 26.8629 0 60 0H190C223.137 0 250 26.8629 250 60V190C250 223.137 223.137 250 190 250H0V60Z" fill="#DEECDC"/>
<path d="M184.132 79.0533C183.8 71.268 181.46 62.6046 176.507 54.9169C171.632 47.1901 164.065 40.9267 155.719 37.0243C154.257 36.2439 153.048 35.8536 151.877 35.5414C150.707 35.2292 149.674 34.8 148.445 34.2341C147.061 33.6878 145.306 33.1024 143.434 32.7707C142.517 32.5951 141.562 32.4 140.645 32.2244C139.709 32.0878 138.812 31.9512 137.974 31.8146C136.452 31.639 135.224 31.4829 134.444 31.1707C132.884 30.722 130.973 30.2927 128.867 30.1756C127.814 30.0976 126.722 30.039 125.591 30C124.46 30 123.25 30 122.061 30.0976C117.264 30.4293 112.486 31.6 108.644 32.5756C102.97 34.117 99.1476 36.3414 94.7405 39.1316C92.0884 40.6731 90.8208 41.5706 89.4363 42.6243C88.0907 43.717 86.5307 44.9267 83.8786 47.795C80.661 50.6437 78.0479 54.1169 75.6493 57.6876C73.3677 61.3363 71.4566 65.2388 69.9746 69.2973C68.5705 73.3753 67.381 77.5704 66.8155 81.863C66.6205 82.9362 66.484 84.0093 66.406 85.0825C66.3085 86.1557 66.172 87.2483 66.1135 88.341C66.0745 90.5264 65.9184 92.6922 66.055 94.8971C66.172 96.5166 66.445 99.7751 67.4395 103.99C67.8685 106.097 68.6485 108.399 69.4676 110.897C69.9746 112.107 70.5011 113.355 71.0471 114.643C71.6322 115.912 72.3342 117.18 72.9972 118.487C78.7109 128.907 89.0073 138.077 96.515 146.819C104.218 155.482 108.644 164.126 110.029 167.033C110.809 168.457 111.004 168.399 110.361 166.35C109.717 164.301 108.313 160.165 104.744 154.116C98.9721 144.867 91.3474 137.199 84.7951 129.199C81.519 125.18 78.5159 121.043 76.2148 116.575C73.8942 112.126 72.2562 107.307 71.3591 102.351C69.5651 92.4385 70.3841 81.9606 73.8942 72.4387C77.3654 62.9168 83.2546 54.273 91.2303 48.0096C99.1281 41.6682 108.781 37.3951 118.707 36.3219C121.203 36.0292 123.64 35.9902 126.195 36.1658L130.056 36.4195L133.878 36.8682C138.949 37.5707 143.941 38.7024 148.679 40.4585C158.137 43.9316 166.484 50.1169 171.866 58.5071C177.326 66.8387 179.939 77.0045 180.056 87.0922C180.017 89.2776 180.017 95.541 177.677 102.76C176.448 106.39 174.596 110.214 172.1 113.96C169.643 117.726 166.562 121.512 163.987 125.785C158.781 134.467 156.909 143.989 156.675 150.643C156.538 153.98 156.714 156.555 156.85 158.155C157.006 159.755 157.162 160.379 157.318 159.833C157.845 159.833 158.02 156.731 158.352 152.77C158.664 148.809 159.522 144.087 160.516 140.926C161.803 137.511 163.324 133.687 165.528 129.96C167.693 126.194 170.618 122.604 173.504 118.721C176.39 114.858 179.081 110.526 180.914 105.882C182.825 101.258 183.82 96.38 184.346 91.7751C184.951 87.0923 184.112 82.8191 184.171 79.0728L184.132 79.0533Z" fill="#063312"/>
<path d="M170.267 167.795C168.531 165.102 165.879 162.566 162.388 161.493C158.917 160.4 155.388 161.005 152.502 161.902C149.557 162.819 146.983 164.01 144.467 164.927C141.913 165.863 139.3 166.663 136.667 167.327C132.806 168.302 128.886 168.985 124.928 169.375C124.206 167.366 123.056 164.361 121.417 160.166C117.79 151.971 114.183 143.756 110.536 135.522C110.536 135.483 110.556 135.502 110.575 135.444L111.648 133.902C112.311 132.849 112.935 131.737 113.559 130.664C114.144 129.551 114.67 128.42 115.216 127.288C115.723 126.137 116.172 124.966 116.64 123.815C117.732 120.868 118.531 117.825 119.097 114.742C122.295 114.742 125.454 114 128.282 112.732C129.042 112.381 129.803 111.99 130.524 111.561C131.031 112.908 131.714 114.332 132.747 115.737C133.722 117.064 135.048 118.312 136.667 119.171C137.486 119.6 138.383 119.971 139.358 120.166L139.67 120.225H139.748C139.748 120.225 139.865 120.225 139.904 120.225C139.982 120.225 139.943 120.4 139.963 120.478L140.06 121.649C140.177 123.015 140.294 124.381 140.411 125.766C140.665 128.517 140.899 131.288 141.133 134C141.64 139.405 142.147 144.615 142.556 149.083C143.453 158 144.214 163.912 144.526 162.566C145.501 162.527 144.799 151.385 144.565 145.473C144.643 141.59 144.526 137.142 144.292 132.342C144.155 129.942 144.019 127.464 143.882 124.966C143.804 123.698 143.726 122.429 143.648 121.161L143.492 118.839L143.395 117.512L143.356 116.849C143.356 116.751 143.356 116.595 143.317 116.537L143.161 116.381C142.537 116.459 141.854 116.517 141.211 116.556C140.899 116.556 140.548 116.576 140.275 116.498C140.08 116.459 139.904 116.4 139.729 116.361C139.027 116.147 138.344 115.776 137.72 115.327C136.472 114.429 135.555 113.161 134.853 111.698C134.483 110.878 134.171 110.02 133.898 109.142C136.335 107.112 138.403 104.634 139.865 101.883C142.4 97.1808 143.492 91.9126 143.512 86.7614C143.512 84.1858 143.239 81.6102 142.732 79.0932C142.517 77.9029 142.108 76.3615 141.445 75.0152C140.743 73.6688 139.768 72.0688 137.681 71.1127C136.647 70.664 135.458 70.5274 134.366 70.703C133.235 70.8786 132.182 71.4445 131.441 72.1079C129.939 73.4737 129.315 74.9371 128.828 76.3225C128.594 77.0249 128.418 77.7078 128.282 78.4103L127.97 80.2639C127.775 81.4932 127.619 82.7224 127.502 83.9517C127.014 88.8882 127.073 93.8443 127.697 98.7418C127.853 100.03 128.184 102.683 128.964 106.137C128.769 106.273 128.594 106.449 128.399 106.566C127.443 107.269 126.566 107.717 125.903 107.776C124.187 108.088 122.1 108.634 119.877 108.81C120.637 98.9564 118.843 88.8492 114.261 79.9517C113.169 77.7663 111.843 75.2688 109.347 73.2786C108.059 72.264 106.558 71.542 104.842 71.2493C103.145 70.9371 101.117 71.2103 99.4792 72.2054C96.2226 74.1957 95.0915 77.7468 94.955 80.6151C94.838 83.5614 95.267 85.8443 95.579 88.3224C96.3201 93.2199 97.5876 98.293 100.24 102.898C102.853 107.464 106.87 111.542 112.155 113.551C113.11 113.903 114.066 114.156 115.041 114.351C114.631 116.947 114.007 119.756 113.013 122.664C112.174 125.064 111.18 127.542 109.873 129.942L108.898 131.756L107.786 133.512L107.123 134.546L106.792 135.073C106.714 135.249 106.928 135.444 106.967 135.639L107.981 137.727C110.478 142.78 112.993 147.834 115.294 152.497C118.921 159.736 122.002 165.941 123.875 169.473C122.743 169.571 121.612 169.668 120.462 169.707C117.693 169.863 115.158 169.746 112.077 169.746C109.054 169.785 105.271 170.351 102.346 173.063C100.864 174.39 99.8497 176.419 99.5572 178.312C99.2452 180.224 99.4402 181.961 99.7327 183.541C100.045 185.122 100.474 186.526 100.864 187.892C101.273 189.278 101.702 190.663 102.19 192.048C103.165 194.819 104.315 197.629 105.992 200.282C107.63 202.917 109.873 205.414 112.701 207.151C115.528 208.926 118.746 209.804 121.846 210.078C123.719 210.253 125.591 210.195 127.404 209.999C129.686 212.926 132.143 215.795 135.321 217.668C140.918 220.965 148.445 220.634 153.711 216.829C158.352 213.492 161.004 207.619 160.633 201.921C163.032 200.848 165.177 199.639 166.796 198.292C167.537 197.687 168.18 197.083 168.687 196.458C168.921 196.165 169.155 195.892 169.37 195.639C169.526 195.346 169.682 195.092 169.818 194.839C170.306 193.902 170.403 193.492 170.052 193.707C169.604 193.453 168.414 194.975 166.601 196.204C164.826 197.492 162.486 198.526 160.848 199.151C157.065 200.126 152.424 201.278 147.451 202.234C142.517 203.209 137.194 203.951 132.455 204.751C130.095 205.024 128.087 206.019 126.234 205.609C123.114 205.297 119.818 204.751 117.03 203.326C117.303 203.365 117.615 203.424 117.985 203.463C121.866 203.287 125.727 202.761 129.569 202.058C133.41 201.336 137.233 200.419 140.957 199.19C144.701 198 148.367 196.556 151.878 194.819C155.407 193.122 158.781 191.112 161.959 188.848C162.681 188.38 165.938 186.39 168.629 184.166C169.799 183.248 170.852 182.292 171.632 181.492C172.022 186.917 170.54 191.307 170.072 192.848C169.838 193.726 169.974 193.824 170.696 192.848C171.359 191.853 172.665 189.707 173.523 185.805C174.05 182.761 173.991 179.658 173.504 176.614C172.977 173.61 172.002 170.546 170.228 167.814L170.267 167.795ZM131.655 91.4443C131.948 88.1468 132.396 84.7321 133.098 81.2785C133.469 79.4834 133.8 77.9615 134.483 76.8883C135.263 75.7956 135.36 76.1273 135.594 76.1859C136.004 76.342 136.862 77.8444 137.135 79.3273C137.525 81.0834 137.779 82.898 137.896 84.6931C138.11 88.3029 137.74 91.9711 136.647 95.3467C135.692 97.6686 135.653 99.2101 134.151 100.752C133.683 101.337 133.157 101.981 132.591 102.664C132.572 102.488 132.533 102.332 132.513 102.156C132.045 98.215 131.168 94.6053 131.655 91.4248V91.4443ZM108.352 104.42C105.505 101.064 103.711 98.1955 102.326 94.176C101.702 91.776 101.507 90.5272 101.215 89.1224C100.942 87.737 100.571 86.0785 100.103 82.9175C100.006 81.2395 100.103 79.6785 100.61 78.5078C101.137 77.2786 101.995 76.4395 102.931 76.2639C103.906 76.0298 105.329 76.4005 106.402 77.2395C107.552 78.0981 108.527 79.4249 109.425 80.9663C111.199 84.0883 112.701 87.4248 113.773 90.9175C114.787 94.4296 115.392 98.0979 115.548 101.805C115.587 102.508 115.645 103.542 115.743 104.849C115.704 105.922 115.762 107.21 115.684 108.654C112.818 108.088 110.049 106.469 108.371 104.459L108.352 104.42ZM104.998 182.429C105.251 180.868 105.095 179.209 105.583 178.058C105.953 176.868 107.611 175.639 109.191 175.502C111.511 175.249 113.617 175.073 116.386 174.975C119.604 175.092 119.623 175.112 123.68 174.468C132.689 174.019 141.406 170.8 149.888 167.522C150.649 167.171 152.131 166.449 154.14 165.727C156.129 165.044 158.703 164.38 161.413 165.063C163.831 165.629 166.113 167.463 167.79 169.805C167.03 169.98 166.172 170.292 165.548 170.468C162.408 170.605 158.722 172.829 155.29 173.824C154.393 174 153.945 174.917 153.087 174.78C149.947 174.995 146.944 176.692 143.843 178C143.239 178.117 143.2 178.858 142.576 178.644C141.971 178.605 141.386 179.268 140.782 179.522C140.548 179.717 140.353 179.834 140.138 179.678C138.637 179.053 137.135 181.083 135.633 181.161C134.561 181.258 133.917 181.863 133.04 182.234C131.928 182.39 131.928 182.448 130.661 183.151C127.599 183.756 124.694 185.375 121.417 185.668C120.832 185.863 119.077 186.351 116.874 186.858C114.69 187.365 112.057 187.834 109.776 188.185C108.664 188.361 107.65 188.517 106.831 188.653C106.499 187.268 105.68 185.531 105.29 184.107C104.998 183.424 104.861 182.858 104.998 182.448V182.429ZM169.311 180.595C166.464 181.2 163.5 183.736 160.438 184.907C159.639 185.141 159.346 186.058 158.547 185.98C155.661 186.331 153.106 188.087 150.376 189.434C149.83 189.551 149.849 190.273 149.245 190.078C148.679 190.058 148.211 190.761 147.665 190.975C147.47 191.17 147.295 191.268 147.061 191.131C145.618 190.546 144.389 192.575 143.005 192.653C142.01 192.751 141.484 193.395 140.684 193.765C139.651 193.941 139.67 193.961 138.539 194.722C135.731 195.346 133.176 197.102 130.193 197.531C129.666 197.726 128.087 198.331 126.117 198.995C125.142 199.307 124.089 199.658 122.978 200.009C121.924 200.322 120.852 200.634 119.779 200.946C117.751 201.512 116.055 201.98 115.509 202.37C112.369 200.302 110.01 196.692 108.352 192.653C108.04 191.678 107.572 191.073 107.279 190.39C107.396 190.409 107.474 190.448 107.591 190.468C111.843 190.702 116.113 190.526 120.384 190.097C124.655 189.648 128.886 188.809 133.001 187.697C141.25 185.414 149.089 182 156.363 177.922C157.182 177.492 160.867 175.756 164.104 173.941C165.938 172.927 167.634 171.912 168.648 171.151C170.15 173.746 171.047 176.673 171.476 179.463C170.735 179.756 169.916 180.263 169.331 180.556L169.311 180.595Z" fill="#063312"/>
</svg>
