<svg width="250" height="250" viewBox="0 0 250 250" fill="none" xmlns="http://www.w3.org/2000/svg">
<path d="M0 60C0 26.8629 26.8629 0 60 0H190C223.137 0 250 26.8629 250 60V190C250 223.137 223.137 250 190 250H0V60Z" fill="#DEECDC"/>
<path d="M36.1638 133.511C36.2549 135.552 36.437 137.684 36.6373 139.761C36.9105 142.149 37.2566 144.354 37.9122 146.686C38.5678 148.982 39.5513 151.296 40.9719 153.374C42.356 155.415 44.2319 157.31 46.1077 158.622C47.9472 160.08 49.9141 161.246 51.881 162.412C55.9059 164.599 60.113 166.276 64.3929 167.661C68.691 168.954 73.0437 169.938 77.4511 170.649C81.8403 171.287 86.2659 171.779 90.6915 171.943C99.5062 172.289 108.412 171.779 117.063 170.139C119.103 169.793 124.603 168.882 131.669 167.187C135.202 166.367 139.118 165.128 143.07 163.415C146.986 161.611 150.92 159.096 154.034 155.798C155.655 154.194 156.875 152.317 158.077 150.513C159.079 148.618 160.099 146.777 160.718 144.9C161.501 143.078 161.938 141.274 162.375 139.597C162.885 137.921 163.049 136.335 163.322 134.914C163.595 133.493 163.723 132.217 163.814 131.105C163.905 130.012 163.978 129.083 164.014 128.372C164.014 128.19 164.014 128.026 164.032 127.88V127.661C164.032 127.661 164.069 127.352 164.032 127.151C163.996 126.896 163.923 126.659 163.814 126.422C163.304 125.493 162.557 125.274 162.029 125.219C161.483 125.165 160.955 125.329 160.554 125.602C160.171 125.875 159.971 126.204 159.88 126.422C159.807 126.604 159.789 126.714 159.789 126.75C159.643 127.042 159.516 127.388 159.388 127.734C159.334 127.825 159.297 127.898 159.243 128.008C158.842 128.773 158.296 129.848 157.276 131.051C156.256 132.254 154.598 133.784 152.322 135.26C150.501 136.572 148.479 137.593 146.257 138.613C145.164 139.124 144.108 139.67 142.997 140.144L139.664 141.511C137.461 142.477 135.148 143.151 132.889 143.989C130.595 144.682 128.282 145.392 125.95 145.994C116.608 148.344 106.973 149.62 97.2843 149.638C87.6136 149.602 77.9246 148.399 68.5635 145.994C66.2505 145.283 63.9011 144.718 61.6246 143.898C59.3481 143.078 56.9987 142.349 54.9407 141.365C52.8463 140.399 50.8247 139.233 48.9853 137.884C48.0564 137.21 47.1823 136.481 46.3445 135.716L45.5432 134.951C45.1061 134.531 44.6872 134.094 44.2683 133.638C43.4305 132.709 42.611 131.743 41.7368 130.377C40.9537 129.338 40.2798 129.065 39.7881 128.919C39.2963 128.773 38.9503 128.773 38.6953 128.773H38.3675C38.3675 128.773 38.1672 128.791 37.8029 128.955C37.3658 129.156 37.2383 129.429 36.947 129.666C36.8195 129.812 36.6737 129.848 36.5827 130.103L36.3459 131.105L36.1092 132.108C36.1092 132.108 36.0728 132.272 36.0546 132.363V132.746L36.1274 133.511H36.1638Z" fill="#063312"/>
<path d="M163.832 153.045C163.322 152.116 162.576 151.897 162.048 151.843C161.501 151.788 160.973 151.952 160.591 152.225C160.208 152.499 160.008 152.827 159.917 153.045C159.844 153.227 159.826 153.337 159.826 153.373C159.68 153.665 159.552 154.011 159.425 154.357C159.37 154.448 159.334 154.521 159.279 154.631C158.879 155.396 158.332 156.471 157.312 157.674C156.292 158.877 154.635 160.407 152.359 161.883C150.537 163.195 148.516 164.216 146.294 165.236C145.201 165.747 144.145 166.293 143.034 166.767L139.701 168.134C137.497 169.1 135.184 169.774 132.926 170.612C130.631 171.305 128.318 172.015 125.987 172.617C116.644 174.967 106.992 176.243 97.321 176.261C87.6503 176.225 77.9613 175.022 68.582 172.617C66.269 171.906 63.9196 171.341 61.6431 170.521C59.3665 169.701 57.0171 168.972 54.9591 167.988C52.8647 167.004 50.8432 165.856 49.0037 164.489C48.0749 163.815 47.2007 163.086 46.3629 162.321L45.5616 161.555C45.1245 161.136 44.7056 160.699 44.2868 160.243C43.449 159.314 42.6294 158.348 41.7552 156.981C40.9721 155.961 40.2982 155.724 39.8247 155.596C39.333 155.469 38.987 155.469 38.7502 155.487H38.4406C38.4406 155.487 38.386 155.505 38.2403 155.542C38.1128 155.578 37.9124 155.651 37.7667 155.724C37.3843 155.961 37.2204 156.18 36.929 156.416C36.8015 156.453 36.6922 156.854 36.5648 157.073L36.2187 157.856C36.0548 158.02 36.1458 158.658 36.1276 159.095L36.1641 160.553C36.2551 162.521 36.3826 164.726 36.6376 166.676C37.2386 171.177 38.3678 175.897 41.1178 180.088C41.8099 181.127 42.593 182.093 43.4672 183.004C43.9043 183.459 44.396 183.878 44.8513 184.298C45.3249 184.68 45.7801 184.99 46.2537 185.354C48.0931 186.812 50.0601 187.942 52.027 189.127C56.0337 191.295 60.2407 192.972 64.5206 194.32C68.8005 195.632 73.1715 196.562 77.5424 197.29C81.9316 197.928 86.339 198.402 90.7464 198.566C99.5611 198.912 108.449 198.384 117.081 196.744C119.121 196.398 124.621 195.486 131.688 193.792C135.221 192.972 139.118 191.714 143.07 190.02C146.986 188.215 150.92 185.701 154.034 182.402C155.655 180.799 156.875 178.922 158.077 177.136C159.079 175.241 160.099 173.4 160.718 171.523C161.501 169.701 161.938 167.897 162.375 166.22C162.885 164.544 163.049 162.958 163.322 161.537C163.596 160.116 163.723 158.84 163.814 157.729C163.905 156.635 163.978 155.706 164.014 154.995C164.014 154.813 164.014 154.649 164.033 154.503V154.284C164.033 154.284 164.069 153.975 164.033 153.774C163.996 153.519 163.923 153.282 163.814 153.045H163.832Z" fill="#063312"/>
<path d="M65.6315 113.648C65.5222 113.848 65.8682 114.213 66.5421 114.668C67.2706 115.069 68.3269 115.543 69.5835 115.926C72.0968 116.709 75.2658 117.256 77.4695 117.62C87.1584 119.971 102.348 119.552 114.641 118.295C117.773 118.094 120.487 116.946 123.018 116.91C128.227 116.381 133.891 115.015 139.482 112.299C142.251 110.878 145.019 109.129 147.368 106.577C149.718 104.099 151.466 100.473 151.484 96.7917C151.521 96.1356 151.484 95.5525 151.448 95.024C151.339 94.5138 151.211 94.0582 151.084 93.6209C150.883 92.7279 150.519 91.9444 150.41 90.8692C150.246 90.3225 150.009 89.703 149.736 89.0834C149.39 88.5003 149.026 87.8807 148.589 87.2793C147.696 86.1313 146.658 85.0925 145.729 84.2178C144.819 83.5254 144.127 82.9605 143.762 82.4502C142.214 80.5551 139.264 78.9697 136.186 77.9492C133.09 76.8923 129.848 76.2727 127.28 75.5255C123.474 74.4686 120.542 74.4686 117.045 74.2317C112.983 73.7579 112.947 73.7579 107.775 74.013C96.3738 73.6668 84.9911 75.9993 73.6267 78.6599C71.5687 79.3706 65.2126 81.0835 58.2373 85.0561C56.5071 86.0584 54.7405 87.2064 53.1014 88.5914C51.4623 89.9763 49.9325 91.6164 48.8761 93.5662C47.7834 95.4978 47.4556 97.8486 48.002 99.8896C48.5301 101.949 49.7321 103.662 51.0434 105.065C53.7206 107.871 56.7803 109.693 59.2572 111.006C61.7523 112.318 63.701 113.138 64.7026 113.466C65.7043 113.812 65.7954 113.648 64.6662 112.81C63.5735 111.953 61.1513 110.495 57.782 107.762C55.1594 105.757 52.6097 103.516 51.4259 101.038C50.2238 98.5957 50.6063 96.3361 52.464 94.0218C54.2852 91.7621 57.1263 89.867 60.0949 88.3362C63.0818 86.7873 66.3236 85.5299 69.62 84.473C76.2493 82.3591 83.1881 80.9742 90.1816 80.0995C97.1752 79.243 104.26 78.8968 111.272 79.1883C118.265 79.4981 125.295 80.3546 131.76 82.4867C134.966 83.5436 138.062 84.9285 140.557 86.8419C143.107 88.7189 144.91 91.1426 145.602 93.9124C146.276 96.7734 145.82 99.4522 144.127 101.803C142.378 104.136 139.646 106.049 136.696 107.58C133.727 109.129 130.467 110.313 127.153 111.297C123.82 112.281 120.414 113.101 116.972 113.721C115.442 114.012 111.272 114.65 105.881 115.142C100.49 115.652 93.8606 115.889 87.5591 115.816C81.2577 115.707 75.2476 115.251 71.168 114.577C66.9974 113.976 65.1944 113.047 65.595 113.648H65.6315Z" fill="#063312"/>
<path d="M88.7429 86.7328C90.6552 85.1292 92.5675 84.2727 93.0774 83.7443C93.6056 83.2705 92.9317 83.0154 89.9085 83.8354C88.7793 84.3092 87.6137 84.947 86.521 85.8581C86.1021 86.2044 85.7196 86.6235 85.3736 87.0609C83.6434 86.6782 81.6583 86.2773 79.9281 86.0039C76.2675 85.439 73.9363 85.1657 77.597 87.4618C79.6732 88.2454 81.7312 89.1018 83.7891 89.9583C83.4067 91.0517 83.2064 91.9993 83.006 93.0926C82.8057 94.35 82.6782 95.6256 82.9332 97.1746C83.0242 97.5755 83.097 97.9764 83.2974 98.4502C83.4795 98.9058 83.7892 99.416 84.1352 99.7987C84.8455 100.6 85.7014 101.074 86.5574 101.366C88.3422 101.931 89.9267 101.639 91.1469 101.366C93.551 100.801 95.7728 99.8898 97.8308 98.9604C98.9053 98.4684 99.9434 97.9764 100.963 97.5208C105.28 99.5071 109.614 101.475 113.949 103.334C114.003 103.37 114.113 103.407 114.204 103.461C113.785 103.99 113.329 104.5 112.801 104.956C111.563 106.067 110.106 106.942 109.068 107.616C107.993 108.199 107.483 108.928 107.775 109.038C108.048 109.73 110.507 108.983 111.8 108.455C113.402 108.218 115.224 107.234 116.699 105.648C116.881 105.448 117.045 105.229 117.209 105.029C118.138 105.502 119.157 106.013 120.159 106.486C122.855 107.78 125.386 108.764 125.35 108.017C125.75 107.197 124.111 106.104 123.292 105.393C122.363 103.99 120.76 102.951 119.139 101.913C119.431 101.311 119.704 100.728 119.995 100.09C120.487 99.0515 120.05 97.9582 120.359 96.9377C120.487 95.8443 120.141 94.5505 119.449 93.5482C118.757 92.5277 117.81 91.7624 116.79 91.2157C114.695 90.1041 112.492 89.8672 110.343 89.9036C109.56 89.8125 109.214 90.4321 108.576 90.1223C107.866 89.9583 106.955 90.505 106.227 90.669C105.917 90.833 105.662 90.9241 105.425 90.7783C104.169 90.341 102.73 91.3615 101.419 92.0539C101.346 92.0175 101.255 91.981 101.2 91.9081C100.49 91.3432 99.7431 91.4161 98.9782 91.1974C98.1769 90.7054 98.1768 90.7237 96.9566 90.5779C94.6619 89.3387 91.839 89.2294 89.4531 88.0267C89.18 87.972 88.6336 87.8444 87.9051 87.6804C88.1783 87.3706 88.4515 87.0609 88.7611 86.8057L88.7429 86.7328ZM109.541 94.8238C111.381 94.6416 113.275 94.8785 114.677 95.5345C115.369 95.8807 115.916 96.3181 116.207 96.7554C116.48 97.1563 116.608 97.6301 116.535 98.4137C116.517 98.6142 116.389 99.1244 116.152 99.8169C115.624 99.5253 114.987 99.5982 114.732 99.0151C113.184 97.047 110.689 96.0447 108.303 94.9878C108.722 94.9149 109.141 94.8603 109.56 94.8238H109.541ZM95.4996 94.9878C95.3539 95.0972 95.2083 95.2065 95.0079 95.3523C93.4417 95.9172 92.0029 96.6825 90.473 97.2657C89.7081 97.5572 89.0161 97.7942 88.3969 97.7942C87.8141 97.8306 87.2131 97.5937 86.9763 97.2475C86.8488 97.1746 86.612 97.047 86.3753 96.3181C86.1567 95.6438 86.0293 94.6234 86.0657 93.4571C86.1021 92.6553 86.1567 91.7806 86.3206 90.9423C89.3985 92.2362 92.4582 93.5847 95.4996 94.9696V94.9878Z" fill="#063312"/>
<path d="M213.024 52.0905C211.476 50.7238 209.144 50.906 207.105 51.234C199.31 52.4914 191.679 54.8057 184.503 58.1405C178.548 60.9104 180.934 66.1404 183.866 66.2679C188.2 66.4502 193.245 65.3932 197.051 66.4866C196.942 66.5959 196.833 66.7053 196.724 66.7964C195.849 67.4888 195.613 68.6187 194.702 68.9831C191.515 71.0423 188.874 74.4865 186.142 77.7119C185.559 78.2039 185.742 78.9146 185.05 79.1333C184.43 79.4977 184.048 80.5 183.52 81.1196C183.356 81.4476 183.192 81.6845 182.919 81.7027C181.189 82.213 180.369 85.0193 178.93 86.2038C177.892 87.0785 177.491 88.0625 176.781 89.0466C175.761 90.0488 175.761 90.0488 174.832 91.6342C172.082 94.4952 170.152 98.158 167.329 101.147C166.855 101.857 165.271 104.099 163.45 106.741C163.486 105.156 163.504 103.716 163.413 102.477C163.177 100.017 162.94 98.3402 162.721 97.8482C162.721 97.83 162.721 97.8118 162.721 97.7753C162.503 95.1148 161.683 92.6 160.554 90.4315C158.259 86.058 154.854 83.033 152.012 80.9556C149.117 78.9146 146.731 77.7301 145.511 77.2381C144.272 76.7461 144.199 76.8919 145.602 77.9306C146.931 79.0239 149.936 80.9009 153.579 84.8917C156.438 87.8803 158.66 91.3791 159.479 95.1877L159.734 96.6273C159.789 97.0829 159.826 97.5202 159.826 97.9758C159.826 98.8869 159.716 99.7981 159.516 100.709C159.115 102.531 158.296 104.317 157.203 105.903C154.981 109.074 151.484 111.552 147.696 113.629C143.835 115.707 139.756 117.529 135.64 119.133C127.335 122.23 118.611 124.271 109.76 125.237C100.909 126.148 91.9482 125.93 83.1335 124.654C74.3551 123.36 65.6497 120.846 57.6181 117.347C55.6511 116.436 53.7934 115.415 52.1179 114.231C51.2801 113.629 50.497 112.991 49.7503 112.317L47.3463 110.003C44.2684 106.978 41.8462 103.625 41.6277 100.126C41.3909 96.3357 42.775 92.436 45.1244 89.1923C47.5284 85.9304 50.9159 83.2334 54.5583 81.0102C58.2737 78.8417 62.2986 77.0741 66.451 75.8532C68.509 75.2336 70.7673 74.7598 72.8982 74.2131C75.0836 73.7211 77.2691 73.302 79.4546 72.8464C80.4381 72.7006 82.2411 72.4273 84.6633 72.0628C87.0855 71.7894 90.127 71.3521 93.5509 71.1516C100.399 70.6232 108.795 70.5138 116.753 71.1516C124.712 71.753 132.179 73.2655 137.26 74.7598C139.792 75.5069 141.759 76.2176 142.961 76.6914C144.181 77.147 144.727 77.2563 144.381 76.9101C144.6 76.5456 142.469 75.0331 139.391 73.7029C136.313 72.409 132.398 71.2063 129.648 70.5685C123.674 68.6551 115.788 67.4706 107.483 67.1426C99.1785 66.8146 90.4731 67.3431 82.66 68.1631C78.7079 68.4729 75.2476 69.8032 72.0786 69.9307C68.8368 70.4045 65.3765 70.8783 61.8433 71.9899C58.3465 73.0651 54.8497 74.5594 51.4805 76.5274C48.1294 78.4955 44.8694 80.9556 42.1558 84.0899C39.4421 87.206 37.2749 91.1057 36.4918 95.3517C36.2732 96.0988 36.2186 96.7731 36.2186 97.4109C36.2186 98.0487 36.2186 98.6136 36.2368 99.1785C36.2914 99.8892 36.346 100.454 36.4007 101.128C36.255 102.331 36.1093 104.044 36 106.377C36.1457 111.843 36.5828 117.565 38.8047 123.105C39.9157 125.857 41.5548 128.517 43.7949 130.704C44.9423 131.87 46.1079 132.618 47.2552 133.474C48.3844 134.367 49.641 135.041 50.8612 135.788C60.7505 141.474 71.7872 144.098 82.751 145.446C93.7695 146.667 104.897 146.485 115.861 144.663C121.27 143.752 126.643 142.549 131.961 141C137.26 139.469 142.524 137.355 147.35 134.349C147.623 134.185 148.006 133.966 148.497 133.674C148.971 133.365 149.517 132.946 150.155 132.472C150.774 131.998 151.521 131.506 152.267 130.886C152.978 130.23 153.761 129.52 154.58 128.754C157.804 125.638 160.736 120.736 162.084 115.707C162.484 114.431 162.739 113.174 162.922 111.935C174.832 98.0305 187.326 84.2904 198.836 70.0218C199.018 69.8032 199.401 69.3658 199.893 68.8009C200.931 71.6072 199.929 75.8714 200.439 81.6845C200.694 84.6002 207.214 84.181 210.966 75.9078C213.57 70.1676 214.645 63.7714 214.663 57.4663C214.663 55.5164 214.462 53.3479 212.987 52.054L213.024 52.0905Z" fill="#063312"/>
</svg>
