<svg width="250" height="250" viewBox="0 0 250 250" fill="none" xmlns="http://www.w3.org/2000/svg">
<path d="M0 60C0 26.8629 26.8629 0 60 0H190C223.137 0 250 26.8629 250 60V190C250 223.137 223.137 250 190 250H0V60Z" fill="#DEECDC"/>
<path d="M200.574 133.79C200.404 133.067 200.022 132.153 199.724 131.6C199.427 131.005 199.151 130.41 198.832 129.815C197.578 127.455 196.07 125.202 194.583 123.055C191.566 118.803 189.229 114.594 187.656 109.598C187.274 108.344 186.87 107.111 186.552 105.814L186.063 103.9C185.999 103.369 185.829 102.88 185.829 102.285C185.638 100.031 185.999 97.4379 186.424 94.7168C187.359 89.2958 188.443 83.1308 187.529 76.9446C186.977 72.5015 185.341 70.3544 184.406 67.038C183.152 63.3603 179.838 58.5771 176.885 55.1332C175.546 53.6026 174.314 52.5184 173.761 51.5405C171.191 48.0328 166.198 44.3763 160.652 41.8465C155.086 39.2317 149.264 37.6373 144.399 36.0429C137.175 33.9808 131.524 33.8745 124.831 34.0659C120.901 34.1509 118.946 34.2572 116.736 34.6186C115.632 34.7674 114.463 34.9375 112.976 35.2989C111.489 35.639 109.661 36.0004 107.303 36.7657C96.7011 39.2955 86.6729 44.5889 78.3231 51.7956C69.9521 59.066 63.4507 68.3561 58.8828 78.539C58.4791 79.5169 57.9904 80.9837 57.2893 82.8545C56.9281 83.7898 56.6731 84.8527 56.3332 86.0007C55.9933 87.1487 55.6108 88.3817 55.3559 89.7422C54.0811 95.0782 53.1038 101.945 53.38 109.449C53.6137 116.953 55.2071 125.095 58.1179 132.663C60.8799 140.232 63.9181 147.863 63.7907 155.41C63.7907 162.914 61.2836 169.547 58.5004 174.245C55.6959 179.007 52.5514 181.898 51.0429 183.344C49.4919 184.79 49.5769 184.96 51.9352 183.365C53.0613 182.515 54.7822 181.218 56.7582 179.029C58.7128 176.86 61.0711 173.841 63.0046 169.59C65.8941 162.999 66.9776 155.453 65.7453 148.289C64.598 141.167 61.8785 134.747 59.9451 128.433C56.057 115.933 56.0145 102.349 59.5201 89.6997C62.9833 77.0509 70.0371 65.3161 79.8528 56.6851C89.6899 48.0541 102.183 42.548 115.122 40.6348C121.602 39.6781 128.188 39.6356 134.647 40.5072C141.106 41.3576 147.352 43.2709 153.45 45.8432C159.484 48.3304 165.008 51.6893 169.491 56.1536C173.974 60.5967 177.331 66.1451 179.647 72.1188C181.92 77.8161 181.686 84.0024 180.518 90.5501C179.987 93.8452 179.243 97.3103 179.222 101.264C179.222 103.199 179.647 105.537 180.135 107.089C180.581 108.811 181.091 110.512 181.707 112.213C182.897 115.614 184.469 118.994 186.467 122.055C188.443 125.138 190.652 127.795 192.458 130.431C193.393 131.749 194.2 133.11 194.986 134.492C195.496 135.385 195.709 136.511 195.602 137.595C195.517 138.658 195.029 139.679 194.498 140.104C193.924 140.657 192.649 141.146 191.056 141.571C190.355 141.783 189.292 142.017 187.784 142.57C187.04 142.846 186.169 143.186 184.979 144.058C184.023 144.887 183.173 145.886 182.621 146.928C180.348 151.073 179.795 156.005 179.094 161.15C178.266 166.613 178.648 172.417 176.183 176.648C173.761 181.069 168.896 184.471 163.712 186.83C158.464 189.233 152.685 190.955 147.522 193.463C144.951 194.696 142.508 196.142 140.383 197.821C138.301 199.501 136.538 201.308 135.199 203.178C132.459 206.899 131.481 210.725 131.375 213.085C131.29 215.487 131.651 216.422 131.757 215.572C132.055 215.572 132.161 214.445 132.586 212.745C133.011 211.023 133.861 208.769 135.263 206.558C136.687 204.369 138.641 202.243 140.787 200.564C142.912 198.863 145.206 197.587 147.14 196.694C151.474 194.866 156.531 193.527 161.885 191.656C167.217 189.785 172.975 187.086 177.373 182.239C179.54 179.836 181.198 176.775 181.962 173.523C182.749 170.312 182.897 167.102 183.258 164.084C183.683 161.107 184.108 157.94 184.724 155.134C185.043 153.709 185.426 152.328 185.935 151.095C186.424 149.862 187.083 148.735 187.805 148.14C188.336 147.651 189.611 147.204 190.865 146.843C192.139 146.46 193.52 146.099 194.923 145.504C196.325 144.93 197.812 143.952 198.811 142.591C199.767 141.273 200.319 139.849 200.659 138.425C200.957 136.936 200.914 135.363 200.51 133.811L200.574 133.79Z" fill="#063312"/>
<path d="M112.848 113.233C113.273 112.956 113.677 112.701 114.102 112.489C114.505 112.255 114.909 112.021 115.355 111.893C118.776 110.405 122.069 107.386 124.173 103.624C126.403 99.9885 127.636 95.4391 127.827 91.0174C127.933 89.8481 127.636 89.0828 127.572 88.2538C129.357 88.4876 130.631 87.4034 132.161 87.4671C132.565 87.5522 132.629 86.8719 133.053 87.2333C134.477 87.9986 135.539 87.4884 136.75 87.3609C136.963 87.4672 137.069 86.8081 137.26 87.2333C137.452 87.4884 137.749 87.0632 137.983 87.0845C138.089 86.9782 138.174 86.957 138.216 87.1908C138.556 88.2963 139.406 87.042 139.895 87.5097C140.214 87.8286 140.575 87.5097 140.936 87.5097C141.297 87.7861 141.276 87.7435 141.913 87.5947C142.869 88.2324 144.463 87.9136 145.398 88.8915C145.652 88.9553 146.375 89.1891 147.246 89.593C148.117 89.9969 149.137 90.5709 150.008 91.1662C150.9 91.7402 151.644 92.3141 152.069 92.4416C152.494 92.5479 152.834 92.1015 152.558 90.7197C150.412 87.1482 147.097 84.3421 143.167 82.8328C141.191 82.0887 139.024 81.706 136.899 81.8123C134.774 81.9186 132.714 82.4501 130.865 83.4067C130.483 83.5555 128.826 84.1933 127.402 85.2137C127.381 85.0649 127.36 84.8948 127.317 84.746C127.105 83.8532 126.68 82.9816 126.467 82.1737C126.148 81.4935 125.979 80.9195 126.085 80.4518C126.064 78.7936 125.235 76.6465 123.769 74.8395C123.429 74.3931 123.089 73.9041 122.728 73.4577C122.324 73.0325 121.92 72.6074 121.538 72.2034C120.773 71.3956 120.136 70.524 119.456 69.8438C117.607 67.6329 115.525 66.7825 113.252 65.6558C111.935 64.9543 111.255 64.5928 110.469 64.2952C109.683 63.9976 108.684 63.9126 106.836 63.6149C102.841 62.6796 98.5283 62.8072 94.6827 64.0614C90.7309 65.0393 87.0128 67.0801 83.6984 69.4823C82.5724 70.524 79.1942 73.7554 76.8784 78.6874C74.52 83.5769 73.5427 90.1458 74.9874 95.1415C76.241 100.222 79.1092 103.347 80.1078 104.198C80.6177 104.644 80.7877 104.495 80.5327 103.624C80.4053 103.199 80.1928 102.582 79.8528 101.774C79.5341 100.966 79.258 99.9035 78.8755 98.6492C77.6008 94.8014 77.4307 90.6134 78.4293 86.5743C79.4066 82.5139 81.68 78.7724 84.5695 75.7324C85.993 74.1805 87.7139 72.9688 89.4773 71.8421C91.3258 70.8854 93.153 70.0138 95.2564 69.6312C99.3994 68.5257 103.712 68.6107 107.579 69.95C115.398 72.4586 121.049 80.388 121.411 88.7427C121.623 92.9094 120.731 97.0335 118.585 100.754C116.63 104.495 113.549 107.386 109.853 109.47C109.045 109.916 106.687 110.979 103.479 111.574C100.292 112.191 96.2337 112.127 92.6006 111.064C88.9675 110.044 85.823 108.152 83.8046 106.536C81.85 104.878 80.6602 103.879 80.6814 104.453C80.2352 104.772 80.8939 105.962 81.8925 107.387C82.9973 108.705 84.527 110.193 85.7592 111.022C88.0963 113.403 92.0907 115.38 96.5736 115.975C101.057 116.634 105.88 115.975 110.044 114.636C111.127 114.381 112.041 113.807 112.87 113.233H112.848Z" fill="#063312"/>
<path d="M94.7253 85.4269C96.3825 82.6632 94.0668 78.8367 90.3911 79.8996C88.0116 80.5799 86.5455 83.7474 88.2027 85.9158C90.1149 88.4031 93.5355 87.6165 94.7253 85.4269Z" fill="#063312"/>
<path d="M109.938 88.6788C111.595 85.9152 109.279 82.0886 105.603 83.1516C103.224 83.8318 101.758 86.9994 103.415 89.1678C105.327 91.655 108.748 90.8685 109.938 88.6788Z" fill="#063312"/>
<path d="M83.7623 94.5037C83.3586 94.3549 82.9761 94.7801 83.1673 96.1831C85.0582 99.8821 88.1601 102.901 92.0057 104.687C93.9179 105.558 96.0638 106.09 98.1884 106.132C100.313 106.175 102.416 105.771 104.307 104.963C104.732 104.835 106.687 104.24 108.238 103.177C109.81 102.157 110.872 100.754 110.214 100.435C109.555 99.7546 108.557 100.286 107.94 100.371C106.177 99.9884 104.817 100.988 103.287 100.839C102.905 100.733 102.778 101.392 102.374 101.009C100.993 100.159 99.9306 100.584 98.6983 100.626C98.4859 100.499 98.3584 101.158 98.1884 100.733C98.0185 100.456 97.6997 100.86 97.466 100.839C97.3598 100.924 97.2748 100.945 97.2323 100.711C96.9774 99.5845 96.0214 100.775 95.5752 100.286C95.2777 99.9459 94.8952 100.222 94.534 100.201C94.1941 99.9034 94.1942 99.9459 93.578 100.052C92.6644 99.3507 91.0496 99.5633 90.1785 98.5216C89.9448 98.4366 89.2225 98.1602 88.3939 97.6925C87.5441 97.2461 86.5668 96.5658 85.7381 95.9281C84.8883 95.2903 84.1872 94.6738 83.7623 94.525V94.5037Z" fill="#063312"/>
<path d="M134.01 147.609C135.284 147.035 136.559 146.503 137.664 146.227C139.342 145.887 140.32 144.994 141.552 144.122C143.188 143.442 143.209 143.378 144.76 141.741C146.842 140.423 148.436 138.425 149.796 136.341C151.007 134.131 152.09 132.068 153.174 129.815C153.386 128.922 154.194 126.222 154.257 122.948C154.364 119.653 153.62 115.869 152.366 113.021C151.134 110.151 149.583 108.174 148.903 107.642C148.181 107.111 148.266 108.089 148.797 111.341C150.369 116.061 150.582 121.269 149.009 126.01C148.308 128.369 146.927 130.623 145.546 132.706C144.017 134.619 142.296 136.426 140.15 137.766C138.046 139.105 135.773 140.232 133.308 140.848C132.119 141.273 130.844 141.358 129.612 141.614C128.995 141.677 128.358 141.699 127.721 141.741C127.083 141.805 126.467 141.826 125.83 141.741C123.302 141.762 120.837 141.103 118.436 140.402C117.31 139.849 116.056 139.551 115.015 138.85L113.358 137.915L111.828 136.788C111.616 136.597 111.17 136.299 110.681 135.831C110.214 135.321 109.619 134.705 108.96 134.003C107.749 132.621 106.517 130.538 105.688 128.497C104.838 126.435 104.392 124.352 104.137 122.821C103.882 121.312 103.712 120.376 103.309 120.653C102.183 120.568 101.906 123.863 101.991 125.648C101.567 127.71 102.055 130.325 103.16 132.813C103.712 134.067 104.392 135.257 105.2 136.448C106.007 137.489 106.814 138.531 107.707 139.658C108.557 140.699 109.916 140.912 110.405 142.017C111.149 142.889 112.02 143.697 112.976 144.483C113.996 145.164 115.122 145.759 116.29 146.333C117.501 146.758 118.755 147.205 120.051 147.502C121.347 147.694 122.664 148.034 123.981 148.076C124.916 148.289 125.469 147.545 126.212 148.097C127.062 148.459 128.316 147.864 129.293 147.821C129.718 147.672 130.079 147.651 130.334 147.842C131.333 148.331 132.671 148.097 133.946 147.609H134.01Z" fill="#063312"/>
<path d="M124.576 115.443C126.234 112.68 123.918 108.853 120.242 109.916C117.863 110.596 116.396 113.764 118.054 115.932C119.966 118.42 123.386 117.633 124.576 115.443Z" fill="#063312"/>
<path d="M139.789 118.696C141.446 115.933 139.13 112.106 135.454 113.169C133.075 113.849 131.609 117.017 133.266 119.185C135.178 121.673 138.599 120.886 139.789 118.696Z" fill="#063312"/>
<path d="M111.871 128.156C115.207 128.73 118.521 129.496 121.857 130.282C125.171 131.069 128.507 131.834 131.906 132.153C132.65 132.259 138.301 134.045 138.238 132.557C138.45 131.537 137.536 131.048 137.069 130.644C136.219 128.964 134.435 128.858 133.16 127.901C132.862 127.582 132.395 128.156 132.225 127.582C131.29 126.116 129.824 126.115 128.422 125.86C128.209 125.669 127.933 126.328 127.806 125.86C127.636 125.563 127.211 125.903 126.956 125.86C126.807 125.945 126.722 125.945 126.701 125.712C126.446 124.5 125.277 125.712 124.768 125.201C124.385 124.861 123.981 125.201 123.556 125.201C123.132 124.968 123.11 124.968 122.452 125.201C121.219 124.67 119.668 125.456 118.394 124.946C117.841 125.053 115.207 125.329 113.231 125.797C111.234 126.286 109.895 126.923 111.871 128.156Z" fill="#063312"/>
<path d="M165.9 72.1826C165.327 70.8008 164.434 69.5253 164.222 68.2711C163.627 66.5278 162.65 65.4862 161.608 64.2319C161.12 63.4028 160.865 62.9989 160.504 62.5738C160.143 62.1486 159.718 61.7021 158.698 61.0219C157.805 60.044 156.913 59.0236 155.744 58.3433C154.618 57.5993 153.514 56.8552 152.239 56.3875C151.623 56.1324 151.007 55.856 150.391 55.6009C149.774 55.3458 149.094 55.2183 148.457 55.027C147.798 54.8356 147.161 54.6443 146.545 54.4529C145.908 54.2829 145.228 54.1979 144.59 54.0278C144.08 54.0278 143.082 53.8577 141.765 53.9428C141.106 54.0065 140.383 54.0703 139.576 54.1554C139.194 54.1979 138.769 54.2404 138.365 54.2829C137.94 54.3467 137.537 54.4955 137.112 54.6018C136.262 54.8356 135.391 55.0694 134.477 55.3246C133.585 55.5797 132.756 56.0686 131.885 56.43C130.164 57.1528 128.528 58.0669 127.232 59.1299C124.576 61.2132 123.004 63.4029 122.643 64.2532C122.303 65.1673 123.238 64.6996 126.403 63.1265C127.529 62.4037 128.677 61.7234 129.867 61.1495C131.035 60.5542 132.395 60.2566 133.691 59.8102C136.304 58.9598 139.024 58.811 141.658 58.8748C146.949 59.2999 151.942 61.9785 155.32 66.124C158.634 70.2907 160.61 75.6691 160.27 81.0262C160.227 81.6853 160.227 82.3655 160.142 83.0246L159.739 84.9804L159.548 85.9583L159.187 86.9149L158.485 88.8495C157.508 91.4643 156.042 93.6326 154.194 95.6309C153.79 96.0773 152.558 97.1616 150.815 98.3095C149.052 99.4575 146.736 100.563 144.378 101.265C142.019 101.987 139.682 102.306 138.025 102.455C136.368 102.604 135.348 102.731 135.603 103.135C135.539 103.667 136.368 104.071 137.473 104.39C138.578 104.645 139.959 104.73 140.915 104.772C143.082 105.304 145.908 105.027 148.67 104.092C151.453 103.178 154.151 101.647 156.509 100.053C157.784 99.3087 158.188 97.8843 159.335 97.3741C161.396 96.0136 163.181 93.7389 164.286 91.2516C164.795 89.9761 165.412 88.6794 165.773 87.2976C166.049 85.8732 166.453 84.4702 166.559 83.0458C166.793 82.0254 166.049 81.4302 166.601 80.6011C167.026 79.6657 166.368 78.3051 166.304 77.2422C166.155 76.7745 166.091 76.3919 166.304 76.0943C166.835 74.9888 166.368 73.5645 165.9 72.1614V72.1826Z" fill="#063312"/>
<path d="M130.185 69.4829C127.848 70.312 126.616 73.5858 128.422 75.6267C130.504 77.9864 133.861 76.9447 134.902 74.6913C136.347 71.8214 133.797 68.1648 130.207 69.4616L130.185 69.4829Z" fill="#063312"/>
<path d="M145.589 71.6723C143.252 72.5014 142.019 75.7753 143.825 77.8161C145.908 80.1758 149.264 79.1342 150.305 76.8807C151.75 74.0108 149.201 70.3543 145.61 71.6511L145.589 71.6723Z" fill="#063312"/>
</svg>
