<svg width="250" height="250" viewBox="0 0 250 250" fill="none" xmlns="http://www.w3.org/2000/svg">
<path d="M0 60C0 26.8629 26.8629 0 60 0H190C223.137 0 250 26.8629 250 60V190C250 223.137 223.137 250 190 250H0V60Z" fill="#DEECDC"/>
<path d="M214.042 141.309C213.581 139.134 212.561 136.593 210.964 134.552C209.406 132.473 207.29 130.914 205.597 130.298C203.885 129.663 202.807 129.721 203.019 130.086C202.884 130.548 203.577 131.03 204.366 131.626C205.154 132.223 206.039 132.955 206.54 133.551C207.424 135.149 208.483 136.862 209.252 138.806C210.041 140.731 210.426 142.907 210.118 144.716C209.887 145.582 210.368 146.506 209.714 147.064C209.233 147.584 208.733 148.277 208.233 148.874C207.732 149.451 207.271 150.01 206.732 150.472C205.655 151.415 204.346 152.262 202.692 152.705C202.076 152.705 201.903 153.494 201.287 153.128C200.691 152.974 199.902 153.494 199.191 153.532C198.883 153.667 198.633 153.705 198.459 153.494C197.767 152.936 196.901 153.051 195.92 153.128C194.843 153.244 194.15 153.436 193.65 153.051C192.938 152.551 192.207 152.551 191.437 152.069C190.783 151.242 190.783 151.357 189.725 150.414C189.014 149.028 188.321 147.565 187.917 145.929C187.513 144.293 187.494 142.464 188.109 140.828C188.206 140.192 188.59 138.21 190.072 136.169C191.495 134.11 194.092 132.185 196.709 131.299C199.306 130.356 201.749 130.356 202.634 130.163C203.077 130.048 203.154 129.855 202.634 129.548C202.134 129.24 201.037 128.797 199.133 128.624C193.457 128.701 187.878 131.857 185.108 137.074C183.935 135.553 181.722 135.13 180.087 134.09C179.683 133.744 179.106 134.187 178.856 133.648C177.605 132.185 175.701 131.934 173.912 131.492C173.623 131.299 173.296 131.819 173.123 131.376C172.892 131.068 172.373 131.318 172.026 131.222C171.853 131.261 171.718 131.261 171.699 131.049C171.314 129.932 169.871 130.799 169.179 130.279C168.659 129.913 168.159 130.125 167.621 130.086C167.043 129.798 167.043 129.817 166.197 129.913C164.581 129.24 162.638 129.663 160.945 129.009C160.252 129.009 156.867 128.797 154.327 128.855C153.173 128.855 152.192 128.989 151.749 129.124C152.288 123.773 151.422 118.152 149.325 113.128C149.037 112.165 148.575 111.549 148.171 110.953C147.94 110.587 147.728 110.221 147.536 109.836C149.748 107.026 152.326 104.485 154.981 102.059C157.655 99.6725 160.137 97.4588 163.196 94.7446C163.484 94.5329 164.639 93.7051 165.812 92.8389C167.909 94.7446 170.91 96.1498 173.892 96.2268C175.47 96.3038 176.99 96.0728 178.298 95.8033L179.202 95.6108L179.644 95.5146L180.241 95.3606C181.068 95.1873 181.78 94.8601 182.511 94.5521C183.127 94.2441 184.858 93.4741 186.551 91.9149C188.263 90.3942 189.937 88.1421 190.937 85.6781C191.938 83.2142 192.207 80.5386 191.842 78.7099C191.495 76.8812 190.86 75.9572 190.687 76.3422C190.226 76.4769 190.187 77.3432 190.091 78.3441C189.995 79.3451 189.841 80.5193 189.571 81.27C188.648 82.9062 187.705 84.7349 186.397 86.4481C185.089 88.1228 183.377 89.6243 181.607 90.2595C180.722 90.452 180.145 91.3952 179.317 91.0102C179.106 90.9717 178.99 90.9525 178.721 90.9332C178.452 90.9332 178.202 90.8947 177.951 90.8755C177.451 90.8755 176.99 90.8562 176.566 90.837C175.701 90.837 174.893 90.7792 174.142 90.7022C172.642 90.529 171.237 90.0478 169.948 89.0275C169.583 88.604 168.89 88.7965 168.833 88.1421C168.621 87.5838 167.794 87.1796 167.37 86.6214C167.12 86.4289 166.947 86.2171 167.043 85.9669C167.12 85.1392 166.659 84.3692 166.043 83.5992C165.658 83.272 165.274 82.579 165.447 81.8475C165.678 80.8273 165.37 79.9996 165.485 78.9601C165.908 77.8436 165.851 77.8244 166.062 76.3614C166.87 74.9947 167.736 73.4933 168.929 72.2036C170.083 70.9139 171.603 69.7781 173.354 69.3739C173.95 69.0852 175.835 68.2575 178.413 68.3922C180.991 68.4692 184.069 69.6819 186.262 71.4528C188.494 73.2045 189.783 75.3605 190.418 76.0342C190.745 76.3614 190.957 76.3229 190.957 75.707C190.957 75.091 190.745 73.8975 189.86 72.1651C186.647 67.1602 180.606 63.9456 174.392 64.8118C171.353 65.2353 168.544 66.5635 166.236 68.4307C163.927 70.3556 162.061 72.7041 160.964 75.7262C160.464 77.1699 160.137 78.5944 160.002 80.0958C159.887 81.6165 159.848 83.1565 160.426 84.9852C160.541 85.3894 160.849 86.0631 160.984 86.2941L161.484 87.2181C161.811 87.8341 162.157 88.4308 162.58 89.0275C162.926 89.5665 163.292 90.0863 163.715 90.5867C162.927 90.9525 162.157 91.4337 161.349 91.7032C160.907 91.7802 160.926 92.4347 160.406 92.2999C158.713 92.3384 157.598 93.5512 156.424 94.5906C156.136 94.6869 156.386 95.2258 155.982 95.0911C155.654 95.0911 155.578 95.5916 155.366 95.8033C155.327 95.9573 155.251 96.0536 155.077 95.9573C154.039 95.6301 154.058 97.1508 153.346 97.3818C152.846 97.5743 152.769 98.0555 152.519 98.4405C152.057 98.71 152.057 98.7292 151.788 99.403C150.556 100.269 150.133 101.963 148.94 102.906C148.69 103.426 147.344 105.698 146.536 107.661C145.67 106.333 144.362 104.966 143.4 103.792C142.688 103.176 142.169 102.637 141.995 102.098C141.014 100.288 138.86 98.4212 136.339 97.016C133.8 95.5916 130.991 94.6676 128.76 93.7629C128.086 93.5127 127.451 93.3202 126.816 93.1469C128.471 86.4481 131.126 79.9033 132.492 73.089C132.588 72.7426 133.107 71.2989 133.492 69.8744C135.762 70.4134 138.148 70.4904 140.553 69.9707C142.092 69.6049 143.573 68.9312 144.9 67.9495C146.189 67.0255 147.401 65.5818 148.075 64.2343C149.344 61.9244 150.441 59.422 151.057 56.6501C151.653 53.8974 151.749 50.6828 150.518 47.7376C149.922 46.2746 149.037 44.9657 148.075 43.8877C147.632 43.368 147.055 42.829 146.42 42.3093C145.785 41.8473 145.15 41.3853 144.477 41.0581C143.9 40.7116 142.284 39.8839 140.11 39.4026C137.936 38.9214 135.224 38.8059 132.684 39.4219C130.145 39.9993 127.855 41.2698 126.586 42.5595C125.316 43.8492 124.912 44.8694 125.335 44.8117C125.701 45.1197 126.432 44.6962 127.278 44.215C128.144 43.7337 129.164 43.2332 129.933 43.0215C131.761 42.8675 133.742 42.6173 135.839 42.7135C137.917 42.7713 140.072 43.3295 141.591 44.369C142.284 44.9272 143.323 44.8694 143.554 45.6972C143.823 46.3517 144.246 47.0831 144.593 47.7953C144.92 48.4883 145.227 49.1428 145.439 49.8358C145.862 51.2025 146.074 52.7424 145.824 54.4364C145.574 55.0139 146.209 55.4759 145.631 55.8993C145.247 56.3806 145.381 57.3045 145.131 57.9783C145.131 58.3055 145.073 58.5558 144.785 58.6328C143.996 59.037 143.727 59.884 143.4 60.8079C143.053 61.8474 142.957 62.5404 142.399 62.8484C141.649 63.2911 141.36 63.9648 140.591 64.4461C139.571 64.6963 139.668 64.7348 138.379 65.3123C136.82 65.3893 135.204 65.4278 133.55 65.1198C131.895 64.8118 130.222 64.0803 128.971 62.8291C128.432 62.4826 126.778 61.3084 125.527 59.1332C124.238 56.9773 123.565 53.8204 123.835 51.087C124.027 48.3343 125.066 46.1014 125.239 45.2159C125.316 44.754 125.181 44.6192 124.681 44.9464C124.181 45.2737 123.334 46.1014 122.411 47.7569C120.102 53.0889 120.737 59.653 124.566 64.3498C126.239 66.3325 128.355 67.8917 130.722 68.9119C130.125 69.7782 129.76 70.8561 129.106 71.6838C128.798 71.9918 129.221 72.4731 128.721 72.6271C127.374 73.5318 127.182 75.014 126.797 76.3999C126.624 76.6117 127.124 76.9197 126.72 77.0159C126.432 77.1699 126.682 77.6127 126.605 77.8629C126.663 77.9976 126.643 78.1131 126.451 78.1131C125.393 78.3441 126.258 79.5376 125.778 80.0573C125.45 80.4423 125.662 80.8658 125.624 81.2893C125.374 81.7128 125.374 81.732 125.508 82.4058C124.912 83.6377 125.374 85.2162 124.796 86.5059C124.854 87.1603 124.681 90.76 125.046 92.7812C123.2 92.5117 121.43 92.5502 119.525 92.6272C115.831 92.6272 115.735 92.5309 111.291 93.8976C108.675 94.4559 106.135 95.3991 103.75 96.6118C102.75 93.5896 101.634 90.5867 100.383 87.6223C99.075 84.5809 97.4975 81.6165 95.4583 79.0179C95.2851 78.7484 94.6887 77.6897 93.9769 76.6502C95.5352 75.9572 97.0165 75.014 98.267 73.6858C99.3443 72.5501 100.191 71.1834 100.768 69.8551C101.056 69.2392 101.307 68.4884 101.537 67.6992C101.691 66.9292 101.864 66.1593 101.864 65.4085C101.941 64.7348 102.038 62.9254 101.576 60.7502C101.114 58.575 100.095 56.0341 98.4978 53.9937C96.9395 51.9147 94.8234 50.3555 93.1304 49.7395C91.4182 49.1043 90.3408 49.1621 90.5524 49.5278C90.4178 49.9898 91.1104 50.471 91.8991 51.0677C92.6879 51.6645 93.5729 52.396 94.073 52.9927C94.958 54.5904 96.0162 56.3036 96.7857 58.2478C97.5745 60.1727 97.9591 62.3479 97.6513 64.1573C97.4205 65.0236 97.9015 65.9475 97.2474 66.5058C96.7664 67.0255 96.2662 67.7185 95.766 68.3152C95.2658 68.8927 94.8041 69.4509 94.2654 69.9129C93.188 70.8561 91.8799 71.7031 90.2254 72.1458C89.6098 72.1458 89.4367 72.9351 88.8211 72.5693C88.2247 72.4153 87.4359 72.9351 86.724 72.9736C86.4162 73.1083 86.1661 73.1468 85.993 72.9351C85.3004 72.3768 84.4347 72.4923 83.4535 72.5693C82.3762 72.6848 81.6836 72.8773 81.1834 72.4923C80.4716 71.9918 79.7406 71.9918 78.9711 71.5106C78.317 70.6829 78.317 70.7984 77.2589 69.8551C76.5471 68.4692 75.8545 67.0062 75.4505 65.37C75.0465 63.7339 75.0272 61.9052 75.6428 60.269C75.739 59.6337 76.1238 57.651 77.6052 55.6106C79.0288 53.5509 81.626 51.626 84.2424 50.7598C86.8395 49.8165 89.2828 49.8165 90.1678 49.624C90.6102 49.5085 90.6872 49.3161 90.1678 49.0081C89.6676 48.7001 88.571 48.2573 86.6664 48.0841C80.8757 48.1611 75.1427 51.4527 72.4301 56.8811C69.8714 62.2131 70.1793 68.7772 73.9115 73.782C74.8926 75.0332 76.1046 76.1112 77.5283 76.9197C78.9134 77.7282 80.7026 78.2286 82.2224 78.2864C84.8388 78.4981 87.5706 78.4596 90.3601 77.8822C90.5717 77.8437 90.7834 77.7666 90.995 77.7089C91.1489 78.8254 91.8414 79.7878 91.9953 80.8851C91.9953 81.2893 92.6494 81.2315 92.3993 81.7128C92.053 83.2335 92.938 84.2152 93.5921 85.3124C93.5921 85.5627 94.1885 85.3894 93.9384 85.7359C93.8422 86.0246 94.3039 86.1209 94.4386 86.3326C94.5732 86.3904 94.631 86.4481 94.4771 86.6021C93.8038 87.4683 95.285 87.6031 95.2273 88.2576C95.2273 88.7196 95.6506 88.835 95.9007 89.1238C95.9584 89.5665 95.9777 89.5665 96.5163 89.913C96.8241 91.0872 98.1516 91.8572 98.4402 93.1084C98.7864 93.4741 100.287 95.3991 101.518 96.8428C101.73 97.093 101.941 97.324 102.153 97.5165C100.576 98.4212 99.0749 99.4222 97.6513 100.539C93.6113 103.734 90.2639 107.699 87.5513 112.127C87.1088 112.916 86.3201 114.571 85.5698 116.824C85.5121 116.785 85.4928 116.747 85.4351 116.708C82.3185 115.669 79.2404 114.456 76.1623 113.243C73.0842 112.031 69.9868 110.837 66.7741 110.029C66.6201 109.971 66.2162 109.817 65.7352 109.605C66.2162 108.835 66.6586 108.027 67.0049 107.18C68.0053 104.716 68.2747 102.04 67.9092 100.211C67.5629 98.3827 66.9279 97.4588 66.7548 97.8438C66.2931 97.9785 66.2546 98.8447 66.1584 99.8457C66.0622 100.847 65.9084 102.021 65.6391 102.772C64.7156 104.408 63.7729 106.236 62.4647 107.95C62.3493 108.104 62.2146 108.238 62.0799 108.392C61.3489 108.258 60.8295 108.296 60.791 108.72C60.6563 109.085 60.7525 109.374 60.8872 109.644C59.8868 110.568 58.7902 111.357 57.6744 111.761C56.7895 111.954 56.2123 112.897 55.3851 112.512C55.1735 112.473 55.058 112.454 54.7887 112.435C54.5194 112.435 54.2692 112.396 54.0191 112.396C53.5189 112.396 53.0573 112.377 52.634 112.358C51.7683 112.358 50.9603 112.3 50.21 112.223C48.7094 112.05 47.3051 111.569 46.0161 110.548C45.6506 110.125 44.958 110.317 44.9002 109.663C44.6886 109.105 43.8614 108.7 43.4381 108.142C43.188 107.95 43.0149 107.738 43.1111 107.468C43.1881 106.641 42.7263 105.871 42.1107 105.101C41.7259 104.774 41.3412 104.081 41.5143 103.349C41.7452 102.329 41.4374 101.501 41.5528 100.462C41.9761 99.3452 41.9183 99.326 42.1299 97.863C42.9379 96.4963 43.8036 94.9948 44.9964 93.7051C46.1507 92.4154 47.6705 91.2797 49.4212 90.8755C50.0176 90.5867 51.9029 89.759 54.4808 89.8938C57.0587 89.9708 60.1369 91.1835 62.33 92.9544C64.5617 94.7061 65.8507 96.862 66.4855 97.5358C66.8126 97.863 67.0242 97.8245 67.0242 97.2085C67.0242 96.5925 66.8125 95.3991 65.9276 93.6666C62.7148 88.6618 56.674 85.4472 50.4601 86.3134C47.4205 86.7369 44.6117 88.0651 42.3031 89.9323C39.9946 91.8572 38.1284 94.2056 37.0318 97.2278C36.5316 98.6715 36.2045 100.096 36.0699 101.597C35.9544 103.118 35.916 104.658 36.4932 106.487C36.6086 106.891 36.9164 107.565 37.051 107.796L37.5512 108.72C37.8783 109.336 38.2246 109.932 38.6478 110.529C39.0326 111.126 39.4366 111.723 39.9368 112.281C40.3792 112.858 40.8987 113.417 41.4567 113.936C43.5729 116.073 46.8049 117.671 49.9984 117.748C51.5759 117.825 53.0957 117.594 54.4039 117.324L55.3081 117.132L55.7506 117.035L56.347 116.881C57.1742 116.708 57.886 116.381 58.6171 116.073C59.2327 115.765 60.9641 114.995 62.6571 113.436C62.9456 113.166 63.2535 112.858 63.5421 112.55C64.1 112.897 64.6579 113.224 65.1196 113.667C65.3697 114.013 65.8891 113.571 65.9853 114.11C66.6972 115.572 68.1015 115.823 69.4097 116.246C69.6021 116.439 69.9291 115.9 69.9868 116.342C70.1215 116.65 70.5448 116.4 70.7949 116.477C70.9296 116.419 71.0257 116.439 71.0257 116.65C71.1219 117.786 72.3724 116.881 72.8149 117.42C73.1419 117.786 73.5651 117.555 73.9691 117.594C74.3539 117.882 74.3539 117.863 75.0272 117.748C76.143 118.421 77.7013 117.94 78.8748 118.614C79.4135 118.614 81.953 118.749 83.9153 118.633C84.3578 118.595 84.7618 118.556 85.1081 118.498C84.4925 120.693 83.9537 123.291 83.8191 126.179C83.6074 131.107 84.6464 136.67 86.8011 141.347C86.4163 141.405 86.0315 141.463 85.6467 141.444C85.3004 141.367 85.2812 141.963 84.8964 141.655C83.5882 141.097 82.6263 141.829 81.6644 142.387C81.4335 142.387 81.6067 142.945 81.2989 142.695C81.0295 142.579 80.9527 143.022 80.7795 143.138C80.741 143.253 80.6833 143.33 80.5487 143.176C79.7214 142.522 79.7021 143.927 79.1249 143.888C78.7017 143.888 78.644 144.312 78.4324 144.562C78.0476 144.658 78.0476 144.658 77.8168 145.197C76.7971 145.563 76.4509 146.949 75.4698 147.392C75.2581 147.777 74.0653 149.509 73.4882 151.011C72.8918 152.512 72.7956 153.667 74.4501 153.147C76.2585 151.453 78.3362 150.01 80.4909 148.739C82.6456 147.449 84.8387 146.294 86.9742 144.966C87.1473 144.889 87.7437 144.658 88.4555 144.37C88.9172 145.101 89.4174 145.813 89.956 146.448C94.0923 151.761 99.1519 153.975 100.806 154.379C101.057 154.437 101.21 154.456 101.326 154.456C101.403 154.495 101.499 154.533 101.576 154.591C101.711 155.072 103.038 155.996 104.885 156.747C105.847 157.19 106.963 157.536 108.059 157.825C106.751 158.71 106.578 160.347 105.751 161.559C105.462 161.867 105.943 162.291 105.443 162.483C104.154 163.426 104.096 164.851 103.846 166.179C103.692 166.391 104.231 166.641 103.827 166.757C103.557 166.93 103.827 167.315 103.808 167.565C103.865 167.7 103.885 167.796 103.673 167.815C102.615 168.104 103.615 169.182 103.173 169.702C102.884 170.087 103.134 170.472 103.154 170.857C102.942 171.28 102.942 171.28 103.154 171.915C102.673 173.128 103.307 174.572 102.826 175.842C102.884 176.285 103.019 178.133 103.269 179.846C102.98 179.788 102.73 179.731 102.422 179.673C100.229 179.346 97.4974 179.423 95.0157 180.212C92.534 180.963 90.3216 182.387 89.1673 183.773C87.9938 185.159 87.6667 186.198 88.0707 186.102C88.4555 186.391 89.1481 185.91 89.9753 185.371C90.8025 184.832 91.803 184.254 92.534 184.004C94.3424 183.715 96.3047 183.33 98.4016 183.273C100.479 183.196 102.653 183.581 104.25 184.505C104.981 185.024 106.02 184.89 106.309 185.698C106.636 186.333 107.097 187.026 107.482 187.719C107.867 188.393 108.213 189.009 108.463 189.702C108.983 191.03 109.31 192.57 109.156 194.264C108.944 194.841 109.617 195.284 109.06 195.727C108.713 196.227 108.925 197.151 108.713 197.844C108.713 198.172 108.694 198.422 108.406 198.518C107.636 198.961 107.444 199.827 107.174 200.77C106.905 201.829 106.847 202.541 106.328 202.868C105.616 203.369 105.366 204.062 104.635 204.601C103.634 204.928 103.731 204.967 102.48 205.621C100.941 205.814 99.325 205.968 97.6321 205.756C95.9583 205.563 94.227 204.967 92.9188 203.812C92.3609 203.504 90.6294 202.445 89.225 200.366C87.7821 198.306 86.8972 195.207 86.9742 192.455C86.9742 189.702 87.8399 187.392 87.9746 186.506C88.0323 186.044 87.8592 185.91 87.3975 186.275C86.9357 186.641 86.1277 187.527 85.3197 189.24C83.3959 194.707 84.4732 201.232 88.6286 205.64C92.7456 209.894 98.998 211.877 104.981 210.106C106.501 209.625 107.924 208.855 109.175 207.796C110.406 206.776 111.503 205.255 112.08 203.869C113.177 201.482 114.1 198.903 114.523 196.093C114.927 193.302 114.793 190.106 113.369 187.238C112.676 185.813 111.695 184.562 110.656 183.561C110.175 183.08 109.56 182.58 108.906 182.098C108.252 181.675 107.578 181.251 106.866 180.982C106.636 180.866 106.193 180.674 105.674 180.481C106.193 177.748 106.809 175.034 107.482 172.32C108.252 169.105 108.983 165.871 109.348 162.599C109.425 162.233 109.848 160.693 110.118 159.249C110.175 158.922 110.214 158.614 110.252 158.325C110.676 158.402 111.08 158.499 111.445 158.556C115.543 159.711 121.122 159.577 126.605 157.902C129.106 157.17 131.53 156.054 133.819 154.745C133.819 154.822 133.838 154.899 133.877 154.976C135.628 156.824 137.263 158.845 138.879 160.847C140.495 162.849 142.13 164.851 144.035 166.603C144.227 166.814 144.958 167.835 145.728 168.682C145.862 168.836 146.016 168.97 146.151 169.124C145.939 169.278 145.728 169.413 145.535 169.567C143.227 171.492 141.361 173.84 140.264 176.863C139.764 178.306 139.437 179.731 139.302 181.232C139.187 182.753 139.148 184.293 139.725 186.121C139.841 186.526 140.149 187.199 140.283 187.43L140.783 188.354C141.11 188.97 141.457 189.567 141.88 190.164C142.265 190.761 142.669 191.357 143.169 191.916C143.611 192.493 144.131 193.051 144.689 193.571C146.805 195.708 150.037 197.305 153.23 197.382C154.808 197.459 156.328 197.228 157.636 196.959L158.54 196.766L158.983 196.67L159.579 196.516C160.406 196.343 161.118 196.016 161.849 195.708C162.465 195.4 164.196 194.63 165.889 193.07C167.601 191.55 169.275 189.298 170.275 186.834C171.276 184.37 171.545 181.694 171.18 179.865C170.833 178.037 170.199 177.113 170.025 177.498C169.564 177.632 169.525 178.499 169.429 179.5C169.333 180.501 169.179 181.675 168.91 182.426C167.986 184.062 167.043 185.89 165.735 187.604C164.427 189.278 162.715 190.78 160.945 191.415C160.06 191.608 159.483 192.551 158.656 192.166C158.444 192.127 158.329 192.108 158.059 192.089C157.79 192.089 157.54 192.05 157.29 192.05C156.79 192.05 156.328 192.031 155.905 192.012C155.039 192.012 154.231 191.954 153.481 191.877C151.98 191.704 150.576 191.223 149.287 190.202C148.921 189.779 148.229 189.971 148.171 189.317C147.959 188.759 147.132 188.354 146.709 187.796C146.459 187.604 146.285 187.392 146.382 187.122C146.459 186.295 145.997 185.525 145.381 184.755C144.996 184.428 144.612 183.735 144.785 183.003C145.016 181.983 144.708 181.155 144.823 180.116C145.247 178.999 145.189 178.98 145.401 177.517C146.209 176.15 147.074 174.649 148.267 173.359C149.421 172.069 150.941 170.934 152.692 170.529C153.288 170.241 155.173 169.413 157.751 169.548C160.329 169.625 163.407 170.837 165.601 172.608C167.832 174.36 169.121 176.516 169.756 177.19C170.083 177.517 170.295 177.478 170.295 176.863C170.295 176.247 170.083 175.053 169.198 173.321C165.985 168.316 159.945 165.101 153.731 165.967C151.691 166.256 149.748 166.968 147.998 167.969C148.325 166.545 147.305 165.659 147.036 164.466C147.036 164.119 146.439 164.273 146.632 163.831C146.824 162.464 145.939 161.771 145.227 160.982C145.189 160.77 144.689 161.059 144.862 160.693C144.92 160.424 144.496 160.443 144.342 160.308C144.208 160.308 144.15 160.25 144.266 160.096C144.746 159.192 143.419 159.442 143.361 158.884C143.304 158.479 142.9 158.518 142.63 158.345C142.496 157.998 142.476 157.998 141.957 157.863C141.476 156.959 140.148 156.766 139.629 155.842C139.244 155.669 137.494 154.649 136.012 154.071C135.801 153.994 135.589 153.917 135.397 153.859C137.571 152.474 139.591 150.934 141.399 149.297C142.399 148.335 143.227 147.295 143.958 146.275C144.631 145.217 145.324 144.273 146.132 143.484C147.613 141.694 148.96 139.576 149.96 137.19C150.883 134.957 151.537 132.512 151.884 129.99C152.076 130.24 152.384 130.51 152.923 130.799C157.213 131.973 161.522 133.186 165.812 134.475C170.122 135.746 174.431 136.997 178.817 137.863C179.394 138.017 182.222 138.96 184.377 139.422C182.665 144.389 183.242 150.067 186.57 154.533C187.551 155.784 188.763 156.862 190.187 157.671C191.572 158.479 193.361 158.98 194.881 159.038C197.498 159.249 200.229 159.211 203.019 158.633C205.77 158.056 208.733 156.805 210.926 154.475C212.003 153.34 212.85 151.973 213.427 150.645C213.715 150.029 213.965 149.278 214.196 148.489C214.35 147.719 214.523 146.949 214.523 146.198C214.6 145.525 214.697 143.715 214.235 141.54L214.042 141.309ZM116.139 125.505C115.62 125.544 115.12 125.563 114.696 125.505C114.639 125.505 114.581 125.505 114.523 125.505C115.043 125.486 115.581 125.486 116.139 125.505ZM146.035 128.989C145.535 134.552 143.284 139.788 139.648 144.235C139.206 144.755 138.321 145.794 137.051 147.007C137.205 143.965 135.666 140.115 134.262 136.882C133.935 135.938 132.973 135.534 132.857 134.668C132.299 133.07 131.184 131.549 129.702 130.298C128.452 129.22 126.97 128.373 125.451 127.7C126.143 127.449 126.778 127.064 127.374 126.602C128.721 126.333 130.068 125.255 131.01 123.811C132.049 122.252 132.665 120.327 133.03 118.537C133.319 117.613 132.646 116.824 133.03 116.054C133.396 114.456 133.088 112.608 132.203 110.914C131.318 109.22 129.856 107.757 128.259 106.698C127.759 106.179 127.105 106.602 126.816 105.948C126.374 105.447 125.393 105.409 124.739 105.236C124.412 105.236 124.181 105.178 124.085 104.928C123.623 104.235 122.68 104.061 121.757 104.061C120.833 104.061 119.871 104.215 119.121 104.023C117.967 103.753 117.101 104.177 116.101 104.427C114.87 104.504 114.831 104.504 113.446 105.313C111.772 105.755 110.233 106.872 109.117 108.258C107.982 109.624 107.232 111.164 106.482 112.704C106.347 113.32 105.847 115.245 106.232 117.497C106.501 119.422 107.578 121.405 108.925 122.656C110.002 124.119 111.503 125.197 113.196 125.563C112.619 125.678 112.08 125.871 111.484 126.025C110.195 126.121 110.156 126.14 108.675 126.91C105.058 127.873 102.538 130.491 99.7676 132.743C99.3251 133.263 98.0554 134.803 96.8433 136.824C95.8237 138.498 94.8041 140.462 93.9384 142.291C93.3805 143.138 92.8034 144.023 92.1877 144.966C91.6875 144.254 91.2258 143.503 90.8025 142.733C90.8602 142.599 90.8795 142.445 90.8025 142.31C90.7063 142.002 90.5139 141.848 90.3023 141.732C89.2057 139.519 88.5324 137.093 88.0322 134.591C87.4743 131.838 87.4743 129.028 87.686 126.256C87.9938 123.484 88.6864 120.77 89.6675 118.152C90.7641 115.592 92.13 113.128 93.8615 110.895C95.6506 108.739 97.5552 106.641 99.8638 105.005C100.96 104.119 102.211 103.426 103.384 102.656C104.654 102.021 105.866 101.27 107.213 100.789C109.81 99.5955 112.561 98.8832 115.312 98.4405C120.833 97.5743 126.489 98.4405 131.357 101.039C136.224 103.619 140.225 107.815 142.803 112.781C145.401 117.728 146.574 123.426 146.055 128.97L146.035 128.989Z" fill="#063312"/>
<path d="M71.0641 149.624C69.5058 147.545 67.3897 145.986 65.6967 145.37C63.9845 144.735 62.9072 144.793 63.1188 145.159C62.9842 145.621 63.6767 146.102 64.4654 146.699C65.2542 147.295 66.1392 148.027 66.6393 148.623C67.5243 150.221 68.5825 151.934 69.352 153.879C70.1408 155.803 70.5254 157.979 70.2176 159.788C69.9868 160.654 70.4678 161.578 69.8137 162.137C69.3327 162.656 68.8325 163.349 68.3323 163.946C67.8321 164.523 67.3705 165.082 66.8318 165.544C65.7545 166.487 64.4462 167.334 62.7917 167.777C62.1761 167.777 62.003 168.566 61.3874 168.2C60.791 168.046 60.0022 168.566 59.2903 168.604C58.9825 168.739 58.7324 168.778 58.5593 168.566C57.8667 168.008 57.0011 168.123 56.0199 168.2C54.9426 168.316 54.2499 168.508 53.7497 168.123C53.0379 167.623 52.3069 167.623 51.5374 167.141C50.8833 166.314 50.8833 166.429 49.8252 165.486C49.1134 164.1 48.4208 162.637 48.0168 161.001C47.6128 159.365 47.5936 157.536 48.2092 155.9C48.3054 155.264 48.6901 153.282 50.1715 151.241C51.5951 149.182 54.1923 147.257 56.8087 146.391C59.4058 145.447 61.8491 145.447 62.7341 145.255C63.1765 145.139 63.2535 144.947 62.7341 144.639C62.2339 144.331 61.1373 143.888 59.2327 143.715C53.4228 143.792 47.709 147.083 44.9964 152.512C42.4377 157.844 42.7456 164.408 46.4778 169.413C47.4589 170.664 48.6709 171.742 50.0945 172.55C51.4797 173.359 53.2689 173.859 54.7887 173.917C57.4243 174.129 60.1369 174.09 62.9264 173.513C65.6774 172.935 68.6401 171.684 70.8333 169.355C71.9106 168.219 72.7572 166.853 73.3343 165.524C73.6229 164.908 73.8729 164.158 74.1038 163.368C74.2577 162.598 74.4308 161.829 74.4308 161.078C74.5077 160.404 74.604 158.595 74.1423 156.419C73.6806 154.244 72.6609 151.703 71.0641 149.663V149.624Z" fill="#063312"/>
</svg>
