<svg width="250" height="250" viewBox="0 0 250 250" fill="none" xmlns="http://www.w3.org/2000/svg">
<path d="M0 60C0 26.8629 26.8629 0 60 0H190C223.137 0 250 26.8629 250 60V190C250 223.137 223.137 250 190 250H0V60Z" fill="#DEECDC"/>
<path d="M205.811 75.8654C205.382 71.5721 203.4 66.5019 200.049 62.7606C198.415 60.8593 196.514 59.3055 194.573 58.1401C193.572 57.5472 192.734 57.1179 191.631 56.6681C190.609 56.3001 189.731 56.0957 188.934 55.9322C187.851 55.7277 186.952 55.605 186.216 55.5437C185.93 51.2299 184.827 46.7935 182.191 42.9704C179.269 38.5749 174.406 35.5696 169.523 34.4656L167.684 34.0566L166.009 33.7705L162.658 33.2184C160.43 32.8913 158.183 32.5438 155.935 32.2576C146.965 31.1127 137.955 30.3153 128.903 30.0904C110.82 29.5998 92.6763 31.0718 75.0635 35.3446C73.1224 35.8762 67.667 36.9393 61.1081 40.2922C57.8798 41.9891 54.3858 44.422 51.5253 47.7135C48.6647 50.9642 46.3559 55.053 45.4364 59.5508C44.4557 64.0281 45.1912 68.8326 47.0097 72.4717C48.7873 76.1517 51.3005 78.8708 53.5685 80.7312C55.8365 82.6121 57.9002 83.6956 59.2283 84.2681C60.5769 84.8201 61.1694 84.9427 60.7812 84.5543C61.0264 84.0636 58.6562 82.653 56.1226 80.4041C53.5277 78.1961 50.9736 74.9455 49.8703 72.3695C48.726 69.5073 48.0926 66.0522 48.6034 62.5357C49.0734 58.9988 50.6263 55.4415 52.9556 52.3749C57.2872 46.4255 64.3978 42.95 71.1813 41.1918C65.3785 59.3873 63.4783 78.6254 65.7463 97.4547C66.2571 101.605 67.34 106.287 71.2631 108.413C75.4926 110.703 81.275 108.699 84.1968 105.101C87.1187 101.503 87.7316 96.7596 87.7725 92.2618C87.8134 87.7641 87.3435 83.2254 88.4672 78.8503C89.1619 76.1312 90.5309 73.4326 92.9828 71.7766C95.4347 70.1001 99.0921 69.7526 101.483 71.4699C104.139 73.3917 104.67 77.2556 107.674 78.7072C109.921 79.7703 112.802 78.9934 114.621 77.3988C116.439 75.8041 117.441 73.5757 118.217 71.3881C120.689 64.4166 121.67 57.0157 121.098 49.717C120.934 47.6317 120.648 45.4851 121.404 43.5224C122.16 41.5597 124.347 39.8628 126.574 40.3126C128.106 40.6193 129.25 41.8868 129.761 43.2566C130.272 44.6264 130.252 46.0984 130.231 47.5295C130.17 52.1499 130.088 56.7704 130.027 61.3908C129.986 64.4371 129.966 67.6059 131.314 70.4068C132.683 73.1872 135.85 75.4974 139.14 75.0272C141.653 74.6797 143.655 72.8192 144.718 70.693C145.78 68.5872 146.046 66.2157 146.291 63.9055C147.231 55.1757 148.171 46.446 149.111 37.7367C153.647 38.1456 158.775 38.3295 162.658 39.2291C164.926 39.7402 166.969 40.0264 168.603 40.3535C170.259 40.8033 171.914 41.2327 173.446 42.214C175.142 43.4815 175.837 44.2584 176.613 45.1375C177.41 46.0166 178.288 47.0389 179.514 49.5535C181.517 55.3802 181.21 62.2495 179.29 68.5872C178.309 71.7561 176.858 74.8228 174.856 77.3988C173.834 78.6663 172.67 79.7908 171.382 80.5881C170.054 81.4263 168.849 81.6921 166.928 81.9579C164.333 82.5508 156.569 84.1454 146.986 85.5765C137.403 87.0281 126.022 88.2547 116.317 88.8272C106.611 89.5018 98.6426 89.4814 95.966 89.6859C94.6174 89.8085 94.6174 89.9925 96.3542 90.2583C97.3349 90.4014 98.6426 90.5854 100.359 90.8307C102.177 91.0352 104.507 91.2601 107.367 91.4441C125.205 91.7507 143.165 90.5036 160.941 87.7436C163.168 87.3961 165.375 87.0485 167.602 86.6396L169.257 86.3534C169.829 86.2512 170.688 86.0263 171.341 85.8014C172.69 85.2698 173.957 84.5952 175.019 83.7774C179.31 80.4654 181.742 76.0699 183.56 71.5926C185.297 67.0744 186.257 62.2903 186.237 57.3837C186.237 57.2815 186.237 57.1588 186.237 57.0566C188.157 57.7926 191.079 58.6717 192.632 60.021C195.186 62.3721 197.985 65.5001 199.722 69.405C201.52 73.269 201.97 77.8077 201.03 81.6308C200.499 83.5117 200.662 85.4539 199.579 86.7419C197.802 89.5632 195.799 92.4049 193.225 94.9605C190.732 97.5774 187.647 99.8672 184.316 101.748C183.029 102.239 182.702 103.281 181.435 103.302C180.189 103.568 178.636 104.692 177.246 105.203C176.654 105.53 176.164 105.755 175.734 105.612C172.731 105.326 168.338 108.086 164.823 108.311C162.29 108.536 160.471 109.272 158.203 109.783C156.378 109.973 154.342 110.396 152.094 111.05C144.432 112.011 136.77 114.567 129.107 117.408C127.779 118.104 123.529 120.087 119.341 123.746C115.111 127.324 111.106 132.68 109.451 137.792C109.043 139.018 108.757 140.183 108.552 141.287C104.527 141.042 100.645 141.615 97.8866 143.168C97.4575 143.414 97.0693 143.598 96.7015 143.863C96.3746 144.129 96.0477 144.395 95.7412 144.64C95.1487 145.09 94.74 145.622 94.4539 146.01C93.8614 146.807 93.7388 147.175 94.1066 147.053C94.0657 147.135 94.0044 147.196 93.9431 147.278C93.8001 147.359 93.5958 147.503 93.2689 147.871C92.8193 148.382 92.2677 149.22 91.7773 150.447C91.2869 151.653 90.96 153.227 90.674 154.985C90.0405 160.239 90.204 165.535 90.3879 170.83C90.6331 176.125 91.103 181.42 91.7773 186.674C92.4516 191.949 93.371 197.182 94.4948 202.396C95.0465 204.992 95.6799 207.589 96.3542 210.165C96.7015 211.514 97.1306 212.966 97.8866 214.458C98.6222 215.93 99.7868 217.627 101.748 218.71C103.669 219.814 106.182 219.896 108.042 219.242C109.942 218.608 111.474 217.504 112.7 216.053C115.029 213.17 115.622 210.042 116.235 207.507C117.4 202.334 118.401 197.121 119.259 191.908C120.975 181.481 122.12 171.054 123.182 160.689C123.243 159.544 123.999 156.314 123.325 151.653C123.141 150.487 122.814 149.24 122.283 147.993C122.16 147.687 121.997 147.38 121.834 147.053C121.67 146.746 121.527 146.48 121.2 145.99C120.832 145.622 120.505 145.192 120.138 144.845C119.729 144.559 119.402 144.313 119.034 144.088C116.46 142.678 113.987 142.064 111.433 141.615C111.229 141.574 111.004 141.553 110.8 141.533C113.334 133.764 120.117 127.344 127.698 123.521C136.034 119.412 145.678 117.838 155.425 116.284C165.171 114.751 175.448 113.013 184.929 108.392C189.629 106.062 194.165 103.016 197.761 98.9472C201.418 94.9401 204.033 89.9312 205.157 84.5748C205.402 83.4094 206.158 80.1383 205.709 75.8654H205.811Z" fill="#063312"/>
</svg>
