<svg width="250" height="250" viewBox="0 0 250 250" fill="none" xmlns="http://www.w3.org/2000/svg">
<path d="M0 60C0 26.8629 26.8629 0 60 0H190C223.137 0 250 26.8629 250 60V190C250 223.137 223.137 250 190 250H0V60Z" fill="#DEECDC"/>
<path d="M207.88 108.917C207.758 108.362 207.62 107.513 207.377 106.439C207.048 105.399 206.65 104.135 206.2 102.679C205.975 101.952 205.732 101.189 205.473 100.392C205.248 99.578 204.919 98.7637 204.52 97.932C203.776 96.2688 202.962 94.4669 202.113 92.5784C200.088 88.992 197.923 85.059 195.118 81.5592L193.127 78.8911C192.434 78.0248 191.655 77.2451 190.927 76.4308C190.841 76.3441 190.772 76.2575 190.702 76.1709C185.993 70.4014 180.33 64.8745 173.646 59.6248C173.854 59.9367 174.062 60.2485 174.27 60.5431C169.127 54.9469 164.192 51.7416 158.08 48.519C157.162 48.0166 156.383 47.5315 155.655 47.1849C154.911 46.8558 154.253 46.5439 153.63 46.284C152.4 45.7642 151.396 45.2444 150.27 44.8979C149.145 44.5514 147.95 44.1876 146.392 43.7025C144.85 43.252 142.877 42.9228 140.314 42.3683C134.652 41.2595 128.834 40.7917 123.033 41.0862C117.249 41.4847 111.483 42.2991 105.89 43.8584C94.5485 46.6132 83.9513 52.2267 74.6528 59.4169C72.9385 60.803 69.6139 63.6444 65.6313 67.8718C61.666 72.0993 57.1293 77.7822 53.0948 84.6259C49.0256 91.4349 45.5971 99.4567 43.4326 107.773C42.3763 111.949 41.6664 116.193 41.2681 120.369C40.9738 124.562 40.8526 128.668 41.2681 132.566C41.8915 140.38 43.9694 147.241 46.2377 152.387C46.8438 153.652 47.3979 154.847 47.9347 155.956C48.5407 157.013 49.0948 157.983 49.597 158.867C50.5493 160.651 51.5883 161.864 52.1597 162.748C53.4064 164.446 53.545 164.359 52.2636 161.899C51.9346 161.275 51.519 160.513 51.0515 159.612C50.6186 158.659 50.0992 157.55 49.5104 156.268C48.8871 155.003 48.3849 153.461 47.7096 151.781C47.3633 150.949 47.1381 150.013 46.8265 149.06C46.5494 148.09 46.1685 147.103 45.9607 146.011C44.1598 139.393 43.3806 132.48 43.6404 125.584C43.9521 118.688 45.3027 111.81 47.4498 105.209C51.7441 91.9547 59.5016 79.8267 69.3196 69.8644C74.2545 64.8919 79.8128 60.5604 85.7867 56.9393C91.7779 53.3355 98.1848 50.4941 104.955 48.7789C118.479 45.1232 132.955 44.6207 146.149 48.9002C159.344 53.093 170.755 62.2237 178.114 73.9705C185.577 85.7001 189.075 99.8205 188.659 113.733C188.244 127.68 183.949 141.454 176.33 153.253C169.248 165.381 158.686 175.136 146.409 181.789C145.024 182.499 142.478 183.798 138.946 185.271C135.396 186.657 130.859 188.234 125.63 189.36C120.401 190.504 114.461 191.214 108.297 191.127C102.15 191.058 95.7779 190.174 89.804 188.494C86.8603 187.697 84.0206 186.675 81.3366 185.514C75.8649 182.239 69.2157 178.15 65.2677 175.759C63.9517 174.685 62.705 173.611 61.6314 172.571C58.5492 169.713 56.3501 167.166 54.9995 165.572C53.5796 163.995 53.0428 163.371 53.3198 164.064C53.112 164.186 53.6142 165.087 54.532 166.507C54.9995 167.2 55.5536 168.067 56.2462 168.95C56.9734 169.834 57.7873 170.787 58.6185 171.792C60.6271 174.096 63.1378 176.435 65.614 178.497C70.4797 184.907 76.0553 190.625 82.3063 194.437C89.5962 198.872 96.5052 202.198 103.085 204.52C103.622 204.763 104.176 204.988 104.747 205.161C106.254 205.646 107.795 206.149 109.353 206.651C110.946 207.136 112.626 207.362 114.306 207.725C115.154 207.881 116.003 208.072 116.851 208.193L119.448 208.418C121.18 208.522 122.929 208.817 124.66 208.713C124.695 208.713 124.712 208.713 124.747 208.713C126.202 208.748 127.639 208.713 129.059 208.644C129.318 208.644 129.578 208.644 129.821 208.644C129.959 208.644 130.08 208.609 130.219 208.609C131.465 208.522 132.712 208.384 133.942 208.21C134.219 208.176 134.513 208.141 134.807 208.124C136.071 208.072 137.249 207.743 138.374 207.396C139.69 207.102 140.989 206.772 142.27 206.391C142.686 206.305 143.084 206.218 143.483 206.166C144.799 205.837 146.166 205.473 147.534 205.092L149.612 204.485L151.656 203.654C153.041 203.065 154.409 202.458 155.811 201.869C157.179 201.211 158.495 200.397 159.863 199.652C162.634 198.196 165.144 196.29 167.742 194.454C169.075 193.57 170.235 192.496 171.465 191.491L175.101 188.424C176.815 186.934 177.283 185.67 178.893 184.647C180.59 183.435 182.356 180.94 183.915 179.155C184.555 178.306 185.127 177.648 185.646 177.353C187.551 176.019 189.334 173.42 191.256 170.804C191.724 170.146 192.192 169.47 192.659 168.812C193.092 168.101 193.508 167.408 193.906 166.733C194.737 165.381 195.551 164.099 196.382 163.008C196.971 162.193 197.542 161.431 197.975 160.651C198.408 159.854 198.789 159.075 199.17 158.312C199.914 156.788 200.642 155.263 201.421 153.652C202.425 151.78 202.789 150.758 203.256 149.649C203.689 148.506 204.209 147.258 205.005 144.677C209.265 133.485 209.767 120.958 207.81 108.882L207.88 108.917Z" fill="#063312"/>
<path d="M153.629 153.963C152.106 150.515 150.062 147.102 148.002 144.156C147.534 143.377 146.876 142.788 146.288 142.216C145.716 141.627 145.145 141.09 144.764 140.449C142.946 137.988 140.383 135.684 137.387 133.899C134.392 132.08 131.05 130.712 127.673 129.655C126.496 129.17 125.699 129.481 124.764 128.927C123.708 128.425 121.976 128.39 120.678 128.182C120.072 128.147 119.604 128.095 119.31 127.887C116.92 126.571 112.349 127.385 109.353 127.229C108.228 127.142 107.258 127.229 106.306 127.402C105.371 127.541 104.453 127.732 103.466 127.939C101.111 128.165 101.094 128.217 98.2366 129.187C94.9812 129.897 91.9337 131.318 89.0247 132.86C86.0983 134.437 83.2932 136.273 80.5227 138.214C79.5357 139.011 76.7132 141.488 73.7523 144.901C71.2934 147.708 68.7999 151.121 66.5835 154.327C64.2979 157.185 61.8737 160.373 59.1552 163.96C67.761 173.714 75.3799 180.54 86.5485 184.231C97.7171 187.904 129.18 190.035 158.841 170.699C158.166 168.187 157.37 165.571 156.452 162.92C156.019 160.235 155.049 157.116 153.629 153.963Z" fill="#063312"/>
<path d="M153.803 87.1031C151.656 83.2048 148.366 79.757 144.608 77.2275C143.344 76.1706 142.236 76.3439 141.284 75.339C140.712 74.8539 139.829 74.5766 138.963 74.2475C138.097 73.9183 137.18 73.6237 136.366 73.3985C135.621 73.2425 135.05 73.0866 134.721 72.7748C134.046 72.2723 133.128 71.9951 132.141 71.7179C131.137 71.458 130.028 71.2328 128.903 71.1461C126.652 70.8862 124.297 70.9382 122.409 70.713C119.587 70.4185 117.492 70.9209 114.998 71.3714C112.037 71.7699 111.985 71.7352 108.47 73.1906C104.488 74.4553 100.765 76.829 97.8558 79.9649C94.9294 83.0662 92.7303 86.7393 91.0334 90.6549C90.5312 92.145 88.9382 96.7536 89.3711 102.506C89.5789 105.347 90.2542 108.431 91.5875 111.203C92.4013 112.953 93.4403 114.582 94.5831 116.02C97.5961 120.317 101.925 123.47 106.843 124.44C117.821 122.344 128.678 125.393 135.708 130.972C139.102 130.573 142.201 129.187 144.92 127.126C147.881 125.549 150.876 122.5 152.989 118.74C155.378 114.634 156.712 109.731 157.162 105.226C157.37 104.1 157.179 102.991 157.127 101.969C157.006 100.946 156.868 99.9762 157.006 99.0579C157.023 95.2289 155.967 90.9841 153.803 87.1031Z" fill="#063312"/>
<path d="M52.7485 112.693C54.6532 106.3 57.3718 100.149 60.7483 94.3971C67.4668 82.8409 76.8692 72.9651 87.8301 65.4458C88.4534 65.0473 90.133 63.9731 92.3494 62.7256C94.5832 61.4955 97.3536 60.0748 100.072 58.8447C102.773 57.6145 105.44 56.6096 107.293 55.8127C109.163 55.0676 110.185 54.34 109.786 54.2707C109.613 53.6296 105.752 54.6172 103.691 55.1543C98.8948 55.6914 92.4187 58.9833 87.1894 61.7207C85.8041 62.3271 84.973 63.54 83.7609 63.8518C79.1203 65.8616 74.5835 69.8465 70.5836 74.0047C69.7698 74.6631 69.7871 75.4601 68.9559 75.8412C68.1421 76.3783 67.4841 77.6431 66.7742 78.4748C66.5145 78.9079 66.272 79.2024 65.9604 79.3064C63.9171 80.3286 62.5492 83.9324 60.9042 85.7862C59.7094 87.207 59.2072 88.5064 58.428 89.979C57.3025 91.573 57.3372 91.6077 56.3848 93.8773C53.5797 98.5553 52.1597 103.944 50.2377 109.141C49.9953 110.164 49.2334 113.161 48.6447 116.886C48.0213 120.611 47.7442 125.064 48.0732 128.771C48.3676 132.479 49.0776 135.442 49.5451 136.395C50.0472 137.348 50.1511 136.308 50.1858 132.081C49.9953 128.823 50.0819 125.566 50.5494 122.326C50.9996 119.104 51.8308 115.846 52.7658 112.658L52.7485 112.693Z" fill="#063312"/>
<path d="M178.685 130.904C177.923 133.554 176.954 135.685 176.763 136.517C176.677 136.933 176.815 137.037 177.248 136.69C177.698 136.361 178.426 135.564 179.378 134.109C181.854 129.327 183.084 124.112 183.638 118.949C184.192 113.768 184.226 108.64 183.776 103.425C183.343 98.2272 182.097 92.9948 180.192 88.1436C179.239 85.7353 178.218 83.379 176.988 81.04C175.759 78.7357 174.391 76.518 172.867 74.4216C172.244 73.4687 169.404 69.2412 166.132 65.9147C164.504 64.2341 162.824 62.7787 161.56 61.8431C160.296 60.9075 159.378 60.5956 159.43 60.9595C158.945 61.5832 161.075 63.6623 162.028 64.9271C163.707 68.1324 167.292 71.8227 169.214 75.6171C169.629 76.6046 170.634 77.1071 170.703 78.06C171.724 81.5598 173.733 84.9557 175.291 88.75C175.447 89.4604 176.14 89.6163 176.001 90.3093C176.036 91.0024 176.677 91.782 176.919 92.4924C177.11 92.7869 177.214 93.0468 177.092 93.272C176.642 94.8833 178.408 96.9971 178.426 98.7643C178.46 100.046 178.928 100.913 179.187 102.039C179.222 103.39 179.257 103.39 179.724 105.071C179.811 108.831 180.694 112.763 180.261 116.714C180.296 117.459 180.348 119.659 180.157 122.362C179.967 125.047 179.447 128.235 178.668 130.886L178.685 130.904Z" fill="#063312"/>
</svg>
