<svg width="250" height="250" viewBox="0 0 250 250" fill="none" xmlns="http://www.w3.org/2000/svg">
<path d="M0 60C0 26.8629 26.8629 0 60 0H190C223.137 0 250 26.8629 250 60V190C250 223.137 223.137 250 190 250H0V60Z" fill="#DEECDC"/>
<path d="M119.963 98.1207V98.6661C120.004 98.8075 119.883 99.1509 120.145 98.9893L122.245 98.3227C123.658 97.8985 125.01 97.4137 126.484 97.0097C127.978 96.6259 129.21 96.3835 130.522 96.3027C133.126 96.1209 135.266 96.7471 136.255 98.3025C136.8 99.0701 137.123 100.141 137.164 101.191C137.204 102.363 136.982 103.474 136.538 104.463C135.67 106.443 133.631 107.837 131.148 108.705C130.582 108.867 129.573 109.19 128.039 109.412C127.655 109.513 125.515 109.695 123.759 109.877C122.426 109.574 122.891 111.028 122.749 111.917C122.709 112.867 122.689 113.836 122.648 114.846C122.507 119.472 122.325 125.108 122.144 130.501C122.103 131.855 122.083 133.188 122.043 134.481C122.023 135.551 121.982 136.622 121.962 137.652C121.962 138.238 121.922 138.803 121.922 139.369V140.217L121.881 140.642V140.844C121.881 140.844 122.002 140.844 122.043 140.864C124.162 140.722 126.201 140.601 128.099 140.48C129.169 140.399 130.158 140.298 131.087 140.238C134.681 139.894 136.78 139.51 136.174 139.248L137.507 139.308C137.567 138.864 137.648 138.399 137.729 137.935C137.991 138.076 138.779 135.773 140.293 129.936L141.221 125.532L141.605 123.714V123.694C141.605 123.694 141.807 123.653 141.888 123.633L142.231 123.573L143.301 123.33C144.108 123.148 144.896 122.946 145.683 122.643C147.258 122.138 148.772 121.411 150.225 120.583C156.04 117.25 160.239 111.392 161.874 104.968C163.57 98.5651 162.803 91.4547 159.472 85.5766C157.796 82.6476 155.495 80.0822 152.789 78.0824C151.457 77.0724 150.003 76.224 148.509 75.4968C147.015 74.81 145.501 74.1232 143.705 73.7394C140.313 73.0324 137.103 73.0324 133.893 73.295C130.683 73.5778 127.514 74.1434 124.364 75.2544L123.779 75.4766C123.476 75.5776 123.133 75.7392 122.79 75.8806C122.123 76.1836 121.437 76.4664 120.811 76.8098C120.67 77.537 120.549 78.244 120.448 78.9914L120.307 80.0216L120.246 80.6276C120.125 82.2234 120.064 83.7586 120.004 85.2938L119.923 89.8791V97.0097V98.1207H119.963Z" fill="#063312"/>
<path d="M140.535 149.751C138.234 146.681 134.378 146.196 131.107 145.873C130.481 145.934 128.563 146.257 126.625 147.247C125.03 148.055 123.476 149.408 122.507 150.883C121.215 152.155 120.306 153.751 120.064 155.65V155.71C119.943 157.003 120.125 158.215 120.508 159.286C120.347 160.599 120.892 162.174 122.002 163.447C123.193 164.881 124.889 165.932 126.524 166.76C127.372 167.265 128.281 166.76 128.947 167.346C130.421 168.133 132.379 168.214 134.135 167.729C135.892 167.325 137.668 166.255 139.102 164.982C139.707 164.598 139.485 163.871 140.192 163.75C140.818 163.447 141.08 162.437 141.403 161.791C141.484 161.447 141.585 161.205 141.888 161.164C142.715 160.801 143.139 159.791 143.2 158.7C143.26 158.175 143.24 157.609 143.2 157.084C143.2 156.559 143.2 156.074 143.281 155.609C143.503 154.236 142.836 153.286 142.312 152.256C141.928 150.923 141.847 150.862 140.535 149.731V149.751Z" fill="#063312"/>
<path d="M179.498 157.669C183.778 152.135 187.574 146.115 190.42 139.631C193.267 133.147 195.164 126.198 195.588 119.108C195.689 118.32 196.012 114.805 195.831 111.674C195.75 110.099 195.588 108.624 195.386 107.614C195.185 106.604 194.821 106.018 194.579 106.22C193.751 106.261 193.65 108.281 193.428 109.351C192.298 111.755 192.621 115.25 191.752 118.017C191.47 118.704 191.975 119.391 191.429 119.916C190.036 122.118 189.754 124.845 189.128 127.511C188.886 127.955 189.411 128.359 188.926 128.642C188.583 129.006 188.765 129.733 188.623 130.238C188.644 130.48 188.623 130.682 188.381 130.723C187.129 131.349 187.775 133.349 187.049 134.359C186.524 135.086 186.625 135.813 186.423 136.581C185.938 137.369 185.938 137.369 185.797 138.581C184.525 140.803 184.222 143.61 182.668 145.832C182.506 146.317 181.941 147.711 181.194 149.408C180.447 151.105 179.498 153.104 178.671 154.821C177.863 156.559 177.156 157.972 177.156 158.659C177.156 159.326 177.762 159.205 179.498 157.69V157.669Z" fill="#063312"/>
<path d="M82.4536 106.988C85.1185 100.706 88.4091 94.6258 92.3862 89.0708C96.3229 83.4956 100.906 78.4456 105.932 73.941C106.498 73.4562 109.122 71.4565 111.646 69.8001C112.877 68.9315 114.088 68.1437 114.896 67.4973C115.724 66.8913 116.047 66.2449 115.784 66.1439C115.441 65.4975 113.564 66.2853 112.473 66.6085C109.768 66.7701 106.801 69.0325 104.095 70.5071C103.369 70.8303 103.167 71.6989 102.399 71.7393C99.775 72.6079 97.6553 74.8904 95.6769 77.1326C95.2327 77.4558 95.475 78.0618 94.8896 78.1426C94.3848 78.3446 94.1829 79.1122 93.8397 79.5566C93.7388 79.8192 93.6378 79.9808 93.3956 79.9606C91.942 80.1424 91.6796 82.3846 90.6702 83.1926C89.9232 83.8188 89.7617 84.5662 89.358 85.3338C88.6917 86.0812 88.6917 86.0812 88.2274 87.3134C86.4711 89.495 85.7846 92.3836 84.2301 94.7672C84.0686 95.2924 83.463 96.767 82.8574 98.6051C82.2315 100.443 81.5855 102.645 81.1414 104.524C80.2935 108.321 80.0714 110.765 82.4536 106.988Z" fill="#063312"/>
<path d="M212.425 102.989C212.021 101.393 210.85 97.0901 208.589 91.9189C206.308 86.768 203.037 80.607 198.293 75.5772C193.771 70.911 189.33 66.77 185.918 63.9825C183.899 62.3059 182.203 61.1545 181.295 60.6899C180.306 59.9627 179.316 59.2759 178.267 58.6295C171.645 54.4077 164.195 51.4585 156.524 50.1253C148.852 48.7315 140.999 48.6911 133.388 49.6809C125.798 50.6909 118.247 52.5493 111.141 55.6803C104.055 58.7911 97.4534 63.0533 91.7805 68.3254C80.3136 78.8294 72.9853 93.3733 70.4416 108.442C70.2801 109.271 70.159 110.483 69.9369 111.977C69.7552 113.492 69.412 115.29 69.3514 117.371C69.2908 118.421 69.2303 119.512 69.1697 120.684C69.1294 121.249 69.1092 121.835 69.0688 122.441C69.0688 122.926 69.0082 123.411 68.9275 123.895C68.6247 125.855 67.7364 127.875 66.2021 129.45C65.556 130.117 64.1833 131.188 63.0931 132.198C61.9424 133.208 60.8118 134.278 59.6611 135.369C57.3799 137.571 55.0986 139.914 52.8779 142.399C48.4365 147.368 44.1364 152.761 40.5026 158.599C38.7058 161.528 37.0504 164.538 35.8997 167.911C35.3546 169.608 34.87 171.426 35.0315 173.648C35.1123 174.698 35.4959 176.193 36.4245 177.223C36.5457 177.365 36.6668 177.466 36.7879 177.587C36.9292 178.031 37.1109 178.536 37.4339 179.061C38.8875 180.94 40.6237 182.011 42.3801 182.96C44.1364 183.869 45.9736 184.536 47.8712 185C49.7689 185.465 51.7272 185.727 53.7864 185.647C55.7648 185.566 57.4808 185.323 59.2977 185.101C62.8711 184.596 66.4039 183.93 69.9167 182.96C71.673 182.475 73.4295 181.91 75.206 181.142L76.498 180.536C76.7403 180.415 77.1239 180.253 77.4872 180.112C78.214 179.809 79.0014 179.546 79.7685 179.284C80.4347 179.102 83.6648 178.375 86.3499 178.375C87.7025 178.375 88.8128 178.556 89.4185 178.718C89.7011 178.758 89.8626 178.819 90.0241 178.839C90.0645 178.88 90.1049 178.9 90.1453 178.94C91.7401 180.031 93.2946 181.203 95.0106 182.112C95.5355 182.415 96.0604 182.697 96.5853 183C96.8275 183.202 97.0496 183.425 97.2918 183.606C97.5341 183.788 97.7966 183.95 98.0388 184.132C98.0388 184.132 97.9985 184.111 97.9783 184.091C97.0092 183.566 96.8881 183.707 97.9177 184.738C98.9473 185.748 101.067 187.747 105.044 190.333C111.343 194.05 118.207 196.898 125.374 198.615C132.561 200.291 140.03 200.857 147.419 200.231C154.828 199.625 162.116 197.706 168.94 194.757C175.763 191.787 182.022 187.727 187.735 183.081C189.128 181.889 190.622 180.778 191.934 179.486L195.891 175.648C197.243 174.415 198.414 172.88 199.686 171.507C200.837 170.012 201.988 168.537 203.037 166.982C207.196 160.74 210.204 153.832 212.203 146.701C216.099 132.42 216.281 117.229 212.486 102.989H212.425ZM38.1002 171.749C38.6251 169.042 39.9575 166.376 41.4716 163.77C44.5402 158.538 48.5172 153.367 52.8779 148.337C57.2587 143.328 62.0635 138.48 67.1711 134.197L68.1402 133.41C68.5036 133.107 68.8467 132.804 69.1899 132.46C69.8561 131.794 70.4416 131.066 70.9665 130.299C72.0163 128.743 72.7228 127.006 73.1266 125.208C73.3285 124.32 73.4496 123.39 73.49 122.481C73.5506 121.673 73.6111 120.886 73.6717 120.078C73.813 118.502 73.8938 116.926 74.0956 115.391C75.0445 109.271 75.6501 103.514 77.7497 98.9889C81.6056 89.495 87.6823 79.9202 96.2623 72.325C100.562 68.5679 105.408 65.2753 110.636 62.6493C115.865 59.9627 121.518 58.1851 127.291 56.9529C129.391 56.5691 130.966 56.1045 132.48 55.8217C133.994 55.5389 135.427 55.1551 137.204 55.3167C141.04 55.2157 146.672 54.7713 151.113 55.2359C153.092 55.3773 154.687 55.6399 155.696 56.0439C159.673 57.4579 165.185 58.9325 170.534 61.5181C175.905 64.0431 181.012 67.6791 184.303 71.4564C186.806 74.1632 188.704 76.7488 190.541 79.294C191.429 80.5868 192.217 81.92 193.085 83.233C193.811 84.6268 194.619 86.0206 195.305 87.5558C196.759 91.212 197.243 93.1309 197.95 95.2519C198.253 96.3225 198.556 97.4739 198.959 98.9485C199.262 100.443 199.767 102.282 200.13 104.766C201.301 115.795 199.888 127.168 196.052 137.874C195.144 140.581 193.953 143.166 192.762 145.772C191.429 148.337 190.097 150.903 188.643 153.387C185.655 158.276 181.941 162.76 177.661 166.659C176.127 168.174 172.977 171.143 168.213 174.395C163.448 177.587 157.069 181.102 149.498 183.566C141.968 186.071 133.247 187.545 124.526 187.222C115.804 186.96 107.083 184.919 99.775 181.425C96.1209 179.708 92.7495 177.728 89.8626 175.547C87.0363 173.304 84.2705 171.85 81.5047 171.183C76.0135 169.85 71.8548 171.244 70.0177 172.032C66.1415 172.88 62.1846 174.254 58.3893 175.506C53.1403 176.86 46.6801 178.132 42.158 177.304C40.9265 177.021 39.5941 176.557 38.7461 175.526C37.8982 174.496 37.9185 173.042 38.1607 171.709L38.1002 171.749Z" fill="#063312"/>
</svg>
