<svg width="250" height="250" viewBox="0 0 250 250" fill="none" xmlns="http://www.w3.org/2000/svg">
<path d="M0 60C0 26.8629 26.8629 0 60 0H190C223.137 0 250 26.8629 250 60V190C250 223.137 223.137 250 190 250H0V60Z" fill="#DEECDC"/>
<path d="M118.431 70.2008C118.808 70.4792 118.947 70.3599 118.868 69.7435C118.828 69.4253 118.729 68.9878 118.57 68.451C118.431 67.8942 118.312 67.1784 118.133 66.3433C117.457 63.818 117.437 61.1336 118.192 58.5288C118.928 55.924 120.517 53.518 122.485 51.6091C124.472 49.6803 126.916 48.3481 129.599 47.9107C132.362 47.2943 135.144 47.4732 137.608 48.4277C142.556 50.2371 146.034 55.5064 146.054 60.9348C146.093 63.6589 145.418 66.2836 143.927 68.6896C142.556 71.0955 140.529 72.8851 138.065 74.1776C137.528 74.456 135.958 75.0724 133.832 75.3906C131.725 75.7087 129.063 75.5497 126.718 74.7742C124.353 74.0186 122.346 72.7261 121.034 71.6324C119.762 70.5189 118.947 69.8627 118.868 70.3201C118.431 70.6183 118.769 71.4734 119.385 72.5073C120.06 73.4817 121.034 74.5753 121.829 75.2116C123.24 77.0807 125.963 78.6317 129.063 79.2282C132.163 79.8645 135.561 79.5662 138.542 78.8305C139.317 78.7112 139.973 78.3135 140.569 77.9158C141.185 77.5579 141.741 77.2199 142.377 77.0807C144.921 76.2654 147.425 74.2174 149.054 71.6125C150.763 69.1071 151.757 65.8661 152.035 62.7045C152.214 61.5512 151.638 60.9547 151.976 60.0201C152.075 59.5031 151.976 58.8668 151.837 58.2106C151.698 57.5744 151.38 56.9381 151.26 56.3614C151.022 55.8643 150.922 55.4667 151.062 55.1286C151.24 53.8958 150.684 52.3249 149.651 51.0126C149.412 50.6746 149.174 50.3365 148.915 49.9985C148.617 49.6803 148.339 49.3622 148.081 49.0838C147.544 48.4873 147.107 47.8709 146.65 47.334C145.438 45.6439 143.888 45.0474 142.298 44.1923C140.469 43.0788 140.43 42.9794 137.747 42.6016C134.945 41.7863 131.865 41.8062 129.122 42.6215C126.32 43.2578 123.657 44.6497 121.253 46.2205C120.458 46.9363 118.033 49.1832 116.344 52.6033C114.655 55.9836 113.92 60.557 114.893 63.9969C115.748 67.4767 117.696 69.6043 118.411 70.1411L118.431 70.2008Z" fill="#063312"/>
<path d="M78.6059 114.92C80.8913 111.421 78.0892 106.311 73.2602 107.484C70.1203 108.239 68.0338 112.296 70.1005 115.199C72.4654 118.539 76.9565 117.684 78.6258 114.92H78.6059Z" fill="#063312"/>
<path d="M131.447 98.3373L135.263 98.6753C136.475 98.8145 137.667 98.9736 138.86 99.1923C141.244 99.6099 143.609 100.226 145.934 100.942C146.451 101.121 148.617 102.095 150.545 103.07C151.519 103.567 152.433 104.024 153.108 104.303C153.804 104.561 154.201 104.76 154.281 104.402C154.817 103.626 153.685 102.632 153.108 102.016C152.194 100.067 149.631 99.0332 147.743 97.6811C147.286 97.2834 146.61 97.6016 146.332 97.0448C144.881 95.4143 142.576 94.9968 140.39 94.5792C140.012 94.4002 139.694 94.9172 139.436 94.4996C139.118 94.2014 138.522 94.4599 138.105 94.4201C137.906 94.4797 137.747 94.4798 137.687 94.281C137.031 93.2072 135.422 94.2213 134.587 93.8435C133.931 93.585 133.395 93.8633 132.779 93.923C132.083 93.744 132.083 93.7639 131.149 94.0025C129.182 93.6247 127.075 94.3803 125.048 94.0025C124.273 94.1218 120.418 94.4997 117.576 95.0167C116.165 95.2751 114.993 95.5734 114.575 95.8916C114.178 96.1898 114.516 96.6472 116.125 97.0846C121.193 97.4227 126.32 97.8402 131.447 98.3174V98.3373Z" fill="#063312"/>
<path d="M103.129 188.751C102.294 188.572 100.963 193.642 99.4722 195.988C97.6836 198.454 95.299 201.397 91.9405 202.968C90.2911 203.743 88.4628 204.121 86.714 203.922C84.9652 203.723 83.3158 202.988 81.9843 202.013C80.6926 200.979 79.1226 200.343 78.5662 198.991C77.2347 196.625 76.5591 193.881 76.2809 190.62C76.1418 189.108 76.0623 187.021 75.645 185.072C75.2475 183.104 74.5917 181.135 73.7571 179.345C73.2801 178.013 72.3659 177.655 72.2268 176.502C71.8691 175.309 70.8357 174.136 70.2396 172.843C69.8819 172.306 69.6435 171.869 69.7031 171.471C69.564 168.568 66.0664 164.989 64.5958 162.165C63.483 160.038 62.1514 158.845 60.8001 157.194C59.409 155.146 59.3892 155.126 57.1635 152.919C56.8654 152.522 56.5474 152.124 56.2493 151.746C55.8916 151.05 54.9973 150.891 54.5005 150.593C53.646 150.215 52.7915 149.937 51.9171 149.658C50.2081 149.141 48.4792 148.764 46.7304 148.426L45.4187 148.187C45.1405 148.167 45.0412 148.147 44.8823 148.028C44.4053 147.69 43.6898 147.073 43.1731 146.556C42.0801 145.443 41.2058 144.111 40.6494 142.599C40.1327 141.585 38.4634 138.106 38.523 133.532C38.523 128.979 40.6096 123.451 44.2463 120.19C46.0349 118.56 48.1215 117.526 49.9696 117.148C51.8377 116.75 53.3877 117.028 54.1627 117.148C54.9378 117.287 55.0768 117.148 54.1229 116.531C53.2287 115.995 50.844 115.1 47.4657 115.994C44.922 116.81 42.7956 118.261 41.0071 120.071C39.2583 121.92 37.9269 123.968 36.9332 126.215C34.9062 130.649 34.469 135.918 35.6415 140.631C36.178 142.977 37.0723 145.383 38.5429 147.531C39.2583 148.605 40.1128 149.579 41.0071 150.454C41.5238 150.951 41.7622 151.17 42.7161 151.925C43.0539 152.343 43.6502 152.343 44.147 152.482L45.0015 152.701C47.0484 153.218 49.1151 153.814 51.0228 154.51C51.4998 154.689 51.9569 154.868 52.4139 155.067L52.6922 155.186C52.6922 155.186 52.712 155.206 52.7318 155.226L54.7191 157.711C57.382 161.112 59.8861 164.552 62.0124 168.19C63.0855 170.02 64.0593 171.889 64.9734 173.798C65.8081 175.627 66.9607 177.953 67.9344 179.763C68.928 181.632 69.6633 183.362 70.1203 185.231C70.637 187.16 70.6967 188.93 70.9947 191.415C71.3127 193.761 71.8891 196.227 73.0815 198.534C73.6776 199.687 74.4328 200.8 75.3271 201.775C76.1816 202.689 77.0957 203.524 78.1092 204.28C78.9835 204.896 81.4279 206.925 85.5614 207.561C87.6082 207.879 90.0328 207.621 92.1989 206.726C94.3848 205.851 96.3124 204.419 97.8625 202.769C101.002 199.369 102.314 195.332 102.95 192.648C103.586 189.904 103.487 188.313 103.149 188.711L103.129 188.751Z" fill="#063312"/>
<path d="M110.323 90.1446C111.058 89.5083 109.647 87.4802 108.991 86.3269C108.137 83.2448 104.878 80.1827 102.672 77.2796C102.175 76.4842 101.142 76.3649 100.943 75.5099C100.247 74.0385 99.1742 72.746 97.962 71.5132C96.71 70.2605 95.5176 69.1669 93.9874 67.9142C93.431 67.3375 92.7157 67.6556 92.3182 66.9597C91.7419 66.3632 90.3905 66.2638 89.2975 66.2439C88.8007 66.3035 88.4033 66.4029 88.1052 66.2041C86.8731 65.7666 85.1641 66.7211 84.3891 67.8545C83.5346 68.9879 83.2165 70.1611 82.6799 70.8968C81.9447 71.9705 81.9645 73.0443 81.8254 74.2175C81.428 75.5099 81.428 75.5695 81.6268 77.1404C81.1299 79.9639 81.6864 82.9068 81.7858 85.8298C81.5672 85.79 81.3684 85.7502 81.1895 85.7303C79.1029 84.6168 76.2214 85.79 73.7771 86.2871C73.1213 86.3666 72.8827 87.1421 72.227 86.9631C69.8621 86.9631 67.855 88.5936 66.0267 90.1446C65.6094 90.3236 65.8479 90.9599 65.3113 90.8803C64.8543 90.94 64.6755 91.6359 64.3575 91.9541C64.278 92.1529 64.1786 92.2921 63.9401 92.2325C62.549 92.1132 62.4497 94.0618 61.5157 94.5788C60.8401 94.9765 60.7407 95.6526 60.3631 96.2093C59.747 96.7263 59.7471 96.7462 59.3893 97.7404C57.7995 99.351 57.3226 101.757 56.0309 103.626C55.9116 104.044 55.4943 105.276 55.1565 106.808C54.8186 108.339 54.5602 110.148 54.6 111.679C54.6199 113.21 54.8783 114.443 55.1963 114.88C55.5341 115.318 55.9712 114.96 56.627 113.489C57.0642 111.063 57.9187 108.697 59.1111 106.489C60.3035 104.262 61.7939 102.155 63.4632 100.166C65.1524 98.1977 66.9807 96.249 68.8686 94.6185C70.7764 92.9483 72.8431 91.457 75.0092 90.1645C75.4861 89.8861 77.7516 88.9317 79.8382 88.3948C80.5735 88.196 81.2492 88.0568 81.8453 87.9375C82.0043 88.8323 82.2825 90.3832 82.6799 92.1529C83.1966 94.4396 83.932 97.0842 84.7269 99.2516C85.5218 101.419 86.3565 103.129 86.8732 103.626C87.4097 104.123 87.5885 103.447 87.4096 100.822C85.6807 92.9483 85.5616 84.6367 86.6148 76.6433C86.7539 75.7087 86.9129 74.9333 87.211 74.1379C87.509 73.3028 87.8866 72.5272 88.2245 72.05C88.6021 71.533 88.8206 71.4933 88.8802 71.4734C88.9597 71.4535 89.4168 71.5132 90.0129 71.8711C90.311 72.05 90.6092 72.2688 90.947 72.5273L92.0995 73.5811L94.4048 75.6491C95.9549 77.0211 97.5049 78.3931 99.0947 79.7253C99.7903 80.3616 102.652 83.1454 105.156 85.79C107.68 88.4545 110.064 90.9002 110.263 90.1248L110.323 90.1446Z" fill="#063312"/>
<path d="M208.354 131.643C211.991 130.549 215.389 129.973 214.853 129.356C214.753 128.362 212.15 128.481 210.739 128.501C207.42 127.785 202.909 129.336 199.074 130.649C198.577 130.788 198.199 131.086 197.842 131.384C196.848 131.205 195.556 131.007 194.086 130.947C191.582 130.788 188.601 130.987 186.236 131.563C186.157 131.563 186.077 131.603 185.998 131.623C185.799 130.072 185.541 128.541 185.203 127.01C182.977 117.187 177.949 108.1 171.113 100.842C164.297 93.5448 155.533 88.017 145.895 85.3724C144.841 85.0344 141.98 84.1993 138.224 83.5828C134.488 82.9664 129.897 82.6284 125.565 82.6483C116.881 82.6881 109.25 83.6027 110.283 84.1993C110.323 85.2133 115.907 85.1537 118.868 85.3724C122.147 85.9888 126.221 86.1877 130.454 86.645C134.687 87.0626 139.058 87.7784 142.775 89.0708C144.583 89.8662 146.551 89.6873 147.822 90.8008C153.466 94.1612 160.104 97.8796 165.529 103.109C166.363 104.163 167.417 104.183 167.814 105.316C168.41 106.41 169.941 107.464 170.775 108.637C171.232 109.074 171.57 109.472 171.61 109.89C172.246 112.673 175.922 115.934 176.836 119.136C177.273 120.249 177.591 121.224 178.048 122.118C178.506 123.013 178.923 123.908 179.261 124.922C179.877 127.368 179.797 127.368 180.87 130.43C181.308 133.929 181.765 137.449 181.844 141.088C181.844 144.707 181.546 148.405 180.513 151.984C180.413 152.68 180.076 154.013 179.678 155.802C179.161 157.572 178.525 159.799 177.572 162.165C175.723 166.917 172.723 172.266 169.464 176.342C166.86 179.762 164.158 182.248 162.786 183.719C161.952 184.117 160.879 185.708 160.104 186.563C157.421 188.531 155.076 192.528 152.294 195.133C151.539 195.729 151.479 196.783 150.604 197.101C149.154 198.036 148.021 199.09 146.928 199.766C145.835 200.482 144.504 201.038 142.914 201.337C142.337 201.337 142.099 201.993 141.562 201.635C141.006 201.456 140.211 201.874 139.575 201.953C139.277 202.053 139.039 202.092 138.88 201.874C137.707 200.8 135.084 202.212 134.071 201.675C133.315 201.277 133.117 201.595 132.779 201.377C132.699 201.158 132.66 201.019 132.54 200.84C132.441 200.681 132.242 200.482 131.944 199.925C131.726 198.374 131.388 196.545 130.374 194.556C129.858 193.542 129.043 192.588 128.248 191.932C127.433 191.255 126.698 190.719 125.903 190.102C125.227 189.764 123.26 188.83 120.756 188.273C118.252 187.716 115.251 187.557 112.847 188.034C110.422 188.452 108.753 189.506 108.395 190.062C108.196 190.341 108.276 190.5 108.693 190.599C109.111 190.699 109.826 190.599 111.018 190.619C114.635 190.102 118.868 190.977 122.246 192.886C123.856 193.781 125.645 195.232 125.982 196.147C126.241 196.704 126.459 197.678 126.658 198.732L126.956 200.362C127.075 200.999 127.234 201.734 127.493 202.47C127.791 203.226 128.149 204.021 128.824 204.797C129.46 205.552 130.354 206.208 131.209 206.546C132.958 207.242 134.349 207.222 135.561 207.262C137.846 207.262 140.191 207.302 142.695 206.944C145.14 206.606 147.882 205.85 150.187 204.081C151.32 203.206 152.234 202.172 152.989 201.198C153.744 200.203 154.321 199.368 154.996 198.414C155.632 197.599 158.375 194.059 160.501 190.54C162.031 188.094 163.204 185.608 163.482 184.415C164.456 183.878 165.887 182.984 167.715 181.492C175.008 174.772 180.473 166.162 183.613 156.717C186.057 149.479 186.991 141.664 186.296 133.989C188.521 133.79 190.827 133.91 193.092 134.307C192.635 134.784 192.198 135.282 191.8 135.898C191.164 136.892 190.687 138.085 190.489 139.398C190.389 140.054 190.37 140.73 190.409 141.386C190.469 142.022 190.548 142.559 190.688 143.195C190.807 144.15 191.562 144.389 191.582 145.303C191.8 146.278 193.172 147.232 194.145 147.709C194.642 147.868 194.98 147.968 195.159 148.266C196.928 150.075 200.048 148.703 202.114 148.167C203.724 147.749 204.638 146.635 205.493 145.363C206.089 144.687 206.327 144.269 206.506 143.792C206.665 143.295 206.824 142.738 206.784 141.605C207.221 139.079 205.93 136.773 204.479 135.341C203.863 134.745 203.247 134.248 202.591 133.77C202.79 133.691 202.989 133.591 203.207 133.492C204.678 132.876 206.546 132.259 208.374 131.722L208.354 131.643ZM201.836 141.485C201.498 142.46 200.405 143.215 198.954 143.374C198.637 143.414 198.199 143.414 197.822 143.374C197.444 143.335 197.146 143.275 196.927 143.195C196.51 143.017 196.431 142.937 196.192 142.46C195.974 142.042 195.815 141.008 195.874 140.491C195.894 139.875 196.133 139.219 196.51 138.543C197.027 137.668 197.782 136.833 198.676 136.057C198.736 136.097 198.815 136.137 198.875 136.176C199.63 136.673 200.306 137.27 200.842 137.906C201.379 138.543 201.757 139.219 201.935 139.835C202.094 140.471 202.075 140.929 201.876 141.485H201.836Z" fill="#063312"/>
</svg>
