<svg width="250" height="250" viewBox="0 0 250 250" fill="none" xmlns="http://www.w3.org/2000/svg">
<path d="M0 60C0 26.8629 26.8629 0 60 0H190C223.137 0 250 26.8629 250 60V190C250 223.137 223.137 250 190 250H0V60Z" fill="#DEECDC"/>
<path d="M201.571 78.4061C201.468 77.9718 201.344 77.3102 201.137 76.5038C200.869 75.6974 200.538 74.7256 200.166 73.6091C199.546 71.3346 198.224 68.7293 196.86 65.8552C194.483 61.4096 191.032 56.8814 187.478 53.0561C185.701 50.9057 183.717 48.7966 181.588 46.7496C180.348 45.1161 179.067 43.586 177.91 42.2214C173.922 37.5897 169.871 35.2326 164.974 32.834C163.589 32.007 162.453 31.6348 161.523 31.1799C160.593 30.7457 159.787 30.4562 158.898 30.2081C158.03 29.9599 157.1 29.6705 155.881 29.4017C154.662 29.2156 153.174 28.8641 151.169 28.678C146.809 27.8302 142.346 27.8922 137.965 28.2437C135.774 28.5332 133.584 28.7607 131.434 29.2983C129.265 29.7118 127.157 30.3321 125.049 30.9938C116.556 33.5991 108.786 38.1894 101.822 43.7308C99.3418 45.9019 91.9437 52.7253 85.9716 63.1464C82.9752 68.3157 80.4127 74.3534 78.7595 80.5978C77.1476 86.8629 76.4657 93.3349 76.941 99.1865C77.3336 105.038 78.7802 110.187 80.454 114.033C82.1279 117.899 83.9258 120.484 84.8763 121.704C85.8269 122.944 85.9922 122.82 85.1863 120.939C84.959 120.442 84.711 119.884 84.4011 119.202C84.1117 118.478 83.7811 117.651 83.3885 116.679C82.9958 115.728 82.6652 114.57 82.2312 113.329C81.9006 112.048 81.446 110.641 81.1773 109.049C80.0408 104.17 79.6068 99.1037 79.9581 94.0585C80.3507 88.9927 81.446 83.9682 83.0992 79.1091C86.4262 69.3909 92.1504 60.4378 99.3005 52.9734C106.451 45.509 115.357 39.6574 125.07 36.5972C134.947 33.6197 145.549 32.6066 155.261 35.4393C164.953 38.148 173.322 44.7233 178.551 53.3663C183.861 61.9886 186.073 72.4305 185.515 82.6449C184.936 92.9007 181.63 102.929 176.029 111.696C170.78 120.69 163.258 128.01 154.352 133.262C152.368 134.358 146.933 137.46 139.246 139.424C131.641 141.45 121.784 142.112 112.919 139.899C104.012 137.79 96.5107 132.973 92.0884 128.713C89.7946 126.645 88.1827 124.764 87.1701 123.627C86.0956 122.489 85.6823 122.076 85.8063 122.613C85.3723 122.862 86.8188 125.612 89.3606 128.651C89.9186 129.333 90.5385 129.995 91.1998 130.657C90.3319 131.691 89.0507 133.345 87.2321 135.847C80.764 145.834 73.9446 155.717 67.2698 165.787C63.9221 170.853 60.6777 175.898 57.4953 181.171C54.4162 186.443 51.3991 191.964 49.5393 198.167C49.312 198.932 49.1053 199.739 48.9194 200.504L48.4027 202.861C48.0928 204.536 47.9274 206.293 48.0307 208.03C48.0927 209.767 48.3614 211.504 48.9194 213.241C49.436 214.957 50.3039 216.714 51.6471 218.244C52.9697 219.754 54.9535 221.077 57.1027 221.408C59.1898 221.739 61.2977 221.532 62.9922 220.891C66.5052 219.754 69.233 217.707 71.6508 215.536C76.4451 211.111 79.9581 206.045 83.5124 201.165C87.0462 196.244 90.4765 191.282 93.8243 186.257C95.3535 184.065 102.07 174.368 107.794 165.229C111.782 158.881 115.357 152.843 116.762 150.01C116.824 150.031 116.886 150.052 116.948 150.093C120.131 152.099 124.408 153.939 129.182 154.766C134.39 155.738 140.052 155.945 145.094 155.304C146.396 155.304 147.553 154.828 148.648 154.497C149.744 154.125 150.798 153.877 151.851 153.836C156.046 153.091 160.593 151.561 164.726 149.059C169.003 146.723 172.868 143.518 176.567 140.313C177.931 139.196 178.137 138.038 179.48 137.356C180.865 136.488 182.126 134.441 183.345 133.055C183.82 132.373 184.233 131.856 184.709 131.691C187.891 129.788 190.557 123.978 193.057 120.608C194.07 119.409 194.69 118.168 195.227 116.969C195.785 115.769 196.281 114.57 196.901 113.309C198.41 110.373 198.41 110.311 199.608 106.299C203.018 97.615 203.018 87.8141 201.592 78.4681L201.571 78.4061ZM91.7784 181.729C90.1252 183.714 89.278 186.03 87.6868 187.415C84.7524 190.579 81.8386 194.238 78.9042 198.105C75.9904 201.951 73.0973 206.024 69.8529 209.436C68.5924 210.553 68.3857 211.648 67.0632 212.207C65.7819 212.951 64.2734 214.523 62.7855 215.205C62.1656 215.618 61.6283 215.825 61.2356 215.701C59.6858 215.639 58.2392 215.784 56.9787 215.226C55.6768 214.626 54.3336 212.827 54.1062 211.028C53.7756 208.423 53.321 206.376 53.693 203.874C54.5402 200.855 54.4369 200.814 55.4081 196.885C58.8179 188.635 63.1575 180.116 68.5304 172.114C69.419 170.543 72.1261 165.911 75.4738 160.266C75.8251 159.687 76.1971 159.046 76.5484 158.447C78.7182 161.238 81.0533 163.926 83.7398 166.283C86.6742 168.888 90.0219 171.101 93.6796 172.486C94.0722 172.672 95.7461 173.582 97.42 174.14C95.5395 176.787 93.6589 179.392 91.7784 181.77V181.729ZM110.232 156.73C106.823 160.638 102.958 166.221 99.0318 171.845C98.1432 170.687 96.6967 170.17 95.7254 169.116C95.4775 168.744 94.8989 169.116 94.8369 168.578C94.2169 167.007 92.8323 166.552 91.5924 165.787C91.4478 165.539 90.9932 165.973 91.0345 165.539C90.9725 165.208 90.4766 165.353 90.2492 165.187C90.1046 165.187 90.0012 165.146 90.0632 164.96C90.2285 163.843 88.7614 164.34 88.4721 163.657C88.2447 163.202 87.7694 163.264 87.3768 163.078C87.0875 162.665 87.0875 162.665 86.3849 162.52C85.5169 161.465 83.8431 161.176 82.9958 159.977C82.7478 159.832 82.0452 159.418 81.1566 158.86C80.3714 158.343 79.3795 157.702 78.3669 157.02C78.1396 156.875 77.9123 156.73 77.685 156.586C80.4954 151.851 83.5331 146.764 86.0956 142.257C88.7407 137.604 90.8692 133.614 91.9231 131.36C94.0516 133.448 96.4487 135.392 98.3912 136.694C100.086 138.018 102.07 139.258 104.239 140.375C104.983 142.277 106.761 144.883 112.361 147.839C113.456 148.439 114.572 148.956 115.688 149.452C114.117 151.23 111.803 154.663 110.274 156.73H110.232Z" fill="#063312"/>
<path d="M172.682 60.8509C171.049 57.5839 168.714 54.5858 166.73 52.2286C163.796 48.6928 160.572 47.0801 156.811 45.55C154.641 44.5575 153.484 44.2266 152.161 43.8958C151.5 43.7097 150.797 43.6684 149.867 43.5443C148.958 43.3996 147.822 43.3788 146.354 43.3788C133.212 42.5311 120.978 48.9616 111.431 57.3978C109.715 59.0727 104.653 64.2419 100.416 71.789C98.3084 75.5523 96.4279 79.8737 95.126 84.3606C93.8861 88.8475 93.1835 93.4792 93.3282 97.6973C93.4315 101.915 94.2581 105.658 95.3327 108.429C96.4279 111.22 97.6472 113.081 98.3498 113.949C99.0317 114.818 99.197 114.714 98.7424 113.329C98.3084 111.964 97.1925 109.318 96.6759 104.81C95.498 97.9041 96.6346 90.5637 99.2383 83.761C101.821 76.9376 105.872 70.5691 110.852 65.1311C115.832 59.7137 121.804 55.1027 128.5 52.3733C135.237 49.644 142.697 48.2586 149.495 49.5819C152.885 50.2436 156.129 51.5463 158.857 53.5933C161.605 55.6196 163.878 58.2663 165.593 61.2851C169.045 67.3641 170.057 74.8078 169.293 81.9621C168.507 89.1783 165.924 96.1878 161.956 102.432C158.154 108.821 153.153 114.26 147.057 118.416C145.734 119.325 141.973 121.724 136.704 123.626C131.455 125.549 124.594 126.686 118.291 125.673C115.15 125.198 112.195 124.247 109.695 122.965C107.174 121.703 105.128 120.132 103.537 118.705C101.925 117.299 100.83 115.955 100.106 115.19C99.3623 114.404 99.0317 114.135 99.073 114.528C98.6184 114.776 99.507 116.782 101.222 119.036C102.937 121.269 105.603 123.523 107.649 124.784C111.823 128.134 118.767 130.284 126.02 129.953C133.294 129.664 140.63 127.224 146.726 124.102C149.888 122.592 152.037 120.173 154.496 118.87C159.311 115.728 163.94 110.931 167.329 105.368C170.946 99.8683 173.611 93.3344 174.893 86.6351C175.533 84.2366 174.893 82.8305 175.575 80.8662C176.071 78.6538 175.595 75.3248 175.327 72.7609C175.079 71.603 174.893 70.6931 175.058 70.0315C175.244 67.4882 174.355 64.0352 172.682 60.7889V60.8509Z" fill="#063312"/>
<path d="M155.654 69.2875C141.746 75.6561 127.405 81.9833 114.448 90.3367C113.704 90.771 110.439 92.6112 107.504 94.4307C106.037 95.3405 104.694 96.271 103.764 96.974C102.855 97.7184 102.318 98.132 102.69 98.3387C103.247 99.2278 105.273 98.2147 106.43 97.8218C109.344 97.5323 112.609 95.2372 115.729 94.1206C116.556 93.8932 116.907 93.0247 117.692 93.0868C120.606 92.6939 123.272 90.8743 126.02 89.3235C126.578 89.1581 126.558 88.4758 127.136 88.5999C127.694 88.5585 128.19 87.8761 128.707 87.5867C128.893 87.3799 129.079 87.2559 129.306 87.3593C130.773 87.7314 131.951 85.6844 133.315 85.3536C134.307 85.0848 134.803 84.4438 135.567 83.9476C136.58 83.5961 136.559 83.5753 137.613 82.6655C140.362 81.549 142.656 79.378 145.507 78.2614C146.458 77.5997 151.293 74.5602 154.827 72.203C158.34 69.8252 160.469 67.9643 155.654 69.2669V69.2875Z" fill="#063312"/>
<path d="M122.631 99.9312C120.275 101.089 118.147 102.164 118.705 102.619C119.118 103.488 120.792 102.991 121.722 102.826C124.078 103.095 126.743 101.565 129.265 101.027C129.926 100.944 130.215 100.2 130.856 100.386C133.212 100.448 135.361 99.1662 137.551 98.091C137.985 98.0083 137.944 97.3673 138.44 97.5534C138.894 97.5948 139.266 97.0158 139.68 96.809C139.824 96.6436 139.969 96.5402 140.155 96.6849C141.374 97.2019 142.221 95.4443 143.317 95.2789C144.102 95.1342 144.474 94.5966 145.073 94.2037C145.858 93.9763 145.858 93.9556 146.664 93.2112C148.834 92.4462 150.529 90.5853 152.74 89.7582C154.166 88.621 167.35 79.7919 159.952 81.8389C149.578 87.2356 138.502 91.6811 128.19 97.3259C127.611 97.6154 124.987 98.7733 122.61 99.9312H122.631Z" fill="#063312"/>
</svg>
