<svg width="250" height="250" viewBox="0 0 250 250" fill="none" xmlns="http://www.w3.org/2000/svg">
<path d="M0 60C0 26.8629 26.8629 0 60 0H190C223.137 0 250 26.8629 250 60V190C250 223.137 223.137 250 190 250H0V60Z" fill="#DEECDC"/>
<path d="M177.704 147.831C179.405 146.238 180.979 144.608 182.409 142.634C183.82 140.715 185.033 138.325 185.503 135.808C185.974 133.49 186.209 131.227 186.299 128.909C186.336 127.751 186.318 126.592 186.245 125.397C186.173 124.256 186.046 123.151 185.919 122.047C185.666 119.838 185.34 117.647 184.942 115.456C184.906 115.202 184.834 114.75 184.743 114.152C184.689 113.844 184.635 113.5 184.562 113.12C184.544 112.903 184.291 111.889 183.983 111.4C182.662 109.155 180.798 107.996 179.025 106.855C175.984 105.026 172.926 103.958 172.257 104.121C172.166 104.085 172.076 104.049 171.985 104.012C169.56 102.763 166.375 100.337 165.434 98.4174C165.814 97.0231 165.67 95.3935 166.013 93.9631C166.194 93.4742 165.597 93.0939 166.013 92.6956C166.973 91.066 166.592 89.2553 166.412 87.4627C166.502 87.1368 165.887 87.01 166.249 86.7203C166.466 86.4125 166.05 86.0141 166.013 85.6701C165.905 85.5253 165.869 85.3985 166.068 85.308C167.027 84.5837 165.688 83.5516 165.977 82.7549C166.158 82.1574 165.778 81.7771 165.633 81.2701C165.724 80.6545 165.706 80.6545 165.308 79.9302C165.344 79.0973 165.145 78.2825 164.747 77.1961C164.53 76.671 164.258 76.1097 163.86 75.5846C163.444 75.0414 162.937 74.6068 162.539 74.2628C162.123 74.0817 161.218 73.792 160.06 73.3755C159.101 73.0496 158.015 72.6875 156.983 72.3797C156.079 71.7821 155.192 71.2027 154.287 70.6052C154.287 70.6052 153.798 70.2249 153.129 69.7179C153.129 69.6274 153.129 69.5369 153.075 69.4826L152.622 69.1023L151.699 68.3237L150.794 67.5813L150.251 67.1649C149.908 66.8933 149.546 66.6217 149.184 66.3863C147.754 65.3723 146.288 64.485 144.805 63.634C141.819 61.9682 138.76 60.5377 135.63 59.2884C134.073 58.6546 132.481 58.0752 130.888 57.532C130.092 57.2604 129.278 57.0069 128.464 56.7534L126.491 56.1921L125.333 55.8662L124.754 55.7032L124.609 55.667C124.609 55.667 124.555 55.7394 124.518 55.7756L124.337 56.011C122.021 59.1254 121.587 59.8135 120.537 61.2801C119.596 62.6019 118.691 63.8332 117.714 64.9377C116.737 66.0241 115.651 66.9838 114.457 67.8167L113.534 68.4323C113.244 68.6134 112.955 68.7764 112.629 68.9393C111.996 69.2834 111.308 69.5912 110.602 69.899C109.209 70.4965 107.743 70.9854 106.295 71.3838C104.866 71.764 103.364 72.0175 102.224 71.9632C99.8351 71.8364 97.2834 70.2974 94.8404 68.4142L92.9946 66.9295L90.8049 65.1007L88.9591 63.6159C88.2353 63.8332 87.4933 64.2134 86.7695 64.5032C86.4256 64.648 85.9913 64.8472 85.7561 64.9558L85.1589 65.2455L83.9826 65.8431C80.9062 67.5089 78.1013 69.5188 75.4954 71.764C74.1925 72.8685 72.9438 74.0636 71.7495 75.313C71.1523 75.9286 70.5732 76.5804 70.0122 77.2142L69.1798 78.2101L68.7636 78.7171L68.094 79.5862L67.4245 80.4553C67.2073 80.745 66.8816 81.0166 67.1168 81.4331L67.714 83.6059L68.3474 85.9598C68.7636 87.517 69.1617 89.0923 69.5417 90.6495C70.2475 93.7096 70.9351 97.005 70.8628 99.6486C70.8628 100.156 70.6637 101.043 70.5552 101.749C70.3923 102.455 70.2475 103.161 70.0122 103.741C69.8132 104.356 69.5236 104.791 69.2884 105.117C69.0169 105.37 68.7998 105.551 68.3474 105.678C67.4245 105.95 65.8139 105.914 64.2395 105.859L61.7965 105.751L60.5478 105.714L58.9192 105.678H56.82C56.6028 105.588 56.5667 105.841 56.4581 105.968L56.1685 106.421L55.6075 107.308L55.0466 108.195L54.6846 108.811L54.0332 109.915C53.2007 111.4 52.4226 112.921 51.753 114.496C51.1377 115.872 50.0339 118.48 49.0928 122.119C48.188 125.759 47.4823 130.485 47.8623 135.772C47.9347 137.094 48.0976 138.434 48.3147 139.81C48.4957 140.787 48.6586 141.783 48.8395 142.779C48.8395 142.96 48.9662 143.033 49.0928 143.105L49.4729 143.322L50.2148 143.775L51.4635 144.518C53.8703 145.93 56.4581 147.27 58.9011 148.61C60.1136 149.298 61.2536 149.968 62.1222 150.746C62.3213 150.909 62.647 151.235 62.6289 151.217C62.6289 151.199 62.7918 151.489 62.9366 151.76C63.2261 152.322 63.5157 152.973 63.8052 153.607C64.9272 156.215 65.9767 158.967 66.773 161.592C67.5873 163.928 67.3883 166.499 67.0987 169.215C66.954 170.573 66.7549 171.986 66.6463 173.434C66.592 174.158 66.5558 174.901 66.5558 175.643C66.5558 176.024 66.574 176.404 66.592 176.766L66.6463 177.382C66.7006 177.689 66.6644 177.997 66.7911 178.269C67.3159 179.5 67.6778 179.989 68.1845 180.659C68.655 181.256 69.1436 181.8 69.6322 182.288C70.6275 183.266 71.6228 184.117 72.6362 184.842C74.663 186.326 76.6717 187.485 78.5899 188.372C78.9518 188.535 79.3138 188.68 79.6757 188.825C82.0282 190.672 83.4216 191.505 86.2808 193.297C86.4618 193.479 86.7152 193.696 87.0228 193.931C89.2848 195.036 91.4384 196.176 93.7366 197.372C94.9129 197.969 96.1976 198.53 97.6454 198.929C99.075 199.345 100.704 199.454 102.206 199.291C105.228 198.965 107.87 197.806 110.186 196.394C112.539 194.963 114.547 193.225 116.375 191.451C116.809 191.088 118.71 189.495 120.338 188.028C120.845 187.576 121.315 187.141 121.732 186.743C122.112 187.358 122.582 187.974 123.179 188.517C124.356 189.604 125.912 190.183 127.088 190.455C129.368 191.016 131.486 191.469 133.711 191.958L137.023 192.7C138.181 192.953 139.466 193.207 140.95 193.153C142.452 193.116 144.026 192.555 145.166 191.867C146.361 191.179 147.302 190.418 148.17 189.749L158.883 181.456C160.621 180.061 162.521 178.703 164.24 176.712C165.091 175.734 165.851 174.557 166.375 173.307C166.9 172.076 167.208 170.791 167.371 169.523C167.461 168.962 167.678 167.459 167.66 165.612C167.66 163.747 167.407 161.556 167.153 159.601C166.9 157.627 166.737 155.852 166.647 154.603C166.538 153.426 166.611 152.774 166.321 152.847C168.058 152.847 169.868 152.575 171.533 151.905C173.958 150.945 175.93 149.424 177.649 147.849L177.704 147.831ZM69.7408 179.065C69.4151 178.595 69.1979 178.051 68.9988 177.526C68.9626 176.947 68.9626 176.368 68.9988 175.77C69.0531 174.593 69.216 173.38 69.4151 172.149C69.7951 169.686 70.3199 167.079 70.2294 164.272C70.2294 162.878 69.8674 161.411 69.4874 160.071C69.0893 158.713 68.6369 157.355 68.1664 155.997C67.6778 154.639 67.153 153.281 66.5739 151.905C66.2844 151.217 65.9768 150.547 65.6148 149.841C65.452 149.515 65.1262 149.008 64.8186 148.755C64.5471 148.465 64.2395 148.211 63.9319 147.94C61.4527 145.948 58.7201 144.717 56.1324 143.214L54.196 142.109L52.4769 141.077L52.1693 140.878L52.0244 140.787V140.625L51.8978 139.918C51.7711 139.194 51.6626 138.47 51.6083 137.746C50.9568 131.969 51.6445 126.175 53.3636 121.087C54.2503 118.534 55.1732 116.09 56.2409 113.863C56.7838 112.74 57.3448 111.69 57.9601 110.694L58.1953 110.314L58.3401 110.096L58.6296 109.716C58.7563 109.354 59.1725 109.589 59.444 109.607C60.4936 109.716 61.5431 109.807 62.5927 109.915C63.769 110.024 64.9815 110.169 66.3025 110.205C67.6054 110.223 69.1074 110.277 70.8085 109.517C71.6409 109.119 72.4191 108.503 72.9801 107.815C73.5591 107.109 73.9211 106.384 74.2649 105.66C74.8259 104.248 75.1697 102.872 75.3869 101.532C75.5135 100.934 75.6402 100.011 75.6402 99.2865C75.6583 98.526 75.6402 97.8198 75.5678 97.1137C75.3326 94.3071 74.7897 91.6816 74.2106 89.038C73.903 87.7343 73.5772 86.4125 73.2515 85.1088C72.9981 84.1129 72.7267 83.1351 72.4734 82.1393C72.4372 82.1393 72.5276 82.0487 72.5638 81.9944L72.7629 81.759C73.1791 81.2701 73.5591 80.7813 74.0115 80.3105C74.862 79.3508 75.7488 78.4274 76.6717 77.5401C78.5175 75.7475 80.5443 74.1179 82.6616 72.6513C83.7293 71.927 84.797 71.2208 85.9189 70.6052C86.4799 70.2974 87.0228 69.9895 87.6019 69.7179L88.181 69.4463C88.181 69.4463 88.2534 69.5188 88.2896 69.5188C88.3439 69.555 88.2534 69.4826 88.4163 69.6093L88.9048 69.9714C89.5382 70.4422 90.1535 70.8768 90.7326 71.3113C91.9269 72.1624 93.0308 72.9591 94.388 74.0817C95.9081 75.2043 98.2064 76.4175 100.975 76.7796C103.925 77.1056 106.35 76.2907 108.431 75.7294C110.277 75.0957 111.706 74.4982 112.756 74.2628C113.751 73.955 114.819 73.5747 115.995 72.941C117.135 72.3072 118.221 71.6011 119.325 70.6776C121.533 68.8669 123.36 66.3863 124.899 64.0686L126.057 62.3303L126.6 61.5155V61.4431C126.6 61.4431 126.69 61.3707 126.762 61.3707C126.781 61.3707 126.762 61.3707 126.835 61.3707L127.305 61.4974L128.264 61.769C130.798 62.5295 133.169 63.4167 135.232 64.3764C138.272 65.7887 140.896 67.0381 143.339 68.378C144.569 69.048 145.727 69.7542 146.886 70.5146C148.351 71.6192 148.261 71.3295 148.225 71.7097C147.555 75.1138 147.067 76.9426 146.705 79.0068C146.524 80.0389 146.343 81.1796 146.198 82.6825C146.107 84.1853 145.981 86.159 146.56 88.7483C147.085 91.6454 148.569 94.2347 150.27 96.3532C152.007 98.4898 153.853 100.337 155.97 102.057C158.069 103.759 160.385 105.189 162.684 106.421L166.122 108.249L166.683 108.539C166.773 108.612 166.973 108.612 166.991 108.756C167.063 109.082 167.099 109.155 167.244 109.915C168.203 114.84 168.728 119.983 168.131 124.908C167.986 126.139 167.733 127.334 167.371 128.475C167.28 128.765 167.208 129.054 167.081 129.326C166.936 129.634 166.972 129.652 166.864 129.797L165.615 130.756C163.534 132.35 161.435 133.943 159.336 135.536C158.558 136.152 157.418 137.076 155.952 138.253C155.174 138.868 154.305 139.556 153.364 140.317C153.165 140.425 153.111 140.661 153.002 140.824L152.749 141.294C152.604 141.548 152.459 141.82 152.333 142.073C152.043 142.598 151.735 143.159 151.428 143.721C150.794 144.862 150.107 146.057 149.437 147.378C149.075 148.066 148.786 148.646 148.406 149.533C148.08 149.986 148.207 150.638 148.243 151.072C148.261 151.471 148.297 151.869 148.333 152.267C148.623 155.49 149.31 158.876 150.125 162.353C150.523 164.091 150.939 165.866 151.319 167.658L151.573 168.944L151.663 169.451C151.663 169.451 151.717 169.632 151.681 169.704L151.5 169.885C151.102 170.302 150.342 171.08 149.672 171.696C146.958 174.303 143.972 176.784 140.715 178.83C139.104 179.844 137.331 180.786 135.648 181.456C134.833 181.456 133.838 181.093 132.915 180.93C131.974 180.713 131.051 180.514 130.128 180.297C126.419 179.5 122.781 178.558 119.325 177.943C117.588 177.689 115.868 178.015 114.185 178.196C112.521 178.396 110.91 178.577 109.336 178.776C107.816 178.993 106.44 179.518 105.21 180.17C103.979 180.786 103.02 181.691 101.88 182.47C97.5006 185.403 94.0261 187.177 92.3431 188.209C91.9631 188.445 91.6736 188.608 91.4745 188.753C90.1716 189.097 88.941 189.296 87.7829 189.368C86.0818 189.314 83.9102 188.861 81.7025 187.956C77.1241 186.073 72.1657 182.578 69.8132 179.138L69.7408 179.065Z" fill="#063312"/>
<path d="M86.2447 151.87C87.059 152.775 87.9638 153.554 88.8506 154.386C89.7735 155.165 90.8593 155.781 91.8727 156.469C92.9766 157.012 94.1166 157.519 95.2747 157.954C96.1072 158.243 96.813 158.279 97.4463 158.334C98.0797 158.424 98.6769 158.442 99.3645 158.678C100.143 158.823 101.138 158.986 102.133 158.805C103.129 158.642 104.16 158.515 105.029 158.352C105.789 158.08 106.404 157.917 106.875 158.044C107.779 158.171 108.775 157.935 109.824 157.573C110.892 157.265 111.941 156.704 112.973 156.089C114.041 155.527 115 154.785 115.941 154.115C116.9 153.481 117.75 152.793 118.583 152.268C119.832 151.507 120.736 150.62 121.569 149.715C122.437 148.846 123.143 147.886 123.957 146.89C125.043 145.84 125.532 145.242 126.02 144.536C126.491 143.812 127.088 143.052 127.939 141.331C132.698 134.451 135.069 126.013 135.521 117.394C135.485 116.579 135.431 114.968 135.051 112.849C134.671 110.749 133.965 108.105 132.553 105.516C131.142 102.945 128.898 100.41 126.039 99.0518C124.138 98.1102 122.057 97.7119 120.085 97.6938C116.067 97.4041 111.272 98.6534 105.861 101.985C103.165 103.633 100.523 105.824 98.0435 108.359C95.2928 110.387 92.3974 113.447 89.9544 117.068C87.2761 120.979 85.0865 125.506 83.6026 129.815C82.7521 132.006 83.0235 134.197 82.4083 135.99C81.5034 139.774 81.7387 144.591 84.1455 148.864C84.7427 149.914 85.4484 150.928 86.2447 151.852V151.87ZM129.115 127.715C128.355 129.996 127.323 132.206 126.165 134.378C125.043 136.551 123.777 138.615 122.311 140.535C119.415 144.391 115.868 147.759 111.851 150.168C107.852 152.594 103.237 153.789 99.0026 153.21C97.9892 152.902 96.8854 152.811 95.9444 152.286C95.6367 152.141 95.3291 152.014 95.0214 151.888C90.1535 138.072 102.495 117.249 115.724 109.119C120.175 106.385 124.211 105.045 127.758 104.81C129.549 107.236 130.581 110.423 130.925 113.7C131.413 118.318 130.653 123.152 129.115 127.697V127.715Z" fill="#063312"/>
<path d="M97.1206 33.7219C96.5777 35.3877 97.2834 36.9811 97.772 38.5926C97.772 38.9186 98.3149 38.9186 98.0616 39.2626C97.9349 39.5885 98.3692 39.8782 98.4597 40.186C98.5864 40.2947 98.6407 40.4033 98.4778 40.5301C97.7901 41.363 99.1474 42.0692 99.0569 42.8477C99.0207 43.4091 99.4188 43.7169 99.6359 44.1514C99.6902 44.7309 99.6903 44.7309 100.179 45.3284C100.414 46.9037 101.681 48.2074 101.97 49.837C102.314 50.3802 103.744 53.0963 105.029 55.0337C106.314 56.9711 107.399 58.1119 107.291 55.432C104.757 47.7547 103.147 39.6609 100.324 32.0379C100.179 31.6034 99.7264 29.684 99.2016 27.9458C98.9302 27.0766 98.6407 26.2618 98.3692 25.7005C98.0797 25.1392 97.7178 24.8857 97.5187 25.0487C96.7948 25.2478 96.9034 26.461 96.8491 27.131C96.1253 28.7968 96.9215 30.7705 96.9034 32.5811C96.831 33.0519 97.4282 33.3054 97.1386 33.74L97.1206 33.7219Z" fill="#063312"/>
<path d="M214.331 85.4898C214.186 84.8199 212.937 84.9104 212.232 84.7837C210.567 83.9508 208.449 84.6207 206.567 84.4577C206.079 84.3491 205.789 84.9647 205.337 84.6207C203.636 83.9508 201.935 84.5664 200.234 84.9647C199.908 84.9285 199.854 85.508 199.528 85.2182C199.202 85.0734 198.876 85.4898 198.551 85.5804C198.424 85.689 198.315 85.7433 198.189 85.5804C197.374 84.8018 196.542 86.1598 195.746 86.0149C195.167 85.9425 194.823 86.3409 194.352 86.54C193.755 86.54 193.755 86.5582 193.086 87.0289C191.439 87.1738 189.991 88.4051 188.29 88.5861C187.711 88.8939 184.797 90.2339 182.698 91.4289C180.617 92.6421 179.35 93.7285 182.137 93.7828C190.263 91.6824 198.786 90.5236 206.875 88.0791C207.327 87.9705 209.354 87.6084 211.2 87.1557C212.123 86.9203 212.992 86.703 213.571 86.3952C214.15 86.0512 214.439 85.6709 214.295 85.4898H214.331Z" fill="#063312"/>
<path d="M128.663 215.388C128.735 215.153 128.21 215.099 128.518 214.881C128.699 214.664 128.337 214.411 128.301 214.175C128.21 214.085 128.174 213.994 128.337 213.922C129.133 213.378 127.975 212.745 128.192 212.183C128.337 211.767 127.993 211.532 127.866 211.188C127.921 210.771 127.921 210.771 127.559 210.282C127.613 209.123 126.654 208.055 126.69 206.86C126.22 206.027 123.324 198.44 122.691 202.351C123.722 208.127 123.795 214.157 125.061 219.933C125.116 220.259 125.188 221.69 125.387 223.011C125.568 224.315 125.948 225.474 126.437 225.257C127.179 225.166 127.287 224.279 127.45 223.79C128.427 222.649 128.029 221.146 128.391 219.825C128.536 219.48 128.011 219.263 128.391 218.955C129.205 217.797 128.825 216.583 128.626 215.37L128.663 215.388Z" fill="#063312"/>
<path d="M54.6484 161.847C53.5988 160.869 52.1511 161.231 50.8663 160.941C50.5405 160.815 50.3414 161.322 50.0338 160.996C48.8575 160.289 47.6813 160.76 46.5412 161.086C46.3059 161.05 46.324 161.557 46.0707 161.303C45.8354 161.177 45.6364 161.539 45.4192 161.611C45.3468 161.72 45.2744 161.756 45.1659 161.611C44.5144 160.941 44.0801 162.136 43.5191 162.046C43.1029 161.992 42.9219 162.354 42.6324 162.535C42.2162 162.571 42.2162 162.589 41.8361 163.006C40.7142 163.223 39.9722 164.364 38.8502 164.671C38.5245 164.997 36.8416 166.391 35.8644 167.713C34.8691 169.035 34.471 170.103 36.2263 169.723C38.4341 168.275 40.9132 167.188 43.4467 166.355C45.9802 165.504 48.568 164.871 51.1377 164.146C51.4272 164.092 52.7302 163.965 53.9064 163.82C55.0827 163.657 56.1504 163.458 55.9875 162.933C55.9513 162.173 55.1189 162.028 54.6664 161.847H54.6484Z" fill="#063312"/>
<path d="M54.7932 91.7903C55.137 92.0257 56.6209 93.1302 58.0505 94.0356C58.7563 94.4883 59.462 94.9047 59.9868 95.1401C60.4935 95.4117 60.964 95.3031 61.0002 95.0858C61.3802 94.5245 60.6021 93.6916 60.2221 93.1846C59.7516 91.5549 57.9962 90.6315 56.9285 89.3097C56.6933 88.9294 56.1142 89.1286 56.0599 88.6216C55.4446 87.1006 53.9969 86.3764 52.6759 85.5435C52.4949 85.3081 52.0968 85.6521 52.0787 85.2356C51.9701 84.9278 51.4996 84.9821 51.2463 84.8192C51.0834 84.8192 50.9929 84.7649 51.0291 84.5838C51.0291 83.5698 49.6357 83.8776 49.2195 83.262C48.9119 82.8274 48.4414 82.8636 48.0251 82.6826C47.6451 82.3023 47.6451 82.3023 46.9393 82.1575C45.8355 81.1616 44.1344 81.0167 42.9762 80.0209C41.8362 79.6768 32.3175 75.7114 35.7377 79.3509C42.1981 83.2439 48.2242 88.0422 54.8113 91.7722L54.7932 91.7903Z" fill="#063312"/>
<path d="M195.836 170.81C195.601 170.466 195.076 170.755 195.004 170.266C194.37 168.836 192.977 168.365 191.71 167.731C191.529 167.514 191.167 167.931 191.131 167.532C191.022 167.243 190.57 167.369 190.335 167.261C190.19 167.261 190.1 167.261 190.118 167.061C190.081 166.029 188.779 166.591 188.38 166.047C188.073 165.667 187.638 165.776 187.24 165.667C186.878 165.341 186.86 165.359 186.191 165.323C185.105 164.526 183.513 164.635 182.391 163.838C181.848 163.748 179.314 163.114 177.342 162.861C176.364 162.716 175.514 162.698 175.152 162.861C174.79 163.006 174.826 163.476 175.659 164.255C178.717 165.758 181.721 167.405 184.725 169.071C187.747 170.719 190.769 172.349 193.936 173.67C194.28 173.852 195.709 174.684 197.085 175.373C197.772 175.717 198.442 176.024 198.949 176.151C199.455 176.296 199.872 176.151 199.89 175.916C200.234 175.282 199.437 174.612 199.075 174.141C198.569 172.584 196.886 171.95 195.836 170.791V170.81Z" fill="#063312"/>
</svg>
