<svg width="250" height="250" viewBox="0 0 250 250" fill="none" xmlns="http://www.w3.org/2000/svg">
<path d="M0 60C0 26.8629 26.8629 0 60 0H190C223.137 0 250 26.8629 250 60V190C250 223.137 223.137 250 190 250H0V60Z" fill="#DEECDC"/>
<path d="M194.753 142.659C193.131 140.146 190.986 138.244 188.806 136.621C186.591 134.998 184.219 133.689 181.778 132.625C181.237 132.363 179.807 131.665 177.853 130.984C175.918 130.269 173.476 129.606 171.052 129.274C168.628 128.943 166.221 128.943 164.529 129.309C163.622 129.501 162.942 129.71 162.559 129.902C163.396 128.506 164.337 126.325 164.913 124.877C166.326 122.399 167.459 118.996 168.244 115.349C169.046 111.702 169.5 107.81 169.901 104.285C170.162 102.488 169.569 100.848 169.901 99.3645C170.18 96.3107 169.674 92.6113 167.564 89.2957C166.517 87.6729 165.14 86.1896 163.396 85.0553C161.669 83.9211 159.559 83.2056 157.431 83.1184C155.896 82.9613 155.181 83.6768 153.961 83.5546C152.583 83.607 150.926 84.7063 149.705 85.4567C149.199 85.8755 148.781 86.1896 148.38 86.2419C146.967 86.6433 145.502 88.0917 144.438 89.6796C143.34 91.2851 142.537 93.0475 141.665 94.304C140.392 96.1886 140.026 97.8289 139.293 99.6088C138.212 101.598 138.23 101.616 137.305 104.355C135.858 107.147 134.672 110.166 133.468 113.08C132.265 115.96 130.835 118.787 128.533 120.706C127.818 121.509 125.254 123.83 120.999 124.65C118.923 125.104 116.534 125.191 114.162 124.947C112.192 124.737 110.221 124.283 108.407 123.76C108.93 122.381 109.401 120.235 109.541 118.822C109.855 117.583 109.959 116.099 109.698 114.511C109.401 112.923 108.704 111.283 107.518 109.887C106.68 108.875 105.547 108.02 104.239 107.514C103.001 105.699 100.542 104.39 98.8324 102.767C98.3964 102.261 97.6291 102.418 97.4198 101.808C96.1466 99.8706 93.8794 98.7887 91.7866 97.5846C91.4727 97.2705 90.9844 97.6195 90.8623 97.1309C90.6356 96.747 89.9554 96.7295 89.5543 96.5027C89.3276 96.4678 89.1881 96.398 89.1706 96.1886C88.8916 94.9671 86.9906 95.1416 86.2407 94.3563C85.6826 93.7979 85.0199 93.763 84.3746 93.4838C83.7293 92.9603 83.7293 92.9777 82.6829 92.6985C80.8343 91.3549 78.4101 90.9012 76.4742 89.54C75.6371 89.2259 71.5736 87.5158 68.4867 86.4513C65.3998 85.3869 63.2721 84.9681 66.202 87.4111C76.3522 93.1348 86.1012 99.9753 96.4431 105.49C96.7919 105.699 97.8907 106.397 99.2161 107.217C98.4836 107.392 97.7686 107.601 97.1233 107.88C95.4316 108.526 94.5247 109.922 93.2691 110.463C88.5079 113.429 84.5665 118.804 81.5842 124.353C80.9215 125.296 81.1831 126.098 80.4157 126.761C79.7704 127.582 79.4391 129.1 78.9682 130.199C78.8287 130.723 78.7066 131.124 78.4101 131.316C76.6486 133.043 76.4219 137.232 75.4278 139.709C74.6953 141.577 74.6605 143.095 74.3814 144.875C73.8408 146.899 73.8408 146.916 73.7013 149.586C72.5677 155.345 73.0385 161.313 72.7769 167.246C72.8118 167.822 72.899 168.921 73.0036 170.404C73.1432 171.888 73.3525 173.79 73.9454 175.814C74.1896 176.669 74.5558 177.559 74.9744 178.414C73.1606 176.948 70.7888 175.622 68.9924 174.069C68.4169 173.476 67.51 173.563 67.1961 172.865C65.487 170.614 62.7489 169.113 60.2201 167.403C59.8364 167.002 59.2609 167.298 59.1039 166.74C58.8249 166.269 58.0226 166.147 57.5517 165.815C57.2901 165.728 57.1157 165.623 57.0983 165.396C56.7669 164 54.5172 163.791 53.6801 162.726C53.0348 161.976 52.2674 161.784 51.5175 161.313C50.785 160.58 50.785 160.58 49.5642 160.004C47.4539 158.05 44.6984 156.758 42.6056 154.612C42.1173 154.263 40.8093 153.303 39.1525 152.082C37.6177 150.895 35.7516 149.482 33.9553 148.103C30.7114 145.573 28.4617 144.002 31.287 148.033C33.8506 150.79 36.4667 153.53 39.2396 156.13C41.9777 158.748 44.803 161.33 47.733 163.773C53.558 168.694 59.8364 173.127 66.4985 176.756C67.2135 177.193 70.3528 179.164 73.3699 180.718C75.8813 182.044 78.288 183.056 78.9333 182.951C80.2064 183.754 81.6191 184.225 82.9445 184.19C84.9153 184.155 86.5197 183.196 87.3569 182.218C87.8452 181.66 88.0893 181.119 88.194 180.665C90.4961 182.585 92.8505 184.452 95.3095 186.197C100.35 189.757 105.756 192.898 111.459 195.393C117.162 197.889 123.074 199.791 129.039 201.274C132.021 202.024 135.038 202.635 138.038 203.193C139.538 203.473 141.055 203.7 142.555 203.944L144.805 204.293L147.211 204.555C147.926 204.589 149.862 204.816 152.408 204.589C154.937 204.38 158.094 203.595 160.745 201.954C162.07 201.134 163.239 200.122 164.18 199.075C165.087 197.993 165.802 196.911 166.221 195.917C166.64 195.044 166.796 194.294 166.849 193.753C167.808 193.666 168.767 193.544 169.726 193.334C171.453 192.968 173.162 192.322 174.697 191.554C176.266 190.769 177.784 189.757 179.092 188.431C179.388 188.151 180.225 187.384 181.062 186.162C181.917 184.941 182.632 183.178 182.806 181.45C182.998 179.845 182.806 178.379 182.493 177.35C183.365 176.983 184.184 176.53 184.969 175.989C186.556 174.889 187.829 173.406 188.719 171.783C188.945 171.434 189.521 170.474 190.027 169.166C190.515 167.839 190.881 166.129 190.881 164.471C190.881 162.814 190.515 161.226 190.009 160.196C189.852 159.847 189.695 159.603 189.556 159.393C189.817 159.306 190.079 159.219 190.341 159.114C191.806 158.521 193.201 157.666 194.387 156.444C195.573 155.258 196.514 153.617 196.863 151.89C197.264 150.162 197.09 148.4 196.671 146.864C196.235 145.328 195.555 143.95 194.753 142.693V142.659ZM191.893 148.173C191.561 148.853 191.718 149.499 191.806 150.18C191.893 150.843 191.893 151.645 191.439 152.064C190.829 152.658 190.585 153.373 189.87 153.984C188.876 154.438 188.928 154.455 187.655 155.223C184.55 155.886 180.487 156.095 176.598 155.136C175.848 155.083 173.633 154.856 170.947 154.35C168.244 153.862 165.087 153.059 162.419 152.256C159.751 151.453 157.588 150.668 156.751 150.581C155.931 150.494 156.367 151.209 159.21 153.041C163.867 155.327 168.785 157.16 173.877 158.434C176.441 159.062 178.97 159.568 181.655 159.899C183.801 160.144 186.172 160.214 188.562 159.62C188.475 160.353 188.701 161.47 188.597 162.185C188.213 163.355 188.021 164.628 187.655 165.902C187.306 167.176 186.765 168.45 185.963 169.357C185.51 169.759 185.649 170.527 185.004 170.631C184.01 171.085 183.208 171.591 182.353 172.08C181.481 172.568 180.539 173.074 179.493 173.354C179.109 173.354 179.005 173.947 178.621 173.65C178.237 173.493 177.766 173.912 177.348 173.964C177.173 174.069 177.016 174.086 176.894 173.912C176.092 173.022 174.679 174.139 173.703 173.65C173.023 173.336 172.447 173.528 171.802 173.441C171.069 173.074 171.069 173.109 169.953 173.022C167.808 172.027 165.209 171.888 162.96 170.753C162 170.509 157.972 169.48 154.135 168.502C150.752 167.735 148.484 167.211 151.85 169.672C154.745 170.98 157.588 172.254 160.448 173.528C163.343 174.819 166.204 176.093 169.29 177.228C172.552 178.449 176.232 178.903 179.824 178.135C180.19 178.048 180.557 177.96 180.923 177.838C180.923 178.222 180.888 178.589 180.836 178.885C180.365 180.02 180.068 181.293 179.528 182.48C178.987 183.667 178.167 184.766 177.156 185.447C176.633 185.743 176.511 186.476 175.883 186.459C174.784 186.686 173.773 187.052 172.709 187.506C171.61 187.942 170.564 188.431 169.43 188.745C169.011 188.745 168.889 189.321 168.488 189.059C168.07 188.937 167.581 189.355 167.128 189.425C166.936 189.53 166.779 189.565 166.64 189.408C165.733 188.623 164.303 189.774 163.239 189.408C162.489 189.163 161.896 189.408 161.181 189.408C160.379 189.181 160.396 189.198 159.297 189.268C156.978 188.57 154.397 188.797 152.094 187.802C151.641 187.715 150.281 187.453 148.641 186.947C147.002 186.459 145.066 185.743 143.427 185.115C140.131 183.876 137.933 183.178 141.09 185.9C143.793 187.576 146.671 189.216 149.792 190.49C152.949 191.764 156.088 192.549 159.332 193.264C161.425 193.683 163.587 193.84 165.768 193.753C165.593 194.032 165.401 194.346 165.175 194.678C164.512 195.672 163.64 196.754 162.925 197.383C161.146 198.604 158.948 199.826 156.455 200.576C153.943 201.291 151.188 201.466 148.763 201.065C147.56 200.838 146.357 201.152 145.45 200.628C141.404 198.901 136.381 198.255 131.585 197.121C130.748 196.807 130.155 197.243 129.527 196.719C128.795 196.353 127.591 196.336 126.684 196.091C126.266 196.056 125.934 195.987 125.76 195.76C124.312 194.451 121.051 194.556 119.133 193.596C117.738 192.863 116.552 192.776 115.209 192.339C113.744 191.589 113.744 191.607 111.686 191.048C107.605 188.972 103.07 187.453 99.1638 184.644C98.7627 184.417 97.9779 183.981 96.9489 183.405C95.9374 182.777 94.6817 181.991 93.2691 181.136C90.5135 179.356 87.3045 177.14 84.6362 175.186C82.6132 173.72 80.8691 172.464 79.753 171.766C78.5496 170.771 77.4334 169.846 76.5266 169.113C76.5266 162.203 77.0149 155.223 78.2531 148.452C79.5437 141.367 81.6888 134.474 84.8978 128.14C86.5023 124.964 88.3684 121.945 90.4961 119.136C91.089 118.333 91.7343 117.548 92.3796 116.797C95.0479 119.799 100.943 123.673 104.884 124.667C107.954 126.098 111.232 127.285 114.79 127.774C119.168 128.349 123.911 127.931 128.097 125.627C130.172 124.458 131.986 122.853 133.399 121.073C134.829 119.293 135.928 117.373 136.922 115.489C138.805 111.702 140.444 108.072 142.206 104.355C143.985 100.656 145.554 96.8866 147.647 93.8677C148.711 92.3495 149.88 91.0408 151.257 90.0461C152.635 89.0514 154.187 88.336 155.722 88.0917C157.257 87.8474 158.722 88.0742 160.082 88.7722C161.442 89.4877 162.663 90.6743 163.57 92.0703C165.419 94.8624 166.029 98.6142 166.081 102.453C166.134 104.163 165.715 111.911 164.163 118.804C162.715 125.714 160.309 131.717 161.216 131.159C161.477 131.281 161.861 130.897 162.279 130.269C162.384 130.705 163.221 130.845 164.198 130.88C165.192 131.002 166.343 131.037 167.128 131.211C170.529 132.45 175.517 133.48 179.127 135.748C179.981 136.394 181.115 136.254 181.621 137.075C182.894 138.366 184.341 139.5 185.806 140.687C187.254 141.856 188.754 143.112 189.835 144.508C190.114 145.084 190.829 145.032 190.759 145.695C190.846 146.288 191.544 146.864 191.771 147.457C191.945 147.684 192.05 147.911 191.893 148.103V148.173Z" fill="#063312"/>
<path d="M107.553 80.2219C107.675 80.6581 108.32 80.6232 108.233 81.1293C108.39 82.8045 109.61 83.9039 110.605 85.1603C110.692 85.457 111.215 85.2475 111.075 85.6489C111.075 85.9805 111.564 86.0852 111.738 86.3295C111.878 86.3993 111.965 86.4691 111.86 86.6261C111.477 87.6033 112.959 87.7778 113.098 88.5282C113.221 89.0517 113.691 89.1913 114.005 89.5403C114.197 90.0464 114.215 90.0464 114.825 90.4652C115.47 91.8263 116.918 92.7512 117.528 94.217C117.947 94.6532 119.848 96.9218 121.348 98.6319C122.847 100.325 124.121 101.354 123.632 98.7191C121.853 95.072 119.987 91.4424 117.842 87.9698C115.714 84.4797 113.29 81.1293 110.395 78.2675C110.099 77.9359 108.861 76.3654 107.535 75.109C106.89 74.4807 106.227 73.9049 105.686 73.5908C105.146 73.2767 104.727 73.1894 104.64 73.4337C104.134 73.9747 104.832 74.9345 105.111 75.5278C105.268 77.2902 106.837 78.6165 107.535 80.2219H107.553Z" fill="#063312"/>
<path d="M125.429 60.3632C125.429 60.8169 126.074 60.9216 125.847 61.3928C125.568 63.0506 126.51 64.3768 127.26 65.7728C127.295 66.0695 127.853 65.9648 127.644 66.3312C127.574 66.6628 128.045 66.8373 128.184 67.099C128.324 67.1863 128.393 67.2561 128.254 67.4131C127.696 68.3205 129.161 68.7045 129.196 69.4374C129.248 69.9783 129.701 70.1703 129.981 70.5193C130.12 71.0428 130.12 71.0428 130.696 71.4965C131.184 72.91 132.631 73.8523 133.155 75.3006C133.573 75.7369 135.404 77.9531 136.974 79.4887C138.544 81.0069 139.799 81.8445 139.241 79.384C135.544 72.7878 132.719 65.5983 128.76 59.0894C128.568 58.7229 127.818 57.0128 127.016 55.5121C126.615 54.7617 126.196 54.0637 125.83 53.61C125.464 53.1563 125.08 52.9818 124.888 53.1737C124.19 53.5227 124.469 54.6396 124.522 55.2678C124.051 56.9779 125.15 58.6357 125.394 60.3283L125.429 60.3632Z" fill="#063312"/>
<path d="M160.1 61.8991C159.925 62.4052 159.925 62.4052 160.152 63.1032C159.751 64.5167 160.431 66.1046 160.047 67.5705C160.152 68.1463 160.431 70.9907 160.867 73.1022C161.32 75.2137 161.896 76.5922 162.838 74.2888C163.448 66.8725 165.21 59.4387 165.593 51.9525C165.68 51.1323 166.971 44.763 165.768 45.0073C164.913 44.9026 164.547 45.9496 164.215 46.4906C162.855 47.6074 162.82 49.5793 162.053 51.08C161.791 51.4464 162.28 51.8827 161.809 52.1445C160.623 53.3485 160.675 54.9539 160.501 56.4896C160.361 56.7513 160.902 56.9782 160.501 57.1527C160.257 57.3795 160.553 57.7809 160.518 58.0775C160.588 58.2171 160.588 58.3218 160.396 58.3742C159.419 58.8104 160.431 59.9273 160.03 60.5555C159.768 61.0266 160.03 61.428 160.065 61.8817L160.1 61.8991Z" fill="#063312"/>
<path d="M184.533 90.9887C189.12 89.296 193.776 87.6208 198.363 85.7885C202.967 83.9563 207.502 81.9669 211.774 79.5064C212.263 79.2621 214.46 78.2849 216.396 77.2379C217.373 76.7144 218.262 76.1734 218.873 75.7197C219.466 75.266 219.727 74.8298 219.483 74.6553C219.099 73.9224 217.722 74.3935 216.919 74.5157C214.879 74.2016 212.716 75.5627 210.606 75.9466C210.048 75.9815 209.856 76.6795 209.298 76.4701C207.292 76.2781 205.548 77.3775 203.735 78.2326C203.368 78.2849 203.421 78.8782 203.002 78.6688C202.618 78.599 202.322 79.1225 201.973 79.2796C201.851 79.4366 201.729 79.5064 201.572 79.3668C200.526 78.7735 199.845 80.379 198.921 80.4139C198.258 80.4662 197.944 80.9548 197.456 81.2689C196.793 81.4085 196.793 81.426 196.113 82.0367C194.299 82.5428 192.852 84.0959 190.951 84.6194C190.341 85.0382 187.201 86.9577 184.934 88.5108C182.667 90.0813 181.272 91.3377 184.498 90.9713L184.533 90.9887Z" fill="#063312"/>
<path d="M220.721 108.683C220.617 108.002 219.187 107.898 218.402 107.758C216.588 106.728 214.146 107.339 212.036 107.043C211.495 106.903 211.112 107.549 210.641 107.147C208.775 106.31 206.822 106.868 204.868 107.2C204.502 107.13 204.397 107.776 204.049 107.427C203.7 107.235 203.281 107.688 202.915 107.758C202.758 107.88 202.636 107.915 202.514 107.741C201.659 106.833 200.613 108.282 199.723 108.055C199.061 107.933 198.66 108.351 198.102 108.526C197.421 108.491 197.421 108.508 196.637 108.962C194.753 109.014 193.044 110.271 191.108 110.358C190.428 110.672 187.027 111.911 184.568 113.098C182.109 114.284 180.609 115.349 183.748 115.611C186.085 115.209 188.44 114.808 190.812 114.459C193.183 114.127 195.555 113.796 197.945 113.464C202.706 112.784 207.467 112.086 212.123 111.004C212.647 110.917 214.966 110.655 217.076 110.288C218.123 110.096 219.134 109.887 219.814 109.643C220.529 109.503 220.843 108.857 220.704 108.7L220.721 108.683Z" fill="#063312"/>
</svg>
