<svg width="250" height="250" viewBox="0 0 250 250" fill="none" xmlns="http://www.w3.org/2000/svg">
<path d="M0 60C0 26.8629 26.8629 0 60 0H190C223.137 0 250 26.8629 250 60V190C250 223.137 223.137 250 190 250H0V60Z" fill="#DEECDC"/>
<path d="M214.559 100.201C214.318 97.255 213.263 94.4407 212.055 91.8024C209.528 86.5477 205.99 81.8866 202.342 78.105C199.178 74.8291 195.948 72.2127 193.004 70.3439C191.158 68.9588 189.378 67.9914 187.752 67.5957C187.532 67.5077 187.334 67.3978 187.115 67.3098C181.248 65.1552 175.073 64.8694 169.185 64.1438C163.274 63.4842 157.451 62.8247 151.87 62.2091C146.31 61.4616 141.103 61.8133 136.708 60.8679C118.25 58.0537 96.1452 56.8225 74.6773 55.0636C70.8319 54.5799 68.6786 55.1955 65.5364 54.404C64.6574 54.2501 63.7126 54.1402 62.6359 54.0522C61.3614 53.9423 60.0211 54.0083 58.6587 54.2281C55.956 54.6679 53.2313 55.9211 51.2098 57.7239C49.3421 59.5488 48.6609 61.3516 47.9577 62.341C46.7712 64.4297 46.2218 66.8921 45.6285 69.1787C45.0133 71.6191 44.464 74.3015 43.9366 77.0497C42.8819 82.5243 41.959 88.2406 40.8384 92.7917C39.2124 99.5195 38.7509 104.664 37.9379 110.886C36.7294 118.098 36.7074 118.142 36.0921 127.42C35.7845 129.948 35.5208 132.499 35.3011 135.049C35.0813 137.599 34.8836 140.282 35.0814 143.052C35.2132 145.47 35.7405 148.021 36.7513 150.417C39.1684 160.047 41.7832 166.643 45.277 171.04C46.3756 172.777 47.76 174.448 49.4959 175.877C51.2537 177.306 53.3631 178.34 55.5605 179.065C64.2619 181.374 73.2929 182.803 81.445 184.408C85.5321 185.309 89.4433 185.089 92.6514 186.101C106.209 189.267 122.645 190.85 138.598 192.587C141.432 193.048 143.058 192.477 145.387 193.224C147.958 193.818 151.804 193.796 154.814 194.126C156.176 194.17 157.275 194.28 157.956 194.609C160.747 195.577 164.592 196.016 168.701 196.434C173.118 196.962 177.864 196.566 181.709 195.753C183.138 195.489 184.434 194.983 185.665 194.478C186.829 193.84 188.016 193.334 188.961 192.543L190.433 191.421C190.894 191.026 191.312 190.586 191.751 190.146C192.674 189.311 193.421 188.343 194.234 187.354C196.168 185.089 196.937 183.814 197.728 182.363C198.497 180.912 199.266 179.197 200.387 175.789C201.859 172.14 202.87 168.336 203.705 164.598C204.496 160.905 205.309 157.167 206.122 153.408C207.726 145.888 209.308 138.303 211.088 130.674C211.549 127.772 213.219 119.219 214.23 108.6C214.34 107.281 214.472 105.917 214.537 104.532C214.581 103.851 214.603 103.147 214.647 102.444C214.647 102.07 214.713 101.784 214.691 101.322L214.559 100.223V100.201ZM199.046 143.14C198.189 144.899 196.651 146.943 196.058 147.801C192.608 152.77 188.455 157.717 184.346 162.356C183.994 162.751 183.511 163.169 182.918 163.697C182.061 164.445 179.82 163.895 178.919 163.235C178.545 165.764 178.018 166.269 177.512 167.127C177.381 167.325 177.205 167.501 177.029 167.698C176.853 167.808 176.677 167.918 176.458 168.072C175.557 168.6 174.282 169.193 171.997 169.369C170.854 169.457 169.426 169.413 167.712 169.391C166.855 169.391 165.91 169.391 164.9 169.391C163.911 169.391 163.076 169.369 162.087 169.369C149.518 168.996 136.444 167.545 123.568 166.313C110.648 164.972 97.7053 163.477 84.8069 161.784C78.3907 160.905 71.8427 160.047 65.6462 158.882C62.526 158.244 59.274 157.541 56.1757 156.815C53.0775 156.09 49.9792 155.254 47.3864 154.089C46.09 153.517 44.9913 152.814 44.2881 152.088C43.4751 151.231 42.6842 150.066 42.1568 148.9C41.0581 146.548 40.7505 143.734 40.8164 140.699C40.8823 137.709 41.2778 134.411 41.5855 131.18C41.9151 127.948 42.2886 124.716 42.7061 121.506C44.3322 108.622 46.7272 95.8478 49.5398 83.1178L51.7151 73.5759L52.8358 68.739C53.1874 67.156 53.5169 65.7049 53.9784 64.5836C54.4838 63.4183 54.9452 62.7807 55.7802 62.1651C56.6591 61.5275 57.7578 61.0658 58.9444 60.824C59.5377 60.6921 60.1749 60.6261 60.7901 60.6041C61.4713 60.6041 61.9327 60.6041 62.8336 60.714L67.7337 61.1537C93.838 63.5502 119.964 65.0233 145.915 66.8042C148.793 67.0241 156.55 67.6616 166.504 68.5631C168.987 68.8049 171.602 69.0467 174.326 69.3106C177.007 69.5744 179.688 69.8823 182.303 70.4539C184.895 71.0255 187.378 71.861 189.268 73.2022C190.213 73.8617 191.026 74.6532 191.729 75.5546C191.839 75.6865 191.927 75.8625 192.015 76.0164C192.608 77.5554 193.026 79.1164 193.311 80.6994C193.377 82.3703 193.311 84.1952 193.157 85.9761C192.938 88.6804 192.608 91.3627 192.279 93.935C191.597 99.0578 191.026 103.895 190.674 107.808C190.015 114.536 189.708 118.867 189.971 119.087C189.334 123.023 188.565 127.244 187.62 131.597C189.224 132.675 190.828 133.796 192.476 134.741C194.652 136.06 195.948 136.83 197.53 137.643C199.925 138.897 199.793 141.689 199.09 143.14H199.046Z" fill="#063312"/>
<path d="M58.6807 86.5033C75.3804 88.1962 92.2119 90.131 109.065 91.9998C125.919 93.8686 142.794 95.7155 159.626 97.0347C163.34 97.4084 192.388 100.838 190.74 99.2552C190.872 98.2219 185.972 97.4524 183.401 96.8587C177.82 94.7701 169.009 94.0665 161.933 92.5934C160.153 92.1317 158.418 92.6374 157.055 91.9339C151.21 89.9771 144.047 89.4934 137.081 88.8118C135.851 88.548 135.104 89.2076 134.115 88.6139C133.016 88.2182 131.302 88.482 129.984 88.3501C129.391 88.3941 128.907 88.3721 128.622 88.1083C126.271 86.6133 121.7 87.6686 118.756 86.9431C116.58 86.4374 114.888 86.6792 112.867 86.5913C110.538 86.1735 110.538 86.1955 107.527 86.2834C101.023 85.2941 94.2775 85.7778 87.5317 84.8104C84.9828 84.7884 72.414 84.3267 63.1633 84.2607C58.5489 84.2607 54.7474 84.2607 53.451 84.5905C52.1546 84.9203 53.3412 85.426 58.6807 86.5033Z" fill="#063312"/>
<path d="M123.678 108.775C120.909 106.819 116.295 106.313 112.669 104.994C111.768 104.576 110.801 105.104 110.142 104.444C107.22 102.619 103.462 102.312 99.8148 101.784C99.1776 101.542 98.7161 102.202 98.2547 101.652C97.7054 101.278 96.7605 101.586 96.0793 101.476C95.7497 101.542 95.508 101.52 95.3761 101.256C94.2775 99.827 91.7286 100.97 90.2344 100.311C89.1137 99.8491 88.1909 100.135 87.1361 100.091C85.9496 99.7391 85.9276 99.7611 84.3236 99.893C80.9616 99.0575 77.3141 99.6732 73.8203 98.8597C72.458 98.8817 65.8001 98.7058 60.8781 98.8597C58.4171 98.9476 56.3955 99.0575 55.6704 99.3873C54.9453 99.7391 55.5385 100.223 58.2632 101.168C66.9866 102.487 75.776 104.048 84.5653 105.543C93.3546 107.017 102.188 108.512 110.999 109.457C112.933 109.765 128.072 112.535 127.369 110.996C127.545 109.985 125.018 109.303 123.7 108.775H123.678Z" fill="#063312"/>
<path d="M118.118 142.656C115.35 140.7 110.735 140.194 107.11 138.875C106.209 138.457 105.242 138.985 104.583 138.325C101.66 136.5 97.903 136.192 94.2555 135.665C93.6182 135.423 93.1568 136.082 92.6954 135.533C92.146 135.159 91.2011 135.467 90.52 135.357C90.1904 135.423 89.9486 135.401 89.8168 135.137C88.7181 133.708 86.1692 134.851 84.6751 134.192C83.5544 133.73 82.6315 134.016 81.5768 133.972C80.3903 133.62 80.3683 133.642 78.7642 133.774C75.4023 132.938 71.7547 133.554 68.261 132.741C66.8986 132.763 60.2408 132.587 55.3187 132.741C52.8577 132.828 50.8362 132.938 50.1111 133.268C49.386 133.62 49.9792 134.104 52.7039 135.049C61.4273 136.368 70.2166 137.929 79.006 139.424C87.8173 140.897 96.6286 142.392 105.44 143.338C107.374 143.646 122.513 146.416 121.81 144.877C121.986 143.866 119.459 143.184 118.14 142.656H118.118Z" fill="#063312"/>
<path d="M76.0616 120.054C82.2361 121.131 88.4326 122.187 94.651 122.714C96.0134 122.934 106.626 124.979 106.187 123.484C106.363 122.473 104.583 121.901 103.682 121.439C101.814 119.614 98.5403 119.351 96.0353 118.207C95.4201 117.833 94.695 118.405 94.2555 117.767C92.2559 116.097 89.5972 115.965 87.0483 115.591C86.6088 115.371 86.2572 116.075 85.9496 115.547C85.5761 115.195 84.8949 115.547 84.4114 115.481C84.1697 115.569 83.9939 115.569 83.928 115.305C83.2029 113.942 81.3572 115.195 80.3244 114.601C79.5554 114.206 78.8962 114.514 78.1271 114.514C77.2921 114.228 77.2921 114.228 76.1275 114.448C73.7764 113.766 71.1616 114.536 68.7225 113.92C67.7557 114.008 63.0314 114.14 59.5376 114.492C57.7798 114.689 56.3515 114.887 55.8022 115.261C55.2749 115.635 55.6703 116.097 57.56 116.91C63.6906 117.811 69.8651 118.955 76.0396 120.032L76.0616 120.054Z" fill="#063312"/>
<path d="M70.6781 75.9064C73.205 72.0368 70.1068 66.3864 64.7673 67.6836C61.2955 68.5191 58.9883 73.0042 61.2735 76.2142C63.8884 79.9079 68.8543 78.9625 70.7001 75.9064H70.6781Z" fill="#063312"/>
<path d="M86.3012 76.8957C88.8281 73.0261 85.7298 67.3757 80.3903 68.6729C76.9185 69.5083 74.6114 73.9935 76.8966 77.2035C79.5114 80.8971 84.4773 79.9518 86.3231 76.8957H86.3012Z" fill="#063312"/>
<path d="M102.627 77.6876C105.154 73.8181 102.056 68.1677 96.7165 69.4648C93.2447 70.3003 90.9375 74.7855 93.2227 77.9955C95.8376 81.6891 100.804 80.7437 102.649 77.6876H102.627Z" fill="#063312"/>
<path d="M193.113 138.215C192.652 137.885 191.971 137.423 191.663 137.225C190.74 136.72 188.982 135.972 186.785 134.763C185.665 134.103 184.39 133.378 183.028 132.564C182.325 132.191 181.621 131.795 180.874 131.377C180.127 130.959 179.314 130.542 178.523 130.168C177.798 129.816 177.073 129.486 176.326 129.135L175.359 128.629L174.854 128.343C174.898 128.189 174.985 128.035 175.029 127.859L175.93 125.683C176.304 124.825 176.655 123.99 176.963 123.132C177.271 122.253 177.578 121.417 177.886 120.56C178.259 119.746 178.611 118.933 178.985 118.098C179.622 116.646 180.237 114.91 179.38 113.59C178.523 112.293 174.15 111.963 170.876 111.722C167.756 111.502 163.867 111.326 159.956 111.238C156.374 110.468 152.023 110.139 147.387 110.205C146.112 110.248 144.838 110.292 143.52 110.424C142.157 110.622 140.927 110.732 139.301 111.524C138.51 111.941 137.807 112.513 137.345 113.305C136.906 114.074 136.818 114.997 136.862 115.877C136.928 117.35 137.016 118.449 137.125 119.703C137.279 122.165 138.488 124.254 138.642 126.254C139.323 130.19 140.575 134.455 142.575 138.677C143.564 140.787 144.706 142.81 145.849 144.789C146.991 146.789 148.156 148.812 149.299 150.813C150.375 152.748 151.716 153.011 152.858 154.419C153.847 155.254 155.891 156.353 157.692 155.826C159.165 155.43 160.329 154.353 161.12 153.209C161.296 152.902 161.45 152.638 161.604 152.33L161.889 151.78C162.065 151.45 162.241 151.209 162.439 151.055C163.076 150.329 163.581 149.604 164.021 148.724C164.065 148.724 164.021 148.724 163.977 148.548C163.977 148.394 164.065 148.328 164.175 148.35C164.218 148.35 164.196 148.35 164.284 148.394C164.504 148.57 164.702 148.724 164.9 148.878C165.273 149.186 165.735 149.56 165.954 149.824C166.679 150.703 167.58 151.67 168.459 152.506C169.382 153.363 170.327 154.243 171.272 155.122C172.327 156.309 172.898 156.903 173.601 157.497C173.953 157.804 174.348 158.112 174.876 158.574C175.601 159.234 176.633 160.157 178.237 160.157C179.446 160.289 180.589 159.827 181.511 159.014L182.412 158.178C182.544 158.046 182.72 157.892 182.83 157.76L183.05 157.497L183.972 156.441C184.566 155.738 185.159 155.012 185.774 154.287C186.939 152.836 188.125 151.362 189.334 149.889C190.499 148.394 191.729 147.009 192.85 145.272L193.926 143.755C194.366 143.14 194.673 142.546 194.783 141.843C195.003 140.413 194.3 139.028 193.113 138.215Z" fill="#063312"/>
</svg>
