<svg width="250" height="250" viewBox="0 0 250 250" fill="none" xmlns="http://www.w3.org/2000/svg">
<path d="M85.4702 157.87C85.8474 157.41 85.7654 157.295 85.0601 157.607C84.3549 157.919 83.0264 158.69 80.8614 159.822C74.6782 163.974 67.8225 167.289 60.8849 166.239C57.5062 165.747 54.3571 164.286 52.3234 161.825C50.2897 159.347 49.2073 155.95 49.0269 152.487C48.6004 145.627 51.8806 138.226 57.8014 135.288C60.77 133.779 64.3619 133.286 68.1014 133.057C71.9393 132.843 75.7771 132.63 79.6149 132.433C80.9926 132.367 86.1754 132.236 91.7518 132.023C91.883 132.942 92.4734 133.697 92.6375 134.583C92.6375 134.911 93.1951 134.829 92.9983 135.239C92.7523 136.519 93.5395 137.258 94.1463 138.095C94.1627 138.308 94.6548 138.095 94.458 138.407C94.3924 138.653 94.786 138.685 94.9008 138.85C95.0156 138.882 95.0649 138.932 94.9501 139.063C94.4416 139.834 95.6881 139.818 95.6717 140.343C95.6881 140.72 96.0654 140.77 96.295 140.983C96.377 141.344 96.3933 141.328 96.8526 141.574C97.197 142.509 98.3615 142.985 98.7223 143.953C99.0503 144.216 100.461 145.594 101.642 146.563C102.823 147.531 103.839 148.072 103.626 146.316C101.117 141.771 99.0011 136.782 95.5077 132.81C95.4256 132.696 95.196 132.318 94.8844 131.875C102.101 131.563 108.924 131.137 108.038 130.595C108.038 129.774 103.495 129.725 101.084 129.561C95.7701 128.593 87.7172 129.069 81.1239 128.757C79.4674 128.609 77.9584 129.2 76.6299 128.806C73.8417 128.396 70.8732 128.281 67.675 128.363C66.7237 128.396 65.7396 128.478 64.7391 128.577C64.7063 127.969 64.6571 127.182 64.6407 126.115C64.1158 120.732 65.3623 115.136 68.1177 110.443C70.8731 105.733 75.2194 102.106 80.3366 100.202C85.4045 98.2331 91.1122 97.9213 96.2786 99.3162C98.8371 99.9891 101.363 101.253 104.086 102.5C106.775 103.747 109.826 104.945 113.09 105.306C113.795 105.421 115.73 105.684 118.207 105.519C120.683 105.388 123.652 104.715 126.293 103.567C128.95 102.434 131.197 100.76 132.574 99.3983C133.952 98.0198 134.51 97.0023 134.1 97.1008C133.788 96.8218 133.001 97.3305 132.049 97.9377C131.098 98.5613 129.983 99.2998 129.13 99.6773C127.129 100.317 124.817 101.22 122.291 101.729C119.781 102.254 117.075 102.418 114.763 101.909C113.631 101.63 112.45 101.909 111.646 101.269C109.892 100.317 108.022 99.2834 105.922 98.2495C103.823 97.2157 101.494 96.1326 98.9847 95.3284C98.2958 95.0494 97.7546 95.1807 97.2298 95.0166C97.525 94.7705 98.0334 94.0812 98.8863 92.8668C100.789 89.2893 103.429 86.0564 106.595 83.4635C109.76 80.887 113.451 78.9669 117.354 77.8018C125.161 75.4879 133.936 76.1607 140.775 80.1649C141.152 80.3947 142.12 81.0675 143.251 82.0686C144.367 83.0696 145.613 84.4317 146.597 85.8758C147.598 87.3036 148.352 88.7806 148.844 89.8473C149.353 90.914 149.681 91.554 149.91 91.275C150.763 91.0945 150.304 88.6329 149.894 87.32C149.796 85.7282 148.975 83.8902 147.762 82.2163C146.564 80.526 145.006 79.0162 143.53 77.6705C142.825 76.9156 141.759 76.9156 141.3 76.1607C138.872 73.6499 134.788 72.5504 130.983 72.1401C130.311 71.9596 129.884 72.4683 129.343 72.0745C128.736 71.8119 127.785 72.1073 127.063 72.1073C126.735 72.1893 126.473 72.2058 126.309 72.0252C124.899 71.1062 122.52 72.4355 120.88 72.4191C119.634 72.4355 118.814 72.9278 117.78 73.2888C116.518 73.5186 116.501 73.5186 115.058 74.3063C111.581 75.291 108.743 77.7362 105.758 79.7547C105.266 80.2306 103.774 81.6255 102.265 83.5455C100.74 85.4492 99.2143 87.8944 98.263 90.077C97.2954 92.2596 96.8198 94.1469 96.869 94.8361C96.8526 94.8361 96.8198 94.8361 96.8034 94.8033C96.0162 94.393 94.7041 94.4751 93.72 94.3602C93.2772 94.3602 92.9163 94.3602 92.6867 94.1797C91.801 93.6381 90.4562 93.6381 89.1113 93.7858C87.75 93.9499 86.405 94.2945 85.2734 94.3109C83.6004 94.4094 82.4359 94.9674 81.0418 95.4925C79.3525 95.9192 79.3198 95.9356 77.4172 97.0844C72.8577 98.9552 69.397 102.812 66.494 106.734C66.0512 107.554 64.6571 109.95 63.7222 113.134C62.7217 116.285 62.3446 120.174 62.6562 123.358C62.8694 125.623 63.3778 127.477 63.837 128.659C61.7705 128.921 59.6712 129.348 57.621 130.119C56.3582 130.48 55.981 131.284 54.8821 131.481C53.7176 131.859 52.4874 133.188 51.5033 134.107C51.1261 134.583 50.8146 134.96 50.4373 135.059C49.2072 135.682 48.092 137.159 47.2883 138.833C46.4847 140.507 45.9762 142.312 45.3693 143.707C44.5165 145.808 44.5493 147.531 44.4837 149.533C44.3525 150.698 44.3197 151.289 44.3689 151.962C44.4017 152.635 44.5165 153.373 44.8773 154.817C45.2217 158.05 46.5338 161.316 48.7808 163.909C51.0278 166.534 54.1112 168.225 57.2766 169.259C58.4903 169.538 62.2297 170.194 66.5104 169.259C70.8403 168.422 75.3178 165.96 78.6965 163.482C82.0915 161.004 84.6829 158.739 85.4537 157.837L85.4702 157.87Z" fill="#063312"/>
<path d="M163.244 89.0748C162.129 89.2881 160.85 90.322 159.8 90.9784C159.374 91.3394 158.997 91.602 158.652 91.602C156.077 92.0615 153.65 95.557 151.436 96.9519C149.796 98.0022 148.91 99.1345 147.581 100.201C145.892 101.219 145.908 101.202 143.875 102.811C138.938 105.469 133.509 108.948 129.885 114.429C129.327 115.48 127.736 118.86 127.818 123.16C127.851 125.277 128.277 127.591 129.212 129.658C130.114 131.743 131.475 133.548 132.919 134.943C135.855 137.765 139.036 138.701 140.086 138.734C140.627 138.766 140.66 138.602 140.102 138.225C139.545 137.864 138.397 137.158 136.822 135.796C134.247 133.843 132.328 131.053 131.475 128.001C130.623 124.949 130.836 121.552 132.05 118.581C132.443 117.597 132.952 116.678 133.542 115.824C133.608 115.955 133.657 116.103 133.509 116.267C132.902 117.777 133.673 119.057 134.28 120.288C134.28 120.567 134.838 120.436 134.625 120.78C134.543 121.076 134.985 121.223 135.117 121.453C135.248 121.519 135.313 121.584 135.182 121.732C134.657 122.602 136.051 122.815 136.117 123.455C136.199 123.931 136.642 124.03 136.921 124.309C137.085 124.752 137.117 124.752 137.692 125.047C138.315 126.212 139.791 126.639 140.562 127.673C141.021 127.919 143.186 129.1 144.957 129.494C145.826 129.724 146.597 129.757 146.958 129.593C147.319 129.429 147.303 129.018 146.696 128.296C144.301 126.787 142.267 124.702 140.627 122.356C139.807 121.191 139.086 119.96 138.446 118.696C137.823 117.449 137.183 116.087 136.806 114.954C136.773 114.823 136.74 114.479 136.74 114.068C136.74 113.658 136.806 113.248 136.921 112.854C137.019 112.509 137.15 112.247 137.216 112.017C137.56 111.738 137.921 111.475 138.298 111.213C141.119 109.211 144.449 107.57 147.762 105.535C154.552 101.35 159.439 95.475 165.721 93.1446C168.804 91.9302 171.97 91.7497 174.988 92.8164C177.989 93.8339 180.728 95.9344 182.745 98.5437C183.172 99.1345 184.353 100.759 185.14 103.188C186.009 105.6 186.436 108.784 186.288 111.853C186.173 114.922 185.501 117.859 184.976 119.911C184.435 121.962 184.074 123.193 184.5 122.946C184.878 123.111 185.534 122.241 186.157 121.01C186.78 119.779 187.338 118.22 187.682 117.121C188.797 114.774 189.453 111.492 189.289 107.996C189.142 104.517 188.174 100.858 186.583 97.8381C185.845 96.2627 184.468 95.3601 183.828 94.0965C182.237 91.6841 179.613 89.5507 176.382 88.3363C173.151 87.1219 169.28 87.0563 165.967 88.0409C164.721 88.2707 164.311 89.042 163.244 89.0748Z" fill="#063312"/>
<path d="M200.787 132.483C200.344 131.908 199.475 130.842 198.097 129.808C196.736 128.758 194.915 127.74 192.881 126.854C188.88 125.131 183.877 123.49 178.924 122.472C173.987 121.438 169.182 121.012 165.787 121.012C162.392 121.012 160.424 121.274 161.014 121.553C161.014 121.996 162.638 122.226 164.671 122.472C166.705 122.718 169.165 123.03 170.838 123.342C171.232 123.457 171.691 123.572 172.101 123.67C172.052 123.67 171.986 123.687 171.937 123.703C170.051 123.506 168.066 125.016 166.23 125.951C165.721 126.148 165.688 126.805 165.131 126.805C163.261 127.313 161.982 129.053 160.85 130.71C160.555 130.957 160.85 131.383 160.424 131.465C160.096 131.646 160.063 132.204 159.882 132.532C159.866 132.713 159.8 132.844 159.62 132.844C158.521 133.057 158.816 134.698 158.209 135.355C157.783 135.863 157.849 136.421 157.717 136.996C157.389 137.587 157.373 137.603 157.373 138.489C156.602 140.245 156.947 142.264 156.553 144.118C156.586 144.479 156.651 145.562 156.865 146.842C157.061 148.122 157.438 149.599 157.914 150.781C158.373 151.962 158.915 152.865 159.292 153.111C159.669 153.357 159.882 152.963 159.915 151.585C159.111 147.482 159.538 143.084 160.998 139.129C162.441 135.158 164.917 131.646 167.902 128.659C168.247 128.331 169.887 127.067 171.478 126.066C172.675 125.295 173.84 124.655 174.168 124.228C177.104 124.983 180.384 125.836 183.73 126.92C186.059 127.674 188.42 128.561 190.684 129.545C192.931 130.514 195.03 131.662 196.523 133.139C197.244 133.894 197.933 134.583 198.458 135.338C198.966 136.093 199.327 136.93 199.294 137.751C199.573 141.098 198.261 144.84 196.063 148.171C193.833 151.568 190.569 154.818 187.764 158.74C186.665 160.102 186.649 161.202 185.665 162.334C184.714 163.68 184.156 166.043 183.73 167.848C183.598 168.685 183.516 169.341 183.238 169.752C182.467 171.409 182.336 173.953 182.68 176.496C183.008 179.056 183.877 181.551 184.5 183.602C185.468 186.572 186.797 188.181 187.223 190.248C187.321 191.43 187.174 191.906 187.059 192.48C186.879 193.038 186.813 193.711 185.813 194.909C184.533 196.058 182.795 196.977 180.925 197.781C179.039 198.569 177.022 199.373 175.086 199.964C173.134 200.538 171.15 200.899 169.28 200.587C167.41 200.308 165.787 199.291 164.442 197.765C163.884 197.256 162.851 196.107 161.539 194.384C160.243 192.628 158.636 190.445 156.865 188.049C155.946 186.802 154.978 185.506 153.994 184.16C154.109 183.881 153.765 183.471 153.191 183.077C150.632 179.631 147.975 176.037 145.548 172.771C141.972 167.979 138.987 164.09 137.856 162.859C136.74 161.628 137.314 163.187 140.923 169.243C143.612 173.329 146.319 177.448 149.008 181.534C147.417 181.124 145.466 181.091 143.498 181.387C141.07 181.748 138.626 182.486 136.429 182.929C135.297 183.093 134.477 183.881 133.526 183.733C131.639 183.766 129.737 184.029 127.867 184.078C125.981 184.127 124.046 183.996 122.373 183.372C121.832 183.061 121.29 183.372 120.979 182.814C120.602 182.355 119.765 182.158 119.289 181.682C119.027 181.518 118.83 181.37 118.879 181.124C118.83 180.369 118.355 179.746 117.863 178.974C117.371 178.219 116.895 177.3 116.895 176.463C116.862 175.249 116.485 174.379 116.37 173.214C116.485 171.852 116.468 171.868 116.304 170.096C116.911 166.256 116.879 162.038 118.223 158.1C118.355 157.329 118.83 155.064 119.601 152.323C120.372 149.583 121.487 146.383 122.586 143.708C123.652 141.016 124.718 138.883 124.899 138.046C125.095 137.225 124.357 137.652 122.209 140.426C119.47 145.053 117.174 149.977 115.484 155.13C113.795 160.315 112.581 165.534 112.155 171.146C112.024 173.51 112.155 175.988 112.795 178.449C112.368 178.777 111.925 179.122 111.548 179.302C109.318 179.959 106.726 181.469 104.069 182.076C103.38 182.174 103.02 182.847 102.38 182.716C100.002 182.749 97.7712 183.881 95.475 184.423C95.0486 184.423 94.9174 184.948 94.5238 184.702C94.1137 184.57 93.6217 184.964 93.1788 185.013C92.9984 185.112 92.8344 185.145 92.7196 184.981C91.8831 184.226 90.4891 185.21 89.5214 184.767C88.849 184.472 88.2749 184.636 87.6188 184.521C86.9136 184.177 86.93 184.209 85.9131 184.078C84.0434 183.061 81.7308 182.355 80.3203 180.451C79.9759 180.172 79.0246 179.302 78.0569 177.973C77.0893 176.644 76.1544 174.872 75.6296 173.214C75.0556 171.573 74.8423 170.096 74.5799 169.587C74.3503 169.079 73.891 169.505 73.645 171.754C73.8418 175.216 74.99 178.63 77.0238 181.485C79.0575 184.373 81.9768 186.589 85.2406 187.869C88.4881 189.182 92.2603 189.411 95.6062 188.689C98.9684 188.017 101.97 186.655 104.758 185.292C105.365 184.981 108.284 183.963 110.859 182.224C111.794 181.584 112.647 180.829 113.287 180.107C114.336 182.946 116.55 185.621 119.388 186.966C122.274 188.394 125.374 188.706 128.277 188.476C131.23 188.23 133.903 187.393 136.429 186.507C136.986 186.326 138.479 185.867 140.398 185.26C142.284 184.685 144.498 184.078 146.63 183.848C148.073 183.684 149.418 183.701 150.55 183.815C153.387 188.115 156.208 192.398 159.046 196.714C160.637 198.963 162.49 201.605 165.623 203.213C167.164 204.001 168.887 204.362 170.51 204.444C172.15 204.526 173.708 204.296 175.185 204.001C176.661 203.689 178.055 203.246 179.4 202.786C180.728 202.327 182.073 201.851 183.434 201.26C184.796 200.669 186.173 199.947 187.485 198.963C188.798 197.994 190.06 196.665 190.848 194.958C191.635 193.268 191.832 191.266 191.536 189.576C191.274 187.852 190.684 186.408 190.11 185.079C188.896 182.437 188.01 180.353 187.617 177.842C186.78 172.952 187.682 167.766 190.159 163.515C192.635 159.183 196.818 155.507 200.016 150.436C201.574 147.86 202.738 144.988 203.116 141.837C203.296 140.261 203.247 138.62 202.853 136.996C202.46 135.387 201.722 133.812 200.688 132.499L200.787 132.483Z" fill="#063312"/>
<path d="M40.6622 77.1446C41.5806 78.6051 43.6472 79.3272 45.0905 80.4595C45.4349 80.8041 45.9761 80.558 46.1729 81.0339C47.1898 82.396 48.8956 82.9375 50.4701 83.6104C50.7162 83.8237 51.0606 83.4627 51.1754 83.8401C51.3558 84.1191 51.8478 84.0206 52.1594 84.1519C52.3234 84.1519 52.4382 84.1683 52.4546 84.3489C52.7006 85.3171 54.0948 84.874 54.6688 85.4155C55.0953 85.793 55.5873 85.7109 56.0629 85.8422C56.5549 86.1704 56.555 86.154 57.3422 86.2197C58.7527 87.0402 60.5568 87.0074 62.0329 87.8279C63.3122 88.0412 74.219 90.8639 69.7251 87.7623C65.8544 86.2689 62.0657 84.5294 58.2607 82.7734C54.4392 81.0503 50.6177 79.36 46.6978 77.9487C45.8449 77.5877 39.3666 74.4204 39.3994 75.4378C39.1205 76.0614 40.1702 76.7179 40.6786 77.161L40.6622 77.1446Z" fill="#063312"/>
<path d="M179.695 78.9174C181.876 76.0783 184.566 73.6167 187.469 71.4505C190.356 69.2679 193.455 67.397 196.588 65.5755C196.949 65.3949 198.573 64.7057 200.065 64.0985C201.558 63.5077 202.87 62.7528 202.542 62.3918C202.345 61.7682 201.262 61.9651 200.639 61.9487C199.081 61.44 197.293 62.3261 195.62 62.5887C195.178 62.5887 195.03 63.1795 194.571 62.9826C192.947 62.802 191.553 63.7539 190.192 64.6072C189.896 64.6729 190.011 65.1816 189.65 65.0339C189.322 65.0175 189.158 65.4606 188.912 65.6247C188.847 65.756 188.765 65.838 188.601 65.7396C187.666 65.3621 187.371 66.757 186.649 66.9375C186.124 67.0852 185.977 67.5283 185.649 67.8729C185.157 68.1191 185.156 68.1191 184.779 68.7591C183.451 69.514 182.811 71.1223 181.548 72.0084C181.368 72.2874 180.925 72.9767 180.335 73.8957C179.777 74.7983 179.17 75.8978 178.744 76.8988C177.924 78.9009 177.76 80.3123 179.679 78.9174H179.695Z" fill="#063312"/>
<path d="M82.6495 57.6653C82.6495 57.9935 83.1579 57.9771 82.9775 58.3545C82.7807 59.5853 83.5516 60.4223 84.1584 61.3084C84.1912 61.5218 84.634 61.3413 84.47 61.6531C84.4208 61.8992 84.7981 61.9485 84.9129 62.129C85.0277 62.1618 85.0769 62.211 84.9785 62.3423C84.552 63.0972 85.7165 63.13 85.7657 63.6552C85.8149 64.0326 86.1757 64.0983 86.4054 64.2952C86.5202 64.6562 86.5365 64.6562 86.9958 64.8696C87.4058 65.805 88.6031 66.2153 89.0295 67.1671C89.3739 67.4132 90.8829 68.644 92.1458 69.5466C92.769 69.9897 93.343 70.4 93.7366 70.4984C94.1303 70.5969 94.3599 70.2359 94.1467 69.2348C93.3758 67.9876 92.6214 66.9209 91.8834 65.8214C91.1617 64.7383 90.4236 63.6716 89.6856 62.5885C88.2423 60.4387 86.7826 58.3381 85.1917 56.3524C84.8637 55.8765 82.8299 52.02 82.1903 52.6928C81.6326 53.0046 81.8787 53.7267 81.9115 54.1862C81.5506 55.4334 82.3871 56.5165 82.6003 57.6817L82.6495 57.6653Z" fill="#063312"/>
<path d="M146.286 68.2503C151.534 62.5886 157.57 57.5177 162.67 51.6754C163.277 51.0682 168.263 46.5553 167.295 46.1779C166.803 45.6856 165.869 46.342 165.294 46.6209C163.638 46.8343 162.31 48.3769 160.801 49.181C160.374 49.3451 160.423 49.9359 159.931 49.9031C158.324 50.2313 157.274 51.5278 156.143 52.6601C155.864 52.7914 156.11 53.2509 155.716 53.1852C155.388 53.2345 155.323 53.7104 155.126 53.9237C155.077 54.0714 155.011 54.1699 154.847 54.1042C153.863 53.9073 153.847 55.3514 153.158 55.6304C152.666 55.8602 152.584 56.3197 152.321 56.6971C151.862 56.9925 151.862 57.0089 151.567 57.6818C150.353 58.6008 149.812 60.2254 148.565 61.1937C147.959 62.2439 141.956 70.9088 146.302 68.2338L146.286 68.2503Z" fill="#063312"/>
<path d="M49.9619 116.924C47.8625 115.874 45.8288 114.84 43.7786 113.806C41.7121 112.739 39.6291 111.689 37.5134 110.671C33.2983 108.637 28.9355 106.766 24.4416 105.469C23.9496 105.289 21.8338 104.435 19.8329 103.828C18.8324 103.533 17.8648 103.254 17.1596 103.172C16.4379 103.106 15.9787 103.254 16.0279 103.516C15.7983 104.255 17.0447 104.862 17.6352 105.338C18.7832 106.946 21.1122 107.488 22.7687 108.669C23.1624 109.03 23.7692 108.669 23.9824 109.211C25.1633 110.721 27.033 111.18 28.8043 111.853C29.0832 112.083 29.4603 111.64 29.5752 112.066C29.772 112.378 30.3297 112.247 30.6577 112.378C30.8381 112.378 30.9693 112.378 30.9693 112.592C31.2317 113.691 32.7734 113.133 33.3967 113.74C33.8559 114.167 34.3971 114.068 34.9219 114.2C35.4468 114.577 35.4632 114.561 36.3161 114.626C37.8414 115.562 39.8423 115.578 41.4168 116.546C42.1221 116.694 45.4516 117.646 48.0101 118.188C50.5687 118.713 52.2908 118.844 49.9619 116.908V116.924Z" fill="#063312"/>
<path d="M233.261 104.091C233.048 103.402 231.687 103.582 230.932 103.566C229.095 102.959 226.832 103.845 224.782 103.927C224.241 103.878 223.962 104.501 223.453 104.222C221.6 103.779 219.763 104.567 217.926 105.158C217.565 105.158 217.549 105.732 217.172 105.486C216.811 105.387 216.466 105.83 216.122 105.962C215.991 106.093 215.876 106.159 215.728 106.011C214.777 105.387 213.957 106.815 213.071 106.815C212.415 106.848 212.087 107.275 211.579 107.57C210.923 107.701 210.923 107.701 210.25 108.276C208.446 108.768 207.069 110.311 205.281 111C205.002 111.23 204.149 111.902 203.165 112.789C202.197 113.675 201.115 114.774 200.311 115.825C199.508 116.842 198.999 117.81 198.983 118.286C198.966 118.762 199.458 118.795 200.705 118.139C203.969 115.332 208.036 113.363 212.268 111.771C216.499 110.179 220.944 108.916 225.307 107.275C225.799 107.127 227.996 106.553 229.965 105.913C230.949 105.584 231.884 105.256 232.523 104.944C233.163 104.633 233.474 104.255 233.294 104.075L233.261 104.091Z" fill="#063312"/>
</svg>
