<svg width="250" height="250" viewBox="0 0 250 250" fill="none" xmlns="http://www.w3.org/2000/svg">
<path d="M225.392 99.7996C225.059 96.6175 224.414 93.3464 222.879 90.5648C221.367 87.7833 219.01 85.6693 216.585 84.0894C214.117 82.4872 211.648 81.1743 209.291 80.1284C207.601 77.8142 204.91 75.589 201.663 74.0313C198.394 72.4291 194.413 71.4723 190.699 71.1162C190.209 71.0495 189.72 71.005 189.209 70.9382C190.054 66.7103 190.588 62.5713 191.143 57.7425C192.144 48.8638 173.508 47.8402 170.995 56.0736C169.883 59.6785 168.904 63.9287 167.948 68.0232C160.386 66.777 154.337 66.2875 147.132 65.3751C144.396 64.9301 142.461 64.6185 140.793 64.3738C141.661 60.079 142.194 55.9179 142.75 51.0223C143.751 42.1436 125.115 41.12 122.601 49.3534C121.467 53.0473 120.444 57.431 119.488 61.6367C110.259 60.2793 100.94 59.0999 91.5552 57.9206C92.6004 54.2044 93.4234 50.466 94.2907 46.1935C96.0699 37.4484 77.5888 34.7781 74.3641 42.7667C72.8518 46.4828 71.4062 50.9333 70.0274 55.1835C69.0266 55.05 68.048 54.9387 67.0695 54.8052L62.0879 54.1376C60.5089 53.9151 58.5296 53.6036 56.706 53.7371C53.0142 53.9596 49.1223 55.1613 46.3646 58.3211C45.3861 59.4782 44.3408 61.4364 43.6069 63.8619C42.873 66.3097 42.2058 69.0245 41.2495 72.2734C39.4482 78.7043 37.1575 86.7374 34.8446 95.6161C32.5317 104.495 30.2633 114.264 28.4841 124.121C27.5723 129.039 26.8384 133.979 26.149 138.83C25.5041 143.659 24.748 148.443 25.0816 153.005C25.215 154.607 25.4819 156.165 25.9044 157.634C25.9266 158.368 25.9711 159.147 26.1045 159.97C26.5938 163.864 28.2173 168.426 29.5961 171.475C30.9082 174.879 32.8876 178.796 36.6016 181.711C40.4268 184.559 45.2971 185.672 50.0119 186.895C59.5304 189.165 69.5381 191.212 78.4784 193.326C82.9707 194.484 87.2852 194.55 90.7768 195.819C105.611 200.024 123.647 203.028 141.216 206.122C144.329 206.834 146.175 206.366 148.688 207.323C151.49 208.124 155.783 208.413 159.096 208.97C160.609 209.103 161.81 209.281 162.566 209.682C165.59 210.861 169.971 211.551 174.531 212.107C179.334 212.708 184.36 212.597 188.452 212.419C194.524 212.13 199.328 210.216 203.842 206.455C206.555 204.252 207.578 202.65 208.535 200.959C209.447 199.223 210.269 197.154 211.07 193.215C212.182 188.965 212.827 184.915 213.583 180.732C214.272 176.593 214.984 172.387 215.696 168.181C217.075 159.77 218.476 151.292 220.233 142.813C220.744 139.587 222.256 130.107 224.102 118.492C224.525 115.577 225.125 112.595 225.459 109.39C225.77 106.208 225.726 102.959 225.37 99.7328L225.392 99.7996ZM221.545 110.147L220.033 117.935C218.921 123.209 217.964 128.505 216.919 133.801C214.851 144.393 212.782 154.986 210.714 165.578L207.601 181.488C206.489 186.762 205.755 192.303 203.887 196.508C202.93 198.645 201.707 200.358 199.995 201.738C198.305 203.14 196.214 204.208 193.968 204.92C191.744 205.632 189.32 205.988 186.785 206.144C184.271 206.3 181.758 206.255 179.223 206.01C177.956 205.899 176.688 205.721 175.42 205.521L171.439 204.853L163.455 203.496L147.51 200.714C126.271 196.954 105.055 193.193 83.8827 189.454C81.5475 189.009 75.2315 187.763 67.1363 186.183C63.111 185.36 58.6186 184.448 53.9928 183.513C49.4115 182.534 44.5188 181.577 40.7158 179.886C38.8255 179.04 37.4911 177.928 35.9565 176.303C34.7334 174.968 33.5325 173.121 32.5762 171.386C31.1307 168.782 30.0187 166.223 29.1958 163.886C29.396 164.109 29.5739 164.354 29.7741 164.576C31.1084 165.956 32.7985 166.868 34.422 167.647C36.0677 168.426 37.7134 169.005 39.2702 169.516C45.5417 171.497 50.4789 172.476 52.9253 172.965C55.3938 173.433 55.4828 173.21 52.347 172.12C50.7235 171.564 48.3885 170.785 45.2082 169.739C43.607 169.205 41.8055 168.559 39.8485 167.781C37.9136 167.002 35.7565 166.067 33.8216 164.799C33.0877 164.331 32.376 163.82 31.8423 163.286C31.531 163.019 31.353 162.752 31.0861 162.462C30.8415 162.106 30.5747 161.75 30.33 161.372C29.396 159.903 28.7287 158.279 28.3284 156.565C27.5056 153.116 27.7724 149.2 28.3284 145.217C29.5516 137.072 31.0194 128.839 32.7541 120.717C36.2457 104.45 41.1161 88.4508 46.0088 72.3624C47.3432 68.3347 48.1439 63.9064 49.9675 61.6812C51.6355 59.5672 55.3493 58.4101 58.7297 58.7661C61.9322 59.2334 65.1347 59.7008 68.3372 60.1681C68.2037 60.5909 68.0481 61.0359 67.9146 61.4364C67.0695 63.9065 66.0465 67.3778 69.6048 68.3792C73.1409 69.3805 85.3282 74.8991 88.3972 67.1998C88.931 65.8647 89.398 64.574 89.8428 63.3279C99.2501 64.7075 108.68 66.1094 118.087 67.5113C117.998 67.8451 117.931 68.2012 117.842 68.5349C117.22 71.0717 116.486 74.6099 120.133 75.2997C123.736 75.9895 136.368 80.3955 138.747 72.4514C138.925 71.8283 139.103 71.2275 139.259 70.6044L166.391 74.5653C166.346 74.7879 166.28 75.0104 166.235 75.2329C165.613 77.7697 164.879 81.3078 168.526 81.9977C172.129 82.6875 184.761 87.0935 187.14 79.1494C187.296 78.6375 187.43 78.148 187.563 77.6362L190.032 77.9922C192.055 78.2815 193.812 78.6153 195.636 79.1938C199.194 80.3287 202.441 82.1979 204.732 84.8015C205.31 85.4468 205.821 86.1366 206.266 86.8709C206.511 87.227 206.711 87.6053 206.889 87.9836C206.978 88.1616 207.089 88.3841 207.156 88.5399L207.289 88.9626C207.712 90.2533 207.868 92.3228 207.912 94.2587C208.001 98.2196 207.712 102.359 207.334 106.475C205.688 123.053 202.752 139.52 198.883 155.764C197.926 159.837 196.903 163.886 195.858 167.936C194.791 172.031 193.834 176.014 192.389 179.597C190.943 183.202 189.008 186.428 186.34 188.898C185.072 190.122 183.782 190.879 182.27 191.324C180.758 191.769 178.934 191.835 176.932 191.791C175.998 191.769 174.664 191.724 172.996 191.657C171.15 191.657 169.349 191.591 167.192 191.479C162.744 191.101 157.095 190.411 150.757 189.499C138.058 187.697 122.579 185.093 107.812 182.512C93.0452 179.908 78.9677 177.327 69.0489 175.435C59.0856 173.589 53.5258 172.298 55.1048 173.121C54.9047 173.678 59.4859 175.257 65.5572 176.793C71.5841 178.373 78.9454 179.953 84.0382 181.132C95.1802 184.114 109.413 187.073 124.403 189.81C131.898 191.19 139.592 192.503 147.176 193.749C154.804 194.929 162.188 196.175 169.616 196.731C170.594 196.82 171.484 196.842 172.307 196.842C173.174 196.865 174.019 196.887 174.886 196.909C176.599 196.954 178.356 196.976 180.135 196.842C181.914 196.709 183.738 196.308 185.406 195.618C187.074 194.929 188.541 193.994 189.831 193.015C192.389 190.945 194.568 188.297 196.259 185.36C197.949 182.423 199.194 179.241 200.217 176.059C202.174 169.739 203.909 163.33 205.577 156.654C208.913 143.37 211.515 129.306 213.183 115.376C213.961 110.392 213.427 107.588 214.25 103.427C214.562 101.135 214.695 98.2641 214.584 95.2378C214.517 93.7247 214.428 92.167 214.184 90.5871C213.983 89.0517 213.605 87.316 212.894 85.6693C212.671 85.2243 212.427 84.846 212.182 84.4454C212.404 84.5789 212.649 84.7124 212.894 84.8682C215.029 86.2701 217.008 87.6498 218.409 89.3854C219.855 91.0989 220.789 93.0348 221.322 95.3046C221.834 97.5298 222.034 100.178 222.101 102.67C222.145 105.185 221.967 107.699 221.567 110.169L221.545 110.147Z" fill="#063312"/>
<path d="M128.984 134.603C128.473 130.82 127.605 126.236 126.538 121.919C124.536 113.708 121.623 106.565 121.067 106.899C121.045 106.854 121 106.81 120.978 106.787C120.934 106.543 120.711 105.831 119.577 105.43C119.266 105.341 118.865 105.297 118.42 105.408C118.02 105.475 117.464 105.853 117.286 106.053L116.997 106.231C116.174 106.765 114.64 107.945 112.327 110.036C105.633 117.024 98.6273 124.055 92.8896 132.511C91.4662 134.603 90.1318 136.895 88.9754 139.12C87.7967 141.39 86.6848 143.838 85.9509 146.552C85.217 149.245 84.9723 152.338 85.595 155.298C86.1732 158.257 87.552 160.95 89.3089 163.22C92.845 167.759 97.7378 170.763 103.053 172.321C108.368 173.789 114.217 173.945 119.666 171.52C122.357 170.34 124.825 168.338 126.582 165.89C128.317 163.442 129.34 160.638 129.852 157.946C130.875 152.494 130.319 147.376 129.852 142.48C129.763 141.39 129.496 138.408 128.962 134.625L128.984 134.603Z" fill="#063312"/>
<path d="M168.726 103.76C172.974 104.339 206.222 109.368 204.376 107.677C204.532 106.653 198.927 105.585 195.992 104.851C189.609 102.425 179.535 101.268 171.44 99.3766C169.416 98.8203 167.414 99.2431 165.857 98.442C159.186 96.15 150.979 95.2822 143.017 94.2141C141.616 93.8803 140.727 94.5034 139.615 93.8581C138.369 93.3908 136.39 93.5688 134.878 93.3685C134.188 93.3685 133.632 93.3462 133.299 93.0347C130.63 91.4103 125.382 92.2114 122.001 91.3213C119.51 90.6982 117.576 90.854 115.263 90.6537C112.616 90.1197 112.594 90.1419 109.147 90.0529C101.719 88.7177 93.9351 88.829 86.2402 87.4939C83.3046 87.3159 68.8934 86.2032 58.2852 85.6469C52.97 85.3799 48.6333 85.2241 47.1432 85.4689C45.6532 85.7359 47.0098 86.3145 53.1034 87.6719C72.2293 90.2754 91.5109 93.146 110.815 95.9275C130.119 98.7091 149.445 101.491 168.726 103.738V103.76Z" fill="#063312"/>
</svg>
