<svg width="250" height="250" viewBox="0 0 250 250" fill="none" xmlns="http://www.w3.org/2000/svg">
<path d="M142.462 80.7993C142.826 79.0497 143.03 78.0045 142.576 78.209C141.554 77.8909 140.327 81.1628 139.533 82.8443C138.692 84.0031 137.988 85.4801 137.307 87.0706C134.173 86.7752 130.949 86.9797 127.974 87.775C125.703 88.2976 124.272 90.0245 122.501 90.7516C120.752 91.7287 119.231 93.2965 118.05 95.1825C116.892 97.0684 116.188 99.2043 115.802 101.386C115.098 105.748 115.575 110.384 117.573 114.701C118.164 116.337 119.39 116.7 119.867 118.109C120.593 119.518 122.546 120.654 123.795 121.608C124.181 121.813 124.477 122.04 124.727 122.267C124.477 123.585 124.363 125.039 123.841 126.062C123.16 127.493 123.205 128.698 122.887 130.084C122.274 131.629 122.297 131.629 122.047 133.742C120.48 138.082 120.139 142.876 118.572 147.375C118.413 148.307 117.846 151.17 117.187 154.601C116.869 154.556 116.551 154.533 116.211 154.487C111.351 153.783 105.81 150.715 102.608 146.512C100.996 144.444 99.9737 142.149 99.5422 140.15C99.1334 138.15 99.2925 136.514 99.3379 135.673C99.3833 134.833 99.2016 134.719 98.6339 135.764C98.157 136.764 97.2033 139.195 97.93 142.899C99.406 148.489 103.312 152.76 107.831 155.601C110.42 157.214 113.327 158.373 116.37 158.964C116.052 160.759 115.734 162.576 115.461 164.258C114.939 167.462 114.621 170.143 114.735 171.097C114.848 172.052 115.552 171.347 116.983 167.803C117.8 165.008 118.64 162.19 119.458 159.373C120.775 159.441 122.115 159.418 123.455 159.259C128.95 158.577 134.128 155.896 137.807 151.693C141.577 147.489 143.371 141.558 142.757 136.014C142.485 133.219 141.622 130.447 140.146 127.971C138.67 125.448 136.603 123.426 134.582 121.813C133.515 120.972 132.47 120.222 131.448 119.472C133.424 112.792 135.332 106.112 137.103 99.4315C137.375 98.5226 138.352 95.3869 139.442 91.8196C141.259 92.115 142.757 92.6376 144.211 93.5465C147.163 95.2961 149.139 98.1591 150.07 100.272C151.023 102.385 151.251 103.794 151.659 103.34C152.25 103.317 152.568 102.022 152.318 100.34C152.113 98.6589 151.296 96.7048 150.547 95.4551C149.411 92.3649 146.028 89.0247 141.508 87.8432C141.236 87.775 140.941 87.7296 140.646 87.6614C140.646 87.6614 140.646 87.6159 140.646 87.5932C141.372 85.0483 142.031 82.5944 142.417 80.8448L142.462 80.7993ZM133.242 129.198C134.332 130.879 135.377 131.924 136.104 133.697C136.354 134.764 136.399 135.31 136.535 135.923C136.649 136.537 136.876 137.218 137.035 138.65C136.785 141.808 135.922 144.876 134.06 147.58C132.198 150.261 129.314 152.488 125.998 153.397C125.249 153.715 123.387 154.396 120.843 154.624C122.91 147.648 125.022 140.65 127.156 133.651C127.906 131.152 128.678 128.675 129.427 126.175C130.994 127.084 132.516 127.993 133.242 129.175V129.198ZM132.334 100.272C129.995 103.976 128.814 108.884 127.452 113.61C127.088 114.428 127.565 115.064 126.952 115.632C126.884 115.723 126.861 115.837 126.816 115.951C125.885 115.133 125.044 114.292 124.431 113.383C122.433 110.52 121.729 106.089 122.274 102.181C122.819 98.159 124.749 94.9779 128.133 93.1374C128.86 92.7284 131.04 91.7969 134.219 91.5469C134.65 91.5242 135.104 91.5469 135.559 91.5242C134.877 93.4101 134.196 95.2961 133.424 97.0002C132.834 98.1591 133.083 99.4542 132.311 100.272H132.334Z" fill="#063312"/>
<path d="M221.081 92.0458C219.31 86.2744 216.811 80.7529 213.905 75.4586C211.043 70.1416 207.501 65.1882 203.618 60.5529C195.828 51.2822 186.086 43.7157 175.413 38.1033C164.672 32.5591 153.022 28.8781 141.145 27.1967L133.084 26.0606C132.947 26.0606 132.652 25.9243 132.629 26.0606V26.6059L132.561 27.6738L132.47 29.8097L132.311 34.0815L131.971 42.8068L131.653 51.5321L131.494 56.0312L131.335 60.2802L131.267 62.3933L131.857 62.4615C132.039 63.2795 132.516 64.6656 133.379 66.8469L135.014 70.2098L135.786 71.8913L136.013 72.4138L136.376 73.3227C136.604 73.9362 136.785 74.5952 137.012 75.2314L141.327 76.4811L143.757 77.1628C145.346 77.7081 146.868 78.4352 148.435 79.0487C149.956 79.7304 151.387 80.6393 152.886 81.4345C154.339 82.2753 155.656 83.366 157.042 84.2976C162.378 88.433 166.784 93.7727 169.986 99.7714C176.435 111.769 177.911 126.288 174.096 139.376C174.073 139.467 174.051 139.581 174.005 139.717C173.96 139.899 174.005 139.717 173.914 139.967C173.755 140.308 173.574 140.717 173.369 141.194C172.915 142.126 172.37 143.284 171.666 144.534C171.325 145.261 169.373 148.51 167.442 151.169C166.579 152.555 166.829 153.509 166.92 154.1C166.988 154.418 166.965 154.645 167.283 154.873L167.647 155.213L168.192 155.554C168.532 155.782 168.986 156.009 169.645 156.145C170.281 156.281 171.189 156.145 171.939 156.145C173.483 156.1 175.004 156.031 176.458 155.986C177.321 155.941 178.161 155.895 178.956 155.85C179.66 155.804 180.296 155.736 180.909 155.691H180.954C180.977 155.85 181.068 155.986 181.113 156.122L168.555 156.395C170.599 158.486 172.756 160.531 174.936 162.553C173.687 162.735 172.007 163.007 170.076 163.325C167.692 163.03 164.876 163.189 161.947 163.575L160.471 163.802C160.198 163.871 160.016 164.098 159.789 164.234L159.153 164.666L157.201 165.984C155.952 166.915 154.498 167.529 153.204 168.165C151.864 168.733 151.024 169.983 149.707 169.983C144.801 170.915 139.737 173.164 134.265 174.164C133.288 174.255 132.879 175.073 131.971 174.664C131.04 174.459 129.791 175.118 128.769 175.277C128.315 175.436 127.929 175.482 127.656 175.209C126.634 174.55 125.294 174.686 123.886 174.959C122.479 175.095 121.002 175.323 119.844 175.05C118.118 174.641 116.824 174.845 115.212 174.8C113.395 174.391 113.44 174.255 111.01 174.232C109.739 173.914 108.512 173.528 107.241 173.164C105.992 172.8 104.652 172.596 103.403 172.142C102.131 171.71 100.837 171.324 99.5879 170.824C98.3843 170.233 97.1807 169.597 96.0226 168.87C95.523 168.71 94.6146 168.256 93.4337 167.574C92.2528 166.893 90.6632 166.188 89.1644 165.075C88.3469 164.53 87.4839 163.939 86.5983 163.348C85.7126 162.212 84.1458 163.053 83.1693 163.121C81.8522 163.416 80.5124 163.712 79.1953 164.007L68.7718 164.939C68.7945 165.098 68.8399 165.257 68.908 165.416C68.7264 165.461 68.4993 165.552 68.2495 165.643C68.2268 165.62 68.1586 165.575 68.1359 165.529C67.0231 164.53 66.7734 164.552 67.6363 165.916C64.1619 167.529 57.0767 172.073 52.762 174.709C51.127 175.573 49.4238 176.527 47.6298 177.549C46.6533 178.14 45.6541 178.731 44.6549 179.322L42.9744 180.344L42.543 180.617C42.5884 180.73 42.7019 180.867 42.7927 180.98L43.3605 181.753C44.1553 182.798 44.9501 183.866 45.7676 184.934C46.4489 185.866 47.2209 186.752 47.993 187.661C48.7651 188.57 49.56 189.479 50.3321 190.387C51.1724 191.251 52.0353 192.137 52.8755 193.023C59.7336 200.113 68.2495 206.111 76.3339 210.724C80.4215 213.11 84.6908 214.087 87.9836 215.904C95.0915 219.222 103.539 221.517 112.441 222.494C121.366 223.403 130.699 223.085 139.737 221.562C141.372 221.358 142.576 220.972 143.734 220.653C144.87 220.29 145.937 219.949 147.322 219.904C150.297 219.563 154.385 217.836 157.632 216.7C159.063 216.109 160.198 215.564 161.084 215.541C164.422 215.064 168.555 213.064 172.643 210.724C176.685 208.27 180.682 205.475 183.974 203.294C186.472 201.749 188.38 200.022 190.219 198.386L191.582 197.045C192.377 196.272 193.194 195.5 193.989 194.727L195.17 193.591L195.465 193.296L195.261 192.932L194.829 192.205C194.262 191.228 193.671 190.228 193.081 189.229C192.309 187.774 191.741 186.684 191.241 185.775C190.787 184.934 190.401 184.23 189.97 183.503C189.107 182.048 188.062 180.458 186.018 177.254C184.996 175.414 183.997 173.596 182.998 171.778C182.271 170.483 181.522 169.188 180.772 167.915C183.566 170.483 186.359 173.05 188.948 175.732C189.629 176.436 190.356 177.163 191.287 177.504C192.286 177.867 193.376 177.708 194.421 177.549C197.509 177.095 200.597 176.641 203.686 176.186C204.231 176.55 204.435 176.572 204.231 176.186C204.231 176.186 204.231 176.118 204.231 176.072C204.549 176.027 204.844 175.982 205.162 175.936L202.845 173.914C200.052 170.642 193.716 164.666 189.947 160.962C188.902 159.803 187.767 158.622 186.586 157.372C186.041 156.804 185.473 156.236 184.928 155.645C184.656 155.395 184.36 155.077 184.519 154.645C184.678 154.282 184.905 153.941 185.087 153.6C185.519 152.828 185.973 152.032 186.427 151.237C186.858 150.351 187.267 149.465 187.699 148.556C188.584 146.738 189.243 144.807 189.947 142.83C191.309 138.854 192.195 134.605 192.74 130.265C193.853 121.585 193.013 112.587 191.082 104.634C189.947 99.5668 187.403 95.5223 186.086 91.6369C182.862 83.6841 177.094 75.7767 169.418 69.5281C161.765 63.2114 152.114 58.8487 142.213 56.8946C141.327 56.6901 140.532 56.5538 139.806 56.4401C139.351 56.4174 139.283 56.4856 138.988 56.5083C138.534 56.5765 137.694 56.5992 138.216 56.1447C138.261 56.0766 138.284 56.0084 138.307 55.963V55.8948L138.352 55.3268C138.398 54.3952 138.397 53.4181 138.397 52.4183C138.397 50.4188 138.352 48.3511 138.397 46.5333C138.329 44.8973 138.352 43.5794 138.67 42.7159C139.079 41.0118 139.329 38.9668 139.442 36.74C139.465 36.172 139.487 35.6039 139.533 35.0359V34.1951C139.533 34.1951 139.465 34.1269 139.442 34.0588C139.442 34.0133 139.465 33.9679 139.601 33.9224C140.805 34.0588 141.985 34.127 143.144 34.3315C145.437 34.7405 147.663 35.1494 149.593 35.6948C155.225 37.5126 159.562 38.2851 164.558 40.262C167.442 41.489 168.805 42.2388 170.417 43.0113C171.212 43.3749 172.075 43.7385 173.21 44.2383C174.3 44.7837 175.618 45.4653 177.412 46.3515C184.837 50.9868 191.832 56.4174 197.895 62.9614C203.958 69.4827 209.204 77.0264 212.656 85.4791C214.109 88.5239 218.378 97.8854 220.195 110.292C221.126 116.472 221.49 123.312 221.081 130.174C220.717 137.036 219.491 143.852 217.811 149.965C214.609 162.28 209.272 171.483 207.773 174.641C207.024 176.254 207.206 176.391 208.659 174.55C209.386 173.618 210.476 172.232 211.838 170.21C213.087 168.142 214.813 165.552 216.494 162.076C226.576 140.49 228.461 114.859 221.013 91.864L221.081 92.0458ZM133.197 62.6433H133.47C133.697 63.0296 133.946 63.3932 134.151 63.7113C133.788 63.2795 133.492 62.9387 133.197 62.6433ZM69.2033 166.325C69.2033 166.325 69.3168 166.529 69.3623 166.643C69.3395 166.643 69.294 166.666 69.2713 166.688C69.2486 166.688 69.2487 166.711 69.226 166.711C69.1352 166.62 69.0897 166.575 68.9988 166.506C69.067 166.461 69.1579 166.393 69.2033 166.325ZM183.18 185.252L186.949 191.978C186.949 191.978 187.04 192.092 186.949 192.114L186.563 192.455C186.086 192.887 185.632 193.341 185.11 193.728C181.181 197.09 176.912 200.044 172.461 202.68C168.01 205.339 163.309 207.588 158.472 209.451C153.635 211.315 148.662 212.882 143.575 213.95C123.296 218.449 101.632 216.495 82.6469 208.179C80.5577 207.247 74.9032 204.612 68.3403 200.113C61.7774 195.636 54.3743 189.229 48.47 182.048L48.1067 181.639C48.0159 181.503 48.3337 181.412 48.4245 181.299C50.0823 180.162 51.672 179.026 53.2162 177.958C56.7134 175.482 59.8926 173.232 62.5496 171.369C65.0475 169.574 67.0232 168.097 68.2949 167.097C69.6347 169.051 71.9511 172.596 76.7881 177.05C85.1904 184.412 95.5457 189.592 106.446 192.16C117.369 194.75 128.882 194.796 139.851 192.364C150.819 189.888 161.288 184.911 170.008 177.663L173.233 174.868C173.778 174.414 174.3 173.914 174.754 173.391L175.663 172.391L175.845 172.187C175.845 172.187 175.913 172.301 175.958 172.346L183.202 185.229L183.18 185.252Z" fill="#063312"/>
<path d="M43.6102 166.142C45.1317 166.482 46.7214 166.21 48.2429 165.892C57.917 163.938 65.9559 161.052 74.3582 155.848L60.2105 148.509L59.62 148.691C56.6906 148.782 46.8123 151.622 41.1578 153.099C39.2956 153.463 37.3426 153.894 35.2761 154.394C34.3677 154.621 33.4367 154.826 32.4829 155.053L31.847 155.212C31.6653 155.212 31.3475 155.462 31.3702 155.076L31.0522 153.599C30.8479 152.645 30.6207 151.668 30.4163 150.691C30.2119 149.532 30.0076 148.373 29.7805 147.214C29.5307 146.055 29.4398 144.851 29.2581 143.647C29.1219 142.442 28.9175 141.238 28.8494 140.011C27.9637 130.218 28.8494 119.857 31.2793 110.995C32.5283 106.564 33.1414 102.27 34.9354 98.9975C38.2055 92.0218 42.2477 84.7053 47.062 77.5478C51.9672 70.4585 57.6899 63.5282 64.2982 57.6886C66.7281 55.6891 67.591 54.0303 69.9527 52.7806C71.2017 52.0535 72.6096 50.9855 74.0403 49.8267C75.5391 48.7588 77.0152 47.5772 78.4458 46.7138C79.6721 45.8503 80.694 45.2141 81.5342 45.0324C83.0784 44.5552 84.827 43.8735 86.6437 42.9646C88.5286 42.1921 90.4589 41.1014 92.5254 40.2607C96.5903 38.352 101.019 36.7842 104.743 36.1026C107.559 35.739 109.943 35.2391 112.282 34.6937C113.44 34.4211 114.598 34.1484 115.757 33.853C116.37 33.7167 116.96 33.6031 117.573 33.4668C117.732 33.4213 117.801 33.3758 117.937 33.3531C118.073 33.3531 118.164 33.3759 118.255 33.3986C118.255 33.5122 118.255 33.6031 118.255 33.694C118.255 33.7622 118.255 33.8303 118.255 33.8985L118.346 34.6256C118.55 36.3524 118.868 38.2838 119.458 42.1466C119.685 45.0323 119.935 47.8953 120.253 50.7811C120.412 52.2126 120.571 53.6668 120.73 55.0983L120.798 55.6436V55.7799L120.866 56.0526C120.889 56.2344 120.957 56.4616 120.957 56.6661L120.389 56.757C120.117 56.8025 120.253 56.8024 119.277 56.9388C117.8 57.166 116.347 57.4159 114.894 57.734C111.987 58.3021 109.126 59.0974 106.264 60.0972C100.496 61.8241 95.1596 64.687 89.8911 67.6636C89.2098 68.1862 88.1879 68.9361 86.8935 69.9131C86.2349 70.3903 85.531 70.9356 84.7589 71.5037C84.0095 72.1172 83.2374 72.8443 82.4199 73.5942C81.6024 74.344 80.7167 75.1392 79.7856 75.98C78.8545 76.8207 78.037 77.8432 77.1059 78.8202C76.1976 79.8427 75.2211 80.8425 74.2901 81.9559C73.4271 83.1147 72.5188 84.2963 71.6104 85.5233C71.1562 86.1368 70.7021 86.7503 70.2252 87.3638C69.8164 88.0227 69.4076 88.7044 68.9988 89.3634C68.1813 90.704 67.3184 92.0673 66.5009 93.4761C65.1157 96.4072 63.4579 99.2702 62.4133 102.429C61.8683 103.996 61.1642 105.473 60.7782 107.064C60.3467 108.632 59.938 110.2 59.5292 111.767C59.0751 113.313 58.9615 114.903 58.689 116.425C58.4619 117.971 58.144 119.47 58.1213 120.97C57.9623 123.946 57.758 126.787 58.0532 129.423C58.1441 130.718 58.2122 131.99 58.303 133.194C58.5301 134.376 58.7344 135.489 58.916 136.557C59.1204 137.603 59.3021 138.58 59.4838 139.511C59.5519 139.807 59.6428 140.079 59.7109 140.352C60.0743 143.169 60.5057 145.76 60.9372 148.009L68.4766 151.508C69.0897 152.008 69.771 152.508 70.6794 153.076C71.8149 153.849 73.2001 154.531 74.3355 154.917C74.8805 155.167 75.5391 155.303 76.1749 154.962C76.8108 154.667 77.2876 154.008 77.3784 153.394C77.4693 152.849 77.1514 152.213 77.0379 151.554L76.5382 149.577L75.539 147.237L75.0395 146.032L74.7897 145.419L74.6761 144.964C74.3809 143.737 74.0857 142.533 73.8586 141.374C73.7677 140.511 73.3135 139.784 73.1091 139.011C72.9048 138.261 72.7232 137.534 72.9048 136.785C72.9503 136.057 72.9729 135.308 72.9729 134.558C72.9729 134.171 72.973 133.808 72.9503 133.444C72.973 133.058 73.0184 132.672 73.0411 132.286C73.1546 130.74 73.1773 129.195 73.1319 127.605C73.2908 126.014 73.4271 124.401 73.5406 122.788C73.6087 121.152 74.063 119.561 74.3128 117.948C74.6988 116.834 73.9494 116.016 74.8123 115.221C75.4482 114.29 75.4256 112.654 75.7889 111.449C75.8571 110.881 75.9251 110.427 76.3112 110.245C77.4466 109.404 78.0144 107.927 78.4913 106.314C78.9228 104.655 79.6948 103.065 80.535 101.929C81.7613 100.225 82.3064 98.7476 83.3056 97.1343C84.759 95.4301 84.6681 95.3847 86.2123 92.9762C88.3469 90.6812 90.4135 88.4772 92.6617 86.0686C93.8425 85.0234 95.0688 83.9554 96.3178 82.9329C97.5214 81.8196 99.0201 81.1379 100.405 80.3426C101.336 79.5246 104.425 77.616 108.467 75.6391C109.512 75.2074 110.579 74.753 111.692 74.2985C112.26 74.0713 112.805 73.7987 113.395 73.5942C113.985 73.4124 114.576 73.2533 115.189 73.0715C116.37 72.7307 117.573 72.3671 118.754 72.0036L119.64 71.7309C119.64 71.7309 119.822 71.6627 119.912 71.64C120.003 71.64 120.117 71.6173 120.185 71.5946L125.976 62.4602C126.589 62.4148 127.225 62.3694 127.838 62.3239L125.658 39.3972L125.204 34.5801L124.863 31.0582C124.749 29.4222 124.431 28.0589 124.204 26.5592C124.25 26.2865 123.932 26.4229 123.773 26.4001H123.205H122.07C121.32 26.4001 120.571 26.4002 119.799 26.4456C118.368 26.4911 116.324 26.8319 115.87 26.9228C114.394 27.15 112.645 27.5135 111.033 27.8089C97.8847 29.6948 84.8952 34.6938 73.6543 41.8967C51.0361 56.348 34.2542 79.3428 27.5096 105.064C26.8965 107.473 25.0343 114.062 24.3303 122.788C23.8989 127.128 23.9216 131.99 24.2168 137.012C24.4439 139.511 24.6711 142.079 25.1252 144.601C25.3069 145.873 25.5113 147.146 25.8292 148.396C26.1244 149.713 26.3287 150.781 26.7147 152.281C28.1 155.439 27.6231 161.552 32.233 159.166C34.6856 160.802 37.1609 162.438 39.6134 164.051C40.8624 164.869 42.1569 165.733 43.6102 166.051V166.142Z" fill="#063312"/>
</svg>
