<svg width="250" height="250" viewBox="0 0 250 250" fill="none" xmlns="http://www.w3.org/2000/svg">
<path d="M226.754 107.942C226.171 105.714 225.11 103.485 223.254 101.177C222.22 99.9305 220.523 98.8958 219.091 98.2061C217.739 97.6224 216.281 97.0389 214.796 96.6144C211.853 95.6594 208.831 94.9961 206.18 94.3064C203.767 93.8819 201.858 93.4575 200.665 92.8739C198.464 92.025 195.786 91.3087 192.844 90.6985C193.453 89.266 193.957 87.3028 194.381 85.9764C196.979 81.0951 197.775 73.0569 199.817 66.7166C200.426 65.1249 199.843 63.5066 200.718 62.3128C201.354 61.1986 201.884 59.2355 201.858 57.352C201.831 55.4685 201.407 53.5584 200.506 51.7014C199.604 49.8709 198.173 47.9874 195.892 46.7141C194.752 46.0774 193.4 45.7325 192.075 45.6264L189.715 45.4937C188.601 45.2549 187.939 46.1039 187.037 45.4407C186.03 45.0162 184.492 45.4407 183.299 45.3611C182.742 45.4672 182.318 45.4672 182.053 45.1488C179.932 43.504 175.769 44.9632 173.091 44.2204C171.103 43.7163 169.565 44.0877 167.735 44.0612C165.614 43.6633 165.615 43.6897 162.884 43.902C156.971 42.9735 150.794 43.7959 144.643 43C143.423 43.0265 140.029 43.1062 135.787 43.2123C133.666 43.2919 131.386 43.3449 129.053 43.5836C126.773 43.8224 124.307 44.5121 122.981 46.0773C122.292 46.8467 122.027 47.7221 121.815 48.5976C121.602 49.473 121.497 50.3219 121.417 51.0647C121.284 52.5503 121.337 53.691 121.496 54.1951C121.682 54.6991 121.921 54.7257 122.239 54.1421C122.584 53.5584 123.061 52.1789 123.962 50.2158C124.095 49.8444 124.227 49.4465 124.36 49.1547C124.439 48.9955 124.492 48.8629 124.546 48.7567L124.625 48.6241V48.5976C124.625 48.5976 124.625 48.5976 124.492 48.4914C124.837 48.6506 124.678 48.4118 124.811 48.3853C124.89 48.3323 124.943 48.2527 125.023 48.1997C125.182 48.067 125.394 47.9609 125.606 47.8548C126.561 47.4303 128.151 47.2711 129.901 47.3507C133.56 47.5099 137.404 47.8282 141.196 48.2261C148.832 49.0751 156.467 49.8975 164.13 50.7464C171.819 51.5953 179.534 52.3116 187.302 52.8156L190.219 52.9748L191.65 53.0544C191.783 53.0544 191.916 53.0809 192.048 53.134C192.578 53.2931 193.453 54.0094 194.063 55.1766C194.673 56.3174 195.071 57.7499 195.097 59.0763C195.097 59.4212 195.097 59.7396 195.097 60.058L194.911 61.464L194.514 64.3025C194.355 65.1249 193.957 67.3798 193.453 70.2714C192.896 73.163 192.419 76.6914 191.942 80.0871C191.359 84.1459 190.882 87.9926 190.828 90.3006C187.912 89.77 184.81 89.319 181.628 88.921C174.364 88.0191 167.02 87.3824 161.107 86.0825C152.331 84.2786 145.677 83.7746 137.67 82.6869C128.363 81.0156 128.337 81.0421 116.406 79.6891C103.414 77.4342 90.2904 75.4976 77.0868 73.2957C73.7462 72.7386 70.5381 72.2081 67.1709 71.5714C63.7772 70.9612 60.2776 70.4836 56.6718 70.5102C53.0925 70.5632 49.248 71.0673 45.7747 73.0304C45.5626 73.1365 45.3771 73.2957 45.165 73.4283C45.3241 72.6855 45.4566 71.5183 45.5891 69.7674L45.4566 67.3798C45.4566 66.6635 45.5096 66.0269 45.6157 65.5229C45.8543 64.4352 46.199 63.9841 46.9413 63.4801C47.7102 62.9761 48.9828 62.6312 50.4146 62.472C51.8728 62.3128 53.4106 62.2864 55.1605 62.2864C61.9479 62.2864 68.7353 62.2333 75.5492 62.2068C89.1504 62.1007 102.778 61.7823 116.3 61.013C117.36 61.013 118.394 60.8803 119.375 61.6231C120.383 62.2598 121.549 64.5413 122.186 67.2207C123.856 73.11 125.632 78.4158 126.295 77.4607C127.568 77.0893 126.852 73.163 126.64 71.0142C126.773 69.7674 126.746 68.441 126.587 67.0085C126.455 65.6024 126.242 64.0107 125.686 62.4455C125.155 60.8803 124.333 59.2355 122.928 57.856C121.523 56.4766 119.561 55.6542 117.732 55.4155C116.008 55.0706 114.868 55.9725 113.649 55.3093C108.77 53.7972 103.017 54.2747 97.396 54.4338C96.3885 54.2747 95.8582 55.1767 95.0098 54.6196C94.0818 54.3012 92.7561 54.8583 91.6956 54.8849C91.2184 55.0175 90.8472 55.0705 90.5821 54.7787C88.5406 53.3462 85.0408 55.2297 82.6016 54.7787C80.7987 54.4869 79.4997 55.044 77.8823 55.2032C75.9999 55.044 75.9733 55.0705 73.6136 55.6011C68.3375 55.3623 63.0083 56.901 57.5466 56.7684C56.5126 57.0071 53.5696 57.1929 49.7252 58.0683C47.8693 58.5458 45.6952 59.2886 44.1575 60.9068C42.5932 62.5251 42.3281 64.78 42.5137 66.5574C43.0704 70.1388 43.8393 73.0304 44.3431 74.012C41.5857 76.0812 39.6503 79.2647 38.9345 82.4216C38.5368 83.9337 38.298 85.6581 37.8473 88.0722C37.4231 90.4598 36.8929 93.3514 36.2831 96.6674C35.09 103.3 33.5788 111.576 31.9349 120.676C30.5032 129.245 29.2041 138.609 27.8254 147.974C28.0906 143.809 28.3291 139.644 28.5942 135.479C29.3631 124.204 30.1055 112.929 30.8743 101.602L32.0144 84.65C32.4916 78.9729 32.4652 73.0835 32.9424 67.8308C33.4992 62.5782 34.5067 57.1929 37.211 53.8237C37.5557 53.3993 37.9268 52.9748 38.298 52.5769C38.4836 52.3646 38.7223 52.2055 38.9079 51.9932C39.12 51.8075 39.2261 51.7544 39.3851 51.6218C40.101 51.1443 41.188 50.6933 42.3281 50.2954C44.6612 49.5526 47.286 49.1016 49.9108 48.8098C51.0774 48.6771 54.2855 48.4915 58.3951 48.7037C59.4291 48.7568 60.4897 48.8364 61.6032 48.9425C62.7963 49.0486 64.0159 49.1812 65.2886 49.2873C67.8073 49.4995 70.4321 49.6853 73.0304 49.7648C75.6022 49.871 78.2534 49.7648 80.3744 49.7648C82.4955 49.7118 84.3514 49.7913 86.0218 49.8975C89.3094 50.1097 91.298 50.1628 90.7943 49.6057C91.0064 48.3058 84.5901 46.8998 81.1169 46.5284C77.246 45.6264 72.4471 45.2549 67.3831 44.5652C64.8378 44.2734 62.3455 43.8754 59.6676 43.5836C57.0428 43.3183 54.4181 43.1857 51.9524 43.1061C49.4071 42.9204 47.233 43.9816 45.1385 43.6632C42.9909 43.6632 40.7108 43.8224 38.2451 44.6183C37.052 44.9897 35.6468 45.6529 34.4006 46.6079C33.3401 47.4038 32.3592 48.3853 31.4843 49.473C29.7079 51.6218 28.4881 54.1951 27.6927 56.6888C26.8708 59.209 26.4201 61.6762 26.0489 64.1168C25.5982 65.8943 26.3936 66.9288 25.7042 68.3083C25.227 69.8735 25.6247 72.2081 25.5717 73.9589C25.6778 74.7548 25.6777 75.3914 25.3596 75.8159C24.5642 77.4872 24.5377 79.6891 24.5907 82.0767C24.6438 84.4908 24.8028 86.9845 24.4051 88.9742C23.8749 91.9188 24.2462 94.1472 24.1931 96.8266C23.7954 99.957 23.7953 99.957 24.0339 103.963C23.0794 112.691 23.9014 121.684 23 130.704C23 132.455 23.0529 137.442 23.0795 143.623C23.106 149.751 23.1856 157.206 24.6173 163.201C24.8559 164.315 25.1741 165.35 25.5188 166.332C25.8369 170.735 28.0905 174.688 30.9274 177.527C34.2946 180.604 38.3775 182.408 42.1159 184C45.8808 185.538 49.4602 186.706 52.6683 187.687C59.0845 189.624 64.0158 190.711 66.5081 191.136C69.0003 191.56 69.08 191.322 65.9514 190.154C62.8759 188.934 56.4066 187.051 46.6763 182.832C42.9114 181.294 39.2261 179.516 36.0975 177.447C34.5332 176.359 33.3135 175.325 32.3325 173.998C31.219 172.513 30.3441 171.001 29.8668 169.462C28.8328 166.464 29.3366 162.909 30.185 158.824C30.6092 156.808 31.06 154.686 31.4577 152.537L32.5447 146.302C34.0294 137.999 35.3021 129.696 36.946 121.339C38.6693 112.983 40.3926 104.626 42.1159 96.2695L43.4152 90.0087L44.078 86.8784C44.2901 85.8703 44.5022 84.6765 44.7409 83.9868C45.5362 80.6707 47.286 78.4423 50.388 77.4076C53.4105 76.2404 57.3876 76.3465 61.2585 76.771C63.2205 77.0097 65.209 77.3811 67.2505 77.8321L73.5607 79.1055C90.317 82.4216 107.179 85.3397 124.015 88.0191L149.256 92.078L161.85 94.1472C166.092 94.8635 170.387 95.4737 174.549 96.1104C182.928 97.3837 191.306 98.6836 199.445 100.488C203.502 101.39 207.532 102.398 211.35 103.671C213.179 104.308 215.247 105.077 216.626 105.82C217.845 106.377 218.429 107.226 218.959 108.393C219.993 110.807 219.675 114.786 218.853 118.554C218.058 122.453 216.705 126.273 215.512 130.651C214.505 134.471 213.046 138.45 211.641 142.429C210.21 146.435 208.778 150.468 207.426 154.553C204.801 162.856 202.547 170.868 199.843 178.853C198.517 182.832 197.139 186.785 195.574 190.579C194.805 192.489 193.984 194.346 193.109 196.07C193.003 196.282 192.896 196.521 192.79 196.707L192.499 197.131C192.34 197.423 192.154 197.715 191.889 197.927C191.465 198.431 190.935 198.856 190.298 199.227C189.238 199.89 186.692 200.872 182.371 201.031C180.223 201.111 177.731 201.058 174.894 200.951C172.137 200.819 168.69 200.819 165.641 200.792C152.862 200.58 137.033 199.36 122.027 197.901C106.994 196.468 92.6767 194.664 82.6812 193.152C72.6592 191.64 67.1179 190.26 68.6556 191.189C68.417 191.826 73.0038 193.55 79.1284 194.983C85.2264 196.468 92.7297 197.742 97.9263 198.643C109.3 201.164 123.883 203.153 139.234 204.639C146.923 205.355 154.77 205.992 162.592 206.31C164.527 206.416 166.516 206.443 168.451 206.469C170.334 206.496 172.19 206.576 174.072 206.682C177.837 206.894 181.655 207.186 185.552 206.841C189.397 206.602 193.665 205.196 196.37 201.96C197.112 201.217 197.536 200.315 198.093 199.492C198.464 198.75 198.835 198.007 199.207 197.291C199.922 195.858 200.638 194.479 201.354 193.179C206.895 182.116 210.899 169.17 215.141 156.357C217.342 149.937 219.887 143.49 222.141 136.593C222.697 134.895 223.228 132.879 223.625 131.393L225.11 126.326C226.091 122.851 227.046 119.243 227.443 115.291C227.841 112.478 227.549 110.091 226.913 107.863L226.754 107.942Z" fill="#063312"/>
<path d="M174.363 122.188C150.475 132.959 126.057 144.128 103.732 158.214C102.46 158.957 96.8654 162.14 91.8544 165.244C89.3357 166.783 87.0025 168.375 85.3852 169.542C83.7944 170.762 82.8665 171.452 83.4232 171.664C84.1391 172.805 87.5594 170.974 89.4683 170.179C94.1611 169.224 99.835 165.35 105.058 163.202C106.41 162.724 107.153 161.451 108.425 161.398C113.171 160.283 117.811 157.259 122.557 154.633C123.485 154.315 123.564 153.359 124.519 153.412C125.447 153.253 126.348 152.219 127.25 151.715C127.594 151.396 127.912 151.184 128.257 151.317C130.564 151.556 132.844 148.531 135.124 147.842C136.794 147.311 137.696 146.303 139.048 145.507C140.745 144.844 140.745 144.817 142.627 143.411C147.294 141.395 151.43 138.052 156.308 136.036C158.058 135.002 165.773 130.386 172.614 126.3C178.791 122.533 182.583 119.695 174.443 122.215L174.363 122.188Z" fill="#063312"/>
<path d="M117.678 174.688C113.622 176.678 109.963 178.508 110.811 179.012C111.342 180.126 114.152 179.145 115.716 178.773C119.534 178.747 124.148 176.2 128.363 175.033C129.45 174.821 130.06 173.733 131.068 173.892C134.912 173.6 138.65 171.452 142.389 169.621C143.131 169.435 143.158 168.56 143.926 168.746C144.669 168.719 145.358 167.87 146.074 167.525C146.339 167.26 146.578 167.127 146.869 167.26C148.778 167.764 150.475 165.217 152.278 164.819C153.604 164.501 154.293 163.679 155.327 163.042C156.679 162.591 156.653 162.564 158.085 161.424C161.77 160.018 164.845 157.206 168.61 155.694C171.129 153.916 194.169 139.617 181.761 143.676C163.864 152.775 145.013 160.734 127.197 170.178C126.189 170.656 121.735 172.751 117.652 174.662L117.678 174.688Z" fill="#063312"/>
<path d="M202.6 74.3834C205.066 75.0996 207.558 75.6302 209.891 76.1607C211.058 76.426 212.171 76.7179 213.285 77.0362L214.955 77.5403C215.485 77.6994 216.307 77.9382 216.944 78.0973L218.561 78.4422C218.8 78.4953 218.667 78.4687 218.747 78.4953C218.747 78.4953 218.773 78.5218 218.8 78.5484C218.8 78.6014 218.8 78.4422 218.826 78.9463C218.879 79.6891 218.826 80.9624 218.773 82.0501C218.72 83.1643 218.667 84.3316 218.614 85.5784C218.561 86.1355 218.11 88.2578 217.713 90.2474C217.527 91.229 217.315 92.2636 217.315 93.1126C217.315 93.988 217.554 94.6247 217.978 94.492C219.171 94.5981 219.781 93.2187 220.337 92.6085C222.485 91.4412 222.75 88.8149 223.864 86.8253C224.235 86.3478 223.519 85.7641 224.208 85.4193C225.958 83.8541 225.905 81.7318 225.932 79.4238C226.091 78.9463 225.242 78.7075 225.773 78.2831C226.117 77.8851 225.455 76.9301 225.322 76.3464C225.11 76.1077 225.004 75.8955 225.189 75.6302C225.64 74.7282 225.057 73.7997 224.235 73.2691C223.36 72.7385 222.379 72.5264 221.716 72.0754C221.186 71.7305 220.682 71.6243 220.258 71.6774C220.046 71.6774 219.807 71.6774 219.622 71.7305C219.489 71.757 219.33 71.7835 219.197 71.8101C218.588 71.5183 218.614 71.5448 217.766 71.8101C217.103 71.4917 215.963 71.4122 214.982 71.4122C213.948 71.4122 212.94 71.4121 212.012 71.0938C211.217 71.1733 208.088 71.4652 204.721 71.757C201.884 72.0753 199.869 72.2876 202.68 74.3834H202.6Z" fill="#063312"/>
</svg>
