<svg width="250" height="250" viewBox="0 0 250 250" fill="none" xmlns="http://www.w3.org/2000/svg">
<path d="M118.943 150.327C119.862 147.937 120.895 145.64 121.906 143.503C122.962 141.412 123.927 139.505 124.73 137.896C126.269 134.702 127.073 132.749 126.43 133.094C125.442 132.473 121.883 138.517 119.816 141.642C117.267 144.927 114.695 149.546 113.11 154.946C112.376 157.634 111.801 160.575 112.284 163.654C112.467 164.412 112.536 165.194 112.904 165.929L113.386 167.055C113.593 167.4 113.845 167.744 114.075 168.066C114.511 168.778 115.154 169.284 115.774 169.812C116.371 170.387 117.06 170.731 117.726 171.076C120.436 172.501 123.123 172.087 125.442 172.524C126.682 172.615 128.037 172.524 129.484 172.041C130.724 171.627 131.895 171.053 133.02 170.387C135.248 169.054 137.2 167.331 138.991 165.63C142.574 162.207 145.972 158.369 149.233 154.486C150.496 153.176 150.565 151.959 151.851 151.085C153.091 149.959 154.239 147.8 155.342 146.237C155.755 145.479 156.146 144.904 156.628 144.675C159.797 142.469 162.047 136.242 164.596 132.726C166.457 130.084 167.237 127.786 168.477 125.144C170.154 122.179 170.2 122.202 171.623 118.089C173.759 113.861 175.367 109.335 176.745 104.716C177.433 102.442 178.191 100.075 178.559 97.4324C178.949 94.813 178.811 91.8718 177.525 89.1834C176.997 88.2873 175.619 86.1504 172.749 85.1623C169.97 84.1743 166.296 84.7028 163.31 86.5869C160.302 88.4252 157.868 91.0906 155.342 93.6181C152.839 96.1916 150.473 98.8571 148.384 101.362C144.204 106.394 141.196 110.782 140.415 112.437C139.657 114.114 141.058 112.942 146.501 107.703C150.45 103.407 154.584 99.2706 158.97 95.3874C161.198 93.4343 163.333 91.4812 165.423 90.4012C166.502 89.8498 167.49 89.5281 168.5 89.4132C169.511 89.3213 170.475 89.4592 171.187 89.8038C172.519 90.3553 173.507 92.2165 173.553 94.3994C173.621 96.6052 172.818 99.2017 171.807 102.005C169.855 107.566 167.605 113.011 165.033 118.319C159.889 128.935 153.551 138.953 146.202 148.167C142.528 152.786 138.624 157.174 134.467 161.333C132.4 163.401 130.38 165.263 128.221 166.48C127.945 166.618 127.67 166.779 127.394 166.894C127.142 167.009 127.004 167.078 126.751 167.147C126.292 167.285 125.764 167.4 125.167 167.445C124.018 167.56 122.755 167.468 121.561 167.216C121.056 167.101 120.023 166.848 119.012 166.297C118.117 165.676 117.221 164.964 116.808 163.424C116.348 161.908 116.371 159.702 116.808 157.381C117.244 155.038 118.025 152.579 118.92 150.189L118.943 150.327Z" fill="#063312"/>
<path d="M148.2 124.454C147.626 125.533 147.006 126.59 146.363 127.624C145.054 129.692 143.63 131.669 142.161 133.576C140.714 135.391 138.946 137.643 137.889 138.424C137.82 138.493 137.361 138.562 137.177 138.217C137.131 138.125 137.086 138.125 137.017 137.918C136.948 137.62 136.856 137.275 136.787 136.976C136.672 136.379 136.351 135.919 136.052 135.988C135.157 135.805 134.651 137.183 134.422 137.987C133.71 138.838 133.664 140.584 134.743 141.733C135.8 142.951 137.637 143.249 139.267 142.928C139.703 142.928 140.071 142.606 140.324 142.376C140.576 142.169 140.783 141.986 141.15 142.054C142.459 141.963 143.607 141.181 144.365 140.469C145.192 139.711 145.881 138.792 146.57 137.918C146.937 137.689 146.501 137.068 147.075 137.091C147.534 136.976 147.488 136.264 147.741 135.942C147.764 135.713 147.833 135.575 148.085 135.644C149.578 135.713 149.142 133.668 149.992 133.093C150.589 132.634 150.52 131.967 150.749 131.347C151.255 130.772 151.255 130.772 151.369 129.738C152.586 127.992 152.678 125.809 153.551 123.465C153.551 123.006 153.62 121.535 152.977 119.973C152.38 118.364 150.749 117.032 149.326 116.94C147.925 116.802 146.983 117.491 146.731 117.882C146.455 118.318 147.006 118.686 147.764 119.192C148.751 119.352 149.44 120.111 149.234 121.788C149.119 122.638 148.797 123.374 148.223 124.454H148.2Z" fill="#063312"/>
<path d="M62.4514 116.274C68.9043 116.573 75.3803 115.172 81.3969 112.805C82.8437 112.23 84.3593 111.472 85.2779 110.254C98.4594 114.367 111.641 118.963 125.006 122.364C125.764 122.593 128.703 123.581 131.781 124.523C131.046 125.649 130.104 126.683 129.209 127.74C127.923 129.257 133.457 131.348 136.58 131.302C137.614 131.302 140.829 130.521 141.839 130.291C142.85 130.061 143.837 129.464 144.296 128.545C144.87 127.35 144.457 125.948 143.952 124.73C143.01 122.455 141.747 120.319 140.232 118.388C139.566 117.538 138.808 116.711 137.843 116.206C136.879 115.7 135.662 115.585 134.743 116.16C133.296 117.033 133.227 118.94 133.067 120.686C131.161 119.813 129.048 119.055 127.28 118.067C126.499 117.538 125.511 117.975 125.006 117.217C122.572 115.057 119.104 114.321 115.82 113.333C115.269 113.012 114.741 113.632 114.397 113.012C113.937 112.575 113.019 112.759 112.399 112.575C112.077 112.598 111.848 112.575 111.779 112.276C110.975 110.714 108.449 111.541 107.14 110.714C106.175 110.139 105.28 110.3 104.292 110.139C103.236 109.657 103.236 109.657 101.697 109.611C98.6891 108.393 95.2215 108.554 92.0983 107.313C91.3405 107.221 88.8603 106.854 86.0127 106.463C85.7372 105.291 85.1401 104.142 84.5201 103.108C80.3635 96.169 75.2655 89.7812 69.3866 84.2206C68.7206 83.6002 68.0317 82.9568 67.159 82.727C66.2864 82.4973 65.2071 82.796 64.8396 83.6461C64.4722 84.4963 65.0004 85.4614 65.4367 86.2656C67.9398 90.8841 68.2154 96.6745 66.1945 101.523C64.1507 106.371 59.8105 110.116 54.7813 111.679C51.9337 112.575 53.1967 115.746 62.4743 116.183L62.4514 116.274Z" fill="#063312"/>
<path d="M75.9314 54.3496C75.9544 55.1079 76.827 55.4526 76.5514 56.1649C76.2759 58.8303 77.6308 61.2889 78.733 63.7935C78.8019 64.299 79.5368 64.276 79.2842 64.8045C79.2153 65.31 79.8583 65.7466 80.065 66.2291C80.2487 66.3899 80.3635 66.5508 80.1798 66.7576C79.4679 68.1133 81.4888 69.1473 81.5806 70.3881C81.6725 71.2842 82.2925 71.7208 82.7059 72.4101C82.9126 73.3062 82.9355 73.3062 83.7393 74.2253C84.4742 76.684 86.495 78.6601 87.2988 81.2106C87.8958 82.0378 90.5367 86.2427 92.7413 89.1838C94.9688 92.148 96.7601 93.8713 95.8645 89.6434C90.4219 77.7409 86.1276 65.0572 80.3405 53.2237C80.065 52.5574 78.9168 49.5473 77.7456 46.8359C77.1715 45.4802 76.5744 44.2165 76.0462 43.3433C75.518 42.4932 74.898 42.1255 74.7143 42.3782C73.8416 42.7459 74.301 44.6301 74.4158 45.71C73.8876 48.3754 75.4721 51.4315 75.9084 54.3037L75.9314 54.3496Z" fill="#063312"/>
<path d="M96.9668 50.1212C96.9898 50.9484 97.8624 51.362 97.5639 52.1432C97.2194 54.9924 98.5055 57.7498 99.447 60.576C99.47 61.1275 100.228 61.1964 99.9293 61.7479C99.8144 62.2994 100.457 62.8279 100.618 63.3793C100.802 63.5861 100.871 63.7699 100.687 63.9767C99.8603 65.3324 101.789 66.7111 101.743 68.0668C101.743 69.0548 102.34 69.6063 102.662 70.4105C102.777 71.4215 102.777 71.4215 103.466 72.5474C103.902 75.3047 105.624 77.8323 106.015 80.7275C106.451 81.7385 108.38 86.8166 109.85 90.6079C110.608 92.4921 111.297 94.0315 111.779 94.5141C112.238 94.9966 112.697 94.3992 112.72 91.9866C110.194 77.6025 107.278 62.8508 101.491 49.271C101.215 48.5127 100.067 45.0891 98.7581 42.079C98.1151 40.5625 97.4491 39.1378 96.8291 38.1957C96.255 37.2307 95.6579 36.7941 95.4512 37.0928C94.5556 37.4834 95.1297 39.5514 95.2905 40.7233C94.8541 43.5955 96.5305 46.9962 96.9439 50.1212H96.9668Z" fill="#063312"/>
<path d="M74.6682 126.913C76.0231 126.361 77.3091 125.81 78.1818 125.304C79.0774 124.891 79.3989 124.11 79.1463 123.926C78.8248 123.076 76.8728 123.397 75.8165 123.466C73.1526 122.8 70.0524 124.316 67.1818 124.638C66.424 124.638 66.0795 125.534 65.3447 125.213C62.6808 124.822 60.2007 126.132 57.6746 127.143C57.1694 127.189 57.1924 127.97 56.6412 127.671C56.136 127.579 55.6767 128.223 55.2174 128.429C55.0337 128.613 54.873 128.705 54.6892 128.521C53.3573 127.763 52.278 129.762 51.0379 129.808C50.1423 129.877 49.683 130.497 48.9941 130.888C48.0755 131.072 48.0985 131.095 47.1569 131.876C44.6768 132.542 42.6559 134.541 40.1299 135.277C38.4764 136.472 23.0903 145.272 31.4953 143.641C43.5286 138.563 56.2968 134.702 68.2382 129.28C68.9042 129.004 71.9584 127.97 74.6682 126.89V126.913Z" fill="#063312"/>
<path d="M81.718 137.758C78.9163 137.505 75.8851 139.436 72.9686 140.171C72.1878 140.286 71.9122 141.205 71.1314 140.998C68.3527 140.998 65.9415 142.629 63.4384 144.008C62.9332 144.123 63.025 144.881 62.428 144.674C61.8998 144.651 61.4864 145.364 61.0271 145.617C60.8664 145.823 60.7056 145.938 60.476 145.8C59.0063 145.226 58.1336 147.386 56.8706 147.616C55.952 147.822 55.5616 148.489 54.8957 148.971C53.9771 149.293 53.9771 149.293 53.1044 150.212C50.6243 151.246 48.7642 153.498 46.2151 154.601C45.4114 155.29 41.3008 158.415 38.4302 160.966C35.5597 163.516 33.9292 165.515 38.1776 164.137C50.0272 157.381 62.7724 151.729 74.4842 144.583C75.1502 144.215 78.1585 142.744 80.8453 141.274C82.2002 140.538 83.4633 139.803 84.29 139.183C85.1397 138.585 85.4841 137.942 85.1856 137.758C84.7033 136.862 82.7744 137.528 81.695 137.758H81.718Z" fill="#063312"/>
<path d="M220.721 105.084C220.629 104.257 220.652 102.694 220.354 100.649C219.963 98.6043 219.573 96.0308 218.586 93.2964C216.817 87.7358 213.074 81.6238 208.711 76.7295C204.325 71.8582 199.663 67.8142 196.195 65.2407C192.705 62.6901 190.592 61.3344 190.937 62.1387C190.891 62.2076 190.868 62.3225 190.891 62.4374C190.202 61.9319 189.49 61.4263 188.732 61.0127C187.079 60.2085 183.427 58.7609 178.651 59.1515C173.897 59.4732 168.431 61.4953 163.15 64.5513C152.632 70.7093 141.494 79.7625 133.365 88.586C125.167 97.3635 119.747 105.544 118.163 108.393C117.382 109.817 117.543 109.955 119.035 108.393C120.528 106.853 123.352 103.613 128.152 98.6273C135.34 90.6999 143.286 83.439 152.012 77.1891C156.352 74.0871 160.968 71.1459 165.561 68.6643C170.154 66.2976 175.022 64.4134 179.615 64.4364C184.208 64.3675 188.181 66.5274 190.891 70.3187C193.646 74.0641 194.863 78.8894 195.024 83.9675C195.254 89.0455 194.404 94.4453 193.646 99.7761C193.141 102.419 192.659 105.061 192.062 107.703C191.35 110.3 190.845 112.965 189.995 115.516C186.918 125.833 182.6 135.805 177.204 145.134C171.761 154.44 165.194 163.08 157.753 170.869C154.056 174.775 150.037 178.36 145.903 181.829C143.768 183.461 141.655 185.138 139.496 186.701C137.315 188.24 135.11 189.688 132.86 190.906C130.609 192.124 128.29 193.158 125.924 193.824C123.559 194.467 120.826 195.042 118.346 195.363C113.294 196.007 108.38 195.593 104.177 193.318C103.236 192.813 101.49 191.848 99.7452 190.079C98.0228 188.309 96.4153 185.621 95.5656 181.898C95.1293 180.06 94.8308 177.992 94.693 175.855C94.5552 173.741 94.5782 171.513 94.7849 169.238C95.1982 164.665 96.2087 159.909 97.4487 155.221C99.883 145.869 103.236 137.299 105.9 131.347C108.563 125.396 110.309 121.996 109.367 122.777C108.862 122.478 106.956 125.052 104.912 128.59C102.845 132.106 100.733 136.563 99.3548 139.688C95.8872 146.421 92.5114 155.451 90.7202 165.469C89.8475 170.479 89.6868 175.855 90.5135 181.002C90.9269 183.599 91.5699 186.195 92.741 188.631C93.8893 191.067 95.5197 193.272 97.4487 195.019C100.457 197.822 103.994 199.04 107.254 199.982C108.196 200.717 109.298 201.544 110.584 202.486C116.578 206.255 122.939 209.931 130.288 211.93C133.939 212.941 137.866 213.447 141.862 213.079C142.849 213.033 143.86 212.849 144.847 212.643C145.881 212.482 146.776 212.183 147.649 211.884C149.417 211.287 151.254 210.781 152.908 210C159.774 207.151 166.02 203.199 171.715 198.672C177.411 194.123 182.623 189.044 187.331 183.553C196.701 172.569 204.531 160.253 210.158 146.949C212.936 140.401 215.508 133.737 217.575 126.821C219.619 119.928 221.158 112.598 220.721 105.061V105.084ZM199.433 71.6974C199.617 71.9272 199.824 72.1799 200.007 72.4097C199.135 71.5825 198.216 70.7783 197.252 69.9511C197.022 69.5375 196.792 69.1468 196.563 68.7332C197.642 69.7902 198.675 70.8013 199.433 71.6974Z" fill="#063312"/>
</svg>
