<svg width="250" height="250" viewBox="0 0 250 250" fill="none" xmlns="http://www.w3.org/2000/svg">
<path d="M52.8645 160.627C67.5157 162.054 82.3018 163.675 97.0879 165.276C111.893 166.838 126.699 168.4 141.465 169.519C144.723 169.847 170.209 172.74 168.763 171.352C168.859 170.445 164.56 169.77 162.305 169.268C157.389 167.455 149.678 166.877 143.451 165.603C141.89 165.198 140.367 165.661 139.171 165.044C134.024 163.347 127.759 162.961 121.648 162.382C120.568 162.151 119.913 162.729 119.045 162.228C118.081 161.881 116.578 162.112 115.421 162.016C114.901 162.054 114.476 162.054 114.226 161.804C112.144 160.511 108.153 161.437 105.57 160.82C103.642 160.395 102.177 160.608 100.404 160.53C98.3603 160.183 98.3603 160.203 95.7192 160.28C90.013 159.431 84.0946 159.875 78.1763 159.064C75.9401 159.064 64.9132 158.698 56.7972 158.679C52.7489 158.679 49.4138 158.717 48.2764 159.007C47.139 159.296 48.1993 159.74 52.8838 160.665L52.8645 160.627Z" fill="#063312"/>
<path d="M113.031 175.384C110.544 173.763 106.476 173.474 103.257 172.432C102.447 172.085 101.618 172.587 101.021 172.027C98.3988 170.523 95.0829 170.368 91.8828 170.021C91.3238 169.828 90.9382 170.426 90.5141 169.963C90.0322 169.655 89.2032 169.963 88.6056 169.886C88.3164 169.944 88.1044 169.944 87.9887 169.713C86.967 168.497 84.7886 169.578 83.4584 169.037C82.4752 168.671 81.6656 168.941 80.7402 168.941C79.6799 168.671 79.6799 168.69 78.2727 168.864C75.3039 168.227 72.1038 168.883 69.0193 168.285C67.8241 168.343 61.9829 168.401 57.6839 168.671C55.5248 168.825 53.7512 168.98 53.1343 169.307C52.5174 169.635 53.038 170.04 55.467 170.793C63.1588 171.68 70.9085 172.76 78.6775 173.802C86.4464 174.824 94.2155 175.846 101.984 176.387C103.7 176.579 117.06 178.547 116.385 177.216C116.501 176.329 114.264 175.808 113.088 175.384H113.031Z" fill="#063312"/>
<path d="M95.0253 181.305C93.3288 179.781 90.4564 179.627 88.2202 178.701C87.6611 178.393 87.0635 178.933 86.6587 178.373C84.8659 176.965 82.5332 176.927 80.2777 176.695C79.8922 176.522 79.5837 177.139 79.3138 176.695C78.9861 176.406 78.3885 176.734 77.9644 176.695C77.7523 176.772 77.5981 176.772 77.521 176.56C76.8463 175.384 75.2655 176.541 74.3401 176.059C73.6461 175.731 73.0678 176.039 72.4123 176.059C71.6798 175.827 71.6606 175.846 70.6581 176.059C68.5761 175.538 66.3013 176.29 64.1422 175.827C63.294 175.943 59.1685 176.194 56.1033 176.618C54.5803 176.849 53.308 177.081 52.8646 177.409C52.402 177.756 52.7682 178.142 54.4647 178.798C59.8817 179.396 65.3181 180.206 70.7738 180.958C76.2294 181.691 81.685 182.424 87.1599 182.713C88.3552 182.848 97.7434 184.314 97.3001 183.022C97.4157 182.135 95.8543 181.691 95.0446 181.325L95.0253 181.305Z" fill="#063312"/>
<path d="M81.7043 47.4968C84.5767 43.1182 81.0489 36.7335 75.0149 38.1995C71.1015 39.1446 68.4797 44.237 71.063 47.8633C74.0318 52.0491 79.6416 50.9689 81.7236 47.5161L81.7043 47.4968Z" fill="#063312"/>
<path d="M207.357 67.7503C206.933 64.7219 205.68 62.0021 204.369 59.5331C201.689 54.5758 198.47 50.5637 195.829 47.4582C194.248 45.6064 192.879 44.1597 191.761 43.0217C191.704 42.9445 191.646 42.8674 191.588 42.7902C190.431 41.3628 188.87 40.0705 187.135 39.1446C183.626 37.2929 179.771 36.6563 176.05 36.2512C168.686 35.634 161.322 35.2868 155.249 34.5731C146.343 33.5894 139.711 33.4929 131.634 33.0299C125.362 32.477 118.223 32.0398 110.216 31.7183C103.642 31.1589 97.0493 30.6767 90.4177 30.1945C87.102 29.963 83.7861 29.7122 80.4511 29.4808L75.4581 29.1143C74.687 29.0564 73.646 28.96 72.7014 29.0178C71.7375 29.0757 70.7736 29.2107 69.829 29.4615C67.9397 29.963 66.1083 30.8696 64.6047 32.3934C63.0817 33.9751 62.3877 35.9233 61.925 37.6593C61.4816 39.4532 61.2118 40.9963 60.8455 42.6745L59.8237 47.6703C58.5514 54.3251 57.2598 61.0184 55.9682 67.731C55.1392 72.7847 52.6717 87.7531 49.9343 106.058C47.2546 124.383 44.0545 146.025 42.358 164.446C42.0881 167.629 41.8568 170.754 42.1074 173.667C41.7411 185.259 45.8666 193.091 49.1824 197.527C49.9728 199.186 51.0331 200.826 52.5175 202.234C54.1754 203.854 56.508 204.703 58.6864 205.339C60.9033 205.976 63.1781 206.497 65.4529 207.037C74.6099 209.293 84.3259 210.991 93.0395 212.631C97.4156 213.537 101.56 213.479 105.011 214.444C112.279 216.006 120.298 217.221 128.646 218.244C132.81 218.745 137.07 219.208 141.35 219.652C145.649 220.076 149.851 220.578 154.305 220.906C157.485 221.233 159.22 220.578 161.9 220.886C164.849 221.021 169.283 219.999 172.599 218.494C174.064 217.781 175.182 217.067 176.05 216.778C177.669 216.025 179.404 214.752 180.908 213.016C182.45 211.3 183.742 209.023 184.551 206.651C185.38 204.278 185.727 201.809 186.094 199.765C186.46 197.643 186.865 195.618 187.308 193.804C188.619 188.5 189.043 184.449 189.891 179.569C190.74 175.814 191.511 171.506 192.205 166.645C195.559 150.867 197.622 134.568 200.899 118.191C201.362 115.105 202.827 105.943 204.446 94.755C205.237 89.1419 206.104 83.0465 206.798 76.9126C206.972 75.3695 207.164 73.8457 207.261 72.3025L207.434 70.0071C207.454 69.2356 207.376 68.464 207.357 67.7117V67.7503ZM65.1059 43.8511L65.7999 40.707C66.0312 39.704 66.2433 38.7395 66.5325 37.9294C66.8216 37.1 67.1686 36.4441 67.5735 35.9426C67.9398 35.4797 68.5181 35.036 69.1928 34.6888C70.5423 33.9751 72.2387 33.6858 73.8966 33.8015L80.2005 34.3802L92.9431 35.4989L118.448 37.505C135.451 38.7781 152.415 39.974 169.341 41.575C173.621 41.9801 177.727 42.2887 181.371 43.3689C183.163 43.909 184.783 44.642 186.017 45.6643C186.653 46.1658 187.173 46.7445 187.655 47.4196C187.906 47.7475 188.118 48.0947 188.311 48.4612C188.484 48.847 188.561 48.9434 188.677 49.3678C189.101 50.8145 189.236 52.8591 189.217 54.8073C189.217 56.7941 189.043 58.8387 188.812 60.8641C188.6 62.8316 188.291 64.7798 187.944 66.728C186.576 66.1493 183.607 65.6671 181.833 65.3006C176.609 63.4874 168.435 62.9088 161.842 61.6357C160.184 61.2306 158.584 61.6935 157.293 61.0763C151.837 59.3788 145.186 58.993 138.709 58.4144C137.552 58.1829 136.877 58.7616 135.952 58.2601C134.93 57.9129 133.33 58.1443 132.116 58.0479C131.557 58.0865 131.113 58.0865 130.843 57.8357C128.626 56.5434 124.405 57.4692 121.667 56.852C119.624 56.4276 118.081 56.6398 116.192 56.5626C114.033 56.2154 114.033 56.2347 111.238 56.3119C105.185 55.4632 98.9192 55.9068 92.6539 55.0967C90.2828 55.0967 78.6004 54.7301 70.0217 54.7108C67.0915 54.7108 64.5468 54.7302 62.8311 54.8459C63.5636 51.181 64.2962 47.4968 65.1252 43.8897L65.1059 43.8511ZM44.3629 168.902C44.6907 164.813 45.2304 160.646 45.7895 156.48C46.9269 148.147 48.1992 139.795 49.4908 131.424C52.1126 114.719 54.9079 97.9763 57.8767 81.2719C59.3611 72.9198 60.9033 64.5676 62.5419 56.2347C62.5419 56.1383 62.5805 56.0611 62.5998 55.9647C63.4287 56.1576 64.489 56.3697 65.9156 56.6398C81.4535 58.0671 97.1071 59.6874 112.799 61.2884C128.491 62.8508 144.184 64.4133 159.818 65.5321C162.787 65.8021 183.086 67.9818 187.809 67.7117C187.462 69.4863 187.096 71.2802 186.672 73.0355C184.841 81.677 183.645 89.9713 182.277 98.4392C181.024 106.849 179.751 115.279 178.498 123.689C176.011 140.489 173.659 157.329 171.018 173.995C170.864 174.92 170.652 176.232 170.344 177.852C170.055 179.473 169.669 181.498 169.148 183.62C168.628 185.761 167.915 188.056 166.739 190.255C165.563 192.377 163.789 194.692 161.804 195.502C160.782 195.965 159.452 196.119 157.832 196.196C156.271 196.254 154.324 196.293 152.55 196.389C149.369 196.524 145.591 196.254 141.928 196.061C134.525 195.56 126.814 194.827 119.277 194.094C104.221 192.589 89.8587 190.93 79.7378 189.696C74.7256 189.079 70.735 188.596 68.1711 188.288C65.7228 187.96 64.6818 187.902 65.5107 188.23V188.268C65.3565 188.23 65.2215 188.211 65.0673 188.172C64.8553 188.037 64.1035 187.786 62.6769 187.4C61.0768 186.957 58.6285 186.359 55.3899 185.452C53.7898 184.989 51.9777 184.391 50.1848 183.562C49.3173 183.138 48.4498 182.636 47.7751 182.057C47.1775 181.556 46.4835 180.649 45.9437 179.685C44.1702 176.772 44.0545 172.953 44.3436 168.902H44.3629Z" fill="#063312"/>
<path d="M85.7524 113.812C87.6802 118.095 90.6297 123.013 93.984 127.295C95.6612 129.437 97.4155 131.423 99.0927 133.159C99.9409 134.027 100.77 134.838 101.56 135.57C101.965 135.937 102.351 136.284 102.717 136.612C103.122 136.959 103.353 137.21 103.912 137.634C105.763 138.985 107.401 139.467 108.693 139.583C109.85 139.64 110.505 139.39 110.274 139.255C110.351 139.255 110.428 139.255 110.505 139.235C110.659 139.274 110.91 139.293 111.276 139.293C112.491 139.293 114.958 139.197 118.833 138.175C126.197 135.744 132.906 131.52 138.4 126.08C141.157 123.36 143.605 120.332 145.707 117.072C147.769 113.812 149.678 110.398 150.796 106.386C151.336 104.399 151.663 102.239 151.528 100.04C151.413 97.841 150.796 95.565 149.716 93.6168C147.615 89.6818 143.837 86.6341 139.364 85.6504C134.949 84.6473 130.516 85.5925 126.756 87.3093C124.867 88.1966 123.132 89.2574 121.513 90.4148C120.703 90.9934 119.932 91.6107 119.161 92.2279C118.775 92.5366 118.409 92.8645 118.043 93.1731L117.117 94.0218C117.117 94.0218 117.04 94.0604 117.002 94.0411C116.982 94.0411 116.963 94.0219 116.944 94.0026L115.98 92.7873C114.515 90.9742 112.876 89.2381 111.026 87.695C107.344 84.5895 102.543 82.1976 97.2034 82.2169C94.5816 82.2169 91.8249 82.9499 89.5308 84.3002C87.2368 85.6504 85.2897 87.5407 83.921 89.7975C82.533 92.0543 81.8004 94.7356 81.6655 97.2624C81.5113 99.8086 81.8968 102.258 82.4751 104.534C82.7836 105.923 83.8246 109.511 85.7717 113.755L85.7524 113.812ZM138.535 95.6228C140 95.2564 141.215 94.0411 142.873 94.3304C143.432 94.2147 144.338 93.7903 144.935 94.5619C145.225 94.7934 145.032 95.0056 144.704 95.4299C144.357 95.8157 143.837 96.298 143.239 96.7609C142.063 97.6675 140.694 98.574 140.386 98.7862C135.316 103.223 129.166 106.213 123.537 109.742C121.339 110.205 121.975 108.932 123.19 107.408C124.404 105.904 126.159 104.091 126.506 103.686C127.74 103.184 128.376 101.737 129.552 101.255C129.879 100.677 129.86 100.677 130.323 100.542C130.593 100.252 130.689 99.8085 131.171 99.7507C131.826 99.6928 131.904 98.2655 132.829 98.767C132.983 98.8827 133.041 98.8248 133.099 98.6898C133.311 98.5355 133.369 98.0725 133.677 98.1304C134.043 98.3233 133.831 97.7832 134.101 97.7253C135.2 96.9345 136.183 95.9508 137.725 96.1051C138.207 96.298 138.15 95.6614 138.554 95.6228H138.535ZM122.727 97.0309C123.71 96.6644 124.096 95.3914 125.06 95.0828C125.291 94.5812 125.272 94.5812 125.638 94.504C125.85 94.2726 125.889 93.8675 126.294 93.8675C126.833 93.9061 126.814 92.5751 127.624 93.1731C127.759 93.3081 127.817 93.2503 127.836 93.1345C128.009 93.0188 128.048 92.6137 128.299 92.6909C128.626 92.9223 128.414 92.3822 128.626 92.3822C129.513 91.8229 130.304 91.0706 131.614 91.4564C132.019 91.7072 131.961 91.1285 132.308 91.1671C133.523 91.0899 134.545 90.2026 135.894 90.7813C136.357 90.7813 137.128 90.6077 137.59 91.3792C138.015 91.8422 137.166 92.4016 136.203 93.0188C135.239 93.6168 134.14 94.1954 133.908 94.3498C129.899 97.4939 125.137 99.5385 121.012 102.451C117.58 103.068 122.284 97.7446 122.727 97.0309Z" fill="#063312"/>
</svg>
