<svg width="250" height="250" viewBox="0 0 250 250" fill="none" xmlns="http://www.w3.org/2000/svg">
<path d="M212.958 71.4709C212.486 66.7465 210.305 61.1671 206.618 57.0501C204.819 54.9579 202.728 53.2481 200.592 51.9657C199.49 51.3133 198.569 50.8409 197.354 50.3459C196.23 49.941 195.263 49.716 194.387 49.5361C193.195 49.3111 192.206 49.1761 191.396 49.1086C191.081 44.3617 189.867 39.4798 186.967 35.2728C183.752 30.4359 178.4 27.1288 173.027 25.9139L171.003 25.464L169.159 25.1491L165.472 24.5416C163.021 24.1816 160.548 23.7992 158.075 23.4843C148.204 22.2244 138.289 21.347 128.328 21.0995C108.43 20.5596 88.4636 22.1794 69.0823 26.8813C66.9463 27.4662 60.943 28.6361 53.7256 32.3257C50.1731 34.193 46.3283 36.8701 43.1805 40.4922C40.0327 44.0693 37.492 48.5687 36.4802 53.5181C35.401 58.445 36.2104 63.7318 38.2115 67.7363C40.1676 71.7859 42.9332 74.778 45.4289 76.8253C47.9247 78.895 50.1956 80.0873 51.657 80.7172C53.141 81.3247 53.793 81.4597 53.3658 81.0322C53.6356 80.4923 51.0275 78.94 48.2394 76.4653C45.384 74.0356 42.5734 70.4585 41.3593 67.6239C40.1002 64.4743 39.4031 60.6722 39.9653 56.8027C40.4824 52.9107 42.1912 48.9962 44.7544 45.6216C49.521 39.0749 57.3455 35.2503 64.8103 33.3156C58.4248 53.3381 56.3337 74.508 58.8295 95.228C59.3916 99.7949 60.5833 104.947 64.9002 107.287C69.5544 109.806 75.9174 107.601 79.1327 103.642C82.3479 99.6824 83.0224 94.4631 83.0674 89.5137C83.1124 84.5643 82.5953 79.5699 83.8319 74.7555C84.5963 71.7633 86.1028 68.7937 88.8009 66.9714C91.499 65.1267 95.5236 64.7442 98.1543 66.634C101.077 68.7487 101.662 73.0007 104.967 74.598C107.44 75.7678 110.611 74.913 112.612 73.1582C114.613 71.4034 115.714 68.9512 116.569 66.544C119.289 58.8724 120.369 50.7284 119.739 42.6969C119.559 40.4022 119.244 38.04 120.076 35.8802C120.908 33.7205 123.314 31.8532 125.765 32.3481C127.451 32.6856 128.71 34.0804 129.272 35.5877C129.834 37.0951 129.812 38.7149 129.79 40.2897C129.722 45.374 129.632 50.4585 129.565 55.5429C129.52 58.895 129.497 62.382 130.981 65.4641C132.488 68.5237 135.973 71.0659 139.593 70.5485C142.358 70.166 144.562 68.1188 145.731 65.7791C146.9 63.4619 147.192 60.8522 147.462 58.31C148.496 48.7037 149.531 39.0974 150.565 29.5135C155.556 29.9635 161.2 30.1659 165.472 31.1558C167.968 31.7182 170.216 32.0332 172.015 32.3932C173.836 32.8881 175.657 33.3606 177.344 34.4404C179.21 35.8353 179.974 36.6901 180.829 37.6575C181.705 38.6249 182.672 39.7498 184.021 42.5169C186.225 48.9287 185.888 56.4877 183.774 63.4619C182.695 66.949 181.098 70.3235 178.895 73.1582C177.771 74.553 176.489 75.7904 175.073 76.6678C173.611 77.5901 172.285 77.8826 170.171 78.1751C167.316 78.8275 158.772 80.5823 148.227 82.1571C137.681 83.7544 125.158 85.1042 114.478 85.7342C103.798 86.4766 95.029 86.4541 92.0836 86.6791C90.5996 86.8141 90.5996 87.0165 92.5108 87.309C93.59 87.4665 95.029 87.6689 96.9177 87.9389C98.9187 88.1639 101.482 88.4113 104.63 88.6138C124.258 88.9513 144.022 87.5789 163.583 84.5418C166.034 84.1593 168.462 83.7769 170.913 83.3269L172.734 83.012C173.364 82.8995 174.308 82.652 175.028 82.4045C176.512 81.8196 177.906 81.0772 179.075 80.1773C183.797 76.5328 186.472 71.6959 188.473 66.769C190.384 61.7971 191.441 56.5327 191.419 51.1334C191.419 51.0209 191.419 50.8859 191.419 50.7734C193.532 51.5833 196.747 52.5507 198.456 54.0355C201.267 56.6227 204.347 60.0648 206.258 64.3618C208.237 68.6137 208.731 73.6082 207.697 77.8151C207.113 79.8849 207.292 82.0221 206.101 83.4395C204.145 86.5441 201.941 89.6712 199.108 92.4833C196.365 95.363 192.97 97.8827 189.305 99.9524C187.889 100.492 187.529 101.64 186.135 101.662C184.763 101.955 183.055 103.192 181.526 103.754C180.874 104.114 180.334 104.362 179.862 104.204C176.557 103.889 171.722 106.927 167.855 107.174C165.067 107.422 163.066 108.231 160.57 108.794C158.562 109.004 156.321 109.469 153.848 110.189C145.416 111.246 136.984 114.058 128.553 117.185C127.091 117.95 122.415 120.132 117.805 124.16C113.151 128.097 108.744 133.991 106.923 139.615C106.473 140.965 106.159 142.247 105.934 143.462C101.504 143.192 97.2325 143.822 94.1971 145.532C93.7249 145.802 93.2977 146.004 92.893 146.297C92.5333 146.589 92.1735 146.882 91.8362 147.152C91.1842 147.647 90.7345 148.232 90.4197 148.659C89.7677 149.536 89.6328 149.941 90.0375 149.806C89.9925 149.896 89.9251 149.964 89.8576 150.054C89.7002 150.144 89.4754 150.301 89.1156 150.706C88.621 151.269 88.0139 152.191 87.4743 153.541C86.9347 154.868 86.575 156.601 86.2602 158.535C85.5632 164.317 85.743 170.144 85.9454 175.971C86.2152 181.797 86.7323 187.624 87.4743 193.406C88.2163 199.21 89.2281 204.97 90.4647 210.706C91.0718 213.564 91.7688 216.421 92.5108 219.255C92.893 220.74 93.3652 222.338 94.1971 223.98C95.0065 225.6 96.2881 227.467 98.4466 228.659C100.56 229.874 103.326 229.964 105.372 229.244C107.463 228.547 109.149 227.332 110.498 225.735C113.061 222.562 113.713 219.12 114.388 216.331C115.669 210.639 116.771 204.902 117.716 199.165C119.604 187.692 120.863 176.218 122.032 164.812C122.1 163.552 122.932 159.998 122.19 154.868C121.988 153.586 121.628 152.214 121.043 150.841C120.908 150.504 120.728 150.166 120.549 149.806C120.369 149.469 120.211 149.176 119.852 148.636C119.447 148.232 119.087 147.759 118.682 147.377C118.233 147.062 117.873 146.792 117.468 146.544C114.635 144.992 111.915 144.317 109.104 143.822C108.879 143.777 108.632 143.755 108.407 143.732C111.195 135.183 118.66 128.119 127.001 123.912C136.175 119.39 146.788 117.658 157.512 115.948C168.237 114.261 179.547 112.348 189.98 107.264C195.151 104.699 200.142 101.347 204.1 96.8703C208.124 92.4609 211.002 86.949 212.239 81.0548C212.509 79.7724 213.341 76.1728 212.846 71.4709H212.958Z" fill="#063312"/>
</svg>
