<svg width="250" height="250" viewBox="0 0 250 250" fill="none" xmlns="http://www.w3.org/2000/svg">
<rect width="250" height="250" fill="#DEECDC"/>
<path d="M226.098 116.245C224.706 99.6033 222.21 83.0278 218.676 66.6513C218.212 64.5739 217.704 62.3638 216.755 60.1317C215.827 57.9216 214.347 55.579 212.072 53.9214C209.819 52.2639 207.191 51.5345 204.827 51.2472C202.464 50.9599 200.233 50.982 198.179 51.0262C189.785 51.1146 181.414 51.5566 173.043 52.1533C164.672 52.8384 156.323 53.7667 148.018 54.9601C139.713 56.2199 131.43 57.6785 123.235 59.4907C106.824 63.0931 90.6116 67.7563 74.8409 73.5688C70.8652 74.9611 66.9998 76.5745 63.0682 78.0995C60.4618 79.1603 57.8113 80.3537 55.205 81.7681C54.2773 81.8786 52.3777 82.3869 49.3075 83.5804C45.0446 85.6357 40.87 87.7353 36.6734 90.0558C32.4546 92.288 27.8162 95.6473 25.2319 100.598C23.9067 103.051 23.1778 105.946 23.0452 108.62C22.8906 111.317 23.1557 113.858 23.487 116.267L25.5412 130.257C26.9769 139.561 28.3905 148.865 29.8262 158.17L32.0791 172.071C32.8964 176.602 33.4044 181.574 35.7678 186.459C36.2537 187.475 37.7557 190.636 41.0026 193.332C44.1832 196.072 48.8437 198.061 53.3717 198.813C57.8776 199.586 62.0963 199.41 64.9456 199.166C67.817 198.901 69.4295 198.548 68.9214 198.216C68.9214 198.017 68.7447 197.862 68.4355 197.73C70.7989 198.415 73.4273 198.437 75.5478 198.238C79.5235 198.061 89.3968 196.713 101.987 194.525C114.577 192.359 129.817 189.42 144.373 186.436C158.929 183.453 172.756 180.403 182.519 178.016C192.259 175.674 197.98 173.795 196.125 173.883C195.837 172.933 176.864 177.022 166.682 178.79C155.395 180.359 141.303 182.923 126.504 185.552C111.705 188.182 96.1998 190.923 82.2403 192.448C80.4954 192.58 78.7726 192.757 77.116 192.956C76.2767 193.067 75.5036 193.067 74.7305 193.133C73.9574 193.177 73.1402 193.288 72.4776 193.221C69.6503 193.089 66.9777 192.028 65.0782 190.348C63.0019 188.713 61.1907 186.613 59.8434 184.226C58.496 181.862 57.5021 179.077 56.7732 176.204C55.3596 170.414 54.8736 163.805 53.9901 157.131C52.3336 143.782 50.434 130.014 48.6007 116.378C48.1148 111.449 46.8779 108.952 47.2976 105.151C47.408 103.095 47.4963 100.664 48.1148 98.3657C48.6891 96.0893 49.926 93.9234 51.4721 92.288C52.7753 90.741 54.1448 89.6801 55.2271 89.2602C57.237 88.2657 59.6667 87.0944 62.4718 85.901C65.3653 84.6854 68.4797 83.3815 71.6824 82.0334C74.8851 80.641 78.2204 79.3812 81.401 78.1215C84.6037 76.9502 87.7181 75.8673 90.5232 75.0496C98.8724 72.7069 104.902 70.4747 112.478 68.3973C121.424 66.364 121.424 66.2977 132.733 63.5131C145.323 61.2146 158.09 59.115 171.055 57.7006C177.527 56.9713 184.065 56.485 190.647 56.1535C193.938 56.043 197.251 55.9325 200.52 55.8883C203.723 55.8883 206.881 56.1757 209.046 57.7669C209.885 58.2973 211.012 59.336 212.006 61.2146C213 63.071 213.751 65.7231 214.48 68.9498C215.981 75.3369 217.704 83.3593 219.206 92.2659C220.73 101.172 222.034 110.941 222.961 120.754C223.425 125.66 223.801 130.588 224.066 135.406C224.309 140.224 224.64 144.954 224.242 149.484C223.889 153.993 222.785 158.369 220.509 161.861C219.427 163.629 217.881 165.087 216.247 166.104C214.612 167.121 212.955 167.828 211.387 168.425C205.092 170.701 200.365 172.005 198.068 172.933C195.749 173.817 195.815 174.016 198.996 173.353C200.586 173.021 202.972 172.491 206.285 171.695C207.942 171.275 209.841 170.833 212.028 170.148C214.192 169.419 216.732 168.601 219.383 166.612C220.355 165.839 221.371 164.8 222.034 163.828C222.74 162.877 223.381 161.861 223.911 160.8C225.015 158.7 225.766 156.49 226.252 154.28C227.246 149.86 227.379 145.462 227.335 141.241C227.224 132.887 226.804 124.555 226.12 116.245H226.098Z" fill="#063312"/>
<path d="M191.95 79.9123C195.639 79.2935 199.173 78.962 201.669 78.7852C204.165 78.6305 205.623 78.4537 205.203 78.1222C205.291 77.1498 200.277 76.7298 197.583 76.7298C191.531 75.7132 182.563 77.9233 175.318 79.1167C173.463 79.3377 171.961 80.3544 170.415 80.2218C164.164 80.5312 157.118 82.5865 150.204 84.3546C148.923 84.5314 148.415 85.3491 147.289 85.1944C146.096 85.2165 144.55 86.0342 143.225 86.3878C142.673 86.6309 142.187 86.7856 141.833 86.653C139.094 86.1889 135.03 88.6421 131.96 89.0178C129.707 89.3272 128.161 90.1228 126.195 90.7195C123.832 91.1615 123.832 91.1836 120.96 92.2887C114.4 93.681 108.039 96.3552 101.258 97.8138C96.3325 99.5156 52.2675 113.152 74.0902 109.151C107.244 100.4 141.369 92.8633 174.589 83.7357C176.445 83.2937 184.595 81.1721 191.972 79.9566L191.95 79.9123Z" fill="#063312"/>
<path d="M121.071 131.007C140.95 125.04 161.58 120.311 181.459 114.034C183.667 113.393 201.227 109.084 199.792 108.045C199.549 107.117 196.523 107.669 194.888 107.824C191.067 107.426 185.876 109.106 181.415 109.658C180.266 109.725 179.449 110.587 178.455 110.343C174.545 110.167 170.349 111.603 166.196 112.775C165.423 112.863 165.18 113.614 164.451 113.371C163.7 113.305 162.817 113.968 162.022 114.211C161.69 114.41 161.425 114.52 161.16 114.344C159.371 113.681 157.096 115.736 155.196 115.869C153.805 116.001 152.921 116.642 151.751 117.062C150.315 117.305 150.315 117.327 148.636 118.167C144.661 118.985 140.95 121.106 136.842 121.99C133.926 123.25 107.73 133.129 121.049 131.007H121.071Z" fill="#063312"/>
<path d="M125.51 162.258C136.002 159.385 146.626 156.666 157.294 153.926C167.941 151.185 178.587 148.423 189.034 145.218C191.376 144.577 209.797 140.157 208.317 139.118C208.074 138.146 204.893 138.698 203.171 138.853C199.173 138.433 193.717 140.113 189.034 140.643C187.842 140.687 186.958 141.594 185.92 141.328C181.812 141.107 177.394 142.544 173.043 143.759C172.226 143.826 171.983 144.621 171.21 144.356C170.437 144.29 169.487 144.975 168.67 145.196C168.316 145.395 168.029 145.505 167.764 145.329C165.909 144.621 163.501 146.743 161.513 146.854C160.055 146.986 159.128 147.627 157.891 148.069C156.389 148.312 156.389 148.334 154.6 149.196C150.425 150.014 146.516 152.202 142.208 153.086C140.684 153.727 133.02 156.6 127.498 158.987C124.737 160.18 122.484 161.263 121.821 161.86C121.137 162.457 122.042 162.744 125.532 162.213L125.51 162.258Z" fill="#063312"/>
<path d="M73.5157 176.777C73.5157 177.374 73.6262 177.971 73.7808 178.545C73.9133 179.009 74.1563 180.004 74.598 180.778C75.4815 182.369 76.9172 183.408 78.3971 184.181C78.7063 184.247 79.3469 184.402 80.1641 184.358C80.9372 184.358 82.0637 184.048 82.7484 183.695C84.3166 183.032 86.1941 182.236 87.7402 181.529C89.3085 180.822 90.5675 180.115 90.9429 179.673C91.3184 179.231 90.7883 178.811 88.7784 178.789C87.2764 179.076 85.7744 179.341 84.2725 179.562L81.9974 179.916L81.4231 180.004C81.2464 180.026 81.2464 180.004 81.136 180.004C80.9814 180.004 80.8489 179.982 80.7163 179.938C80.142 179.805 79.7445 179.297 79.5678 178.855C79.5236 178.744 79.4794 178.612 79.4794 178.479L79.3469 177.462L79.0597 175.164C78.6622 172.18 78.2425 169.219 77.8449 166.235C77.7345 164.976 77.8449 164.114 78.0879 163.694C78.2425 163.274 78.8831 162.743 79.8328 162.434C79.9654 162.412 80.0758 162.39 80.4734 162.346C80.893 162.301 81.4231 162.257 82.0195 162.191C83.2122 162.058 84.6479 161.904 86.0174 161.705C87.3868 161.528 88.69 161.13 89.5956 160.799C90.5012 160.445 90.965 160.003 90.7442 159.716C90.5675 158.743 88.7342 158.787 87.7402 158.633C85.4431 157.528 82.3066 158.036 79.634 157.66C78.7505 157.506 78.2204 158.368 77.4253 158.058C75.9012 157.903 74.0017 158.699 72.8089 160.467C71.6162 162.213 71.4616 164.246 71.5058 165.793C71.3732 166.368 72.1463 166.611 71.6825 167.075C71.4395 167.583 71.9696 168.202 72.0579 168.689C72.2126 168.91 72.2567 169.064 72.0138 169.219C70.8873 170.302 72.6543 171.672 72.3672 172.821C72.1905 173.661 72.7206 174.192 72.9415 174.899C72.8973 175.761 72.8973 175.761 73.4716 176.777H73.5157Z" fill="#063312"/>
<path d="M81.3352 126.986C78.4196 127.539 75.5924 128.091 72.743 128.621L70.468 129.041C69.6729 129.174 67.9721 129.793 67.1328 130.876C66.6689 131.406 66.3376 132.047 66.1167 132.732C66.0284 133.042 65.94 133.461 65.8959 133.771C65.8517 134.058 65.8517 134.345 65.8296 134.611C65.8296 135.671 65.9842 136.578 66.0946 137.263C66.5585 140.158 67.0223 143.053 67.5083 145.948L67.685 147.031C67.7954 147.584 67.9279 148.114 68.1488 148.645C68.5685 149.683 69.209 150.634 70.0263 151.385C71.6387 152.932 73.9137 153.706 76.0783 153.462C76.2992 153.462 76.8293 153.396 77.271 153.33C77.6686 153.264 78.1545 153.197 78.7067 153.109C79.8111 152.932 81.1364 152.711 82.3954 152.446C84.9134 151.915 87.2105 151.341 86.7908 150.7C86.6362 149.683 84.9134 149.705 83.9636 149.573C81.7769 148.534 78.7509 149.352 76.2329 149.153C75.8132 148.998 75.3936 149.595 75.1064 149.042C74.3555 148.136 74.0241 147.738 73.7812 147.451C73.6045 147.23 73.4278 146.987 73.2952 146.744C73.229 146.611 73.1627 146.479 73.0965 146.346C73.0523 146.213 73.0081 146.081 72.9418 145.727C72.986 145.285 72.3234 145.153 72.6547 144.733C72.8314 144.313 72.3455 143.805 72.2571 143.34C72.1246 143.164 72.0804 142.987 72.2571 142.854C73.1627 141.815 71.5945 140.534 71.7712 139.451C71.8595 138.655 71.4178 138.147 71.1969 137.484C71.1969 136.666 71.1969 136.622 70.6668 135.738C70.6668 135.229 70.6005 134.81 70.5564 134.478C70.5564 134.279 70.5122 134.235 70.4901 134.147C70.4901 134.058 70.468 133.948 70.4901 133.837C70.5343 133.616 70.6668 133.417 70.8877 133.263C71.2411 133.086 71.7491 132.975 72.3676 132.909C73.1848 132.555 77.3373 131.03 80.297 129.638C83.2789 128.246 85.1122 127.052 81.291 126.964L81.3352 126.986Z" fill="#063312"/>
<path d="M84.8907 141.528C84.8907 141.528 84.6257 141.506 84.3827 141.352C84.2723 141.263 84.0956 141.197 83.941 141.02C83.7643 140.865 83.6097 140.733 83.2783 140.357C82.0635 139.031 80.6278 137.462 79.3688 136.158C76.8066 133.572 74.9513 132.069 76.387 136.07C77.2263 137.462 78.0436 138.854 78.8829 140.224L80.0977 142.324L81.0917 144.026C81.5113 144.689 81.931 145.374 82.439 145.838C83.433 146.833 84.5373 147.341 85.8184 147.407C87.1216 147.451 88.4027 146.877 89.2199 145.971C90.1034 145.087 90.6777 143.716 91.009 142.125L91.6938 139.274C93.2399 132.953 94.7419 126.611 95.78 120.223C96.0892 118.831 99.049 108.002 97.5249 108.355C96.531 108.112 95.8242 109.902 95.2941 110.809C93.3503 112.643 92.8423 115.98 91.5171 118.522C91.0974 119.141 91.6054 119.914 90.9428 120.334C89.1537 122.301 88.8003 125.041 88.226 127.649C87.983 128.091 88.6236 128.511 88.0714 128.776C87.6959 129.13 87.983 129.859 87.8726 130.368C87.9388 130.611 87.9168 130.81 87.6517 130.854C86.2602 131.517 87.3204 133.506 86.6578 134.545C86.216 135.318 86.459 136.025 86.3927 136.799C86.0393 137.639 86.0393 137.639 86.1718 138.854C86.0614 139.142 85.973 139.451 85.9068 139.76C85.8405 140.048 85.8847 139.981 85.8847 140.114C85.8847 140.291 85.973 140.556 85.951 140.865C85.951 141.175 85.8626 141.551 85.6196 141.749C85.3767 141.948 85.0454 141.838 84.8466 141.551L84.8907 141.528Z" fill="#063312"/>
<path d="M93.8812 177.398C95.339 177.243 96.7747 176.47 97.6582 175.586C98.5859 174.68 99.1381 173.751 99.5799 172.867C100.022 171.983 100.331 171.121 100.596 170.282L101.259 168.027L102.495 163.585C103.291 160.624 104.042 157.662 104.682 154.656C105.036 153.353 108.371 143.297 106.869 143.54C105.897 143.253 105.146 144.91 104.572 145.728C102.606 147.341 101.943 150.479 100.552 152.778C100.11 153.33 100.596 154.104 99.9333 154.458C98.1 156.204 97.6361 158.767 96.9514 161.198C96.6864 161.596 97.3048 162.038 96.7526 162.259C96.3771 162.568 96.6201 163.276 96.4876 163.74C96.5318 163.983 96.5097 164.16 96.2446 164.204C94.831 164.734 95.8029 166.679 95.1181 167.63C94.6322 168.359 94.8973 168.933 94.7868 169.552C94.3892 170.149 94.4113 170.149 94.3892 171.011C93.815 171.674 93.6604 172.05 93.329 172.359C93.0198 172.691 92.1584 172.691 91.6062 171.983C91.297 171.851 90.4135 171.342 89.5741 169.95C88.7348 168.624 87.9396 166.591 86.7469 165.375C85.5762 164.093 84.3172 163.895 83.9197 164.182C83.5 164.491 83.6988 164.889 83.9638 165.817C84.516 166.436 84.9357 167.431 85.2891 168.845C85.6867 170.26 86.018 172.05 87.277 173.972C87.9175 174.901 88.7127 175.74 89.7729 176.403C90.8331 177.066 92.2909 177.553 93.815 177.376L93.8812 177.398Z" fill="#063312"/>
</svg>
