<svg width="250" height="250" viewBox="0 0 250 250" fill="none" xmlns="http://www.w3.org/2000/svg">
<rect width="250" height="250" fill="#DEECDC"/>
<path d="M211.162 98.337C210.623 96.23 209.13 90.5704 206.093 83.7838C203.057 77.0462 198.576 68.863 191.989 62.6399C187.215 58.1073 182.366 54.2118 178.277 51.1492C176.073 49.3607 173.674 47.6457 171.127 46.0776C169.462 44.9996 168.287 44.3381 167.797 44.2156C167.552 44.0931 167.307 43.9461 167.062 43.8481C163.683 41.6431 160.157 39.928 156.24 38.262C154.232 37.2085 152.567 36.792 151.244 36.2285C149.898 35.6895 148.722 35.3465 147.474 35.0769C146.225 34.7829 144.903 34.4399 143.188 34.1459C141.45 33.9744 139.32 33.5824 136.479 33.4354C130.26 32.6269 123.967 33.0434 117.796 33.8764C114.736 34.4644 111.626 34.9544 108.663 35.8855C107.169 36.3265 105.651 36.6695 104.158 37.184L99.75 38.752C87.9477 43.0641 77.2472 50.1447 67.869 58.5729C64.5144 61.8314 54.5241 72.0481 46.8109 87.2628C42.9421 94.809 39.7344 103.58 37.8245 112.572C35.988 121.588 35.4738 130.849 36.5757 139.155C37.5551 147.46 39.9793 154.713 42.6238 160.078C45.2683 165.468 48.0107 169.045 49.4309 170.76C50.8756 172.475 51.047 172.328 49.6758 169.756C49.3085 169.094 48.8677 168.286 48.3535 167.355C47.8638 166.35 47.3007 165.199 46.664 163.851C46.0029 162.504 45.4397 160.911 44.6806 159.172C44.0929 157.359 43.3094 155.399 42.7462 153.12C40.6894 146.211 39.661 138.959 39.7344 131.658C39.8813 124.356 41.0322 117.055 43.0401 109.95C47.0068 95.7155 54.4751 82.4363 64.1471 71.1661C73.7947 59.8959 86.0622 50.7817 99.799 45.5631C113.732 40.467 128.864 38.164 143.091 41.4226C157.292 44.5341 169.903 53.3543 178.155 65.3595C186.529 77.3402 190.545 92.1874 190.569 106.888C190.569 121.661 186.627 136.337 179.306 149.322C172.523 162.626 162.263 173.749 149.922 181.981C147.18 183.697 139.614 188.621 128.766 192.051C118.017 195.579 103.937 197.343 91.0085 194.869C78.0553 192.566 66.8651 186.245 60.1804 180.438C56.7523 177.62 54.3037 175.072 52.7611 173.48C51.1695 171.912 50.5328 171.324 50.8266 172.059C50.5328 172.255 51.0715 173.21 52.0755 174.705C52.6631 175.636 53.5201 176.714 54.5241 177.89C55.3811 179.482 56.2871 181.001 57.2665 182.422C57.291 182.594 57.4624 182.961 57.9032 183.623C58.9561 185.191 61.1843 188.327 65.5918 192.737C72.7418 199.181 80.8712 204.644 89.7596 208.54C98.6236 212.435 108.173 214.959 117.894 215.719C127.615 216.552 137.532 215.719 146.959 213.048C156.411 210.451 165.324 206.139 173.38 200.7C175.339 199.279 177.396 197.956 179.281 196.437L184.864 191.782C188.365 188.425 191.916 185.24 195.124 181.393C201.49 173.774 206.045 164.88 209.228 155.668C212.264 146.382 214.002 136.754 214.345 127.052C214.615 117.374 213.635 107.647 211.211 98.2635L211.162 98.337Z" fill="#063312"/>
<path d="M80.7244 182.055C81.41 182.423 82.2181 182.815 83.1486 183.256C84.0791 183.672 85.1564 183.966 86.3073 184.358C90.8127 185.975 96.616 186.612 100.656 186.98C109.545 188.107 121.151 186.539 132.292 182.031C143.385 177.376 153.791 169.903 161.798 161.793C163.757 159.711 165.496 157.555 167.038 155.472C168.483 153.316 169.879 151.307 171.47 149.617C177.298 142.021 182.146 132.197 184.105 121.27C186.284 110.391 185.574 98.5822 182.391 87.655C181.828 85.695 181.167 84.2495 180.555 82.9019C179.869 81.5789 179.257 80.3294 178.865 78.6634C177.543 75.1598 174.482 70.5782 171.764 67.2217C170.54 65.7026 169.413 64.6491 168.973 63.6201C166.818 60.0675 162.557 56.0005 157.366 53.0359C152.2 49.9734 146.347 48.0133 141.597 46.5923C134.496 44.5343 128.889 44.8038 122.4 45.4163C118.605 45.8083 116.67 45.9553 114.589 46.5188C113.536 46.7638 112.41 47.0333 110.989 47.4498C109.618 47.9398 107.904 48.5523 105.651 49.3609C95.661 52.6439 86.3563 58.0095 78.2514 64.8696C70.1219 71.7297 63.2168 79.9864 57.536 89.1005C55.4792 92.4816 49.7494 103.311 47.6926 117.717C46.6887 124.871 46.4683 132.809 47.7906 140.527C48.5496 144.349 49.3087 148.196 50.6065 151.773C51.8797 155.35 53.5203 158.706 55.3813 161.72C59.1032 167.747 63.731 172.279 67.8202 175.22C71.9094 178.184 75.4109 179.654 77.1984 180.242C78.9859 180.83 79.0594 180.61 77.0025 179.311C75.0192 177.939 70.7096 175.514 65.5185 169.731C61.3804 165.395 58.1237 160.225 55.7975 154.664C54.6467 151.871 53.7651 148.98 53.1775 145.991L52.3205 141.458C52.0267 139.939 52.0022 138.395 51.8308 136.852C51.4145 133.789 51.6839 130.678 51.6104 127.615C51.9777 124.553 52.0511 121.441 52.7612 118.403C53.7407 112.278 55.822 106.349 58.2706 100.64C68.3834 77.8059 89.7843 60.2636 113.879 54.1139C125.852 51.0759 138.683 51.9334 149.457 57.4705C160.256 62.9831 168.581 72.8323 173.233 84.176C177.934 95.5442 179.085 108.358 176.857 120.535C174.629 132.736 169.144 144.226 161.161 153.978C159.374 156.085 154.624 162.014 146.984 167.845C139.393 173.701 128.864 179.213 118.041 181.884C107.194 184.481 96.4201 184.358 89.0987 182.839C87.2867 182.423 85.6462 182.08 84.226 181.761C82.8793 181.345 81.7283 181.002 80.7979 180.732C78.9859 180.218 78.2023 180.12 78.741 180.561C78.6186 180.855 79.3532 181.394 80.7 182.129L80.7244 182.055Z" fill="#063312"/>
<path d="M125.411 90.0311C121.812 92.7751 119.241 97.1852 116.498 101.326C115.862 101.987 116.254 102.82 115.421 103.139C114.711 103.629 114.442 104.903 113.927 105.687C113.78 106.103 113.634 106.397 113.291 106.446C111.185 107.181 110.793 110.709 109.226 112.228C108.957 112.522 108.712 112.816 108.516 113.11C108.149 113.65 107.879 114.287 107.757 114.899C107.463 116.149 107.585 117.398 107.953 118.599C108.296 120.069 108.761 120.73 109.348 121.343C109.642 121.637 110.034 121.955 110.499 122.2C110.793 122.323 111.16 122.494 111.65 122.715C115.225 125.655 119.706 127.541 123.354 130.726C124.922 131.633 132.537 136.435 138.365 139.546C141.278 141.09 143.751 142.217 144.78 142.315C145.808 142.413 145.319 141.555 142.503 138.958C137.679 135.553 133.002 131.902 128.276 128.154L121.151 122.543L117.527 119.775L114.05 117.178C114.05 117.178 113.952 116.908 113.976 116.859L116.107 113.747L121.151 106.25C124.505 101.228 127.787 96.1807 130.945 91.0846C131.68 89.9821 135.059 85.18 138.022 80.6964C139.491 78.4424 140.862 76.2864 141.744 74.6938C142.674 73.1258 142.845 71.9743 142.405 72.0723C141.548 71.4843 139.271 74.2038 137.948 75.5513C134.275 78.0259 130.994 83.3915 127.493 87.189C126.538 88.0956 126.489 89.4921 125.411 90.0066V90.0311Z" fill="#063312"/>
<path d="M83.0013 172.843C83.2952 174.386 83.8093 175.538 85.352 174.901C86.258 172.99 87.4333 171.226 88.6086 169.462C89.7839 167.698 90.9104 165.909 91.6449 163.876C91.7674 163.68 92.404 162.847 92.8447 162.014C93.3345 161.205 93.4079 160.25 92.7468 159.956C91.8408 159.392 91.2777 159.784 90.8124 159.882C89.0739 159.662 88.731 160.74 87.6047 161.107C87.2374 161.156 87.7516 161.695 87.1639 161.548C85.5723 161.45 85.3764 162.381 84.9357 163.141C84.7153 163.19 85.3275 163.68 84.8378 163.533C84.5195 163.508 84.7888 163.925 84.7153 164.072C84.7888 164.194 84.7643 164.268 84.5439 164.17C83.2706 163.753 84.3481 165.052 83.7604 165.15C83.3686 165.248 83.638 165.64 83.6135 165.934C83.3196 166.105 83.3196 166.105 83.491 166.644C82.7809 167.183 83.3931 168.531 82.7319 169.119C82.7809 169.511 82.732 171.324 83.0013 172.843Z" fill="#063312"/>
<path d="M78.1286 105.81C78.5938 106.03 79.0591 106.177 79.4263 106.177C79.8181 106.177 80.1609 105.932 80.2834 105.54C80.8221 104.487 80.3813 103.874 80.2344 103.36C80.3324 101.424 79.157 101.179 78.6673 99.9785C78.5938 99.5865 78.0307 100.199 78.1531 99.5375C78.1286 97.8225 77.1002 97.7 76.2432 97.308C76.1697 97.0875 75.7044 97.798 75.8269 97.259C75.8269 96.8915 75.4106 97.259 75.2392 97.1855C75.1168 97.259 75.0434 97.259 75.1168 96.9895C75.4351 95.5929 74.1373 96.867 73.9904 96.279C73.868 95.8624 73.4517 96.2055 73.1579 96.2055C72.962 95.9115 72.9376 95.9115 72.3744 96.1565C71.7377 95.4704 70.342 96.23 69.6809 95.5439C69.2646 95.6174 67.3302 95.7154 65.7386 96.132C64.147 96.5485 62.9472 97.21 63.8042 98.729C65.8856 99.611 67.8933 100.665 69.8522 101.816C71.8111 102.968 73.8191 104.046 76.0473 104.658C76.2677 104.756 77.1981 105.393 78.1286 105.81Z" fill="#063312"/>
<path d="M136.136 69.6714C137.801 66.5598 140.593 64.2078 142.062 60.9247C142.282 60.6062 144.437 58.4257 143.237 57.7887C142.454 57.2007 141.915 57.4702 141.523 57.5192C140.03 57.1762 139.687 58.0582 138.707 58.2787C138.389 58.2787 138.805 58.7932 138.291 58.6217C136.944 58.4012 136.699 59.1607 136.308 59.7732C136.112 59.7977 136.626 60.2632 136.21 60.0917C135.94 60.0427 136.161 60.4102 136.087 60.5327C136.136 60.6552 136.136 60.7042 135.916 60.5817C134.838 60.1162 135.695 61.3167 135.206 61.3412C134.863 61.3902 135.083 61.7577 135.034 61.9782C134.765 62.0762 134.79 62.1007 134.887 62.5663C134.251 62.9583 134.716 64.1588 134.104 64.5753C134.153 65.2613 133.541 70.6269 136.112 69.6959L136.136 69.6714Z" fill="#063312"/>
<path d="M154.256 143.271C153.962 143.369 152.615 143.565 151.514 143.957C150.387 144.373 149.53 144.888 149.971 146.088C152.689 147.191 154.893 149.347 157.807 150.082C157.953 150.155 158.517 150.596 159.129 150.866C159.692 151.209 160.476 150.988 160.671 150.449C161.112 149.641 160.843 149.224 160.794 148.832C161.039 147.313 160.255 147.166 160.01 146.26C160.01 145.966 159.57 146.456 159.692 145.941C159.814 144.594 159.129 144.545 158.59 144.3C158.566 144.128 158.174 144.716 158.321 144.3C158.37 144.03 158.027 144.3 157.929 144.3C157.831 144.373 157.782 144.373 157.855 144.153C158.198 143.025 157.194 144.104 157.145 143.638C157.096 143.32 156.778 143.614 156.582 143.638C156.484 143.418 156.46 143.418 156.068 143.638C155.701 143.123 154.672 143.81 154.256 143.32V143.271Z" fill="#063312"/>
<path d="M168.042 100.346C168.482 100.297 172.058 100.665 171.764 99.1458C171.715 98.0678 171.103 97.7983 170.76 97.4798C170.001 95.9362 168.948 96.2547 168.042 95.5442C167.821 95.2747 167.65 95.9852 167.43 95.4217C166.646 94.0742 165.789 94.4172 164.932 94.4907C164.785 94.3437 164.736 95.1032 164.589 94.6377C164.442 94.3437 164.246 94.8092 164.099 94.8337C164.026 94.9562 163.977 94.9807 163.928 94.7357C163.561 93.4862 163.096 95.0542 162.728 94.6377C162.459 94.3682 162.263 94.8092 162.018 94.9317C161.724 94.7847 161.724 94.7847 161.381 95.2257C160.573 94.9562 159.814 96.1812 158.982 95.9607C158.394 96.4997 153.081 99.7093 155.774 101.302C159.814 100.591 163.977 101.375 168.017 100.322L168.042 100.346Z" fill="#063312"/>
<path d="M93.5548 72.7092C93.4569 72.8807 94.167 72.7092 93.7752 72.9543C93.5548 73.1503 94.0201 73.1748 94.0935 73.2973C94.2159 73.2973 94.2649 73.3463 94.0445 73.4688C92.9916 74.1303 94.5587 74.0568 94.2649 74.4978C94.0935 74.8163 94.5342 74.8408 94.7301 74.9878C94.6566 75.2818 94.6812 75.2818 95.1464 75.4288C95.0974 76.1883 96.4197 76.4578 96.4197 77.2173C97.0808 77.5603 101.219 81.1374 101.954 78.4423C100.337 75.2573 100.044 71.5087 98.1092 68.4217C98.0357 68.2502 97.8644 67.3682 97.5461 66.6331C97.2522 65.8981 96.7135 65.3101 96.0769 65.6286C95.0974 65.9716 95.0239 66.5596 94.8036 66.9271C93.5792 68.0052 94.1424 68.8137 93.7262 69.7692C93.5303 70.0387 94.2404 69.9897 93.7752 70.3082C92.7468 71.3372 93.2855 71.9497 93.5548 72.6357V72.7092Z" fill="#063312"/>
<path d="M71.297 136.288C71.0276 136.043 70.8807 136.754 70.6114 136.215C69.6319 134.99 68.6769 135.406 67.7465 135.627C67.5506 135.504 67.5995 136.264 67.3547 135.823C67.1588 135.578 67.0119 136.043 66.816 136.092C66.767 136.215 66.6936 136.264 66.6201 136.019C66.0325 134.867 65.7386 136.484 65.2489 136.166C64.8816 135.97 64.7591 136.435 64.5143 136.607C64.1715 136.533 64.1715 136.533 63.8532 137.023C62.8982 136.95 62.335 138.322 61.3801 138.322C61.1107 138.641 59.7395 139.964 58.9559 141.287C58.1479 142.61 57.8541 143.786 59.3967 144.153C61.3066 143.345 63.3634 142.806 65.4203 142.414C67.4771 142.022 69.534 141.703 71.5663 141.042C71.7867 140.993 72.8151 141.017 73.7456 140.895C74.6761 140.797 75.5086 140.429 75.3616 139.694C75.3127 138.641 74.6516 138.396 74.2843 138.077C73.4273 136.558 72.252 136.926 71.2235 136.313L71.297 136.288Z" fill="#063312"/>
<path d="M119.927 168.163C119.78 168.776 121.028 169.045 120.906 169.658C121.175 169.805 122.253 170.638 123.33 171.177C123.869 171.447 124.408 171.643 124.873 171.643C125.338 171.643 125.779 171.422 126.122 170.883C125.142 168.212 125.387 165.199 123.991 162.626C123.942 162.479 123.918 161.769 123.722 161.156C123.575 160.544 123.134 160.054 122.424 160.299C121.396 160.544 121.2 161.009 120.931 161.303C119.535 162.136 119.951 162.798 119.388 163.557C119.168 163.778 119.878 163.753 119.339 163.998C118.164 164.807 118.604 165.321 118.776 165.885C118.653 166.032 119.388 165.885 118.947 166.105C118.702 166.252 119.168 166.301 119.192 166.399C119.314 166.399 119.339 166.448 119.119 166.546C117.968 167.036 119.535 167.036 119.192 167.379C118.972 167.624 119.412 167.673 119.559 167.796C119.461 168.016 119.461 168.016 119.902 168.163H119.927Z" fill="#063312"/>
</svg>
