<svg width="250" height="250" viewBox="0 0 250 250" fill="none" xmlns="http://www.w3.org/2000/svg">
<rect width="250" height="250" fill="#DEECDC"/>
<path d="M211.335 114.922C209.247 112.468 206.989 110.5 204.658 108.168C199.146 102.799 199.17 102.604 191.109 97.0891C182.537 90.5535 172.727 85.6943 162.48 82.0014C152.209 78.3813 141.404 76.1703 130.428 75.0527C129.384 75.0041 127.855 74.9556 125.888 74.8827C123.921 74.8098 121.541 74.9313 118.822 74.9313C113.383 75.2228 106.608 75.8788 99.3478 77.458C92.0633 79.013 84.3173 81.4912 76.9599 84.7468C69.5783 88.0025 62.5851 92.0356 56.5875 96.2874C44.5437 104.791 36.7251 114.023 34.5154 117.303C33.3499 118.931 33.5199 119.077 35.4625 117.303C36.458 116.453 37.7692 114.995 39.8088 113.246C40.8287 112.371 41.8971 111.302 43.2083 110.185C44.5438 109.091 46.0006 107.877 47.6275 106.516C67.6842 89.8004 93.6901 79.7904 119.987 79.7418C146.26 79.6933 172.557 89.2658 192.808 106.079C197.835 110.233 202.739 114.947 206.673 119.879C210.558 124.786 213.132 130.52 211.529 135.525C210.097 140.627 205.046 144.806 199.631 148.208C193.998 151.585 188.146 154.913 182.149 157.707C158.255 169.127 131.497 175.468 105.418 172.091C102.577 171.58 94.7342 170.536 85.3129 167.061C80.5779 165.409 75.4787 163.125 70.4038 160.331C65.3046 157.586 60.3026 154.282 55.6891 150.637C46.3649 143.494 38.9832 134.942 34.2725 128.601C33.1313 126.997 32.1114 125.54 31.2373 124.276C30.4117 123.013 29.7076 121.968 29.1491 121.118C28.0321 119.49 27.4494 118.858 27.6193 119.563C27.328 119.709 27.6193 120.656 28.2264 122.138C28.542 122.867 28.9307 123.742 29.392 124.714C29.8776 125.661 30.4846 126.682 31.1159 127.751C32.3057 129.937 33.9327 132.172 35.4138 134.359C37.0164 136.473 38.5461 138.538 39.9059 140.141C42.674 143.859 46.1949 147.795 50.3713 151.609C54.5721 155.375 59.3556 159.092 64.649 162.348C69.9182 165.604 75.6002 168.471 81.4035 170.852C87.2311 173.184 93.1802 174.958 98.8864 176.318C101.776 176.95 104.593 177.411 107.264 177.557C108.599 177.654 109.91 177.776 111.149 177.922C112.411 178.019 113.625 178.14 114.791 178.359C124.552 179.598 135.528 179.209 146.503 177.023C157.503 174.885 168.599 171.337 179.016 166.721C180.91 165.968 182.294 165.166 183.581 164.462C184.868 163.709 186.082 163.028 187.709 162.518C191.181 161.182 195.746 158.145 199.437 155.934C201.04 154.865 202.375 154.039 203.395 153.699C206.018 152.532 209.296 150.516 212.234 147.455C210.388 151.099 208.082 154.962 205.095 158.582C200.894 163.757 195.528 168.373 190.162 171.678C187.442 173.281 185.354 175.468 182.853 176.221C177.996 178.335 172.727 180.594 167.191 182.684C161.679 184.822 155.803 186.668 149.878 187.956C147.741 188.296 146.722 189.268 144.852 189.049C143.856 189.049 142.666 189.316 141.428 189.584C140.19 189.802 138.903 190.07 137.761 190.215C136.742 190.458 135.916 190.58 135.358 190.337C130.963 189.462 123.362 191.114 118.118 190.288C116.199 189.972 114.524 189.875 112.897 189.778C111.27 189.632 109.667 189.535 107.943 189.341C105.952 188.903 104.957 188.636 103.816 188.442C102.674 188.272 101.363 188.102 98.8135 187.616C93.3258 186.036 87.7895 184.36 82.3747 182.149C76.9599 179.987 71.5937 177.363 66.7131 173.937C64.7463 172.868 59.1128 169.321 52.7995 164.17C46.462 159.044 39.6388 152.119 34.5882 145.608C29.4647 139.145 26.114 133.217 24.6813 131.371C23.9772 130.447 23.7828 130.52 24.2684 131.978C24.7784 133.412 25.8225 136.303 28.2264 140.652C36.1908 153.796 46.7534 165.409 59.2586 174.544C71.7151 183.704 86.0413 190.507 101.217 194.006C116.393 197.528 132.274 197.82 147.571 195.026C162.869 192.256 177.584 186.328 190.404 177.679C191.813 176.707 195.746 174.18 200.263 170.196C204.779 166.211 209.83 160.623 213.181 154.233C216.313 148.426 217.891 142.182 218.207 137.396C218.595 135.914 218.838 134.383 218.838 132.877C218.863 129.451 217.988 126.341 217.017 123.79C215.536 120 213.496 117.255 211.408 114.825L211.335 114.922Z" fill="#063312"/>
<path d="M165.006 115.627C164.569 114.534 164.301 113.659 164.423 112.979C164.399 110.428 163.063 107.196 161.121 104.208C159.227 101.195 156.701 98.5226 154.856 96.2145C152.039 92.8131 149.053 91.161 145.604 89.2902C143.662 88.0511 142.594 87.5652 141.379 87.055C140.772 86.7877 140.093 86.6176 139.243 86.3747C138.393 86.1074 137.324 85.8645 135.867 85.6215C129.724 83.775 123.095 83.9937 116.928 85.3542C110.736 86.7634 104.738 89.436 99.4691 93.1046C97.6237 94.611 92.0632 99.3487 87.9353 106.88C84.5601 112.954 82.4962 120.851 82.7875 127.994C82.6176 135.307 84.5843 142.765 89.3921 149.52L89.5378 149.738C92.7916 153.966 96.6039 157.27 100.683 159.797C104.495 163.004 110.153 165.701 116.491 166.721C123.508 167.936 131.132 167.134 137.64 165.166C138.466 164.948 139.291 164.68 140.02 164.34C140.724 163.952 141.428 163.563 142.132 163.174C142.812 162.785 143.468 162.421 144.147 162.129C144.779 161.765 145.41 161.425 146.066 161.206C151.335 158.849 156.458 154.33 159.931 148.669C163.549 143.154 165.904 136.278 166.39 129.427C166.608 128.212 166.438 127.24 166.317 126.366C166.22 125.467 166.123 124.641 166.341 123.62C166.632 121.361 165.588 118.154 164.981 115.676L165.006 115.627ZM136.305 134.529C134.823 137.153 132.638 139.121 129.918 140.555C129.336 140.846 127.612 141.526 125.281 141.867C122.974 142.207 120.06 142.037 117.486 141.211C114.912 140.384 112.703 138.975 111.246 137.809C109.837 136.619 108.939 135.914 108.793 136.424C108.72 136.473 108.696 136.546 108.672 136.619L108.623 136.57C108.623 136.57 108.575 136.473 108.55 136.449C108.793 136.521 108.89 136.303 108.842 135.768C108.769 135.064 108.429 133.849 108.162 132.002C107.458 129.257 107.409 126.341 108.259 123.499C109.06 120.656 110.809 118.032 112.945 115.943C115.131 113.853 117.753 112.396 120.691 111.91C123.727 111.229 126.738 111.448 129.409 112.493C134.775 114.461 138.538 120.195 138.587 126.098C138.636 129.063 137.907 131.905 136.28 134.529H136.305Z" fill="#063312"/>
<path d="M224.666 131.541C224.229 128.844 223.257 125.661 222.505 123.474C221.339 118.469 218.547 112.493 214.735 106.832C210.971 101.122 206.333 95.6799 201.962 90.9422C199.85 88.464 197.13 87.0062 195.576 84.8925C188.365 76.7776 177.462 69.4889 166.123 64.0223C164.131 62.929 162.723 63.0747 161.193 61.9085C159.421 60.8152 156.434 60.1106 154.2 59.3332C153.156 59.0902 152.33 58.823 151.869 58.4099C147.96 55.6888 139.728 55.2029 134.435 54.0367C130.477 53.1863 127.442 53.2835 123.824 53.2349C119.599 52.8948 119.55 52.8948 114.184 53.4293C102.286 53.6236 90.6062 57.1465 79.2909 61.5441C77.2512 62.5402 71.1564 65.5043 64.3575 70.072C57.5343 74.5667 49.9827 80.5678 44.2765 86.3259C38.4974 92.0112 34.661 97.3806 33.7625 99.3971C33.2769 100.369 33.4469 100.49 34.491 99.5186C35.5351 98.5468 37.3804 96.4087 40.8042 93.2746C50.9054 83.1189 63.1192 74.6153 76.11 68.2741C89.0764 62.03 103.621 58.993 118.069 58.993C132.565 58.9687 146.916 62.2487 160.125 68.2498C173.334 74.2266 185.499 82.5844 196.28 92.327C197.47 93.4203 200.603 96.433 204.269 100.612C207.96 104.767 212.039 110.16 215.269 115.675C218.571 121.166 220.878 126.803 222.286 130.86C223.015 132.877 223.476 134.505 223.84 135.525C224.229 136.546 224.496 136.934 224.593 136.521C225.127 136.424 225.127 134.262 224.642 131.565L224.666 131.541Z" fill="#063312"/>
</svg>
