<svg width="250" height="250" viewBox="0 0 250 250" fill="none" xmlns="http://www.w3.org/2000/svg">
<rect width="250" height="250" fill="#DEECDC"/>
<path d="M222.92 142.582C222.412 140.188 221.29 137.392 219.533 135.147C217.818 132.859 215.489 131.144 213.627 130.466C211.742 129.767 210.557 129.83 210.79 130.233C210.641 130.741 211.404 131.271 212.272 131.927C213.14 132.584 214.113 133.389 214.664 134.046C215.638 135.804 216.802 137.689 217.649 139.828C218.517 141.946 218.94 144.34 218.601 146.331C218.347 147.284 218.877 148.301 218.157 148.915C217.628 149.487 217.077 150.25 216.527 150.907C215.976 151.542 215.468 152.156 214.875 152.665C213.69 153.703 212.25 154.635 210.43 155.122C209.752 155.122 209.562 155.99 208.884 155.588C208.228 155.418 207.36 155.99 206.577 156.033C206.238 156.181 205.963 156.223 205.772 155.99C205.01 155.376 204.058 155.503 202.978 155.588C201.792 155.715 201.03 155.927 200.48 155.503C199.697 154.952 198.892 154.952 198.045 154.423C197.326 153.512 197.326 153.639 196.161 152.601C195.378 151.076 194.616 149.466 194.171 147.666C193.727 145.865 193.706 143.853 194.383 142.052C194.489 141.353 194.912 139.172 196.542 136.926C198.109 134.66 200.967 132.542 203.846 131.567C206.704 130.529 209.392 130.529 210.366 130.317C210.853 130.19 210.938 129.979 210.366 129.64C209.816 129.301 208.609 128.813 206.513 128.623C200.268 128.708 194.129 132.181 191.08 137.922C189.789 136.248 187.355 135.782 185.555 134.639C185.111 134.257 184.475 134.745 184.2 134.151C182.824 132.542 180.728 132.266 178.76 131.779C178.442 131.567 178.082 132.139 177.892 131.652C177.638 131.313 177.066 131.588 176.685 131.482C176.494 131.525 176.346 131.525 176.325 131.292C175.902 130.063 174.314 131.016 173.552 130.445C172.98 130.042 172.43 130.275 171.837 130.233C171.202 129.915 171.202 129.936 170.27 130.042C168.492 129.301 166.354 129.767 164.491 129.046C163.729 129.046 160.003 128.813 157.209 128.877C155.938 128.877 154.859 129.025 154.372 129.174C154.964 123.285 154.012 117.1 151.704 111.571C151.387 110.512 150.879 109.834 150.434 109.178C150.18 108.775 149.947 108.373 149.736 107.949C152.17 104.856 155.007 102.06 157.928 99.3913C160.871 96.7647 163.602 94.3288 166.968 91.3421C167.285 91.109 168.556 90.1982 169.847 89.245C172.154 91.3421 175.457 92.8884 178.738 92.9731C180.474 93.0578 182.147 92.8036 183.586 92.5071L184.581 92.2953L185.068 92.1893L185.724 92.0199C186.635 91.8292 187.418 91.4691 188.223 91.1302C188.9 90.7913 190.805 89.944 192.668 88.2283C194.552 86.5549 196.394 84.0765 197.495 81.3652C198.596 78.6539 198.892 75.7096 198.49 73.6972C198.109 71.6849 197.41 70.6682 197.22 71.0918C196.712 71.2401 196.669 72.1933 196.564 73.2948C196.458 74.3962 196.288 75.6884 195.992 76.5145C194.976 78.315 193.938 80.3273 192.499 82.2125C191.059 84.0554 189.175 85.7076 187.228 86.4066C186.254 86.6184 185.619 87.6563 184.708 87.2327C184.475 87.1903 184.348 87.1692 184.052 87.148C183.756 87.148 183.48 87.1056 183.205 87.0844C182.655 87.0844 182.147 87.0632 181.681 87.0421C180.728 87.0421 179.839 86.9785 179.014 86.8938C177.362 86.7031 175.817 86.1736 174.399 85.0509C173.996 84.5849 173.234 84.7967 173.171 84.0765C172.938 83.4622 172.027 83.0174 171.562 82.4031C171.287 82.1913 171.096 81.9583 171.202 81.6829C171.287 80.7721 170.779 79.9248 170.101 79.0775C169.678 78.7174 169.254 77.9549 169.445 77.1499C169.699 76.0273 169.36 75.1164 169.487 73.9726C169.953 72.744 169.889 72.7229 170.122 71.113C171.011 69.6091 171.964 67.9568 173.277 66.5376C174.547 65.1184 176.219 63.8687 178.146 63.4238C178.802 63.1061 180.877 62.1953 183.713 62.3435C186.55 62.4283 189.937 63.7627 192.351 65.7115C194.806 67.6391 196.225 70.0115 196.923 70.7529C197.283 71.113 197.516 71.0706 197.516 70.3928C197.516 69.715 197.283 68.4017 196.309 66.4953C192.774 60.9879 186.127 57.4504 179.289 58.4036C175.944 58.8696 172.853 60.3312 170.313 62.3859C167.772 64.5041 165.719 67.0884 164.512 70.414C163.962 72.0027 163.602 73.5701 163.454 75.2223C163.327 76.8957 163.284 78.5903 163.919 80.6026C164.046 81.0475 164.385 81.7889 164.533 82.043L165.084 83.0598C165.444 83.7376 165.825 84.3943 166.29 85.0509C166.671 85.644 167.074 86.216 167.54 86.7667C166.672 87.1692 165.825 87.6987 164.936 87.9953C164.449 88.08 164.47 88.8002 163.898 88.6519C162.035 88.6943 160.808 90.0288 159.516 91.1726C159.199 91.2785 159.474 91.8716 159.029 91.7233C158.669 91.7233 158.585 92.2741 158.352 92.5071C158.309 92.6765 158.225 92.7825 158.034 92.6765C156.891 92.3164 156.912 93.9898 156.129 94.244C155.578 94.4559 155.494 94.9854 155.219 95.4091C154.711 95.7056 154.71 95.7268 154.414 96.4682C153.059 97.4214 152.594 99.2854 151.281 100.323C151.006 100.895 149.524 103.395 148.635 105.555C147.682 104.094 146.243 102.59 145.184 101.298C144.401 100.62 143.829 100.027 143.639 99.4337C142.559 97.4425 140.188 95.3879 137.415 93.8416C134.62 92.2741 131.529 91.2573 129.074 90.2618C128.333 89.9864 127.634 89.7746 126.936 89.5839C128.756 82.2125 131.678 75.0105 133.181 67.512C133.287 67.1307 133.858 65.5421 134.281 63.9746C136.78 64.5677 139.405 64.6524 142.051 64.0805C143.745 63.678 145.375 62.9366 146.835 61.8563C148.254 60.8396 149.587 59.2509 150.328 57.7682C151.726 55.2263 152.932 52.4726 153.61 49.4224C154.266 46.3933 154.372 42.8559 153.017 39.615C152.361 38.0051 151.387 36.5647 150.328 35.3785C149.841 34.8066 149.206 34.2135 148.508 33.6416C147.809 33.1332 147.111 32.6248 146.37 32.2647C145.734 31.8834 143.956 30.9726 141.564 30.443C139.172 29.9135 136.187 29.7864 133.392 30.4642C130.598 31.0997 128.079 32.4977 126.682 33.9169C125.284 35.3362 124.84 36.4588 125.305 36.3953C125.708 36.7342 126.512 36.2682 127.444 35.7386C128.396 35.2091 129.518 34.6583 130.365 34.4253C132.376 34.2559 134.557 33.9805 136.864 34.0864C139.151 34.1499 141.522 34.7642 143.194 35.9081C143.956 36.5224 145.099 36.4588 145.353 37.3697C145.65 38.0898 146.116 38.8948 146.497 39.6785C146.856 40.4411 147.195 41.1613 147.428 41.9238C147.894 43.4278 148.127 45.1224 147.851 46.9864C147.576 47.6219 148.275 48.1302 147.64 48.5962C147.216 49.1258 147.364 50.1425 147.089 50.8839C147.089 51.244 147.026 51.5194 146.708 51.6041C145.84 52.049 145.544 52.981 145.184 53.9977C144.803 55.1416 144.697 55.9041 144.083 56.243C143.258 56.7302 142.94 57.4716 142.093 58.0012C140.971 58.2765 141.077 58.3189 139.659 58.9544C137.944 59.0391 136.166 59.0815 134.345 58.7425C132.524 58.4036 130.683 57.5987 129.307 56.2219C128.714 55.8406 126.893 54.5485 125.517 52.1549C124.099 49.7825 123.358 46.3086 123.654 43.3007C123.866 40.2716 125.009 37.8145 125.2 36.8401C125.284 36.3317 125.136 36.1834 124.586 36.5435C124.035 36.9036 123.104 37.8145 122.088 39.6362C119.547 45.5036 120.246 52.7268 124.459 57.8953C126.3 60.077 128.629 61.7928 131.233 62.9155C130.577 63.8687 130.175 65.0549 129.455 65.9657C129.116 66.3046 129.582 66.8342 129.031 67.0036C127.549 67.9992 127.338 69.6302 126.914 71.1554C126.724 71.3884 127.274 71.7273 126.83 71.8332C126.512 72.0026 126.787 72.4898 126.703 72.7652C126.766 72.9135 126.745 73.0406 126.533 73.0406C125.369 73.2948 126.322 74.6081 125.792 75.18C125.432 75.6036 125.665 76.0696 125.623 76.5357C125.348 77.0017 125.348 77.0228 125.496 77.7642C124.84 79.1199 125.348 80.8568 124.713 82.276C124.776 82.9962 124.586 86.9573 124.988 89.1815C122.956 88.8849 121.008 88.9273 118.912 89.012C114.847 89.012 114.742 88.9061 109.851 90.41C106.972 91.0243 104.178 92.0623 101.553 93.3967C100.452 90.0711 99.2241 86.7667 97.8481 83.5046C96.4085 80.1578 94.6726 76.8958 92.4286 74.0361C92.2381 73.7396 91.5818 72.5746 90.7985 71.4307C92.5132 70.6682 94.1433 69.6302 95.5193 68.1687C96.7048 66.9189 97.6363 65.415 98.2714 63.9534C98.5889 63.2756 98.8642 62.4495 99.1182 61.581C99.2876 60.7337 99.4781 59.8864 99.4781 59.0603C99.5628 58.3189 99.6687 56.3278 99.1606 53.9342C98.6525 51.5406 97.5305 48.7445 95.7734 46.4992C94.0586 44.2115 91.7299 42.4958 89.867 41.8179C87.9829 41.1189 86.7973 41.1825 87.0302 41.5849C86.882 42.0933 87.6441 42.6228 88.5121 43.2795C89.3801 43.9361 90.3539 44.7411 90.9043 45.3977C91.8781 47.1559 93.0425 49.0411 93.8893 51.1805C94.7573 53.2987 95.1806 55.6923 94.8419 57.6834C94.5878 58.6366 95.1172 59.6534 94.3974 60.2677C93.8681 60.8396 93.3177 61.6022 92.7673 62.2588C92.2168 62.8943 91.7087 63.5086 91.1159 64.0169C89.9304 65.0549 88.4909 65.9869 86.6703 66.4741C85.9929 66.4741 85.8024 67.3426 85.1249 66.9401C84.4687 66.7706 83.6007 67.3426 82.8174 67.3849C82.4786 67.5332 82.2034 67.5756 82.0129 67.3426C81.2508 66.7283 80.2981 66.8554 79.2185 66.9401C78.0329 67.0672 77.2708 67.279 76.7204 66.8554C75.9371 66.3046 75.1327 66.3046 74.2859 65.7751C73.5662 64.8642 73.5661 64.9913 72.4018 63.9534C71.6185 62.4283 70.8564 60.8184 70.4118 59.0179C69.9672 57.2174 69.946 55.2051 70.6235 53.4046C70.7293 52.7056 71.1528 50.5238 72.7828 48.2785C74.3494 46.012 77.2074 43.8938 80.0865 42.9406C82.9444 41.9026 85.6331 41.9026 86.6069 41.6908C87.0938 41.5637 87.1785 41.3519 86.6069 41.013C86.0564 40.6741 84.8497 40.1869 82.7539 39.9962C76.3818 40.081 70.0731 43.7031 67.0881 49.6765C64.2725 55.544 64.6113 62.7672 68.7182 68.2746C69.7979 69.6514 71.1316 70.8376 72.6982 71.7273C74.2224 72.6169 76.1912 73.1677 77.8637 73.2312C80.7428 73.4642 83.7489 73.4219 86.8185 72.7864C87.0514 72.744 87.2843 72.6593 87.5172 72.5958C87.6865 73.8243 88.4485 74.8834 88.6179 76.0908C88.6179 76.5357 89.3377 76.4721 89.0625 77.0017C88.6815 78.6751 89.6553 79.7554 90.375 80.9628C90.375 81.2381 91.0313 81.0475 90.7561 81.4288C90.6502 81.7465 91.1583 81.8524 91.3065 82.0854C91.4547 82.149 91.5183 82.2125 91.3489 82.382C90.608 83.3352 92.238 83.4834 92.1744 84.2036C92.1744 84.712 92.6403 84.8391 92.9155 85.1568C92.979 85.644 93.0002 85.644 93.5929 86.0253C93.9316 87.3174 95.3924 88.1647 95.7099 89.5416C96.091 89.944 97.7422 92.0623 99.0971 93.6509C99.3299 93.9263 99.5628 94.1805 99.7957 94.3923C98.0598 95.3879 96.4085 96.4893 94.8419 97.7179C90.3962 101.234 86.7126 105.598 83.7277 110.47C83.2407 111.338 82.3728 113.16 81.5472 115.638C81.4837 115.596 81.4625 115.553 81.399 115.511C77.9695 114.367 74.5823 113.033 71.1951 111.698C67.8079 110.364 64.3995 109.05 60.8641 108.161C60.6948 108.097 60.2503 107.928 59.721 107.695C60.2503 106.847 60.7371 105.958 61.1182 105.026C62.219 102.314 62.5155 99.3701 62.1132 97.3578C61.7322 95.3455 61.0335 94.3288 60.843 94.7524C60.3349 94.9007 60.2925 95.8539 60.1867 96.9554C60.0808 98.0568 59.9116 99.349 59.6152 100.175C58.599 101.976 57.5617 103.988 56.1221 105.873C55.9951 106.043 55.8469 106.191 55.6987 106.36C54.8942 106.212 54.3227 106.254 54.2803 106.72C54.1321 107.123 54.238 107.441 54.3862 107.737C53.2853 108.754 52.0787 109.622 50.8508 110.067C49.877 110.279 49.2419 111.317 48.3316 110.893C48.0987 110.851 47.9717 110.83 47.6753 110.809C47.3789 110.809 47.1037 110.766 46.8285 110.766C46.278 110.766 45.77 110.745 45.3043 110.724C44.3516 110.724 43.4625 110.66 42.6369 110.576C40.9856 110.385 39.4402 109.855 38.0218 108.733C37.6196 108.267 36.8574 108.479 36.7939 107.758C36.5611 107.144 35.6507 106.699 35.185 106.085C34.9098 105.873 34.7193 105.64 34.8251 105.344C34.9098 104.433 34.4017 103.585 33.7243 102.738C33.3009 102.378 32.8775 101.615 33.068 100.811C33.322 99.6879 32.9834 98.777 33.1104 97.6332C33.5761 96.4046 33.5126 96.3834 33.7455 94.7736C34.6346 93.2696 35.5872 91.6174 36.8998 90.1982C38.17 88.779 39.8424 87.5293 41.7688 87.0844C42.4251 86.7667 44.4998 85.8559 47.3365 86.0041C50.1733 86.0889 53.5605 87.4233 55.9739 89.3721C58.4296 91.2997 59.8481 93.6721 60.5467 94.4135C60.9066 94.7736 61.1394 94.7312 61.1394 94.0534C61.1394 93.3755 60.9065 92.0623 59.9327 90.1559C56.3973 84.6485 49.75 81.111 42.9121 82.0642C39.5672 82.5302 36.4764 83.9918 33.936 86.0465C31.3957 88.1647 29.3421 90.749 28.1354 94.0746C27.585 95.6632 27.2251 97.2307 27.0769 98.8829C26.9499 100.556 26.9076 102.251 27.5427 104.263C27.6697 104.708 28.0084 105.449 28.1566 105.704L28.707 106.72C29.0669 107.398 29.448 108.055 29.9137 108.712C30.3371 109.368 30.7816 110.025 31.3321 110.639C31.819 111.275 32.3906 111.889 33.0046 112.461C35.3333 114.812 38.8898 116.57 42.404 116.655C44.14 116.74 45.8123 116.485 47.2519 116.189L48.2468 115.977L48.7338 115.871L49.3901 115.702C50.3004 115.511 51.0837 115.151 51.8881 114.812C52.5656 114.473 54.4708 113.626 56.3337 111.91C56.6513 111.613 56.9901 111.275 57.3076 110.936C57.9215 111.317 58.5355 111.677 59.0436 112.164C59.3188 112.546 59.8904 112.058 59.9962 112.651C60.7795 114.261 62.3249 114.537 63.7644 115.003C63.9761 115.214 64.336 114.621 64.3995 115.109C64.5477 115.447 65.0135 115.172 65.2887 115.257C65.4369 115.193 65.5428 115.214 65.5428 115.447C65.6486 116.697 67.0246 115.702 67.5115 116.295C67.8714 116.697 68.3371 116.443 68.7817 116.485C69.2051 116.803 69.2051 116.782 69.946 116.655C71.1739 117.396 72.8886 116.867 74.18 117.608C74.7728 117.608 77.5673 117.756 79.7266 117.629C80.2135 117.587 80.6581 117.545 81.0392 117.481C80.3617 119.896 79.7689 122.755 79.6207 125.933C79.3878 131.355 80.5311 137.477 82.9021 142.624C82.4787 142.688 82.0553 142.751 81.6319 142.73C81.2508 142.646 81.2296 143.302 80.8062 142.963C79.3666 142.349 78.3082 143.154 77.2497 143.768C76.9956 143.768 77.1861 144.382 76.8474 144.107C76.551 143.98 76.4665 144.467 76.2759 144.594C76.2336 144.721 76.1701 144.806 76.0219 144.637C75.1116 143.916 75.0903 145.463 74.4552 145.42C73.9895 145.42 73.926 145.886 73.6931 146.162C73.2697 146.268 73.2697 146.268 73.0157 146.861C71.8937 147.263 71.5127 148.788 70.433 149.276C70.2001 149.699 68.8875 151.606 68.2524 153.258C67.5962 154.91 67.4903 156.181 69.3109 155.609C71.3009 153.745 73.5873 152.156 75.9583 150.758C78.3294 149.339 80.7427 148.068 83.0926 146.607C83.2831 146.522 83.9394 146.268 84.7227 145.95C85.2308 146.755 85.7811 147.539 86.3739 148.238C90.9254 154.084 96.4932 156.52 98.3138 156.965C98.589 157.028 98.7584 157.049 98.8854 157.049C98.9701 157.092 99.0759 157.134 99.1606 157.198C99.3088 157.727 100.769 158.744 102.802 159.57C103.86 160.057 105.088 160.439 106.295 160.756C104.855 161.731 104.665 163.531 103.754 164.866C103.437 165.205 103.966 165.671 103.416 165.882C101.997 166.92 101.934 168.488 101.659 169.949C101.489 170.182 102.082 170.458 101.637 170.585C101.341 170.776 101.637 171.199 101.616 171.475C101.68 171.623 101.701 171.729 101.468 171.75C100.304 172.068 101.405 173.254 100.918 173.826C100.6 174.249 100.875 174.673 100.897 175.097C100.664 175.563 100.664 175.563 100.897 176.262C100.367 177.596 101.066 179.185 100.537 180.583C100.6 181.07 100.748 183.104 101.024 184.989C100.706 184.925 100.431 184.862 100.092 184.798C97.6787 184.438 94.6725 184.523 91.9416 185.391C89.2107 186.217 86.7762 187.785 85.506 189.31C84.2146 190.835 83.8547 191.979 84.2993 191.873C84.7227 192.191 85.4848 191.661 86.3951 191.068C87.3054 190.475 88.4063 189.84 89.2107 189.564C91.2007 189.246 93.36 188.823 95.6675 188.759C97.9539 188.675 100.346 189.098 102.103 190.115C102.908 190.687 104.051 190.539 104.368 191.428C104.728 192.127 105.236 192.89 105.66 193.652C106.083 194.394 106.464 195.072 106.739 195.834C107.311 197.296 107.671 198.99 107.502 200.854C107.269 201.49 108.01 201.977 107.396 202.464C107.015 203.015 107.247 204.032 107.015 204.794C107.015 205.154 106.993 205.43 106.676 205.536C105.829 206.023 105.617 206.976 105.321 208.014C105.025 209.179 104.961 209.963 104.39 210.323C103.606 210.874 103.331 211.636 102.527 212.229C101.426 212.589 101.532 212.632 100.156 213.352C98.462 213.564 96.6836 213.733 94.8207 213.5C92.9789 213.288 91.0737 212.632 89.6342 211.361C89.0202 211.022 87.1148 209.857 85.5694 207.569C83.9817 205.303 83.0079 201.892 83.0926 198.863C83.0926 195.834 84.0453 193.292 84.1935 192.318C84.257 191.81 84.0665 191.661 83.5584 192.064C83.0503 192.466 82.1611 193.441 81.272 195.326C79.155 201.342 80.3405 208.522 84.9132 213.373C89.4435 218.054 96.3238 220.236 102.908 218.287C104.58 217.758 106.147 216.911 107.523 215.745C108.878 214.623 110.084 212.949 110.719 211.424C111.926 208.798 112.942 205.959 113.408 202.867C113.853 199.795 113.704 196.279 112.138 193.123C111.376 191.555 110.296 190.179 109.153 189.077C108.624 188.547 107.946 187.997 107.226 187.467C106.507 187.001 105.766 186.535 104.982 186.239C104.728 186.112 104.241 185.9 103.67 185.688C104.241 182.68 104.919 179.693 105.66 176.707C106.507 173.169 107.311 169.611 107.713 166.01C107.798 165.607 108.264 163.912 108.56 162.324C108.624 161.964 108.666 161.625 108.708 161.307C109.174 161.392 109.619 161.498 110.021 161.561C114.53 162.832 120.669 162.684 126.703 160.841C129.455 160.036 132.122 158.808 134.641 157.367C134.641 157.452 134.663 157.537 134.705 157.621C136.631 159.655 138.431 161.879 140.209 164.082C141.987 166.285 143.787 168.488 145.883 170.415C146.094 170.648 146.899 171.771 147.746 172.703C147.894 172.873 148.063 173.021 148.211 173.19C147.978 173.36 147.746 173.508 147.534 173.678C144.993 175.796 142.94 178.38 141.733 181.706C141.183 183.294 140.823 184.862 140.675 186.514C140.548 188.187 140.505 189.882 141.141 191.894C141.268 192.339 141.606 193.081 141.755 193.335L142.305 194.351C142.665 195.029 143.046 195.686 143.512 196.343C143.935 196.999 144.38 197.656 144.93 198.27C145.417 198.906 145.988 199.52 146.602 200.092C148.931 202.443 152.488 204.201 156.002 204.286C157.738 204.371 159.41 204.116 160.85 203.82L161.845 203.608L162.332 203.502L162.988 203.333C163.898 203.142 164.681 202.782 165.486 202.443C166.163 202.104 168.069 201.257 169.932 199.541C171.816 197.868 173.658 195.389 174.758 192.678C175.859 189.967 176.156 187.022 175.753 185.01C175.372 182.998 174.674 181.981 174.483 182.405C173.975 182.553 173.933 183.506 173.827 184.608C173.721 185.709 173.552 187.001 173.255 187.827C172.239 189.628 171.202 191.64 169.762 193.525C168.323 195.368 166.439 197.02 164.491 197.719C163.517 197.931 162.882 198.969 161.972 198.546C161.739 198.503 161.612 198.482 161.316 198.461C161.019 198.461 160.744 198.418 160.469 198.418C159.918 198.418 159.41 198.397 158.945 198.376C157.992 198.376 157.103 198.313 156.277 198.228C154.626 198.037 153.08 197.508 151.662 196.385C151.26 195.919 150.498 196.131 150.434 195.411C150.201 194.796 149.291 194.351 148.825 193.737C148.55 193.525 148.36 193.292 148.465 192.996C148.55 192.085 148.042 191.238 147.364 190.39C146.941 190.03 146.518 189.268 146.708 188.463C146.962 187.34 146.624 186.429 146.751 185.285C147.216 184.057 147.153 184.036 147.386 182.426C148.275 180.922 149.227 179.27 150.54 177.85C151.81 176.431 153.483 175.181 155.409 174.737C156.065 174.419 158.14 173.508 160.977 173.656C163.814 173.741 167.201 175.076 169.614 177.024C172.07 178.952 173.488 181.324 174.187 182.066C174.547 182.426 174.78 182.383 174.78 181.706C174.78 181.028 174.547 179.714 173.573 177.808C170.038 172.301 163.39 168.763 156.552 169.716C154.308 170.034 152.17 170.818 150.244 171.919C150.604 170.352 149.482 169.378 149.185 168.064C149.185 167.683 148.529 167.852 148.741 167.365C148.952 165.861 147.979 165.099 147.195 164.23C147.153 163.997 146.602 164.315 146.793 163.912C146.856 163.616 146.391 163.637 146.221 163.489C146.073 163.489 146.01 163.425 146.137 163.256C146.666 162.26 145.205 162.536 145.142 161.921C145.078 161.477 144.634 161.519 144.337 161.328C144.189 160.947 144.168 160.947 143.596 160.799C143.067 159.803 141.606 159.591 141.035 158.575C140.611 158.384 138.685 157.261 137.055 156.626C136.822 156.541 136.589 156.456 136.377 156.393C138.769 154.868 140.992 153.173 142.982 151.373C144.083 150.313 144.993 149.17 145.798 148.047C146.539 146.882 147.301 145.844 148.19 144.976C149.82 143.006 151.302 140.676 152.403 138.049C153.419 135.592 154.139 132.902 154.52 130.127C154.732 130.402 155.07 130.699 155.663 131.016C160.384 132.309 165.126 133.643 169.847 135.062C174.589 136.46 179.331 137.837 184.158 138.79C184.793 138.96 187.905 139.998 190.276 140.506C188.392 145.971 189.027 152.22 192.689 157.134C193.769 158.511 195.103 159.697 196.669 160.587C198.194 161.477 200.162 162.027 201.835 162.091C204.714 162.324 207.72 162.281 210.79 161.646C213.817 161.011 217.077 159.634 219.49 157.071C220.676 155.821 221.607 154.317 222.243 152.855C222.56 152.178 222.835 151.351 223.089 150.483C223.259 149.636 223.449 148.788 223.449 147.962C223.534 147.221 223.64 145.23 223.132 142.836L222.92 142.582ZM115.186 125.191C114.615 125.234 114.064 125.255 113.599 125.191C113.535 125.191 113.471 125.191 113.408 125.191C113.98 125.17 114.572 125.17 115.186 125.191ZM148.084 129.025C147.534 135.147 145.057 140.909 141.056 145.802C140.569 146.374 139.595 147.517 138.198 148.852C138.367 145.505 136.674 141.269 135.128 137.71C134.768 136.672 133.71 136.227 133.583 135.274C132.969 133.516 131.741 131.843 130.111 130.466C128.735 129.279 127.105 128.347 125.432 127.606C126.195 127.331 126.893 126.907 127.549 126.399C129.031 126.102 130.513 124.916 131.551 123.327C132.694 121.612 133.371 119.493 133.773 117.523C134.091 116.507 133.35 115.638 133.773 114.791C134.176 113.033 133.837 110.999 132.863 109.135C131.889 107.271 130.28 105.661 128.523 104.496C127.973 103.924 127.253 104.39 126.936 103.67C126.449 103.119 125.369 103.077 124.649 102.886C124.289 102.886 124.035 102.823 123.929 102.547C123.421 101.785 122.384 101.594 121.368 101.594C120.352 101.594 119.293 101.764 118.468 101.552C117.197 101.255 116.245 101.721 115.144 101.997C113.789 102.081 113.747 102.081 112.222 102.971C110.381 103.458 108.687 104.687 107.459 106.212C106.21 107.716 105.385 109.411 104.559 111.105C104.411 111.783 103.86 113.901 104.284 116.379C104.58 118.498 105.766 120.679 107.248 122.056C108.433 123.666 110.084 124.852 111.947 125.255C111.312 125.382 110.719 125.594 110.063 125.763C108.645 125.869 108.602 125.89 106.972 126.738C102.992 127.797 100.219 130.678 97.1706 133.156C96.6837 133.728 95.2865 135.422 93.9528 137.646C92.8308 139.489 91.7087 141.65 90.7561 143.662C90.1422 144.594 89.5071 145.569 88.8297 146.607C88.2793 145.823 87.7711 144.997 87.3054 144.149C87.3689 144.001 87.3901 143.832 87.3054 143.683C87.1995 143.345 86.9878 143.175 86.7549 143.048C85.5483 140.612 84.8073 137.943 84.2569 135.189C83.643 132.16 83.643 129.068 83.8759 126.017C84.2146 122.967 84.9768 119.98 86.0564 117.1C87.2631 114.282 88.7662 111.571 90.6715 109.114C92.6403 106.742 94.7361 104.433 97.2765 102.632C98.4832 101.658 99.8592 100.895 101.151 100.048C102.548 99.349 103.882 98.5228 105.363 97.9933C108.221 96.68 111.249 95.8963 114.276 95.4091C120.352 94.4559 126.576 95.4091 131.932 98.2687C137.288 101.107 141.691 105.725 144.528 111.19C147.386 116.634 148.677 122.904 148.106 129.004L148.084 129.025Z" fill="#063312"/>
<path d="M65.5848 151.733C63.87 149.446 61.5414 147.73 59.6784 147.052C57.7943 146.353 56.6088 146.417 56.8417 146.819C56.6935 147.328 57.4555 147.857 58.3235 148.514C59.1915 149.17 60.1653 149.975 60.7157 150.632C61.6895 152.39 62.854 154.275 63.7008 156.415C64.5687 158.533 64.992 160.927 64.6533 162.918C64.3993 163.871 64.9286 164.888 64.2088 165.502C63.6796 166.074 63.1291 166.836 62.5787 167.493C62.0283 168.128 61.5203 168.743 60.9275 169.251C59.742 170.289 58.3023 171.221 56.4817 171.708C55.8043 171.708 55.6138 172.577 54.9364 172.174C54.2801 172.005 53.4121 172.577 52.6288 172.619C52.2901 172.767 52.0149 172.81 51.8243 172.577C51.0622 171.962 50.1097 172.09 49.03 172.174C47.8445 172.301 47.0823 172.513 46.5318 172.09C45.7485 171.539 44.9442 171.539 44.0974 171.009C43.3776 170.098 43.3776 170.226 42.2132 169.188C41.4299 167.662 40.6678 166.053 40.2232 164.252C39.7787 162.452 39.7576 160.439 40.435 158.639C40.5409 157.94 40.9642 155.758 42.5943 153.513C44.1608 151.246 47.0188 149.128 49.8979 148.175C52.7559 147.137 55.4445 147.137 56.4183 146.925C56.9052 146.798 56.9899 146.586 56.4183 146.247C55.8679 145.908 54.6612 145.421 52.5653 145.23C46.172 145.315 39.8845 148.937 36.8995 154.911C34.0839 160.778 34.4227 168.001 38.5297 173.509C39.6093 174.886 40.943 176.072 42.5096 176.962C44.0339 177.851 46.0027 178.402 47.6751 178.465C50.5754 178.698 53.5603 178.656 56.6299 178.021C59.6572 177.385 62.9174 176.008 65.3308 173.445C66.5163 172.195 67.4478 170.692 68.0829 169.23C68.4005 168.552 68.6756 167.726 68.9297 166.858C69.099 166.01 69.2895 165.163 69.2895 164.337C69.3742 163.595 69.4801 161.604 68.972 159.211C68.464 156.817 67.3419 154.021 65.5848 151.776V151.733Z" fill="#063312"/>
</svg>
