<svg width="250" height="250" viewBox="0 0 250 250" fill="none" xmlns="http://www.w3.org/2000/svg">
<rect width="250" height="250" fill="#DEECDC"/>
<path d="M117.808 65.0325C118.224 65.3388 118.377 65.2076 118.289 64.5293C118.246 64.1792 118.136 63.6977 117.961 63.107C117.808 62.4943 117.677 61.7066 117.48 60.7876C116.737 58.0088 116.715 55.0549 117.546 52.1885C118.355 49.3221 120.104 46.6745 122.269 44.574C124.456 42.4515 127.146 40.9856 130.098 40.5042C133.138 39.8259 136.199 40.0228 138.911 41.0731C144.356 43.0642 148.183 48.8626 148.205 54.836C148.249 57.8337 147.505 60.722 145.865 63.3695C144.356 66.0171 142.125 67.9864 139.414 69.4086C138.823 69.715 137.096 70.3933 134.756 70.7434C132.438 71.0935 129.508 70.9185 126.927 70.0651C124.325 69.2336 122.116 67.8113 120.673 66.6079C119.273 65.3826 118.377 64.6605 118.289 65.1638C117.808 65.492 118.18 66.4329 118.858 67.5707C119.601 68.6428 120.673 69.8463 121.548 70.5465C123.1 72.6033 126.096 74.3099 129.508 74.9664C132.919 75.6666 136.659 75.3383 139.939 74.5287C140.792 74.3974 141.513 73.9598 142.169 73.5222C142.847 73.1284 143.459 72.7564 144.159 72.6032C146.958 71.7061 149.714 69.4524 151.507 66.586C153.388 63.829 154.481 60.2625 154.787 56.7835C154.984 55.5144 154.35 54.8579 154.721 53.8295C154.831 53.2606 154.722 52.5605 154.568 51.8384C154.415 51.1382 154.065 50.438 153.934 49.8035C153.672 49.2565 153.562 48.8189 153.716 48.4469C153.912 47.0903 153.3 45.3617 152.163 43.9176C151.9 43.5456 151.638 43.1736 151.354 42.8016C151.026 42.4515 150.72 42.1015 150.435 41.7951C149.845 41.1387 149.364 40.4604 148.861 39.8696C147.527 38.0097 145.821 37.3534 144.072 36.4125C142.06 35.1872 142.016 35.0777 139.064 34.662C135.981 33.7649 132.591 33.7868 129.573 34.6839C126.49 35.3841 123.56 36.9157 120.914 38.6443C120.039 39.432 117.371 41.9045 115.512 45.668C113.653 49.3877 112.844 54.4203 113.916 58.2057C114.856 62.0348 116.999 64.3761 117.786 64.9668L117.808 65.0325Z" fill="#063312"/>
<path d="M73.9847 114.242C76.4995 110.391 73.4161 104.768 68.1022 106.059C64.647 106.89 62.351 111.354 64.6252 114.548C67.2275 118.224 72.1697 117.283 74.0066 114.242H73.9847Z" fill="#063312"/>
<path d="M132.132 95.9937L136.331 96.3657C137.665 96.5189 138.977 96.6939 140.289 96.9346C142.913 97.3941 145.515 98.0724 148.074 98.8601C148.642 99.057 151.026 100.129 153.147 101.201C154.219 101.748 155.225 102.252 155.968 102.558C156.733 102.842 157.171 103.061 157.258 102.667C157.849 101.814 156.602 100.72 155.968 100.042C154.962 97.8973 152.141 96.7596 150.064 95.2717C149.561 94.834 148.817 95.1841 148.511 94.5715C146.915 92.7772 144.378 92.3178 141.973 91.8583C141.557 91.6613 141.207 92.2302 140.923 91.7707C140.573 91.4425 139.917 91.7269 139.458 91.6832C139.239 91.7488 139.064 91.7489 138.998 91.5301C138.277 90.3485 136.505 91.4644 135.587 91.0487C134.865 90.7642 134.275 91.0705 133.597 91.1362C132.832 90.9392 132.832 90.9611 131.804 91.2237C129.639 90.808 127.321 91.6394 125.09 91.2237C124.238 91.355 119.995 91.7708 116.868 92.3397C115.315 92.6241 114.025 92.9523 113.566 93.3024C113.129 93.6306 113.5 94.1339 115.272 94.6153C120.848 94.9872 126.49 95.4467 132.132 95.9719V95.9937Z" fill="#063312"/>
<path d="M100.97 195.486C100.051 195.289 98.5861 200.869 96.946 203.451C94.9779 206.164 92.3537 209.402 88.658 211.131C86.843 211.984 84.8311 212.4 82.9067 212.181C80.9824 211.962 79.1673 211.153 77.7021 210.08C76.2807 208.943 74.5531 208.242 73.9408 206.755C72.4756 204.151 71.7322 201.131 71.426 197.543C71.273 195.88 71.1855 193.582 70.7262 191.438C70.2889 189.272 69.5672 187.106 68.6487 185.136C68.1239 183.67 67.1179 183.276 66.9649 182.007C66.5712 180.695 65.4341 179.404 64.7781 177.981C64.3844 177.391 64.1221 176.909 64.1877 176.472C64.0346 173.277 60.1859 169.338 58.5676 166.231C57.343 163.89 55.8778 162.577 54.3907 160.761C52.86 158.507 52.8382 158.486 50.389 156.057C50.061 155.619 49.711 155.182 49.383 154.766C48.9894 154 48.0053 153.825 47.4586 153.497C46.5183 153.081 45.578 152.775 44.6158 152.468C42.7352 151.899 40.8327 151.484 38.9083 151.112L37.4649 150.849C37.1588 150.827 37.0495 150.805 36.8746 150.674C36.3497 150.302 35.5624 149.624 34.9938 149.055C33.7911 147.83 32.829 146.364 32.2167 144.701C31.6481 143.585 29.8112 139.756 29.8768 134.723C29.8768 129.712 32.1729 123.63 36.1748 120.041C38.1429 118.247 40.4391 117.109 42.4728 116.693C44.5284 116.256 46.234 116.562 47.0869 116.693C47.9398 116.847 48.0928 116.693 47.0431 116.015C46.0591 115.424 43.435 114.44 39.7174 115.424C36.9183 116.321 34.5784 117.919 32.6103 119.91C30.6859 121.945 29.2208 124.198 28.1274 126.671C25.8968 131.55 25.4157 137.349 26.7059 142.535C27.2963 145.116 28.2804 147.764 29.8987 150.127C30.6859 151.309 31.6262 152.381 32.6103 153.344C33.1788 153.891 33.4412 154.131 34.4909 154.963C34.8627 155.422 35.5188 155.422 36.0655 155.575L37.0058 155.816C39.2582 156.385 41.5324 157.041 43.6317 157.807C44.1565 158.004 44.6595 158.201 45.1625 158.42L45.4687 158.551C45.4687 158.551 45.4905 158.573 45.5123 158.595L47.6991 161.33C50.6295 165.072 53.3849 168.857 55.7248 172.861C56.9057 174.874 57.9772 176.931 58.9831 179.032C59.9016 181.045 61.1699 183.605 62.2414 185.596C63.3348 187.653 64.1439 189.556 64.6469 191.613C65.2154 193.736 65.281 195.683 65.6091 198.418C65.9589 201 66.5932 203.713 67.9053 206.251C68.5613 207.52 69.3923 208.746 70.3764 209.818C71.3167 210.824 72.3226 211.743 73.4378 212.575C74.4 213.253 77.0898 215.485 81.6384 216.185C83.8908 216.535 86.5587 216.251 88.9423 215.266C91.3478 214.303 93.469 212.728 95.1747 210.912C98.6298 207.17 100.073 202.729 100.773 199.775C101.473 196.755 101.363 195.005 100.992 195.442L100.97 195.486Z" fill="#063312"/>
<path d="M108.886 86.9793C109.695 86.2792 108.142 84.0474 107.421 82.7783C106.48 79.3868 102.894 76.0171 100.467 72.8225C99.92 71.9473 98.7829 71.816 98.5642 70.8751C97.7988 69.256 96.6179 67.8337 95.284 66.4771C93.9063 65.0986 92.5942 63.8952 90.9104 62.5167C90.2981 61.8821 89.5109 62.2322 89.0735 61.4664C88.4394 60.8099 86.9523 60.7006 85.7495 60.6787C85.2028 60.7443 84.7655 60.8537 84.4375 60.6349C83.0817 60.1535 81.2011 61.2038 80.3482 62.451C79.4079 63.6982 79.0579 64.9892 78.4675 65.7988C77.6583 66.9803 77.6802 68.1619 77.5271 69.4529C77.0898 70.8751 77.0898 70.9407 77.3085 72.6693C76.7618 75.7764 77.3742 79.0148 77.4835 82.2313C77.243 82.1875 77.0242 82.1437 76.8274 82.1218C74.5312 80.8965 71.3604 82.1874 68.6706 82.7345C67.949 82.822 67.6865 83.6753 66.9649 83.4784C64.3626 83.4784 62.1539 85.2726 60.142 86.9793C59.6828 87.1763 59.9453 87.8764 59.3548 87.7889C58.8519 87.8546 58.6551 88.6204 58.3052 88.9705C58.2177 89.1893 58.1083 89.3425 57.8459 89.2769C56.3152 89.1456 56.2059 91.2899 55.1781 91.8588C54.4346 92.2964 54.3252 93.0403 53.9097 93.653C53.2318 94.2219 53.2318 94.2438 52.8382 95.3378C51.0888 97.1101 50.5639 99.7577 49.1425 101.814C49.0113 102.274 48.552 103.631 48.1803 105.315C47.8085 107 47.5242 108.991 47.5679 110.676C47.5898 112.361 47.8742 113.718 48.2241 114.199C48.5958 114.68 49.0769 114.287 49.7985 112.667C50.2796 109.998 51.2199 107.394 52.532 104.965C53.8441 102.515 55.4842 100.195 57.3211 98.0073C59.1799 95.8411 61.1918 93.6967 63.2693 91.9025C65.3686 90.0645 67.6428 88.4235 70.0264 87.0012C70.5513 86.6949 73.0442 85.6446 75.3403 85.0538C76.1495 84.835 76.893 84.6819 77.549 84.5506C77.724 85.5352 78.0301 87.2419 78.4675 89.1893C79.036 91.7056 79.8452 94.6158 80.7199 97.0008C81.5947 99.3858 82.5131 101.267 83.0817 101.814C83.6722 102.362 83.8689 101.618 83.6721 98.7293C81.7695 90.0645 81.6384 80.9184 82.7974 72.1223C82.9505 71.0939 83.1254 70.2406 83.4534 69.3654C83.7815 68.4464 84.197 67.593 84.5687 67.0678C84.9842 66.4989 85.2247 66.4552 85.2903 66.4333C85.3777 66.4115 85.8807 66.4771 86.5368 66.8709C86.8648 67.0678 87.1929 67.3086 87.5646 67.593L88.8329 68.7527L91.3696 71.0282C93.0754 72.538 94.781 74.0478 96.5305 75.5138C97.2959 76.214 100.445 79.2773 103.2 82.1874C105.977 85.1195 108.602 87.8109 108.82 86.9575L108.886 86.9793Z" fill="#063312"/>
<path d="M216.761 132.644C220.763 131.44 224.502 130.806 223.912 130.127C223.802 129.033 220.938 129.165 219.385 129.186C215.733 128.399 210.769 130.105 206.549 131.55C206.002 131.703 205.586 132.031 205.193 132.359C204.099 132.162 202.678 131.943 201.06 131.878C198.304 131.703 195.024 131.922 192.422 132.556C192.334 132.556 192.247 132.6 192.159 132.622C191.941 130.915 191.656 129.23 191.285 127.545C188.835 116.736 183.303 106.737 175.78 98.7503C168.279 90.7201 158.636 84.6372 148.03 81.7271C146.871 81.3551 143.722 80.4361 139.589 79.7578C135.477 79.0795 130.426 78.7075 125.659 78.7294C116.102 78.7732 107.705 79.7797 108.842 80.4361C108.886 81.552 115.031 81.4864 118.289 81.7271C121.897 82.4054 126.38 82.6242 131.038 83.1275C135.696 83.587 140.507 84.3746 144.596 85.7969C146.586 86.6721 148.751 86.4752 150.151 87.7006C156.361 91.3984 163.665 95.4901 169.635 101.245C170.554 102.404 171.713 102.426 172.15 103.673C172.806 104.877 174.49 106.037 175.408 107.328C175.911 107.809 176.283 108.247 176.327 108.706C177.027 111.769 181.072 115.358 182.078 118.881C182.559 120.106 182.909 121.178 183.412 122.163C183.915 123.147 184.374 124.132 184.746 125.248C185.424 127.939 185.337 127.939 186.517 131.309C186.999 135.16 187.502 139.033 187.589 143.037C187.589 147.019 187.261 151.089 186.124 155.028C186.015 155.793 185.643 157.259 185.205 159.229C184.637 161.176 183.937 163.627 182.887 166.231C180.854 171.46 177.552 177.346 173.965 181.832C171.101 185.595 168.126 188.33 166.617 189.949C165.699 190.387 164.518 192.137 163.665 193.078C160.713 195.244 158.133 199.643 155.071 202.509C154.24 203.165 154.175 204.325 153.212 204.675C151.616 205.703 150.37 206.863 149.167 207.607C147.964 208.395 146.499 209.007 144.749 209.336C144.115 209.336 143.853 210.058 143.262 209.664C142.65 209.467 141.775 209.926 141.076 210.014C140.748 210.123 140.485 210.167 140.31 209.927C139.02 208.745 136.134 210.298 135.018 209.708C134.187 209.27 133.969 209.62 133.597 209.379C133.509 209.139 133.466 208.986 133.334 208.789C133.225 208.614 133.006 208.395 132.678 207.782C132.438 206.075 132.066 204.062 130.951 201.874C130.382 200.758 129.486 199.708 128.611 198.986C127.714 198.242 126.905 197.651 126.03 196.973C125.287 196.601 123.122 195.573 120.367 194.96C117.611 194.347 114.309 194.172 111.663 194.697C108.995 195.157 107.158 196.317 106.765 196.929C106.546 197.236 106.634 197.411 107.093 197.52C107.552 197.629 108.339 197.52 109.651 197.542C113.631 196.973 118.289 197.936 122.007 200.036C123.778 201.021 125.746 202.618 126.118 203.625C126.402 204.237 126.643 205.31 126.861 206.469L127.189 208.264C127.321 208.964 127.496 209.773 127.78 210.583C128.108 211.414 128.502 212.29 129.245 213.143C129.945 213.974 130.929 214.696 131.869 215.068C133.794 215.834 135.324 215.812 136.658 215.856C139.173 215.856 141.754 215.9 144.509 215.506C147.199 215.134 150.217 214.303 152.753 212.355C154 211.392 155.006 210.255 155.837 209.183C156.668 208.088 157.302 207.169 158.045 206.119C158.745 205.222 161.763 201.327 164.103 197.454C165.787 194.763 167.077 192.028 167.383 190.715C168.454 190.124 170.029 189.14 172.041 187.499C180.066 180.103 186.08 170.629 189.535 160.235C192.225 152.271 193.253 143.672 192.487 135.226C194.937 135.007 197.473 135.138 199.966 135.576C199.463 136.101 198.982 136.648 198.545 137.326C197.845 138.42 197.32 139.733 197.102 141.177C196.992 141.899 196.97 142.643 197.014 143.365C197.08 144.065 197.167 144.656 197.32 145.356C197.451 146.407 198.283 146.669 198.304 147.676C198.545 148.748 200.054 149.798 201.125 150.323C201.672 150.498 202.044 150.608 202.241 150.936C204.187 152.927 207.62 151.417 209.894 150.826C211.666 150.367 212.672 149.142 213.612 147.741C214.268 146.997 214.53 146.538 214.727 146.013C214.902 145.466 215.077 144.853 215.033 143.606C215.514 140.827 214.093 138.289 212.497 136.713C211.819 136.057 211.141 135.51 210.419 134.985C210.638 134.897 210.857 134.788 211.097 134.679C212.715 134 214.771 133.322 216.783 132.731L216.761 132.644ZM209.588 143.475C209.216 144.547 208.014 145.378 206.417 145.553C206.067 145.597 205.586 145.597 205.171 145.553C204.755 145.51 204.427 145.444 204.187 145.356C203.728 145.159 203.64 145.072 203.378 144.547C203.137 144.087 202.962 142.949 203.028 142.381C203.05 141.702 203.312 140.98 203.728 140.236C204.296 139.273 205.127 138.354 206.111 137.501C206.177 137.545 206.264 137.589 206.33 137.632C207.161 138.179 207.904 138.836 208.495 139.536C209.085 140.236 209.501 140.98 209.698 141.659C209.872 142.359 209.851 142.862 209.632 143.475H209.588Z" fill="#063312"/>
</svg>
