<svg width="250" height="250" viewBox="0 0 250 250" fill="none" xmlns="http://www.w3.org/2000/svg">
<rect width="250" height="250" fill="#DEECDC"/>
<path d="M183.033 150.166C184.905 148.412 186.637 146.619 188.21 144.447C189.764 142.335 191.098 139.705 191.615 136.935C192.133 134.385 192.392 131.894 192.492 129.344C192.532 128.069 192.512 126.793 192.432 125.478C192.352 124.223 192.213 123.008 192.074 121.792C191.795 119.361 191.436 116.951 190.998 114.54C190.958 114.261 190.879 113.763 190.779 113.105C190.719 112.766 190.66 112.388 190.58 111.969C190.56 111.73 190.281 110.614 189.943 110.076C188.489 107.606 186.438 106.33 184.486 105.075C181.141 103.063 177.776 101.887 177.039 102.066C176.939 102.027 176.84 101.987 176.74 101.947C174.072 100.572 170.567 97.9022 169.531 95.7901C169.95 94.2559 169.79 92.4626 170.169 90.8885C170.368 90.3506 169.711 89.9321 170.169 89.4938C171.224 87.7005 170.806 85.708 170.607 83.7355C170.706 83.3768 170.029 83.2373 170.428 82.9185C170.667 82.5798 170.209 82.1415 170.169 81.7629C170.049 81.6035 170.009 81.464 170.228 81.3644C171.284 80.5674 169.81 79.4316 170.129 78.5549C170.328 77.8974 169.91 77.479 169.75 76.9211C169.85 76.2436 169.83 76.2436 169.392 75.4466C169.432 74.5301 169.213 73.6335 168.775 72.438C168.536 71.8601 168.237 71.2424 167.799 70.6646C167.341 70.0669 166.783 69.5887 166.345 69.2101C165.887 69.0108 164.892 68.692 163.617 68.2338C162.562 67.8751 161.367 67.4766 160.232 67.1379C159.236 66.4804 158.26 65.8428 157.265 65.1852C157.265 65.1852 156.727 64.7668 155.99 64.2089C155.99 64.1093 155.99 64.0097 155.931 63.9499L155.433 63.5315L154.417 62.6747L153.421 61.8577L152.824 61.3995C152.446 61.1006 152.047 60.8017 151.649 60.5427C150.076 59.4269 148.463 58.4506 146.83 57.5141C143.544 55.681 140.179 54.1069 136.734 52.7321C135.021 52.0347 133.269 51.3971 131.517 50.7993C130.64 50.5005 129.744 50.2215 128.848 49.9426L126.678 49.3249L125.403 48.9662L124.766 48.7869L124.607 48.7471C124.607 48.7471 124.547 48.8268 124.507 48.8666L124.308 49.1256C121.759 52.5528 121.281 53.3099 120.126 54.9238C119.091 56.3784 118.095 57.7333 117.02 58.9487C115.944 60.1442 114.75 61.2002 113.435 62.1168L112.42 62.7942C112.101 62.9935 111.782 63.1728 111.424 63.3521C110.727 63.7307 109.97 64.0694 109.194 64.4082C107.66 65.0657 106.047 65.6037 104.454 66.042C102.881 66.4604 101.228 66.7394 99.9738 66.6796C97.3452 66.5401 94.5374 64.8465 91.8491 62.7743L89.8179 61.1405L87.4083 59.128L85.3772 57.4942C84.5807 57.7333 83.7642 58.1517 82.9677 58.4705C82.5893 58.6299 82.1114 58.8491 81.8525 58.9686L81.1954 59.2874L79.901 59.9449C76.5157 61.778 73.4291 63.9897 70.5616 66.4604C69.1278 67.6759 67.7538 68.9909 66.4395 70.3657C65.7823 71.0432 65.1451 71.7605 64.5278 72.4579L63.6118 73.5538L63.1538 74.1117L62.417 75.0681L61.6802 76.0245C61.4412 76.3433 61.0828 76.6421 61.3416 77.1004L61.9988 79.4914L62.6958 82.0817C63.1538 83.7952 63.5918 85.5287 64.01 87.2423C64.7867 90.6096 65.5434 94.236 65.4637 97.145C65.4637 97.7029 65.2447 98.6792 65.1252 99.4563C64.946 100.233 64.7867 101.01 64.5278 101.648C64.3087 102.326 63.9901 102.804 63.7313 103.162C63.4326 103.441 63.1936 103.641 62.6958 103.78C61.6802 104.079 59.9079 104.039 58.1754 103.979L55.4871 103.86L54.113 103.82L52.3208 103.78H50.0109C49.7719 103.68 49.7321 103.959 49.6126 104.099L49.294 104.597L48.6767 105.573L48.0594 106.55L47.6611 107.227L46.9442 108.443C46.0282 110.076 45.1719 111.75 44.4351 113.484C43.7581 114.998 42.5433 117.867 41.5078 121.872C40.5122 125.877 39.7356 131.077 40.1537 136.895C40.2334 138.35 40.4126 139.824 40.6516 141.339C40.8507 142.415 41.03 143.511 41.2291 144.606C41.2291 144.806 41.3685 144.885 41.5078 144.965L41.926 145.204L42.7425 145.702L44.1165 146.519C46.765 148.073 49.6126 149.548 52.301 151.022C53.6352 151.779 54.8897 152.517 55.8456 153.374C56.0646 153.553 56.423 153.911 56.4031 153.892C56.4031 153.872 56.5823 154.19 56.7416 154.489C57.0602 155.107 57.3789 155.824 57.6975 156.522C58.9321 159.391 60.0871 162.419 60.9633 165.309C61.8594 167.879 61.6404 170.708 61.3218 173.697C61.1625 175.191 60.9434 176.746 60.8239 178.34C60.7642 179.137 60.7243 179.954 60.7243 180.77C60.7243 181.189 60.7443 181.607 60.7642 182.006L60.8239 182.683C60.8837 183.022 60.8438 183.361 60.9832 183.66C61.5607 185.014 61.9589 185.552 62.5165 186.29C63.0343 186.947 63.572 187.545 64.1096 188.083C65.2049 189.159 66.3001 190.095 67.4153 190.892C69.6456 192.526 71.8559 193.801 73.9668 194.778C74.365 194.957 74.7633 195.116 75.1616 195.276C77.7503 197.308 79.2836 198.225 82.43 200.197C82.6291 200.397 82.9079 200.636 83.2464 200.895C85.7356 202.11 88.1054 203.365 90.6344 204.681C91.9287 205.338 93.3425 205.956 94.9356 206.394C96.5088 206.852 98.301 206.972 99.9539 206.793C103.279 206.434 106.187 205.159 108.736 203.605C111.324 202.03 113.535 200.118 115.546 198.165C116.024 197.767 118.115 196.013 119.907 194.399C120.465 193.901 120.982 193.423 121.44 192.984C121.859 193.662 122.376 194.339 123.034 194.937C124.328 196.133 126.04 196.77 127.335 197.069C129.844 197.687 132.174 198.185 134.623 198.723L138.267 199.54C139.542 199.819 140.956 200.098 142.589 200.038C144.241 199.998 145.974 199.38 147.228 198.623C148.543 197.866 149.578 197.029 150.534 196.292L162.323 187.166C164.235 185.632 166.325 184.138 168.217 181.946C169.153 180.87 169.989 179.575 170.567 178.2C171.144 176.845 171.483 175.431 171.662 174.036C171.762 173.418 172.001 171.764 171.981 169.732C171.981 167.68 171.702 165.269 171.423 163.117C171.144 160.945 170.965 158.992 170.866 157.618C170.746 156.322 170.826 155.605 170.507 155.685C172.419 155.685 174.41 155.386 176.242 154.649C178.911 153.593 181.081 151.919 182.973 150.185L183.033 150.166ZM64.2291 184.536C63.8707 184.018 63.6317 183.42 63.4126 182.843C63.3728 182.205 63.3728 181.567 63.4126 180.91C63.4724 179.615 63.6516 178.28 63.8707 176.925C64.2889 174.215 64.8663 171.346 64.7667 168.258C64.7667 166.723 64.3685 165.109 63.9503 163.635C63.5122 162.141 63.0144 160.646 62.4966 159.152C61.959 157.657 61.3815 156.163 60.7443 154.649C60.4256 153.892 60.0871 153.154 59.6888 152.377C59.5096 152.019 59.1512 151.461 58.8126 151.182C58.5139 150.863 58.1754 150.584 57.8369 150.285C55.1088 148.093 52.1018 146.738 49.2542 145.085L47.1235 143.869L45.2317 142.734L44.8932 142.514L44.7338 142.415V142.235L44.5944 141.458C44.455 140.661 44.3356 139.864 44.2758 139.067C43.559 132.711 44.3157 126.335 46.2075 120.736C47.1832 117.927 48.1988 115.237 49.3737 112.786C49.9711 111.551 50.5884 110.395 51.2654 109.299L51.5243 108.881L51.6837 108.642L52.0022 108.223C52.1416 107.825 52.5996 108.084 52.8983 108.104C54.0533 108.223 55.2083 108.323 56.3633 108.443C57.6576 108.562 58.9919 108.721 60.4456 108.761C61.8793 108.781 63.5321 108.841 65.404 108.004C66.32 107.566 67.1763 106.888 67.7936 106.131C68.4309 105.354 68.8291 104.557 69.2075 103.76C69.8248 102.206 70.2031 100.692 70.4421 99.2172C70.5815 98.5597 70.7209 97.5435 70.7209 96.7465C70.7408 95.9097 70.7209 95.1326 70.6412 94.3555C70.3824 91.2671 69.785 88.378 69.1477 85.4689C68.8092 84.0343 68.4508 82.5798 68.0923 81.1452C67.8135 80.0493 67.5148 78.9734 67.2361 77.8775C67.1962 77.8775 67.2958 77.7779 67.3356 77.7181L67.5546 77.4591C68.0126 76.9211 68.4308 76.3831 68.9287 75.8651C69.8646 74.809 70.8403 73.7929 71.8559 72.8165C73.8871 70.8439 76.1174 69.0507 78.4473 67.4368C79.6222 66.6398 80.7971 65.8627 82.0317 65.1852C82.6491 64.8465 83.2464 64.5078 83.8837 64.2089L84.5209 63.91C84.5209 63.91 84.6006 63.9897 84.6404 63.9897C84.7001 64.0296 84.6006 63.9499 84.7798 64.0894L85.3175 64.4879C86.0144 65.0059 86.6915 65.4841 87.3287 65.9623C88.643 66.8988 89.8577 67.7755 91.3512 69.0108C93.024 70.2462 95.553 71.5812 98.5998 71.9797C101.846 72.3383 104.514 71.4417 106.804 70.824C108.835 70.1266 110.408 69.4691 111.563 69.2101C112.659 68.8714 113.834 68.4529 115.128 67.7556C116.382 67.0582 117.577 66.2811 118.792 65.2649C121.221 63.2724 123.233 60.5427 124.925 57.9923L126.2 56.0795L126.797 55.1829V55.1032C126.797 55.1032 126.897 55.0235 126.976 55.0235C126.996 55.0235 126.976 55.0235 127.056 55.0235L127.574 55.1629L128.629 55.4618C131.417 56.2987 134.026 57.275 136.296 58.331C139.641 59.8852 142.529 61.26 145.217 62.7345C146.571 63.4717 147.846 64.2488 149.12 65.0856C150.733 66.301 150.634 65.9822 150.594 66.4007C149.857 70.1466 149.319 72.159 148.921 74.4305C148.722 75.5662 148.523 76.8215 148.363 78.4752C148.264 80.129 148.125 82.3009 148.762 85.1501C149.339 88.3381 150.972 91.1874 152.844 93.5187C154.756 95.8698 156.787 97.9022 159.117 99.795C161.427 101.668 163.976 103.242 166.505 104.597L170.288 106.609L170.906 106.928C171.005 107.008 171.224 107.008 171.244 107.167C171.324 107.526 171.364 107.606 171.523 108.443C172.578 113.862 173.156 119.521 172.499 124.94C172.339 126.295 172.06 127.61 171.662 128.866C171.563 129.184 171.483 129.503 171.344 129.802C171.184 130.141 171.224 130.161 171.105 130.32L169.731 131.376C167.441 133.13 165.131 134.883 162.821 136.636C161.964 137.314 160.71 138.33 159.097 139.625C158.24 140.303 157.285 141.06 156.249 141.897C156.03 142.016 155.97 142.275 155.851 142.455L155.572 142.973C155.413 143.252 155.253 143.55 155.114 143.829C154.795 144.407 154.457 145.025 154.118 145.643C153.421 146.898 152.665 148.213 151.928 149.667C151.53 150.425 151.211 151.062 150.793 152.039C150.434 152.537 150.574 153.254 150.614 153.732C150.634 154.171 150.673 154.609 150.713 155.047C151.032 158.594 151.789 162.32 152.685 166.145C153.123 168.058 153.581 170.011 153.999 171.983L154.278 173.398L154.377 173.956C154.377 173.956 154.437 174.155 154.397 174.235L154.198 174.434C153.76 174.893 152.924 175.749 152.187 176.427C149.2 179.296 145.914 182.026 142.33 184.277C140.557 185.393 138.606 186.429 136.754 187.166C135.858 187.166 134.763 186.768 133.747 186.589C132.711 186.349 131.696 186.13 130.68 185.891C126.598 185.014 122.595 183.978 118.792 183.301C116.88 183.022 114.989 183.381 113.137 183.58C111.305 183.799 109.532 183.998 107.8 184.217C106.127 184.457 104.614 185.034 103.259 185.752C101.905 186.429 100.85 187.425 99.5954 188.282C94.7764 191.51 90.9529 193.463 89.101 194.598C88.6828 194.857 88.3642 195.037 88.1452 195.196C86.7114 195.575 85.3573 195.794 84.0828 195.874C82.211 195.814 79.8213 195.316 77.3919 194.319C72.3538 192.247 66.8975 188.402 64.3088 184.616L64.2291 184.536Z" fill="#063312"/>
<path d="M82.3904 154.609C83.2865 155.605 84.2822 156.462 85.258 157.378C86.2735 158.235 87.4684 158.912 88.5835 159.669C89.7983 160.267 91.0527 160.825 92.3272 161.303C93.2432 161.622 94.0199 161.662 94.7169 161.722C95.4138 161.821 96.071 161.841 96.8277 162.1C97.684 162.26 98.7792 162.439 99.8744 162.24C100.97 162.06 102.105 161.921 103.061 161.742C103.897 161.443 104.574 161.263 105.092 161.403C106.087 161.542 107.183 161.283 108.338 160.885C109.513 160.546 110.668 159.928 111.803 159.251C112.977 158.633 114.033 157.816 115.068 157.079C116.124 156.382 117.06 155.625 117.976 155.047C119.35 154.21 120.345 153.234 121.261 152.237C122.217 151.281 122.994 150.225 123.89 149.129C125.085 147.973 125.623 147.316 126.16 146.539C126.678 145.742 127.335 144.905 128.271 143.012C133.508 135.441 136.117 126.156 136.615 116.671C136.575 115.775 136.515 114.001 136.097 111.67C135.679 109.359 134.902 106.45 133.349 103.6C131.796 100.771 129.326 97.9815 126.18 96.4871C124.089 95.451 121.799 95.0127 119.629 94.9928C115.208 94.674 109.931 96.0488 103.977 99.715C101.009 101.528 98.1021 103.939 95.374 106.729C92.3471 108.96 89.161 112.328 86.4726 116.313C83.5255 120.616 81.116 125.598 79.4831 130.34C78.5471 132.751 78.8458 135.162 78.1688 137.134C77.1731 141.299 77.432 146.599 80.0804 151.301C80.7376 152.457 81.5142 153.572 82.3904 154.589V154.609ZM129.565 128.028C128.729 130.539 127.594 132.97 126.319 135.361C125.085 137.752 123.691 140.023 122.078 142.135C118.892 146.379 114.989 150.086 110.568 152.736C106.167 155.406 101.089 156.721 96.4294 156.083C95.3142 155.744 94.0996 155.645 93.0641 155.067C92.7255 154.907 92.387 154.768 92.0485 154.628C86.6917 139.426 100.273 116.512 114.829 107.565C119.728 104.557 124.169 103.082 128.072 102.823C130.043 105.493 131.178 109 131.557 112.607C132.094 117.687 131.258 123.007 129.565 128.009V128.028Z" fill="#063312"/>
<path d="M94.3584 24.5977C93.761 26.4308 94.5376 28.1842 95.0752 29.9575C95.0752 30.3161 95.6727 30.3161 95.3939 30.6947C95.2545 31.0534 95.7324 31.3722 95.832 31.7109C95.9714 31.8304 96.0311 31.95 95.8519 32.0895C95.0952 33.006 96.5887 33.7831 96.4891 34.6399C96.4493 35.2576 96.8874 35.5963 97.1263 36.0745C97.1861 36.7121 97.1861 36.7121 97.7238 37.3696C97.9826 39.1031 99.3766 40.5377 99.6952 42.3309C100.074 42.9287 101.647 45.9175 103.061 48.0494C104.474 50.1814 105.669 51.4367 105.55 48.4878C102.762 40.0396 100.99 31.1331 97.8831 22.7446C97.7237 22.2664 97.2259 20.1544 96.6484 18.2416C96.3497 17.2852 96.0311 16.3885 95.7324 15.7709C95.4138 15.1532 95.0155 14.8742 94.7965 15.0536C94 15.2727 94.1194 16.6077 94.0597 17.3449C93.2632 19.178 94.1394 21.3499 94.1194 23.3424C94.0398 23.8604 94.6969 24.1394 94.3783 24.6176L94.3584 24.5977Z" fill="#063312"/>
<path d="M223.338 81.563C223.179 80.8258 221.804 80.9254 221.028 80.786C219.196 79.8694 216.866 80.6066 214.795 80.4273C214.257 80.3078 213.939 80.9852 213.441 80.6066C211.569 79.8694 209.697 80.5469 207.825 80.9852C207.467 80.9454 207.407 81.583 207.049 81.2642C206.69 81.1048 206.332 81.563 205.973 81.6627C205.834 81.7822 205.714 81.842 205.575 81.6627C204.679 80.8059 203.763 82.3003 202.887 82.1409C202.249 82.0612 201.871 82.4995 201.353 82.7187C200.696 82.7187 200.696 82.7386 199.959 83.2567C198.147 83.4161 196.554 84.771 194.682 84.9702C194.045 85.309 190.839 86.7834 188.529 88.0985C186.239 89.4334 184.845 90.6289 187.912 90.6887C196.853 88.3774 206.232 87.1022 215.133 84.4123C215.631 84.2928 217.862 83.8943 219.893 83.3961C220.908 83.1371 221.864 82.898 222.501 82.5593C223.139 82.1807 223.457 81.7623 223.298 81.563H223.338Z" fill="#063312"/>
<path d="M129.068 224.505C129.147 224.246 128.57 224.187 128.908 223.948C129.107 223.708 128.709 223.43 128.669 223.17C128.57 223.071 128.53 222.971 128.709 222.892C129.585 222.294 128.311 221.596 128.55 220.979C128.709 220.52 128.331 220.261 128.191 219.883C128.251 219.425 128.251 219.425 127.853 218.887C127.913 217.611 126.857 216.436 126.897 215.121C126.379 214.204 123.193 205.856 122.496 210.159C123.631 216.516 123.711 223.151 125.105 229.507C125.164 229.865 125.244 231.439 125.463 232.894C125.662 234.329 126.08 235.604 126.618 235.365C127.435 235.265 127.554 234.289 127.733 233.751C128.809 232.495 128.371 230.842 128.769 229.387C128.928 229.009 128.351 228.769 128.769 228.431C129.665 227.155 129.247 225.821 129.028 224.486L129.068 224.505Z" fill="#063312"/>
<path d="M47.6213 165.587C46.4663 164.511 44.8732 164.91 43.4594 164.591C43.1009 164.451 42.8818 165.009 42.5433 164.651C41.2489 163.874 39.9546 164.392 38.7 164.75C38.4412 164.711 38.4611 165.268 38.1823 164.989C37.9234 164.85 37.7044 165.248 37.4654 165.328C37.3858 165.448 37.3061 165.488 37.1866 165.328C36.4697 164.591 35.9918 165.906 35.3745 165.806C34.9165 165.747 34.7173 166.145 34.3987 166.344C33.9407 166.384 33.9407 166.404 33.5225 166.862C32.2879 167.102 31.4714 168.357 30.2368 168.696C29.8784 169.054 28.0264 170.588 26.9511 172.043C25.8559 173.497 25.4178 174.673 27.3494 174.255C29.7788 172.661 32.507 171.465 35.2948 170.549C38.0827 169.612 40.9304 168.915 43.7581 168.118C44.0767 168.058 45.5104 167.918 46.8048 167.759C48.0992 167.58 49.2741 167.361 49.0949 166.783C49.055 165.946 48.139 165.786 47.6412 165.587H47.6213Z" fill="#063312"/>
<path d="M47.7806 88.4974C48.159 88.7564 49.7919 89.9718 51.3651 90.9681C52.1417 91.4662 52.9183 91.9245 53.4958 92.1835C54.0534 92.4824 54.5711 92.3628 54.6109 92.1237C55.0291 91.5061 54.1729 90.5895 53.7547 90.0316C53.2369 88.2384 51.3053 87.2222 50.1304 85.7677C49.8715 85.3492 49.2343 85.5684 49.1746 85.0105C48.4975 83.3368 46.9045 82.5398 45.4508 81.6232C45.2517 81.3642 44.8135 81.7428 44.7936 81.2845C44.6741 80.9458 44.1564 81.0056 43.8776 80.8262C43.6984 80.8262 43.5988 80.7665 43.6387 80.5672C43.6387 79.4514 42.1053 79.7901 41.6473 79.1127C41.3088 78.6345 40.791 78.6743 40.333 78.4751C39.9148 78.0567 39.9148 78.0567 39.1382 77.8973C37.9235 76.8014 36.0516 76.642 34.7771 75.5461C33.5226 75.1675 23.0481 70.8039 26.8118 74.8089C33.9209 79.0928 40.5521 84.3729 47.8006 88.4775L47.7806 88.4974Z" fill="#063312"/>
<path d="M202.986 175.45C202.727 175.072 202.15 175.391 202.07 174.853C201.373 173.279 199.84 172.761 198.446 172.063C198.247 171.824 197.848 172.282 197.809 171.844C197.689 171.525 197.191 171.665 196.932 171.545C196.773 171.545 196.674 171.545 196.693 171.326C196.654 170.19 195.22 170.808 194.782 170.21C194.443 169.792 193.965 169.911 193.527 169.792C193.129 169.433 193.109 169.453 192.372 169.413C191.177 168.536 189.425 168.656 188.19 167.779C187.593 167.68 184.805 166.982 182.635 166.703C181.559 166.544 180.623 166.524 180.225 166.703C179.827 166.863 179.867 167.381 180.783 168.238C184.148 169.891 187.454 171.704 190.759 173.538C194.085 175.351 197.41 177.144 200.895 178.599C201.274 178.798 202.847 179.714 204.36 180.472C205.117 180.85 205.854 181.189 206.411 181.328C206.969 181.488 207.427 181.328 207.447 181.069C207.825 180.372 206.949 179.635 206.551 179.117C205.993 177.403 204.141 176.706 202.986 175.43V175.45Z" fill="#063312"/>
</svg>
