<svg width="250" height="250" viewBox="0 0 250 250" fill="none" xmlns="http://www.w3.org/2000/svg">
<rect width="250" height="250" fill="#DEECDC"/>
<path d="M201.296 144.465C199.511 141.699 197.151 139.606 194.752 137.821C192.315 136.035 189.705 134.595 187.018 133.423C186.423 133.135 184.849 132.367 182.7 131.618C180.57 130.831 177.883 130.101 175.215 129.736C172.548 129.371 169.899 129.371 168.038 129.775C167.04 129.986 166.291 130.216 165.869 130.428C166.79 128.891 167.827 126.491 168.46 124.897C170.014 122.171 171.262 118.426 172.125 114.413C173.008 110.399 173.507 106.117 173.949 102.238C174.236 100.261 173.584 98.4555 173.949 96.8233C174.256 93.4629 173.699 89.392 171.377 85.7435C170.225 83.9577 168.709 82.3255 166.79 81.0773C164.89 79.8291 162.568 79.0418 160.227 78.9458C158.538 78.773 157.751 79.5603 156.408 79.4259C154.892 79.4835 153.068 80.6932 151.725 81.5189C151.169 81.9798 150.708 82.3255 150.266 82.3831C148.712 82.8247 147.1 84.4185 145.929 86.1659C144.72 87.9326 143.837 89.872 142.878 91.2546C141.477 93.3285 141.074 95.1335 140.268 97.0921C139.078 99.2812 139.097 99.3004 138.08 102.315C136.487 105.388 135.182 108.71 133.858 111.916C132.534 115.085 130.96 118.196 128.427 120.308C127.64 121.191 124.819 123.745 120.136 124.648C117.852 125.147 115.223 125.243 112.613 124.974C110.445 124.744 108.276 124.244 106.28 123.668C106.856 122.151 107.374 119.789 107.528 118.234C107.873 116.871 107.988 115.238 107.7 113.491C107.374 111.744 106.606 109.939 105.301 108.402C104.38 107.289 103.133 106.348 101.693 105.791C100.331 103.794 97.6248 102.354 95.7441 100.568C95.2643 100.011 94.4198 100.184 94.1895 99.5117C92.7886 97.3802 90.2937 96.1896 87.9908 94.8647C87.6453 94.519 87.108 94.9031 86.9736 94.3654C86.7241 93.9429 85.9757 93.9237 85.5343 93.6741C85.2848 93.6357 85.1313 93.5589 85.1121 93.3285C84.805 91.9843 82.7132 92.1763 81.8879 91.3122C81.2738 90.6977 80.5445 90.6593 79.8345 90.3521C79.1244 89.776 79.1244 89.7952 77.9729 89.488C75.9386 88.0094 73.271 87.5101 71.1408 86.0123C70.2196 85.6667 65.7481 83.7848 62.3512 82.6135C58.9543 81.4421 56.613 80.9813 59.8371 83.6696C71.0065 89.968 81.7344 97.4954 93.1148 103.563C93.4987 103.794 94.7077 104.562 96.1662 105.464C95.3602 105.656 94.5734 105.887 93.8633 106.194C92.0017 106.905 91.0038 108.441 89.622 109.036C84.3828 112.3 80.0456 118.215 76.7639 124.321C76.0346 125.358 76.3225 126.241 75.478 126.971C74.768 127.874 74.4034 129.544 73.8852 130.754C73.7317 131.33 73.5973 131.772 73.2711 131.983C71.3327 133.884 71.0832 138.493 69.9893 141.219C69.1833 143.274 69.1449 144.945 68.8379 146.903C68.2429 149.131 68.2429 149.15 68.0894 152.088C66.842 158.425 67.3601 164.992 67.0723 171.521C67.1107 172.155 67.2066 173.364 67.3217 174.997C67.4753 176.629 67.7056 178.722 68.3581 180.949C68.6268 181.89 69.0298 182.87 69.4904 183.81C67.4945 182.197 64.8845 180.738 62.9078 179.029C62.2745 178.376 61.2765 178.472 60.9311 177.704C59.0503 175.227 56.0373 173.576 53.2546 171.694C52.8323 171.252 52.199 171.578 52.0263 170.964C51.7192 170.446 50.8364 170.311 50.3183 169.946C50.0304 169.85 49.8385 169.735 49.8193 169.485C49.4547 167.949 46.979 167.719 46.0578 166.547C45.3477 165.722 44.5033 165.511 43.6781 164.992C42.8721 164.186 42.8721 164.186 41.5287 163.552C39.2065 161.401 36.1743 159.98 33.8713 157.618C33.334 157.234 31.8946 156.178 30.0715 154.834C28.3826 153.528 26.3291 151.973 24.3524 150.456C20.7829 147.671 18.3072 145.943 21.4162 150.379C24.2373 153.413 27.116 156.428 30.1674 159.289C33.1804 162.169 36.2894 165.011 39.5136 167.7C45.9235 173.115 52.8323 177.992 60.1634 181.986C60.9502 182.466 64.4047 184.636 67.7248 186.345C70.4883 187.805 73.1367 188.918 73.8468 188.803C75.2478 189.686 76.8023 190.205 78.2608 190.166C80.4294 190.128 82.195 189.072 83.1162 187.997C83.6535 187.382 83.9222 186.787 84.0374 186.288C86.5706 188.4 89.1614 190.455 91.8674 192.375C97.4137 196.292 103.363 199.748 109.639 202.494C115.914 205.24 122.42 207.333 128.983 208.966C132.265 209.791 135.585 210.463 138.886 211.078C140.537 211.385 142.206 211.635 143.857 211.904L146.332 212.288L148.981 212.576C149.768 212.614 151.898 212.864 154.7 212.614C157.482 212.384 160.956 211.52 163.873 209.715C165.332 208.812 166.617 207.698 167.654 206.546C168.652 205.356 169.439 204.165 169.899 203.071C170.36 202.11 170.533 201.285 170.59 200.689C171.646 200.593 172.701 200.459 173.757 200.229C175.657 199.825 177.537 199.115 179.226 198.27C180.953 197.406 182.623 196.292 184.062 194.833C184.389 194.525 185.31 193.681 186.231 192.336C187.171 190.992 187.958 189.053 188.15 187.152C188.361 185.385 188.15 183.772 187.805 182.639C188.764 182.236 189.666 181.737 190.53 181.141C192.276 179.932 193.677 178.299 194.656 176.514C194.905 176.129 195.539 175.073 196.095 173.633C196.633 172.174 197.036 170.292 197.036 168.468C197.036 166.643 196.633 164.896 196.076 163.763C195.903 163.379 195.731 163.11 195.577 162.88C195.865 162.784 196.153 162.688 196.441 162.573C198.053 161.92 199.588 160.979 200.893 159.635C202.198 158.329 203.234 156.524 203.618 154.623C204.06 152.722 203.868 150.782 203.407 149.092C202.927 147.403 202.179 145.886 201.296 144.503V144.465ZM198.149 150.533C197.784 151.281 197.957 151.992 198.053 152.741C198.149 153.471 198.149 154.354 197.65 154.815C196.978 155.468 196.709 156.255 195.923 156.927C194.829 157.426 194.886 157.445 193.485 158.29C190.069 159.02 185.598 159.251 181.318 158.194C180.493 158.137 178.055 157.887 175.1 157.33C172.125 156.793 168.652 155.909 165.715 155.026C162.779 154.143 160.4 153.279 159.478 153.183C158.576 153.087 159.056 153.874 162.184 155.89C167.308 158.406 172.72 160.422 178.324 161.824C181.145 162.515 183.928 163.072 186.883 163.437C189.244 163.705 191.854 163.782 194.483 163.129C194.387 163.936 194.637 165.165 194.522 165.952C194.099 167.239 193.888 168.641 193.485 170.042C193.101 171.444 192.507 172.846 191.624 173.844C191.125 174.286 191.278 175.131 190.568 175.246C189.474 175.745 188.592 176.302 187.651 176.84C186.692 177.378 185.655 177.935 184.504 178.242C184.082 178.242 183.966 178.895 183.544 178.568C183.122 178.395 182.604 178.856 182.143 178.914C181.951 179.029 181.779 179.048 181.644 178.856C180.761 177.877 179.207 179.106 178.132 178.568C177.384 178.223 176.75 178.434 176.04 178.338C175.234 177.935 175.234 177.973 174.006 177.877C171.646 176.782 168.786 176.629 166.31 175.381C165.255 175.112 160.822 173.979 156.6 172.903C152.877 172.059 150.382 171.482 154.086 174.19C157.271 175.63 160.399 177.032 163.547 178.434C166.733 179.855 169.88 181.257 173.277 182.505C176.866 183.849 180.915 184.348 184.868 183.503C185.271 183.407 185.674 183.311 186.077 183.177C186.077 183.599 186.039 184.002 185.981 184.329C185.463 185.577 185.137 186.979 184.542 188.285C183.947 189.59 183.045 190.8 181.932 191.549C181.356 191.875 181.222 192.682 180.531 192.663C179.322 192.912 178.209 193.316 177.038 193.815C175.829 194.295 174.678 194.833 173.43 195.178C172.97 195.178 172.835 195.812 172.394 195.524C171.933 195.39 171.396 195.85 170.897 195.927C170.686 196.042 170.513 196.081 170.36 195.908C169.362 195.044 167.788 196.311 166.617 195.908C165.792 195.639 165.14 195.908 164.353 195.908C163.47 195.658 163.489 195.678 162.28 195.754C159.728 194.986 156.888 195.236 154.354 194.141C153.855 194.045 152.358 193.757 150.554 193.2C148.75 192.663 146.62 191.875 144.816 191.184C141.189 189.821 138.771 189.053 142.245 192.048C145.219 193.892 148.386 195.697 151.821 197.099C155.295 198.5 158.749 199.364 162.319 200.152C164.622 200.613 167.001 200.785 169.4 200.689C169.208 200.997 168.997 201.342 168.748 201.707C168.018 202.802 167.059 203.992 166.272 204.684C164.315 206.028 161.896 207.372 159.152 208.198C156.389 208.985 153.356 209.177 150.689 208.735C149.365 208.486 148.04 208.831 147.042 208.255C142.59 206.354 137.063 205.644 131.785 204.396C130.864 204.05 130.212 204.53 129.521 203.954C128.715 203.551 127.39 203.531 126.393 203.263C125.932 203.224 125.567 203.147 125.375 202.898C123.783 201.458 120.194 201.573 118.083 200.517C116.547 199.71 115.242 199.614 113.765 199.134C112.153 198.308 112.153 198.328 109.888 197.713C105.397 195.428 100.408 193.757 96.1087 190.666C95.6673 190.416 94.8037 189.936 93.6714 189.302C92.5583 188.611 91.1765 187.747 89.622 186.806C86.5898 184.847 83.0586 182.409 80.1224 180.258C77.8962 178.645 75.977 177.262 74.7488 176.494C73.4246 175.4 72.1963 174.382 71.1984 173.576C71.1984 165.971 71.7358 158.29 73.0983 150.84C74.5185 143.044 76.879 135.459 80.4102 128.488C82.1758 124.993 84.2293 121.671 86.5706 118.58C87.2231 117.696 87.9332 116.832 88.6433 116.007C91.5795 119.309 98.0662 123.572 102.403 124.667C105.781 126.241 109.389 127.547 113.304 128.085C118.121 128.719 123.341 128.258 127.947 125.723C130.231 124.436 132.227 122.67 133.781 120.711C135.355 118.753 136.564 116.64 137.658 114.566C139.73 110.399 141.534 106.405 143.473 102.315C145.43 98.2443 147.158 94.0966 149.46 90.7745C150.631 89.1039 151.917 87.6637 153.433 86.5692C154.949 85.4747 156.657 84.6874 158.346 84.4185C160.035 84.1497 161.647 84.3993 163.144 85.1674C164.641 85.9547 165.984 87.2605 166.982 88.7967C169.016 91.8691 169.688 95.9976 169.746 100.222C169.803 102.104 169.343 110.63 167.635 118.215C166.042 125.819 163.393 132.425 164.391 131.81C164.679 131.945 165.101 131.522 165.562 130.831C165.677 131.311 166.598 131.465 167.673 131.503C168.767 131.637 170.034 131.676 170.897 131.868C174.639 133.231 180.128 134.364 184.101 136.86C185.041 137.571 186.289 137.417 186.845 138.32C188.246 139.741 189.839 140.989 191.451 142.295C193.044 143.581 194.694 144.964 195.884 146.5C196.191 147.134 196.978 147.076 196.901 147.806C196.997 148.459 197.765 149.092 198.014 149.745C198.206 149.995 198.322 150.245 198.149 150.456V150.533Z" fill="#063312"/>
<path d="M105.34 75.7584C105.474 76.2385 106.184 76.2001 106.088 76.757C106.261 78.6004 107.604 79.8102 108.698 81.1927C108.794 81.5192 109.37 81.2888 109.216 81.7304C109.216 82.0953 109.753 82.2105 109.945 82.4793C110.099 82.5561 110.195 82.6329 110.08 82.8057C109.658 83.8811 111.289 84.0731 111.442 84.8988C111.577 85.4749 112.095 85.6285 112.44 86.0126C112.651 86.5694 112.671 86.5694 113.342 87.0303C114.052 88.5281 115.645 89.5458 116.317 91.1588C116.777 91.6389 118.869 94.1352 120.52 96.017C122.17 97.8797 123.571 99.0126 123.034 96.113C121.076 92.0997 119.023 88.1056 116.662 84.2843C114.321 80.4438 111.653 76.757 108.468 73.6078C108.141 73.2429 106.779 71.5147 105.32 70.1321C104.61 69.4408 103.881 68.8072 103.286 68.4615C102.691 68.1159 102.23 68.0199 102.135 68.2887C101.578 68.884 102.346 69.9401 102.653 70.593C102.825 72.5324 104.553 73.9918 105.32 75.7584H105.34Z" fill="#063312"/>
<path d="M125.011 53.9064C125.011 54.4056 125.721 54.5208 125.471 55.0393C125.164 56.8635 126.201 58.3229 127.026 59.8591C127.064 60.1856 127.678 60.0704 127.448 60.4736C127.371 60.8385 127.89 61.0305 128.043 61.3185C128.197 61.4145 128.273 61.4913 128.12 61.6642C127.506 62.6627 129.118 63.0851 129.156 63.8916C129.214 64.4869 129.713 64.6982 130.02 65.0822C130.173 65.6583 130.173 65.6583 130.807 66.1575C131.344 67.7129 132.937 68.7499 133.513 70.3437C133.973 70.8237 135.988 73.2624 137.715 74.9523C139.443 76.6229 140.824 77.5446 140.21 74.8371C136.142 67.5785 133.033 59.6671 128.676 52.5046C128.465 52.1013 127.64 50.2195 126.757 48.5681C126.316 47.7424 125.855 46.9743 125.452 46.475C125.049 45.9757 124.627 45.7837 124.416 45.9949C123.648 46.379 123.955 47.608 124.013 48.2992C123.495 50.1811 124.704 52.0053 124.972 53.868L125.011 53.9064Z" fill="#063312"/>
<path d="M163.163 55.596C162.971 56.1529 162.971 56.1529 163.221 56.921C162.779 58.4764 163.528 60.2238 163.106 61.8368C163.221 62.4705 163.528 65.6005 164.008 67.924C164.507 70.2475 165.14 71.7645 166.176 69.2298C166.848 61.0687 168.786 52.8885 169.209 44.6506C169.305 43.7481 170.725 36.7392 169.4 37.008C168.46 36.8928 168.057 38.045 167.692 38.6402C166.196 39.8692 166.157 42.0391 165.313 43.6905C165.025 44.0938 165.562 44.5738 165.044 44.8618C163.739 46.1868 163.797 47.9534 163.605 49.6433C163.451 49.9313 164.046 50.1809 163.605 50.373C163.336 50.6226 163.662 51.0642 163.624 51.3907C163.701 51.5443 163.701 51.6595 163.49 51.7171C162.415 52.1972 163.528 53.4261 163.087 54.1174C162.799 54.6359 163.087 55.0776 163.125 55.5768L163.163 55.596Z" fill="#063312"/>
<path d="M190.05 87.6066C195.097 85.7439 200.221 83.9005 205.269 81.8842C210.335 79.868 215.325 77.6789 220.027 74.9714C220.564 74.7025 222.982 73.6272 225.113 72.475C226.187 71.899 227.166 71.3037 227.838 70.8044C228.49 70.3052 228.778 69.8251 228.509 69.6331C228.087 68.8266 226.571 69.345 225.688 69.4795C223.443 69.1338 221.063 70.6316 218.741 71.0541C218.127 71.0925 217.916 71.8606 217.302 71.6301C215.095 71.4189 213.176 72.6287 211.18 73.5696C210.777 73.6272 210.834 74.2801 210.374 74.0496C209.951 73.9728 209.625 74.5489 209.241 74.7217C209.107 74.8945 208.973 74.9714 208.8 74.8177C207.648 74.1649 206.9 75.9315 205.883 75.9699C205.154 76.0275 204.808 76.5652 204.271 76.9108C203.542 77.0644 203.542 77.0836 202.793 77.7557C200.797 78.3126 199.204 80.0216 197.112 80.5977C196.441 81.0585 192.986 83.1708 190.491 84.8798C187.997 86.608 186.461 87.9906 190.012 87.5874L190.05 87.6066Z" fill="#063312"/>
<path d="M229.872 107.078C229.757 106.329 228.183 106.213 227.32 106.06C225.324 104.927 222.637 105.599 220.315 105.272C219.72 105.119 219.298 105.829 218.78 105.388C216.726 104.466 214.577 105.08 212.427 105.445C212.024 105.368 211.909 106.079 211.525 105.695C211.141 105.484 210.681 105.983 210.278 106.06C210.105 106.194 209.971 106.233 209.836 106.041C208.896 105.042 207.745 106.636 206.766 106.386C206.037 106.252 205.595 106.713 204.981 106.905C204.233 106.866 204.233 106.885 203.369 107.385C201.296 107.442 199.416 108.825 197.285 108.921C196.537 109.267 192.795 110.63 190.089 111.936C187.383 113.242 185.732 114.413 189.187 114.701C191.758 114.259 194.349 113.818 196.959 113.434C199.569 113.069 202.179 112.704 204.808 112.339C210.048 111.59 215.287 110.822 220.411 109.631C220.987 109.535 223.539 109.247 225.861 108.844C227.013 108.633 228.126 108.402 228.874 108.134C229.661 107.98 230.007 107.27 229.853 107.097L229.872 107.078Z" fill="#063312"/>
</svg>
