<svg width="250" height="250" viewBox="0 0 250 250" fill="none" xmlns="http://www.w3.org/2000/svg">
<rect width="250" height="250" fill="#DEECDC"/>
<path d="M223.589 97.8403C223.323 94.5983 222.163 91.5015 220.833 88.5982C218.052 82.8159 214.159 77.6868 210.145 73.5255C206.664 69.9206 203.109 67.0415 199.869 64.9851C197.838 63.4609 195.879 62.3963 194.09 61.9608C193.848 61.8641 193.631 61.7431 193.389 61.6463C186.933 59.2753 180.138 58.9608 173.658 58.1624C167.154 57.4366 160.746 56.7108 154.605 56.0334C148.487 55.2108 142.757 55.5979 137.921 54.5575C117.61 51.4607 93.2849 50.1059 69.6614 48.1704C65.4299 47.6382 63.0603 48.3155 59.6026 47.4446C58.6354 47.2752 57.5957 47.1542 56.4109 47.0575C55.0084 46.9365 53.5335 47.0091 52.0343 47.251C49.0602 47.7349 46.062 49.114 43.8375 51.0978C41.7822 53.1059 41.0326 55.0898 40.2588 56.1786C38.9531 58.477 38.3486 61.1866 37.6958 63.7028C37.0188 66.3883 36.4143 69.34 35.834 72.3642C34.6733 78.3885 33.6578 84.6788 32.4246 89.6869C30.6353 97.0902 30.1275 102.752 29.2329 109.598C27.903 117.534 27.8788 117.582 27.2018 127.792C26.8633 130.574 26.5731 133.381 26.3313 136.187C26.0895 138.994 25.8719 141.946 26.0896 144.994C26.2346 147.655 26.8149 150.462 27.9272 153.099C30.5869 163.696 33.4643 170.954 37.3089 175.793C38.5179 177.704 40.0412 179.543 41.9514 181.115C43.8858 182.688 46.207 183.825 48.625 184.623C58.2001 187.164 68.138 188.736 77.1087 190.502C81.6061 191.494 85.9101 191.252 89.4403 192.365C104.359 195.849 122.446 197.591 140 199.502C143.119 200.011 144.909 199.382 147.472 200.204C150.301 200.857 154.532 200.833 157.845 201.196C159.344 201.244 160.553 201.365 161.303 201.728C164.373 202.793 168.605 203.277 173.126 203.736C177.986 204.317 183.209 203.882 187.441 202.986C189.012 202.696 190.439 202.14 191.793 201.583C193.075 200.882 194.38 200.325 195.42 199.454L197.04 198.22C197.548 197.785 198.007 197.301 198.491 196.817C199.506 195.898 200.328 194.833 201.223 193.744C203.351 191.252 204.197 189.849 205.068 188.252C205.914 186.656 206.76 184.769 207.994 181.019C209.614 177.002 210.726 172.817 211.645 168.704C212.515 164.639 213.41 160.526 214.304 156.389C216.07 148.115 217.81 139.768 219.769 131.373C220.277 128.179 222.114 118.768 223.227 107.082C223.348 105.631 223.493 104.131 223.565 102.606C223.614 101.856 223.638 101.082 223.686 100.308C223.686 99.8967 223.759 99.5822 223.734 99.0741L223.589 97.8644V97.8403ZM206.518 145.091C205.575 147.026 203.883 149.276 203.23 150.22C199.434 155.688 194.864 161.131 190.342 166.236C189.955 166.671 189.423 167.131 188.771 167.712C187.828 168.535 185.361 167.93 184.37 167.204C183.959 169.986 183.378 170.543 182.822 171.486C182.677 171.704 182.484 171.897 182.29 172.115C182.097 172.236 181.904 172.357 181.662 172.526C180.67 173.107 179.268 173.76 176.753 173.954C175.496 174.051 173.924 174.002 172.038 173.978C171.095 173.978 170.055 173.978 168.943 173.978C167.855 173.978 166.936 173.954 165.848 173.954C152.017 173.543 137.631 171.946 123.461 170.591C109.244 169.115 95.0017 167.47 80.8082 165.607C73.7477 164.639 66.5421 163.696 59.7235 162.413C56.2899 161.712 52.7114 160.938 49.302 160.139C45.8927 159.341 42.4833 158.422 39.6301 157.139C38.2035 156.51 36.9945 155.736 36.2208 154.938C35.3261 153.994 34.4557 152.712 33.8754 151.429C32.6664 148.841 32.3279 145.744 32.4004 142.405C32.473 139.115 32.9082 135.486 33.2467 131.929C33.6094 128.373 34.0205 124.816 34.4799 121.284C36.2692 107.106 38.9048 93.0498 41.9998 79.0416L44.3935 68.5415L45.6267 63.219C46.0136 61.477 46.3763 59.8802 46.884 58.6463C47.4402 57.364 47.948 56.6624 48.8668 55.985C49.834 55.2833 51.043 54.7753 52.3487 54.5092C53.0015 54.364 53.7027 54.2914 54.3798 54.2672C55.1293 54.2672 55.6371 54.2672 56.6285 54.3882L62.0206 54.8721C90.7461 57.5092 119.496 59.1302 148.052 61.0899C151.219 61.3318 159.755 62.0334 170.708 63.0254C173.441 63.2915 176.318 63.5576 179.316 63.8479C182.266 64.1383 185.216 64.477 188.094 65.1061C190.947 65.7351 193.679 66.6545 195.759 68.1303C196.798 68.8561 197.693 69.727 198.467 70.719C198.588 70.8641 198.684 71.0577 198.781 71.2271C199.434 72.9207 199.893 74.6384 200.208 76.3803C200.28 78.219 200.208 80.2272 200.038 82.1869C199.797 85.1627 199.434 88.1143 199.071 90.945C198.322 96.5822 197.693 101.905 197.306 106.211C196.581 113.615 196.242 118.381 196.532 118.623C195.831 122.953 194.985 127.599 193.945 132.389C195.71 133.574 197.475 134.808 199.289 135.849C201.683 137.3 203.109 138.147 204.85 139.042C207.486 140.421 207.341 143.494 206.567 145.091H206.518Z" fill="#063312"/>
<path d="M52.0583 82.7675C70.4349 84.6305 88.9565 86.7595 107.502 88.816C126.048 90.8725 144.618 92.9048 163.14 94.3564C167.226 94.7677 199.192 98.5419 197.378 96.7999C197.523 95.6628 192.131 94.816 189.302 94.1628C183.161 91.8644 173.465 91.0902 165.679 89.4692C163.72 88.9611 161.81 89.5176 160.311 88.7434C153.879 86.5902 145.996 86.0579 138.332 85.3079C136.977 85.0175 136.155 85.7434 135.067 85.0901C133.858 84.6546 131.972 84.945 130.521 84.7998C129.869 84.8482 129.337 84.824 129.022 84.5337C126.435 82.8885 121.406 84.0498 118.166 83.2514C115.772 82.695 113.91 82.9611 111.686 82.8643C109.122 82.4047 109.122 82.4288 105.81 82.5256C98.6527 81.4369 91.2295 81.9692 83.8063 80.9046C81.0015 80.8805 67.1707 80.3724 56.991 80.2998C51.9133 80.2998 47.7302 80.2998 46.3036 80.6627C44.8769 81.0256 46.1827 81.582 52.0583 82.7675Z" fill="#063312"/>
<path d="M123.582 107.276C120.535 105.122 115.457 104.566 111.468 103.114C110.476 102.655 109.413 103.235 108.687 102.509C105.471 100.501 101.337 100.163 97.3227 99.5819C96.6215 99.3158 96.1137 100.042 95.606 99.4367C95.0015 99.0254 93.9617 99.3642 93.2121 99.2432C92.8494 99.3158 92.5834 99.2916 92.4384 99.0012C91.2294 97.4286 88.4245 98.6867 86.7803 97.9609C85.5471 97.4528 84.5316 97.7674 83.371 97.719C82.0653 97.3319 82.0411 97.3561 80.276 97.5012C76.5765 96.5819 72.5626 97.2593 68.7181 96.3641C67.2189 96.3883 59.8925 96.1948 54.4763 96.3641C51.7681 96.4609 49.5436 96.5818 48.7457 96.9447C47.9477 97.3318 48.6006 97.8642 51.5989 98.9045C61.1982 100.356 70.8701 102.074 80.542 103.719C90.2139 105.34 99.9341 106.985 109.63 108.026C111.758 108.364 128.418 111.413 127.644 109.719C127.838 108.606 125.057 107.856 123.606 107.276H123.582Z" fill="#063312"/>
<path d="M117.465 144.559C114.418 142.405 109.34 141.849 105.351 140.397C104.359 139.938 103.295 140.518 102.57 139.793C99.354 137.784 95.2193 137.446 91.2055 136.865C90.5043 136.599 89.9965 137.325 89.4888 136.72C88.8843 136.309 87.8445 136.647 87.0949 136.526C86.7322 136.599 86.4662 136.575 86.3212 136.284C85.1122 134.712 82.3073 135.97 80.6631 135.244C79.43 134.736 78.4144 135.051 77.2538 135.002C75.9481 134.615 75.9239 134.639 74.1588 134.784C70.4593 133.865 66.4455 134.542 62.6009 133.647C61.1017 133.672 53.7753 133.478 48.3591 133.647C45.6509 133.744 43.4264 133.865 42.6285 134.228C41.8306 134.615 42.4834 135.147 45.4817 136.188C55.081 137.639 64.7529 139.357 74.4248 141.002C84.1209 142.623 93.8169 144.268 103.513 145.309C105.641 145.647 122.301 148.696 121.527 147.002C121.72 145.889 118.94 145.139 117.489 144.559H117.465Z" fill="#063312"/>
<path d="M71.1847 119.688C77.9792 120.873 84.7978 122.034 91.6407 122.615C93.1398 122.857 104.819 125.107 104.335 123.462C104.528 122.349 102.57 121.72 101.579 121.212C99.5233 119.204 95.9205 118.913 93.164 117.655C92.487 117.244 91.6891 117.873 91.2055 117.171C89.0051 115.333 86.0794 115.188 83.2745 114.776C82.7909 114.534 82.4041 115.308 82.0655 114.728C81.6545 114.341 80.9049 114.728 80.3729 114.655C80.107 114.752 79.9135 114.752 79.841 114.462C79.043 112.962 77.012 114.341 75.8755 113.688C75.0293 113.252 74.3039 113.591 73.4576 113.591C72.5387 113.276 72.5387 113.276 71.2572 113.518C68.67 112.768 65.7926 113.615 63.1087 112.938C62.0448 113.034 56.8461 113.179 53.0015 113.567C51.0671 113.784 49.4955 114.002 48.891 114.413C48.3107 114.825 48.7459 115.333 50.8253 116.228C57.5715 117.22 64.366 118.478 71.1605 119.663L71.1847 119.688Z" fill="#063312"/>
<path d="M65.2608 71.1056C68.0415 66.8475 64.6321 60.6297 58.7565 62.0571C54.9361 62.9765 52.3972 67.912 54.9119 71.4443C57.7893 75.5089 63.2539 74.4685 65.285 71.1056H65.2608Z" fill="#063312"/>
<path d="M82.4522 72.1945C85.2329 67.9364 81.8235 61.7185 75.9479 63.146C72.1275 64.0653 69.5886 69.0009 72.1033 72.5332C74.9807 76.5977 80.4452 75.5574 82.4763 72.1945H82.4522Z" fill="#063312"/>
<path d="M100.418 73.0655C103.199 68.8074 99.7894 62.5896 93.9137 64.0171C90.0933 64.9364 87.5544 69.872 90.0691 73.4043C92.9465 77.4688 98.4111 76.4285 100.442 73.0655H100.418Z" fill="#063312"/>
<path d="M199.99 139.671C199.482 139.308 198.732 138.8 198.394 138.582C197.378 138.026 195.444 137.203 193.026 135.872C191.793 135.147 190.39 134.348 188.891 133.453C188.118 133.042 187.344 132.606 186.522 132.147C185.7 131.687 184.805 131.227 183.935 130.816C183.137 130.429 182.339 130.066 181.517 129.679L180.453 129.122L179.897 128.808C179.945 128.638 180.042 128.469 180.09 128.276L181.081 125.88C181.492 124.937 181.879 124.017 182.218 123.074C182.556 122.106 182.895 121.187 183.233 120.243C183.644 119.348 184.031 118.453 184.442 117.533C185.143 115.937 185.821 114.025 184.878 112.574C183.935 111.146 179.123 110.783 175.52 110.517C172.086 110.275 167.807 110.082 163.503 109.985C159.561 109.138 154.774 108.775 149.672 108.848C148.269 108.896 146.867 108.945 145.416 109.09C143.917 109.308 142.563 109.429 140.774 110.3C139.903 110.759 139.129 111.388 138.622 112.259C138.138 113.106 138.041 114.122 138.09 115.09C138.162 116.711 138.259 117.921 138.38 119.3C138.549 122.009 139.879 124.308 140.048 126.509C140.798 130.84 142.176 135.534 144.377 140.179C145.465 142.501 146.722 144.727 147.979 146.905C149.237 149.106 150.518 151.332 151.776 153.534C152.96 155.663 154.435 155.953 155.693 157.502C156.781 158.421 159.029 159.631 161.012 159.05C162.632 158.615 163.914 157.429 164.784 156.171C164.978 155.832 165.147 155.542 165.316 155.203L165.63 154.598C165.824 154.235 166.017 153.969 166.235 153.8C166.936 153.002 167.492 152.203 167.976 151.235C168.024 151.235 167.976 151.235 167.928 151.042C167.928 150.873 168.024 150.8 168.145 150.824C168.193 150.824 168.169 150.824 168.266 150.873C168.508 151.066 168.725 151.235 168.943 151.405C169.354 151.744 169.862 152.155 170.104 152.445C170.902 153.413 171.893 154.477 172.86 155.397C173.876 156.34 174.916 157.308 175.955 158.276C177.116 159.582 177.745 160.236 178.518 160.889C178.905 161.227 179.34 161.566 179.921 162.074C180.719 162.8 181.855 163.816 183.62 163.816C184.95 163.961 186.207 163.453 187.223 162.558L188.214 161.639C188.359 161.494 188.553 161.324 188.674 161.179L188.916 160.889L189.931 159.728C190.584 158.953 191.237 158.155 191.914 157.356C193.195 155.76 194.501 154.139 195.831 152.518C197.112 150.872 198.466 149.348 199.7 147.437L200.885 145.768C201.368 145.09 201.707 144.437 201.827 143.663C202.069 142.09 201.296 140.566 199.99 139.671Z" fill="#063312"/>
</svg>
