<svg width="250" height="250" viewBox="0 0 250 250" fill="none" xmlns="http://www.w3.org/2000/svg">
<rect width="250" height="250" fill="#063312"/>
<path d="M61.5515 133.244C63.352 122.525 65.5802 111.76 67.7182 100.996C70.7116 101.131 73.7049 101.311 76.7207 101.537C81.0644 101.829 85.408 102.145 89.7517 102.032C90.0893 102.032 91.1921 102.145 92.475 102.257C92.475 102.437 92.4975 102.618 92.52 102.843C91.7773 106.423 92.2949 110.252 91.5747 113.967C91.6422 116.827 90.7645 142.049 93.7578 130.271C94.7256 120.971 96.1885 111.648 97.4488 102.302C97.4488 102.257 97.4488 102.212 97.4488 102.145C97.6964 102.032 97.8314 101.897 97.7639 101.694C97.7639 101.447 97.6964 101.244 97.5839 101.086C98.4841 94.6908 99.3393 88.2954 100.082 81.8999C103.57 81.6972 107.081 81.7422 110.592 81.9449C114.801 82.1926 119.01 82.598 123.218 82.8232C123.646 82.8908 125.334 83.1835 127.067 83.4762C126.167 86.1335 125.942 89.1961 125.604 92.1687C125.401 92.7992 125.987 93.2496 125.514 93.745C125.199 94.308 125.469 95.2312 125.401 95.9293C125.469 96.2446 125.446 96.5149 125.221 96.65C123.984 97.821 125.019 100.321 124.456 101.852C124.074 103 124.321 103.901 124.299 104.982C124.006 106.198 124.006 106.198 124.164 107.82C123.488 111.242 124.051 114.868 123.376 118.404C123.421 119.755 123.308 126.443 123.488 131.375C123.691 136.306 124.164 139.482 125.604 133.897C127.54 116.242 130.713 98.4065 132.288 80.6388C132.513 78.6796 134.989 63.389 133.526 64.1772C132.558 64.0421 131.973 66.6093 131.501 67.9605C129.745 70.8204 129.385 75.4819 128.26 79.175C128.125 79.5353 128.125 79.8957 128.125 80.256C126.932 79.6029 125.469 79.3327 124.254 78.7021C123.826 78.3869 123.308 78.9498 123.016 78.4094C121.62 77.0132 119.73 77.0582 117.929 76.9456C117.614 76.788 117.389 77.441 117.164 76.9906C116.894 76.7204 116.422 77.0807 116.084 77.0582C115.926 77.1483 115.791 77.1708 115.724 76.9456C115.161 75.7972 113.923 77.0808 113.158 76.6754C112.595 76.4052 112.145 76.743 111.628 76.8331C111.02 76.6754 111.02 76.6754 110.232 77.0132C108.544 76.6979 106.811 77.7338 105.056 77.4861C104.538 77.6662 102.4 78.2067 100.42 78.9048C100.577 77.3735 100.757 75.8197 100.892 74.2884C101.14 72.2166 103.773 56.1604 102.355 56.9711C101.41 56.836 100.802 59.5382 100.33 60.957C98.5741 63.9745 98.169 68.8613 97.0212 72.7571C96.6611 73.7254 97.1338 74.7162 96.5486 75.4594C94.9507 78.6346 94.7031 82.6205 94.2079 86.4713C93.9829 87.1469 94.5681 87.5972 94.0954 88.1152C93.7578 88.7007 94.0279 89.6916 93.9379 90.4122C93.9829 90.75 93.9829 91.0202 93.7578 91.1553C92.52 92.3938 93.4877 95.006 92.9251 96.6274C92.6775 97.3481 92.6775 98.0011 92.7 98.6317C91.9348 98.474 91.1471 98.3164 90.4494 98.0237C89.9993 97.776 89.5491 98.3389 89.189 97.8435C87.7036 96.6049 85.8581 96.8076 84.0577 96.7625C83.7426 96.6274 83.54 97.2354 83.2924 96.8301C83.0224 96.5824 82.5723 96.9427 82.2347 96.9427C82.0771 97.0328 81.9646 97.0553 81.8746 96.8301C81.2894 95.7492 80.0966 96.9878 79.3314 96.605C78.7688 96.3573 78.3411 96.695 77.8009 96.7625C77.2158 96.6049 77.1933 96.6049 76.4281 96.9202C74.7626 96.5824 73.0072 97.4832 71.2742 97.1904C70.9141 97.2805 69.7663 97.4832 68.3934 97.7759C69.6988 91.0652 70.9591 84.332 71.9944 77.5987C72.377 75.5495 75.9105 59.6058 74.4701 60.349C73.5473 60.1688 72.8046 62.8261 72.2419 64.2223C70.3514 67.1498 69.6312 72.0139 68.2584 75.8647C67.8307 76.8105 68.2584 77.8464 67.6282 78.5445C65.8727 81.6296 65.3776 85.6155 64.6799 89.4663C64.4323 90.1419 64.9725 90.6148 64.4773 91.1103C64.1172 91.6958 64.3198 92.6866 64.1848 93.4072C64.2073 93.745 64.1847 94.0153 63.9597 94.1504C62.7218 95.2763 63.397 97.7759 62.8569 99.3748C62.2942 99.6901 62.1142 100.028 62.5643 100.388C62.4068 101.221 62.4742 102.01 62.3842 102.865C62.0016 104.126 62.0242 104.126 62.0242 105.838C61.1014 109.396 61.349 113.247 60.4262 116.917C60.2912 119.777 57.9055 144.976 61.5515 133.356V133.244Z" fill="#92EF9A"/>
<path d="M155.74 135.407C156.415 128.178 157.338 120.927 158.238 113.654C164.337 114.059 170.481 115.005 176.626 114.847C176.941 114.847 178.156 115.027 179.484 115.117C179.439 117.347 179.484 119.621 179.079 121.873C179.124 123.292 179.101 130.295 179.416 135.452C179.731 140.609 180.272 143.919 181.735 138.064C182.68 128.854 183.94 119.576 185.29 110.321C186.641 101.065 188.059 91.7874 189.117 82.532C189.364 80.4828 192.582 64.6517 190.985 65.3948C189.927 65.2147 189.184 67.8494 188.621 69.2456C186.596 72.1506 186.078 77.0148 184.75 80.8431C184.345 81.7889 184.863 82.8023 184.188 83.5229C182.387 86.6305 182.095 90.5939 181.577 94.4447C181.329 95.1202 181.982 95.5932 181.464 96.0886C181.104 96.6741 181.397 97.6649 181.307 98.3855C181.374 98.7233 181.352 98.9936 181.104 99.1287C179.731 100.345 180.834 102.979 180.227 104.578C179.799 105.772 180.069 106.718 180.047 107.844C179.732 109.105 179.731 109.127 179.911 110.816C179.866 111.041 179.844 111.289 179.799 111.514C178.989 111.244 178.134 111.086 177.368 110.681C177.008 110.411 176.603 110.996 176.333 110.478C175.14 109.172 173.587 109.33 172.079 109.24C171.832 109.082 171.629 109.735 171.427 109.285C171.202 109.015 170.819 109.375 170.526 109.375C170.391 109.465 170.279 109.488 170.234 109.262C169.784 108.114 168.726 109.397 168.118 108.97C167.668 108.677 167.286 109.037 166.835 109.105C166.34 108.925 166.34 108.925 165.665 109.24C164.27 108.857 162.762 109.803 161.321 109.465C160.984 109.578 159.926 109.803 158.688 110.141C158.801 109.195 158.936 108.249 159.048 107.303C160.219 97.9127 161.366 88.4771 162.064 79.0866C162.289 77.0148 164.63 60.846 163.167 61.7017C162.154 61.5891 161.569 64.3139 161.096 65.7326C159.296 68.7952 158.981 73.7044 157.855 77.6228C157.495 78.5911 158.013 79.582 157.428 80.3477C155.83 83.5454 155.65 87.5538 155.245 91.4271C155.042 92.1027 155.672 92.5531 155.177 93.0936C154.84 93.7016 155.155 94.6699 155.087 95.3905C155.155 95.7283 155.155 95.9985 154.907 96.1561C153.647 97.4172 154.727 100.029 154.165 101.651C153.782 102.844 154.052 103.813 154.029 104.939C153.737 106.222 153.759 106.222 153.917 107.934C153.242 111.537 153.872 115.365 153.219 119.103C153.377 121.963 152.949 147.275 155.717 135.452L155.74 135.407Z" fill="#92EF9A"/>
<path d="M227.624 86.8323C227.624 85.4361 227.264 84.0849 227.084 82.7112C226.791 81.36 226.296 80.0539 225.891 78.7253C225.306 77.5093 224.766 76.2257 224.091 75.0547C221.39 70.3932 217.721 66.7225 214.121 63.8626C210.497 61.0026 206.851 58.9534 203.745 57.4897C202.552 56.9492 201.472 56.5213 200.437 56.1385C199.019 55.3503 197.488 54.6747 195.846 54.1343C192.29 53.0083 188.396 52.4003 184.412 52.3327C176.895 52.2202 169.311 52.2652 163.077 51.8148C153.917 51.1842 147.12 51.3869 138.815 51.2293C132.363 50.884 125.019 50.7114 116.781 50.7114C103.255 50.0583 89.6165 49.8331 75.8428 49.5854C68.9559 49.4503 62.0465 49.2926 55.1146 49.1575L49.8932 49.0224C48.0027 48.9323 46.0447 49.1125 44.1542 49.5854C42.2636 50.0808 40.4406 50.869 38.7977 52.0625C37.1547 53.1885 35.7143 54.99 34.9041 56.8141C34.2964 58.1877 33.7338 60.3046 33.3512 62.8267C32.9911 65.3264 32.4734 68.2313 31.8658 71.6768C30.6729 78.5001 29.2101 87.0124 27.5671 96.3804C24.3488 115.116 21.2428 137.455 20.1851 156.327C20.2301 157.408 20.4326 158.421 20.7477 159.412C21.1528 161.641 21.9631 165.762 23.8761 172.248C24.3262 173.554 24.7989 174.882 25.3165 176.189L26.1492 178.17C26.4868 178.868 26.6669 179.386 27.207 180.287C29.2551 183.53 32.1809 185.129 34.8816 186.367C40.3956 188.754 45.9997 189.655 51.5362 190.308C62.4516 191.367 73.2321 192.222 84.1026 192.988C105.821 194.519 127.584 195.961 149.393 197.289C160.308 197.897 171.156 198.595 182.207 198.911C184.975 198.978 187.766 199.001 190.602 198.866C193.437 198.73 196.296 198.528 199.379 197.807C200.167 197.604 200.977 197.357 201.81 197.019L203.745 196.186C205.028 195.623 206.423 194.947 207.774 194.136C210.52 192.493 213.018 190.015 214.593 187.268C217.789 181.773 218.869 176.053 219.77 170.514C220.242 167.699 220.377 165.042 220.67 162.294L221.435 154.142C222.425 143.288 223.393 132.434 224.383 121.602C224.631 119.215 225.284 112.729 226.116 104.42C226.521 100.254 226.994 95.6597 227.467 90.8631C227.624 89.7372 227.534 88.1834 227.557 86.8547L227.624 86.8323ZM23.6961 148.94C24.7764 140.496 25.7892 132.276 27.072 123.966C29.5927 107.392 32.9461 90.8857 36.1644 74.2665L38.5276 61.9034C38.9327 60.0343 39.5179 58.4354 40.3956 57.377C41.2058 56.3412 42.6687 55.3729 44.1991 54.8099C45.7521 54.2244 47.5075 53.9767 49.2405 54.0217L55.5423 54.2694L68.2357 54.7648C85.1603 55.4404 102.107 56.116 119.055 56.8141L169.918 58.7732L182.634 59.2462C186.641 59.3588 190.534 59.8992 194.158 61.0702C197.736 62.2412 200.954 64.1103 202.845 66.7451C203.88 68.0061 204.353 69.5599 204.758 71.1588C205.028 72.7352 205.118 74.7169 205.028 76.7211C204.668 84.828 203.408 93.2727 202.53 101.74C201.607 110.23 200.954 118.697 200.234 127.097C199.514 135.519 198.704 143.873 197.781 152.273C197.353 156.529 196.993 160.673 196.363 164.704C196.048 166.708 195.688 168.712 195.17 170.514C194.9 171.414 194.608 172.27 194.293 172.946C194.135 173.194 193.955 173.621 193.842 173.689C193.82 173.802 193.707 173.779 193.685 173.869C193.077 174.162 192.087 174.567 191.277 174.792C190.422 175.04 189.544 175.243 188.621 175.378C186.798 175.648 184.795 175.693 182.724 175.693C181.757 175.693 180.384 175.693 178.651 175.671C176.918 175.671 174.847 175.671 172.462 175.693C167.735 175.648 161.816 175.558 155.154 175.4C141.831 175.085 125.559 174.567 110.007 174.004C108.567 173.959 107.171 173.892 105.753 173.847C106.429 165.492 108.117 157.115 108.297 148.693C108.319 148.355 108.499 147.206 108.679 145.878C124.704 146.756 140.728 147.544 156.685 147.994C161.141 148.22 196.026 150.382 193.955 148.828C194.023 147.769 188.126 147.184 185.02 146.711C178.201 144.819 167.668 144.527 159.115 143.333C156.955 142.95 154.929 143.536 153.241 142.883C146.129 141.149 137.555 140.991 129.205 140.608C127.719 140.383 126.864 141.104 125.649 140.541C124.299 140.18 122.273 140.541 120.697 140.473C119.977 140.563 119.415 140.563 119.055 140.293C116.129 138.874 110.772 140.158 107.194 139.55C104.561 139.144 102.558 139.46 100.149 139.46C97.3587 139.144 97.3361 139.167 93.7576 139.392C85.9255 138.694 77.9134 139.482 69.8111 138.807C66.7728 138.897 51.7387 139.009 40.7107 139.37C35.1967 139.572 30.6729 139.775 29.1425 140.158C27.6121 140.563 29.075 141.013 35.5343 141.869C55.5647 142.838 75.7978 144.031 96.0308 145.157C98.8441 145.315 101.657 145.472 104.448 145.63C104.246 146.328 104.02 147.049 103.705 147.679C103.39 148.13 104.02 148.648 103.413 148.963C101.905 150.404 101.995 152.341 101.837 154.21C101.657 154.525 102.378 154.795 101.86 154.998C101.545 155.268 101.95 155.764 101.905 156.101C101.995 156.282 102.017 156.394 101.77 156.462C100.487 156.98 101.86 158.331 101.342 159.074C101.005 159.637 101.387 160.11 101.432 160.673C101.207 161.281 101.207 161.281 101.522 162.114C101.05 163.826 101.995 165.717 101.545 167.496C101.702 168.149 102.13 171.234 102.76 173.711C89.9091 173.216 77.9809 172.721 69.181 172.248C64.0271 171.955 59.9535 171.73 57.2977 171.572C56.1949 171.482 55.3847 171.46 54.8896 171.46C53.8768 171.324 52.9315 171.212 52.0088 171.077C51.8962 171.054 51.8062 171.032 51.6712 170.987C49.9157 170.604 47.44 170.063 44.0416 169.343C40.6432 168.577 36.187 167.654 31.2806 165.875C29.4801 165.244 27.7021 164.456 26.5318 163.555C26.1042 163.195 25.429 162.497 24.9564 161.844C24.4388 161.191 24.0787 160.493 23.7411 159.772C22.5032 156.957 23.0209 153.129 23.6286 148.94H23.6961Z" fill="#92EF9A"/>
</svg>
