<svg width="250" height="250" viewBox="0 0 250 250" fill="none" xmlns="http://www.w3.org/2000/svg">
<rect width="250" height="250" fill="#063312"/>
<path d="M115.128 179.586C115.559 165.363 116.987 151.05 119.322 136.85C121.612 122.65 124.74 108.609 128.254 94.7491C128.662 93.2067 130.703 86.5377 132.675 80.4584C134.579 74.3565 136.461 68.8444 135.486 69.2981C134.488 68.9125 132.811 72.8141 131.791 74.8329C128.798 79.0294 126.758 86.3335 124.468 92.0952C123.811 93.5242 124.037 95.0667 123.199 96.1328C120.66 100.806 119.435 106.885 118.188 112.76C117.826 113.781 118.37 114.507 117.758 115.278C117.304 116.185 117.372 117.66 117.191 118.794C117.191 119.316 117.146 119.724 116.874 119.951C115.355 121.833 115.967 125.848 115.173 128.321C114.607 130.158 114.72 131.633 114.561 133.357C114.108 135.33 114.13 135.33 114.085 137.939C112.974 143.474 113.314 149.303 112.476 155.065C112.476 156.199 112.43 159.375 112.407 163.367C112.407 167.314 112.521 171.987 112.77 175.934C113.02 179.881 113.382 183.102 113.768 184.168C114.153 185.257 114.607 184.191 115.151 179.609L115.128 179.586Z" fill="#92EF9A"/>
<path d="M113.813 88.4203C114.901 88.9647 115.763 88.8967 115.717 88.5337C116.216 87.6944 114.335 86.1973 113.382 85.3127C111.705 82.6133 107.828 80.8213 104.994 78.6664C104.314 78.0312 103.294 78.3034 102.886 77.5095C100.778 75.105 97.3545 73.9482 94.0899 72.8367C93.5458 72.4964 93.0017 73.0408 92.6617 72.451C92.2083 72.02 91.2787 72.1561 90.644 71.9747C90.3266 71.9747 90.0998 71.952 90.0091 71.6798C89.1477 70.1827 86.6086 70.9993 85.2257 70.2961C84.1829 69.8197 83.2987 70.0239 82.2786 69.9558C81.145 69.6383 81.1224 69.5929 79.6035 69.797C76.3616 69.0939 72.961 70.0239 69.6057 69.9331C68.971 70.0919 67.112 70.4322 64.9356 71.1127C62.7366 71.7705 60.2655 72.814 58.3159 73.9482C56.3662 75.0597 54.9833 76.2619 54.6433 76.897C54.3259 77.5549 55.0286 77.6456 57.409 77.1012C64.3008 74.1977 72.2809 73.8347 79.8982 75.0823C87.5381 76.3073 94.9513 79.1654 102.229 82.2957C103.022 82.6587 106.445 84.5414 109.596 86.2427C111.183 87.082 112.68 87.9213 113.813 88.3976V88.4203Z" fill="#92EF9A"/>
<path d="M109.256 105.139C109.755 104.3 108.032 102.893 107.171 102.054C105.674 99.4679 102.092 97.8347 99.508 95.7932C98.8959 95.2034 97.9211 95.4983 97.581 94.7271C95.6767 92.4133 92.5028 91.3699 89.4877 90.3491C88.9889 90.0315 88.4675 90.576 88.1727 90.0089C87.7647 89.6006 86.9032 89.7367 86.3138 89.5779C86.019 89.6006 85.7925 89.5779 85.7244 89.3057C84.9536 87.8312 82.5732 88.7159 81.3264 88.0127C80.3742 87.5363 79.5354 87.7859 78.6059 87.7178C77.563 87.4002 77.5403 87.3776 76.1347 87.5817C73.1422 86.9239 69.991 87.8539 66.9079 87.7632C66.3411 87.922 64.6182 88.2622 62.6006 88.9201C60.5829 89.5552 58.2932 90.5533 56.5249 91.6194C54.7339 92.6855 53.487 93.797 53.1923 94.4322C52.9202 95.0673 53.5777 95.1807 55.754 94.7271C62.0564 92.0731 69.3563 91.7328 76.3388 92.8897C83.344 94.0239 90.1224 96.6552 96.8329 99.4906C97.5583 99.8309 100.687 101.555 103.589 103.12C105.04 103.891 106.422 104.662 107.465 105.093C108.485 105.57 109.279 105.479 109.256 105.139Z" fill="#92EF9A"/>
<path d="M200.845 83.9062C202.024 84.2465 202.908 83.997 202.817 83.6794C203.18 82.8174 201.004 81.6152 199.87 80.8666C198.759 79.6417 197.036 78.8251 195.2 78.0992C193.364 77.5095 191.777 76.9877 189.578 76.2618C188.694 75.8535 187.741 76.398 187.084 75.7401C185.61 74.9462 183.91 74.5152 182.119 74.3111C180.328 74.2203 178.469 74.1296 176.633 74.2657C175.976 74.1523 175.636 74.8781 175.091 74.4472C174.479 74.1976 173.618 74.6286 172.938 74.7194C172.643 74.8555 172.394 74.9008 172.212 74.6967C170.784 73.6305 168.63 75.2865 167.043 75.1957C165.842 75.1277 165.048 75.6267 164.051 75.967C162.827 76.0804 162.804 76.1031 161.376 76.8063C157.953 77.3053 154.983 79.4376 151.65 80.4583C151.106 80.8439 149.383 81.7967 147.411 83.1123C146.481 83.7928 145.438 84.5187 144.35 85.3126C143.353 86.1292 142.378 86.9685 141.494 87.7398C139.771 89.3503 138.524 90.8247 138.252 91.4826C137.98 92.1631 138.773 92.1631 141.176 91.0516C144.509 88.7832 148.091 86.7871 151.9 85.2899C155.686 83.7475 159.608 82.5225 163.62 81.7513C165.615 81.2749 167.655 81.0708 169.673 80.7532C171.713 80.5944 173.731 80.3222 175.794 80.3222C179.875 80.1408 183.956 80.3222 188.014 80.7532C188.444 80.844 189.668 81.0027 191.187 81.3657C192.706 81.7513 194.565 82.1369 196.288 82.6813C198.057 83.135 199.689 83.6567 200.89 83.9516L200.845 83.9062Z" fill="#92EF9A"/>
<path d="M140.088 108.7C143.035 106.931 146.118 105.32 149.383 104.141C152.625 102.916 155.98 101.94 159.381 101.237C166.182 99.7627 173.142 99.3317 180.033 99.377C180.804 99.3997 184.159 99.7627 187.197 100.262C188.739 100.466 190.167 100.715 191.233 100.806C192.276 100.92 192.978 100.67 192.865 100.33C193.114 99.377 191.142 98.6058 190.122 98.0614C187.991 96.0879 184.137 95.793 181.076 94.9311C180.306 94.6362 179.535 95.2486 178.945 94.6815C176.361 93.3432 173.142 93.6608 170.081 93.9783C169.514 93.8876 169.288 94.6135 168.789 94.2052C168.267 94.001 167.565 94.4547 166.998 94.5681C166.749 94.7042 166.544 94.7723 166.386 94.5681C165.139 93.6154 163.393 95.2486 162.056 95.1579C161.058 95.1125 160.401 95.6116 159.562 95.9065C158.519 96.0199 158.519 96.0199 157.34 96.6777C154.461 97.1314 152.013 99.0141 149.179 99.808C148.703 100.126 147.252 100.92 145.552 101.986C144.736 102.53 143.851 103.12 142.899 103.755C142.038 104.413 141.176 105.093 140.406 105.706C138.887 106.999 137.776 108.224 137.549 108.836C137.322 109.449 137.98 109.539 140.088 108.723V108.7Z" fill="#92EF9A"/>
<path d="M229.772 67.8694L229.364 67.2569C229.092 66.894 228.775 66.3949 228.548 66.1454L228.004 65.4876C227.641 65.0793 227.301 64.671 226.939 64.2853C226.281 63.5368 225.624 62.8109 225.012 62.1077C223.81 60.724 222.767 59.431 221.883 58.3422C221.09 57.3668 220.455 56.5956 219.956 56.0739V55.9605L220.001 55.5521C219.888 55.5068 219.752 55.4841 219.616 55.4387L218.029 55.0304L213.2 53.8055C212.067 53.5333 210.911 53.3065 209.754 53.0569C207.465 52.5352 205.152 52.1723 202.84 51.764C200.8 51.4464 195.245 50.471 188.013 50.0627C180.804 49.6317 171.917 49.7678 163.529 51.401C155.141 52.9435 147.411 56.0285 142.446 59.1135C139.929 60.5652 138.116 62.0397 137.05 63.0151C135.962 63.9678 135.577 64.4441 136.098 64.2853C136.461 64.7617 138.796 63.2419 141.856 61.654C144.917 60.0435 148.748 58.3649 151.514 57.5483C157.658 55.9604 165.434 54.5087 173.686 54.1231C181.938 53.6694 190.598 54.2819 198.215 55.7336C202.024 56.5275 205.696 56.5275 208.621 57.7298C210.23 58.2515 211.795 58.7732 213.359 59.2723C213.608 59.363 213.676 59.3857 213.699 59.4084L213.835 59.4991L214.085 59.6352C214.243 59.7259 214.016 60.0435 214.016 60.1796C214.016 60.2477 213.994 60.2023 213.971 60.3611L213.88 61.0189L213.699 62.3572L213.359 65.0793C213.178 66.9167 212.974 68.754 212.77 70.5914C212.044 78.0316 211.523 85.7441 210.956 93.3658C210.616 96.0878 211.205 97.6076 210.593 99.8306C210.14 102.28 210.299 105.955 210.094 108.836C210.094 110.129 210.049 111.172 209.777 111.853C208.19 117.206 208.938 126.938 208.054 133.47C207.419 138.279 207.555 141.909 207.329 146.287C206.762 151.391 206.785 151.391 206.626 157.901C206.263 161.462 205.923 165.023 205.651 168.607C205.492 170.399 205.356 172.191 205.198 173.983L205.107 175.231L205.062 175.866V176.206C205.062 176.206 204.903 176.184 204.835 176.161L203.928 175.934L202.84 175.594C202.387 175.458 201.956 175.299 201.502 175.208L196.084 173.847L190.598 172.713C188.762 172.396 186.925 172.078 185.044 171.76C182.255 171.511 173.912 170.558 163.779 171.284C153.69 171.942 141.811 174.12 132.539 177.976C123.176 181.651 116.624 186.618 114.765 188.569C113.79 189.499 113.926 189.681 115.513 188.887C116.307 188.478 117.44 187.843 118.982 186.936C120.614 186.165 122.609 185.053 125.216 183.919C133.128 180.108 141.811 177.681 150.653 176.343C159.494 175.027 168.562 174.755 177.54 175.526C182.029 175.957 186.494 176.547 190.893 177.477C193.092 177.953 195.291 178.407 197.444 179.065L200.686 179.972L205.47 181.628L205.764 181.719C206.172 182.603 206.785 183.942 207.737 185.983L209.528 189.068C210.14 190.066 210.752 191.064 211.364 192.017C210.888 191.813 210.435 191.631 210.049 191.473C206.082 188.796 199.258 187.798 193.794 186.346C192.412 185.892 191.051 186.414 189.986 185.756C185.429 183.874 179.716 183.896 174.23 183.919C173.232 183.783 172.711 184.531 171.895 184.055C170.988 183.76 169.673 184.236 168.653 184.305C168.199 184.441 167.814 184.486 167.565 184.236C165.524 183.012 162.146 184.849 159.743 184.599C157.975 184.509 156.728 185.076 155.164 185.371C153.305 185.439 153.305 185.484 151.038 186.21C145.892 186.709 140.972 188.841 135.781 189.93C134.851 190.27 132.063 191.291 128.753 192.743C125.443 194.217 121.657 196.236 118.778 198.346C117.644 199.162 116.67 199.979 115.853 200.727C115.876 200.228 115.332 198.822 113.314 196.803C108.327 192.561 102.954 188.705 97.309 185.166C91.6414 181.673 85.6111 178.656 79.3087 176.297C66.7266 171.511 52.8296 169.832 39.6354 171.488C38.8873 171.488 36.9149 171.715 34.3758 172.033C34.1265 172.055 33.8545 172.101 33.5824 172.123C33.5371 172.123 33.4916 172.078 33.469 172.055L33.1517 171.783C32.0408 170.876 30.9072 169.923 29.7964 168.993C27.7107 167.292 25.7157 165.704 24.1514 164.592C25.761 164.184 27.3707 163.798 29.0029 163.436C30.5445 163.163 32.0861 162.959 33.6504 162.8C36.8016 162.528 39.9982 162.483 43.2174 162.664C45.8925 162.642 53.9178 162.755 63.6208 164.252C68.4722 164.978 73.7317 166.021 78.8325 167.632C83.9334 169.243 88.8983 171.398 93.2284 173.825C101.934 178.656 107.828 184.599 109.914 186.414C110.979 187.321 111.161 187.185 110.14 185.643C109.12 184.1 106.876 181.083 102.364 177C96.9689 172.577 90.9159 168.925 84.5002 166.203C78.1298 163.413 71.3287 161.575 64.6183 160.283C57.8851 158.99 51.0613 158.128 44.1468 157.81C40.7009 157.651 37.2097 157.629 33.6957 157.855C31.9501 157.969 30.1818 158.15 28.4135 158.422L27.9601 158.491C32.8115 137.848 37.6857 117.184 42.5371 96.5188C45.1216 85.3584 47.6834 74.2208 50.2678 63.0831L51.22 58.9093L51.6961 56.8224L51.764 56.5502V56.5049V56.4141L51.8548 56.3688L52.1721 56.2327L54.0765 55.5068C55.346 55.0077 56.6835 54.6902 57.9757 54.2592C63.2353 52.7621 68.6308 51.6506 74.1397 51.2196C76.0667 51.0381 81.3263 50.7432 88.0594 51.1742C94.7699 51.5825 102.931 52.9662 110.39 55.3253C117.871 57.6617 124.627 60.8828 129.093 63.6502C130.249 64.2627 131.247 64.8978 132.085 65.4876C132.924 66.0547 133.672 66.4857 134.239 66.8032C135.395 67.4611 135.939 67.6425 135.69 67.2115C136.053 66.7805 134.171 64.9659 131.632 62.7882C130.227 61.8128 128.73 60.7467 127.302 59.7486C125.806 58.7732 124.287 57.9793 123.085 57.2534C117.894 53.7828 110.503 50.6752 102.41 48.7924C94.3165 46.8416 85.5883 46.0704 77.699 46.025C75.704 45.9116 73.7997 46.2065 72.0314 46.456C71.1473 46.5694 70.2632 46.6828 69.4244 46.7509C68.5856 46.8643 67.7694 46.9324 66.9533 46.9097C63.6207 47.0231 60.1521 47.5448 56.6155 48.3614C54.8699 48.8151 53.0563 49.178 51.288 49.8585L47.8194 51.1062L46.6179 51.5598C46.3459 51.5598 46.3458 51.832 46.3005 52.0362L46.1418 52.6713L45.5297 55.1665C43.784 62.2892 42.1518 69.7294 40.4742 77.0336C39.7261 79.6195 40.1341 81.2073 39.1593 83.2716C38.3205 85.5853 37.9577 89.192 37.323 91.9594C37.1416 93.2297 36.9376 94.2278 36.5522 94.8402C34.1038 99.7853 33.4916 109.403 31.61 115.596C30.2497 120.178 29.8871 123.739 29.0256 127.958C28.1642 131.21 27.3857 134.952 26.6905 139.187C25.7384 142.952 24.8769 146.763 24.0608 150.597C23.222 154.702 22.3605 158.876 21.499 163.05C21.2723 163.005 21.1137 163.005 21.1137 163.186C20.9096 163.436 21.0003 163.821 21.227 164.298C21.159 164.683 21.0682 165.046 21.0002 165.432C21.2723 165.364 21.5444 165.296 21.8165 165.228C22.5872 166.271 23.698 167.428 24.4235 168.29C25.6023 170.331 27.5293 172.373 29.6376 174.437L30.4312 175.208L31.5193 176.206L32.1088 176.751C32.3355 176.842 32.6076 176.751 32.8569 176.751L34.4212 176.637C35.8721 176.569 37.323 176.501 38.6833 176.524C40.0662 176.705 41.2676 175.889 42.3784 176.411C44.6681 176.887 47.1166 177.25 49.6557 177.273C52.1721 177.499 54.8019 177.409 57.3637 177.749C58.2705 177.998 58.8599 177.295 59.5627 177.862C60.3561 178.225 61.6484 177.998 62.6233 178.157C63.0767 178.112 63.4394 178.157 63.6208 178.452C65.2077 179.972 68.6762 179.246 70.7619 180.199C72.2581 180.947 73.5503 180.879 75.0012 181.197C76.6108 181.877 76.5882 181.923 78.8325 182.286C81.0996 183.216 83.3893 184.123 85.7697 184.917C88.0821 185.87 90.5079 186.732 92.6389 188.183C93.0923 188.388 93.9764 188.773 95.1326 189.272C96.2661 189.839 97.6944 190.543 99.2813 191.336C102.41 192.947 106.037 195.011 109.098 196.849C110.662 197.733 111.999 198.618 113.133 199.276C114.244 199.979 115.151 200.387 115.468 200.75C115.536 200.841 115.604 200.864 115.649 200.886C114.493 201.975 113.722 202.928 113.45 203.472C113.02 204.425 113.994 204.107 117.486 202.361C122.564 199.072 128.503 196.939 134.624 195.261C140.791 193.605 147.116 192.357 153.464 191.541C166.182 189.885 179.081 189.817 191.799 190.928C192.502 191.042 194.407 191.246 196.81 191.677C199.235 192.062 202.16 192.652 204.971 193.197C209.052 194.058 212.838 194.92 214.424 194.966C214.765 195.057 215.059 195.102 215.399 195.147C215.943 195.215 217.009 194.807 217.145 194.626C217.44 194.421 217.78 194.172 218.12 193.696C218.46 193.219 218.823 192.516 218.868 191.314L219.163 188.025L219.571 183.352C219.979 178.838 220.387 174.324 220.795 169.81C221.656 160.782 222.495 151.731 223.357 142.657C225.057 124.533 226.757 106.409 228.072 88.3754C228.185 87.3319 228.458 84.4965 228.82 80.8444C229.002 79.0297 229.183 77.0109 229.387 74.924C229.478 73.8805 229.591 72.8144 229.682 71.7483L229.84 69.8882C229.886 69.3892 229.908 68.9128 229.931 68.4138C229.999 68.1642 229.795 67.9601 229.682 67.7559L229.772 67.8694ZM215.399 114.348C215.422 114.053 215.445 113.736 215.467 113.441C215.513 113.758 215.513 114.053 215.399 114.348ZM215.218 117.909C215.286 118.363 215.263 118.703 215.059 118.953C215.105 118.295 215.15 117.615 215.218 116.957C215.218 117.297 215.241 117.615 215.218 117.932V117.909ZM214.13 131.746C214.107 131.928 214.084 132.109 214.039 132.268C214.062 131.973 214.084 131.656 214.107 131.361C214.107 131.497 214.107 131.633 214.107 131.769L214.13 131.746ZM216.125 180.562C216.102 181.809 216.057 183.125 216.034 184.463C216.034 185.62 216.011 186.822 215.989 188.002V190.021L215.944 191.11C215.989 191.495 215.762 191.858 215.445 191.972C215.127 192.108 214.855 191.926 214.719 191.699L214.198 191.064C213.835 190.588 213.472 190.112 213.11 189.658C212.339 188.637 211.5 187.458 210.752 186.346C210.072 185.371 209.414 184.463 208.802 183.601C208.508 183.17 208.213 182.807 207.941 182.444L208.734 182.717L209.142 182.853C209.142 182.853 209.301 182.921 209.324 182.898V182.717L209.437 181.968L209.618 180.448L210.367 174.505L211.115 167.564L212.384 153.704C212.928 147.194 213.427 140.707 213.926 134.196C213.926 134.65 213.971 135.194 214.039 136.079C213.336 141.319 213.948 146.786 213.291 152.23C213.427 156.358 213.019 192.811 215.898 175.526C216.261 169.719 216.737 163.889 217.213 158.06C217.077 162.052 216.941 166.067 216.442 170.105C216.397 171.534 216.306 175.571 216.17 180.584L216.125 180.562ZM226.326 69.5479L226.213 70.115L225.76 73.2454C225.17 77.5326 224.649 82.024 223.946 86.039C223.515 88.0578 223.992 89.9859 223.311 91.5511C222.767 93.5246 222.337 95.6568 221.996 97.8345C222.064 96.5415 222.155 95.2258 222.223 93.9329C222.336 92.4357 222.994 85.8121 223.447 79.7556C223.674 76.716 223.855 73.8125 223.81 71.7483C223.742 69.6841 223.493 68.4591 223.198 68.7994C222.359 68.7087 221.815 72.6783 221.316 74.7425C219.525 79.2566 219.185 86.3565 218.052 92.0955C217.689 93.5246 218.211 94.9309 217.598 96.0424C216.986 97.8118 216.601 99.7172 216.306 101.736C216.397 100.579 216.488 99.4223 216.556 98.2655C217.258 89.0559 217.961 79.869 218.687 70.6595L219.253 63.7863L219.593 59.9981L219.729 58.4556C220.546 60.0662 221.724 61.9716 222.631 63.2646C223.357 64.7617 224.445 66.3269 225.533 67.9374C225.828 68.3684 226.032 68.686 226.19 69.0262L226.326 69.2757C226.326 69.2757 226.304 69.4572 226.281 69.5706L226.326 69.5479Z" fill="#92EF9A"/>
<path d="M136.166 124.42C135.872 125.032 136.574 125.259 138.796 124.669C145.098 121.607 151.922 119.429 158.859 118.068C165.819 116.662 172.87 116.004 179.92 115.686C180.714 115.686 184.16 115.845 187.288 116.095C190.439 116.299 193.296 116.571 193.046 115.755C193.205 114.688 191.142 114.121 190.054 113.668C187.741 111.898 183.865 111.876 180.736 111.15C179.943 110.878 179.217 111.535 178.583 110.991C175.93 109.743 172.711 110.152 169.65 110.492C169.084 110.401 168.857 111.15 168.358 110.741C167.837 110.537 167.134 111.014 166.567 111.104C166.318 111.24 166.114 111.309 165.955 111.104C164.708 110.084 162.963 111.785 161.602 111.649C160.582 111.581 159.948 112.08 159.086 112.375C158.043 112.443 158.043 112.465 156.842 113.101C153.94 113.463 151.401 115.301 148.499 115.936C147.955 116.231 146.549 116.979 144.736 117.978C142.967 118.976 140.95 120.246 139.317 121.471C137.685 122.673 136.461 123.83 136.166 124.42Z" fill="#92EF9A"/>
<path d="M134.171 141.274C133.899 141.909 134.602 142 136.801 141.319C139.93 139.709 143.171 138.189 146.549 137.1C149.927 135.966 153.373 135.013 156.887 134.378C160.401 133.697 163.938 133.289 167.497 133.085C171.056 132.836 174.615 132.836 178.152 132.926C178.945 132.972 182.391 133.425 185.497 133.992C187.061 134.219 188.558 134.559 189.623 134.673C190.689 134.809 191.391 134.65 191.301 134.265C191.573 133.266 189.578 132.45 188.535 131.86C186.381 129.841 182.459 129.433 179.331 128.503C178.537 128.185 177.744 128.775 177.154 128.185C174.525 126.779 171.237 126.983 168.086 127.21C167.519 127.119 167.247 127.822 166.749 127.391C166.227 127.165 165.479 127.596 164.912 127.686C164.663 127.822 164.436 127.868 164.278 127.664C163.031 126.643 161.194 128.253 159.812 128.095C158.791 128.004 158.111 128.48 157.227 128.775C156.162 128.843 156.162 128.843 154.915 129.478C151.945 129.819 149.36 131.656 146.413 132.359C145.915 132.677 144.396 133.448 142.627 134.491C141.789 135.013 140.836 135.626 139.861 136.238C138.955 136.896 138.048 137.554 137.232 138.166C135.622 139.436 134.421 140.639 134.149 141.228L134.171 141.274Z" fill="#92EF9A"/>
<path d="M131.995 157.357C140.066 155.111 148.227 153.16 156.456 151.844C164.686 150.529 172.915 149.894 181.099 150.052C182.006 150.098 185.973 150.506 189.533 151.164C191.324 151.481 193.001 151.822 194.225 152.003C195.427 152.207 196.22 152.117 196.084 151.731C196.379 150.733 194.089 149.803 192.888 149.213C190.371 147.104 185.86 146.718 182.278 145.765C181.371 145.448 180.487 146.06 179.784 145.493C176.747 144.109 173.029 144.427 169.447 144.676C168.789 144.586 168.494 145.289 167.928 144.881C167.338 144.676 166.499 145.13 165.842 145.221C165.547 145.357 165.321 145.402 165.116 145.198C163.734 144.177 161.625 145.856 160.061 145.674C158.905 145.584 158.134 146.083 157.137 146.355C155.935 146.4 155.935 146.4 154.507 147.035C151.174 147.353 148.091 149.077 144.713 149.599C143.512 150.075 137.572 152.321 133.355 154.34C129.116 156.336 126.531 157.946 131.972 157.357H131.995Z" fill="#92EF9A"/>
<path d="M105.289 122.015C105.811 121.085 104.133 119.792 103.272 119.021C101.775 116.525 98.2161 115.119 95.5863 113.304C94.9515 112.76 94.0221 113.146 93.6367 112.397C91.6417 110.242 88.5132 109.539 85.5887 108.722C85.1126 108.45 84.6137 109.04 84.319 108.473C83.911 108.087 83.0949 108.314 82.5508 108.155C82.2788 108.201 82.0748 108.155 82.0067 107.906C81.2586 106.477 79.0369 107.429 77.8807 106.726C76.9966 106.25 76.2484 106.477 75.3189 106.386C74.3214 106 74.2988 106.046 72.9159 106.159C70.0367 105.41 67.0215 106.227 64.0743 105.932C63.5076 106.046 61.8527 106.272 59.8804 106.726C57.908 107.18 55.6183 107.883 53.8047 108.745C51.9911 109.584 50.6988 110.582 50.4041 111.149C50.1094 111.739 50.7215 111.898 52.7845 111.694C55.845 110.764 59.2682 110.424 62.6688 110.446C66.092 110.492 69.5379 110.832 72.8705 111.512C74.4801 111.853 76.2257 112.306 77.9713 112.76L83.1176 114.144C86.5181 115.096 89.8734 116.117 93.1833 117.206C93.9087 117.478 97.0146 118.885 99.8484 120.223C102.682 121.561 105.267 122.786 105.312 121.947L105.289 122.015Z" fill="#92EF9A"/>
<path d="M104.609 139.935C105.085 139.073 103.362 137.758 102.478 136.964C100.936 134.423 97.2638 133.039 94.5433 131.225C93.8859 130.68 92.9564 131.066 92.5483 130.317C90.4626 128.14 87.2662 127.482 84.2737 126.711C83.7749 126.439 83.2988 127.051 82.9815 126.484C82.5734 126.076 81.7346 126.325 81.1678 126.189C80.8958 126.234 80.6691 126.189 80.6011 125.939C79.8303 124.488 77.5859 125.463 76.4297 124.737C75.5682 124.238 74.7747 124.465 73.8906 124.352C72.9384 123.943 72.9384 123.966 71.5781 124.011C68.7217 122.968 65.5932 123.558 62.6687 122.854C61.5352 122.9 55.9129 123.013 51.8775 123.739C49.8599 124.102 48.2504 124.578 47.7516 125.032C47.2529 125.508 47.7743 125.871 49.996 126.37C53.4872 126.416 57.0692 126.756 60.6284 127.278C64.2104 127.8 67.6789 128.457 71.1022 129.455C78.2887 131.452 85.3844 133.108 92.1176 135.285C92.8657 135.535 96.0396 136.941 98.9414 138.279C100.392 138.96 101.798 139.572 102.818 139.958C103.838 140.366 104.586 140.298 104.564 139.935H104.609Z" fill="#92EF9A"/>
<path d="M91.2333 148.51C90.5532 147.988 89.6237 148.328 89.193 147.602C87.0619 145.493 83.8654 144.699 80.8049 143.859C80.3061 143.565 79.8074 144.154 79.4674 143.587C79.0366 143.202 78.1978 143.383 77.6084 143.247C77.3137 143.292 77.1096 143.247 77.0189 142.998C76.2028 141.591 73.9131 142.476 72.6662 141.795C71.7368 141.319 70.9205 141.523 70.0137 141.455C68.9935 141.092 68.9937 141.115 67.5881 141.228C64.7089 140.389 61.5577 141.001 58.5652 140.366C57.9304 140.389 56.2981 140.48 54.1671 140.57C52.0814 140.706 49.6331 140.933 47.57 141.251C45.507 141.568 43.8294 141.999 43.2626 142.385C42.6958 142.771 43.2627 143.247 45.5977 143.723C52.9203 143.905 60.2881 144.903 67.4973 146.491C74.7292 148.033 81.8251 150.166 88.8303 152.389C89.6011 152.661 92.911 154.067 95.9261 155.405C97.4451 156.041 98.8959 156.676 99.9387 157.016C100.982 157.402 101.73 157.379 101.707 156.993C102.183 156.063 100.347 154.838 99.4173 154.044C97.7171 151.572 93.9538 150.256 91.188 148.464L91.2333 148.51Z" fill="#92EF9A"/>
<path d="M121.566 192.493C126.055 190.452 130.748 188.705 135.645 187.458C140.519 186.187 145.461 185.167 150.494 184.509C155.504 183.783 160.56 183.352 165.592 183.148C170.648 182.876 175.681 182.944 180.691 183.125C181.235 183.193 182.731 183.329 184.658 183.533C186.54 183.874 188.875 184.101 191.074 184.554C192.162 184.736 193.228 184.917 194.225 185.099C195.2 185.303 196.084 185.484 196.832 185.575C198.306 185.824 199.258 185.756 199.099 185.348C199.417 184.35 196.583 183.307 195.109 182.603C191.981 180.38 186.54 179.677 182.187 178.656C181.099 178.294 180.011 178.838 179.172 178.271C175.522 176.751 171.011 176.91 166.681 177.114C165.887 177.001 165.502 177.726 164.844 177.295C164.119 177.046 163.099 177.5 162.282 177.59C161.92 177.726 161.625 177.772 161.421 177.545C159.789 176.456 157.159 178.112 155.255 177.953C153.849 177.863 152.874 178.362 151.65 178.634C150.176 178.702 150.176 178.702 148.408 179.382C144.327 179.723 140.496 181.673 136.393 182.422C135.645 182.694 133.491 183.624 130.861 184.69C128.277 185.893 125.239 187.367 122.836 188.864C120.41 190.316 118.597 191.813 118.12 192.539C117.644 193.287 118.551 193.424 121.612 192.471L121.566 192.493Z" fill="#92EF9A"/>
<path d="M100.46 180.811C99.5988 180.017 98.3745 180.017 97.8531 179.11C95.11 176.206 90.8932 174.323 86.7672 172.622C86.0871 172.191 85.4297 172.622 84.9763 171.987C84.4095 171.488 83.2759 171.397 82.4825 171.148C82.0971 171.102 81.8024 171.034 81.6891 170.762C80.5782 169.174 77.4724 169.446 75.7494 168.584C74.4572 167.926 73.369 167.949 72.0995 167.7C70.6939 167.178 70.6712 167.178 68.7669 167.064C64.7769 165.749 60.4242 165.998 56.2302 165.136C55.4141 165.136 53.011 165.091 50.1091 165.136C48.6809 165.227 47.1166 165.318 45.507 165.409C43.9427 165.567 42.3559 165.772 40.9503 165.976C38.0939 166.429 35.8267 167.064 35.0786 167.473C34.3305 167.904 35.1466 168.267 38.4338 168.516C43.4893 168.289 48.6129 168.403 53.6911 169.151C58.7693 169.787 63.8474 170.785 68.7896 172.214C71.2833 172.849 73.7091 173.733 76.1802 174.505C78.5832 175.435 81.0316 176.251 83.3893 177.295C88.1501 179.223 92.7749 181.514 97.2636 183.964C97.7397 184.259 99.0773 185.053 100.71 186.141C102.319 187.276 104.337 188.546 106.15 189.952C107.08 190.61 107.964 191.268 108.803 191.88C109.596 192.516 110.344 193.083 110.979 193.514C112.203 194.444 113.224 194.648 113.201 194.285C113.79 193.65 111.659 191.427 110.594 190.134C108.667 186.777 103.997 183.669 100.438 180.833L100.46 180.811Z" fill="#92EF9A"/>
</svg>
