<svg width="250" height="250" viewBox="0 0 250 250" fill="none" xmlns="http://www.w3.org/2000/svg">
<rect width="250" height="250" fill="#063312"/>
<path d="M127.968 105.975C132.492 107.502 138.243 108.593 144.294 109.575C147.346 110.066 150.426 110.556 153.479 111.02C155.06 111.293 156.695 111.538 158.385 111.538C160.075 111.538 161.928 111.402 163.809 110.447C164.763 110.011 165.635 109.22 166.207 108.293C166.807 107.366 167.025 106.466 167.215 105.757C167.57 104.311 167.815 103.057 168.442 101.939C170.322 97.221 171.413 91.9305 172.203 86.449C172.53 83.8583 173.075 81.2948 173.511 78.3495C173.866 75.4043 174.411 72.459 173.62 68.4502C173.566 67.7684 173.157 66.9503 172.803 66.2685C172.503 65.5594 171.93 65.0959 171.522 64.5777C171.031 64.1414 170.513 63.7596 169.968 63.3778C169.368 63.1051 168.823 62.7506 168.169 62.287C168.169 62.287 168.115 62.2869 168.115 62.2597C167.76 62.1233 167.488 62.0142 167.215 61.8779C166.97 61.7688 166.698 61.7143 166.425 61.6324C165.88 61.4688 165.28 61.3597 164.681 61.2779C163.481 61.087 162.255 60.9507 161.192 60.7325C160.211 60.678 159.448 60.5416 159.012 60.1053C155.36 57.6236 147.864 58.3054 143.204 56.9691C139.77 56.0146 137.071 56.0964 133.882 55.7147C130.203 54.8693 130.203 54.8692 125.406 54.5965C122.844 54.0511 120.228 53.6148 117.611 53.2603C116.303 53.0967 114.995 52.933 113.659 52.7694C112.46 52.6058 110.988 52.333 109.489 52.2512C107.99 52.1421 106.409 52.1422 104.692 52.524C103.03 52.8785 101.095 53.8057 99.8682 55.4692C98.6144 57.0237 98.3418 59.2053 98.1238 60.2961C97.8512 61.6052 97.5787 62.9415 97.2789 64.2505C97.0881 66.2958 96.0252 72.159 95.2348 79.604C94.8259 83.3401 94.4171 87.2944 93.872 91.3577C93.7902 92.394 93.8176 93.4849 94.1174 94.5212C94.4172 95.5575 94.9622 96.4302 95.5891 97.221C96.8973 98.8027 98.778 99.4845 100.441 100.194C107.336 102.784 113.387 103.248 115.267 102.812C116.221 102.621 116.221 102.348 115.049 101.966C113.877 101.584 111.452 101.012 107.69 99.43C103.575 97.9028 98.0694 95.7757 98.2056 93.8121C98.0694 93.3485 98.0149 92.8304 98.2056 91.7941C98.3692 90.8123 98.669 89.5306 98.9143 88.2216L100.195 80.8857C100.958 76.0315 102.13 70.9864 103.139 66.0503L103.929 62.3142L104.311 60.4325C104.393 60.0234 104.42 60.1053 104.447 59.8871C104.447 59.7235 104.501 59.6144 104.556 59.5599C104.747 59.2053 104.774 59.1781 105.21 58.9872C105.619 58.8235 106.437 58.7145 107.363 58.7417C108.29 58.769 109.326 58.9326 110.443 59.1781L112.296 59.5871L114.15 59.9417L121.618 61.3325L136.554 64.0323L151.38 66.7048C153.833 67.1684 156.259 67.6593 158.657 68.2047L162.228 69.0501L163.972 69.5137L165.417 69.9228C165.417 69.9228 165.471 69.9773 165.526 69.9773V70.0319C165.526 70.0319 165.635 70.3591 165.689 70.5773C165.853 71.6409 165.798 73.1681 165.635 74.7225C165.308 77.8859 164.572 81.3221 164.163 85.1127C163.781 88.5489 163.4 92.0123 162.909 95.3939C162.664 97.0847 162.419 98.7755 162.119 100.412C161.846 101.966 161.41 103.821 161.11 104.611C160.919 104.911 161.11 104.911 160.293 105.266C159.502 105.593 157.622 105.73 155.332 105.457C150.181 104.857 143.912 104.148 137.889 103.466C125.761 102.184 114.722 101.257 116.112 102.402C116.003 103.821 123.88 105.102 128.023 106.002L127.968 105.975Z" fill="#92EF9A"/>
<path d="M214.367 58.087C214.231 57.4052 214.04 56.7234 213.849 56.0689L213.468 54.9781L213.195 54.2418C213.059 54.0236 212.895 53.8327 212.732 53.6145C211.996 52.66 211.287 51.7601 210.579 50.8329C207.88 47.4241 205.427 44.3424 203.356 41.7517C201.284 39.2155 199.622 37.2247 198.505 35.9975C197.85 34.5522 196.76 33.7886 196.161 33.5159C195.207 33.1341 195.125 33.2159 195.915 33.734C195.806 33.8977 196.324 34.2795 196.896 35.1521C196.896 35.1794 196.924 35.2339 196.951 35.2612C196.951 35.5885 197.196 36.1612 197.578 36.8975C197.632 37.252 197.66 37.6065 197.632 37.9883C197.632 38.3974 197.496 38.8337 197.442 39.0246C196.869 41.1245 196.188 44.0424 195.479 47.3422C194.062 53.9145 192.536 61.9322 191.418 67.4409C185.422 91.6302 179.59 129.073 173.648 159.426C172.04 167.062 171.74 174.261 170.05 180.261C168.987 184.842 167.952 189.615 166.97 194.496C166.507 196.76 166.071 199.023 165.608 201.341C165.608 201.832 165.008 202.05 164.736 201.668C165.035 201.805 163.455 200.932 162.555 200.441C161.547 199.869 160.511 199.296 159.448 198.778C157.322 197.714 155.251 196.569 153.043 195.614C148.71 193.596 144.24 191.715 139.634 190.078C130.449 186.779 120.828 184.379 111.179 182.824C105.756 181.706 102.703 182.415 98.2604 181.297C95.7802 180.943 92.7277 180.779 89.5389 180.697C86.35 180.697 83.052 180.724 80.2175 180.752C77.6283 180.942 75.557 180.997 74.167 180.724C68.6887 180.07 61.139 180.615 53.3713 181.597C51.4362 181.788 49.5011 182.17 47.5387 182.442C46.5575 182.579 45.6036 182.742 44.6497 182.879L43.4232 183.07C43.4232 183.07 43.3687 183.097 43.2869 183.124C43.0689 183.233 42.7692 183.015 42.8509 182.77C43.1235 181.624 43.3687 180.506 43.614 179.443C45.8489 170.143 46.7212 163.107 48.3019 154.599C49.7737 148.017 51.1819 140.5 52.5264 132.046C58.4681 104.475 62.7471 76.0858 68.8522 47.5331C69.1793 45.6787 69.7244 42.5698 70.4603 38.5064C70.8146 36.4611 71.2233 34.1976 71.6867 31.6887C71.9047 30.4615 72.15 29.1798 72.368 27.8435C72.368 27.1072 72.8859 26.2618 73.7581 26.2072C75.3934 25.8527 77.0832 25.4982 78.8275 25.1437C80.6263 24.7346 82.5071 24.4619 84.4149 24.1347C87.3585 23.5892 90.4655 23.2075 93.5999 22.8257C93.0275 24.5437 92.5097 26.6436 92.0736 28.0617C89.1845 34.3885 87.7672 44.5333 85.5596 52.6601C84.9055 54.6781 85.3689 56.7234 84.4422 58.2779C81.7712 64.932 80.7081 73.1951 79.3999 81.2127C78.9911 82.6308 79.6998 83.5308 78.9639 84.6489C78.4188 85.9033 78.6095 87.8941 78.3642 89.4213C78.3642 90.1303 78.3096 90.6757 77.9826 91.003C76.1292 93.6483 76.9743 98.9934 75.9113 102.375C75.1755 104.884 75.339 106.847 75.0664 109.165C74.4396 111.838 74.4395 111.838 74.3305 115.329C72.7497 122.801 72.7498 130.682 71.1417 138.4C70.9237 141.345 69.4518 155.908 68.6614 166.625C68.2798 171.998 68.0619 176.388 68.2254 177.888C68.3889 179.388 69.2337 178.079 70.8418 171.97C77.1377 133.464 84.8237 94.4391 90.52 55.6598C91.0924 52.251 95.1534 30.4888 95.7802 22.5529C95.9983 22.5257 96.2436 22.4984 96.4616 22.4711C104.829 21.5712 113.741 21.1894 122.654 21.2985C140.478 21.4349 158.14 24.0801 171.44 27.1617C184.795 30.107 193.735 33.625 195.098 33.5704C195.752 33.5704 194.498 32.8614 190.791 31.1706C187.085 29.4798 180.871 27.0254 171.44 24.2983C163.427 22.1711 155.278 20.5894 147.074 19.3895C138.87 18.1896 130.585 17.3987 122.272 17.1533C113.959 16.8806 105.619 16.9351 97.3065 17.6169C95.2351 17.726 93.1638 17.9714 91.0652 18.1896C88.9938 18.4078 86.9223 18.6259 84.8509 18.9532C82.7795 19.2804 80.7081 19.5259 78.664 19.9077L72.0956 21.1348C70.6783 21.4621 69.37 22.2257 68.4706 23.3438C68.0073 23.9165 67.6802 24.5437 67.4349 25.2255C67.3259 25.5527 67.2442 25.9346 67.1624 26.2891L66.9989 27.1345L66.0721 31.6342L64.2461 40.6336L60.5667 58.6597C58.1138 70.6861 55.6608 82.6854 53.2078 94.7118C48.3019 118.765 43.3688 142.845 38.4356 166.925L36.5821 175.952L35.6556 180.479L35.3285 182.088C35.1922 182.824 35.0015 183.561 35.0015 184.27C34.9742 185.633 35.3284 186.942 36.0916 188.06C36.3369 188.415 36.664 188.715 36.991 189.015C37.945 191.251 39.7711 195.069 43.3688 200.223C45.0313 202.459 46.8028 204.614 48.5471 206.686L50.7548 209.25C51.1091 209.986 51.845 209.741 52.4992 209.741L54.516 209.632L58.577 209.441C63.9462 209.168 69.3156 208.95 74.6848 208.923C85.3961 208.841 96.08 209.332 106.437 211.377C111.643 212.359 116.739 213.804 121.809 215.386C126.878 217.077 131.92 218.904 136.963 220.894L152.116 226.949L159.721 230.003C162.119 230.985 165.199 232.157 168.279 232.675C171.386 233.221 174.956 233.166 178.308 231.83C181.661 230.521 184.414 227.958 186.213 225.176C188.066 222.394 189.102 219.367 189.783 216.395C190.137 214.84 190.328 213.559 190.573 212.195L191.282 208.159C193.163 197.387 194.934 186.588 196.679 175.816C200.113 154.244 203.329 132.7 206.572 111.265C207.363 106.52 210.906 85.6306 214.176 66.4592L214.476 64.6593C214.612 63.9502 214.694 63.1594 214.721 62.4231C214.776 60.9232 214.64 59.4778 214.34 58.087H214.367ZM210.497 62.9412C209.57 67.2227 208.507 72.0224 207.581 76.8494C205.645 86.5306 203.819 96.6754 201.884 105.757C200.821 110.311 200.93 114.701 199.677 118.247C195.616 133.3 193.108 151.599 190.301 169.38C189.619 172.543 190.219 174.397 189.21 176.934C188.42 179.77 188.229 184.106 187.684 187.46C187.575 188.987 187.412 190.215 186.976 190.978C185.722 194.033 185.068 198.423 184.468 203.005C184.168 205.295 183.869 207.668 183.596 209.877C183.405 210.995 183.242 212.086 183.078 213.122C182.86 214.158 182.697 214.977 182.397 215.795C180.734 220.458 179.208 223.649 175.774 225.34C173.675 226.076 172.394 225.858 171.031 225.94C169.614 225.776 167.979 225.885 164.599 224.821C161.601 223.594 158.521 222.394 155.469 221.222C155.605 221.167 155.687 221.085 155.66 220.949C156.286 219.749 153.152 217.786 151.599 216.558C148.6 212.959 142.55 210.422 138.053 207.368C136.963 206.495 135.491 206.768 134.782 205.704C131.321 202.405 126.17 200.659 121.209 198.887C120.392 198.396 119.601 199.05 119.056 198.26C118.347 197.66 116.985 197.741 116.031 197.441C115.567 197.441 115.213 197.36 115.077 197.005C113.714 195.014 109.98 195.751 107.909 194.687C106.355 193.951 105.02 194.114 103.493 193.896C101.804 193.324 101.776 193.296 99.4596 193.324C94.6082 191.987 89.4025 192.614 84.3331 191.987C83.3519 192.069 80.4901 192.205 77.0287 192.669C73.5673 193.105 69.5608 193.924 66.2629 194.96C62.9651 195.969 60.4031 197.087 59.64 197.796C58.8768 198.505 59.8853 198.723 63.7555 198.614C75.4479 196.405 87.7944 197.305 99.6504 200.059C111.534 202.787 123.063 207.314 134.482 211.977C135.736 212.522 141.16 215.195 146.175 217.622C146.693 217.867 147.183 218.113 147.701 218.358C145.384 217.513 143.068 216.64 140.751 215.822C132.629 212.959 124.316 210.15 115.758 207.777C112.542 207.014 102.785 204.995 90.8198 204.723C78.8276 204.314 64.982 205.35 52.9897 206.632C46.5303 200.659 42.006 194.496 39.2805 190.596C40.507 191.087 41.8969 191.087 43.4232 190.842L48.4655 190.215C51.4635 189.806 54.4889 189.506 57.5142 189.26C69.5609 188.169 81.662 187.869 93.6542 188.687C105.646 189.533 117.53 191.415 128.977 194.878C134.728 196.487 140.315 198.669 145.848 200.905C148.573 202.159 151.326 203.305 153.997 204.668C155.332 205.35 156.695 205.977 158.004 206.686L162.882 209.332C164.436 210.122 165.853 210.368 167.379 210.095C168.878 209.822 170.268 208.95 171.195 207.75C172.122 206.632 172.503 204.995 172.721 203.277L173.212 200.25L174.929 189.56L178.308 168.207C179.617 160.298 185.422 125.364 190.764 93.3483C193.381 77.3403 195.806 62.0413 197.387 51.2147C197.769 48.5149 198.096 46.0878 198.396 43.9879C198.532 42.9516 198.641 41.9971 198.75 41.1244C198.804 40.6881 198.832 40.279 198.886 39.8972C198.886 39.7064 198.913 39.5427 198.941 39.3518C201.23 43.0334 204.964 48.2694 207.281 51.7328L208.78 54.2145L209.57 55.4962C209.87 55.9053 210.033 56.3143 210.115 56.8052C210.606 58.796 210.824 60.9231 210.497 63.023V62.9412Z" fill="#92EF9A"/>
<path d="M202.484 68.0685C201.339 67.8776 200.249 72.8954 199.513 75.5134C196.924 81.1585 195.861 90.1852 193.844 97.3847C193.244 99.1846 193.735 101.012 192.863 102.375C190.383 108.239 189.456 115.574 188.229 122.665C187.848 123.919 188.529 124.737 187.821 125.692C187.303 126.783 187.494 128.583 187.248 129.919C187.248 130.546 187.194 131.037 186.867 131.31C185.068 133.601 185.886 138.373 184.823 141.346C184.087 143.527 184.25 145.3 183.978 147.345C183.324 149.69 183.351 149.69 183.187 152.799C181.552 159.372 181.416 166.353 179.671 173.143C179.317 175.789 177.709 187.924 176.374 198.069C175.202 207.532 174.956 213.723 178.39 203.005C182.097 186.043 186.049 168.998 189.592 151.818C193.163 134.637 196.324 117.374 198.723 100.085C199.023 98.1756 200.549 89.8034 201.639 82.0585C202.784 74.3408 203.438 67.2776 202.484 68.0685Z" fill="#92EF9A"/>
<path d="M110.879 71.6684C110.607 70.9048 109.898 71.2593 108.508 74.0137C107.881 76.2772 107.364 78.8679 107.609 81.7041C107.718 83.0676 108.099 84.6766 108.781 86.0674C109.462 87.4582 110.361 88.6854 111.533 89.7763C112.678 90.8398 114.177 91.7397 115.949 92.1761C117.72 92.6397 119.765 92.3943 121.373 91.7125C124.752 90.2126 126.333 87.6764 127.641 85.7947C128.295 84.8129 128.868 83.913 129.331 83.3403C129.849 82.7131 130.421 82.1676 130.939 81.8131C131.457 81.4586 131.92 81.295 132.057 81.3223C132.166 81.3223 132.165 81.3222 132.329 81.4313C132.683 81.5677 133.474 83.3949 134.183 85.6038C134.591 86.7219 135.082 88.0037 136.036 89.3945C136.963 90.8126 138.707 92.2034 140.696 92.667C141.541 92.967 144.131 93.1579 146.202 92.2852C147.265 91.9034 148.246 91.3852 149.146 90.8943C149.99 90.4307 150.863 89.9399 151.707 89.449C153.397 88.4672 155.005 87.4855 156.041 86.6674C157.077 85.822 157.54 85.0584 157.159 84.8402C156.613 83.8312 154.188 84.7857 152.798 85.0857C151.026 85.0039 149.2 85.5765 147.319 86.3128C145.52 87.0764 143.558 87.7855 142.55 87.2673C142.332 87.1037 142.141 87.1855 141.923 87.1855C141.732 87.1582 141.487 87.131 141.569 86.7219C141.596 85.7947 141.514 84.8129 141.051 83.1767C140.587 81.595 140.07 79.5497 138.38 77.2044C137.835 76.2226 136.772 76.4681 136.39 75.459C135.654 74.5591 133.937 74.3682 132.711 74.3136C132.138 74.3954 131.73 74.45 131.43 74.1773C130.176 73.4955 128.541 74.1227 127.478 75.0227C126.36 75.9226 125.652 76.9862 124.779 77.5316C123.526 78.3497 123.226 79.6587 122.735 80.6677C121.89 81.595 121.918 81.6222 121.536 83.0676C120.528 84.213 119.874 85.3311 119.11 85.9856C118.347 86.6674 117.257 86.9401 116.221 86.231C115.813 86.1765 114.286 85.6583 112.951 83.9675C111.615 82.3858 111.043 79.4678 111.043 77.0134C110.988 74.5318 111.179 72.4592 110.852 71.6684H110.879Z" fill="#92EF9A"/>
</svg>
