<svg width="250" height="250" viewBox="0 0 250 250" fill="none" xmlns="http://www.w3.org/2000/svg">
<rect width="250" height="250" fill="#063312"/>
<path d="M98.228 71.8269C97.652 72.4855 97.1584 73.1714 96.7471 73.9124C96.3631 74.5709 96.0613 75.2296 95.7596 75.9156C95.1837 77.2876 94.7723 78.742 94.5529 80.2512C94.0593 85.2729 93.6755 89.7733 93.3189 94.5481C93.2092 95.7829 92.7703 99.5423 92.359 104.18C92.167 106.512 91.975 109.037 91.8104 111.589C91.6733 114.278 91.5363 116.967 91.4266 119.464C91.2895 122.456 93.456 124.706 95.65 125.611C96.2533 125.886 96.7197 126.023 97.1036 126.133C97.515 126.27 97.8989 126.325 98.2829 126.407C99.0233 126.544 99.7089 126.599 100.285 126.599C102.671 126.599 103.987 126.023 103.411 125.749C103.411 125.639 103.302 125.584 103.219 125.502C103.384 125.502 103.576 125.474 103.74 125.447C102.945 126.05 104.591 126.489 110.514 125.556C115.451 124.267 120.003 122.071 124.227 119.904C128.423 117.736 132.619 115.568 136.815 113.373C137.747 112.906 139.228 112.165 140.408 111.26C141.614 110.354 142.739 109.202 143.671 107.72C144.549 106.21 145.262 104.482 145.015 102.067C144.851 100.942 144.467 99.8167 143.781 98.9112C143.342 98.3349 143.178 98.1703 142.903 97.8684L142.19 97.1275C140.353 95.2615 138.543 93.7797 136.925 92.1881L131.879 87.2487C128.533 83.9284 125.187 80.4708 121.567 77.2053C119.757 75.5589 117.974 73.9947 115.999 72.4031C113.942 70.839 111.611 69.0554 108.128 68.3144C106.401 67.9577 104.426 68.04 102.616 68.6986C100.778 69.3572 99.2975 70.4822 98.1731 71.772L98.228 71.8269Z" fill="#92EF9A"/>
<path d="M138.296 119.217C135.252 119.162 132.784 120.946 130.096 122.318C129.548 122.401 129.657 123.306 128.999 123.004C128.423 122.922 128.012 123.718 127.491 123.937C127.326 124.157 127.134 124.266 126.887 124.074C125.324 123.224 124.309 125.611 122.911 125.639C121.923 125.721 121.457 126.434 120.689 126.873C119.675 127.066 119.675 127.065 118.632 127.944C115.89 128.602 113.559 130.77 110.624 131.319C110.076 131.593 108.65 132.307 106.785 133.212C105.057 134.008 102.945 134.996 100.806 136.011C97.0215 137.795 94.5258 139.332 99.5171 139.496C106.977 137.987 114.436 136.149 121.677 133.569C128.917 130.99 135.965 127.697 142.273 123.361C142.986 122.922 146.277 121.111 149.019 119.08C150.391 118.065 151.68 117.022 152.448 116.144C153.188 115.211 153.462 114.47 153.106 114.333C152.475 113.51 150.555 114.58 149.376 114.964C146.277 115.019 143.288 117.406 140.134 118.284C139.311 118.422 139.092 119.492 138.214 119.245L138.296 119.217Z" fill="#92EF9A"/>
<path d="M101.492 63.1276C103.631 61.8379 105.715 61.7281 108.019 62.3592C110.323 63.0178 112.736 64.4997 115.067 66.1461C119.757 69.5762 124.227 73.665 129.081 77.3146C129.602 77.7537 131.714 79.8117 133.798 81.568C134.841 82.4461 135.855 83.2693 136.678 83.6809C137.528 84.12 138.132 84.2023 138.269 83.8181C139.009 82.9675 137.885 81.568 137.419 80.6624C136.98 78.0007 134.402 76.1346 132.948 73.857C132.647 73.1985 131.687 73.3906 131.687 72.5948C131.001 70.0702 128.78 68.6432 126.805 67.0516C126.558 66.64 125.845 67.1065 125.873 66.4754C125.736 65.9815 124.968 65.954 124.584 65.6796C124.337 65.6247 124.172 65.5424 124.255 65.268C124.364 63.6764 122.033 63.9509 121.43 62.9081C120.964 62.1672 120.168 62.1671 119.483 61.8379C118.852 61.2067 118.879 61.1793 117.7 60.9049C115.753 59.2584 112.955 59.0115 110.57 57.859C110.021 57.859 108.513 57.5296 106.648 57.8315C105.743 57.8315 104.755 58.2705 103.85 58.5175C102.973 58.984 102.123 59.3133 101.492 59.9444C100.148 60.9597 99.4075 62.1946 99.2978 62.7708C99.2156 63.402 99.8737 63.5941 101.464 63.1276H101.492Z" fill="#92EF9A"/>
<path d="M82.9522 98.5819C82.6231 99.1856 83.007 99.6795 83.0619 100.256C82.8425 100.914 82.87 100.914 83.1717 101.792C82.7329 103.631 83.6927 105.607 83.2813 107.5C83.6378 108.982 85.3657 121.962 87.5049 115.979C87.8066 106.457 89.5343 96.8531 89.5343 87.2487C89.6166 86.2059 90.7684 77.9736 89.3149 78.3578C88.3001 78.2754 87.8887 79.6475 87.5322 80.361C85.9141 81.8702 85.9416 84.3948 85.064 86.3706C84.7623 86.8645 85.393 87.3859 84.8171 87.7426C83.391 89.3342 83.5008 91.3922 83.3637 93.368C83.1991 93.6973 83.8846 93.9718 83.4184 94.2188C83.1167 94.5206 83.5007 95.0145 83.4733 95.3987C83.5556 95.5633 83.583 95.7005 83.3362 95.7828C82.0747 96.3865 83.4459 97.7586 82.9522 98.5819Z" fill="#92EF9A"/>
<path d="M199.152 60.4934C197.891 57.2828 195.751 54.5387 193.448 52.3709C188.813 48.0352 183.685 45.538 180.202 43.8641C178.419 43.0683 177.075 42.5195 176.252 42.2177C175.731 42.0256 175.402 41.9707 175.265 42.0805C171.261 39.1717 167.175 38.0466 163.472 37.1685C159.249 36.2355 155.272 35.8788 151.021 35.2476C144.384 34.0585 136.806 32.9517 128.286 31.9273C121.32 30.7473 114.327 29.6497 107.278 28.6069C103.768 28.0856 100.23 27.5916 96.6922 27.0702C93.1818 26.5763 89.4794 26.0274 85.6673 26C81.8826 26 77.7415 26.5214 74.0666 28.6893C70.3642 30.8022 67.9233 34.589 66.6343 38.2387C65.3179 41.9432 64.7695 45.6478 64.1387 49.2151C63.4805 52.7824 62.8497 56.3772 62.1915 59.972C61.3961 65.3779 58.8182 81.4035 56.1854 101.079C53.4977 120.726 51.0021 144.024 49.9325 163.781C48.7532 183.539 49.0823 199.729 49.4936 205.108C49.6856 207.797 49.905 207.824 50.2067 204.257C50.5358 200.69 50.7827 193.582 51.6878 182.002C53.635 146.137 59.065 110.354 65.2356 74.5707C66.7988 65.6249 68.3896 56.6791 69.9528 47.7059C70.7207 43.3427 71.7079 39.1991 73.8197 36.3727C75.8491 33.5737 79.1402 32.1742 83.1168 31.9273C87.0934 31.6529 91.3718 32.3938 95.897 33.1347L109.39 35.3574L136.376 39.8303L149.869 42.0256C154.395 42.7939 158.865 43.3701 162.924 44.4952C166.983 45.5929 170.74 47.2394 173.181 49.7914C175.649 52.2885 176.746 55.6363 176.773 59.6701C176.828 63.6491 176.005 68.0671 175.32 72.5949L173.236 86.1233L169.067 113.153C166.325 131.154 163.555 149.155 160.812 167.157C159.468 176.157 158.097 185.131 156.753 194.104L154.751 207.577L154.257 210.953C154.093 212.105 153.956 213.203 153.736 214.081C153.544 214.986 153.27 215.755 152.996 216.194C152.722 216.66 152.53 216.743 152.31 216.825C152.146 216.88 151.652 216.99 150.5 216.496C149.952 216.249 149.293 215.865 148.608 215.371C147.84 214.794 147.045 214.136 146.222 213.367C142.903 210.349 139.53 205.519 135.691 199.647C131.824 193.884 126.86 186.777 118.714 182.469C114.628 180.383 109.719 179.176 104.673 180.246C99.8735 181.316 96.1164 183.594 92.4688 185.817C85.3383 190.427 79.2499 195.558 73.518 199.866C67.8136 204.147 62.4932 207.907 57.9955 209.526C56.8985 209.827 55.8015 210.349 54.869 210.376C53.9091 210.514 52.9767 210.706 52.4556 210.568C52.291 210.541 52.1538 210.514 52.0441 210.459C51.7699 210.157 51.5232 209.965 51.3312 209.937C51.249 209.8 51.1391 209.608 51.0294 209.361C50.7278 208.565 50.6181 207.715 50.5358 207.303C50.4261 206.891 50.3164 206.836 50.2342 207.275C49.9325 207.248 49.5211 208.538 49.8502 210.184C49.9324 210.486 50.0422 210.788 50.2067 211.09C49.7679 210.98 49.3565 210.815 49 210.596C49.4388 212.078 50.289 213.532 51.4409 214.822C51.9345 216.551 53.4154 218.279 55.5272 219.295C57.9132 220.42 60.2992 220.694 62.5754 221.216C63.7273 221.545 64.7421 220.667 65.7019 221.27C69.6511 222.56 74.5054 220.941 78.3998 218.718C79.1951 218.499 79.1401 217.511 79.9903 217.676C80.7856 217.621 81.389 216.605 82.0746 216.166C82.3215 215.864 82.5409 215.672 82.8426 215.81C84.9269 216.194 86.0788 213.258 87.8065 212.654C89.0681 212.187 89.5891 211.227 90.4941 210.459C91.7283 209.827 91.7283 209.827 92.935 208.455C96.3083 206.589 98.8039 203.269 102.259 201.266C103.164 200.388 107.031 196.903 110.542 193.5C113.504 191.524 116.274 189.686 118.66 188.039C119.784 188.808 120.909 189.631 121.923 190.564C124.913 193.253 127.436 196.409 129.712 199.811C134.265 206.562 138.323 214.081 144.851 219.377C146.469 220.749 148.443 222.011 150.994 222.368C151.213 222.395 151.433 222.395 151.625 222.395C153.133 223.054 155.601 223.767 159.276 223.795C162.951 223.575 166.626 222.478 169.89 220.31C171.508 219.212 173.016 217.868 174.223 216.194C174.799 215.343 175.375 214.492 175.786 213.587C176.198 212.709 176.499 211.913 176.801 211.117C179.022 204.806 180.531 198.714 181.929 192.402C184.562 179.917 186.756 167.458 188.895 154.945C193.119 129.947 197.068 104.893 199.92 79.8393C200.057 78.4398 200.798 74.6804 200.798 69.3843C200.743 66.695 200.551 63.7589 199.289 60.3836L199.152 60.4934Z" fill="#92EF9A"/>
</svg>
