<svg width="250" height="250" viewBox="0 0 250 250" fill="none" xmlns="http://www.w3.org/2000/svg">
<rect width="250" height="250" fill="#063312"/>
<path d="M39.1757 111.081C58.3797 112.952 77.7605 115.076 97.1414 117.174C100.098 117.477 103.054 117.806 106.036 118.11C105.96 119.146 105.985 120.157 105.884 121.245C105.328 123.52 105.354 123.52 105.328 126.529C103.964 132.925 104.267 139.676 102.928 146.3C102.801 148.828 101.816 161.293 101.412 170.496C101.21 175.098 101.134 178.865 101.437 180.18C101.765 181.494 102.397 180.357 103.812 175.123C106.364 158.638 109.169 142.053 111.949 125.416C112.302 123.217 112.656 121.017 113.035 118.843C127.135 120.309 141.26 121.674 155.309 122.736C159.58 123.166 192.984 126.959 191.089 125.138C191.215 123.95 185.581 123.065 182.624 122.408C176.181 120.031 166.073 119.273 157.912 117.604C155.865 117.073 153.869 117.68 152.302 116.871C145.556 114.646 137.343 114.14 129.333 113.382C127.918 113.078 127.059 113.837 125.922 113.179C124.659 112.724 122.688 113.028 121.172 112.901C120.489 112.952 119.933 112.952 119.605 112.623C118.266 111.789 116.27 111.662 114.223 111.637C116.168 99.6023 118.038 87.5676 119.58 75.5328C120.161 71.8668 125.139 43.2463 123.269 44.7633C122.106 44.561 121.02 49.3648 120.262 51.8931C117.659 57.3037 116.547 66.0011 114.602 72.9287C113.995 74.6479 114.526 76.4177 113.667 77.7324C111.216 83.3958 110.407 90.4751 109.371 97.3521C109.017 98.5657 109.75 99.3495 109.043 100.285C108.537 101.347 108.79 103.066 108.588 104.381C108.613 104.988 108.588 105.468 108.259 105.721C107.223 107.01 107.148 109.058 107.072 111.131C105.126 110.879 103.458 111.03 101.538 110.954C98.8596 110.499 98.8596 110.525 95.3978 110.626C87.9184 109.513 80.1611 110.095 72.4037 109.033C69.4725 109.033 55.019 108.552 44.381 108.527C39.0746 108.527 34.7032 108.578 33.2124 108.957C31.7216 109.336 33.1112 109.918 39.2514 111.131L39.1757 111.081Z" fill="#92EF9A"/>
<path d="M59.3906 80.3347C63.7873 80.7392 68.1839 81.346 72.5806 82.0034C72.7827 82.0286 72.985 82.0539 73.1619 82.0792C73.2124 82.1803 73.2376 82.2815 73.2882 82.4332C72.7828 84.0766 73.743 85.9476 73.2882 87.6415C73.4398 88.3242 73.9199 91.6615 74.5769 94.1392C75.2339 96.617 75.9413 98.2351 77.23 95.5804C77.5333 93.4313 77.7606 91.2823 78.1144 89.1332C78.4428 87.06 78.7714 84.9615 79.0999 82.863C81.3488 83.1158 83.5976 83.2928 85.8465 83.3434C86.3266 83.3939 88.4744 83.7985 90.4453 84.0008C91.4308 84.1272 92.3658 84.1777 93.0481 84.0766C93.7303 84.026 94.1598 83.6974 94.084 83.2928C94.2356 82.0792 92.9974 81.5483 92.3405 81.0932C91.0518 79.1464 88.7019 79.1969 86.9332 78.1351C86.5036 77.7811 85.973 78.489 85.6697 77.8317C84.28 76.163 82.3848 76.2641 80.5402 76.0871C80.3633 75.9607 80.1864 76.1883 80.0348 76.2641C80.3127 74.0645 80.515 71.8396 80.6161 69.6147C80.6666 69.1343 81.0961 67.0358 81.3235 65.1143C81.4498 64.1535 81.5003 63.218 81.4245 62.5354C81.4245 61.878 80.8434 61.3977 80.5655 61.4988C79.58 61.3724 79.024 62.586 78.5945 63.1927C76.7246 64.4569 76.7247 66.7324 75.714 68.4769C75.3602 68.9067 76.0425 69.4377 75.4108 69.7158C73.7936 71.0558 73.8693 72.952 73.6924 74.7471C73.5155 75.0505 74.1978 75.3033 73.743 75.5056C73.5156 75.4803 73.3134 75.5562 72.8081 75.7837C71.1404 75.2528 69.2453 76.3399 67.5018 75.8343C66.8195 76.0113 63.4334 76.5675 60.9066 77.326C58.3798 78.0845 56.7122 79.02 59.4412 80.3347H59.3906Z" fill="#92EF9A"/>
<path d="M136.459 89.3368C142.321 89.3621 148.234 89.893 154.121 90.601C160.009 91.2836 165.871 92.1432 171.734 92.6489C172.391 92.75 175.195 93.3821 177.798 93.812C179.112 94.0142 180.35 94.1659 181.26 94.1659C182.169 94.1912 182.75 93.8372 182.675 93.4326C182.927 92.2191 181.285 91.5112 180.426 90.955C178.758 88.73 175.6 88.5277 173.224 87.2889C172.643 86.8843 171.91 87.5923 171.506 86.8591C169.611 84.9882 167.008 84.9882 164.532 84.7353C164.102 84.5078 163.749 85.3421 163.471 84.7353C163.117 84.3561 162.46 84.7859 161.98 84.7353C161.752 84.8365 161.576 84.8617 161.5 84.5583C160.767 83.0413 158.998 84.6088 157.988 84.0273C157.23 83.6481 156.598 84.0274 155.865 84.1285C155.056 83.8757 155.031 83.8757 153.945 84.255C151.645 83.6987 149.169 84.8364 146.768 84.3813C145.833 84.5836 141.336 85.2662 138.051 86.2017C134.766 87.1625 132.694 88.2496 136.434 89.3368H136.459Z" fill="#92EF9A"/>
<path d="M87.3121 148.727C86.0993 146.35 83.0671 145.591 80.894 144.1C80.3634 143.619 79.58 144.226 79.2768 143.468C77.6344 141.445 75.0317 141.142 72.5806 140.737C72.1763 140.484 71.7721 141.268 71.5194 140.661C71.1909 140.282 70.5088 140.661 70.0287 140.585C69.8012 140.687 69.6244 140.687 69.5486 140.383C68.8916 138.866 67.0723 140.307 66.0868 139.726C65.3287 139.321 64.697 139.726 63.9895 139.776C63.1809 139.524 63.1809 139.524 62.0691 139.878C59.7696 139.321 57.3439 140.535 54.9939 140.181C54.4886 140.307 53.2504 140.611 51.6332 141.015C50.0413 141.445 48.1715 142.027 46.6554 142.684C43.5727 143.999 41.8038 145.313 45.4677 145.971C51.0015 145.339 56.6616 145.465 62.2207 146.173C67.805 146.83 73.2882 147.968 78.7967 149.106C79.4032 149.258 81.9805 150.193 84.3305 151.002C86.7057 151.761 88.9041 152.418 88.9799 151.482C89.46 150.345 88.0197 149.409 87.3121 148.701V148.727Z" fill="#92EF9A"/>
<path d="M63.9388 151.937C62.2459 152.013 61.0583 152.771 60.1739 154.389C59.9465 154.794 59.7696 155.552 59.7444 156.033C59.6433 157.727 60.5024 159.446 61.968 160.28C63.4336 161.115 65.3791 161.013 66.7689 160.027C68.4871 158.789 69.1189 156.235 68.1335 154.339C67.3502 152.822 65.6571 151.861 63.9641 151.937H63.9388Z" fill="#92EF9A"/>
<path d="M65.8592 133.885C67.3248 134.719 69.2705 134.618 70.6603 133.632C72.3785 132.393 73.0102 129.839 72.0247 127.943C71.2414 126.426 69.5483 125.465 67.8553 125.541C66.1624 125.617 64.9748 126.376 64.0904 127.994C63.863 128.398 63.6861 129.157 63.6609 129.637C63.5598 131.331 64.4189 133.05 65.8845 133.885H65.8592Z" fill="#92EF9A"/>
<path d="M168.019 146.072C166.452 143.948 163.344 143.544 161.02 142.255C160.438 141.825 159.731 142.457 159.352 141.749C157.533 139.928 154.955 139.777 152.504 139.423C152.1 139.195 151.721 139.954 151.443 139.398C151.089 139.044 150.432 139.397 149.952 139.372C149.725 139.473 149.548 139.473 149.472 139.195C148.79 137.754 146.996 139.145 145.985 138.563C145.227 138.184 144.595 138.563 143.888 138.588C143.079 138.336 143.079 138.336 141.967 138.664C139.668 138.083 137.217 139.145 134.842 138.664C133.932 138.867 129.459 139.473 126.2 140.459C122.94 141.42 120.944 142.457 124.659 143.493C130.42 143.493 136.257 143.923 142.043 144.707C147.703 145.491 153.111 146.249 159.352 147.134C159.984 147.286 162.713 147.918 165.265 148.499C167.792 149.056 170.142 149.435 170.066 148.55C170.369 147.412 168.777 146.654 167.968 146.098L168.019 146.072Z" fill="#92EF9A"/>
<path d="M165.138 161.368C163.647 159.345 160.742 159.092 158.568 157.929C158.038 157.55 157.381 158.182 157.002 157.524C155.258 155.805 152.858 155.78 150.584 155.552C150.179 155.35 149.876 156.109 149.598 155.552C149.27 155.198 148.663 155.603 148.234 155.578C148.032 155.679 147.855 155.704 147.779 155.426C147.097 154.035 145.48 155.502 144.545 154.971C143.837 154.617 143.256 155.021 142.599 155.097C141.841 154.87 141.841 154.895 140.83 155.249C138.682 154.794 136.433 155.906 134.235 155.578C133.401 155.805 129.282 156.614 126.301 157.676C124.81 158.207 123.622 158.738 123.243 159.244C122.864 159.749 123.268 160.205 125.012 160.66C135.726 160.154 146.516 161.873 157.204 162.809C157.785 162.935 160.337 163.416 162.713 163.896C165.088 164.326 167.261 164.579 167.16 163.719C167.412 162.556 165.922 161.898 165.164 161.393L165.138 161.368Z" fill="#92EF9A"/>
<path d="M228.107 72.7005C226.819 69.5148 225.252 66.5314 223.508 63.8514C216.56 53.0808 208.979 45.6981 206.376 43.4479C206.174 43.2962 206.023 43.1698 205.871 43.0687C204.026 41.5011 201.727 40.1864 199.301 39.3521C195.41 37.9362 191.241 37.3547 187.147 36.9755C179.061 36.3687 170.874 35.9894 164.203 35.1804C154.374 34.0174 147.021 33.992 138.101 33.4864C131.161 32.8459 123.269 32.3824 114.425 32.0958C99.9207 30.857 85.2399 30.0732 70.4832 29.1125C66.794 28.8596 63.0795 28.6068 59.3903 28.3539C57.4699 28.2528 55.8275 28.0253 53.6039 28C51.4814 28.0506 49.384 28.4045 47.3625 29.2135C45.3411 30.0226 43.4713 31.1856 41.9299 33.0313C40.4644 34.8517 39.6809 36.9249 39.1503 38.8464C38.2912 42.5377 37.4069 46.2291 36.5477 49.9457C35.4359 55.4827 32.1762 71.9672 28.8408 92.1684C27.1731 102.256 25.4802 113.305 24.0399 124.354C22.6248 135.403 21.3109 146.527 21.0076 156.716C20.9571 158.992 21.1592 161.217 21.5635 163.315C23.7365 181.064 29.1188 188.168 33.4649 192.188C33.5913 192.365 33.6924 192.542 33.8187 192.694C34.5515 193.705 35.3601 194.691 36.194 195.652C37.0278 196.588 37.8364 197.599 38.8977 198.56C40.995 200.481 43.7745 201.568 46.3519 202.302C56.813 205.083 67.6783 207.409 77.5583 209.558C82.5109 210.721 87.236 210.67 91.1274 211.934C107.552 216.056 127.539 218.179 146.945 220.253C150.407 220.809 152.378 220.126 155.208 221.011C158.341 221.668 162.991 221.694 166.806 221.997C168.499 221.997 169.889 222.022 170.773 222.376C174.336 223.261 179.491 223.236 184.873 222.098C190.255 221.036 195.688 218.331 199.503 215.348C205.113 211.024 207.463 205.513 208.752 199.672C209.661 196.234 209.939 194.792 210.318 192.922C210.672 191.101 210.975 189.028 211.632 184.932C215.903 167.133 218.657 148.651 222.877 130.144C223.433 126.629 225.378 116.263 227.273 103.521C228.234 97.1492 229.194 90.1963 229.699 83.1676C230.053 79.6533 229.522 75.962 228.158 72.8269L228.107 72.7005ZM24.8989 147.816C25.9096 138.639 27.2742 129.436 28.7145 120.233C31.6456 101.827 35.1326 83.4458 38.9481 65.1155L41.9299 51.4121L43.5217 44.5351C44.0523 42.1585 44.482 40.0347 45.1895 38.3913C45.9223 36.7479 46.7055 35.8883 48.2974 35.0287C49.763 34.2449 51.6077 33.8151 53.4523 33.7898C53.9071 33.7898 54.3872 33.7898 54.842 33.8404L56.5856 33.9921L60.0977 34.3208L67.1224 34.9781C85.8716 36.672 104.646 38.1385 123.42 39.5038C142.195 40.8943 160.919 42.3102 179.617 44.08C184.342 44.5351 188.891 44.8638 193.111 45.8499C197.33 46.8106 200.994 48.3528 203.142 51.0834C203.723 51.7408 204.203 52.5498 204.633 53.3336C204.86 53.8393 205.138 54.6483 205.29 55.6091C205.618 57.5053 205.694 59.6797 205.669 61.8793C205.593 66.2786 205.037 70.8295 204.33 75.3299C203.951 77.5801 203.521 79.8303 203.041 82.0552L201.474 88.9575C200.489 93.6601 199.706 98.3122 198.922 102.99C197.406 112.319 196.042 121.623 194.677 130.902C193.313 140.181 191.973 149.46 190.483 158.663C189.725 163.239 188.941 167.841 187.981 172.291C187.021 176.664 185.707 180.76 183.483 184.123C182.978 184.856 182.245 185.893 181.133 187.005C180.097 188.042 178.859 188.952 177.065 189.458C175.246 189.989 172.618 189.989 169.358 190.09C168.524 190.14 167.691 190.166 166.831 190.216C166.073 190.216 165.29 190.267 164.507 190.267C163.016 190.343 161.197 190.191 159.478 190.166C145.353 189.508 127.893 187.738 111.266 185.994C94.6396 184.224 78.7711 182.353 67.6025 181.013C59.7188 180.103 54.286 179.319 52.3656 179.218C51.1527 178.991 50.0157 178.788 48.9545 178.611C48.9039 178.611 48.8534 178.586 48.8028 178.561C46.9583 178.055 44.305 177.347 40.7169 176.386C38.9229 175.881 36.9014 175.274 34.7536 174.49C32.6311 173.706 30.2811 172.67 28.6892 171.229C28.3607 170.951 28.1586 170.748 27.8554 170.369C27.5522 169.99 27.2489 169.636 26.9962 169.231C26.4403 168.473 26.0108 167.638 25.6065 166.779C24.8737 165.034 24.4189 163.138 24.2421 161.09C23.863 156.994 24.4441 152.418 24.8989 147.816Z" fill="#92EF9A"/>
</svg>
