<svg width="250" height="250" viewBox="0 0 250 250" fill="none" xmlns="http://www.w3.org/2000/svg">
<rect width="250" height="250" fill="#063312"/>
<path d="M226.098 116.245C224.706 99.6033 222.21 83.0278 218.676 66.6513C218.212 64.5739 217.704 62.3638 216.755 60.1317C215.827 57.9216 214.347 55.579 212.072 53.9214C209.819 52.2639 207.191 51.5345 204.827 51.2472C202.464 50.9599 200.233 50.982 198.179 51.0262C189.785 51.1146 181.414 51.5566 173.043 52.1533C164.672 52.8384 156.323 53.7667 148.018 54.9601C139.713 56.2199 131.43 57.6785 123.235 59.4907C106.824 63.0931 90.6116 67.7563 74.8409 73.5688C70.8652 74.9611 66.9998 76.5745 63.0682 78.0995C60.4618 79.1603 57.8113 80.3537 55.205 81.7681C54.2773 81.8786 52.3777 82.3869 49.3075 83.5804C45.0446 85.6357 40.87 87.7353 36.6734 90.0558C32.4546 92.288 27.8162 95.6473 25.2319 100.598C23.9067 103.051 23.1778 105.946 23.0452 108.62C22.8906 111.317 23.1557 113.858 23.487 116.267L25.5412 130.257C26.9769 139.561 28.3905 148.865 29.8262 158.17L32.0791 172.071C32.8964 176.602 33.4044 181.574 35.7678 186.459C36.2537 187.475 37.7557 190.636 41.0026 193.332C44.1832 196.072 48.8437 198.061 53.3717 198.813C57.8776 199.586 62.0963 199.41 64.9456 199.166C67.817 198.901 69.4295 198.548 68.9214 198.216C68.9214 198.017 68.7447 197.862 68.4355 197.73C70.7989 198.415 73.4273 198.437 75.5478 198.238C79.5235 198.061 89.3968 196.713 101.987 194.525C114.577 192.359 129.817 189.42 144.373 186.436C158.929 183.453 172.756 180.403 182.519 178.016C192.259 175.674 197.98 173.795 196.125 173.883C195.837 172.933 176.864 177.022 166.682 178.79C155.395 180.359 141.303 182.923 126.504 185.552C111.705 188.182 96.1998 190.923 82.2403 192.448C80.4954 192.58 78.7726 192.757 77.116 192.956C76.2767 193.067 75.5036 193.067 74.7305 193.133C73.9574 193.177 73.1402 193.288 72.4776 193.221C69.6503 193.089 66.9777 192.028 65.0782 190.348C63.0019 188.713 61.1907 186.613 59.8434 184.226C58.496 181.862 57.5021 179.077 56.7732 176.204C55.3596 170.414 54.8736 163.805 53.9901 157.131C52.3336 143.782 50.434 130.014 48.6007 116.378C48.1148 111.449 46.8779 108.952 47.2976 105.151C47.408 103.095 47.4963 100.664 48.1148 98.3657C48.6891 96.0893 49.926 93.9234 51.4721 92.288C52.7753 90.741 54.1448 89.6801 55.2271 89.2602C57.237 88.2657 59.6667 87.0944 62.4718 85.901C65.3653 84.6854 68.4797 83.3815 71.6824 82.0334C74.8851 80.641 78.2204 79.3812 81.401 78.1215C84.6037 76.9502 87.7181 75.8673 90.5232 75.0496C98.8724 72.7069 104.902 70.4747 112.478 68.3973C121.424 66.364 121.424 66.2977 132.733 63.5131C145.323 61.2146 158.09 59.115 171.055 57.7006C177.527 56.9713 184.065 56.485 190.647 56.1535C193.938 56.043 197.251 55.9325 200.52 55.8883C203.723 55.8883 206.881 56.1757 209.046 57.7669C209.885 58.2973 211.012 59.336 212.006 61.2146C213 63.071 213.751 65.7231 214.48 68.9498C215.981 75.3369 217.704 83.3593 219.206 92.2659C220.73 101.172 222.034 110.941 222.961 120.754C223.425 125.66 223.801 130.588 224.066 135.406C224.309 140.224 224.64 144.954 224.242 149.484C223.889 153.993 222.785 158.369 220.509 161.861C219.427 163.629 217.881 165.087 216.247 166.104C214.612 167.121 212.955 167.828 211.387 168.425C205.092 170.701 200.365 172.005 198.068 172.933C195.749 173.817 195.815 174.016 198.996 173.353C200.586 173.021 202.972 172.491 206.285 171.695C207.942 171.275 209.841 170.833 212.028 170.148C214.192 169.419 216.732 168.601 219.383 166.612C220.355 165.839 221.371 164.8 222.034 163.828C222.74 162.877 223.381 161.861 223.911 160.8C225.015 158.7 225.766 156.49 226.252 154.28C227.246 149.86 227.379 145.462 227.335 141.241C227.224 132.887 226.804 124.555 226.12 116.245H226.098Z" fill="#92EF9A"/>
<path d="M191.95 79.9123C195.639 79.2935 199.173 78.962 201.669 78.7852C204.165 78.6305 205.623 78.4537 205.203 78.1222C205.291 77.1498 200.277 76.7298 197.583 76.7298C191.531 75.7132 182.563 77.9233 175.318 79.1167C173.463 79.3377 171.961 80.3544 170.415 80.2218C164.164 80.5312 157.118 82.5865 150.204 84.3546C148.923 84.5314 148.415 85.3491 147.289 85.1944C146.096 85.2165 144.55 86.0342 143.225 86.3878C142.673 86.6309 142.187 86.7856 141.833 86.653C139.094 86.1889 135.03 88.6421 131.96 89.0178C129.707 89.3272 128.161 90.1228 126.195 90.7195C123.832 91.1615 123.832 91.1836 120.96 92.2887C114.4 93.681 108.039 96.3552 101.258 97.8138C96.3325 99.5156 52.2675 113.152 74.0902 109.151C107.244 100.4 141.369 92.8633 174.589 83.7357C176.445 83.2937 184.595 81.1721 191.972 79.9566L191.95 79.9123Z" fill="#92EF9A"/>
<path d="M121.071 131.007C140.95 125.04 161.58 120.311 181.458 114.034C183.667 113.393 201.227 109.084 199.791 108.045C199.548 107.117 196.522 107.669 194.888 107.824C191.067 107.426 185.876 109.106 181.414 109.658C180.266 109.725 179.448 110.587 178.455 110.343C174.545 110.167 170.348 111.603 166.196 112.775C165.423 112.863 165.18 113.614 164.451 113.371C163.7 113.305 162.816 113.968 162.021 114.211C161.69 114.41 161.425 114.52 161.16 114.344C159.371 113.681 157.096 115.736 155.196 115.869C153.805 116.001 152.921 116.642 151.75 117.062C150.315 117.305 150.315 117.327 148.636 118.167C144.66 118.985 140.95 121.106 136.841 121.99C133.926 123.25 107.73 133.129 121.049 131.007H121.071Z" fill="#92EF9A"/>
<path d="M125.51 162.258C136.002 159.385 146.626 156.666 157.295 153.926C167.941 151.185 178.587 148.423 189.035 145.218C191.376 144.577 209.797 140.157 208.317 139.118C208.074 138.146 204.894 138.698 203.171 138.853C199.173 138.433 193.717 140.113 189.035 140.643C187.842 140.687 186.958 141.594 185.92 141.328C181.812 141.107 177.394 142.544 173.043 143.759C172.226 143.826 171.983 144.621 171.21 144.356C170.437 144.29 169.487 144.975 168.67 145.196C168.316 145.395 168.029 145.505 167.764 145.329C165.909 144.621 163.501 146.743 161.513 146.854C160.056 146.986 159.128 147.627 157.891 148.069C156.389 148.312 156.389 148.334 154.6 149.196C150.425 150.014 146.516 152.202 142.209 153.086C140.685 153.727 133.02 156.6 127.498 158.987C124.737 160.18 122.484 161.263 121.822 161.86C121.137 162.457 122.043 162.744 125.532 162.213L125.51 162.258Z" fill="#92EF9A"/>
<path d="M73.516 176.777C73.516 177.374 73.6264 177.971 73.781 178.545C73.9136 179.009 74.1565 180.004 74.5983 180.778C75.4818 182.369 76.9175 183.408 78.3974 184.181C78.7066 184.247 79.3471 184.402 80.1644 184.358C80.9375 184.358 82.0639 184.048 82.7486 183.695C84.3169 183.032 86.1943 182.236 87.7405 181.529C89.3087 180.822 90.5677 180.115 90.9432 179.673C91.3187 179.231 90.7886 178.811 88.7786 178.789C87.2766 179.076 85.7747 179.341 84.2727 179.562L81.9977 179.916L81.4234 180.004C81.2467 180.026 81.2467 180.004 81.1362 180.004C80.9816 180.004 80.8491 179.982 80.7166 179.938C80.1423 179.805 79.7447 179.297 79.568 178.855C79.5238 178.744 79.4797 178.612 79.4797 178.479L79.3471 177.462L79.06 175.164C78.6624 172.18 78.2427 169.219 77.8452 166.235C77.7347 164.976 77.8452 164.114 78.0881 163.694C78.2428 163.274 78.8833 162.743 79.8331 162.434C79.9656 162.412 80.076 162.39 80.4736 162.346C80.8933 162.301 81.4234 162.257 82.0197 162.191C83.2125 162.058 84.6482 161.904 86.0176 161.705C87.3871 161.528 88.6902 161.13 89.5958 160.799C90.5014 160.445 90.9653 160.003 90.7444 159.716C90.5677 158.743 88.7344 158.787 87.7405 158.633C85.4433 157.528 82.3069 158.036 79.6343 157.66C78.7508 157.506 78.2207 158.368 77.4255 158.058C75.9015 157.903 74.0019 158.699 72.8092 160.467C71.6164 162.213 71.4618 164.246 71.506 165.793C71.3735 166.368 72.1465 166.611 71.6827 167.075C71.4397 167.583 71.9698 168.202 72.0582 168.689C72.2128 168.91 72.257 169.064 72.014 169.219C70.8875 170.302 72.6546 171.672 72.3674 172.821C72.1907 173.661 72.7208 174.192 72.9417 174.899C72.8975 175.761 72.8975 175.761 73.4718 176.777H73.516Z" fill="#92EF9A"/>
<path d="M81.3352 126.986C78.4196 127.539 75.5924 128.091 72.743 128.621L70.468 129.041C69.6729 129.174 67.9721 129.793 67.1328 130.876C66.6689 131.406 66.3376 132.047 66.1167 132.732C66.0284 133.042 65.94 133.461 65.8959 133.771C65.8517 134.058 65.8517 134.345 65.8296 134.611C65.8296 135.671 65.9842 136.578 66.0946 137.263C66.5585 140.158 67.0223 143.053 67.5083 145.948L67.685 147.031C67.7954 147.584 67.9279 148.114 68.1488 148.645C68.5685 149.683 69.209 150.634 70.0263 151.385C71.6387 152.932 73.9137 153.706 76.0783 153.462C76.2992 153.462 76.8293 153.396 77.271 153.33C77.6686 153.264 78.1545 153.197 78.7067 153.109C79.8111 152.932 81.1364 152.711 82.3954 152.446C84.9134 151.915 87.2105 151.341 86.7908 150.7C86.6362 149.683 84.9134 149.705 83.9636 149.573C81.7769 148.534 78.7509 149.352 76.2329 149.153C75.8132 148.998 75.3936 149.595 75.1064 149.042C74.3555 148.136 74.0241 147.738 73.7812 147.451C73.6045 147.23 73.4278 146.987 73.2952 146.744C73.229 146.611 73.1627 146.479 73.0965 146.346C73.0523 146.213 73.0081 146.081 72.9418 145.727C72.986 145.285 72.3234 145.153 72.6547 144.733C72.8314 144.313 72.3455 143.805 72.2571 143.34C72.1246 143.164 72.0804 142.987 72.2571 142.854C73.1627 141.815 71.5945 140.534 71.7712 139.451C71.8595 138.655 71.4178 138.147 71.1969 137.484C71.1969 136.666 71.1969 136.622 70.6668 135.738C70.6668 135.229 70.6005 134.81 70.5564 134.478C70.5564 134.279 70.5122 134.235 70.4901 134.147C70.4901 134.058 70.468 133.948 70.4901 133.837C70.5343 133.616 70.6668 133.417 70.8877 133.263C71.2411 133.086 71.7491 132.975 72.3676 132.909C73.1848 132.555 77.3373 131.03 80.297 129.638C83.2789 128.246 85.1122 127.052 81.291 126.964L81.3352 126.986Z" fill="#92EF9A"/>
<path d="M84.891 141.528C84.891 141.528 84.6259 141.506 84.383 141.352C84.2725 141.263 84.0958 141.197 83.9412 141.02C83.7645 140.865 83.6099 140.733 83.2786 140.357C82.0638 139.031 80.6281 137.462 79.3691 136.158C76.8069 133.572 74.9515 132.069 76.3872 136.07C77.2265 137.462 78.0438 138.854 78.8831 140.224L80.098 142.324L81.0919 144.026C81.5116 144.689 81.9312 145.374 82.4393 145.838C83.4332 146.833 84.5376 147.341 85.8187 147.407C87.1218 147.451 88.4029 146.877 89.2202 145.971C90.1037 145.087 90.678 143.716 91.0093 142.125L91.694 139.274C93.2401 132.953 94.7421 126.611 95.7802 120.223C96.0895 118.831 99.0492 108.002 97.5252 108.355C96.5312 108.112 95.8244 109.902 95.2943 110.809C93.3506 112.643 92.8426 115.98 91.5173 118.522C91.0976 119.141 91.6057 119.914 90.943 120.334C89.1539 122.301 88.8005 125.041 88.2262 127.649C87.9833 128.091 88.6238 128.511 88.0716 128.776C87.6961 129.13 87.9833 129.859 87.8728 130.368C87.9391 130.611 87.917 130.81 87.652 130.854C86.2604 131.517 87.3206 133.506 86.658 134.545C86.2163 135.318 86.4592 136.025 86.393 136.799C86.0396 137.639 86.0395 137.639 86.1721 138.854C86.0616 139.142 85.9733 139.451 85.907 139.76C85.8408 140.048 85.8849 139.981 85.8849 140.114C85.8849 140.291 85.9733 140.556 85.9512 140.865C85.9512 141.175 85.8628 141.551 85.6199 141.749C85.3769 141.948 85.0456 141.838 84.8468 141.551L84.891 141.528Z" fill="#92EF9A"/>
<path d="M93.881 177.398C95.3388 177.243 96.7745 176.47 97.658 175.586C98.5857 174.68 99.1379 173.751 99.5796 172.867C100.021 171.983 100.331 171.121 100.596 170.282L101.258 168.027L102.495 163.585C103.29 160.624 104.041 157.662 104.682 154.656C105.035 153.353 108.371 143.297 106.869 143.54C105.897 143.253 105.146 144.91 104.571 145.728C102.606 147.341 101.943 150.479 100.551 152.778C100.11 153.33 100.596 154.104 99.933 154.458C98.0997 156.204 97.6359 158.767 96.9512 161.198C96.6861 161.596 97.3046 162.038 96.7524 162.259C96.3769 162.568 96.6199 163.276 96.4873 163.74C96.5315 163.983 96.5094 164.16 96.2444 164.204C94.8308 164.734 95.8026 166.679 95.1179 167.63C94.632 168.359 94.897 168.933 94.7866 169.552C94.389 170.149 94.4111 170.149 94.389 171.011C93.8147 171.674 93.6601 172.05 93.3288 172.359C93.0196 172.691 92.1581 172.691 91.6059 171.983C91.2967 171.851 90.4132 171.342 89.5739 169.95C88.7345 168.624 87.9394 166.591 86.7467 165.375C85.576 164.093 84.317 163.895 83.9194 164.182C83.4998 164.491 83.6985 164.889 83.9636 165.817C84.5158 166.436 84.9355 167.431 85.2889 168.845C85.6864 170.26 86.0178 172.05 87.2768 173.972C87.9173 174.901 88.7125 175.74 89.7727 176.403C90.8329 177.066 92.2907 177.553 93.8147 177.376L93.881 177.398Z" fill="#92EF9A"/>
</svg>
