<svg width="250" height="250" viewBox="0 0 250 250" fill="none" xmlns="http://www.w3.org/2000/svg">
<rect width="250" height="250" fill="#063312"/>
<path d="M48.3895 176.033C48.7904 176.461 49.0042 176.835 48.8706 177.263C48.8171 178.733 49.6991 180.044 51.2492 181.408C52.7993 182.745 54.5633 183.493 55.6858 184.456C57.4229 185.82 59.0531 185.873 60.7368 186.328C62.5809 187.184 62.6076 187.157 65.1466 187.371C67.7123 188.307 70.3849 188.681 73.0574 189.082C74.3937 189.296 75.73 189.51 77.0663 189.778C78.4293 190.072 79.8457 190.393 81.2087 190.74C82.2778 190.821 85.4046 191.088 89.173 191.195C92.9413 191.302 97.3777 191.275 101.146 191.088C104.914 190.901 107.961 190.714 109.03 190.232C110.099 189.724 109.11 189.323 104.861 188.173C98.2062 187.264 91.4447 186.676 84.9237 185.446C81.6364 184.857 78.6965 184.002 75.2756 182.959C71.9883 181.969 68.6744 181.033 65.5475 180.044C62.4741 179.028 59.5075 177.878 57.8505 176.354C57.4229 175.952 57.1021 175.632 56.7279 175.097C56.327 174.562 55.9529 173.974 55.6055 173.385C54.9374 172.182 54.4029 170.872 53.9753 169.481C52.3183 163.865 52.345 157.207 52.2648 150.415C52.2648 148.917 52.6657 142.312 52.9864 136.268C53.3071 130.225 53.521 124.716 52.5054 125.331C51.1157 125.171 50.3673 129.128 49.8061 131.214C47.4275 135.734 47.3206 142.927 46.1714 148.73C45.7705 150.201 46.6258 151.591 45.8507 152.741C44.0066 157.554 44.1134 163.785 45.717 169.989C45.7971 171.166 46.9464 171.487 46.6257 172.556C46.6257 173.679 47.7482 174.936 48.3362 176.033H48.3895Z" fill="#92EF9A"/>
<path d="M214.73 74.2289C214.41 73.3999 214.169 72.8383 213.928 72.4105C213.848 72.1163 213.741 71.8221 213.661 71.5547C213.929 71.6884 213.768 70.9932 213.02 69.255C212.378 67.8644 211.229 65.8054 209.091 63.4254C206.953 61.0722 203.826 58.3446 199.203 56.232C197.385 55.4565 195.488 54.8949 193.537 54.5206C191.613 54.1462 190.036 53.9323 188.272 53.6381L177.902 51.9534C170.98 50.8303 164.032 49.7339 157.056 48.7445C143.106 46.7656 128.994 45.2948 114.83 44.5193C111.302 44.3321 107.747 44.1717 104.193 44.0647C100.692 43.9578 96.6028 43.7706 92.4069 45.5088C90.349 46.3645 88.3445 47.9155 87.0082 49.7071C85.6185 51.4988 84.79 53.4509 84.1486 55.3228C82.8925 59.1201 82.4382 62.5162 81.6899 66.0193L80.6743 71.2606L80.3268 73.079C78.0017 72.9185 75.7033 72.7848 73.3782 72.7046C70.5987 72.6244 67.8459 72.5174 65.0664 72.5174C62.3136 72.5174 59.5075 72.357 56.4073 72.7313C53.3873 73.079 49.913 74.1487 47.4008 76.6356C44.8885 79.0958 43.7394 82.2245 42.9376 85.0591C41.5746 90.7817 40.6125 96.1834 39.4633 101.799C38.8486 105.997 36.951 118.486 35.9087 133.835C35.3742 141.51 35.0267 149.88 35 158.223C35.0267 166.513 34.7596 175.15 37.5925 182.263C39.0357 185.74 41.0935 188.869 43.9264 190.446C46.7326 192.078 49.7526 192.853 52.3984 193.548C57.7436 194.859 61.9129 195.607 63.9975 195.928C66.0821 196.222 66.1889 195.982 63.5698 194.992C62.2602 194.484 60.2825 193.842 57.5565 192.96C54.9106 192.051 51.3294 191.008 47.7482 189.27C46.3585 188.628 45.1826 187.906 44.3006 187.077C43.4989 186.328 42.6704 185.098 41.9488 183.841C40.559 181.301 39.8107 178.306 39.3831 175.15C39.0089 171.968 38.9554 168.625 39.0356 165.203C39.0891 161.753 39.1959 158.277 39.3563 154.8C39.9977 140.948 41.3609 127.07 43.4989 113.325C44.5679 106.452 45.8507 99.6063 47.2939 92.7873C48.0422 89.3377 48.6568 85.995 49.8862 83.5616C51.1423 81.1014 52.6391 79.9782 55.3384 79.4167C57.9842 78.8551 61.405 79.1492 64.9328 79.2829C68.4071 79.4167 71.9083 79.6306 75.3826 79.8445C82.358 80.2991 89.3067 80.9142 96.2554 81.6897C110.153 83.2407 123.97 85.4335 137.841 87.7867L148.263 89.5516C150.134 89.8457 151.31 90.0864 152.807 90.5678C154.223 91.0224 155.586 91.6374 156.896 92.3862C162.107 95.2742 166.33 100.435 167.292 105.81C168.334 111.479 166.838 118.512 166.036 125.519L163.364 146.457L160.744 167.369C159.836 174.375 159.275 181.274 157.243 187.291C156.762 188.574 155.854 191.115 154.01 193.709C152.139 196.329 149.012 199.298 144.923 200.501C143.907 200.795 142.865 201.009 141.769 201.036C140.566 201.063 139.043 201.036 137.627 201.036C134.74 201.009 131.72 200.929 128.647 200.822C122.5 200.608 116.139 200.314 109.912 199.913C97.458 199.164 85.6185 198.121 77.3336 197.132C69.0219 196.169 64.5854 195.073 65.788 195.928C65.5475 196.597 69.2892 198.068 74.367 199.164C79.4182 200.287 85.6452 201.25 89.9747 201.865C99.4356 203.817 111.542 205.127 124.264 205.956C127.444 206.17 130.678 206.331 133.912 206.464L138.776 206.625L141.208 206.678C142.036 206.678 142.999 206.678 143.854 206.518C151.07 205.555 156.842 200.715 160.317 195.233C163.818 189.778 164.165 183.948 165.582 179.375L168.495 179.429L173.813 179.536L179.132 179.643L181.778 179.696H183.114L184.664 179.643C188.806 179.242 192.655 177.477 195.755 175.017C197.118 173.947 199.63 171.808 201.929 168.171C204.227 164.534 206.018 159.614 207.087 154.105C208.182 148.569 208.77 142.66 209.626 136.509C210.427 130.359 211.256 123.968 212.084 117.737C212.886 111.506 213.635 105.409 214.356 99.8202C214.998 94.2313 215.773 89.2039 215.96 84.7114C216.173 80.2456 215.505 76.5019 214.704 74.2823L214.73 74.2289Z" fill="#92EF9A"/>
<path d="M89.3332 152.207C81.9569 140.815 73.8057 140.494 75.3825 146.136C76.211 149.105 76.8256 152.233 78.2955 156.485C79.7654 160.737 80.2465 161.593 83.4535 166.888C86.5537 171.995 92.7809 171.38 97.2441 166.433C116.887 144.612 117.155 144.692 135.782 121.989C141.181 115.411 135.916 112.175 131.373 114.796C129.395 115.946 125.065 119.502 122.714 121.588C116.486 127.123 99.8364 141.778 89.3065 152.26L89.3332 152.207Z" fill="#92EF9A"/>
<path d="M161.519 109.367C161.519 107.923 160.637 107.067 160.049 105.944C159.649 104.5 159.648 104.473 158.285 103.056C157.831 102.12 157.27 101.238 156.548 100.489C155.854 99.6865 154.891 98.8843 153.956 98.296C152.032 97.0926 150.107 96.3973 148.317 95.4881C147.569 95.3277 145.404 94.8731 142.838 94.5522C140.272 94.2313 137.252 94.0174 134.66 93.9104C132.068 93.8035 129.956 93.6965 129.128 94.0709C128.299 94.472 128.861 94.9533 131.56 96.4776C135.943 97.9484 140.513 98.8843 144.522 100.382C146.5 101.131 148.317 101.986 149.52 103.083C150.161 103.698 150.535 104.072 151.07 104.955C151.604 105.73 152.058 106.559 152.459 107.415C154.036 110.838 154.624 114.876 154.517 119.101C154.464 121.213 154.277 123.353 154.063 125.572C153.822 127.925 153.635 130.278 153.528 132.632C153.421 133.675 152.86 138.247 152.646 142.366C152.406 146.484 152.379 150.201 153.368 149.826C154.758 149.96 155.373 147.313 155.907 145.922C158.179 142.927 158.179 138.06 159.542 134.29C159.996 133.354 159.194 132.364 160.023 131.669C161.092 130.145 161.653 128.433 162.027 126.642C162.428 124.716 162.535 122.631 162.562 120.571C162.776 119.823 161.813 119.422 162.428 118.807C162.802 118.138 162.187 117.122 162.134 116.346C161.974 115.999 161.92 115.705 162.214 115.517C163.738 113.859 161.413 111.346 161.439 109.447L161.519 109.367Z" fill="#92EF9A"/>
</svg>
