<svg width="250" height="250" viewBox="0 0 250 250" fill="none" xmlns="http://www.w3.org/2000/svg">
<rect width="250" height="250" fill="#063312"/>
<path d="M235.05 148.338C234.944 147.894 234.818 147.218 234.607 146.394C234.332 145.57 233.994 144.577 233.614 143.437C232.981 141.113 231.63 138.451 230.237 135.515C227.809 130.974 224.283 126.347 220.652 122.439C218.161 119.44 215.332 116.525 212.165 113.694C211.152 112.448 210.159 111.244 209.23 110.166C208.133 108.899 207.014 107.801 205.895 106.787C206.317 105.794 206.697 104.822 207.056 103.829C208.238 102.541 209.104 100.724 209.885 98.7806C210.56 96.6259 211.32 94.3445 211.869 92.2321C212.27 91.1759 211.722 90.1197 212.355 89.2959C213.875 85.747 213.6 81.2054 212.777 77.0017C212.798 76.2201 212.038 75.9244 212.397 75.2273C212.566 74.4879 211.848 73.5796 211.658 72.798C211.468 72.4812 211.363 72.2066 211.553 71.9531C212.439 70.1153 210.075 67.9606 209.864 66.1017C209.695 64.7075 208.808 63.9682 208.217 62.8908C207.753 61.5389 207.837 61.4755 206.591 60.0813C205.726 58.2858 204.67 56.5748 203.319 55.075C202.031 53.5118 200.743 51.9909 199.54 50.3643C198.97 49.8362 197.429 48.2097 195.275 46.4986C193.587 44.9777 191.433 43.5201 189.491 42.1893C188.435 41.2176 187.316 40.267 186.197 39.3376C185.395 38.4292 184.572 37.5209 183.706 36.6548C178.724 31.8596 172.813 27.8672 166.268 25.4802C159.766 23.0298 152.778 21.8469 145.895 22.0159C138.992 22.1637 132.215 23.3678 125.691 25.5224C119.147 27.6771 112.982 30.9091 107.535 35.0282C102.088 39.1474 97.2537 44.006 93.1369 49.3715C92.6936 49.9841 91.8069 51.0614 90.7302 52.5401C89.7379 54.1033 88.3656 55.9833 87.0989 58.2436C84.4389 62.7219 81.9054 68.5943 80.2165 74.4457C78.4431 80.297 78.0842 86.1907 77.9787 90.2887C78.0842 92.1265 78.1898 93.6052 78.3164 94.6191C72.4685 95.0839 66.6839 96.3302 61.1526 98.168C49.9634 102.097 40.0408 109.152 32.314 117.961C24.5448 126.77 18.718 137.332 15.868 148.781C12.9334 160.167 13.3557 172.651 17.8525 183.699C19.0136 186.445 20.3014 189.107 21.9059 191.621L23.0881 193.501C23.5315 194.177 24.0382 194.663 24.5026 195.254L27.3738 198.634C28.2816 199.817 29.485 200.683 30.5195 201.739C31.6173 202.711 32.6307 203.788 33.8129 204.654C34.4885 205.119 35.164 205.605 35.8185 206.091C35.0374 205.922 35.4807 206.851 38.0141 209.682C47.1555 218.005 58.8514 223.983 71.3707 225.757C73.0174 225.989 74.6852 226.137 76.3531 226.201C90.5402 228.25 102.743 223.919 113.89 215.258C115.452 214.244 117.162 213.146 118.64 211.836C119.717 210.949 120.772 210.104 121.701 209.28C122.588 208.393 123.369 207.59 124.002 206.893C124.467 206.386 124.804 205.985 125.079 205.626C128.372 209.555 132.025 213.019 136.057 215.47C141.187 218.596 146.085 221.025 150.793 222.8C153.707 224.321 157.232 225.651 161.074 226.306C166.395 227.299 172.179 227.51 177.33 226.856C178.661 226.856 179.843 226.37 180.962 226.032C182.081 225.651 183.157 225.398 184.234 225.356C188.52 224.595 193.164 223.032 197.387 220.476C201.757 218.089 205.705 214.815 209.484 211.541C210.877 210.4 211.088 209.217 212.46 208.52C213.875 207.633 215.163 205.541 216.408 204.126C216.894 203.429 217.316 202.901 217.802 202.732C221.053 200.788 223.776 194.853 226.331 191.409C227.365 190.184 227.999 188.917 228.548 187.692C229.118 186.466 229.624 185.241 230.258 183.953C231.799 180.953 231.799 180.89 233.023 176.792C236.507 167.92 236.507 157.907 235.05 148.359V148.338ZM113.51 190.29C113.425 190.079 113.32 189.846 113.193 189.572C112.94 189.065 112.665 188.473 112.327 187.776C112.011 187.016 111.631 186.15 111.23 185.157C110.406 183.15 109.456 180.552 108.675 177.235C107.324 172.165 106.733 166.884 106.944 161.603C107.197 156.322 108.232 151.041 109.879 145.951C113.172 135.748 119.168 126.411 126.726 118.722C134.347 111.117 143.763 105.181 154.108 102.52C164.537 99.6889 175.642 99.3298 185.712 102.625C195.782 105.836 204.48 112.786 210.117 121.764C215.838 130.72 218.52 141.557 218.203 152.245C217.886 162.955 214.614 173.517 208.766 182.643C203.319 192.022 195.254 199.5 185.796 204.675C183.706 205.795 177.879 208.731 169.773 210.484C161.729 212.301 151.426 212.47 142.222 209.808C132.954 207.295 125.184 202.119 120.519 197.662C118.133 195.486 116.402 193.543 115.325 192.36C114.312 191.304 113.869 190.881 113.89 191.198C113.826 191.008 113.7 190.691 113.51 190.269V190.29ZM79.4776 91.5773C79.4776 90.3521 79.752 89.0002 79.8787 87.6905C80.0687 86.4019 80.111 85.1344 80.3854 84.1416C81.5677 79.7478 83.151 74.3401 85.4311 68.8901C87.8167 63.5034 90.9624 58.1802 94.4036 53.8709C96.2614 51.8007 97.3592 49.4137 99.2171 48.104C102.595 44.9565 106.501 41.8513 110.639 38.8095C114.84 35.831 119.484 33.2538 124.319 31.2471C126.135 30.7612 126.895 29.874 128.499 29.7472C130.167 29.4515 132.574 28.5221 134.516 28.0784C135.381 27.825 136.099 27.6771 136.606 27.8038C138.527 27.9094 141.082 27.5926 143.742 27.2757C146.402 26.98 149.21 26.8532 151.426 27.1701C154.699 27.7404 157.148 27.7827 160.082 28.4798C161.75 28.9868 162.595 29.2825 163.523 29.6205C164.452 29.9374 165.571 30.1697 167.64 30.9936C172.031 33.1482 176.254 35.7887 180.033 39.0841C183.812 42.3794 187.147 46.3718 189.512 50.9346C190.483 52.5612 193.439 57.5676 195.381 64.3907C196.373 67.7916 197.049 71.6151 197.45 75.4808C197.851 79.3676 197.724 83.2755 197.45 86.8666C197.07 91.0281 196.331 94.6614 195.698 97.4286C195.423 98.168 195.149 98.8862 194.832 99.6255C193.882 99.1186 193.08 98.7383 192.362 98.4215C191.37 97.999 190.589 97.5765 189.681 97.3019C188.794 97.0273 187.823 96.7527 186.577 96.3724C185.332 96.0345 183.77 95.8021 181.701 95.4007C177.183 94.4924 172.559 94.1333 167.936 94.3868C163.355 94.7248 158.773 95.4007 154.361 96.6893C145.388 98.9496 137.028 103.47 129.66 109.131C128.626 109.997 126.768 111.582 124.551 113.863L124.044 113.208C123.601 112.617 123.094 112.068 122.588 111.518C121.596 110.42 120.582 109.321 119.484 108.329C118.429 107.272 117.289 106.322 116.106 105.414C114.966 104.442 113.7 103.639 112.475 102.794C107.514 99.4988 101.919 97.154 96.1136 95.8232C90.5612 94.5558 84.9033 94.1967 79.2876 94.5558C79.3931 93.7531 79.4565 92.718 79.5198 91.5562L79.4776 91.5773ZM22.1803 181.502C19.0558 173.37 18.1902 164.096 19.6047 155.224C19.9003 153.64 20.0903 152.414 20.217 151.232C20.4281 150.07 20.6392 148.971 21.1881 147.746C22.2226 145 23.4048 140.817 24.8826 137.712C25.4949 136.297 26.0227 135.156 26.5927 134.544C28.5772 131.924 30.8784 128.143 33.6651 124.404C36.4097 120.665 39.6608 117.053 42.7432 114.645C47.2611 111.096 50.6179 108.455 55.178 105.942C57.9225 104.632 59.3159 104.062 60.9204 103.428C61.7226 103.111 62.546 102.731 63.6649 102.351C64.7627 101.928 66.135 101.442 68.0139 100.935C76.3108 98.9707 85.0089 98.1891 93.538 99.6889C102.046 101.083 110.259 105.054 116.613 111.18C117.225 111.73 118.175 112.532 119.231 113.694C119.759 114.264 120.413 114.856 121.004 115.616C121.216 115.87 121.448 116.145 121.701 116.419L121.954 116.715C119.041 119.989 115.79 124.193 112.897 129.241C109.752 134.649 107.134 140.986 105.508 147.535C104.432 151.992 103.883 156.555 103.841 160.927C103.798 163.103 103.841 165.258 104.052 167.307C104.664 173.433 106.437 178.756 108.211 182.77C109.287 184.713 110.069 186.466 110.997 187.755C111.905 189.044 112.623 190.036 113.151 190.67C113.531 191.114 113.784 191.388 113.911 191.473C113.911 191.536 113.911 191.6 113.911 191.663C113.784 191.578 113.721 191.6 113.826 191.811C113.742 191.874 113.784 192.085 113.953 192.423C114.038 192.592 114.143 192.782 114.27 193.015L114.481 193.374C114.586 193.543 114.713 193.733 114.84 193.902C115.093 194.282 115.368 194.663 115.642 195.064C115.79 195.275 115.938 195.486 116.085 195.698L116.318 196.014C116.318 196.014 116.106 196.205 116.022 196.289C115.156 197.007 114.249 197.747 113.299 198.549C112.475 199.225 111.631 199.944 110.765 200.641C109.836 201.274 108.886 201.929 107.957 202.563C107.028 203.176 106.163 203.851 105.255 204.38C104.347 204.887 103.482 205.351 102.722 205.774C95.7759 209.217 86.55 212.555 76.4586 213.484C67.7395 214.287 58.5559 212.998 50.7657 209.935C46.1422 207.231 39.2175 202.943 35.5018 200.725C30.1395 195.508 25.136 189.213 22.2437 181.46L22.1803 181.502Z" fill="#92EF9A"/>
<path d="M101.371 193.987C99.5549 193.945 98.436 195.106 97.1059 195.972C96.7892 196.015 97.0004 196.627 96.5781 196.416C96.2192 196.332 96.1137 196.881 95.8393 197.029C95.7759 197.176 95.6914 197.261 95.5225 197.113C94.5092 196.458 94.2559 198.106 93.4536 198.064C92.9047 198.064 92.7147 198.571 92.3347 198.845C91.7858 198.93 91.7858 198.93 91.3002 199.521C89.8224 199.88 88.6823 201.296 87.0778 201.528C86.8245 201.697 86.0222 202.141 85.03 202.69C84.0166 203.218 82.8133 203.809 81.7366 204.338C79.6043 205.351 78.0842 206.323 80.9343 206.809C85.2411 206.302 89.5268 205.309 93.6014 203.683C97.6759 202.077 101.518 199.754 104.601 196.691C104.96 196.374 106.648 195.064 107.936 193.606C108.57 192.867 109.161 192.128 109.393 191.494C109.667 190.86 109.731 190.438 109.435 190.353C108.781 189.825 107.852 190.628 107.218 190.924C105.297 191.093 104.031 192.719 102.321 193.332C101.856 193.416 101.941 194.135 101.371 193.987Z" fill="#92EF9A"/>
<path d="M79.0341 200.324C82.7709 199.098 86.5077 197.641 90.1178 195.951C93.7068 194.219 97.1691 192.127 100.167 189.508C100.526 189.255 102.151 188.177 103.482 187.015C104.157 186.445 104.769 185.854 105.086 185.304C105.424 184.776 105.508 184.354 105.234 184.206C104.664 183.572 103.65 184.143 103.017 184.312C101.159 184.143 99.787 185.558 98.1191 186.023C97.6547 186.065 97.718 186.783 97.1691 186.572C95.4168 186.403 94.2979 187.501 93.0101 188.346C92.7145 188.389 92.9256 189.001 92.5034 188.769C92.1656 188.684 92.0601 189.212 91.8067 189.36C91.7434 189.508 91.6589 189.593 91.49 189.445C90.4978 188.811 90.3078 190.416 89.5478 190.438C89.02 190.459 88.8722 190.966 88.5133 191.261C87.9855 191.367 88.0066 191.388 87.5633 192.001C86.1699 192.444 85.241 193.944 83.7632 194.367C83.3198 194.768 81.0186 196.5 79.2452 197.873C78.3585 198.549 77.6619 199.246 77.4719 199.584C77.2607 199.88 77.7041 200.429 79.013 200.345L79.0341 200.324Z" fill="#92EF9A"/>
<path d="M181.891 58.581C181.975 59.1513 182.735 59.2781 182.545 59.8906C182.418 62.0031 183.58 63.693 184.361 65.6153C184.361 65.9955 185.036 65.9533 184.762 66.3757C184.656 66.7771 185.205 67.0939 185.332 67.4531C185.48 67.5798 185.543 67.7065 185.374 67.8755C184.614 68.8895 186.24 69.7133 186.092 70.685C186.029 71.3821 186.514 71.7412 186.725 72.3116C186.725 73.0087 186.725 73.0087 187.253 73.8114C187.38 75.7337 188.562 77.5926 188.478 79.6416C188.583 80.0219 188.858 81.1203 189.153 82.5356C189.28 83.2116 189.428 83.972 189.575 84.7747C189.681 85.5141 189.808 86.2957 189.913 87.0773C190.124 88.5348 190.314 89.7812 190.652 90.267C190.969 90.7317 191.433 90.436 192.088 88.7461C192.7 83.2961 192.784 77.7193 191.729 72.2904C191.243 69.5654 190.483 66.8827 189.449 64.3267C188.456 61.7496 187.148 59.2992 185.585 57.0389C185.269 56.5108 183.96 54.166 182.376 52.2649C180.856 50.3215 179.083 48.9062 178.872 49.5399C178.217 50.1736 179.062 51.4833 179.4 52.286C179.547 54.4829 181.321 56.4474 181.912 58.6443L181.891 58.581Z" fill="#92EF9A"/>
<path d="M173.425 66.3975C173.488 66.8411 174.185 66.7566 174.016 67.3058C173.889 69.038 174.924 70.0942 175.663 71.4039C175.663 71.6996 176.296 71.5306 176.043 71.9108C175.937 72.2277 176.465 72.3756 176.57 72.629C176.718 72.7135 176.781 72.798 176.613 72.9459C175.874 73.8542 177.436 74.1922 177.33 74.9316C177.267 75.4597 177.753 75.6498 177.964 76.03C177.964 76.5581 177.964 76.537 178.492 77.0651C178.639 78.4593 179.843 79.7056 179.822 81.2265C179.927 81.5012 180.244 82.2827 180.603 83.3178C180.941 84.3318 181.299 85.5781 181.595 86.6977C181.891 87.7961 182.144 88.7678 182.524 89.1269C182.883 89.5071 183.305 89.2959 183.854 87.9651C184.255 83.7403 183.959 79.4099 182.819 75.3118C181.722 71.1926 179.695 67.2635 176.76 64.2005C176.465 63.8414 175.219 62.1727 173.763 60.9264C172.348 59.6378 170.765 58.8773 170.617 59.4899C170.089 60.2292 170.87 61.1587 171.166 61.7502C171.335 63.6091 172.897 64.7709 173.425 66.4186V66.3975Z" fill="#92EF9A"/>
<path d="M187.865 187.606C187.232 187.775 187.105 188.367 186.704 188.768C186.092 189.021 186.092 189.021 185.606 189.782C183.981 190.563 182.904 192.401 181.11 193.119C180.835 193.373 180.012 194.07 178.977 194.915C178.006 195.675 176.803 196.626 175.557 197.598C173.362 199.288 171.884 200.703 175.241 200.428C179.991 198.633 184.635 196.394 188.921 193.563C193.207 190.732 197.112 187.247 200.11 183.128C200.469 182.705 202.158 180.867 203.404 178.945C204.734 177.086 205.43 175.08 204.797 175.016C203.995 174.551 203.024 175.629 202.369 176.115C200.3 176.748 199.055 178.882 197.239 180.001C196.732 180.234 196.901 180.994 196.247 180.973C194.241 181.417 193.101 183.001 191.687 184.311C191.349 184.437 191.644 185.05 191.159 184.944C190.758 184.944 190.694 185.578 190.399 185.81C190.335 186.001 190.251 186.106 190.04 185.98C188.815 185.557 188.752 187.395 187.823 187.585L187.865 187.606Z" fill="#92EF9A"/>
<path d="M164.241 195.001C166.184 195.571 168.084 194.304 170.005 193.924C170.532 193.903 170.596 193.142 171.166 193.396C173.129 193.628 174.586 192.403 176.085 191.389C176.423 191.304 176.212 190.67 176.655 190.861C177.035 190.903 177.183 190.333 177.457 190.121C177.52 189.952 177.605 189.868 177.816 189.995C178.977 190.523 179.146 188.748 179.991 188.6C180.603 188.452 180.73 187.903 181.067 187.502C181.637 187.248 181.637 187.248 182.038 186.488C183.558 185.664 184.234 183.742 185.691 182.77C186.071 182.2 187.971 179.454 188.984 177.193C189.512 176.074 189.786 175.06 189.744 174.595C189.723 174.151 189.069 173.983 187.907 174.701C186.493 176.179 185.057 177.658 183.453 178.989C181.87 180.341 180.223 181.608 178.534 182.855C175.156 185.326 171.673 187.629 168.252 190.058C167.851 190.269 166.078 191.241 164.41 192.149C163.608 192.635 162.827 193.058 162.341 193.501C161.835 193.902 161.666 194.388 161.877 194.578C162.257 195.36 163.481 195.043 164.22 195.001H164.241Z" fill="#92EF9A"/>
</svg>
