<svg width="250" height="250" viewBox="0 0 250 250" fill="none" xmlns="http://www.w3.org/2000/svg">
<rect width="250" height="250" fill="#063312"/>
<path d="M211.162 98.337C210.623 96.23 209.13 90.5704 206.093 83.7838C203.057 77.0462 198.576 68.863 191.989 62.6399C187.215 58.1073 182.366 54.2118 178.277 51.1492C176.073 49.3607 173.674 47.6457 171.127 46.0776C169.462 44.9996 168.287 44.3381 167.797 44.2156C167.552 44.0931 167.307 43.9461 167.062 43.8481C163.683 41.6431 160.157 39.928 156.24 38.262C154.232 37.2085 152.567 36.792 151.244 36.2285C149.898 35.6895 148.722 35.3465 147.474 35.0769C146.225 34.7829 144.903 34.4399 143.188 34.1459C141.45 33.9744 139.32 33.5824 136.479 33.4354C130.26 32.6269 123.967 33.0434 117.796 33.8764C114.736 34.4644 111.626 34.9544 108.663 35.8855C107.169 36.3265 105.651 36.6695 104.158 37.184L99.75 38.752C87.9477 43.0641 77.2472 50.1447 67.869 58.5729C64.5144 61.8314 54.5241 72.0481 46.8109 87.2628C42.9421 94.809 39.7344 103.58 37.8245 112.572C35.988 121.588 35.4738 130.849 36.5757 139.155C37.5551 147.46 39.9793 154.713 42.6238 160.078C45.2683 165.468 48.0107 169.045 49.4309 170.76C50.8756 172.475 51.047 172.328 49.6758 169.756C49.3085 169.094 48.8677 168.286 48.3535 167.355C47.8638 166.35 47.3007 165.199 46.664 163.851C46.0029 162.504 45.4397 160.911 44.6806 159.172C44.0929 157.359 43.3094 155.399 42.7462 153.12C40.6894 146.211 39.661 138.959 39.7344 131.658C39.8813 124.356 41.0322 117.055 43.0401 109.95C47.0068 95.7155 54.4751 82.4363 64.1471 71.1661C73.7947 59.8959 86.0622 50.7817 99.799 45.5631C113.732 40.467 128.864 38.164 143.091 41.4226C157.292 44.5341 169.903 53.3543 178.155 65.3595C186.529 77.3402 190.545 92.1874 190.569 106.888C190.569 121.661 186.627 136.337 179.306 149.322C172.523 162.626 162.263 173.749 149.922 181.981C147.18 183.697 139.614 188.621 128.766 192.051C118.017 195.579 103.937 197.343 91.0085 194.869C78.0553 192.566 66.8651 186.245 60.1804 180.438C56.7523 177.62 54.3037 175.072 52.7611 173.48C51.1695 171.912 50.5328 171.324 50.8266 172.059C50.5328 172.255 51.0715 173.21 52.0755 174.705C52.6631 175.636 53.5201 176.714 54.5241 177.89C55.3811 179.482 56.2871 181.001 57.2665 182.422C57.291 182.594 57.4624 182.961 57.9032 183.623C58.9561 185.191 61.1843 188.327 65.5918 192.737C72.7418 199.181 80.8712 204.644 89.7596 208.54C98.6236 212.435 108.173 214.959 117.894 215.719C127.615 216.552 137.532 215.719 146.959 213.048C156.411 210.451 165.324 206.139 173.38 200.7C175.339 199.279 177.396 197.956 179.281 196.437L184.864 191.782C188.365 188.425 191.916 185.24 195.124 181.393C201.49 173.774 206.045 164.88 209.228 155.668C212.264 146.382 214.002 136.754 214.345 127.052C214.615 117.374 213.635 107.647 211.211 98.2635L211.162 98.337Z" fill="#92EF9A"/>
<path d="M80.7242 182.055C81.4098 182.423 82.2179 182.815 83.1483 183.256C84.0788 183.672 85.1562 183.966 86.307 184.358C90.8125 185.975 96.6157 186.612 100.656 186.98C109.544 188.107 121.151 186.539 132.292 182.031C143.384 177.376 153.791 169.903 161.798 161.793C163.757 159.711 165.495 157.555 167.038 155.472C168.483 153.316 169.878 151.307 171.47 149.617C177.298 142.021 182.146 132.197 184.105 121.27C186.284 110.391 185.574 98.5822 182.391 87.655C181.828 85.695 181.166 84.2495 180.554 82.9019C179.869 81.5789 179.257 80.3294 178.865 78.6634C177.543 75.1598 174.482 70.5782 171.764 67.2217C170.539 65.7026 169.413 64.6491 168.972 63.6201C166.818 60.0675 162.557 56.0005 157.366 53.0359C152.199 49.9734 146.347 48.0133 141.597 46.5923C134.496 44.5343 128.889 44.8038 122.4 45.4163C118.604 45.8083 116.67 45.9553 114.589 46.5188C113.536 46.7638 112.409 47.0333 110.989 47.4498C109.618 47.9398 107.904 48.5523 105.651 49.3609C95.6608 52.6439 86.356 58.0095 78.2511 64.8696C70.1217 71.7297 63.2166 79.9864 57.5358 89.1005C55.4789 92.4816 49.7492 103.311 47.6923 117.717C46.6884 124.871 46.4681 132.809 47.7903 140.527C48.5494 144.349 49.3084 148.196 50.6062 151.773C51.8795 155.35 53.5201 158.706 55.381 161.72C59.1029 167.747 63.7308 172.279 67.82 175.22C71.9092 178.184 75.4107 179.654 77.1982 180.242C78.9856 180.83 79.0591 180.61 77.0023 179.311C75.0189 177.939 70.7093 175.514 65.5183 169.731C61.3801 165.395 58.1234 160.225 55.7973 154.664C54.6464 151.871 53.7649 148.98 53.1772 145.991L52.3203 141.458C52.0264 139.939 52.0019 138.395 51.8305 136.852C51.4143 133.789 51.6836 130.678 51.6101 127.615C51.9774 124.553 52.0509 121.441 52.761 118.403C53.7404 112.278 55.8218 106.349 58.2704 100.64C68.3832 77.8059 89.7841 60.2636 113.878 54.1139C125.852 51.0759 138.683 51.9334 149.457 57.4705C160.255 62.9831 168.581 72.8323 173.233 84.176C177.934 95.5442 179.085 108.358 176.857 120.535C174.629 132.736 169.144 144.226 161.161 153.978C159.374 156.085 154.623 162.014 146.984 167.845C139.393 173.701 128.864 179.213 118.041 181.884C107.194 184.481 96.4198 184.358 89.0985 182.839C87.2865 182.423 85.6459 182.08 84.2257 181.761C82.879 181.345 81.7281 181.002 80.7976 180.732C78.9856 180.218 78.2021 180.12 78.7408 180.561C78.6184 180.855 79.353 181.394 80.6997 182.129L80.7242 182.055Z" fill="#92EF9A"/>
<path d="M125.412 90.0311C121.812 92.7751 119.241 97.1852 116.499 101.326C115.862 101.987 116.254 102.82 115.421 103.139C114.711 103.629 114.442 104.903 113.928 105.687C113.781 106.103 113.634 106.397 113.291 106.446C111.185 107.181 110.793 110.709 109.226 112.228C108.957 112.522 108.712 112.816 108.516 113.11C108.149 113.65 107.879 114.287 107.757 114.899C107.463 116.149 107.586 117.398 107.953 118.599C108.296 120.069 108.761 120.73 109.349 121.343C109.642 121.637 110.034 121.955 110.5 122.2C110.793 122.323 111.161 122.494 111.65 122.715C115.225 125.655 119.706 127.541 123.355 130.726C124.922 131.633 132.537 136.435 138.365 139.546C141.279 141.09 143.752 142.217 144.78 142.315C145.809 142.413 145.319 141.555 142.503 138.958C137.679 135.553 133.002 131.902 128.276 128.154L121.151 122.543L117.527 119.775L114.05 117.178C114.05 117.178 113.952 116.908 113.977 116.859L116.107 113.747L121.151 106.25C124.506 101.228 127.787 96.1807 130.945 91.0846C131.68 89.9821 135.059 85.18 138.022 80.6964C139.491 78.4424 140.862 76.2864 141.744 74.6938C142.674 73.1258 142.846 71.9743 142.405 72.0723C141.548 71.4843 139.271 74.2038 137.949 75.5513C134.276 78.0259 130.994 83.3915 127.493 87.189C126.538 88.0956 126.489 89.4921 125.412 90.0066V90.0311Z" fill="#92EF9A"/>
<path d="M83.0016 172.843C83.2954 174.386 83.8096 175.538 85.3522 174.901C86.2582 172.99 87.4335 171.226 88.6088 169.462C89.7842 167.698 90.9106 165.909 91.6452 163.876C91.7676 163.68 92.4042 162.847 92.845 162.014C93.3347 161.205 93.4081 160.25 92.747 159.956C91.841 159.392 91.2779 159.784 90.8127 159.882C89.0741 159.662 88.7313 160.74 87.6049 161.107C87.2376 161.156 87.7518 161.695 87.1642 161.548C85.5726 161.45 85.3767 162.381 84.9359 163.141C84.7155 163.19 85.3278 163.68 84.838 163.533C84.5197 163.508 84.789 163.925 84.7156 164.072C84.789 164.194 84.7645 164.268 84.5441 164.17C83.2708 163.753 84.3483 165.052 83.7606 165.15C83.3689 165.248 83.6382 165.64 83.6137 165.934C83.3199 166.105 83.3198 166.105 83.4912 166.644C82.7811 167.183 83.3933 168.531 82.7322 169.119C82.7812 169.511 82.7322 171.324 83.0016 172.843Z" fill="#92EF9A"/>
<path d="M78.1288 105.81C78.5941 106.03 79.0593 106.177 79.4266 106.177C79.8184 106.177 80.1612 105.932 80.2836 105.54C80.8223 104.487 80.3816 103.874 80.2347 103.36C80.3326 101.424 79.1572 101.179 78.6675 99.9785C78.5941 99.5865 78.0309 100.199 78.1533 99.5375C78.1288 97.8225 77.1004 97.7 76.2434 97.308C76.17 97.0875 75.7047 97.798 75.8271 97.259C75.8271 96.8915 75.4109 97.259 75.2395 97.1855C75.117 97.259 75.0436 97.259 75.1171 96.9895C75.4354 95.5929 74.1376 96.867 73.9907 96.279C73.8682 95.8624 73.452 96.2055 73.1581 96.2055C72.9622 95.9115 72.9378 95.9115 72.3746 96.1565C71.738 95.4704 70.3423 96.23 69.6811 95.5439C69.2649 95.6174 67.3304 95.7154 65.7388 96.132C64.1472 96.5485 62.9475 97.21 63.8045 98.729C65.8858 99.611 67.8936 100.665 69.8525 101.816C71.8114 102.968 73.8193 104.046 76.0476 104.658C76.2679 104.756 77.1983 105.393 78.1288 105.81Z" fill="#92EF9A"/>
<path d="M136.136 69.6714C137.801 66.5598 140.593 64.2078 142.062 60.9247C142.282 60.6062 144.437 58.4257 143.237 57.7887C142.454 57.2007 141.915 57.4702 141.523 57.5192C140.03 57.1762 139.687 58.0582 138.708 58.2787C138.389 58.2787 138.805 58.7932 138.291 58.6217C136.944 58.4012 136.7 59.1607 136.308 59.7732C136.112 59.7977 136.626 60.2632 136.21 60.0917C135.941 60.0427 136.161 60.4102 136.087 60.5327C136.136 60.6552 136.136 60.7042 135.916 60.5817C134.839 60.1162 135.696 61.3167 135.206 61.3412C134.863 61.3902 135.084 61.7577 135.035 61.9782C134.765 62.0762 134.79 62.1007 134.888 62.5663C134.251 62.9583 134.716 64.1588 134.104 64.5753C134.153 65.2613 133.541 70.6269 136.112 69.6959L136.136 69.6714Z" fill="#92EF9A"/>
<path d="M154.256 143.271C153.962 143.369 152.616 143.565 151.514 143.957C150.387 144.373 149.53 144.888 149.971 146.088C152.689 147.191 154.893 149.347 157.807 150.082C157.954 150.155 158.517 150.596 159.129 150.866C159.692 151.209 160.476 150.988 160.672 150.449C161.112 149.641 160.843 149.224 160.794 148.832C161.039 147.313 160.255 147.166 160.011 146.26C160.011 145.966 159.57 146.456 159.692 145.941C159.815 144.594 159.129 144.545 158.59 144.3C158.566 144.128 158.174 144.716 158.321 144.3C158.37 144.03 158.027 144.3 157.929 144.3C157.831 144.373 157.782 144.373 157.856 144.153C158.199 143.025 157.195 144.104 157.146 143.638C157.097 143.32 156.778 143.614 156.582 143.638C156.485 143.418 156.46 143.418 156.068 143.638C155.701 143.123 154.673 143.81 154.256 143.32V143.271Z" fill="#92EF9A"/>
<path d="M168.042 100.346C168.483 100.297 172.058 100.665 171.764 99.1458C171.715 98.0678 171.103 97.7983 170.76 97.4798C170.001 95.9362 168.948 96.2547 168.042 95.5442C167.822 95.2747 167.65 95.9852 167.43 95.4217C166.646 94.0742 165.789 94.4172 164.932 94.4907C164.785 94.3437 164.736 95.1032 164.589 94.6377C164.442 94.3437 164.247 94.8092 164.1 94.8337C164.026 94.9562 163.977 94.9807 163.928 94.7357C163.561 93.4862 163.096 95.0542 162.729 94.6377C162.459 94.3682 162.263 94.8092 162.018 94.9317C161.725 94.7847 161.725 94.7847 161.382 95.2257C160.574 94.9562 159.815 96.1812 158.982 95.9607C158.394 96.4997 153.081 99.7093 155.774 101.302C159.815 100.591 163.977 101.375 168.018 100.322L168.042 100.346Z" fill="#92EF9A"/>
<path d="M93.5551 72.7092C93.4571 72.8807 94.1672 72.7092 93.7754 72.9543C93.555 73.1503 94.0203 73.1748 94.0938 73.2973C94.2162 73.2973 94.2651 73.3463 94.0447 73.4688C92.9918 74.1303 94.5589 74.0568 94.2651 74.4978C94.0937 74.8163 94.5345 74.8408 94.7303 74.9878C94.6569 75.2818 94.6814 75.2818 95.1466 75.4288C95.0977 76.1883 96.4199 76.4578 96.4199 77.2173C97.081 77.5603 101.219 81.1374 101.954 78.4423C100.338 75.2573 100.044 71.5087 98.1094 68.4217C98.036 68.2502 97.8646 67.3682 97.5463 66.6331C97.2525 65.8981 96.7138 65.3101 96.0771 65.6286C95.0977 65.9716 95.0242 66.5596 94.8038 66.9271C93.5795 68.0052 94.1427 68.8137 93.7264 69.7692C93.5305 70.0387 94.2407 69.9897 93.7754 70.3082C92.747 71.3372 93.2857 71.9497 93.5551 72.6357V72.7092Z" fill="#92EF9A"/>
<path d="M71.297 136.288C71.0276 136.043 70.8807 136.754 70.6114 136.215C69.6319 134.99 68.6769 135.406 67.7465 135.627C67.5506 135.504 67.5995 136.264 67.3547 135.823C67.1588 135.578 67.0119 136.043 66.816 136.092C66.767 136.215 66.6936 136.264 66.6201 136.019C66.0325 134.867 65.7386 136.484 65.2489 136.166C64.8816 135.97 64.7591 136.435 64.5143 136.607C64.1715 136.533 64.1715 136.533 63.8532 137.023C62.8982 136.95 62.335 138.322 61.3801 138.322C61.1107 138.641 59.7395 139.964 58.9559 141.287C58.1479 142.61 57.8541 143.786 59.3967 144.153C61.3066 143.345 63.3634 142.806 65.4203 142.414C67.4771 142.022 69.534 141.703 71.5663 141.042C71.7867 140.993 72.8151 141.017 73.7456 140.895C74.6761 140.797 75.5086 140.429 75.3616 139.694C75.3127 138.641 74.6516 138.396 74.2843 138.077C73.4273 136.558 72.252 136.926 71.2235 136.313L71.297 136.288Z" fill="#92EF9A"/>
<path d="M119.927 168.163C119.78 168.776 121.028 169.045 120.906 169.658C121.175 169.805 122.253 170.638 123.33 171.177C123.869 171.447 124.408 171.643 124.873 171.643C125.338 171.643 125.779 171.422 126.122 170.883C125.142 168.212 125.387 165.199 123.991 162.626C123.942 162.479 123.918 161.769 123.722 161.156C123.575 160.544 123.134 160.054 122.424 160.299C121.396 160.544 121.2 161.009 120.931 161.303C119.535 162.136 119.951 162.798 119.388 163.557C119.168 163.778 119.878 163.753 119.339 163.998C118.164 164.807 118.604 165.321 118.776 165.885C118.653 166.032 119.388 165.885 118.947 166.105C118.702 166.252 119.168 166.301 119.192 166.399C119.314 166.399 119.339 166.448 119.119 166.546C117.968 167.036 119.535 167.036 119.192 167.379C118.972 167.624 119.412 167.673 119.559 167.796C119.461 168.016 119.461 168.016 119.902 168.163H119.927Z" fill="#92EF9A"/>
</svg>
