<svg width="250" height="250" viewBox="0 0 250 250" fill="none" xmlns="http://www.w3.org/2000/svg">
<rect width="250" height="250" fill="#063312"/>
<path d="M150.586 114.172C153.097 112.46 154.364 111.415 156.697 109.325C159.363 106.968 156.808 102.366 154.053 104.233C152.119 105.545 149.764 107.39 147.853 108.791C147.031 109.391 146.12 110.77 146.609 111.726C147.075 112.66 147.942 115.995 150.586 114.194V114.172Z" fill="#92EF9A"/>
<path d="M164.541 103.633C167.052 101.921 168.318 100.876 170.651 98.7856C173.318 96.4289 170.762 91.8265 168.007 93.6941C166.074 95.0059 163.718 96.8513 161.807 98.252C160.985 98.8523 160.074 100.231 160.563 101.187C161.03 102.121 161.896 105.456 164.541 103.655V103.633Z" fill="#92EF9A"/>
<path d="M178.895 93.4949C181.406 91.7829 182.673 90.7379 185.006 88.6479C187.672 86.2912 185.117 81.6888 182.362 83.5564C180.429 84.8682 178.073 86.7136 176.162 88.1143C175.34 88.7146 174.429 90.0931 174.918 91.0492C175.384 91.983 176.251 95.318 178.895 93.5171V93.4949Z" fill="#92EF9A"/>
<path d="M109.211 141.452C111.811 139.873 113.122 138.895 115.588 136.938C118.366 134.737 116.077 129.979 113.211 131.714C111.211 132.914 108.766 134.626 106.789 135.916C105.944 136.472 104.967 137.806 105.389 138.762C105.811 139.718 106.478 143.097 109.233 141.452H109.211Z" fill="#92EF9A"/>
<path d="M122.766 132.337C125.366 130.758 126.677 129.78 129.143 127.823C131.921 125.622 129.632 120.864 126.765 122.598C124.766 123.799 122.321 125.511 120.344 126.8C119.499 127.356 118.522 128.69 118.944 129.646C119.366 130.602 120.033 133.982 122.788 132.337H122.766Z" fill="#92EF9A"/>
<path d="M135.987 123.51C138.587 121.931 139.898 120.953 142.364 118.996C145.142 116.795 142.853 112.037 139.987 113.749C137.987 114.95 135.543 116.662 133.565 117.951C132.721 118.507 131.743 119.841 132.165 120.797C132.587 121.753 133.254 125.133 136.009 123.487L135.987 123.51Z" fill="#92EF9A"/>
<path d="M192.583 83.8669C195.094 82.1549 196.361 81.11 198.694 79.02C201.36 76.6632 198.805 72.0609 196.049 73.9285C194.116 75.2403 191.761 77.0857 189.85 78.4864C189.028 79.0867 188.117 80.4652 188.606 81.4213C189.072 82.3551 189.939 85.6901 192.583 83.8892V83.8669Z" fill="#92EF9A"/>
<path d="M204.893 74.5066C207.404 72.7946 208.671 71.7496 211.004 69.6596C213.671 67.3029 211.115 62.7005 208.36 64.5681C206.427 65.8799 204.071 67.7253 202.16 69.126C201.338 69.7264 200.427 71.1048 200.916 72.0609C201.383 72.9947 202.249 76.3297 204.893 74.5288V74.5066Z" fill="#92EF9A"/>
<path d="M238.136 54.6518C237.914 53.1399 237.469 51.628 236.803 50.2718C236.18 48.9378 235.403 47.6927 234.514 46.5588C232.736 44.2909 230.536 42.3566 227.981 40.9559C226.714 40.2666 225.359 39.6885 223.981 39.2883C222.559 38.8437 221.137 38.6658 219.893 38.4879C217.293 38.1322 214.649 37.9321 211.982 38.021C206.649 38.0877 201.427 39.2661 196.539 40.8669C191.628 42.49 186.962 44.5133 182.406 46.6699C178.184 48.6265 166.963 54.096 153.008 61.8778C146.031 65.7686 138.365 70.1709 130.454 74.84C129.965 75.129 129.476 75.4403 129.01 75.7293C127.21 74.6843 124.677 73.506 123.01 72.6388C116.855 68.5701 106.523 64.7682 98.412 60.7883C96.4121 59.6989 94.2121 59.5655 92.7233 58.4093C89.4124 56.4527 85.4794 54.7408 81.0574 53.718C76.6355 52.6508 71.7471 52.4729 67.1474 52.9843C65.4586 52.9843 64.703 53.8959 63.2809 53.6291C61.7476 53.6291 59.7034 54.4962 58.059 54.9631C57.348 55.2744 56.7481 55.4522 56.3036 55.3411C52.7928 55.0298 47.9041 58.4093 44.2822 59.4765C41.5268 60.3214 39.9047 61.4553 37.4826 62.6559C35.9494 63.3007 35.1272 63.7899 34.2606 64.5236C33.8384 64.9015 33.394 65.3462 32.8829 66.0799C32.4163 66.7914 31.8386 67.9476 31.7941 69.5261C31.5719 71.2604 32.3052 73.0391 33.2385 74.1508C34.1718 75.3069 35.2383 76.0406 36.2605 76.6409C38.3937 77.8415 40.1714 78.4641 42.1268 79.3312C45.971 80.9765 49.8373 82.6662 53.5704 84.6673C56.5258 85.8679 70.9248 92.0711 81.6352 96.3844C86.6793 98.4077 90.8568 100.009 92.6567 100.475C83.0574 107.501 74.3913 114.06 67.5251 118.974C57.4147 126.266 51.4372 130.402 53.4593 129.49C53.6815 129.913 58.9257 126.867 65.3475 122.665C71.7693 118.462 79.3909 113.104 84.6794 109.413C96.5675 101.632 111.1 91.0706 127.121 81.3322C143.253 71.794 160.43 62.1223 176.318 54.5184C184.34 50.7609 191.494 46.7589 198.272 45.1358C205.227 43.1792 212.626 42.5122 220.137 43.9574C223.626 44.491 226.737 46.2253 229.114 48.8266C230.292 50.1162 231.292 51.6503 231.914 53.1844C232.514 54.674 232.736 56.3638 232.514 57.8979C232.403 58.6539 232.181 59.3876 231.87 60.0324C231.714 60.3659 231.536 60.6549 231.314 60.9217C231.092 61.2108 230.914 61.3886 230.492 61.8111C229.048 63.2785 227.537 64.7237 226.003 66.1466C222.937 68.9703 219.715 71.6828 216.382 74.3286C209.738 79.6202 202.716 84.6673 195.85 89.8922C190.85 93.5385 188.606 96.1176 184.451 99.1192C182.228 100.831 179.584 103.099 176.895 105.456C175.562 106.634 174.185 107.835 172.851 109.013C172.185 109.591 171.518 110.169 170.874 110.747C170.429 111.125 169.985 111.526 169.54 111.904C169.407 112.037 169.229 112.126 169.14 112.281L168.985 112.815L168.674 113.838C167.896 116.684 167.274 118.974 166.607 120.419C164.319 126.222 162.385 134.56 160.141 142.964C159.03 147.166 157.675 151.346 156.319 155.459C154.964 159.55 153.63 163.441 152.297 166.887C148.364 177.026 145.809 184.63 141.653 193.479C140.498 195.769 139.52 197.548 138.765 198.948C138.765 198.948 138.387 199.371 137.965 199.682C137.543 200.016 137.076 200.327 136.587 200.638C135.609 201.261 134.587 201.839 133.41 202.461C131.032 203.684 127.966 205.285 122.833 206.997C121.633 207.33 120.41 207.619 119.277 207.775C118.988 207.82 118.722 207.842 118.455 207.864C118.166 207.886 117.944 207.864 117.922 207.864C117.766 207.864 117.588 207.82 117.477 207.708C117.411 207.619 117.366 207.508 117.344 207.397C117.322 207.308 117.344 207.353 117.322 207.219C117.277 207.064 117.277 206.864 117.255 206.686C117.211 205.93 117.211 205.085 117.255 204.218C117.366 202.461 117.588 200.638 117.811 198.815C118.255 195.057 118.611 191.433 119.188 187.765C119.722 184.096 120.344 180.383 120.855 176.626C121.344 172.824 121.744 169.177 122.344 165.464C122.944 161.729 123.521 158.016 124.121 154.259L124.988 148.634L125.41 145.81L125.521 145.098C125.588 144.72 125.566 144.387 125.61 144.053L125.743 141.963C125.988 140.629 125.032 139.473 123.832 139.006C123.21 138.806 122.61 138.74 122.032 138.984L120.166 139.829C119.588 140.051 118.766 140.563 118.455 140.741L117.211 141.452L114.722 142.853C111.389 144.698 108.033 146.544 104.678 148.411C101.989 150.012 96.5898 153.036 89.568 157.505C86.1016 159.75 82.213 162.263 77.9911 164.975C75.8801 166.332 73.7025 167.755 71.436 169.2C70.3027 169.933 69.1694 170.667 68.0139 171.423C66.8806 172.135 65.6363 173.002 64.5697 173.58C62.281 174.758 59.4368 174.758 56.7481 174.002C54.0372 173.224 51.4373 171.845 49.0597 170.089C46.6376 168.399 44.6377 166.131 42.5045 163.908C40.4158 161.662 38.3492 159.395 36.3493 157.038C28.3276 147.7 21.617 137.272 14.8842 128.223C14.0176 127.156 13.1732 125.777 13.2621 124.288C13.2843 122.842 14.1953 121.308 15.6618 120.864C17.1062 120.441 18.5062 120.73 19.7728 121.019C21.0838 121.331 22.2836 121.798 23.4613 122.242C28.1499 124.11 32.3274 126.133 36.0605 127.823C37.927 128.668 39.6825 129.446 41.3046 130.18C42.9712 130.891 44.371 131.558 45.6821 131.714C48.3486 132.158 50.4373 131.491 51.6372 130.891C52.8593 130.269 53.326 129.757 53.1927 129.757C53.0371 129.713 52.3038 130.18 50.6595 130.624C48.9929 131.002 46.4598 131.358 43.1489 129.579C39.3491 127.667 34.5495 125.266 28.6388 122.287C26.439 121.264 24.239 120.263 21.7725 119.419C20.4615 118.996 19.2616 118.64 17.6395 118.507C16.8396 118.462 15.9063 118.485 14.8842 118.818C13.8842 119.152 12.8621 119.863 12.2399 120.73C10.9733 122.398 10.7511 124.599 11.2399 126.333C11.4621 127.223 11.8844 128.067 12.3955 128.757L13.4177 130.224L17.5062 136.094C22.9058 143.92 28.2832 152.035 34.5717 159.484C36.1272 161.351 37.7271 163.197 39.327 164.998C40.9935 166.821 42.46 168.555 44.3932 170.4C48.193 173.869 52.6372 176.848 58.2368 177.826C60.9922 178.316 64.2142 177.938 66.8807 176.359C67.614 175.959 67.9918 175.692 68.5473 175.358L70.0805 174.402L73.1248 172.49L85.3239 164.886C89.4125 162.352 93.4123 159.795 97.5453 157.416C101.678 155.015 105.856 152.68 110.078 150.346L121.055 144.231C121.055 144.231 121.21 144.209 121.233 144.276C121.233 144.32 121.233 144.342 121.233 144.387L121.166 144.876L120.01 151.969L117.544 166.22C117.144 168.599 116.788 171.112 116.477 173.446C116.144 175.803 115.788 178.16 115.388 180.517C114.589 185.23 113.744 190.099 113.189 194.946C112.922 197.303 112.566 199.682 112.322 202.194C112.211 203.462 112.1 204.729 112.122 206.13C112.122 206.486 112.122 206.819 112.166 207.219C112.211 207.642 112.211 207.864 112.344 208.531C112.455 209.131 112.7 209.643 112.9 210.199C113.189 210.688 113.478 211.177 113.855 211.599C114.677 212.311 115.677 212.822 116.788 212.911C117.055 212.956 117.344 213 117.633 213H118.366C118.744 213 119.099 212.956 119.455 212.933C120.833 212.778 122.077 212.511 123.277 212.2C125.699 211.555 127.966 210.754 130.21 209.865C132.454 208.976 134.654 207.975 136.809 206.841C137.898 206.263 138.965 205.663 140.054 204.951C140.609 204.596 141.142 204.218 141.72 203.729C142.253 203.262 142.942 202.728 143.564 201.639C148.497 192.567 152.364 183.207 155.897 173.713C157.652 168.977 159.341 164.219 160.985 159.484L163.452 152.369C164.274 149.968 165.052 147.5 165.763 145.076C168.607 135.316 170.829 125.577 173.785 116.128L173.985 115.461C173.985 115.461 173.985 115.439 173.985 115.416L174.985 114.572L177.851 112.17L183.584 107.346C187.428 104.166 191.161 100.831 195.116 97.8296C202.96 91.7153 211.115 85.9346 219.07 79.6647C223.048 76.5297 226.959 73.2614 230.67 69.7485C231.581 68.8591 232.536 67.992 233.425 67.0804L234.781 65.7242C235.203 65.324 235.892 64.5458 236.314 63.8788C238.18 61.0551 238.647 57.6978 238.203 54.6741L238.136 54.6518ZM106.922 90.1812C102.212 93.494 97.6564 96.8069 93.2567 100.031C92.5679 99.386 90.8125 98.2076 87.5682 96.2732C78.1689 91.5819 68.7694 86.8684 59.3256 82.1326C54.6148 79.7536 49.904 77.3746 45.171 74.9734C42.9045 73.7728 40.1491 72.5722 38.6159 71.4827C37.8159 70.9046 37.3938 70.2821 37.3938 70.1265C37.3938 69.9264 37.3049 69.8819 37.6827 69.4372C38.4826 68.4589 41.0602 67.4806 43.5045 66.4579C45.9265 65.4351 48.3486 64.4346 50.7485 63.5453C55.5926 61.7221 60.4588 60.2103 65.3696 59.4321C70.3026 58.6317 75.169 58.6539 80.0131 59.6766C84.8795 60.6772 89.7014 62.4558 94.6344 64.279C97.9453 65.5685 118.322 73.9284 127.165 76.8855C120.321 81.0654 113.5 85.6011 106.945 90.2035L106.922 90.1812Z" fill="#92EF9A"/>
</svg>
