<svg width="250" height="250" viewBox="0 0 250 250" fill="none" xmlns="http://www.w3.org/2000/svg">
<rect width="250" height="250" fill="#063312"/>
<path d="M238.367 197.357C237.897 196.305 234.25 197.581 232.214 197.961C227.493 198.095 221.139 200.312 215.591 200.939C214.181 200.983 213.107 202.013 211.899 201.7C207.089 201.319 201.831 202.73 196.55 203.58C195.588 203.58 195.186 204.453 194.335 204.073C193.44 203.916 192.232 204.588 191.248 204.722C190.823 204.901 190.465 204.991 190.174 204.744C188.115 203.692 184.961 205.752 182.612 205.528C180.889 205.416 179.681 206.043 178.159 206.311C176.347 206.311 176.347 206.312 174.109 206.961C169.075 207.095 164.041 208.662 158.806 208.617C157.844 208.819 154.957 209.199 151.4 209.647C147.865 210.14 143.659 210.52 140.101 210.968C139.229 211.057 138.401 211.147 137.64 211.237C139.05 210.431 140.437 209.535 141.667 208.461C145.247 205.506 147.686 201.498 148.581 198.409C149.051 196.797 149.207 195.521 149.185 194.715C150.125 194.245 151.042 193.73 151.915 193.081C153.883 191.626 155.45 189.745 156.568 187.708C156.814 187.26 157.575 186.051 158.202 184.372C158.85 182.716 159.32 180.544 159.343 178.44C159.387 176.335 158.962 174.321 158.381 173C158.112 172.373 157.844 171.925 157.62 171.634C157.709 171.522 157.821 171.455 157.911 171.343C158.202 171.03 159.029 170.179 159.857 168.903C160.708 167.649 161.513 165.948 161.96 164.179C162.408 162.411 162.386 160.62 162.117 159.389C161.849 158.157 161.401 157.53 161.088 157.821C160.059 158.09 160.081 160.15 159.634 161.157C158.783 162.232 158.202 163.418 157.486 164.605C156.77 165.769 155.92 166.911 154.823 167.582C154.241 167.851 154.331 168.769 153.57 168.657C151.221 168.948 149.521 170.201 147.238 170.94C146.813 170.94 146.769 171.701 146.321 171.321C145.874 171.119 145.426 171.701 144.979 171.791C144.8 171.948 144.643 171.992 144.486 171.769C143.48 170.649 142.16 172.351 141.041 171.948C140.258 171.679 139.676 172.127 138.938 172.216C138.088 172.015 138.11 172.037 136.969 172.373C134.597 171.88 131.935 172.664 129.384 171.97C128.377 172.06 123.433 172.127 119.763 172.44C117.929 172.574 116.407 172.843 115.87 173.045C115.356 173.224 115.691 174.03 117.705 174.813C120.972 175.418 124.149 176 127.326 176.582C130.525 177.186 133.859 177.813 137.372 178.104C140.862 178.395 144.576 178.306 148.201 177.298C151.176 176.47 154.107 174.992 156.479 172.798C156.479 172.933 156.479 173.045 156.479 173.179C156.479 174.007 156.524 174.903 156.456 175.552C155.92 177.029 155.629 178.619 155.136 180.231C154.667 181.843 153.973 183.454 152.921 184.596C152.362 185.111 152.519 186.074 151.713 186.23C150.46 186.835 149.386 187.462 148.335 188.111C147.261 188.76 146.075 189.432 144.755 189.857C144.24 189.857 144.173 190.663 143.636 190.282C143.122 190.126 142.562 190.685 142.003 190.797C141.779 190.954 141.578 191.021 141.421 190.797C140.28 189.723 138.535 191.335 137.17 190.887C136.208 190.596 135.47 190.999 134.552 191.066C133.523 190.842 133.523 190.842 132.114 191.133C129.205 190.551 126.006 191.2 122.985 190.26C122.381 190.26 120.636 190.126 118.488 189.857C116.34 189.588 113.812 189.163 111.642 188.76C109.471 188.38 107.659 187.999 106.943 188.133C106.227 188.245 106.563 188.894 108.823 190.327C116.34 193.461 124.328 195.767 132.561 196.685C136.656 197.178 141.063 197.312 145.538 196.125C146.276 195.924 147.015 195.655 147.731 195.387C147.529 195.834 147.306 196.372 147.037 196.931C146.299 198.588 145.202 200.401 144.24 201.521C141.846 203.759 138.848 206.222 135.224 207.968C131.644 209.737 127.46 210.655 123.679 210.722C121.777 210.677 120.054 211.438 118.488 210.901C115.289 210.252 111.843 209.781 108.196 209.289C106.384 209.043 104.504 208.841 102.647 208.617C100.79 208.349 98.9109 208.08 97.0539 207.834C95.7562 207.476 94.906 208.058 93.8992 207.386C92.7581 206.849 90.8787 207.028 89.4915 206.714C88.8427 206.692 88.3281 206.602 88.0596 206.289C85.7103 204.521 80.7433 204.879 77.7005 203.603C75.4855 202.64 73.6732 202.55 71.5477 202.058C69.1984 201.095 69.1984 201.095 65.999 200.468C59.4211 197.827 52.2838 196.193 45.7506 192.723C44.4529 192.23 40.6494 190.685 36.1075 188.536C31.5656 186.387 26.2854 183.634 21.9001 181.104C17.4701 178.619 13.9798 176.38 12.5926 175.888C11.2278 175.373 12.078 176.515 16.6422 180.477C31.7222 191.447 48.5026 200.491 66.3793 206.67C75.3065 209.737 84.5022 212.154 93.8097 213.744C98.4634 214.55 103.14 215.132 107.838 215.557C112.514 215.983 117.347 216.184 122.202 215.714C123.276 215.602 126.229 215.468 129.966 214.483C131.241 214.169 132.628 213.677 134.038 213.095C134.731 213.229 135.649 213.386 136.857 213.542C143.39 213.789 149.968 213.789 156.546 213.744C163.124 213.61 169.747 213.408 176.347 212.848C182.947 212.356 189.547 211.572 196.103 210.475C202.658 209.423 209.147 208.013 215.523 206.2C216.239 205.998 218.186 205.617 220.625 204.901C223.086 204.252 226.062 203.334 228.881 202.349C231.677 201.319 234.34 200.267 236.13 199.282C237.92 198.342 238.904 197.625 238.412 197.424L238.367 197.357Z" fill="#92EF9A"/>
<path d="M41.9249 109.534C45.8627 111.683 49.9794 113.497 54.1634 115.176C58.3473 116.855 62.6207 118.354 66.9836 119.586C71.3241 120.862 75.7765 121.847 80.2513 122.518C84.726 123.235 89.2456 123.593 93.7427 123.615C94.7271 123.66 99.1348 123.951 103.162 123.75C107.189 123.615 110.814 122.989 110.277 122.339C110.187 121.287 107.57 121.175 106.183 120.951C103.095 119.608 98.5531 119.944 94.8838 119.048C94.481 118.914 94.1007 118.959 93.7203 119.004C94.6153 118.825 95.5102 118.601 96.3604 118.377C99.7165 117.414 102.782 116.049 105.735 114.795C108.666 113.541 111.485 112.4 114.304 111.75C117.146 111.056 120.077 110.765 123.03 110.788C123.679 110.832 126.543 111.191 129.071 111.907C129.34 111.974 129.608 112.064 129.876 112.131C127.639 113.116 125.446 114.258 123.522 114.929C120.39 116.116 118.421 117.728 116.005 119.519C114.483 120.392 113.745 120.907 112.984 121.533C112.201 122.16 111.373 122.921 109.852 124.578C106.138 127.712 102.647 131.406 100.544 136.443C98.4636 141.391 98.5307 147.816 102.603 152.383C103.408 153.121 105.265 154.554 108.017 155.091C110.747 155.651 114.013 155.315 117.258 154.375C123.679 152.405 130.727 149.136 136.387 145.868C142.048 142.599 146.254 139.331 147.485 138.01C148.693 136.622 147.104 137.473 140.37 140.764C135.313 143.562 129.921 145.823 124.417 147.637C118.936 149.338 113.029 151.196 109.002 149.942C107.078 149.316 105.825 148.084 105.198 146.092C104.885 145.107 104.773 144.01 104.84 142.913C104.907 141.816 105.176 140.741 105.623 139.622C106.518 137.406 108.084 135.257 109.964 133.219C110.903 132.19 111.955 131.227 112.939 130.242C114.013 129.346 115.043 128.361 116.184 127.511C125.088 120.548 136.231 116.429 147.507 115.802C153.168 115.511 158.761 116.004 164.31 117.459C169.859 118.869 175.363 120.974 180.978 123.078C182.231 123.548 185.543 124.936 189.995 126.526C194.447 128.115 200.108 129.727 205.791 130.309C211.452 130.936 217.09 130.399 220.849 129.145C224.63 127.936 226.554 126.548 225.771 126.526C225.525 125.966 223.712 126.436 221.453 126.862C219.193 127.264 216.486 127.555 214.584 127.533C210.422 127.085 205.388 126.347 200.22 124.936C195.074 123.571 189.861 121.489 185.274 119.25C182.992 118.041 180.509 117.862 178.83 116.541C175.094 114.302 170.686 112.332 165.809 110.922C160.931 109.512 155.517 108.84 150.281 108.862C148.38 108.728 147.418 109.601 145.829 109.153C144.106 108.997 141.645 109.736 139.721 110.116C138.871 110.362 138.177 110.541 137.663 110.385C136.32 110.183 134.709 110.474 133.054 110.989C132.673 110.676 132.248 110.385 131.935 110.161C130.346 108.012 126.856 107.407 124.082 106.512C123.366 106.176 122.672 106.825 122.113 106.243C119.719 104.9 116.654 105.37 113.857 105.997C113.32 105.997 113.208 106.713 112.693 106.377C112.179 106.243 111.597 106.825 111.082 106.982C110.881 107.161 110.702 107.228 110.501 107.049C109.136 106.243 107.928 108.213 106.697 108.303C105.78 108.415 105.332 109.019 104.684 109.445C103.789 109.668 103.789 109.691 102.916 110.497C100.544 111.28 98.7097 113.295 96.2709 113.855C95.8682 114.101 94.6377 114.773 93.0715 115.444C91.4829 116.116 89.514 116.72 87.7241 117.034C87.1424 117.146 86.6054 117.19 86.1132 117.258C84.8379 117.101 83.5402 116.989 82.2649 116.81C81.6608 116.586 81.2133 117.235 80.7435 116.698C80.2065 116.317 79.2892 116.653 78.6403 116.519C78.3271 116.563 78.081 116.541 77.9691 116.295C76.9399 114.885 74.4564 115.914 73.0245 115.153C71.9729 114.638 71.0556 114.884 70.0264 114.728C68.9077 114.28 68.9077 114.28 67.3192 114.258C64.1645 113.138 60.5623 113.094 57.3404 111.683C56.6916 111.526 54.7898 111.101 52.4629 110.497C51.3219 110.183 50.0689 109.847 48.7489 109.489C47.5407 109.131 46.2878 108.751 45.0348 108.392C42.7079 107.698 40.7838 107.071 40.0007 107.116C39.24 107.139 39.598 107.788 41.9472 109.556L41.9249 109.534Z" fill="#92EF9A"/>
<path d="M154.667 153.032C154.354 153.144 154.667 153.838 154.152 153.637C153.75 153.592 153.593 154.219 153.213 154.42C153.101 154.599 152.989 154.689 152.788 154.51C152.206 154.084 151.803 154.308 151.288 154.622C150.774 154.935 150.192 155.316 149.633 155.159C148.827 154.98 148.268 155.428 147.485 155.584C146.568 155.45 146.568 155.45 145.382 155.853C142.764 155.54 140.012 156.547 137.282 156.032C136.768 156.099 135.202 156.211 133.3 156.256C131.398 156.323 129.116 156.278 127.169 156.256C123.276 156.189 120.636 156.189 124.865 158.248C128.311 159.189 131.868 159.815 135.425 160.397C138.983 160.957 142.607 161.293 146.232 161.383C148.044 161.427 150.013 161.427 152.094 161.024C154.152 160.644 156.39 159.771 158.224 158.248C160.081 156.793 161.625 154.375 161.871 151.779C162.14 149.204 161.401 146.853 160.26 144.951C160.014 144.525 159.41 143.339 158.224 142.085C157.106 140.854 155.54 139.667 153.996 138.817C152.452 137.966 150.975 137.406 149.924 137.093C148.939 136.623 148.089 137.093 148.179 137.361C147.843 138.123 149.588 139.309 150.438 140.048C151.199 141.257 152.34 142.219 153.414 143.249C154.488 144.279 155.45 145.421 155.786 146.674C155.875 147.324 156.748 147.525 156.39 148.197C155.763 150.547 155.875 151.622 154.667 153.01V153.032Z" fill="#92EF9A"/>
<path d="M73.1808 77.7894C73.4046 78.349 74.2324 78.1923 74.1876 78.8863C74.6799 81.0354 76.4921 82.2667 78.0807 83.6547C78.282 84.0129 78.8861 83.6547 78.819 84.1696C78.8861 84.595 79.5574 84.6174 79.8482 84.886C80.0496 84.9308 80.1838 84.9979 80.0943 85.2442C79.893 86.5874 81.8171 86.4531 82.2422 87.3262C82.5778 87.953 83.2043 87.9978 83.7413 88.3336C84.1664 88.9156 84.1887 88.9157 85.1061 89.2291C86.4038 90.7514 88.5964 91.311 89.9612 92.8781C91.3931 93.5721 103.207 100.825 99.3582 95.3182C95.4652 92.0498 91.7287 88.5798 88.0371 85.0427C84.323 81.5056 80.5866 78.0132 76.5816 74.8567C76.1565 74.4761 74.4114 72.7075 72.6886 71.2076C71.8384 70.4465 70.9882 69.7748 70.317 69.3719C69.6681 68.9465 69.1088 68.8794 68.9969 69.2152C68.3257 69.954 69.2206 71.1853 69.601 71.9464C69.8919 74.2075 72.0397 75.8193 73.1808 77.7894Z" fill="#92EF9A"/>
<path d="M98.1951 57.7531C98.1951 58.3128 98.9558 58.4695 98.6426 59.0516C98.2175 61.0888 99.2914 62.7678 100.142 64.514C100.164 64.8946 100.858 64.7602 100.589 65.208C100.477 65.6109 101.059 65.8572 101.216 66.1706C101.372 66.2825 101.462 66.3945 101.283 66.5512C100.544 67.6705 102.334 68.1854 102.334 69.1033C102.357 69.7749 102.916 70.0212 103.252 70.4689C103.386 71.1181 103.408 71.1181 104.079 71.7226C104.594 73.4911 106.362 74.7224 106.921 76.5133C107.95 77.5879 115.512 87.8635 114.349 81.7743C110.098 73.4911 106.943 64.514 102.379 56.3204C102.155 55.8503 101.305 53.7235 100.388 51.843C99.9179 50.9028 99.4704 50.0073 99.0229 49.4476C98.5083 48.9103 98.1056 48.6417 97.8595 48.8879C96.9869 49.2909 97.3449 50.6341 97.3449 51.4401C96.6961 53.4997 97.949 55.6264 98.1504 57.7084L98.1951 57.7531Z" fill="#92EF9A"/>
<path d="M134.933 58.7602C134.642 59.5213 135.023 60.081 135.112 60.775C134.933 61.5809 134.933 61.5809 135.291 62.6107C134.933 64.8494 135.962 67.1553 135.627 69.4835C135.828 70.3566 136.477 74.6773 137.282 77.8562C138.11 81.0351 138.983 83.0723 139.967 79.4009C140.012 67.9164 141.354 56.2529 141.019 44.7012C141.019 43.4252 141.958 33.463 140.504 34.0227C139.453 33.9779 139.095 35.6569 138.737 36.5524C137.17 38.4776 137.305 41.4999 136.499 43.9177C136.208 44.5221 136.857 45.1266 136.298 45.5967C134.933 47.6115 135.134 50.0741 135.067 52.4471C134.911 52.8724 135.604 53.1187 135.134 53.4769C134.844 53.8575 135.246 54.4395 135.246 54.8872C135.358 55.0887 135.381 55.2679 135.134 55.3574C133.926 56.1633 135.313 57.7304 134.888 58.7378L134.933 58.7602Z" fill="#92EF9A"/>
<path d="M167.777 79.0201C173.08 69.3713 180.329 60.7972 186.706 51.82C187.108 51.3499 188.854 49.3351 190.487 47.4546C192.075 45.5741 193.395 43.7384 192.657 43.4474C191.874 42.731 190.554 43.7384 189.726 44.1638C187.287 44.5667 185.565 46.9621 183.461 48.3501C182.857 48.6411 183.036 49.5142 182.298 49.5142C179.994 50.2306 178.696 52.2902 177.286 54.1707C176.906 54.417 177.353 55.0437 176.772 55.0213C176.302 55.1557 176.324 55.8721 176.078 56.2303C176.056 56.4541 175.966 56.6109 175.72 56.5437C174.221 56.4765 174.557 58.5809 173.617 59.1406C172.946 59.5883 172.968 60.2823 172.677 60.8868C172.096 61.4241 172.096 61.4464 171.849 62.4986C170.328 64.1329 170.037 66.6402 168.56 68.364C168.292 69.2147 166.703 73.1771 165.987 76.2889C165.249 79.423 165.182 81.5722 167.777 78.9977V79.0201Z" fill="#92EF9A"/>
<path d="M189.771 99.1236C196.237 90.4599 203.889 82.4678 210.109 73.5354C210.489 73.0653 212.257 71.0729 213.734 69.1476C214.472 68.185 215.166 67.2671 215.546 66.5059C215.882 65.7224 215.904 65.1403 215.568 65.0508C214.83 64.4463 213.599 65.4985 212.816 65.9462C210.445 66.4164 208.879 68.7894 206.843 70.155C206.261 70.446 206.462 71.2967 205.746 71.2967C203.486 71.9683 202.278 73.9607 200.891 75.7293C200.533 75.9532 200.958 76.5801 200.376 76.5577C199.929 76.6696 199.929 77.3636 199.683 77.6994C199.661 77.9232 199.571 78.0576 199.325 77.9904C197.871 77.8561 198.139 79.8933 197.222 80.4082C196.573 80.7888 196.551 81.4827 196.237 82.0424C195.633 82.5349 195.656 82.535 195.342 83.5424C193.776 84.9975 193.329 87.3929 191.763 88.9376C191.136 90.5271 184.155 103.579 189.794 99.146L189.771 99.1236Z" fill="#92EF9A"/>
<path d="M166.771 150.614C167.174 151.912 167.509 152.92 168.046 154.644C168.158 155.36 169.031 155.539 168.829 156.278C168.941 158.83 170.776 160.934 172.543 162.86C172.767 163.307 173.438 163.016 173.371 163.621C173.461 164.113 174.177 164.315 174.535 164.628C174.781 164.718 174.915 164.807 174.848 165.054C174.714 166.531 176.884 166.688 177.51 167.65C178.003 168.367 178.696 168.501 179.367 168.859C179.971 169.486 179.994 169.486 181.112 169.844C182.947 171.501 185.654 171.814 187.735 173.113C188.205 173.18 189.57 173.561 191.225 173.874C192.031 173.986 192.926 174.098 193.888 174.232C194.805 174.277 195.723 174.322 196.55 174.322C198.228 174.277 199.571 174.008 200.063 173.672C200.555 173.314 200.175 172.799 198.519 172.105C195.812 171.613 193.15 170.807 190.644 169.576C188.138 168.389 185.722 166.934 183.529 165.21C181.291 163.531 179.255 161.606 177.398 159.546C175.497 157.509 173.819 155.293 172.275 152.965C171.939 152.45 170.731 150.01 169.836 147.704C169.344 146.562 168.941 145.465 168.561 144.704C168.136 143.965 167.688 143.562 167.42 143.764C166.48 143.987 166.704 145.711 166.659 146.696C166.256 147.905 166.458 149.226 166.793 150.614H166.771Z" fill="#92EF9A"/>
</svg>
