<svg width="250" height="250" viewBox="0 0 250 250" fill="none" xmlns="http://www.w3.org/2000/svg">
<rect width="250" height="250" fill="#063312"/>
<path d="M211.98 158.262C213.154 153.292 211.076 144.685 211.28 138.744C211.393 134.361 210.76 131.153 210.444 127.199C210.444 125.754 210.444 124.782 210.399 123.924C210.489 123.607 210.467 123.427 210.376 123.336C210.376 123.02 210.331 122.726 210.309 122.41C210.264 121.755 210.173 121.055 210.06 120.174C209.925 119.247 209.857 118.276 209.541 116.491C209.451 115.701 209.293 114.842 208.909 113.893C208.548 112.967 207.893 111.973 206.99 111.227C206.019 110.414 204.687 109.94 203.603 109.849C202.474 109.714 201.526 109.849 200.623 110.008C200.262 110.075 199.923 110.166 199.607 110.256C198.094 109.42 196.356 108.584 195.114 107.929C189.447 103.931 179.738 100.451 172.152 96.6561C170.278 95.617 168.201 95.617 166.846 94.4422C160.637 90.5791 152.577 88.32 144.516 86.1738C143.094 85.6316 142.123 86.219 140.926 85.4283C139.436 84.7732 137.065 85.0895 135.372 85.2024C134.604 85.3606 133.995 85.4509 133.566 85.225C131.873 84.728 129.682 85.225 127.605 85.9027C125.528 86.5805 123.519 87.4615 121.735 87.71C119.116 88.1392 117.377 89.0881 115.142 89.9014C112.455 90.5565 112.433 90.5339 109.227 92.0476C101.776 94.1485 94.7993 97.9664 87.326 100.655C85.9939 101.333 81.9976 103.253 77.1884 105.738C72.3793 108.223 66.8251 111.318 62.1966 114.097C57.5907 116.875 53.933 119.315 52.8267 120.354C52.6687 120.467 52.5106 120.535 52.3526 120.671C51.7881 121.168 51.3591 121.913 51.1559 122.794C50.9301 123.675 50.9301 124.805 50.9076 125.37C50.8398 128.193 50.7269 131.74 50.614 135.626C50.456 141.974 50.298 149.294 50.1399 156.139C49.598 163.21 49.0787 170.281 48.5369 177.329V178.369C52.8493 180.131 57.1843 181.893 61.5193 183.655C69.986 188.715 83.2394 193.844 93.7833 198.994C95.138 199.717 96.5378 200.147 97.87 200.621C98.5247 200.847 99.1569 201.073 99.7665 201.344C100.06 201.479 100.354 201.615 100.624 201.773C100.986 201.976 101.482 202.225 101.889 202.473C103.74 203.422 105.795 204.439 108.008 205.478L108.843 205.862C108.956 205.885 109.182 206.065 109.204 205.975V205.568L109.34 203.919C109.34 203.851 109.34 203.784 109.34 203.716C112.501 203.558 118.439 202.451 122.096 201.886C133.543 201.028 150.387 196.916 164.362 194.589C167.907 194.092 170.933 192.624 173.823 192.601C179.783 192.014 186.082 190.907 192.766 189.461C196.152 188.67 199.742 187.631 203.242 185.598C204.958 184.581 206.651 183.293 208.074 181.644C209.496 180.018 210.58 178.052 211.257 176.064C212.341 173.195 211.618 171.569 212.296 169.4C212.77 166.915 212.07 163.526 211.934 160.973C211.754 159.821 211.686 158.872 211.934 158.24L211.98 158.262ZM85.723 106.754C94.7993 103.117 104.034 99.7737 113.404 96.8821C118.077 95.4588 122.796 94.1034 127.515 92.9286C132.256 91.7539 136.501 90.918 140.543 92.0476C145.103 93.1997 149.845 94.7585 154.496 96.1591C159.215 97.605 163.775 99.0508 168.381 100.79C171.181 101.852 186.963 108.223 196.107 111.363C193.353 112.289 190.553 113.238 187.753 114.164C182.154 116.039 176.509 117.914 170.707 119.496C165.988 121.168 142.642 129.075 125.596 135.242C117.197 138.314 110.333 140.777 107.962 141.861C107.443 141.093 106.879 140.415 106.337 139.828C104.621 138.043 102.837 137.162 101.234 136.484C99.6085 135.807 98.0957 135.4 96.4927 134.813C92.8802 133.141 92.8576 133.164 88.0259 131.695C82.9458 129.459 77.6852 127.606 72.3567 125.708C69.6925 124.737 67.0057 123.788 64.3641 122.817C63.032 122.32 61.6999 121.8 60.3678 121.303L58.3809 120.512C58.0197 120.377 57.7261 120.241 57.2068 120.061C56.8908 119.97 56.5747 119.925 56.2811 119.857C57.0714 119.564 57.9745 119.202 59.0582 118.773C67.7282 114.413 76.6466 110.414 85.723 106.754ZM202.79 177.216C200.578 179.724 196.784 181.328 192.743 182.458C188.656 183.565 184.118 184.536 179.806 185.598L166.733 188.738C160.705 190.139 119.884 199.017 109.475 202.247C109.52 201.638 109.543 201.028 109.588 200.418C109.678 198.43 109.769 196.464 109.859 194.499C109.904 193.075 109.972 191.652 110.017 190.206C110.175 184.446 110.175 178.459 110.22 172.563C110.401 170.439 109.588 169.287 110.152 167.547C110.491 165.627 110.017 162.803 110.04 160.567C109.927 159.573 109.904 158.759 110.175 158.217C110.536 157.155 110.694 155.913 110.762 154.535C110.807 153.157 110.785 151.711 110.649 149.994C110.491 148.3 110.198 146.402 109.453 144.55C109.182 143.804 108.798 143.104 108.369 142.426C109.994 142.245 113.246 141.635 118.529 140.483C133.092 136.349 147.632 131.831 162.263 127.538C169.578 125.37 176.893 123.201 184.231 121.032L195.227 117.802L200.645 116.22C201.413 116.017 202.135 115.881 202.587 115.904C203.106 115.926 203.084 115.994 203.106 115.994C203.106 115.972 203.287 116.152 203.422 116.898C203.535 117.576 203.558 118.615 203.603 119.79L203.829 126.544V126.996C201.977 128.578 200.149 130.656 198.275 132.215C197.507 132.757 197.462 133.819 196.604 134.045C193.736 135.603 191.704 138.608 189.582 141.409C189.085 141.816 189.424 142.516 188.769 142.652C188.205 142.946 188.024 143.872 187.64 144.391C187.55 144.685 187.415 144.911 187.144 144.888C185.473 145.205 185.27 147.825 184.05 148.819C183.192 149.565 183.012 150.468 182.493 151.349C181.68 152.208 181.68 152.231 181.115 153.676C178.97 156.184 177.954 159.573 175.832 162.238C175.313 163.413 172.468 169.084 170.797 173.466C169.104 177.849 168.494 180.854 171.971 176.697C176.193 169.535 181.048 162.645 185.97 155.845C190.914 149.045 196.085 142.403 201.074 135.694C201.458 135.242 202.632 133.841 204.055 132.17L204.371 140.054C204.755 149.023 205.161 157.991 205.545 166.937C205.613 171.162 205.003 174.777 202.768 177.194L202.79 177.216Z" fill="#92EF9A"/>
<path d="M106.382 122.84C105.434 123.428 105.456 123.36 104.598 124.648C104.305 124.874 103.808 125.393 103.515 125.89C103.176 126.387 102.95 126.952 102.86 127.539C102.657 128.691 103.018 129.911 103.74 130.792C104.44 131.674 105.614 132.329 106.314 132.6C107.104 132.916 107.895 133.165 108.662 133.413C109.249 133.436 110.92 133.594 112.93 133.458C114.939 133.345 117.31 132.893 119.116 132.148C120.945 131.402 122.164 130.408 122.412 129.798C122.661 129.166 122.051 129.053 120.155 129.211C117.332 130.092 114.036 130.047 110.875 129.46C110.491 129.392 110.062 129.301 109.701 129.211C109.362 129.143 109.046 129.03 108.753 128.917C108.459 128.804 108.188 128.669 107.985 128.556C107.827 128.466 107.895 128.511 107.85 128.466C107.827 128.42 107.804 128.375 107.85 128.33L107.895 128.285C108.008 128.172 108.279 127.901 108.595 127.652C110.988 125.619 113.878 124.105 116.926 123.134C117.694 122.886 118.461 122.682 119.252 122.501C119.658 122.411 120.064 122.321 120.245 122.298C120.516 122.276 120.855 122.253 121.216 122.253C122.616 122.276 124.264 122.569 125.37 123.044C125.438 123.089 125.596 123.157 125.709 123.247C125.822 123.315 125.822 123.337 125.867 123.383C125.889 123.473 125.935 123.495 125.912 123.654C125.912 123.902 125.867 124.331 125.777 124.738C125.551 125.596 125.099 126.545 124.557 127.268C123.519 128.737 122.254 129.369 122.661 129.776C122.977 130.657 124.851 129.979 125.777 129.301C126.951 128.94 128.034 127.901 128.734 126.478C129.073 125.777 129.366 124.987 129.479 124.128C129.615 123.292 129.525 122.095 129.005 121.214C128.734 120.785 128.396 120.378 128.034 120.062C127.289 119.271 126.318 119.519 125.844 118.819C124.648 117.802 123.135 117.238 121.419 117.057C120.99 117.012 120.538 116.989 120.042 117.012C119.568 117.012 118.935 117.125 118.619 117.193C117.829 117.351 117.061 117.554 116.271 117.757C115.684 117.78 115.571 118.48 114.984 118.232C114.42 118.164 113.81 118.774 113.246 119C113.02 119.203 112.839 119.294 112.614 119.158C111.101 118.616 109.814 120.694 108.482 121.123C107.466 121.462 107.037 122.208 106.359 122.84H106.382Z" fill="#92EF9A"/>
<path d="M141.288 111.996C140.994 112.335 140.723 112.786 140.497 113.668C140.023 114.571 139.978 115.701 140.385 116.65C140.791 117.598 141.559 118.389 142.507 118.864C143.433 119.338 144.584 119.519 145.532 119.564C146.277 119.564 146.932 119.609 147.632 119.699C148.693 119.632 153.886 118.773 157.115 116.898C158.741 116.017 159.915 115.046 160.163 114.436C160.411 113.826 159.824 113.645 157.883 113.893C155.083 114.933 152.035 115.407 148.987 115.407C144.674 115.272 145.984 115.159 145.848 115H145.894L146.481 114.684C147.181 114.345 147.88 114.006 148.603 113.69C150.025 113.08 151.493 112.538 152.983 112.086C154.473 111.612 155.986 111.25 157.521 110.911C159.057 110.618 160.66 110.301 161.698 110.347C161.811 110.347 162.037 110.392 162.263 110.482C162.466 110.55 162.669 110.663 162.872 110.821C163.166 111.092 163.188 111.25 163.076 111.476C163.076 111.499 163.053 111.521 163.03 111.544C162.963 111.634 162.872 111.725 162.805 111.815C162.624 111.996 162.443 112.176 162.24 112.357C161.856 112.719 161.45 113.012 161.134 113.283C160.479 113.803 160.095 114.165 160.366 114.39C160.682 115.272 162.488 114.684 163.459 114.232C164.114 114.142 164.746 113.893 165.401 113.419C166.056 112.899 166.733 112.064 166.711 111.047C166.688 110.076 166.214 109.014 165.514 108.246C164.882 107.5 163.979 106.913 163.143 106.551C162.285 106.099 161.45 106.642 160.818 106.167C158.018 105.128 155.173 105.919 152.351 106.709C151.809 106.709 151.719 107.41 151.199 107.139C150.68 107.048 150.116 107.613 149.619 107.816C149.416 107.997 149.235 108.065 149.055 107.929C147.677 107.274 146.435 109.194 145.171 109.398C144.697 109.488 144.336 109.691 144.02 109.94C143.884 110.053 143.704 110.188 143.545 110.324C143.229 110.55 142.958 110.776 142.733 110.934C141.988 111.341 141.649 111.612 141.355 111.951L141.288 111.996Z" fill="#92EF9A"/>
<path d="M85.8581 120.716C88.003 121.982 89.9899 121.688 91.4123 121.643C91.9768 121.756 92.2251 121.078 92.6993 121.462C93.2186 121.665 93.8959 121.213 94.4604 121.146C94.7087 121.01 94.9119 120.965 95.07 121.146C96.3343 122.049 98.0051 120.4 99.3146 120.423C100.308 120.423 100.895 119.858 101.685 119.474C102.701 119.271 102.701 119.271 103.763 118.48C105.117 118.073 106.359 117.305 107.51 116.447C107.827 116.221 108.143 115.972 108.436 115.769C108.594 115.633 108.752 115.498 108.91 115.362C109.091 115.204 109.317 115.001 109.497 114.82C110.242 114.075 110.829 113.194 111.078 112.177C111.078 111.951 111.078 111.59 110.988 111.16C110.829 110.46 110.355 109.579 109.43 108.946C108.978 108.63 108.459 108.382 107.917 108.201C107.443 108.065 106.969 107.952 106.472 107.885C104.508 107.568 102.408 107.885 100.873 108.427C99.3146 108.969 98.2761 109.692 98.0954 110.189C97.8922 110.686 98.547 110.867 100.308 110.957C101.798 110.686 103.311 110.686 104.688 111.002C105.027 111.07 105.366 111.183 105.704 111.296C106.02 111.386 106.449 111.59 106.359 111.544C106.404 111.544 106.449 111.612 106.472 111.657C106.472 111.703 106.472 111.725 106.427 111.77C106.336 111.838 106.562 111.703 106.065 112.019C105.253 112.493 104.056 113.103 103.04 113.532C100.895 114.459 98.6599 115.159 96.3795 115.656C95.228 115.905 94.0765 116.063 92.925 116.198C91.8187 116.311 90.4866 116.424 89.5835 116.402C89.1319 116.402 88.8158 116.334 88.5901 116.266C88.3869 116.198 88.3643 116.176 88.3191 116.153C88.274 116.108 88.2062 116.04 88.2062 115.972C88.2062 115.882 88.1385 115.859 88.3417 115.521C88.432 115.385 88.9513 114.798 89.7641 114.278C90.6221 113.713 91.9768 113.081 93.2637 112.538C95.9054 111.431 98.4792 110.641 97.9825 110.121C97.7793 109.24 95.7925 109.511 94.6861 109.602C93.3766 109.353 91.8639 109.602 90.306 110.121C88.7933 110.618 87.1676 111.386 85.7226 112.448C84.9098 112.968 84.8873 113.984 84.1422 114.707C83.5551 115.543 83.2842 116.74 83.6003 117.893C83.8938 119.022 84.7744 120.152 85.8355 120.784L85.8581 120.716Z" fill="#92EF9A"/>
<path d="M120.741 105.67C120.651 106.484 121.554 107.365 122.141 107.929C122.48 108.133 122.706 108.313 122.751 108.607C122.886 109.059 123.36 109.488 123.767 109.714C124.196 109.94 124.693 110.053 125.144 110.098C126.092 110.189 126.883 110.008 127.47 110.234C128.328 110.527 129.005 110.166 129.773 110.076C130.698 110.189 130.721 110.189 131.827 109.737C134.446 109.737 136.704 108.155 139.143 107.41C139.526 107.116 140.836 106.438 142.123 104.993C142.755 104.292 143.319 103.298 143.365 102.236C143.41 101.197 143.003 100.294 142.439 99.7063C141.265 98.5315 139.933 98.6219 139.504 98.9156C139.007 99.2544 139.391 99.7514 139.775 100.542C140.271 100.904 140.339 101.288 140.294 101.514C140.294 101.717 139.526 102.485 138.42 102.982C136.027 104.112 133.34 104.767 130.676 104.925C129.389 105.015 127.876 104.97 126.815 104.812C125.686 104.541 126.092 104.586 125.934 104.496C125.934 104.428 125.867 104.496 126.002 104.292C126.205 103.976 126.634 103.524 127.086 103.095C127.989 102.236 129.028 101.514 130.179 100.858C130.45 100.723 131.172 100.429 132.143 100.113C132.64 99.9548 133.182 99.7966 133.769 99.6385C134.062 99.5707 134.356 99.5029 134.672 99.4126C134.83 99.3674 135.078 99.3448 135.327 99.3222C136.388 99.2319 137.585 99.2544 138.33 99.2544C139.097 99.2544 139.413 99.1641 139.436 98.8478C139.842 97.9667 138.194 97.3568 137.269 97.0631C136.32 96.3628 134.898 96.0013 133.385 96.2272C131.963 96.3628 130.518 96.7242 129.118 96.9953C128.373 97.0631 128.057 97.8764 127.357 97.7182C126.047 97.7634 124.76 98.3508 123.631 99.2318C123.067 99.6611 122.525 100.158 121.983 100.858C121.486 101.446 120.764 102.688 120.606 103.818C120.358 104.676 121.035 105.038 120.741 105.761V105.67Z" fill="#92EF9A"/>
<path d="M181.436 144.057C182.317 142.724 183.13 141.436 183.626 140.465C184.146 139.516 184.236 138.816 183.875 138.793C183.084 138.228 181.639 139.81 180.759 140.555C178.185 141.753 176.266 144.983 173.986 147.107C173.353 147.604 173.466 148.553 172.699 148.756C170.238 150.157 168.747 152.822 167.099 155.285C166.693 155.646 167.099 156.279 166.49 156.392C165.993 156.64 165.948 157.454 165.632 157.928C165.586 158.199 165.474 158.38 165.225 158.357C163.69 158.583 163.78 160.933 162.742 161.769C161.997 162.401 161.929 163.192 161.545 163.96C160.868 164.705 160.868 164.705 160.461 165.948C158.655 168.094 157.955 171.031 156.126 173.267C155.697 174.284 153.327 179.096 151.859 182.824C150.391 186.551 149.782 189.126 153.01 185.783C160.732 173.832 169.673 162.401 177.169 150.224C177.621 149.569 179.698 146.768 181.459 144.102L181.436 144.057Z" fill="#92EF9A"/>
<path d="M51.8106 93.9686C46.4822 91.9128 41.2667 89.5181 36.0286 87.1009C30.7679 84.7288 25.5072 82.4019 20.111 80.4591C18.937 79.9621 10.0186 75.602 10.0638 77.0026C9.67995 77.8611 11.1249 78.7647 11.8249 79.3747C13.0892 81.3853 15.9341 82.3793 17.9209 83.9381C18.3951 84.4125 19.1402 84.0737 19.4111 84.7288C20.8109 86.6039 23.1591 87.3494 25.3266 88.2756C25.6652 88.5693 26.1394 88.0723 26.2974 88.5919C26.5458 88.976 27.2231 88.8404 27.6521 89.0211C27.8779 89.0211 28.0359 89.0437 28.0585 89.2922C28.3972 90.6251 30.3163 90.0151 31.1065 90.7607C31.6936 91.2802 32.3709 91.1673 33.0257 91.348C33.703 91.7998 33.703 91.7773 34.7868 91.8676C36.7285 92.9972 39.2121 92.952 41.2441 94.0816C43.0052 94.3752 58.0196 98.261 51.8332 93.9912L51.8106 93.9686Z" fill="#92EF9A"/>
<path d="M239.751 60.7595C239.48 59.9011 237.989 60.1722 237.131 60.1496C234.987 59.4492 232.526 60.6692 230.223 61.0306C229.59 61.0306 229.41 61.8439 228.778 61.5728C226.542 61.3243 224.623 62.6346 222.749 63.8094C222.343 63.8997 222.523 64.6 222.004 64.3967C221.553 64.3741 221.327 64.9841 220.988 65.21C220.898 65.3907 220.785 65.5037 220.559 65.3681C219.272 64.8485 218.866 66.7688 217.872 67.0173C217.15 67.2206 216.947 67.8306 216.495 68.305C215.818 68.6439 215.818 68.6439 215.298 69.5249C213.47 70.5641 212.589 72.7781 210.851 73.998C210.602 74.382 209.993 75.3309 209.18 76.596C208.412 77.8385 207.577 79.3747 207.012 80.7302C205.883 83.4863 205.658 85.4517 208.299 83.5315C211.302 79.6232 215.005 76.2345 219.001 73.2525C222.975 70.2478 227.242 67.6724 231.555 65.1648C232.051 64.9163 234.287 63.9675 236.341 63.1316C238.396 62.3183 240.18 61.2791 239.751 60.7821V60.7595Z" fill="#92EF9A"/>
<path d="M79.8076 61.2792C79.7173 61.6181 80.3269 61.5503 79.9883 61.957C79.3109 63.2221 79.9883 64.0128 80.4173 64.8713C80.3721 65.0746 80.9817 64.8713 80.6882 65.2101C80.5301 65.4586 80.9817 65.5038 81.072 65.6619C81.1849 65.6845 81.2526 65.7523 81.072 65.8653C80.2592 66.6559 81.7042 66.6334 81.5462 67.1755C81.4558 67.5596 81.8848 67.6048 82.1106 67.8081C82.1106 68.1696 82.1106 68.1696 82.6299 68.3955C82.7879 69.3443 84.0975 69.7284 84.3007 70.6772C84.978 71.129 90.0355 75.6699 90.0581 72.3038C87.5971 68.3051 86.2424 63.6739 83.533 59.7656C83.4201 59.5397 83.0137 58.4554 82.4944 57.5291C81.9977 56.6029 81.2752 55.8799 80.8237 56.2414C80.0334 56.6255 80.1463 57.3258 80.056 57.7776C79.2432 59.0653 79.9657 60.0819 79.8302 61.2567L79.8076 61.2792Z" fill="#92EF9A"/>
<path d="M161.54 74.6526C168.765 66.8586 177.074 59.878 184.095 51.8355C184.931 50.9996 191.794 44.787 190.462 44.2449C189.785 43.5671 188.498 44.4708 187.708 44.8548C185.427 45.1485 183.599 47.2721 181.521 48.3791C180.934 48.605 181.002 49.4183 180.325 49.3731C178.112 49.8249 176.667 51.6096 175.109 53.1684C174.725 53.3491 175.064 53.9817 174.522 53.8913C174.071 53.9591 173.98 54.6142 173.709 54.9079C173.642 55.1112 173.551 55.2468 173.326 55.1564C171.948 54.8853 171.948 56.8733 171 57.2574C170.323 57.5737 170.21 58.2062 169.849 58.7258C169.216 59.1325 169.216 59.155 168.81 60.0813C167.139 61.3238 166.394 63.5829 164.678 64.9158C163.843 66.3616 155.602 78.3124 161.585 74.6075L161.54 74.6526Z" fill="#92EF9A"/>
</svg>
