<svg width="250" height="250" viewBox="0 0 250 250" fill="none" xmlns="http://www.w3.org/2000/svg">
<rect width="250" height="250" fill="#063312"/>
<path d="M189.994 74.9788C189.629 66.4118 187.054 56.8785 181.603 48.4188C176.238 39.9162 167.912 33.0239 158.728 28.7297C157.119 27.8708 155.788 27.4414 154.501 27.0978C153.213 26.7543 152.076 26.2819 150.724 25.6593C149.2 25.0581 147.269 24.4139 145.209 24.0489C144.2 23.8557 143.149 23.641 142.14 23.4477C141.11 23.2974 140.123 23.1471 139.201 22.9968C137.527 22.8036 136.175 22.6318 135.316 22.2883C133.6 21.7944 131.497 21.3221 129.179 21.1932C128.02 21.1074 126.819 21.0429 125.574 21C124.33 21 122.999 21 121.69 21.1074C116.411 21.4724 111.154 22.7607 106.926 23.8342C100.682 25.5305 96.4761 27.9782 91.6264 31.0486C88.708 32.7448 87.3131 33.7325 85.7896 34.8919C84.3089 36.0943 82.5922 37.4255 79.6738 40.5818C76.1331 43.7166 73.2576 47.5385 70.6182 51.4678C68.1075 55.4829 66.0046 59.7772 64.3737 64.2432C62.8287 68.7307 61.5197 73.347 60.8974 78.0707C60.6828 79.2516 60.5326 80.4325 60.4467 81.6135C60.3394 82.7944 60.1892 83.9968 60.1248 85.1992C60.0819 87.604 59.9103 89.9873 60.0605 92.4135C60.1892 94.1956 60.4896 97.7813 61.584 102.419C62.0561 104.738 62.9145 107.272 63.8158 110.02C64.3737 111.351 64.9531 112.725 65.5539 114.142C66.1977 115.538 66.9702 116.934 67.6998 118.372C73.9872 129.838 85.3175 139.929 93.5791 149.549C102.055 159.082 106.926 168.594 108.45 171.793C109.308 173.36 109.523 173.296 108.815 171.041C108.107 168.787 106.562 164.235 102.635 157.579C96.2829 147.402 87.8925 138.963 80.6824 130.16C77.0773 125.737 73.7726 121.185 71.2405 116.268C68.6869 111.373 66.8844 106.069 65.8973 100.616C63.9231 89.7081 64.8243 78.1781 68.6869 67.7001C72.5066 57.2221 78.9871 47.7103 87.7638 40.818C96.4546 33.8398 107.077 29.1376 117.999 27.9567C120.746 27.6346 123.428 27.5917 126.239 27.7849L130.488 28.0641L134.694 28.5579C140.273 29.3309 145.767 30.5762 150.981 32.5086C161.389 36.3305 170.573 43.1369 176.496 52.3696C182.504 61.5378 185.38 72.7243 185.509 83.825C185.466 86.2298 185.466 93.1221 182.891 101.066C181.539 105.06 179.5 109.268 176.753 113.391C174.05 117.535 170.659 121.7 167.827 126.403C162.097 135.957 160.037 146.435 159.78 153.757C159.629 157.429 159.822 160.263 159.973 162.023C160.144 163.784 160.316 164.471 160.488 163.87C161.067 163.87 161.26 160.456 161.625 156.097C161.968 151.739 162.912 146.543 164.007 143.064C165.423 139.307 167.097 135.098 169.522 130.997C171.904 126.853 175.123 122.903 178.298 118.63C181.474 114.379 184.436 109.612 186.453 104.502C188.556 99.4132 189.65 94.0453 190.23 88.9781C190.895 83.825 189.972 79.1228 190.036 75.0003L189.994 74.9788Z" fill="#92EF9A"/>
<path d="M174.736 172.631C172.827 169.668 169.908 166.876 166.067 165.695C162.247 164.493 158.363 165.159 155.187 166.146C151.947 167.155 149.115 168.465 146.346 169.474C143.535 170.505 140.66 171.385 137.763 172.115C133.514 173.189 129.201 173.94 124.845 174.37C124.051 172.158 122.785 168.852 120.982 164.235C116.991 155.217 113.021 146.178 109.008 137.117C109.008 137.074 109.03 137.096 109.051 137.031L110.231 135.335C110.961 134.176 111.648 132.952 112.334 131.771C112.978 130.547 113.557 129.302 114.158 128.056C114.716 126.789 115.21 125.501 115.725 124.234C116.926 120.992 117.806 117.643 118.429 114.25C121.948 114.25 125.424 113.434 128.536 112.039C129.372 111.652 130.209 111.223 131.003 110.75C131.561 112.232 132.312 113.799 133.45 115.345C134.523 116.805 135.982 118.179 137.763 119.124C138.664 119.597 139.651 120.005 140.724 120.219L141.068 120.284H141.153C141.153 120.284 141.282 120.284 141.325 120.284C141.411 120.284 141.368 120.477 141.389 120.563L141.497 121.851C141.625 123.354 141.754 124.857 141.883 126.382C142.162 129.409 142.419 132.458 142.677 135.442C143.235 141.39 143.793 147.123 144.243 152.04C145.231 161.852 146.067 168.358 146.411 166.876C147.484 166.833 146.711 154.573 146.454 148.068C146.54 143.795 146.411 138.899 146.153 133.617C146.003 130.976 145.853 128.25 145.703 125.501C145.617 124.106 145.531 122.71 145.445 121.314L145.273 118.759L145.166 117.299L145.123 116.569C145.123 116.462 145.123 116.29 145.08 116.226L144.909 116.054C144.222 116.14 143.471 116.204 142.763 116.247C142.419 116.247 142.033 116.269 141.733 116.183C141.518 116.14 141.325 116.075 141.132 116.032C140.359 115.796 139.608 115.388 138.922 114.894C137.548 113.907 136.54 112.511 135.767 110.901C135.359 109.999 135.016 109.054 134.716 108.088C137.398 105.855 139.673 103.128 141.282 100.101C144.072 94.9261 145.273 89.1288 145.295 83.4604C145.295 80.6262 144.994 77.792 144.437 75.0222C144.201 73.7124 143.75 72.0162 143.02 70.5347C142.248 69.0532 141.175 67.2925 138.879 66.2404C137.741 65.7466 136.432 65.5963 135.231 65.7895C133.986 65.9828 132.827 66.6054 132.012 67.3355C130.36 68.8385 129.673 70.4488 129.136 71.9733C128.879 72.7462 128.686 73.4977 128.536 74.2707L128.192 76.3105C127.978 77.6632 127.806 79.0159 127.677 80.3685C127.141 85.8008 127.205 91.2545 127.892 96.6438C128.064 98.0609 128.428 100.981 129.287 104.781C129.072 104.932 128.879 105.125 128.664 105.254C127.613 106.027 126.647 106.521 125.918 106.585C124.029 106.929 121.733 107.53 119.287 107.723C120.124 96.88 118.15 85.7578 113.107 75.9669C111.905 73.5621 110.446 70.8138 107.699 68.6237C106.283 67.5072 104.63 66.7128 102.742 66.3907C100.875 66.0472 98.6435 66.3478 96.841 67.4428C93.2573 69.6329 92.0127 73.5407 91.8625 76.697C91.7338 79.9391 92.2059 82.4513 92.5492 85.1781C93.3646 90.5674 94.7594 96.1499 97.6778 101.217C100.553 106.241 104.974 110.729 110.789 112.94C111.841 113.327 112.892 113.606 113.965 113.821C113.514 116.677 112.828 119.768 111.733 122.968C110.811 125.609 109.716 128.335 108.278 130.976L107.206 132.973L105.982 134.906L105.253 136.044L104.888 136.623C104.802 136.817 105.038 137.031 105.081 137.246L106.197 139.543C108.944 145.104 111.712 150.666 114.244 155.797C118.235 163.763 121.626 170.591 123.686 174.477C122.441 174.585 121.197 174.692 119.931 174.735C116.883 174.907 114.094 174.778 110.703 174.778C107.377 174.821 103.214 175.443 99.9954 178.428C98.3645 179.888 97.2487 182.121 96.9268 184.204C96.5834 186.308 96.798 188.219 97.1199 189.958C97.4633 191.697 97.9353 193.243 98.3645 194.746C98.8152 196.271 99.2873 197.795 99.8237 199.32C100.897 202.368 102.163 205.46 104.008 208.38C105.811 211.279 108.278 214.027 111.39 215.938C114.502 217.892 118.042 218.858 121.454 219.159C123.514 219.352 125.574 219.288 127.57 219.073C130.081 222.294 132.784 225.45 136.282 227.511C142.441 231.14 150.724 230.775 156.518 226.588C161.625 222.916 164.543 216.454 164.136 210.184C166.775 209.003 169.136 207.672 170.917 206.19C171.732 205.525 172.44 204.859 172.998 204.172C173.256 203.85 173.513 203.549 173.749 203.27C173.921 202.948 174.093 202.669 174.243 202.39C174.779 201.359 174.887 200.908 174.5 201.145C174.007 200.865 172.698 202.54 170.702 203.893C168.749 205.31 166.174 206.448 164.372 207.135C160.209 208.209 155.102 209.475 149.63 210.528C144.201 211.601 138.342 212.417 133.128 213.297C130.531 213.598 128.321 214.693 126.282 214.242C122.849 213.899 119.222 213.297 116.154 211.73C116.454 211.773 116.798 211.837 117.205 211.88C121.476 211.687 125.724 211.107 129.952 210.334C134.179 209.54 138.385 208.531 142.484 207.178C146.604 205.868 150.638 204.279 154.501 202.368C158.385 200.5 162.097 198.289 165.595 195.798C166.389 195.283 169.973 193.093 172.934 190.645C174.221 189.636 175.38 188.584 176.239 187.704C176.668 193.673 175.037 198.504 174.522 200.2C174.264 201.166 174.415 201.273 175.208 200.2C175.938 199.105 177.376 196.743 178.32 192.449C178.899 189.099 178.835 185.685 178.299 182.336C177.719 179.029 176.646 175.658 174.693 172.652L174.736 172.631ZM132.248 88.6135C132.57 84.9849 133.063 81.2274 133.836 77.427C134.244 75.4516 134.608 73.7768 135.36 72.5959C136.218 71.3935 136.325 71.7585 136.583 71.823C137.033 71.9947 137.977 73.648 138.278 75.2798C138.707 77.2123 138.986 79.2091 139.115 81.1844C139.351 85.1566 138.943 89.1933 137.741 92.9078C136.69 95.4629 136.647 97.1591 134.995 98.8553C134.48 99.4995 133.9 100.208 133.278 100.96C133.257 100.766 133.214 100.595 133.192 100.401C132.677 96.0641 131.712 92.0919 132.248 88.5921V88.6135ZM106.605 102.892C103.472 99.1989 101.498 96.0426 99.9739 91.6195C99.2873 88.9785 99.0727 87.6044 98.7508 86.0584C98.4504 84.534 98.0426 82.7089 97.5276 79.2306C97.4203 77.384 97.5276 75.6663 98.0856 74.378C98.665 73.0254 99.6091 72.1021 100.639 71.9088C101.712 71.6512 103.279 72.0591 104.459 72.9824C105.725 73.9271 106.798 75.3872 107.785 77.0834C109.738 80.5188 111.39 84.1904 112.57 88.0338C113.686 91.8986 114.351 95.9352 114.523 100.015C114.566 100.788 114.63 101.926 114.738 103.364C114.695 104.545 114.759 105.962 114.673 107.551C111.519 106.929 108.472 105.146 106.626 102.935L106.605 102.892ZM102.914 188.734C103.193 187.016 103.021 185.191 103.558 183.925C103.965 182.615 105.789 181.262 107.527 181.112C110.081 180.833 112.399 180.639 115.446 180.532C118.986 180.661 119.008 180.682 123.471 179.974C133.385 179.48 142.977 175.937 152.312 172.33C153.149 171.944 154.78 171.149 156.99 170.355C159.179 169.603 162.011 168.873 164.994 169.625C167.655 170.247 170.166 172.266 172.011 174.842C171.174 175.035 170.23 175.379 169.543 175.572C166.089 175.723 162.033 178.17 158.256 179.265C157.269 179.459 156.775 180.468 155.831 180.317C152.376 180.554 149.072 182.422 145.66 183.86C144.995 183.989 144.952 184.805 144.265 184.569C143.6 184.526 142.956 185.256 142.291 185.535C142.033 185.75 141.819 185.878 141.583 185.707C139.93 185.02 138.278 187.253 136.626 187.339C135.445 187.446 134.737 188.111 133.772 188.519C132.548 188.691 132.548 188.756 131.154 189.529C127.785 190.194 124.587 191.976 120.982 192.298C120.338 192.513 118.407 193.05 115.982 193.608C113.579 194.166 110.682 194.682 108.171 195.068C106.948 195.261 105.832 195.433 104.931 195.584C104.566 194.059 103.665 192.148 103.236 190.581C102.914 189.829 102.764 189.207 102.914 188.756V188.734ZM173.685 186.716C170.552 187.381 167.29 190.173 163.921 191.461C163.041 191.719 162.719 192.728 161.84 192.642C158.664 193.028 155.853 194.961 152.848 196.442C152.248 196.571 152.269 197.366 151.604 197.151C150.982 197.129 150.467 197.902 149.866 198.139C149.651 198.353 149.458 198.461 149.2 198.31C147.612 197.666 146.261 199.899 144.737 199.985C143.643 200.092 143.063 200.801 142.183 201.209C141.046 201.402 141.068 201.424 139.823 202.261C136.733 202.948 133.922 204.881 130.639 205.353C130.059 205.568 128.321 206.233 126.154 206.963C125.081 207.307 123.922 207.693 122.699 208.08C121.54 208.423 120.36 208.767 119.18 209.11C116.948 209.733 115.081 210.248 114.48 210.678C111.025 208.402 108.429 204.43 106.605 199.985C106.261 198.912 105.746 198.246 105.424 197.494C105.553 197.516 105.639 197.559 105.768 197.58C110.446 197.838 115.145 197.645 119.845 197.172C124.544 196.679 129.201 195.755 133.729 194.531C142.806 192.019 151.432 188.262 159.436 183.774C160.338 183.302 164.393 181.391 167.955 179.394C169.973 178.278 171.839 177.161 172.955 176.324C174.608 179.179 175.595 182.4 176.067 185.471C175.251 185.793 174.35 186.351 173.706 186.673L173.685 186.716Z" fill="#92EF9A"/>
</svg>
