<svg width="250" height="250" viewBox="0 0 250 250" fill="none" xmlns="http://www.w3.org/2000/svg">
<rect width="250" height="250" fill="#063312"/>
<path d="M32.1803 134.796C32.2805 137.042 32.4809 139.388 32.7013 141.674C33.0019 144.301 33.3827 146.727 34.1042 149.294C34.8257 151.82 35.9079 154.367 37.4711 156.653C38.9942 158.899 41.0585 160.985 43.1227 162.428C45.1468 164.033 47.3112 165.316 49.4757 166.599C53.9047 169.006 58.5343 170.85 63.2439 172.374C67.9736 173.798 72.7634 174.881 77.6133 175.663C82.4432 176.365 87.3132 176.906 92.1832 177.087C101.883 177.468 111.683 176.906 121.203 175.102C123.447 174.721 129.5 173.718 137.276 171.853C141.164 170.951 145.472 169.587 149.821 167.702C154.13 165.717 158.459 162.95 161.886 159.32C163.67 157.556 165.012 155.49 166.335 153.505C167.437 151.419 168.56 149.394 169.241 147.329C170.103 145.323 170.584 143.338 171.065 141.493C171.626 139.648 171.806 137.904 172.107 136.34C172.407 134.776 172.548 133.372 172.648 132.149C172.748 130.946 172.828 129.923 172.868 129.141C172.868 128.94 172.868 128.76 172.888 128.599V128.359C172.888 128.359 172.929 128.018 172.888 127.797C172.848 127.517 172.768 127.256 172.648 126.995C172.087 125.972 171.265 125.732 170.684 125.672C170.083 125.612 169.502 125.792 169.061 126.093C168.64 126.394 168.419 126.755 168.319 126.995C168.239 127.196 168.219 127.316 168.219 127.356C168.059 127.677 167.918 128.058 167.778 128.439C167.718 128.539 167.678 128.619 167.618 128.74C167.177 129.582 166.576 130.765 165.453 132.089C164.331 133.412 162.507 135.096 160.002 136.721C157.998 138.165 155.773 139.287 153.328 140.41C152.126 140.972 150.964 141.573 149.741 142.095L146.074 143.599C143.649 144.662 141.103 145.404 138.618 146.326C136.093 147.088 133.548 147.87 130.983 148.532C120.702 151.119 110.1 152.522 99.4381 152.542C88.7963 152.502 78.1344 151.179 67.8333 148.532C65.2881 147.75 62.7028 147.128 60.1976 146.226C57.6925 145.323 55.1073 144.521 52.8426 143.438C50.5379 142.376 48.3133 141.092 46.2892 139.608C45.2671 138.866 44.3051 138.064 43.3832 137.222L42.5014 136.38C42.0204 135.919 41.5595 135.437 41.0985 134.936C40.1766 133.913 39.2748 132.851 38.3129 131.347C37.4511 130.204 36.7096 129.903 36.1684 129.742C35.6273 129.582 35.2465 129.582 34.966 129.582H34.6052C34.6052 129.582 34.3848 129.602 33.984 129.782C33.503 130.003 33.3627 130.304 33.0421 130.565C32.9018 130.725 32.7414 130.765 32.6412 131.046L32.3807 132.149L32.1202 133.252C32.1202 133.252 32.0801 133.432 32.0601 133.532V133.953L32.1402 134.796H32.1803Z" fill="#92EF9A"/>
<path d="M172.668 156.292C172.107 155.269 171.285 155.029 170.704 154.969C170.103 154.908 169.522 155.089 169.101 155.39C168.68 155.69 168.46 156.051 168.359 156.292C168.279 156.493 168.259 156.613 168.259 156.653C168.099 156.974 167.959 157.355 167.818 157.736C167.758 157.836 167.718 157.916 167.658 158.037C167.217 158.879 166.616 160.062 165.494 161.385C164.371 162.709 162.547 164.393 160.042 166.018C158.038 167.461 155.814 168.584 153.369 169.707C152.166 170.269 151.004 170.87 149.781 171.392L146.114 172.896C143.689 173.958 141.144 174.7 138.659 175.623C136.133 176.385 133.588 177.167 131.023 177.829C120.742 180.415 110.12 181.819 99.4783 181.839C88.8365 181.799 78.1747 180.476 67.8535 177.829C65.3083 177.047 62.723 176.425 60.2179 175.523C57.7128 174.62 55.1274 173.818 52.8628 172.735C50.5581 171.652 48.3336 170.389 46.3094 168.885C45.2873 168.143 44.3253 167.341 43.4034 166.499L42.5216 165.657C42.0406 165.195 41.5797 164.714 41.1188 164.213C40.1969 163.19 39.295 162.127 38.333 160.623C37.4713 159.5 36.7298 159.24 36.2087 159.099C35.6676 158.959 35.2868 158.959 35.0263 158.979H34.6856C34.6856 158.979 34.6255 158.999 34.4651 159.039C34.3249 159.079 34.1044 159.16 33.9441 159.24C33.5232 159.5 33.3428 159.741 33.0222 160.002C32.8819 160.042 32.7617 160.483 32.6214 160.724L32.2406 161.586C32.0602 161.766 32.1604 162.468 32.1404 162.95L32.1805 164.554C32.2807 166.719 32.4209 169.146 32.7015 171.291C33.3629 176.244 34.6055 181.438 37.6317 186.05C38.3932 187.193 39.2549 188.256 40.2169 189.259C40.6979 189.76 41.239 190.221 41.7401 190.682C42.2611 191.104 42.7621 191.444 43.2832 191.846C45.3073 193.45 47.4718 194.693 49.6362 195.996C54.0453 198.383 58.6747 200.228 63.3844 201.711C68.094 203.155 72.9039 204.178 77.7138 204.98C82.5437 205.682 87.3936 206.203 92.2435 206.384C101.943 206.765 111.723 206.183 121.223 204.378C123.467 203.997 129.52 202.995 137.296 201.13C141.184 200.228 145.473 198.844 149.821 196.979C154.13 194.994 158.459 192.227 161.886 188.597C163.67 186.832 165.013 184.767 166.335 182.802C167.438 180.716 168.56 178.691 169.241 176.625C170.103 174.62 170.584 172.635 171.065 170.79C171.626 168.945 171.806 167.201 172.107 165.637C172.408 164.073 172.548 162.669 172.648 161.446C172.748 160.242 172.829 159.22 172.869 158.438C172.869 158.237 172.869 158.057 172.889 157.896V157.656C172.889 157.656 172.929 157.315 172.889 157.094C172.849 156.813 172.768 156.553 172.648 156.292H172.668Z" fill="#92EF9A"/>
<path d="M64.607 112.938C64.4867 113.158 64.8675 113.559 65.609 114.061C66.4107 114.502 67.573 115.023 68.9558 115.444C71.7215 116.307 75.2087 116.908 77.6337 117.309C88.2955 119.896 105.01 119.435 118.537 118.051C121.984 117.831 124.971 116.567 127.756 116.527C133.488 115.946 139.721 114.442 145.873 111.454C148.92 109.89 151.966 107.965 154.551 105.157C157.137 102.43 159.06 98.4396 159.08 94.389C159.121 93.6671 159.08 93.0254 159.04 92.4439C158.92 91.8824 158.78 91.3811 158.64 90.8998C158.419 89.9172 158.018 89.055 157.898 87.8719C157.718 87.2703 157.457 86.5885 157.157 85.9067C156.776 85.265 156.375 84.5832 155.894 83.9215C154.912 82.6581 153.77 81.5151 152.747 80.5526C151.745 79.7906 150.984 79.169 150.583 78.6075C148.88 76.522 145.633 74.7774 142.246 73.6545C138.839 72.4914 135.272 71.8096 132.446 70.9875C128.257 69.8244 125.031 69.8244 121.183 69.5637C116.714 69.0423 116.674 69.0424 110.982 69.3231C98.4362 68.9421 85.9106 71.5088 73.405 74.4365C71.1403 75.2186 64.146 77.1035 56.4703 81.475C54.5664 82.5779 52.6224 83.8413 50.8187 85.3653C49.015 86.8893 47.3316 88.694 46.1692 90.8397C44.9667 92.9652 44.606 95.552 45.2072 97.7979C45.7884 100.064 47.1111 101.949 48.5541 103.493C51.5001 106.581 54.867 108.586 57.5926 110.03C60.3382 111.474 62.4826 112.376 63.5849 112.737C64.6871 113.118 64.7873 112.938 63.5448 112.015C62.3423 111.073 59.6769 109.469 55.9693 106.461C53.0834 104.255 50.2776 101.788 48.9749 99.0613C47.6522 96.3742 48.0731 93.8877 50.1173 91.341C52.1214 88.8544 55.2478 86.769 58.5145 85.0845C61.8012 83.38 65.3685 81.9964 68.996 80.8333C76.2909 78.5072 83.9265 76.9832 91.6223 76.0207C99.318 75.0782 107.114 74.6972 114.83 75.0181C122.526 75.359 130.261 76.3014 137.376 78.6476C140.903 79.8107 144.31 81.3347 147.056 83.4402C149.862 85.5056 151.846 88.1726 152.607 91.2207C153.349 94.3689 152.848 97.3167 150.984 99.9035C149.06 102.47 146.054 104.576 142.807 106.26C139.54 107.965 135.953 109.268 132.306 110.351C128.638 111.434 124.89 112.336 121.103 113.018C119.419 113.339 114.83 114.041 108.898 114.582C102.966 115.144 95.6706 115.404 88.7364 115.324C81.8022 115.204 75.1887 114.702 70.6995 113.96C66.1101 113.299 64.1259 112.276 64.5668 112.938H64.607Z" fill="#92EF9A"/>
<path d="M90.039 83.3204C92.1433 81.5558 94.2476 80.6133 94.8087 80.0318C95.3899 79.5104 94.6484 79.2297 91.3216 80.1321C90.079 80.6534 88.7964 81.3553 87.594 82.3579C87.133 82.7389 86.7121 83.2001 86.3314 83.6814C84.4275 83.2603 82.243 82.8191 80.3391 82.5183C76.3109 81.8967 73.7456 81.5959 77.7739 84.1226C80.0585 84.9848 82.3232 85.9273 84.5878 86.8698C84.1669 88.0729 83.9465 89.1157 83.7261 90.3188C83.5056 91.7025 83.3653 93.1061 83.6459 94.8106C83.7461 95.2518 83.8262 95.693 84.0467 96.2143C84.2471 96.7157 84.5878 97.2771 84.9686 97.6982C85.7502 98.5805 86.6921 99.1019 87.634 99.4228C89.598 100.044 91.3417 99.7235 92.6844 99.4228C95.3298 98.8011 97.7748 97.7985 100.039 96.7758C101.222 96.2344 102.364 95.6929 103.486 95.1916C108.236 97.3774 113.006 99.5431 117.776 101.588C117.836 101.629 117.956 101.669 118.056 101.729C117.595 102.31 117.094 102.872 116.513 103.373C115.15 104.596 113.547 105.559 112.405 106.301C111.222 106.943 110.661 107.745 110.982 107.865C111.282 108.627 113.988 107.805 115.411 107.223C117.175 106.963 119.179 105.88 120.802 104.135C121.002 103.915 121.183 103.674 121.363 103.453C122.385 103.975 123.508 104.536 124.61 105.058C127.576 106.481 130.362 107.564 130.321 106.742C130.762 105.84 128.959 104.636 128.057 103.854C127.035 102.31 125.271 101.167 123.487 100.024C123.808 99.3626 124.109 98.7209 124.429 98.0191C124.971 96.8761 124.49 95.6729 124.83 94.55C124.97 93.3468 124.59 91.9231 123.828 90.8202C123.067 89.6972 122.024 88.855 120.902 88.2534C118.597 87.0302 116.172 86.7695 113.808 86.8096C112.946 86.7093 112.565 87.3911 111.864 87.0502C111.082 86.8698 110.08 87.4713 109.278 87.6518C108.938 87.8323 108.657 87.9326 108.397 87.7721C107.014 87.2909 105.43 88.4138 103.988 89.1758C103.907 89.1357 103.807 89.0956 103.747 89.0154C102.965 88.3938 102.144 88.474 101.302 88.2333C100.42 87.6919 100.42 87.712 99.0774 87.5516C96.5523 86.188 93.4459 86.0677 90.8205 84.7442C90.5199 84.684 89.9187 84.5437 89.117 84.3632C89.4177 84.0223 89.7183 83.6814 90.059 83.4007L90.039 83.3204ZM112.926 92.2238C114.95 92.0233 117.034 92.284 118.577 93.0059C119.339 93.3869 119.94 93.8682 120.261 94.3494C120.561 94.7906 120.702 95.312 120.622 96.1742C120.602 96.3948 120.461 96.9563 120.201 97.7183C119.62 97.3974 118.918 97.4777 118.638 96.836C116.934 94.6703 114.188 93.5674 111.563 92.4043C112.024 92.3241 112.485 92.2639 112.946 92.2238H112.926ZM97.4742 92.4043C97.3139 92.5246 97.1535 92.6449 96.9331 92.8054C95.2096 93.427 93.6263 94.2692 91.9428 94.9109C91.1011 95.2317 90.3396 95.4924 89.6582 95.4924C89.0169 95.5325 88.3555 95.2719 88.095 94.8909C87.9547 94.8106 87.6941 94.6703 87.4336 93.8681C87.1931 93.1262 87.0529 92.0033 87.0929 90.7199C87.133 89.8376 87.1931 88.875 87.3735 87.9526C90.7604 89.3763 94.1273 90.8603 97.4742 92.3843V92.4043Z" fill="#92EF9A"/>
<path d="M226.799 45.2C225.096 43.696 222.53 43.8966 220.286 44.2575C211.708 45.6412 203.311 48.1878 195.415 51.8575C188.861 54.9055 191.487 60.6606 194.713 60.801C199.483 61.0015 205.034 59.8385 209.223 61.0416C209.103 61.1619 208.982 61.2823 208.862 61.3825C207.9 62.1445 207.64 63.3878 206.638 63.7888C203.131 66.0548 200.225 69.8448 197.218 73.3941C196.577 73.9355 196.778 74.7176 196.016 74.9582C195.335 75.3593 194.914 76.4622 194.332 77.144C194.152 77.5049 193.972 77.7656 193.671 77.7857C191.767 78.3471 190.865 81.4353 189.282 82.7387C188.14 83.7012 187.699 84.7841 186.917 85.8669C185.795 86.9698 185.795 86.9698 184.773 88.7144C181.747 91.8627 179.622 95.8933 176.516 99.1819C175.995 99.964 174.251 102.43 172.247 105.338C172.287 103.593 172.307 102.009 172.207 100.646C171.947 97.9386 171.686 96.0938 171.446 95.5524C171.446 95.5323 171.446 95.5122 171.446 95.4721C171.205 92.5444 170.303 89.7772 169.061 87.3909C166.536 82.5782 162.788 79.2495 159.662 76.9635C156.475 74.7176 153.85 73.4142 152.507 72.8728C151.144 72.3313 151.064 72.4917 152.607 73.6347C154.07 74.8379 157.377 76.9033 161.385 81.2949C164.532 84.5835 166.976 88.4336 167.878 92.6247L168.159 94.2088C168.219 94.7102 168.259 95.1914 168.259 95.6927C168.259 96.6954 168.139 97.698 167.918 98.7006C167.478 100.706 166.576 102.671 165.373 104.416C162.928 107.905 159.08 110.632 154.912 112.918C150.663 115.204 146.174 117.209 141.645 118.974C132.506 122.383 122.906 124.629 113.166 125.692C103.426 126.694 93.5661 126.454 83.8662 125.05C74.2065 123.626 64.6269 120.859 55.7888 117.009C53.6243 116.006 51.5801 114.883 49.7363 113.58C48.8145 112.918 47.9527 112.216 47.131 111.474L44.4856 108.928C41.0987 105.599 38.4332 101.909 38.1927 98.059C37.9322 93.888 39.4553 89.5967 42.0406 86.0273C44.686 82.4379 48.4136 79.4701 52.4218 77.0236C56.5102 74.6374 60.9393 72.6923 65.5086 71.3487C67.7733 70.6669 70.2584 70.1456 72.6032 69.544C75.0081 69.0026 77.413 68.5414 79.818 68.04C80.9002 67.8796 82.8842 67.5788 85.5497 67.1778C88.2151 66.877 91.562 66.3957 95.3297 66.1751C102.865 65.5936 112.104 65.4733 120.862 66.1751C129.62 66.8369 137.837 68.5013 143.428 70.1456C146.214 70.9677 148.378 71.7498 149.701 72.2712C151.044 72.7725 151.645 72.8928 151.264 72.5118C151.505 72.1107 149.16 70.4464 145.773 68.9825C142.386 67.5588 138.077 66.2353 135.051 65.5334C128.478 63.4279 119.8 62.1245 110.661 61.7635C101.522 61.4026 91.9428 61.9841 83.3452 62.8865C78.9963 63.2274 75.1885 64.6912 71.7014 64.8316C68.1341 65.353 64.3262 65.8743 60.4383 67.0976C56.5904 68.2807 52.7425 69.925 49.0349 72.0907C45.3473 74.2564 41.76 76.9635 38.7739 80.4126C35.7878 83.8416 33.4029 88.1328 32.5411 92.8051C32.3007 93.6273 32.2405 94.3692 32.2405 95.0711C32.2405 95.7729 32.2405 96.3946 32.2605 97.0162C32.3207 97.7983 32.3808 98.4199 32.4409 99.1619C32.2806 100.485 32.1202 102.37 32 104.937C32.1603 110.953 32.6413 117.249 35.0863 123.345C36.3088 126.373 38.1126 129.301 40.5776 131.707C41.8402 132.991 43.1228 133.813 44.3854 134.755C45.628 135.738 47.0108 136.48 48.3535 137.302C59.2358 143.559 71.3807 146.446 83.4454 147.93C95.5702 149.274 107.815 149.073 119.88 147.068C125.832 146.065 131.744 144.742 137.596 143.037C143.428 141.353 149.22 139.027 154.531 135.718C154.832 135.537 155.252 135.297 155.794 134.976C156.315 134.635 156.916 134.174 157.617 133.653C158.299 133.131 159.12 132.59 159.942 131.908C160.724 131.186 161.585 130.404 162.487 129.562C166.035 126.133 169.261 120.739 170.744 115.204C171.185 113.8 171.466 112.417 171.666 111.053C184.773 95.7529 198.521 80.6331 211.187 64.9319C211.387 64.6912 211.808 64.21 212.349 63.5883C213.492 66.6765 212.389 71.3688 212.951 77.7656C213.231 80.974 220.406 80.5128 224.534 71.4089C227.4 65.0923 228.583 58.0538 228.603 51.1155C228.603 48.9699 228.382 46.5836 226.759 45.1599L226.799 45.2Z" fill="#92EF9A"/>
</svg>
