<svg width="250" height="250" viewBox="0 0 250 250" fill="none" xmlns="http://www.w3.org/2000/svg">
<rect width="250" height="250" fill="#063312"/>
<path d="M207.694 134.81C207.507 134.015 207.086 133.009 206.758 132.401C206.431 131.746 206.127 131.091 205.777 130.436C204.397 127.839 202.737 125.359 201.101 122.997C197.781 118.318 195.209 113.686 193.479 108.189C193.058 106.809 192.614 105.452 192.263 104.025L191.725 101.919C191.655 101.335 191.468 100.796 191.468 100.141C191.258 97.6618 191.655 94.8078 192.123 91.8135C193.151 85.8482 194.344 79.0642 193.339 72.2567C192.731 67.3675 190.93 65.0048 189.902 61.3555C188.522 57.3084 184.875 52.0449 181.625 48.2552C180.152 46.5709 178.796 45.3778 178.189 44.3017C175.36 40.4419 169.865 36.4182 163.763 33.6344C157.638 30.757 151.232 29.0025 145.878 27.248C137.929 24.9789 131.71 24.8619 124.345 25.0725C120.02 25.166 117.869 25.283 115.437 25.6807C114.222 25.8445 112.936 26.0316 111.299 26.4293C109.663 26.8036 107.652 27.2013 105.057 28.0435C93.3905 30.8273 82.3553 36.6521 73.1671 44.5825C63.9555 52.5829 56.8013 62.8058 51.7747 74.0112C51.3305 75.0873 50.7928 76.7014 50.0212 78.7601C49.6238 79.7894 49.3432 80.959 48.9691 82.2222C48.5951 83.4854 48.1742 84.8423 47.8937 86.3395C46.4909 92.2112 45.4155 99.7672 45.7194 108.025C45.9766 116.283 47.73 125.242 50.933 133.57C53.9724 141.898 57.3157 150.297 57.1754 158.601C57.1754 166.859 54.4166 174.158 51.3539 179.328C48.2678 184.568 44.8076 187.749 43.1476 189.34C41.4409 190.931 41.5344 191.118 44.1295 189.363C45.3686 188.428 47.2624 187.001 49.4368 184.591C51.5877 182.205 54.1828 178.883 56.3104 174.205C59.49 166.953 60.6823 158.648 59.3263 150.765C58.0638 142.928 55.0713 135.863 52.9437 128.915C48.6652 115.16 48.6184 100.212 52.4761 86.2927C56.287 72.3737 64.049 59.4606 74.8504 49.9629C85.6752 40.4653 99.4224 34.4064 113.661 32.301C120.791 31.2483 128.039 31.2015 135.147 32.1606C142.254 33.0964 149.128 35.2018 155.838 38.0324C162.477 40.7694 168.556 44.4655 173.489 49.3781C178.422 54.2673 182.116 60.3729 184.665 66.9464C187.166 73.2158 186.909 80.0233 185.623 87.2284C185.039 90.8544 184.221 94.6675 184.197 99.0186C184.197 101.147 184.665 103.721 185.202 105.428C185.693 107.323 186.255 109.195 186.933 111.066C188.242 114.809 189.972 118.529 192.17 121.897C194.344 125.289 196.775 128.213 198.763 131.114C199.791 132.565 200.68 134.062 201.545 135.582C202.106 136.565 202.34 137.805 202.223 138.998C202.129 140.167 201.592 141.29 201.007 141.758C200.376 142.366 198.973 142.904 197.22 143.372C196.448 143.606 195.279 143.864 193.619 144.472C192.801 144.776 191.842 145.15 190.533 146.109C189.481 147.022 188.546 148.121 187.938 149.267C185.436 153.829 184.828 159.256 184.057 164.917C183.145 170.929 183.566 177.316 180.854 181.971C178.189 186.837 172.835 190.58 167.13 193.177C161.355 195.82 154.996 197.715 149.315 200.475C146.486 201.832 143.797 203.423 141.459 205.271C139.168 207.119 137.227 209.107 135.754 211.166C132.738 215.26 131.663 219.471 131.546 222.067C131.453 224.711 131.85 225.74 131.967 224.804C132.294 224.804 132.411 223.564 132.879 221.693C133.346 219.798 134.282 217.318 135.825 214.885C137.391 212.476 139.542 210.137 141.903 208.289C144.241 206.417 146.766 205.014 148.894 204.031C153.663 202.019 159.228 200.545 165.119 198.487C170.988 196.428 177.324 193.457 182.163 188.124C184.548 185.48 186.371 182.112 187.213 178.532C188.078 175 188.242 171.468 188.639 168.146C189.107 164.871 189.574 161.385 190.252 158.297C190.603 156.73 191.024 155.209 191.585 153.852C192.123 152.496 192.848 151.256 193.642 150.601C194.227 150.063 195.63 149.571 197.009 149.174C198.412 148.753 199.932 148.355 201.475 147.7C203.018 147.068 204.654 145.992 205.753 144.495C206.805 143.045 207.413 141.477 207.787 139.91C208.114 138.272 208.068 136.541 207.623 134.834L207.694 134.81Z" fill="#92EF9A"/>
<path d="M111.159 112.189C111.627 111.885 112.071 111.605 112.538 111.371C112.983 111.113 113.427 110.856 113.918 110.716C117.682 109.078 121.306 105.756 123.62 101.616C126.075 97.6154 127.431 92.6092 127.642 87.7434C127.759 86.4568 127.431 85.6147 127.361 84.7023C129.325 84.9597 130.728 83.7665 132.411 83.8367C132.855 83.9303 132.925 83.1817 133.393 83.5794C134.959 84.4216 136.128 83.8601 137.461 83.7198C137.695 83.8368 137.812 83.1116 138.022 83.5794C138.233 83.8601 138.56 83.3923 138.817 83.4157C138.934 83.2987 139.027 83.2753 139.074 83.5327C139.448 84.7491 140.384 83.3689 140.921 83.8836C141.272 84.2345 141.669 83.8836 142.067 83.8836C142.464 84.1877 142.441 84.1408 143.142 83.9771C144.195 84.6789 145.948 84.328 146.977 85.4041C147.257 85.4743 148.052 85.7316 149.011 86.176C149.969 86.6205 151.092 87.2522 152.05 87.9072C153.032 88.5388 153.85 89.1704 154.318 89.3107C154.785 89.4277 155.159 88.9365 154.856 87.4159C152.494 83.4858 148.847 80.3979 144.522 78.737C142.347 77.9182 139.963 77.4971 137.625 77.6141C135.287 77.7311 133.019 78.3159 130.985 79.3686C130.564 79.5324 128.741 80.2342 127.174 81.357C127.151 81.1933 127.127 81.0061 127.081 80.8424C126.847 79.8599 126.379 78.9008 126.145 78.0118C125.795 77.2632 125.608 76.6316 125.725 76.117C125.701 74.2923 124.789 71.9295 123.176 69.9411C122.802 69.4499 122.428 68.9118 122.031 68.4206C121.586 67.9527 121.142 67.4848 120.721 67.0404C119.88 66.1514 119.178 65.1923 118.43 64.4438C116.396 62.0109 114.105 61.0751 111.603 59.8353C110.154 59.0633 109.405 58.6656 108.54 58.3381C107.675 58.0106 106.577 57.917 104.543 57.5895C100.147 56.5602 95.4011 56.7006 91.1694 58.0808C86.8207 59.1569 82.7293 61.4026 79.0821 64.046C77.843 65.1923 74.1257 68.7481 71.5773 74.1754C68.9821 79.5558 67.9066 86.7843 69.4964 92.2817C70.8758 97.8727 74.0321 101.312 75.131 102.247C75.6921 102.739 75.8791 102.575 75.5986 101.616C75.4583 101.148 75.2245 100.469 74.8504 99.5804C74.4997 98.6915 74.1958 97.5218 73.775 96.1416C72.3722 91.9074 72.1851 87.299 73.2839 82.8542C74.3594 78.3861 76.861 74.2689 80.0406 70.9237C81.6071 69.216 83.5008 67.8826 85.4413 66.6427C87.4753 65.59 89.4861 64.6309 91.8007 64.2098C96.3597 62.9934 101.106 63.0869 105.361 64.5607C113.965 67.3211 120.184 76.0468 120.581 85.2403C120.815 89.8254 119.833 94.3637 117.471 98.4575C115.321 102.575 111.931 105.756 107.862 108.049C106.974 108.54 104.379 109.71 100.849 110.365C97.3416 111.043 92.8761 110.973 88.8782 109.803C84.8803 108.68 81.4201 106.598 79.199 104.82C77.0481 102.996 75.7388 101.896 75.7622 102.528C75.2712 102.879 75.996 104.189 77.0948 105.756C78.3106 107.207 79.9939 108.844 81.3499 109.757C83.9216 112.377 88.3171 114.552 93.2502 115.207C98.1833 115.932 103.491 115.207 108.073 113.733C109.265 113.453 110.271 112.821 111.182 112.189H111.159Z" fill="#92EF9A"/>
<path d="M91.2164 81.5909C93.04 78.5498 90.4917 74.339 86.447 75.5087C83.8285 76.2573 82.2152 79.7429 84.0388 82.129C86.143 84.866 89.9071 84.0004 91.2164 81.5909Z" fill="#92EF9A"/>
<path d="M107.956 85.17C109.78 82.1289 107.231 77.9181 103.187 79.0878C100.568 79.8364 98.955 83.322 100.779 85.7081C102.883 88.4451 106.647 87.5795 107.956 85.17Z" fill="#92EF9A"/>
<path d="M79.1524 91.5798C78.7082 91.416 78.2873 91.8839 78.4977 93.4278C80.5785 97.4983 83.9919 100.82 88.2236 102.785C90.3278 103.744 92.6892 104.329 95.0271 104.376C97.3651 104.423 99.6797 103.978 101.761 103.089C102.228 102.949 104.379 102.294 106.086 101.124C107.816 100.001 108.985 98.4574 108.26 98.1065C107.535 97.3579 106.436 97.9428 105.758 98.0363C103.818 97.6152 102.322 98.7147 100.638 98.551C100.217 98.434 100.077 99.1592 99.6329 98.7382C98.1132 97.8024 96.9443 98.2702 95.5882 98.317C95.3544 98.1767 95.2142 98.9019 95.0271 98.434C94.8401 98.1299 94.4894 98.5744 94.2322 98.551C94.1153 98.6446 94.0218 98.668 93.975 98.4106C93.6945 97.1708 92.6425 98.4808 92.1515 97.9427C91.8242 97.5684 91.4032 97.8726 91.0058 97.8492C90.6317 97.5217 90.6318 97.5685 89.9538 97.6854C88.9485 96.9135 87.1715 97.1474 86.213 96.0011C85.9558 95.9075 85.161 95.6034 84.2492 95.0888C83.314 94.5975 82.2385 93.8489 81.3267 93.1471C80.3915 92.4453 79.62 91.7669 79.1524 91.6032V91.5798Z" fill="#92EF9A"/>
<path d="M134.445 150.016C135.848 149.385 137.251 148.8 138.466 148.496C140.313 148.121 141.389 147.139 142.745 146.18C144.545 145.431 144.568 145.361 146.275 143.56C148.566 142.109 150.32 139.91 151.816 137.618C153.149 135.185 154.341 132.916 155.534 130.436C155.767 129.453 156.656 126.483 156.726 122.88C156.843 119.254 156.025 115.09 154.645 111.955C153.289 108.797 151.582 106.622 150.834 106.037C150.039 105.452 150.133 106.528 150.717 110.107C152.447 115.301 152.681 121.032 150.951 126.249C150.18 128.845 148.66 131.325 147.14 133.617C145.457 135.723 143.563 137.711 141.202 139.185C138.887 140.659 136.386 141.899 133.674 142.577C132.364 143.045 130.961 143.139 129.605 143.419C128.927 143.489 128.226 143.513 127.525 143.56C126.823 143.63 126.145 143.653 125.444 143.56C122.662 143.583 119.95 142.858 117.308 142.086C116.069 141.478 114.689 141.15 113.544 140.378L111.72 139.349L110.037 138.109C109.803 137.898 109.312 137.571 108.774 137.056C108.26 136.495 107.605 135.816 106.881 135.044C105.548 133.524 104.192 131.231 103.28 128.986C102.345 126.716 101.854 124.424 101.573 122.74C101.293 121.079 101.106 120.049 100.661 120.354C99.4223 120.26 99.1184 123.886 99.2119 125.851C98.7443 128.12 99.282 130.997 100.498 133.734C101.106 135.115 101.854 136.425 102.742 137.735C103.631 138.881 104.519 140.027 105.501 141.267C106.436 142.413 107.933 142.647 108.47 143.864C109.289 144.823 110.247 145.712 111.299 146.577C112.422 147.326 113.661 147.981 114.947 148.613C116.279 149.08 117.658 149.572 119.085 149.899C120.511 150.11 121.96 150.484 123.41 150.531C124.439 150.765 125.046 149.946 125.865 150.554C126.8 150.952 128.179 150.297 129.255 150.25C129.722 150.086 130.12 150.063 130.4 150.274C131.499 150.812 132.972 150.554 134.375 150.016H134.445Z" fill="#92EF9A"/>
<path d="M124.065 114.622C125.888 111.581 123.34 107.37 119.295 108.54C116.677 109.289 115.063 112.774 116.887 115.16C118.991 117.897 122.755 117.032 124.065 114.622Z" fill="#92EF9A"/>
<path d="M140.805 118.201C142.628 115.16 140.08 110.949 136.035 112.119C133.416 112.868 131.803 116.353 133.627 118.739C135.731 121.476 139.495 120.611 140.805 118.201Z" fill="#92EF9A"/>
<path d="M110.084 128.612C113.754 129.243 117.402 130.085 121.072 130.951C124.719 131.816 128.39 132.659 132.131 133.009C132.949 133.126 139.168 135.091 139.098 133.454C139.332 132.331 138.326 131.793 137.812 131.348C136.877 129.5 134.913 129.383 133.51 128.331C133.183 127.98 132.668 128.612 132.481 127.98C131.453 126.366 129.839 126.366 128.296 126.085C128.063 125.874 127.759 126.6 127.618 126.085C127.431 125.757 126.964 126.132 126.683 126.085C126.52 126.179 126.426 126.179 126.403 125.921C126.122 124.588 124.836 125.921 124.275 125.36C123.854 124.986 123.41 125.36 122.943 125.36C122.475 125.102 122.451 125.102 121.727 125.36C120.371 124.775 118.664 125.641 117.261 125.079C116.653 125.196 113.754 125.5 111.58 126.015C109.382 126.553 107.909 127.255 110.084 128.612Z" fill="#92EF9A"/>
<path d="M169.538 67.0165C168.907 65.496 167.925 64.0924 167.691 62.7122C167.037 60.7939 165.961 59.6477 164.815 58.2675C164.278 57.3551 163.997 56.9107 163.6 56.4428C163.202 55.9749 162.735 55.4837 161.612 54.7351C160.631 53.659 159.649 52.5362 158.363 51.7876C157.124 50.9688 155.908 50.15 154.505 49.6354C153.827 49.3546 153.149 49.0505 152.471 48.7698C151.793 48.4891 151.045 48.3488 150.343 48.1382C149.619 47.9277 148.917 47.7171 148.239 47.5066C147.538 47.3194 146.79 47.2259 146.088 47.0387C145.527 47.0387 144.428 46.8516 142.979 46.9451C142.254 47.0153 141.459 47.0855 140.571 47.1791C140.15 47.2259 139.682 47.2727 139.238 47.3194C138.771 47.3896 138.326 47.5534 137.859 47.6703C136.924 47.9277 135.965 48.185 134.96 48.4657C133.978 48.7464 133.066 49.2845 132.107 49.6822C130.214 50.4776 128.413 51.4834 126.987 52.6531C124.065 54.9456 122.335 57.3552 121.937 58.2909C121.563 59.2968 122.592 58.7822 126.075 57.0511C127.314 56.2557 128.577 55.5071 129.886 54.8755C131.172 54.2205 132.669 53.893 134.095 53.4017C136.97 52.466 139.963 52.3022 142.862 52.3724C148.684 52.8403 154.178 55.7878 157.895 60.3495C161.542 64.9346 163.717 70.853 163.343 76.7481C163.296 77.4733 163.296 78.2219 163.202 78.9471L162.758 81.0993L162.548 82.1754L162.15 83.2281L161.379 85.3569C160.303 88.2343 158.69 90.6203 156.656 92.8193C156.212 93.3106 154.856 94.5036 152.939 95.7669C150.998 97.0301 148.45 98.2466 145.855 99.0186C143.259 99.814 140.688 100.165 138.864 100.329C137.04 100.492 135.918 100.633 136.199 101.077C136.129 101.662 137.04 102.106 138.256 102.457C139.472 102.738 140.992 102.832 142.044 102.878C144.428 103.463 147.538 103.159 150.577 102.13C153.64 101.124 156.609 99.4396 159.204 97.6852C160.607 96.8664 161.051 95.299 162.314 94.7376C164.582 93.2404 166.546 90.7373 167.761 88.0003C168.322 86.5967 169 85.1697 169.398 83.6492C169.702 82.0818 170.146 80.5379 170.263 78.9705C170.52 77.8477 169.702 77.1927 170.31 76.2803C170.777 75.251 170.053 73.7538 169.982 72.5841C169.819 72.0695 169.749 71.6485 169.982 71.321C170.567 70.1045 170.053 68.5371 169.538 66.9932V67.0165Z" fill="#92EF9A"/>
<path d="M130.237 64.0453C127.665 64.9576 126.309 68.5602 128.296 70.806C130.588 73.4026 134.282 72.2563 135.427 69.7766C137.017 66.6186 134.211 62.5949 130.26 64.0219L130.237 64.0453Z" fill="#92EF9A"/>
<path d="M147.187 66.4554C144.615 67.3678 143.259 70.9704 145.247 73.2161C147.538 75.8128 151.232 74.6665 152.377 72.1868C153.967 69.0287 151.162 65.005 147.211 66.432L147.187 66.4554Z" fill="#92EF9A"/>
</svg>
