<svg width="250" height="250" viewBox="0 0 250 250" fill="none" xmlns="http://www.w3.org/2000/svg">
<rect width="250" height="250" fill="#063312"/>
<path d="M231.636 122.736C231.503 122.126 231.35 121.192 231.084 120.01C230.722 118.866 230.283 117.474 229.788 115.873C229.54 115.072 229.274 114.233 228.988 113.356C228.74 112.46 228.378 111.564 227.94 110.649C227.12 108.818 226.225 106.836 225.291 104.757C223.062 100.811 220.68 96.4831 217.593 92.6319L215.402 89.6958C214.64 88.7425 213.782 87.8845 212.982 86.9885C212.887 86.8931 212.811 86.7978 212.734 86.7025C207.552 80.3537 201.321 74.2718 193.966 68.495C194.194 68.8382 194.423 69.1813 194.652 69.5055C188.993 63.3473 183.562 59.8202 176.836 56.274C175.826 55.7211 174.969 55.1873 174.168 54.806C173.349 54.4437 172.625 54.1005 171.939 53.8145C170.586 53.2426 169.481 52.6706 168.242 52.2893C167.004 51.908 165.689 51.5076 163.974 50.9738C162.278 50.4781 160.106 50.1158 157.286 49.5057C151.055 48.2855 144.653 47.7708 138.27 48.0949C131.906 48.5334 125.561 49.4295 119.406 51.1454C106.925 54.1768 95.2641 60.354 85.0319 68.2662C83.1455 69.7914 79.4871 72.9181 75.1046 77.5701C70.7411 82.2221 65.7489 88.4756 61.3092 96.0065C56.8315 103.499 53.0587 112.326 50.6769 121.478C49.5145 126.073 48.7333 130.744 48.2951 135.339C47.9711 139.952 47.8378 144.471 48.2951 148.761C48.981 157.359 51.2675 164.909 53.7637 170.571C54.4306 171.963 55.0403 173.279 55.631 174.499C56.2979 175.662 56.9076 176.73 57.4602 177.702C58.5082 179.666 59.6515 181 60.2803 181.973C61.6522 183.841 61.8046 183.746 60.3946 181.038C60.0326 180.352 59.5752 179.513 59.0608 178.522C58.5844 177.473 58.0128 176.253 57.365 174.842C56.679 173.45 56.1264 171.754 55.3833 169.904C55.0022 168.989 54.7545 167.96 54.4115 166.911C54.1066 165.843 53.6874 164.757 53.4588 163.555C51.4771 156.272 50.6197 148.665 50.9055 141.077C51.2485 133.489 52.7348 125.92 55.0975 118.656C59.823 104.071 68.3593 90.7253 79.1632 79.7627C84.5937 74.2909 90.7101 69.5245 97.2839 65.5398C103.877 61.5742 110.927 58.4475 118.377 56.56C133.259 52.5372 149.188 51.9843 163.707 56.6935C178.227 61.3073 190.784 71.3548 198.882 84.2812C207.094 97.1885 210.943 112.727 210.486 128.036C210.029 143.384 205.303 158.541 196.919 171.525C189.126 184.871 177.503 195.604 163.993 202.926C162.469 203.707 159.668 205.137 155.781 206.758C151.875 208.283 146.882 210.018 141.128 211.257C135.374 212.516 128.838 213.297 122.055 213.202C115.29 213.126 108.278 212.153 101.704 210.304C98.4652 209.427 95.3404 208.302 92.3869 207.025C86.3657 203.421 79.0489 198.922 74.7045 196.291C73.2563 195.109 71.8844 193.927 70.703 192.783C67.3114 189.637 64.8914 186.834 63.4052 185.08C61.8427 183.345 61.252 182.659 61.5569 183.422C61.3282 183.555 61.8808 184.547 62.8907 186.11C63.4052 186.873 64.0149 187.826 64.7771 188.798C65.5774 189.77 66.473 190.819 67.3876 191.925C69.5979 194.461 72.3607 197.034 75.0855 199.303C80.4398 206.357 86.5753 212.649 93.454 216.843C101.476 221.724 109.079 225.385 116.319 227.94C116.91 228.206 117.52 228.454 118.148 228.645C119.806 229.179 121.502 229.732 123.217 230.285C124.97 230.818 126.818 231.066 128.666 231.467C129.6 231.638 130.534 231.848 131.467 231.981L134.326 232.229C136.231 232.344 138.156 232.668 140.061 232.553C140.099 232.553 140.118 232.553 140.156 232.553C141.757 232.591 143.338 232.553 144.901 232.477C145.187 232.477 145.472 232.477 145.739 232.477C145.892 232.477 146.025 232.439 146.177 232.439C147.549 232.344 148.921 232.191 150.274 232C150.579 231.962 150.903 231.924 151.227 231.905C152.618 231.848 153.914 231.486 155.152 231.104C156.6 230.78 158.029 230.418 159.439 229.999C159.897 229.903 160.335 229.808 160.773 229.751C162.221 229.388 163.726 228.988 165.232 228.569L167.518 227.901L169.767 226.986C171.291 226.338 172.796 225.671 174.34 225.023C175.845 224.298 177.293 223.402 178.798 222.582C181.847 220.981 184.61 218.883 187.468 216.863C188.935 215.89 190.212 214.708 191.565 213.602L195.566 210.228C197.453 208.588 197.967 207.196 199.739 206.071C201.607 204.737 203.55 201.991 205.265 200.028C205.97 199.093 206.599 198.369 207.17 198.045C209.266 196.577 211.229 193.717 213.344 190.838C213.859 190.114 214.373 189.37 214.887 188.646C215.364 187.864 215.821 187.101 216.259 186.358C217.174 184.871 218.07 183.46 218.984 182.259C219.632 181.363 220.261 180.524 220.737 179.666C221.214 178.789 221.633 177.931 222.052 177.092C222.871 175.414 223.672 173.736 224.529 171.963C225.634 169.904 226.034 168.779 226.549 167.559C227.025 166.301 227.597 164.928 228.473 162.087C233.161 149.771 233.713 135.987 231.56 122.698L231.636 122.736Z" fill="#92EF9A"/>
<path d="M171.939 172.306C170.262 168.512 168.014 164.756 165.746 161.515C165.232 160.657 164.508 160.009 163.86 159.38C163.231 158.732 162.602 158.141 162.183 157.435C160.182 154.728 157.362 152.192 154.066 150.229C150.77 148.227 147.092 146.72 143.376 145.558C142.081 145.024 141.204 145.367 140.175 144.757C139.013 144.204 137.108 144.166 135.678 143.937C135.012 143.899 134.497 143.842 134.173 143.613C131.544 142.164 126.513 143.06 123.217 142.888C121.978 142.793 120.911 142.888 119.863 143.079C118.834 143.232 117.825 143.441 116.738 143.67C114.147 143.918 114.128 143.975 110.984 145.043C107.402 145.824 104.048 147.388 100.847 149.085C97.6269 150.82 94.5401 152.841 91.4914 154.976C90.4053 155.853 87.2994 158.579 84.0411 162.335C81.3354 165.424 78.5915 169.18 76.1526 172.707C73.6374 175.853 70.9698 179.361 67.9783 183.307C77.4483 194.041 85.8322 201.553 98.1223 205.614C110.412 209.656 145.034 212.001 177.674 190.724C176.931 187.959 176.055 185.08 175.045 182.163C174.568 179.208 173.501 175.776 171.939 172.306Z" fill="#92EF9A"/>
<path d="M172.129 98.7324C169.767 94.4426 166.146 90.6486 162.012 87.8651C160.621 86.7021 159.401 86.8927 158.353 85.7869C157.724 85.2531 156.753 84.948 155.8 84.5858C154.847 84.2236 153.837 83.8994 152.942 83.6516C152.122 83.48 151.494 83.3084 151.132 82.9652C150.388 82.4123 149.379 82.1073 148.292 81.8022C147.187 81.5162 145.968 81.2684 144.729 81.1731C142.252 80.8871 139.661 80.9443 137.584 80.6964C134.478 80.3723 132.172 80.9252 129.429 81.4209C126.17 81.8594 126.113 81.8213 122.245 83.4228C117.863 84.8146 113.766 87.4265 110.565 90.8774C107.345 94.2901 104.925 98.332 103.057 102.641C102.505 104.28 100.752 109.352 101.228 115.682C101.457 118.808 102.2 122.202 103.667 125.252C104.563 127.178 105.706 128.97 106.964 130.553C110.279 135.281 115.043 138.751 120.454 139.818C132.534 137.512 144.482 140.867 152.218 147.006C155.952 146.568 159.363 145.042 162.355 142.774C165.613 141.039 168.909 137.683 171.234 133.546C173.863 129.027 175.331 123.632 175.826 118.675C176.055 117.436 175.845 116.215 175.788 115.091C175.655 113.966 175.502 112.898 175.655 111.888C175.674 107.674 174.511 103.003 172.129 98.7324Z" fill="#92EF9A"/>
<path d="M60.9283 126.893C63.0242 119.858 66.0158 113.09 69.7314 106.76C77.1245 94.0432 87.471 83.1758 99.5325 74.9014C100.218 74.4629 102.067 73.2808 104.506 71.9081C106.964 70.5544 110.012 68.9911 113.004 67.6374C115.976 66.2838 118.911 65.178 120.95 64.301C123.007 63.4812 124.132 62.6805 123.693 62.6042C123.503 61.8988 119.254 62.9855 116.986 63.5765C111.708 64.1675 104.582 67.79 98.8275 70.8023C97.3031 71.4696 96.3885 72.8042 95.0547 73.1474C89.9481 75.359 84.9558 79.744 80.5543 84.3197C79.6587 85.0442 79.6777 85.9212 78.7631 86.3407C77.8676 86.9317 77.1436 88.3235 76.3623 89.2387C76.0765 89.7153 75.8097 90.0394 75.4668 90.1538C73.2183 91.2786 71.713 95.2443 69.9029 97.2843C68.5881 98.8477 68.0355 100.278 67.1781 101.898C65.9396 103.652 65.9777 103.69 64.9297 106.188C61.8429 111.336 60.2804 117.265 58.1654 122.985C57.8986 124.109 57.0602 127.408 56.4124 131.507C55.7264 135.606 55.4215 140.506 55.7836 144.586C56.1075 148.666 56.8887 151.926 57.4032 152.975C57.9558 154.023 58.0701 152.879 58.1082 148.227C57.8986 144.643 57.9939 141.059 58.5084 137.493C59.0038 133.947 59.9184 130.363 60.9473 126.855L60.9283 126.893Z" fill="#92EF9A"/>
<path d="M199.511 146.931C198.672 149.848 197.605 152.193 197.396 153.108C197.3 153.566 197.453 153.68 197.929 153.299C198.424 152.937 199.225 152.06 200.273 150.458C202.998 145.196 204.35 139.457 204.96 133.776C205.57 128.075 205.608 122.432 205.113 116.693C204.636 110.973 203.264 105.216 201.168 99.8773C200.12 97.2272 198.996 94.6343 197.643 92.0605C196.29 89.5248 194.785 87.0844 193.108 84.7775C192.422 83.7289 189.297 79.0769 185.696 75.4164C183.905 73.567 182.057 71.9655 180.666 70.936C179.275 69.9064 178.265 69.5632 178.322 69.9636C177.789 70.65 180.132 72.9378 181.18 74.3296C183.028 77.8567 186.973 81.9176 189.088 86.093C189.545 87.1797 190.65 87.7326 190.726 88.7812C191.851 92.6324 194.061 96.3693 195.776 100.545C195.947 101.326 196.71 101.498 196.557 102.261C196.595 103.023 197.3 103.881 197.567 104.663C197.777 104.987 197.891 105.273 197.758 105.521C197.262 107.294 199.206 109.62 199.225 111.564C199.263 112.975 199.777 113.929 200.063 115.168C200.101 116.655 200.139 116.655 200.654 118.504C200.749 122.641 201.721 126.969 201.245 131.316C201.283 132.136 201.34 134.557 201.13 137.532C200.921 140.487 200.349 143.995 199.492 146.912L199.511 146.931Z" fill="#92EF9A"/>
</svg>
