<svg width="250" height="250" viewBox="0 0 250 250" fill="none" xmlns="http://www.w3.org/2000/svg">
<rect width="250" height="250" fill="#063312"/>
<path d="M119.495 96.0535V96.6537C119.539 96.8093 119.406 97.1872 119.695 97.0093L122.005 96.2758C123.56 95.809 125.048 95.2756 126.67 94.831C128.314 94.4087 129.669 94.1419 131.113 94.053C133.979 93.8529 136.334 94.542 137.422 96.2536C138.022 97.0983 138.378 98.2764 138.422 99.4322C138.466 100.721 138.222 101.944 137.733 103.033C136.778 105.212 134.534 106.745 131.802 107.701C131.18 107.879 130.069 108.235 128.381 108.479C127.959 108.59 125.604 108.79 123.671 108.99C122.205 108.657 122.716 110.257 122.56 111.235C122.516 112.28 122.494 113.347 122.449 114.459C122.294 119.549 122.094 125.75 121.894 131.685C121.849 133.175 121.827 134.642 121.783 136.064C121.761 137.242 121.716 138.421 121.694 139.554C121.694 140.199 121.649 140.821 121.649 141.444V142.377L121.605 142.844V143.066C121.605 143.066 121.738 143.066 121.783 143.088C124.115 142.933 126.359 142.8 128.447 142.666C129.625 142.577 130.713 142.466 131.735 142.399C135.69 142.022 138 141.599 137.333 141.31L138.8 141.377C138.866 140.888 138.955 140.377 139.044 139.865C139.333 140.021 140.199 137.487 141.865 131.063L142.887 126.217L143.309 124.217V124.194C143.309 124.194 143.532 124.15 143.62 124.128L143.998 124.061L145.175 123.794C146.064 123.594 146.93 123.372 147.797 123.039C149.53 122.483 151.196 121.683 152.795 120.771C159.193 117.104 163.814 110.657 165.614 103.589C167.48 96.5426 166.635 88.7182 162.97 82.2498C161.126 79.0267 158.594 76.2037 155.617 74.0031C154.15 72.8917 152.551 71.9581 150.907 71.1579C149.263 70.4022 147.597 69.6464 145.62 69.2241C141.888 68.4461 138.355 68.4461 134.823 68.735C131.291 69.0462 127.803 69.6686 124.338 70.8912L123.693 71.1357C123.36 71.2468 122.982 71.4247 122.605 71.5803C121.872 71.9137 121.116 72.2249 120.428 72.6028C120.272 73.403 120.139 74.1809 120.028 75.0034L119.872 76.137L119.806 76.8039C119.672 78.5599 119.606 80.2493 119.539 81.9386L119.45 86.9844V94.831V96.0535H119.495Z" fill="#92EF9A"/>
<path d="M142.132 152.868C139.599 149.49 135.356 148.956 131.757 148.601C131.069 148.667 128.958 149.023 126.826 150.112C125.071 151.001 123.36 152.491 122.294 154.113C120.872 155.514 119.872 157.27 119.606 159.359V159.426C119.472 160.848 119.672 162.182 120.094 163.36C119.917 164.805 120.516 166.539 121.738 167.939C123.049 169.517 124.915 170.673 126.715 171.585C127.648 172.14 128.647 171.585 129.38 172.229C131.002 173.096 133.157 173.185 135.09 172.652C137.022 172.207 138.977 171.029 140.555 169.629C141.221 169.206 140.977 168.406 141.754 168.273C142.443 167.939 142.732 166.828 143.087 166.116C143.176 165.739 143.287 165.472 143.62 165.427C144.531 165.027 144.998 163.916 145.064 162.716C145.131 162.138 145.109 161.515 145.064 160.937C145.064 160.359 145.064 159.826 145.153 159.315C145.398 157.803 144.665 156.758 144.087 155.625C143.665 154.158 143.576 154.091 142.132 152.846V152.868Z" fill="#92EF9A"/>
<path d="M185.008 161.582C189.717 155.491 193.894 148.867 197.026 141.732C200.158 134.597 202.247 126.95 202.713 119.148C202.824 118.281 203.18 114.413 202.98 110.968C202.891 109.234 202.713 107.612 202.491 106.5C202.269 105.389 201.869 104.744 201.602 104.966C200.692 105.011 200.581 107.234 200.336 108.412C199.092 111.057 199.448 114.903 198.492 117.948C198.181 118.704 198.737 119.459 198.137 120.037C196.604 122.46 196.293 125.461 195.604 128.395C195.338 128.884 195.915 129.329 195.382 129.64C195.004 130.04 195.204 130.84 195.049 131.396C195.071 131.663 195.049 131.885 194.782 131.929C193.405 132.618 194.116 134.819 193.316 135.93C192.739 136.731 192.85 137.531 192.627 138.376C192.094 139.242 192.094 139.242 191.939 140.576C190.539 143.021 190.206 146.111 188.495 148.556C188.318 149.09 187.696 150.623 186.874 152.49C186.052 154.358 185.008 156.558 184.097 158.448C183.208 160.359 182.431 161.915 182.431 162.671C182.431 163.405 183.097 163.271 185.008 161.604V161.582Z" fill="#92EF9A"/>
<path d="M78.2186 105.811C81.151 98.8985 84.7721 92.2078 89.1485 86.095C93.4805 79.96 98.5233 74.403 104.055 69.4461C104.677 68.9126 107.565 66.712 110.342 64.8893C111.697 63.9335 113.03 63.0666 113.919 62.3553C114.829 61.6884 115.185 60.9771 114.896 60.866C114.518 60.1547 112.452 61.0216 111.253 61.3772C108.276 61.5551 105.01 64.0446 102.033 65.6673C101.234 66.0229 101.011 66.9787 100.167 67.0232C97.2793 67.979 94.9467 70.4908 92.7696 72.9581C92.2809 73.3138 92.5475 73.9806 91.9032 74.0696C91.3478 74.2918 91.1257 75.1365 90.748 75.6255C90.6369 75.9145 90.5258 76.0923 90.2593 76.0701C88.6598 76.2702 88.3709 78.7375 87.2602 79.6266C86.4382 80.3157 86.2605 81.1381 85.8162 81.9828C85.0831 82.8052 85.0831 82.8053 84.5721 84.1612C82.6394 86.5618 81.8841 89.7405 80.1735 92.3634C79.9958 92.9413 79.3293 94.564 78.6629 96.5868C77.9742 98.6095 77.2633 101.032 76.7745 103.1C75.8415 107.279 75.5972 109.968 78.2186 105.811Z" fill="#92EF9A"/>
<path d="M221.241 101.41C220.796 99.6536 219.508 94.919 217.02 89.2285C214.509 83.5603 210.91 76.7807 205.69 71.2459C200.714 66.1112 195.826 61.5544 192.072 58.4869C189.85 56.6419 187.984 55.3749 186.985 54.8637C185.896 54.0635 184.808 53.3077 183.652 52.5964C176.366 47.9507 168.168 44.7054 159.726 43.2383C151.285 41.7046 142.643 41.6601 134.268 42.7493C125.915 43.8607 117.606 45.9057 109.786 49.3511C101.989 52.7742 94.7245 57.4644 88.482 63.266C75.8637 74.8246 67.7995 90.829 65.0004 107.411C64.8226 108.323 64.6893 109.656 64.445 111.301C64.245 112.968 63.8674 114.947 63.8007 117.236C63.7341 118.392 63.6674 119.592 63.6008 120.882C63.5564 121.504 63.5342 122.149 63.4897 122.815C63.4897 123.349 63.4231 123.882 63.3342 124.416C63.001 126.572 62.0235 128.795 60.3351 130.529C59.6242 131.262 58.1137 132.44 56.914 133.552C55.6478 134.663 54.4037 135.841 53.1374 137.041C50.6271 139.464 48.1167 142.043 45.673 144.777C40.7857 150.245 36.0539 156.18 32.0551 162.604C30.0779 165.827 28.2563 169.139 26.99 172.851C26.3902 174.718 25.857 176.719 26.0347 179.164C26.1236 180.32 26.5457 181.965 27.5676 183.098C27.7009 183.254 27.8341 183.365 27.9674 183.498C28.1229 183.988 28.3229 184.543 28.6783 185.121C30.2778 187.188 32.1884 188.366 34.1211 189.411C36.0538 190.411 38.0754 191.145 40.1637 191.656C42.2519 192.167 44.4068 192.456 46.6727 192.368C48.8498 192.279 50.7382 192.012 52.7375 191.767C56.6696 191.212 60.5573 190.478 64.4227 189.411C66.3555 188.878 68.2883 188.255 70.2432 187.411L71.665 186.744C71.9315 186.61 72.3536 186.433 72.7535 186.277C73.5532 185.944 74.4196 185.655 75.2638 185.366C75.9969 185.166 79.5514 184.365 82.506 184.365C83.9945 184.365 85.2163 184.565 85.8827 184.743C86.1937 184.788 86.3715 184.854 86.5492 184.877C86.5937 184.921 86.6381 184.943 86.6825 184.988C88.4375 186.188 90.1481 187.477 92.0364 188.478C92.614 188.811 93.1916 189.122 93.7692 189.456C94.0358 189.678 94.2801 189.922 94.5467 190.123C94.8133 190.323 95.1021 190.5 95.3687 190.7C95.3687 190.7 95.3243 190.678 95.3021 190.656C94.2357 190.078 94.1024 190.234 95.2354 191.367C96.3684 192.479 98.701 194.679 103.077 197.525C110.009 201.615 117.562 204.749 125.448 206.638C133.357 208.483 141.577 209.105 149.707 208.416C157.86 207.75 165.88 205.638 173.389 202.392C180.898 199.125 187.784 194.657 194.071 189.545C195.604 188.233 197.248 187.011 198.692 185.588L203.046 181.365C204.535 180.009 205.823 178.319 207.223 176.808C208.489 175.163 209.755 173.54 210.91 171.829C215.487 164.96 218.797 157.358 220.996 149.512C225.284 133.796 225.484 117.081 221.307 101.41H221.241ZM29.4115 177.075C29.9891 174.096 31.4552 171.162 33.1214 168.294C36.4981 162.537 40.8745 156.847 45.673 151.312C50.4937 145.799 55.781 140.465 61.4015 135.752L62.4679 134.885C62.8677 134.552 63.2454 134.218 63.623 133.841C64.3561 133.107 65.0004 132.307 65.578 131.462C66.7332 129.751 67.5107 127.839 67.955 125.861C68.1771 124.883 68.3105 123.86 68.3549 122.86C68.4215 121.971 68.4882 121.104 68.5548 120.215C68.7103 118.481 68.7992 116.747 69.0213 115.058C70.0654 108.323 70.7319 101.988 73.0423 97.0084C77.2854 86.5612 83.9723 76.025 93.4138 67.6672C98.1456 63.5327 103.477 59.9095 109.231 57.0198C114.985 54.0635 121.205 52.1074 127.559 50.7515C129.869 50.3291 131.602 49.8179 133.268 49.5067C134.934 49.1955 136.511 48.7732 138.466 48.951C142.687 48.8398 148.885 48.3508 153.773 48.8621C155.95 49.0177 157.705 49.3066 158.816 49.7512C163.192 51.3072 169.257 52.9298 175.144 55.7751C181.053 58.5536 186.674 62.5547 190.295 66.7113C193.049 69.6899 195.138 72.5351 197.159 75.3359C198.137 76.7585 199.003 78.2256 199.958 79.6704C200.758 81.2042 201.647 82.7379 202.402 84.4273C204.002 88.4506 204.535 90.5622 205.312 92.8962C205.645 94.0743 205.979 95.3413 206.423 96.964C206.756 98.6089 207.312 100.632 207.711 103.366C209 115.502 207.445 128.017 203.224 139.798C202.224 142.776 200.914 145.622 199.603 148.489C198.137 151.312 196.67 154.135 195.071 156.869C191.783 162.248 187.696 167.183 182.986 171.473C181.298 173.14 177.832 176.408 172.589 179.986C167.346 183.498 160.326 187.366 151.996 190.078C143.709 192.834 134.112 194.457 124.515 194.101C114.918 193.812 105.321 191.567 97.2792 187.722C93.2582 185.832 89.5483 183.654 86.3715 181.253C83.2613 178.786 80.2179 177.186 77.1744 176.452C71.1318 174.985 66.5555 176.519 64.5339 177.386C60.2685 178.319 55.9143 179.831 51.7378 181.209C45.9618 182.698 38.8529 184.099 33.8767 183.187C32.5216 182.876 31.0554 182.365 30.1223 181.231C29.1893 180.098 29.2115 178.497 29.4781 177.03L29.4115 177.075Z" fill="#92EF9A"/>
</svg>
