<svg width="250" height="250" viewBox="0 0 250 250" fill="none" xmlns="http://www.w3.org/2000/svg">
<rect width="250" height="250" fill="#063312"/>
<path d="M208.992 74.4674C208.878 73.9896 208.742 73.2616 208.514 72.3742C208.219 71.4868 207.855 70.4174 207.445 69.1888C206.763 66.6859 205.308 63.819 203.807 60.6563C201.192 55.7644 197.394 50.7814 193.483 46.5721C191.527 44.2058 189.344 41.8849 187.002 39.6323C185.638 37.8348 184.228 36.1511 182.954 34.6494C178.566 29.5527 174.109 26.9588 168.719 24.3194C167.196 23.4093 165.945 22.9997 164.922 22.4992C163.898 22.0214 163.012 21.7028 162.034 21.4298C161.079 21.1567 160.055 20.8382 158.714 20.5424C157.372 20.3376 155.735 19.9508 153.529 19.7461C148.731 18.8132 143.819 18.8814 138.998 19.2682C136.588 19.5868 134.177 19.8371 131.812 20.4287C129.425 20.8837 127.105 21.5663 124.786 22.2944C115.44 25.1613 106.889 30.2125 99.2259 36.3104C96.4971 38.6995 88.3562 46.208 81.7844 57.6756C78.4871 63.3639 75.6673 70.0078 73.8481 76.8793C72.0744 83.7735 71.324 90.8953 71.847 97.3344C72.2791 103.774 73.8709 109.439 75.7128 113.671C77.5548 117.926 79.5331 120.77 80.5792 122.113C81.6252 123.478 81.8071 123.341 80.9203 121.271C80.6701 120.725 80.3973 120.11 80.0562 119.36C79.7378 118.563 79.374 117.653 78.9419 116.584C78.5098 115.537 78.146 114.263 77.6685 112.898C77.3046 111.487 76.8044 109.94 76.5087 108.188C75.258 102.818 74.7805 97.2434 75.1671 91.6916C75.5991 86.1171 76.8043 80.588 78.6235 75.241C82.2847 64.547 88.5836 54.695 96.4516 46.4811C104.32 38.2672 114.121 31.828 124.808 28.4605C135.678 25.184 147.344 24.0691 158.031 27.1863C168.696 30.167 177.906 37.4025 183.659 46.9134C189.504 56.4014 191.937 67.8918 191.323 79.1319C190.686 90.4175 187.048 101.453 180.885 111.1C175.109 120.998 166.832 129.052 157.031 134.832C154.848 136.038 148.867 139.451 140.408 141.612C132.04 143.842 121.193 144.57 111.437 142.135C101.636 139.815 93.3818 134.513 88.5154 129.826C85.9913 127.551 84.2176 125.48 83.1033 124.229C81.9208 122.977 81.466 122.522 81.6025 123.114C81.1249 123.387 82.7167 126.413 85.5137 129.758C86.1277 130.509 86.8099 131.237 87.5376 131.965C86.5825 133.102 85.1726 134.923 83.1715 137.676C76.0539 148.666 68.5497 159.542 61.2047 170.622C57.5209 176.197 53.9507 181.749 50.4487 187.551C47.0605 193.353 43.7404 199.428 41.6938 206.254C41.4437 207.096 41.2163 207.983 41.0117 208.825L40.4432 211.419C40.1021 213.262 39.9201 215.196 40.0338 217.107C40.1021 219.018 40.3977 220.93 41.0117 222.841C41.5802 224.73 42.5352 226.664 44.0133 228.347C45.4687 230.008 47.6517 231.464 50.0167 231.829C52.3134 232.193 54.6329 231.965 56.4976 231.26C60.3634 230.008 63.365 227.756 66.0256 225.367C71.3013 220.497 75.1671 214.923 79.0783 209.553C82.9669 204.138 86.7417 198.677 90.4256 193.148C92.1083 190.736 99.4988 180.065 105.798 170.008C110.187 163.023 114.121 156.379 115.667 153.262C115.735 153.285 115.803 153.307 115.872 153.353C119.374 155.56 124.081 157.585 129.334 158.495C135.064 159.564 141.295 159.792 146.843 159.087C148.276 159.087 149.549 158.563 150.755 158.199C151.96 157.79 153.12 157.517 154.279 157.471C158.896 156.652 163.898 154.968 168.446 152.215C173.154 149.644 177.406 146.117 181.476 142.591C182.977 141.362 183.205 140.088 184.683 139.337C186.206 138.381 187.593 136.129 188.935 134.604C189.458 133.853 189.913 133.284 190.436 133.102C193.938 131.009 196.871 124.615 199.623 120.907C200.737 119.587 201.419 118.222 202.01 116.902C202.624 115.582 203.17 114.263 203.852 112.875C205.512 109.644 205.512 109.576 206.831 105.162C210.583 95.6052 210.583 84.8201 209.014 74.5357L208.992 74.4674ZM88.1743 188.165C86.3551 190.349 85.4228 192.898 83.6718 194.422C80.4427 197.903 77.2364 201.931 74.0073 206.186C70.801 210.418 67.6174 214.9 64.0472 218.654C62.6601 219.883 62.4327 221.089 60.9773 221.703C59.5675 222.522 57.9074 224.252 56.2702 225.003C55.588 225.458 54.9967 225.685 54.5647 225.549C52.8592 225.48 51.2674 225.64 49.8802 225.025C48.4476 224.365 46.9695 222.386 46.7194 220.406C46.3555 217.54 45.8553 215.287 46.2646 212.534C47.1969 209.212 47.0832 209.166 48.152 204.843C51.9041 195.765 56.6795 186.39 62.5919 177.585C63.5697 175.856 66.5486 170.759 70.2325 164.547C70.6191 163.91 71.0284 163.205 71.415 162.545C73.8027 165.617 76.3723 168.575 79.3285 171.168C82.5575 174.035 86.2414 176.47 90.2664 177.994C90.6984 178.199 92.5404 179.2 94.3823 179.815C92.313 182.727 90.2436 185.594 88.1743 188.211V188.165ZM108.481 160.657C104.729 164.957 100.477 171.1 96.1561 177.289C95.1782 176.015 93.5864 175.446 92.5176 174.286C92.2448 173.876 91.6081 174.286 91.5398 173.694C90.8576 171.965 89.3341 171.464 87.9697 170.622C87.8105 170.349 87.3102 170.827 87.3557 170.349C87.2874 169.985 86.7417 170.145 86.4916 169.963C86.3324 169.963 86.2187 169.917 86.2869 169.712C86.4688 168.484 84.8543 169.03 84.5359 168.279C84.2858 167.778 83.7628 167.847 83.3307 167.642C83.0124 167.187 83.0123 167.187 82.2392 167.027C81.2841 165.867 79.4422 165.548 78.5098 164.229C78.2369 164.07 77.4638 163.614 76.486 163C75.6219 162.431 74.5304 161.726 73.4161 160.975C73.166 160.816 72.9158 160.657 72.6657 160.497C75.7583 155.287 79.1011 149.69 81.9208 144.729C84.8315 139.61 87.1738 135.219 88.3335 132.738C90.6757 135.036 93.3135 137.175 95.4511 138.609C97.3158 140.065 99.4988 141.43 101.886 142.659C102.705 144.752 104.661 147.619 110.823 150.873C112.029 151.533 113.256 152.101 114.484 152.647C112.756 154.604 110.209 158.381 108.527 160.657H108.481Z" fill="#92EF9A"/>
<path d="M177.201 55.15C175.405 51.555 172.835 48.2557 170.652 45.6619C167.423 41.7711 163.876 39.9964 159.737 38.3126C157.349 37.2205 156.076 36.8564 154.62 36.4923C153.893 36.2875 153.12 36.2421 152.096 36.1056C151.096 35.9463 149.845 35.9235 148.23 35.9235C133.768 34.9906 120.306 42.0669 109.8 51.3502C107.913 53.1932 102.341 58.8815 97.6796 67.1864C95.3601 71.3275 93.2907 76.0829 91.8581 81.0203C90.4937 85.9578 89.7206 91.0545 89.8797 95.6962C89.9934 100.338 90.903 104.456 92.0855 107.505C93.2907 110.577 94.6324 112.625 95.4056 113.58C96.156 114.536 96.3379 114.422 95.8376 112.898C95.3601 111.396 94.1321 108.483 93.5636 103.523C92.2674 95.9237 93.5181 87.8463 96.3834 80.3605C99.2259 72.8519 103.683 65.844 109.163 59.8599C114.644 53.8986 121.215 48.8246 128.583 45.8211C135.996 42.8177 144.205 41.2933 151.687 42.7495C155.416 43.4776 158.986 44.911 161.988 47.1636C165.013 49.3934 167.514 52.3058 169.401 55.6278C173.199 62.3172 174.313 70.5084 173.472 78.381C172.608 86.3218 169.765 94.0351 165.399 100.907C161.215 107.937 155.712 113.921 149.004 118.495C147.548 119.496 143.41 122.135 137.611 124.229C131.835 126.345 124.285 127.596 117.35 126.481C113.893 125.958 110.641 124.911 107.89 123.501C105.115 122.113 102.864 120.383 101.113 118.813C99.3396 117.266 98.1343 115.787 97.3384 114.945C96.5198 114.081 96.156 113.785 96.2014 114.217C95.7012 114.49 96.679 116.697 98.5664 119.177C100.454 121.635 103.387 124.115 105.639 125.503C110.232 129.189 117.873 131.555 125.854 131.191C133.859 130.873 141.931 128.188 148.64 124.752C152.119 123.091 154.484 120.429 157.19 118.995C162.488 115.537 167.582 110.258 171.311 104.138C175.291 98.0852 178.224 90.8952 179.634 83.5232C180.339 80.8838 179.634 79.3366 180.385 77.175C180.931 74.7404 180.407 71.0772 180.112 68.2558C179.839 66.9817 179.634 65.9805 179.816 65.2524C180.021 62.4537 179.043 58.654 177.201 55.0817V55.15Z" fill="#92EF9A"/>
<path d="M158.463 64.4333C143.159 71.4413 127.378 78.4038 113.12 87.5961C112.301 88.0739 108.708 90.0989 105.479 92.1012C103.865 93.1023 102.387 94.1262 101.363 94.8998C100.363 95.7189 99.7717 96.174 100.181 96.4016C100.795 97.3799 103.023 96.265 104.297 95.8327C107.503 95.5142 111.096 92.9886 114.53 91.7599C115.439 91.5096 115.826 90.554 116.69 90.6222C119.897 90.1899 122.83 88.1876 125.854 86.4811C126.468 86.2991 126.446 85.5483 127.082 85.6848C127.696 85.6393 128.242 84.8884 128.811 84.5699C129.015 84.3423 129.22 84.2058 129.47 84.3196C131.085 84.7292 132.381 82.4766 133.882 82.1126C134.973 81.8168 135.519 81.1114 136.36 80.5654C137.475 80.1786 137.452 80.1557 138.612 79.1546C141.636 77.9259 144.16 75.5369 147.298 74.3082C148.344 73.5801 153.665 70.2354 157.554 67.6415C161.42 65.0249 163.762 62.9771 158.463 64.4106V64.4333Z" fill="#92EF9A"/>
<path d="M122.125 98.1537C119.533 99.4279 117.19 100.611 117.804 101.112C118.259 102.067 120.101 101.521 121.125 101.339C123.717 101.635 126.65 99.9512 129.425 99.3596C130.152 99.2686 130.471 98.4495 131.176 98.6543C133.768 98.7226 136.133 97.3119 138.543 96.1287C139.021 96.0377 138.975 95.3323 139.521 95.5371C140.021 95.5826 140.431 94.9455 140.886 94.718C141.045 94.5359 141.204 94.4222 141.409 94.5815C142.75 95.1503 143.683 93.2163 144.888 93.0343C145.752 92.875 146.161 92.2834 146.821 91.8511C147.685 91.6008 147.685 91.5781 148.572 90.7589C150.959 89.9171 152.824 87.8693 155.257 86.9592C156.826 85.7078 171.334 75.9921 163.193 78.2447C151.778 84.1833 139.589 89.0752 128.242 95.2868C127.605 95.6053 124.717 96.8795 122.102 98.1537H122.125Z" fill="#92EF9A"/>
</svg>
