<svg width="512" height="512" viewBox="0 0 512 512" fill="none" xmlns="http://www.w3.org/2000/svg">
<g clip-path="url(#clip0_738_827)">
<circle cx="256" cy="256" r="256" fill="white"/>
<path d="M274.155 100.616C274.641 100.525 274.929 101.299 274.974 102.558C275.05 103.832 274.489 105.485 273.867 107.229C273.185 108.974 272.244 110.733 271.319 112.129C270.864 112.826 270.394 113.418 270.03 113.888C269.635 114.343 269.347 114.692 269.195 114.889C266.586 118.484 262.628 121.23 258.578 122.67C256.621 123.399 254.391 123.99 252.162 124.218C249.947 124.46 247.717 124.4 245.503 124.066C243.288 123.717 241.089 123.126 238.92 122.049C237.843 121.518 236.766 120.85 235.75 120.031C234.703 119.151 233.854 118.241 233.126 117.255C230.198 113.312 228.954 108.428 229.592 103.589C230.138 102.072 230.775 101.283 231.23 100.95C231.685 100.616 232.003 100.753 232.216 101.177C232.64 102.027 232.762 104.014 233.429 106.092C234.051 108.17 235.219 110.263 236.463 111.643C237.691 113.054 238.89 113.782 239.314 113.964C239.936 114.904 241.104 115.299 242.287 115.466C243.47 115.648 244.653 115.663 245.776 116.088C246.944 115.678 246.913 115.648 247.733 115.951C248.476 115.83 249.052 115.223 249.841 115.587C250.387 115.845 251.039 115.405 251.6 115.056C252.177 114.707 252.692 114.51 253.33 115.253C253.527 115.572 253.678 115.481 253.845 115.284C254.315 115.117 254.725 114.313 255.256 114.571C255.847 115.071 255.711 113.979 256.211 114.025C257.364 113.509 258.426 112.857 259.442 112.296C260.489 111.749 261.566 111.355 263.037 111.219C264.023 111.401 263.689 110.233 264.402 109.96C265.661 109.201 266.677 107.927 267.648 106.653C268.619 105.379 269.605 104.135 271.061 103.27C271.926 102.345 272.79 100.298 274.155 100.631V100.616Z" fill="#063312"/>
<path d="M384.033 87.056C384.533 86.9346 384.836 87.9206 384.563 89.407C384.336 90.9087 383.699 92.9715 382.849 95.1102C381.939 97.2338 380.832 99.4332 379.664 101.132C379.118 101.997 378.557 102.74 378.087 103.316C377.616 103.893 377.298 104.348 377.086 104.56C375.447 106.759 373.369 108.701 371.079 110.324C368.758 111.947 366.18 113.069 363.586 113.964C360.977 114.738 358.323 115.299 355.699 115.496C353.166 115.8 350.253 115.739 347.523 115.39C344.762 114.95 342.047 114.146 339.484 112.993C336.936 111.78 334.585 110.203 332.476 108.337C330.368 106.471 328.608 104.241 327.137 101.86C325.651 99.4787 324.589 96.8394 323.922 94.1091C323.846 93.1991 323.876 92.4558 323.982 91.8643C324.073 91.2879 324.179 90.8632 324.301 90.575C324.559 90.0138 324.907 89.9986 325.302 90.3475C325.696 90.6963 326.151 91.4244 326.637 92.3496C327.228 93.2446 327.759 94.3822 328.563 95.4894C330.034 97.7647 332.082 100.04 334.023 101.572C335.935 103.149 337.724 103.968 338.316 104.226C338.908 104.863 339.696 105.227 340.424 105.622C341.213 105.94 342.017 106.198 342.821 106.38C344.474 106.714 346.037 106.926 347.569 107.381C349.085 107.108 349.055 107.002 350.162 107.351C351.148 107.305 351.922 106.593 352.984 107.002C353.757 107.23 354.682 106.744 355.547 106.426C356.412 106.077 357.2 105.804 357.974 106.577C358.201 106.896 358.429 106.82 358.687 106.608C359.324 106.426 359.946 105.607 360.598 105.864C361.296 106.41 361.265 105.243 361.902 105.258C362.297 105.106 362.691 104.97 363.07 104.803L364.162 104.241C364.921 103.923 365.558 103.453 366.286 103.119C366.999 102.77 367.651 102.345 368.409 102.088C369.107 101.724 369.911 101.496 370.776 101.284C371.822 101.268 371.716 100.055 372.535 99.5393C374.113 98.4472 375.311 96.6574 376.54 94.9889C377.708 93.2597 378.906 91.6064 380.468 90.4385C381.424 89.2099 382.667 86.6464 384.017 87.0408L384.033 87.056Z" fill="#063312"/>
<path d="M308.617 395.985C289.688 395.985 272.533 383.168 266.556 371.625C252.374 344.277 262.779 307.737 287.246 231.532C236.888 282.709 200.499 333.037 165.567 381.166L154.434 395.985L90 385.079C91.2589 378.375 93.9437 364.177 96.4464 352.073C105.502 308.374 130.923 204.988 162.23 126.448L218.064 148.714C204.837 181.872 192.202 221.552 181.509 259.244C212.452 221.673 248.294 182.979 294.693 141.464L303.248 133.804H381.181L369.062 172.786C361.979 195.569 355.32 216.258 349.298 234.93C337.664 271.045 325.727 308.086 321.647 329.609C342.124 311.316 360.295 290.066 402.402 225.738L451 245.123C425.32 291.037 398.367 332.324 375.19 359.278C365.225 370.866 339.393 396 308.617 396V395.985Z" fill="#063312"/>
</g>
<defs>
<clipPath id="clip0_738_827">
<rect width="512" height="512" fill="white"/>
</clipPath>
</defs>
</svg>
