<svg width="512" height="512" viewBox="0 0 512 512" fill="none" xmlns="http://www.w3.org/2000/svg">
<g clip-path="url(#clip0_738_837)">
<circle cx="256" cy="256" r="256" fill="white"/>
<path d="M318.675 394.983C297.229 394.983 277.794 380.48 271.024 367.419C254.956 336.475 266.745 295.13 294.463 208.904C237.411 266.811 196.187 323.757 156.611 378.215L143.998 394.983L71 382.643C72.4263 375.057 75.4679 358.992 78.3033 345.297C88.5794 295.851 117.363 178.869 152.848 90L216.103 115.195C201.118 152.713 186.804 197.611 174.689 240.26C209.745 197.748 250.351 153.966 302.917 106.991L312.609 98.324H400.901L387.171 142.432C379.146 168.211 371.602 191.621 364.78 212.748C351.6 253.613 338.076 295.524 333.454 319.878C356.652 299.18 377.239 275.135 424.942 202.348L480 224.282C450.907 276.233 420.371 322.951 394.114 353.449C382.824 366.561 353.559 395 318.692 395L318.675 394.983Z" fill="#063312"/>
</g>
<defs>
<clipPath id="clip0_738_837">
<rect width="512" height="512" fill="white"/>
</clipPath>
</defs>
</svg>
