<svg width="512" height="512" viewBox="0 0 512 512" fill="none" xmlns="http://www.w3.org/2000/svg">
<path d="M304.475 421.981C281.142 421.981 259.996 406.195 252.63 391.978C235.148 358.294 247.974 313.289 278.132 219.43C216.059 282.463 171.205 344.45 128.147 403.729L114.424 421.981L35 408.549C36.5518 400.291 39.8611 382.805 42.9461 367.897C54.1267 314.073 85.4437 186.736 124.052 90L192.875 117.425C176.571 158.264 160.997 207.137 147.816 253.562C185.957 207.286 230.137 159.628 287.331 108.495L297.876 99.0608H393.939L379 147.074C370.269 175.134 362.061 200.617 354.639 223.615C340.298 268.097 325.584 313.718 320.555 340.228C345.795 317.698 368.194 291.524 420.096 212.293L480 236.169C448.346 292.72 415.122 343.572 386.554 376.771C374.27 391.044 342.43 422 304.494 422L304.475 421.981Z" fill="#063312"/>
</svg>
