<svg width="512" height="512" viewBox="0 0 512 512" fill="none" xmlns="http://www.w3.org/2000/svg">
<path d="M261.82 59.9347C262.46 59.8148 262.84 60.8337 262.9 62.492C263 64.1702 262.26 66.3478 261.44 68.6454C260.54 70.9429 259.3 73.2605 258.08 75.0985C257.48 76.0175 256.86 76.7967 256.38 77.416C255.86 78.0154 255.48 78.4749 255.28 78.7346C251.84 83.4696 246.62 87.0857 241.28 88.9837C238.7 89.9427 235.76 90.7219 232.82 91.0215C229.9 91.3412 226.96 91.2613 224.04 90.8218C221.12 90.3622 218.22 89.5831 215.36 88.1646C213.94 87.4653 212.52 86.5863 211.18 85.5074C209.8 84.3487 208.68 83.1499 207.72 81.8513C203.86 76.6569 202.22 70.2237 203.06 63.8505C203.78 61.8526 204.62 60.8137 205.22 60.3742C205.82 59.9347 206.24 60.1145 206.52 60.6739C207.08 61.7927 207.24 64.4099 208.12 67.147C208.94 69.8841 210.48 72.6411 212.12 74.4592C213.74 76.3172 215.32 77.2762 215.88 77.5159C216.7 78.7546 218.24 79.2741 219.8 79.4938C221.36 79.7336 222.92 79.7536 224.4 80.313C225.94 79.7735 225.9 79.7336 226.98 80.1331C227.96 79.9733 228.72 79.1742 229.76 79.6537C230.48 79.9933 231.34 79.4139 232.08 78.9544C232.84 78.4949 233.52 78.2352 234.36 79.2141C234.62 79.6337 234.82 79.5138 235.04 79.2541C235.66 79.0343 236.2 77.9754 236.9 78.3151C237.68 78.9744 237.5 77.5359 238.16 77.5959C239.68 76.9166 241.08 76.0575 242.42 75.3183C243.8 74.599 245.22 74.0796 247.16 73.8998C248.46 74.1395 248.02 72.6012 248.96 72.2416C250.62 71.2426 251.96 69.5644 253.24 67.8862C254.52 66.208 255.82 64.5697 257.74 63.431C258.88 62.2123 260.02 59.5151 261.82 59.9547V59.9347Z" fill="#063312"/>
<path d="M406.7 42.0737C407.36 41.9139 407.76 43.2125 407.4 45.1704C407.1 47.1483 406.26 49.8654 405.14 52.6824C403.94 55.4794 402.48 58.3764 400.94 60.614C400.22 61.7528 399.48 62.7317 398.86 63.4909C398.24 64.2501 397.82 64.8495 397.54 65.1292C395.38 68.0261 392.64 70.5833 389.62 72.7211C386.56 74.8588 383.16 76.3372 379.74 77.516C376.3 78.5349 372.8 79.2741 369.34 79.5338C366 79.9334 362.16 79.8535 358.56 79.394C354.92 78.8146 351.34 77.7557 347.96 76.2373C344.6 74.639 341.5 72.5612 338.72 70.1039C335.94 67.6465 333.62 64.7096 331.68 61.5729C329.72 58.4363 328.32 54.96 327.44 51.3638C327.34 50.1651 327.38 49.1862 327.52 48.407C327.64 47.6478 327.78 47.0884 327.94 46.7088C328.28 45.9696 328.74 45.9496 329.26 46.4091C329.78 46.8686 330.38 47.8276 331.02 49.0463C331.8 50.225 332.5 51.7234 333.56 53.1819C335.5 56.1787 338.2 59.1755 340.76 61.1934C343.28 63.2711 345.64 64.35 346.42 64.6896C347.2 65.5287 348.24 66.0082 349.2 66.5277C350.24 66.9472 351.3 67.2869 352.36 67.5266C354.54 67.9661 356.6 68.2458 358.62 68.8452C360.62 68.4856 360.58 68.3457 362.04 68.8052C363.34 68.7453 364.36 67.8063 365.76 68.3457C366.78 68.6454 368 68.0061 369.14 67.5865C370.28 67.127 371.32 66.7674 372.34 67.7863C372.64 68.2059 372.94 68.106 373.28 67.8263C374.12 67.5865 374.94 66.5077 375.8 66.8473C376.72 67.5666 376.68 66.0282 377.52 66.0482C378.04 65.8484 378.56 65.6686 379.06 65.4488L380.5 64.7096C381.5 64.2901 382.34 63.6707 383.3 63.2312C384.24 62.7717 385.1 62.2123 386.1 61.8726C387.02 61.3931 388.08 61.0935 389.22 60.8138C390.6 60.7938 390.46 59.1955 391.54 58.5162C393.62 57.0777 395.2 54.7203 396.82 52.5226C398.36 50.245 399.94 48.0673 402 46.529C403.26 44.9107 404.9 41.5343 406.68 42.0538L406.7 42.0737Z" fill="#063312"/>
<path d="M307.26 448.98C282.3 448.98 259.68 432.098 251.8 416.894C233.1 380.873 246.82 332.744 279.08 232.371C212.68 299.779 164.7 366.068 118.64 429.461L103.96 448.98L19 434.615C20.66 425.785 24.2 407.085 27.5 391.142C39.44 333.583 72.96 197.408 114.24 93.9584L187.86 123.287C170.42 166.961 153.76 219.225 139.66 268.872C180.46 219.385 227.72 168.419 288.9 113.737L300.18 103.648H402.94L386.96 154.993C377.62 185.001 368.84 212.252 360.9 236.846C345.56 284.415 329.82 333.203 324.44 361.553C351.44 337.459 375.4 309.469 430.92 224.739L495 250.272C461.14 310.747 425.6 365.129 395.04 400.632C381.9 415.895 347.84 449 307.26 449V448.98Z" fill="#063312"/>
</svg>
