<svg width="677" height="191" viewBox="0 0 677 191" fill="none" xmlns="http://www.w3.org/2000/svg">
<rect width="677" height="191" fill="#F2F4F2"/>
<path d="M187.06 73.11C176.69 73.11 168.97 76.77 164.38 83.49C150.18 105.18 144.02 112.34 137.12 118.51C138.5 111.25 142.52 98.76 146.45 86.58C148.48 80.28 150.73 73.31 153.12 65.63L157.21 52.48H130.93L128.04 55.06C112.39 69.06 100.31 82.11 89.87 94.78C93.48 82.07 97.74 68.69 102.2 57.51L83.36 50C72.8 76.48 64.23 111.35 61.18 126.08C60.33 130.16 59.43 134.95 59 137.21L80.73 140.89L84.48 135.89C96.26 119.66 108.53 102.69 125.51 85.43C117.26 111.13 113.75 123.45 118.53 132.67C120.55 136.56 126.33 140.89 132.71 140.89C143.09 140.89 151.8 132.41 155.16 128.5C156.91 126.46 158.73 124.15 160.59 121.67C163.63 133.86 173.04 140.89 187.05 140.89C204.32 140.89 214.63 130.25 214.63 112.44V101.49C214.63 83.45 204.58 73.1 187.05 73.1L187.06 73.11ZM192.64 116.35C192.64 122.85 190.82 126.01 187.06 126.01C183.3 126.01 181.55 122.85 181.55 116.35V97.73C181.55 91.15 183.35 87.95 187.06 87.95C190.77 87.95 192.64 91.15 192.64 97.73V116.35Z" fill="#063312"/>
<path d="M244.55 118.32V90.11H255.62V74.84H244.55V56.08L222.98 62.09V74.85H216.18V90.12H222.98V121.8C222.98 134.49 229.01 140.66 241.41 140.66C246.16 140.66 250.76 139.78 254.72 138.1L256.03 122.27C253.49 122.89 251.2 123.22 249.39 123.22C246.14 123.22 244.56 121.62 244.56 118.33L244.55 118.32Z" fill="#063312"/>
<path d="M281.32 74.84H259.75V139.16H281.32V74.84Z" fill="#063312"/>
<path d="M281.32 54.25H259.75V69.21H281.32V54.25Z" fill="#063312"/>
<path d="M313.43 73.11C295.94 73.11 285.91 83.46 285.91 101.5V112.45C285.91 130.26 296.2 140.9 313.43 140.9C330.66 140.9 341.01 130.26 341.01 112.45V101.5C341.01 83.46 330.96 73.11 313.43 73.11ZM319.01 116.35C319.01 122.85 317.19 126.01 313.43 126.01C309.67 126.01 307.92 122.85 307.92 116.35V97.73C307.92 91.15 309.72 87.95 313.43 87.95C317.14 87.95 319.01 91.15 319.01 97.73V116.35Z" fill="#063312"/>
<path d="M384.32 73.98C375.7 73.98 369.64 78.31 365.24 87.6L365.1 87.88L363.37 87.06L363.48 86.78C365.6 81.63 366.26 78.89 366.36 74.84H345.6V139.16H367.17V102.05C367.17 91.05 370.5 88.74 373.3 88.74C375.93 88.74 377.27 90.57 377.27 94.19V139.16H398.84V89.06C398.84 78.91 394.09 73.97 384.31 73.97L384.32 73.98Z" fill="#063312"/>
<path d="M431.05 73.17C412.93 73.17 403.34 83.18 403.34 102.11V112.32C403.34 130.97 412.75 140.83 430.55 140.83C447 140.83 456.43 132.81 457.13 118.24L436.8 116.5C436.63 123.28 434.83 126.18 430.8 126.18C426.77 126.18 424.54 123.29 424.54 117.58V112.07H457.35C457.63 108.53 457.76 103.6 457.76 100.45C457.76 82.86 448.27 73.18 431.05 73.18V73.17ZM436.19 100.27H424.55V97.48C424.55 89.55 427.79 87.89 430.5 87.89C434.33 87.89 436.2 90.44 436.2 95.69V100.27H436.19Z" fill="#063312"/>
<path d="M489.23 73.17C471.11 73.17 461.53 83.18 461.53 102.11V112.32C461.53 130.97 470.94 140.83 488.74 140.83C505.19 140.83 514.62 132.81 515.32 118.24L494.99 116.5C494.82 123.28 493.02 126.18 488.99 126.18C484.96 126.18 482.74 123.29 482.74 117.58V112.07H515.55C515.83 108.53 515.96 103.6 515.96 100.45C515.96 82.86 506.47 73.18 489.24 73.18L489.23 73.17ZM494.37 100.27H482.73V97.48C482.73 89.55 485.96 87.89 488.67 87.89C492.51 87.89 494.37 90.44 494.37 95.69V100.27Z" fill="#063312"/>
<path d="M540.38 88.04L540.22 88.33L538.66 87.32L538.77 87.08C541.05 81.93 541.8 78.79 541.66 74.84H520.63V139.16H542.2V112.75C542.2 96.7 544.13 94.55 560.91 92.61L558.93 72.72C550.29 74.08 546.26 77.44 540.37 88.04H540.38Z" fill="#063312"/>
<path d="M599.44 101.72L592.76 98.44C585.98 95.05 583.8 92.95 583.8 89.8C583.8 87.67 585.26 86.39 587.7 86.39C589.05 86.39 590.08 86.77 590.85 87.57C592.03 88.79 592.55 90.94 592.48 94.33L612.37 91.87C612.25 79.41 604.14 73.35 587.57 73.35C571 73.35 563.02 80.27 563.02 92.83C563.02 100.12 567.25 105.94 575.97 110.61L582.65 114.2C589.49 117.9 592.03 120.54 592.03 123.94C592.03 126.23 590.58 127.66 588.25 127.66C586.95 127.66 585.88 127.24 585.05 126.4C583.62 124.96 582.93 122.35 582.93 118.43L562.47 121.13C562.5 126.8 564.14 131.31 567.35 134.53C571.55 138.75 578.52 140.89 588.08 140.89C604.75 140.89 613.93 133.97 613.93 121.41C613.93 109.92 606.77 105.38 599.45 101.71L599.44 101.72Z" fill="#063312"/>
</svg>
