<svg width="677" height="109" viewBox="0 0 677 109" fill="none" xmlns="http://www.w3.org/2000/svg">
<g clip-path="url(#clip0_735_805)">
<path d="M153.152 27.7117C140.717 27.7117 131.46 32.1004 125.956 40.1585C108.929 66.1674 101.542 74.7531 93.2683 82.1517C94.923 73.4461 99.7435 58.4691 104.456 43.8638C106.89 36.3093 109.588 27.9515 112.454 18.7422L117.359 2.97382H85.8457L82.3802 6.06755C63.614 22.8552 49.1287 38.5037 36.6098 53.6966C40.9387 38.4558 46.0469 22.4116 51.395 9.00539L28.8036 0C16.1409 31.7527 5.86441 73.566 2.2071 91.229C1.18785 96.1214 0.108639 101.865 -0.406982 104.575L25.6499 108.988L30.1466 102.992C44.2722 83.5307 58.9854 63.1816 79.3465 42.4848C69.4537 73.3022 65.2448 88.0753 70.9766 99.1312C73.3988 103.796 80.3298 108.988 87.9801 108.988C100.427 108.988 110.871 98.8195 114.9 94.1309C116.999 91.6847 119.181 88.9147 121.412 85.9409C125.057 100.558 136.341 108.988 153.14 108.988C173.849 108.988 186.212 96.2294 186.212 74.873V61.7427C186.212 40.1106 174.161 27.6997 153.14 27.6997L153.152 27.7117ZM159.843 79.5616C159.843 87.3559 157.661 91.1451 153.152 91.1451C148.644 91.1451 146.545 87.3559 146.545 79.5616V57.234C146.545 49.3438 148.704 45.5066 153.152 45.5066C157.601 45.5066 159.843 49.3438 159.843 57.234V79.5616Z" fill="#063312"/>
<path d="M222.09 81.9239V48.0967H235.364V29.7861H222.09V7.29063L196.225 14.4973V29.7981H188.071V48.1087H196.225V86.0968C196.225 101.314 203.455 108.712 218.324 108.712C224.02 108.712 229.536 107.657 234.285 105.642L235.855 86.6604C232.81 87.4038 230.064 87.7995 227.893 87.7995C223.996 87.7995 222.102 85.8809 222.102 81.9358L222.09 81.9239Z" fill="#063312"/>
<path d="M266.181 29.7861H240.316V106.914H266.181V29.7861Z" fill="#063312"/>
<path d="M266.181 5.09626H240.316V23.0351H266.181V5.09626Z" fill="#063312"/>
<path d="M304.685 27.7117C283.712 27.7117 271.685 40.1226 271.685 61.7547V74.885C271.685 96.2414 284.024 109 304.685 109C325.346 109 337.757 96.2414 337.757 74.885V61.7547C337.757 40.1226 325.705 27.7117 304.685 27.7117ZM311.376 79.5616C311.376 87.3559 309.194 91.1451 304.685 91.1451C300.176 91.1451 298.078 87.3559 298.078 79.5616V57.234C298.078 49.3438 300.236 45.5066 304.685 45.5066C309.134 45.5066 311.376 49.3438 311.376 57.234V79.5616Z" fill="#063312"/>
<path d="M389.69 28.7549C379.354 28.7549 372.087 33.9471 366.811 45.0869L366.643 45.4227L364.569 44.4394L364.701 44.1036C367.243 37.9282 368.034 34.6426 368.154 29.7861H343.26V106.914H369.126V62.4142C369.126 49.2239 373.119 46.4539 376.476 46.4539C379.63 46.4539 381.237 48.6483 381.237 52.9891V106.914H407.102V46.8376C407.102 34.6666 401.406 28.7429 389.678 28.7429L389.69 28.7549Z" fill="#063312"/>
<path d="M445.726 27.7836C423.998 27.7836 412.498 39.7868 412.498 62.4861V74.7291C412.498 97.0927 423.782 108.916 445.126 108.916C464.852 108.916 476.159 99.2991 476.999 81.8279L452.621 79.7415C452.417 87.8715 450.258 91.3489 445.426 91.3489C440.593 91.3489 437.919 87.8835 437.919 81.0365V74.4294H477.263C477.598 70.1845 477.754 64.2728 477.754 60.4956C477.754 39.4031 466.374 27.7956 445.726 27.7956V27.7836ZM451.889 60.2798H437.931V56.9342C437.931 47.4252 441.817 45.4346 445.066 45.4346C449.659 45.4346 451.901 48.4924 451.901 54.7878V60.2798H451.889Z" fill="#063312"/>
<path d="M515.49 27.7836C493.762 27.7836 482.275 39.7868 482.275 62.4861V74.7291C482.275 97.0927 493.558 108.916 514.903 108.916C534.628 108.916 545.936 99.2991 546.775 81.8279L522.397 79.7415C522.193 87.8715 520.035 91.3489 515.202 91.3489C510.37 91.3489 507.708 87.8835 507.708 81.0365V74.4294H547.051C547.387 70.1845 547.543 64.2728 547.543 60.4956C547.543 39.4031 536.163 27.7956 515.502 27.7956L515.49 27.7836ZM521.654 60.2798H507.696V56.9342C507.696 47.4252 511.569 45.4346 514.819 45.4346C519.423 45.4346 521.654 48.4924 521.654 54.7878V60.2798Z" fill="#063312"/>
<path d="M576.825 45.6145L576.634 45.9623L574.763 44.7512L574.895 44.4634C577.629 38.2879 578.528 34.5227 578.36 29.7861H553.143V106.914H579.008V75.2448C579.008 55.9989 581.322 53.4208 601.443 51.0945L599.069 27.244C588.709 28.8748 583.876 32.9039 576.813 45.6145H576.825Z" fill="#063312"/>
<path d="M647.645 62.0185L639.635 58.0854C631.505 54.0204 628.891 51.5022 628.891 47.725C628.891 45.1708 630.642 43.636 633.568 43.636C635.187 43.636 636.422 44.0916 637.345 45.0509C638.76 46.5139 639.383 49.092 639.3 53.157L663.15 50.2072C663.006 35.2661 653.281 27.9995 633.412 27.9995C613.542 27.9995 603.973 36.2974 603.973 51.3583C603.973 60.0999 609.046 67.0788 619.502 72.6787L627.512 76.9835C635.714 81.4202 638.76 84.5859 638.76 88.6629C638.76 91.4089 637.021 93.1237 634.227 93.1237C632.668 93.1237 631.385 92.62 630.39 91.6128C628.675 89.886 627.848 86.7563 627.848 82.0558L603.314 85.2934C603.35 92.0924 605.317 97.5004 609.166 101.362C614.202 106.422 622.56 108.988 634.023 108.988C654.013 108.988 665.021 100.69 665.021 85.6292C665.021 71.8513 656.435 66.4073 647.657 62.0065L647.645 62.0185Z" fill="#063312"/>
</g>
<defs>
<clipPath id="clip0_735_805">
<rect width="677" height="109" fill="white"/>
</clipPath>
</defs>
</svg>
